<svg xmlns="http://www.w3.org/2000/svg" viewBox="0 0 73.1 10.83"><defs><style>.cls-1{fill:#231f20;}.cls-2{fill:#fff;}</style></defs><title>aqua_fab_title</title><g id="Layer_2" data-name="Layer 2"><g id="レイヤー_1" data-name="レイヤー 1"><path class="cls-1" d="M4.5.26h1L9.83,10.57H8.75L7.63,7.83H2.17L1,10.57H0Zm.45,1L2.55,7H7.28Z"/><path class="cls-1" d="M21.73,10.57H16.05a5.27,5.27,0,0,1-5.42-5.28A5,5,0,0,1,15.86,0a5,5,0,0,1,5.23,5.28,4.71,4.71,0,0,1-2.58,4.38v0h3.22ZM16,9.69a4.12,4.12,0,0,0,4.1-4.41A4.11,4.11,0,0,0,15.86.87,4.11,4.11,0,0,0,11.6,5.28,4.34,4.34,0,0,0,16,9.69Z"/><path class="cls-1" d="M30.76,6.62c0,2.2-.95,4.21-3.76,4.21s-3.76-2-3.76-4.21V.26h1V6.38c0,1.47.39,3.58,2.79,3.58S29.8,7.85,29.8,6.38V.26h1Z"/><path class="cls-1" d="M36.55.26h1l4.34,10.31H40.8L39.68,7.83H34.22l-1.16,2.74h-1Zm.45,1L34.6,7h4.73Z"/><path class="cls-2" d="M48.31.26h6.17v.87H49.27V4.8h4.85v.87H49.27v4.89h-1Z"/><path class="cls-2" d="M59.56.26h1l4.34,10.31H63.81L62.68,7.83H57.23l-1.16,2.74h-1Zm.45,1L57.6,7h4.73Z"/><path class="cls-2" d="M66.36.26h3C70.9.26,72.65.66,72.65,3A2.11,2.11,0,0,1,70.8,5.12v0a2.41,2.41,0,0,1,2.3,2.53c0,2.37-2.05,2.88-3.45,2.88H66.36Zm1,4.45h2c2,0,2.37-1.09,2.37-1.73,0-1.44-1-1.85-2.24-1.85H67.32Zm0,5h2.2c2.26,0,2.62-1.25,2.62-2,0-1.53-1.25-2.13-2.47-2.13H67.32Z"/></g></g></svg>