<svg xmlns="http://www.w3.org/2000/svg" viewBox="0 0 35.27 17.79"><defs><style>.cls-1{fill:#1c9ad6;}.cls-2{fill:#fff;}.cls-3{fill:#000100;}.cls-4{fill:none;stroke:#000100;stroke-width:0.06px;}</style></defs><title>aqua_clara_logo</title><g id="Layer_2" data-name="Layer 2"><g id="レイヤー_1" data-name="レイヤー 1"><path class="cls-1" d="M17.44,8.53c-.94,0-1.52-.7-1.52-2s.58-2,1.48-2a1.05,1.05,0,0,1,1.12,1.19V8a1.45,1.45,0,0,1-1.09.56M23.7,15.8V13.13c1.51-1.68,3.6-3.31,7.89-3.31a12.33,12.33,0,0,1,4.12.76c.18.09.21,0,.08-.13a8.2,8.2,0,0,0-4.2-1.24,9.59,9.59,0,0,0-7.89,3.44V9.42h-.19c-.21.09-1,.42-1.24.52v.22c.41-.08.55,0,.55.65v2.9c-1.16,1.43-2.11,2.65-3.76,2.65S16.33,15.15,16.33,13c0-1.77.86-3,2.2-3.2v.56c0,.45-.13.58-.5.69v.18h1.88v-.18c-.37-.1-.5-.23-.5-.69V9.78a2.49,2.49,0,0,1,2.19,2h.2V9.51h-.22a.67.67,0,0,1-.91.32,3.47,3.47,0,0,0-1.25-.34V4.31h-.19a1.6,1.6,0,0,1-.53.28,2.12,2.12,0,0,0-1.26-.38,2.51,2.51,0,0,0-2.37,2.72,2,2,0,0,0,1.8,2.29,2.06,2.06,0,0,0,1.67-.85V9.51a3.56,3.56,0,0,0-3.42,3.74,3.48,3.48,0,0,0,3.81,3.55c1.79,0,2.74-1.21,3.89-2.62V15.8c0,.45-.13.58-.5.69v.18H24.2v-.18c-.37-.1-.5-.23-.5-.69" transform="translate(-1.88 -1.84)"/><path class="cls-1" d="M27.74,6.22V8.11a1.66,1.66,0,0,1-1.17.5.67.67,0,0,1-.68-.73c0-.64.48-1.15,1.85-1.66m-7.26-1V7.74c0,1,.54,1.48,1.21,1.48a2.1,2.1,0,0,0,1.62-.87c0,.64.32.88.73.88a1.58,1.58,0,0,0,1.05-.67,1.16,1.16,0,0,0,1,.66,2.37,2.37,0,0,0,1.6-.78c0,.57.34.79.72.79a1.71,1.71,0,0,0,1.15-.79V8.16a1.27,1.27,0,0,1-.69.45c-.19,0-.3-.09-.3-.47V5.59c0-1-.46-1.39-1.68-1.39s-1.73.56-1.73,1.16c0,.26.11.48.45.48a.39.39,0,0,0,.44-.47c-.06-.56.17-.89.75-.89.74,0,.9.31.9,1.15v.3C25.65,6.59,25,7.22,25,8.14a1,1,0,0,0,0,.18,1,1,0,0,1-.52.29c-.19,0-.3-.09-.3-.47V4.31H22.81V4.5c.37.1.5.23.5.69V8a1.48,1.48,0,0,1-1.11.6c-.6,0-.85-.22-.85-.89V4.31H20V4.5c.37.1.5.23.5.69" transform="translate(-1.88 -1.84)"/><path class="cls-1" d="M25.54,15.46c0-.64.48-1.15,1.85-1.66v1.89a1.66,1.66,0,0,1-1.17.5.67.67,0,0,1-.68-.73m2.73.25V13.17c0-1-.46-1.39-1.68-1.39s-1.73.56-1.73,1.16c0,.26.11.48.45.48a.39.39,0,0,0,.44-.47c-.06-.56.17-.89.75-.89.74,0,.9.31.9,1.15v.3c-2.09.67-2.75,1.29-2.75,2.21a1.12,1.12,0,0,0,1.14,1.08A2.38,2.38,0,0,0,27.39,16c0,.57.34.79.72.79A1.71,1.71,0,0,0,29.26,16v-.28a1.27,1.27,0,0,1-.69.45c-.19,0-.3-.09-.3-.47" transform="translate(-1.88 -1.84)"/><path class="cls-1" d="M10,7,11.54,3.5l1.2,2.8A5.29,5.29,0,0,0,10,7m3.3,1.88v.19h2.21V8.91a1,1,0,0,1-.8-.75L12,1.84h-.2L9,8.16c-.2.44-.35.65-.79.75v.19H9.75V8.91c-.34-.1-.47-.28-.27-.74.37-.85,1.59-1.47,3.43-1.48l.64,1.48c.19.45.08.63-.26.74" transform="translate(-1.88 -1.84)"/><path class="cls-1" d="M33.43,15.46c0-.64.48-1.15,1.85-1.66v1.89a1.66,1.66,0,0,1-1.17.5.67.67,0,0,1-.68-.73m3,.72c-.19,0-.3-.09-.3-.47V13.17c0-1-.46-1.39-1.68-1.39s-1.73.56-1.73,1.16c0,.26.11.48.45.48a.39.39,0,0,0,.44-.47c-.07-.56.17-.89.75-.89.74,0,.9.31.9,1.15v.3c-2.09.67-2.75,1.29-2.75,2.21a1.12,1.12,0,0,0,1.14,1.08,2.38,2.38,0,0,0,1.6-.78c0,.57.34.79.72.79A1.71,1.71,0,0,0,37.15,16v-.28a1.27,1.27,0,0,1-.69.45" transform="translate(-1.88 -1.84)"/><path class="cls-1" d="M32,11.78a2,2,0,0,0-1.32.86v-.85h-.19c-.21.09-1,.42-1.24.52v.22c.41-.08.55,0,.55.65V15.8c0,.45-.13.58-.5.69v.18h1.88v-.18c-.37-.1-.5-.23-.5-.69V13.08a2.74,2.74,0,0,1,.44-.53.54.54,0,0,1,.78.14.46.46,0,0,0,.81-.29c0-.42-.28-.63-.7-.63" transform="translate(-1.88 -1.84)"/><path class="cls-1" d="M14,12.4a4.41,4.41,0,0,1-2.36.69C11,9.47,6.45,7.78,1.88,9.1c1.44,5.85,8.52,7.34,9.69,4.19a4,4,0,0,0,2.28-.65" transform="translate(-1.88 -1.84)"/><path class="cls-1" d="M13.86,12.64a2.18,2.18,0,0,1,0,1.51c-2-.54-4.51,1.63-4.59,5.34,4.61-.15,6-4,4.75-5.27a2.18,2.18,0,0,0,0-1.83" transform="translate(-1.88 -1.84)"/><path class="cls-2" d="M3.41,10.34a.05.05,0,0,0,0,.08,15,15,0,0,0,7.17,2.74.05.05,0,0,0,.06-.05.06.06,0,0,0-.05-.06,15.18,15.18,0,0,1-7.11-2.71.06.06,0,0,0-.08,0" transform="translate(-1.88 -1.84)"/><path class="cls-2" d="M4.89,12.91A5.66,5.66,0,0,0,9,14.6c.93-.15.92-.81.5-1.15a2.37,2.37,0,0,0-1.85-.2,3,3,0,0,1-2.46-.58c-.3-.28-.55,0-.34.24" transform="translate(-1.88 -1.84)"/><path class="cls-1" d="M5,12.84a0,0,0,0,0,0,.07A4.82,4.82,0,0,0,6.74,14a0,0,0,0,0,.06,0,0,0,0,0,0,0-.06,4.78,4.78,0,0,1-1.65-1,0,0,0,0,0-.07,0" transform="translate(-1.88 -1.84)"/><path class="cls-1" d="M8,13.37a1.69,1.69,0,0,1,1.5.38c.16.28-.06.51-.25.24s-.59-.41-1.2-.45c-.19,0-.19-.15-.06-.17" transform="translate(-1.88 -1.84)"/><path class="cls-2" d="M13.65,14.62a12.13,12.13,0,0,1-3.37,3.93.06.06,0,1,0,.06.09,12.3,12.3,0,0,0,3.4-4,.05.05,0,0,0,0-.07.06.06,0,0,0-.07,0" transform="translate(-1.88 -1.84)"/><path class="cls-2" d="M13.08,17.35c-1.09-.1-2.74,1.46-1.91,2.12s2-.77,1.91-2.12" transform="translate(-1.88 -1.84)"/><path class="cls-1" d="M11.47,19.51c.36.16,1-.37,1.22-.85.06-.12,0-.13-.1,0-.2.31-.55.63-.8.59s-.5.22-.32.3" transform="translate(-1.88 -1.84)"/><path class="cls-1" d="M12.67,17.57a2.33,2.33,0,0,0-1,.52,0,0,0,0,0,0,.07,0,0,0,0,0,.07,0,2.28,2.28,0,0,1,.91-.49,0,0,0,0,0,0-.09" transform="translate(-1.88 -1.84)"/><path class="cls-3" d="M39.23,21.39" transform="translate(-1.88 -1.84)"/><path class="cls-4" d="M39.23,21.39" transform="translate(-1.88 -1.84)"/><path class="cls-3" d="M0,0" transform="translate(-1.88 -1.84)"/><path class="cls-4" d="M0,0" transform="translate(-1.88 -1.84)"/><path class="cls-3" d="M0,21.39" transform="translate(-1.88 -1.84)"/><path class="cls-4" d="M0,21.39" transform="translate(-1.88 -1.84)"/></g></g></svg>