<svg xmlns="http://www.w3.org/2000/svg" viewBox="0 0 30.45 7.44"><defs><style>.cls-1{fill:#393839;}</style></defs><title>color_selector_black_1</title><g id="Layer_2" data-name="Layer 2"><g id="レイヤー_1" data-name="レイヤー 1"><path class="cls-1" d="M0,.18H2C3.12.18,4.32.45,4.32,2A1.45,1.45,0,0,1,3,3.52v0A1.65,1.65,0,0,1,4.63,5.28c0,1.63-1.41,2-2.37,2H0ZM.66,3.24H2C3.4,3.24,3.66,2.49,3.66,2c0-1-.7-1.27-1.54-1.27H.66Zm0,3.42H2.17C3.72,6.66,4,5.8,4,5.3c0-1.05-.86-1.46-1.7-1.46H.66Z"/><path class="cls-1" d="M6.3.18H7V6.66h3.3v.6h-4Z"/><path class="cls-1" d="M13.47.18h.68l3,7.08h-.74l-.77-1.88H11.87l-.8,1.88h-.69Zm.31.72L12.13,4.78h3.25Z"/><path class="cls-1" d="M24,6.15a3.07,3.07,0,0,1-2.63,1.29,3.54,3.54,0,0,1-3.66-3.72A3.54,3.54,0,0,1,21.35,0a2.94,2.94,0,0,1,2.44,1.11l-.54.45a2.26,2.26,0,0,0-1.9-1,2.92,2.92,0,0,0-3,3.12,2.92,2.92,0,0,0,3,3.12,2.55,2.55,0,0,0,2.09-1.1Z"/><path class="cls-1" d="M25.19.18h.66V3.3h.06L29.34.18h.91L26.67,3.42l3.78,3.84H29.5L25.91,3.6h-.06V7.26h-.66Z"/></g></g></svg>