<svg xmlns="http://www.w3.org/2000/svg" viewBox="0 0 234.32 47.05"><defs><style>.cls-1{fill:#ed1c24;}.cls-2,.cls-3{fill:#fff;}.cls-2{opacity:0.3;}</style></defs><title>button_small</title><g id="Layer_2" data-name="Layer 2"><g id="レイヤー_1" data-name="レイヤー 1"><rect class="cls-1" width="234.32" height="47.05"/><rect class="cls-2" x="2.33" y="2.67" width="229.66" height="20.29"/><path class="cls-3" d="M22.89,26.9A32,32,0,0,0,19,29.74c-.1.07-.22.19-.34.19-.43,0-1.18-1.37-1.18-1.83,0-.24.22-.31.48-.46,1.35-.79,2.62-1.68,3.95-2.48,1-.6,1.11-.65,1.11-1.3,0-.89,0-1.78,0-2.7,0-.31-.14-.58-.51-.58-.07,0-1.9.31-2.14.36a3,3,0,0,1-.65.07c-.26,0-.6,0-.6-1.42,0-.63.1-.63.55-.65.87,0,1.78-.14,2.65-.24.38,0,.67-.17.77-.55,0-.12.1-2.26.1-2.5s0-.6,0-.87c0,0,0-.17,0-.24a.28.28,0,0,1,.29-.31c.31,0,1.61.29,2,.36.14,0,.43.1.43.29s-.17.31-.29.41a2.63,2.63,0,0,0-.41,1.54,5.83,5.83,0,0,1,0,.63v.26a.34.34,0,0,0,.36.36,15.54,15.54,0,0,0,1.81-.48,1.78,1.78,0,0,1,.38-.1c.43,0,.51,1.2.51,1.54,0,.58-.29.6-2.31.94-1.06.17-1,.36-1,2.38,0,.48,0,.94.31.94a1.57,1.57,0,0,0,.53-.19,11.84,11.84,0,0,1,4.35-1c2.6,0,5.13,1.56,5.13,4.38A4,4,0,0,1,33.34,30a10.05,10.05,0,0,1-5,1c-.36,0-.84,0-1-.19A4.65,4.65,0,0,1,27,29.26c0-.24.1-.46.36-.46a15.7,15.7,0,0,0,2,.24c1.59,0,3.75-.53,3.75-2.5,0-1.71-1.73-2.53-3.2-2.53a9.86,9.86,0,0,0-4.64,1.32A.77.77,0,0,0,25,26c0,.38,0,1.3.1,1.73s.22,2.82.22,3c0,1.11-1.23,1.54-1.8,1.54s-.67-.48-.84-.87a4.92,4.92,0,0,0-1.42-1.93c-.12-.1-.29-.24-.29-.41a.45.45,0,0,1,.46-.41c.24,0,1,.65,1.28.79a.76.76,0,0,0,.41.22c.12,0,.14-.1.14-.17s-.1-1-.1-1.35C23.16,27.26,23.21,26.9,22.89,26.9Zm9.94-9.24c.55.41,1.76,1.44,2.38,1.92a6.1,6.1,0,0,1,1.25,1.23c0,.38-.82,1.35-1.23,1.35-.19,0-.36-.17-.51-.29a36,36,0,0,0-3.1-2.65c-.17-.14-.41-.29-.41-.53s.84-1.25,1.18-1.25A.75.75,0,0,1,32.83,17.66Z"/><path class="cls-3" d="M50.78,27.16c-.48,0-.67.19-.67.67v1.64c0,1.16,0,2.33,0,3.51,0,.75-.17.82-1,.82s-1,0-1-.79c0-1.18.07-2.36.07-3.54V27.84c0-.48-.22-.67-.67-.67H42.87c-.31,0-.46.12-.48.46,0,.1,0,.22,0,.31,0,.55-.36.55-1,.55s-1,0-1-.58,0-1.28,0-1.9V18.86c0-.55,0-1.11,0-1.66,0-.89.38-1.08,1.23-1.08l2.17,0h3.73c.46,0,.67-.19.67-.67v-1a11.47,11.47,0,0,0-.1-1.59.91.91,0,0,1,0-.24c0-.29.19-.31.41-.31s1.35.07,1.73.1c.19,0,.51,0,.51.29s-.12.22-.29.36-.29.53-.29,1.28v1.13c0,.48.19.67.67.67h3.8l2.14,0c.77,0,1.25.14,1.25,1,0,.58,0,1.16,0,1.73V26c0,.63,0,1.25,0,1.9s-.29.58-1,.58-1.06,0-1.06-.58a1.19,1.19,0,0,1,0-.29c0-.34-.17-.46-.48-.46ZM48.16,18.6a.69.69,0,0,0-.67-.67H43a.69.69,0,0,0-.67.67v1.49a.69.69,0,0,0,.67.67h4.48a.69.69,0,0,0,.67-.67Zm0,4.57a.67.67,0,0,0-.67-.67H43a.67.67,0,0,0-.67.67v1.56a.69.69,0,0,0,.67.67h4.48a.69.69,0,0,0,.67-.67ZM56,18.6a.64.64,0,0,0-.65-.67H50.78a.67.67,0,0,0-.67.67v1.49a.67.67,0,0,0,.67.67h4.55a.64.64,0,0,0,.65-.67Zm0,4.57c0-.43-.24-.63-.65-.67H50.78a.66.66,0,0,0-.67.67v1.56a.67.67,0,0,0,.67.67h4.55a.64.64,0,0,0,.65-.67Z"/><path class="cls-3" d="M63.16,23c-.39,0-.77.07-1.16.07s-.51-.24-.51-.94,0-1,.53-1,.75,0,1.13,0h1l1.54,0c.94,0,1.3.24,1.3,1.11,0,.63,0,1.28,0,1.92V27.6a3,3,0,0,0,2,3.18,16.49,16.49,0,0,0,5.37.6H76c1.23,0,2.45,0,3.66,0,.79,0,1.68-.07,2.45-.07.36,0,.41.24.41.55,0,1.23-.36,1.35-1.13,1.35H76.76c-1.35,0-2.67,0-4,0a15.78,15.78,0,0,1-3.68-.36,4.49,4.49,0,0,1-2.72-1.9.59.59,0,0,0-.46-.29.65.65,0,0,0-.36.12c-.7.55-1.85,1.44-2.57,1.92a.63.63,0,0,0-.22.41c0,.17-.07.38-.31.38s-.24-.12-.48-.48a4.34,4.34,0,0,0-.24-.39,2.79,2.79,0,0,1-.55-1c0-.22.26-.36.6-.5a3.23,3.23,0,0,0,.41-.19c.53-.29,1.9-1.23,2.45-1.59a1.06,1.06,0,0,0,.46-1V23.72c0-.46-.19-.67-.67-.67ZM66.22,18c-.19,0-.39-.19-.51-.34a32.9,32.9,0,0,0-3.51-3.34c-.17-.14-.36-.29-.36-.53s.75-1,1.13-1a13,13,0,0,1,2.41,1.95c.55.53,1.32,1.28,1.83,1.85a.62.62,0,0,1,.17.38C67.37,17.32,66.6,18,66.22,18Zm8-2.79a1.12,1.12,0,0,0-.51-.07H71.61c-.55,0-1.13.07-1.71.07s-.63-.17-.63-1,.07-1,.72-1,1.11.07,1.66.07H74.3c1.56,0,1.85,0,2,1.2,0,.29,0,.84.07,1.49a14.69,14.69,0,0,0,5.49,11.21c.17.14.63.46.63.7a1.66,1.66,0,0,1-1.37,1.32c-.41,0-1.76-1.42-2.07-1.76a17.82,17.82,0,0,1-3.78-6.62c0-.07-.1-.14-.19-.14a.21.21,0,0,0-.19.14,18.92,18.92,0,0,1-4.64,7.24c-.24.24-1.06,1-1.3,1s-1.18-.87-1.18-1.25.39-.58.58-.75a18.4,18.4,0,0,0,6-11.67C74.35,15.32,74.3,15.25,74.21,15.2Z"/><path class="cls-3" d="M97.74,16a.48.48,0,0,1-.22.36,25.85,25.85,0,0,0-3.13,5.51c0,.36.48.43.87.5a16.18,16.18,0,0,1,2.77.87,1.27,1.27,0,0,0,.43.12c.36,0,.46-.26.53-.55A12,12,0,0,0,99.4,20v-.19c0-.24,0-.53.31-.53s1.71.31,1.95.39.38.12.38.34a.55.55,0,0,1-.14.29c-.29.29-.29.26-.41.84q-.25,1.23-.58,2.45a1.26,1.26,0,0,0-.1.43c0,.38.29.58.6.75.48.24,1.88,1,2.29,1.16.22.1.55.22.55.51s-.94,1.88-1.37,1.88c-.19,0-.41-.22-.55-.34a8.64,8.64,0,0,0-2.29-1.49.54.54,0,0,0-.46.36,17.07,17.07,0,0,1-2.69,3.75c-.34.36-1.88,1.8-2.31,1.8S93,31.66,93,31.25c0-.19.24-.34.39-.41a10.85,10.85,0,0,0,4.55-5.12c0-.43-.39-.55-1.08-.84A13.82,13.82,0,0,0,93.7,24c-.46,0-.63.34-1.23,1.54-.12.26-.29.55-.46.92-.75,1.49-1.59,3.39-3.54,3.39a2.66,2.66,0,0,1-2.65-2.79c0-2.14,1.92-3.95,3.83-4.6a8.45,8.45,0,0,1,2-.41c.41,0,.63-.07.82-.48.65-1.32,1.25-2.7,1.95-4a1.24,1.24,0,0,0,.19-.46.25.25,0,0,0-.24-.24c-.1,0-3.34,1.23-3.66,1.35a1.88,1.88,0,0,1-.6.17c-.6,0-1.2-1.47-1.2-1.78s.26-.29.46-.34a23.81,23.81,0,0,0,5.75-1.73,1.29,1.29,0,0,1,.65-.26C96.15,14.29,97.74,15.52,97.74,16ZM87.61,27c0,.48.24.89.75.89.87,0,1.59-1.4,2-2.07a7.61,7.61,0,0,0,.72-1.59.25.25,0,0,0-.26-.24C89.8,24,87.61,25.36,87.61,27Z"/><path class="cls-3" d="M112.32,15.18c.14.07.41.19.41.38s-.07.19-.19.24c-.51.24-.63.38-.94,1.2a24.46,24.46,0,0,0-1.25,7.44c0,.48.1,3.44.63,3.44.19,0,.36-.36.65-1.08.12-.29.39-1.18.67-1.18s.77.31.77.58a2.56,2.56,0,0,1-.12.46,20.36,20.36,0,0,0-1,3.78c0,.34,0,.67,0,1,0,.53-.31.7-.75.89a2.65,2.65,0,0,1-.75.22c-.34,0-.55-.48-.67-.75a17.22,17.22,0,0,1-1.42-7.29,28.83,28.83,0,0,1,1.13-7.72c.19-.67.41-1.35.58-2,0-.17.1-.39.29-.39A15.26,15.26,0,0,1,112.32,15.18Zm9.6-.7c.12,0,.22.1.22.24s-.12.26-.22.38a3.75,3.75,0,0,0-.26,1.8v.55c0,.53,0,.89.51.89a18.68,18.68,0,0,0,2.55-.63.9.9,0,0,1,.36-.1c.46,0,.6,1.42.6,1.64,0,.51-.7.6-3.13,1-.43.07-.79.14-.79.72s.17,4.55.22,5.32c0,.6.31.67.77.89.67.31,3.27,1.71,3.27,2.48,0,.51-.7,1.4-1.13,1.4-.24,0-.48-.24-.63-.38a7.75,7.75,0,0,0-2.07-1.49c-.24,0-.29.19-.31.39-.29,1.68-1.8,2.24-3.34,2.24-1.78,0-3.87-.82-3.87-2.91s1.83-2.82,3.59-2.82a9.17,9.17,0,0,1,1.15.07.84.84,0,0,0,.24,0c.34,0,.46-.17.46-.48,0-.82-.12-3.32-.17-4.21,0-.26,0-.87-.55-.87-.12,0-1.76.1-2.67.1a19.44,19.44,0,0,1-2.43-.12c-.31-.1-.31-1.16-.31-1.47s0-.55.34-.55a3.33,3.33,0,0,1,.48,0c1,.1,2.14.17,3.18.17s1.76,0,1.76-.55-.22-3-.31-3.61v-.22a.26.26,0,0,1,.29-.29A18.87,18.87,0,0,1,121.92,14.48ZM119.85,28a5.48,5.48,0,0,0-1.42-.22c-.65,0-2,.24-2,1.11s1.3,1.2,2,1.2c1.06,0,1.71-.43,1.71-1.56A.53.53,0,0,0,119.85,28Z"/><path class="cls-3" d="M132.1,25.7a3.49,3.49,0,0,0,.82,1.76c1,1.11,2.79,1.3,4.19,1.3a32.47,32.47,0,0,0,7.32-.84,1,1,0,0,1,.26,0c.36,0,.46.43.46,1.4,0,.38-.07.77-.48.91a42.87,42.87,0,0,1-7.22.7c-2.43,0-5.1-.36-6.62-2.5a5.23,5.23,0,0,1-.87-2.19c0-.53,1.66-.89,1.68-.89C131.93,25.29,132,25.43,132.1,25.7Zm1.44-9.62a14.33,14.33,0,0,0,4.16.53,19.24,19.24,0,0,0,4.38-.48l.29,0c.55,0,.55,1.15.55,1.54,0,.58-.14.65-.62.72a33.82,33.82,0,0,1-4.4.26c-1.08,0-4.6-.12-5.39-.65a.48.48,0,0,1-.19-.46,10.2,10.2,0,0,1,.19-1.13c.07-.22.14-.43.43-.43A2.67,2.67,0,0,1,133.54,16.07Z"/><path class="cls-3" d="M157.79,14.41c0,.14-.14.26-.26.36-.34.26-.43.6-.6,1.23,0,.22-.1.43-.17.7a2.39,2.39,0,0,0-.07.41.36.36,0,0,0,.38.36,29,29,0,0,0,5-1.08,2.22,2.22,0,0,1,.63-.17c.46,0,.6,1.56.6,1.73,0,.36-.34.41-.7.48-1.59.29-4.19.65-5.8.84-.75.1-.79.29-1,1.4-.1.43-.22,1-.43,1.73a5.77,5.77,0,0,0-.19.82.18.18,0,0,0,.19.19.61.61,0,0,0,.34-.14,8.43,8.43,0,0,1,4.62-1.54A4.45,4.45,0,0,1,165,26.49c0,3-2.07,4.79-4.79,5.49a23,23,0,0,1-5,.67c-.7,0-.79-.12-.94-.55a5.6,5.6,0,0,1-.26-1.23.43.43,0,0,1,.48-.43c.29,0,1,.12,1.78.12a12.49,12.49,0,0,0,4.09-.7A3.62,3.62,0,0,0,163,26.34a2.6,2.6,0,0,0-2.67-2.77,8.37,8.37,0,0,0-6,3c-.17.22-.36.55-.67.55s-1.54-.55-1.54-1.11a1.44,1.44,0,0,1,.14-.55,25.41,25.41,0,0,0,1.4-4.14A10.74,10.74,0,0,0,154,20a.32.32,0,0,0-.38-.31l-3.34.29a2.3,2.3,0,0,1-.41,0c-.34,0-.46-.14-.55-.43a6.62,6.62,0,0,1-.17-1.18c0-.58.34-.55.5-.55.79,0,1.56,0,2.33,0,1.42,0,2.26,0,2.53-.38a18.9,18.9,0,0,0,.6-3.34c0-.36,0-.77.34-.77C155.53,13.35,157.79,13.9,157.79,14.41Z"/><path class="cls-3" d="M174.75,18.24c.17,0,.41.12.41.31a.28.28,0,0,1-.14.24c-.41.31-.46.43-.55,1.08-.19,1.35-.43,2.7-.7,4,0,.1,0,.19,0,.29a.22.22,0,0,0,.19.24.54.54,0,0,0,.31-.14,9.35,9.35,0,0,1,5.92-2.58,4.73,4.73,0,0,1,5.08,4.81c0,3.78-3.39,5.08-6.52,5.82a13.18,13.18,0,0,1-1.85.34c-.46,0-.58-.17-.77-.55a3.61,3.61,0,0,1-.36-1.23c0-.36.34-.36.6-.38a20.24,20.24,0,0,0,3.2-.53c1.85-.48,3.63-1.3,3.63-3.51A2.88,2.88,0,0,0,180,23.65c-2.65,0-5.22,2.09-6.81,4.07-.17.22-.38.5-.7.5-.14,0-1.49-.19-1.49-.82,0,0,.46-1.47.58-2a35.15,35.15,0,0,0,.75-5.46c0-.41,0-.75,0-1,0-.84,0-1.15.38-1.15A14.16,14.16,0,0,1,174.75,18.24Zm.75-5.13a20.45,20.45,0,0,1,2.84,1.59c.34.22,1.37.8,1.37,1.16s-.77,1.54-1.18,1.54c-.24,0-.5-.26-.67-.41a17.72,17.72,0,0,0-2.91-2c-.26-.14-.55-.24-.55-.48S175,13.11,175.49,13.11Z"/><path class="cls-3" d="M196,28.8c-.68.69-1.33,1.38-2,2.07a1.22,1.22,0,0,1-.81.46c-.39,0-1.88-.34-1.88-.59a18.69,18.69,0,0,1,2.08-2.16c.16-.17.33-.3.39-.37l4.55-4.48c.13-.13.39-.37.39-.54s-.26-.4-.39-.54l-4.55-4.48c-.06-.07-.23-.2-.39-.37a18.69,18.69,0,0,1-2.08-2.16c0-.25,1.5-.59,1.88-.59a1.22,1.22,0,0,1,.81.46c.65.69,1.3,1.38,2,2.07l4.29,4.23c.45.44,1.17.84,1.17,1.38s-.71.94-1.17,1.38Z"/><path class="cls-3" d="M203.77,28.8c-.68.69-1.33,1.38-2,2.07a1.22,1.22,0,0,1-.81.46c-.39,0-1.88-.34-1.88-.59a18.7,18.7,0,0,1,2.08-2.16c.16-.17.33-.3.39-.37l4.55-4.48c.13-.13.39-.37.39-.54s-.26-.4-.39-.54l-4.55-4.48c-.06-.07-.23-.2-.39-.37a18.7,18.7,0,0,1-2.08-2.16c0-.25,1.5-.59,1.88-.59a1.22,1.22,0,0,1,.81.46c.65.69,1.3,1.38,2,2.07l4.29,4.23c.45.44,1.17.84,1.17,1.38s-.71.94-1.17,1.38Z"/></g></g></svg>