<svg xmlns="http://www.w3.org/2000/svg" viewBox="0 0 66.53 13.36"><defs><style>.cls-1{fill:#ed1c24;}.cls-2,.cls-3{fill:#fff;}.cls-2{opacity:0.3;}</style></defs><title>button_mod</title><g id="Layer_2" data-name="Layer 2"><g id="レイヤー_1" data-name="レイヤー 1"><rect class="cls-1" width="66.53" height="13.36"/><rect class="cls-2" x="0.66" y="0.76" width="65.21" height="5.76"/><path class="cls-3" d="M6.5,7.64a9.09,9.09,0,0,0-1.09.81s-.06.05-.1.05S5,8.11,5,8s.06-.09.14-.13c.38-.23.75-.48,1.12-.7s.31-.18.31-.37,0-.51,0-.77c0-.09,0-.16-.14-.16l-.61.1L5.62,6c-.08,0-.17,0-.17-.4,0-.18,0-.18.16-.18s.51,0,.75-.07.19,0,.22-.16,0-.64,0-.71,0-.17,0-.25,0,0,0-.07A.08.08,0,0,1,6.67,4c.09,0,.46.08.57.1s.12,0,.12.08,0,.09-.08.12a.75.75,0,0,0-.12.44,1.67,1.67,0,0,1,0,.18V5a.1.1,0,0,0,.1.1A4.43,4.43,0,0,0,7.76,5l.11,0C8,5,8,5.31,8,5.41s-.08.17-.66.27c-.3,0-.27.1-.27.68,0,.14,0,.27.09.27a.44.44,0,0,0,.15-.05,3.36,3.36,0,0,1,1.24-.28A1.33,1.33,0,0,1,10,7.53a1.13,1.13,0,0,1-.55,1,2.86,2.86,0,0,1-1.41.28c-.1,0-.24,0-.27-.05a1.32,1.32,0,0,1-.1-.43c0-.07,0-.13.1-.13a4.45,4.45,0,0,0,.57.07c.45,0,1.07-.15,1.07-.71s-.49-.72-.91-.72a2.8,2.8,0,0,0-1.32.38.22.22,0,0,0-.08.18c0,.11,0,.37,0,.49s.06.8.06.85c0,.31-.35.44-.51.44S6.49,9,6.45,8.9A1.39,1.39,0,0,0,6,8.35S6,8.29,6,8.24a.13.13,0,0,1,.13-.12c.07,0,.27.18.36.23a.21.21,0,0,0,.12.06s0,0,0,0,0-.29,0-.38S6.59,7.64,6.5,7.64ZM9.32,5c.16.12.5.41.68.55a1.72,1.72,0,0,1,.36.35c0,.11-.23.38-.35.38s-.1,0-.14-.08A10.23,10.23,0,0,0,9,5.46s-.12-.08-.12-.15.24-.36.33-.36A.21.21,0,0,1,9.32,5Z"/><path class="cls-3" d="M14.66,7.71c-.14,0-.19.05-.19.19v.46c0,.33,0,.66,0,1s0,.23-.29.23-.29,0-.29-.23,0-.67,0-1V7.9c0-.14-.06-.19-.19-.19H12.41c-.09,0-.13,0-.14.13s0,.06,0,.09-.1.16-.29.16-.29,0-.29-.16,0-.36,0-.54v-2c0-.16,0-.31,0-.47s.11-.31.35-.31h1.67c.13,0,.19-.05.19-.19V4.1a3.27,3.27,0,0,0,0-.45.26.26,0,0,1,0-.07c0-.08.05-.09.12-.09l.49,0c.05,0,.14,0,.14.08s0,.06-.08.1-.08.15-.08.36v.32c0,.14.05.19.19.19h1.69c.22,0,.36,0,.36.29s0,.33,0,.49v2c0,.18,0,.36,0,.54s-.08.16-.29.16-.3,0-.3-.16a.33.33,0,0,1,0-.08c0-.1,0-.13-.14-.13Zm-.75-2.43a.2.2,0,0,0-.19-.19H12.45a.2.2,0,0,0-.19.19V5.7a.2.2,0,0,0,.19.19h1.27a.2.2,0,0,0,.19-.19Zm0,1.3a.19.19,0,0,0-.19-.19H12.45a.19.19,0,0,0-.19.19V7a.2.2,0,0,0,.19.19h1.27A.2.2,0,0,0,13.92,7Zm2.22-1.3A.18.18,0,0,0,16,5.09H14.66a.19.19,0,0,0-.19.19V5.7a.19.19,0,0,0,.19.19H16a.18.18,0,0,0,.18-.19Zm0,1.3c0-.12-.07-.18-.18-.19H14.66a.19.19,0,0,0-.19.19V7a.19.19,0,0,0,.19.19H16A.18.18,0,0,0,16.14,7Z"/><path class="cls-3" d="M18.4,6.54l-.33,0c-.13,0-.14-.07-.14-.27s0-.27.15-.27h1.05c.27,0,.37.07.37.31s0,.36,0,.55v.94a.85.85,0,0,0,.56.9,4.68,4.68,0,0,0,1.52.17h1.52l.7,0c.1,0,.12.07.12.16,0,.35-.1.38-.32.38H21.12a4.49,4.49,0,0,1-1-.1,1.27,1.27,0,0,1-.77-.54.17.17,0,0,0-.13-.08.18.18,0,0,0-.1,0c-.2.16-.53.41-.73.55a.18.18,0,0,0-.06.12s0,.11-.09.11-.07,0-.14-.14L18,9.25A.8.8,0,0,1,17.83,9c0-.06.08-.1.17-.14l.12-.05c.15-.08.54-.35.7-.45A.3.3,0,0,0,18.94,8V6.73c0-.13-.05-.19-.19-.19Zm.87-1.44c-.05,0-.11-.05-.14-.1a9.34,9.34,0,0,0-1-1S18,4,18,3.91s.21-.29.32-.29a3.68,3.68,0,0,1,.68.55c.16.15.38.36.52.53a.18.18,0,0,1,0,.11C19.6,4.92,19.38,5.11,19.27,5.11Zm2.27-.79a.32.32,0,0,0-.14,0H20.8l-.49,0c-.16,0-.18,0-.18-.28s0-.27.21-.27l.47,0h.75c.44,0,.53,0,.56.34,0,.08,0,.24,0,.42a4.17,4.17,0,0,0,1.56,3.19s.18.13.18.2a.47.47,0,0,1-.39.38c-.12,0-.5-.4-.59-.5a5.06,5.06,0,0,1-1.07-1.88s0,0-.05,0a.06.06,0,0,0-.05,0A5.37,5.37,0,0,1,20.41,8c-.07.07-.3.29-.37.29S19.7,8,19.7,7.92s.11-.16.16-.21A5.23,5.23,0,0,0,21.57,4.4S21.57,4.33,21.54,4.31Z"/><path class="cls-3" d="M28.45,4.55a.14.14,0,0,1-.06.1,7.34,7.34,0,0,0-.89,1.57c0,.1.14.12.25.14a4.55,4.55,0,0,1,.79.25.37.37,0,0,0,.12,0c.1,0,.13-.08.15-.16a3.41,3.41,0,0,0,.12-.79V5.63c0-.07,0-.15.09-.15s.49.09.55.11.11,0,.11.1a.16.16,0,0,1,0,.08c-.08.08-.08.08-.12.24s-.1.46-.16.7a.36.36,0,0,0,0,.12c0,.11.08.16.17.21s.53.28.65.33.16.06.16.14S30,8,29.91,8,29.79,8,29.75,8a2.46,2.46,0,0,0-.65-.42.15.15,0,0,0-.13.1,4.84,4.84,0,0,1-.77,1.07c-.1.1-.53.51-.66.51s-.46-.22-.46-.33.07-.1.11-.12A3.08,3.08,0,0,0,28.49,7.3c0-.12-.11-.16-.31-.24a3.92,3.92,0,0,0-.89-.25c-.13,0-.18.1-.35.44l-.13.26c-.21.42-.45,1-1,1a.76.76,0,0,1-.75-.79,1.53,1.53,0,0,1,1.09-1.31,2.38,2.38,0,0,1,.57-.12c.12,0,.18,0,.23-.14.18-.38.36-.77.55-1.13a.35.35,0,0,0,.05-.13.07.07,0,0,0-.07-.07s-1,.35-1,.38a.54.54,0,0,1-.17,0c-.17,0-.34-.42-.34-.51s.08-.08.13-.1a6.76,6.76,0,0,0,1.63-.49.37.37,0,0,1,.18-.08C28,4.05,28.45,4.4,28.45,4.55ZM25.57,7.68c0,.14.07.25.21.25s.45-.4.56-.59a2.16,2.16,0,0,0,.21-.45.07.07,0,0,0-.08-.07C26.19,6.82,25.57,7.2,25.57,7.68Z"/><path class="cls-3" d="M32.83,4.31s.12.05.12.11,0,.05-.05.07-.18.11-.27.34a7,7,0,0,0-.36,2.11c0,.14,0,1,.18,1s.1-.1.18-.31.11-.33.19-.33.22.09.22.16a.72.72,0,0,1,0,.13,5.79,5.79,0,0,0-.28,1.07c0,.1,0,.19,0,.28s-.09.2-.21.25a.76.76,0,0,1-.21.06c-.1,0-.16-.14-.19-.21A4.89,4.89,0,0,1,31.72,7,8.19,8.19,0,0,1,32,4.76c.05-.19.12-.38.16-.57s0-.11.08-.11A4.35,4.35,0,0,1,32.83,4.31Zm2.73-.2s.06,0,.06.07,0,.08-.06.11a1.07,1.07,0,0,0-.08.51V5c0,.15,0,.25.14.25A5.31,5.31,0,0,0,36.35,5l.1,0c.13,0,.17.4.17.46s-.2.17-.89.27c-.12,0-.23,0-.23.21s0,1.29.06,1.51.09.19.22.25.93.49.93.7-.2.4-.32.4-.14-.07-.18-.11a2.2,2.2,0,0,0-.59-.42c-.07,0-.08.05-.09.11-.08.48-.51.64-1,.64s-1.1-.23-1.1-.83.52-.8,1-.8l.33,0h.07c.1,0,.13,0,.13-.14s0-.94,0-1.2c0-.08,0-.25-.16-.25l-.76,0a5.48,5.48,0,0,1-.69,0c-.09,0-.09-.33-.09-.42s0-.16.1-.16h.14c.29,0,.61,0,.9,0s.5,0,.5-.16-.06-.84-.09-1V4.08A.07.07,0,0,1,34.92,4,5.39,5.39,0,0,1,35.56,4.11ZM35,7.94a1.55,1.55,0,0,0-.4-.06c-.18,0-.56.07-.56.31s.37.34.57.34.49-.12.49-.44A.15.15,0,0,0,35,7.94Z"/><path class="cls-3" d="M38.73,7.29a1,1,0,0,0,.23.5,1.61,1.61,0,0,0,1.19.37,9.23,9.23,0,0,0,2.08-.24h.08c.1,0,.13.12.13.4,0,.11,0,.22-.14.26a12.2,12.2,0,0,1-2.05.2,2.16,2.16,0,0,1-1.88-.71,1.49,1.49,0,0,1-.25-.62c0-.15.47-.25.48-.25S38.71,7.22,38.73,7.29Zm.41-2.73a4.07,4.07,0,0,0,1.18.15,5.46,5.46,0,0,0,1.24-.14h.08c.16,0,.16.33.16.44s0,.18-.18.21a9.6,9.6,0,0,1-1.25.08,5,5,0,0,1-1.53-.18A.14.14,0,0,1,38.79,5a2.89,2.89,0,0,1,.05-.32c0-.06,0-.12.12-.12Z"/><path class="cls-3" d="M46.34,4.09s0,.08-.08.1-.12.17-.17.35l0,.2a.69.69,0,0,0,0,.12.1.1,0,0,0,.11.1,8.27,8.27,0,0,0,1.42-.31.63.63,0,0,1,.18,0c.13,0,.17.44.17.49s-.1.12-.2.14c-.45.08-1.19.18-1.65.24-.21,0-.23.08-.29.4,0,.12-.06.28-.12.49a1.61,1.61,0,0,0-.05.23.05.05,0,0,0,.05.05.17.17,0,0,0,.1,0A2.39,2.39,0,0,1,47,6.17,1.27,1.27,0,0,1,48.4,7.52,1.61,1.61,0,0,1,47,9.08a6.53,6.53,0,0,1-1.41.19c-.2,0-.23,0-.27-.16a1.59,1.59,0,0,1-.08-.35.12.12,0,0,1,.14-.12c.08,0,.27,0,.51,0a3.55,3.55,0,0,0,1.16-.2,1,1,0,0,0,.73-1,.74.74,0,0,0-.76-.79,2.38,2.38,0,0,0-1.7.85c0,.06-.1.16-.19.16s-.44-.16-.44-.31a.41.41,0,0,1,0-.16A7.2,7.2,0,0,0,45.17,6a3.05,3.05,0,0,0,.09-.38.09.09,0,0,0-.11-.09l-1,.08h-.12c-.1,0-.13,0-.16-.12a1.88,1.88,0,0,1,0-.33c0-.16.1-.16.14-.16h.66c.4,0,.64,0,.72-.11a5.36,5.36,0,0,0,.17-1c0-.1,0-.22.1-.22S46.34,3.94,46.34,4.09Z"/><path class="cls-3" d="M51.46,5.17s.12,0,.12.09a.08.08,0,0,1,0,.07c-.12.09-.13.12-.16.31-.05.38-.12.77-.2,1.15,0,0,0,.05,0,.08a.06.06,0,0,0,.05.07.15.15,0,0,0,.09,0A2.66,2.66,0,0,1,53,6.17a1.34,1.34,0,0,1,1.44,1.37c0,1.07-1,1.44-1.85,1.65a3.71,3.71,0,0,1-.53.1c-.13,0-.16,0-.22-.16a1,1,0,0,1-.1-.35c0-.1.1-.1.17-.11a5.73,5.73,0,0,0,.91-.15c.53-.14,1-.37,1-1a.82.82,0,0,0-.9-.81A2.78,2.78,0,0,0,51,7.87c0,.06-.11.14-.2.14S50.4,8,50.4,7.78c0,0,.13-.42.16-.58a10,10,0,0,0,.21-1.55c0-.12,0-.21,0-.29,0-.24,0-.33.11-.33A4.05,4.05,0,0,1,51.46,5.17Zm.21-1.46a5.81,5.81,0,0,1,.81.45c.1.06.39.23.39.33s-.22.44-.33.44-.14-.08-.19-.12a5,5,0,0,0-.83-.56c-.08,0-.16-.07-.16-.14S51.53,3.72,51.67,3.72Z"/><path class="cls-3" d="M57.48,8.18l-.56.59a.35.35,0,0,1-.23.13c-.11,0-.54-.1-.54-.17a5.32,5.32,0,0,1,.59-.61l.11-.1,1.29-1.27s.11-.1.11-.15-.07-.11-.11-.15L56.86,5.16l-.11-.1a5.31,5.31,0,0,1-.59-.61c0-.07.42-.17.54-.17a.35.35,0,0,1,.23.13l.56.59L58.7,6.2c.13.12.33.24.33.39s-.2.27-.33.39Z"/><path class="cls-3" d="M59.7,8.18l-.56.59a.35.35,0,0,1-.23.13c-.11,0-.54-.1-.54-.17A5.32,5.32,0,0,1,59,8.12l.11-.1,1.29-1.27s.11-.1.11-.15-.07-.11-.11-.15L59.07,5.16,59,5.06a5.31,5.31,0,0,1-.59-.61c0-.07.42-.17.54-.17a.35.35,0,0,1,.23.13L59.7,5l1.22,1.2c.13.12.33.24.33.39s-.2.27-.33.39Z"/></g></g></svg>