<svg xmlns="http://www.w3.org/2000/svg" viewBox="0 0 232.16 34.08"><defs><style>.cls-1{fill:#ed1c24;}.cls-2,.cls-3{fill:#fff;}.cls-2{opacity:0.3;}</style></defs><title>button_large</title><g id="Layer_2" data-name="Layer 2"><g id="レイヤー_1" data-name="レイヤー 1"><rect class="cls-1" width="232.16" height="34.08"/><rect class="cls-2" x="1.69" y="1.94" width="228.79" height="14.69"/><path class="cls-3" d="M54.85,18.75a21.14,21.14,0,0,0-2.54,1.87c-.06,0-.14.13-.22.13-.29,0-.78-.9-.78-1.21s.14-.21.32-.3c.89-.52,1.73-1.11,2.6-1.63.65-.4.73-.43.73-.86,0-.59,0-1.17,0-1.78,0-.21-.09-.38-.33-.38l-1.41.24a2,2,0,0,1-.43,0c-.17,0-.4,0-.4-.94,0-.41.06-.41.36-.43.57,0,1.17-.1,1.75-.16.25,0,.44-.11.51-.37,0-.08.06-1.49.06-1.65s0-.4,0-.57,0-.11,0-.16a.19.19,0,0,1,.19-.21c.21,0,1.06.19,1.32.24.1,0,.29.06.29.19s-.11.21-.19.27a1.73,1.73,0,0,0-.27,1,3.93,3.93,0,0,1,0,.41v.17a.22.22,0,0,0,.24.24,10.28,10.28,0,0,0,1.19-.32,1.21,1.21,0,0,1,.25-.06c.29,0,.33.79.33,1,0,.38-.19.4-1.52.62-.7.11-.63.24-.63,1.57,0,.32,0,.62.21.62a1,1,0,0,0,.35-.13,7.83,7.83,0,0,1,2.87-.65c1.71,0,3.38,1,3.38,2.89a2.62,2.62,0,0,1-1.27,2.29,6.63,6.63,0,0,1-3.29.65c-.24,0-.56,0-.63-.13a3.07,3.07,0,0,1-.24-1c0-.16.06-.3.24-.3a10.3,10.3,0,0,0,1.33.16c1,0,2.48-.35,2.48-1.65,0-1.13-1.14-1.67-2.11-1.67a6.51,6.51,0,0,0-3.06.87.51.51,0,0,0-.19.41c0,.25,0,.86.06,1.14s.14,1.86.14,2c0,.73-.81,1-1.19,1s-.44-.32-.56-.57a3.23,3.23,0,0,0-.94-1.27c-.08-.06-.19-.16-.19-.27a.3.3,0,0,1,.3-.27c.16,0,.63.43.84.52a.49.49,0,0,0,.27.14c.08,0,.09-.06.09-.11s-.06-.67-.06-.89C55,19,55.06,18.75,54.85,18.75Zm6.55-6.09c.36.27,1.16,1,1.57,1.27a4,4,0,0,1,.83.81c0,.25-.54.89-.81.89s-.24-.11-.33-.19a23.65,23.65,0,0,0-2-1.75c-.11-.1-.27-.19-.27-.35s.56-.83.78-.83A.5.5,0,0,1,61.41,12.66Z"/><path class="cls-3" d="M73.3,18.93c-.32,0-.44.13-.44.44v1.08c0,.76,0,1.54,0,2.32,0,.49-.11.54-.68.54s-.68,0-.68-.52c0-.78,0-1.55,0-2.33V19.37c0-.32-.14-.44-.44-.44h-3c-.21,0-.3.08-.32.3,0,.06,0,.14,0,.21,0,.37-.24.37-.68.37s-.68,0-.68-.38,0-.84,0-1.25V13.45c0-.37,0-.73,0-1.09,0-.59.25-.71.81-.71l1.43,0h2.46c.3,0,.44-.13.44-.44v-.67a7.6,7.6,0,0,0-.06-1,.59.59,0,0,1,0-.16c0-.19.13-.21.27-.21s.89,0,1.14.06.33,0,.33.19-.08.14-.19.24-.19.35-.19.84v.75c0,.32.13.44.44.44h2.51l1.41,0c.51,0,.83.1.83.67,0,.38,0,.76,0,1.14v4.71c0,.41,0,.83,0,1.25s-.19.38-.67.38-.7,0-.7-.38a.76.76,0,0,1,0-.19c0-.22-.11-.3-.32-.3Zm-1.73-5.65a.46.46,0,0,0-.44-.44h-3a.46.46,0,0,0-.44.44v1a.46.46,0,0,0,.44.44h3a.46.46,0,0,0,.44-.44Zm0,3a.44.44,0,0,0-.44-.44h-3a.44.44,0,0,0-.44.44v1a.46.46,0,0,0,.44.44h3a.46.46,0,0,0,.44-.44Zm5.16-3a.42.42,0,0,0-.43-.44h-3a.44.44,0,0,0-.44.44v1a.44.44,0,0,0,.44.44h3a.42.42,0,0,0,.43-.44Zm0,3c0-.29-.16-.41-.43-.44h-3a.43.43,0,0,0-.44.44v1a.44.44,0,0,0,.44.44h3a.42.42,0,0,0,.43-.44Z"/><path class="cls-3" d="M81.52,16.21c-.25,0-.51,0-.76,0s-.33-.16-.33-.62,0-.63.35-.63.49,0,.75,0h.68l1,0c.62,0,.86.16.86.73,0,.41,0,.84,0,1.27v2.19a2,2,0,0,0,1.3,2.09,10.88,10.88,0,0,0,3.54.4H90c.81,0,1.62,0,2.41,0,.52,0,1.11,0,1.62,0,.24,0,.27.16.27.37,0,.81-.24.89-.75.89H90.48c-.89,0-1.76,0-2.65,0a10.42,10.42,0,0,1-2.43-.24,3,3,0,0,1-1.79-1.25.39.39,0,0,0-.3-.19.43.43,0,0,0-.24.08c-.46.37-1.22,1-1.7,1.27a.41.41,0,0,0-.14.27c0,.11,0,.25-.21.25s-.16-.08-.32-.32a2.88,2.88,0,0,0-.16-.25,1.85,1.85,0,0,1-.36-.67c0-.14.17-.24.4-.33a2.11,2.11,0,0,0,.27-.13c.35-.19,1.25-.81,1.62-1a.69.69,0,0,0,.3-.67v-3c0-.3-.13-.45-.44-.45Zm2-3.33c-.13,0-.25-.13-.33-.22a21.77,21.77,0,0,0-2.32-2.21c-.11-.1-.24-.19-.24-.35s.49-.68.75-.68A8.52,8.52,0,0,1,83,10.71c.36.35.87.84,1.21,1.22a.41.41,0,0,1,.11.25C84.29,12.44,83.78,12.88,83.53,12.88ZM88.8,11a.73.73,0,0,0-.33,0H87.08c-.36,0-.75,0-1.13,0s-.41-.11-.41-.65,0-.63.48-.63.73,0,1.1,0h1.75c1,0,1.22,0,1.3.79,0,.19,0,.56,0,1A9.69,9.69,0,0,0,93.83,19c.11.1.41.3.41.46a1.1,1.1,0,0,1-.9.87c-.27,0-1.16-.94-1.37-1.16a11.76,11.76,0,0,1-2.49-4.36s-.06-.1-.13-.1a.14.14,0,0,0-.13.1,12.47,12.47,0,0,1-3.06,4.78c-.16.16-.7.68-.86.68s-.78-.57-.78-.83.25-.38.38-.49a12.14,12.14,0,0,0,4-7.7C88.89,11.12,88.86,11.07,88.8,11Z"/><path class="cls-3" d="M104.37,11.58a.32.32,0,0,1-.14.24,17.06,17.06,0,0,0-2.06,3.63c0,.24.32.29.57.33a10.56,10.56,0,0,1,1.82.57.86.86,0,0,0,.29.08c.24,0,.3-.17.35-.37a7.92,7.92,0,0,0,.27-1.84V14.1c0-.16,0-.35.21-.35S106.8,14,107,14s.25.08.25.22a.36.36,0,0,1-.1.19c-.19.19-.19.17-.27.56q-.17.81-.38,1.62a.86.86,0,0,0-.06.29c0,.25.19.38.4.49s1.24.65,1.51.76.37.14.37.33-.62,1.24-.9,1.24c-.13,0-.27-.14-.37-.22a5.71,5.71,0,0,0-1.51-1,.36.36,0,0,0-.3.24,11.23,11.23,0,0,1-1.78,2.48c-.22.24-1.24,1.19-1.52,1.19s-1.06-.51-1.06-.78.16-.22.25-.27a7.15,7.15,0,0,0,3-3.38c0-.29-.25-.37-.71-.55a9.1,9.1,0,0,0-2.06-.57c-.3,0-.41.22-.81,1-.08.17-.19.37-.3.6-.49,1-1,2.24-2.33,2.24a1.75,1.75,0,0,1-1.75-1.84,3.55,3.55,0,0,1,2.52-3,5.56,5.56,0,0,1,1.33-.27c.27,0,.41,0,.54-.32.43-.87.83-1.78,1.29-2.63a.82.82,0,0,0,.13-.3.17.17,0,0,0-.16-.16c-.06,0-2.21.81-2.41.89a1.24,1.24,0,0,1-.4.11c-.4,0-.79-1-.79-1.17s.17-.19.3-.22a15.68,15.68,0,0,0,3.79-1.14.85.85,0,0,1,.43-.17C103.32,10.44,104.37,11.25,104.37,11.58Zm-6.68,7.27c0,.32.16.59.49.59.57,0,1-.92,1.3-1.36a5,5,0,0,0,.48-1,.16.16,0,0,0-.17-.16C99.13,16.87,97.69,17.74,97.69,18.85Z"/><path class="cls-3" d="M114,11c.1,0,.27.13.27.25s0,.13-.13.16c-.33.16-.41.25-.62.79a16.13,16.13,0,0,0-.83,4.9c0,.32.06,2.27.41,2.27.13,0,.24-.24.43-.71.08-.19.25-.78.44-.78s.51.21.51.38a1.7,1.7,0,0,1-.08.3,13.43,13.43,0,0,0-.65,2.49c0,.22,0,.44,0,.65s-.21.46-.49.59a1.74,1.74,0,0,1-.49.14c-.22,0-.36-.32-.44-.49a11.35,11.35,0,0,1-.94-4.81,19,19,0,0,1,.75-5.09c.13-.44.27-.89.38-1.33,0-.11.06-.25.19-.25A10,10,0,0,1,114,11Zm6.33-.46c.08,0,.14.06.14.16s-.08.17-.14.25a2.48,2.48,0,0,0-.17,1.19v.36c0,.35,0,.59.33.59a12.24,12.24,0,0,0,1.68-.41.6.6,0,0,1,.24-.06c.3,0,.4.94.4,1.08,0,.33-.46.4-2.06.63-.29,0-.52.1-.52.48s.11,3,.14,3.51.21.44.51.59,2.16,1.13,2.16,1.63c0,.33-.46.92-.75.92s-.32-.16-.41-.25a5.09,5.09,0,0,0-1.36-1c-.16,0-.19.13-.21.25-.19,1.11-1.19,1.48-2.21,1.48-1.17,0-2.56-.54-2.56-1.92s1.21-1.86,2.36-1.86a6.24,6.24,0,0,1,.76,0,.51.51,0,0,0,.16,0c.22,0,.3-.11.3-.32,0-.54-.08-2.19-.11-2.78,0-.17,0-.57-.36-.57-.08,0-1.16.06-1.76.06a12.75,12.75,0,0,1-1.6-.08c-.21-.06-.21-.76-.21-1s0-.37.22-.37l.32,0c.68.06,1.41.11,2.09.11s1.16,0,1.16-.37-.14-2-.21-2.38V10.5a.17.17,0,0,1,.19-.19A12.31,12.31,0,0,1,120.37,10.57ZM119,19.47a3.57,3.57,0,0,0-.94-.14c-.43,0-1.3.16-1.3.73s.86.79,1.32.79c.7,0,1.13-.29,1.13-1A.35.35,0,0,0,119,19.47Z"/><path class="cls-3" d="M127.15,18a2.3,2.3,0,0,0,.54,1.16,3.73,3.73,0,0,0,2.76.86,21.41,21.41,0,0,0,4.82-.56l.17,0c.24,0,.3.29.3.92,0,.25,0,.51-.32.6a28.32,28.32,0,0,1-4.76.46c-1.6,0-3.36-.24-4.36-1.65a3.46,3.46,0,0,1-.57-1.44c0-.35,1.1-.59,1.11-.59C127,17.69,127.1,17.79,127.15,18Zm1-6.35a9.46,9.46,0,0,0,2.75.35,12.66,12.66,0,0,0,2.89-.32l.19,0c.37,0,.37.76.37,1s-.1.43-.41.48a22.29,22.29,0,0,1-2.9.17,11.64,11.64,0,0,1-3.55-.43.32.32,0,0,1-.13-.3,6.55,6.55,0,0,1,.13-.75c0-.14.09-.29.29-.29A1.78,1.78,0,0,1,128.1,11.61Z"/><path class="cls-3" d="M144.17,10.52c0,.09-.1.17-.17.24s-.29.4-.4.81c0,.14-.06.29-.11.46a1.66,1.66,0,0,0,0,.27.24.24,0,0,0,.25.24,19.23,19.23,0,0,0,3.3-.71,1.45,1.45,0,0,1,.41-.11c.3,0,.4,1,.4,1.14s-.22.27-.46.32c-1,.19-2.76.43-3.82.56-.49.06-.52.19-.68.92-.06.29-.14.65-.29,1.14a3.8,3.8,0,0,0-.13.54.12.12,0,0,0,.13.13.4.4,0,0,0,.22-.09,5.55,5.55,0,0,1,3-1,2.94,2.94,0,0,1,3.13,3.14,3.73,3.73,0,0,1-3.16,3.62,15.14,15.14,0,0,1-3.27.44c-.46,0-.52-.08-.62-.37a3.69,3.69,0,0,1-.17-.81.28.28,0,0,1,.32-.29c.19,0,.63.08,1.17.08a8.23,8.23,0,0,0,2.7-.46,2.38,2.38,0,0,0,1.7-2.32,1.72,1.72,0,0,0-1.76-1.83,5.52,5.52,0,0,0-4,2c-.11.14-.24.37-.44.37s-1-.37-1-.73a1,1,0,0,1,.09-.36,16.7,16.7,0,0,0,.92-2.73,7,7,0,0,0,.21-.89.21.21,0,0,0-.25-.21l-2.21.19a1.57,1.57,0,0,1-.27,0c-.22,0-.3-.09-.36-.29a4.36,4.36,0,0,1-.11-.78c0-.38.22-.37.33-.37.52,0,1,0,1.54,0,.94,0,1.49,0,1.67-.25a12.51,12.51,0,0,0,.4-2.2c0-.24,0-.51.22-.51S144.17,10.19,144.17,10.52Z"/><path class="cls-3" d="M155.43,13c.11,0,.27.08.27.21a.19.19,0,0,1-.09.16c-.27.21-.3.29-.37.71-.13.89-.29,1.78-.46,2.67,0,.06,0,.13,0,.19a.14.14,0,0,0,.13.16.36.36,0,0,0,.21-.09,6.16,6.16,0,0,1,3.9-1.7,3.12,3.12,0,0,1,3.35,3.17c0,2.49-2.24,3.35-4.3,3.84a8.6,8.6,0,0,1-1.22.22c-.3,0-.38-.11-.51-.37a2.39,2.39,0,0,1-.24-.81c0-.24.22-.24.4-.25a13.28,13.28,0,0,0,2.11-.35c1.22-.32,2.4-.86,2.4-2.32a1.9,1.9,0,0,0-2.08-1.87c-1.75,0-3.44,1.38-4.49,2.68-.11.14-.25.33-.46.33s-1-.13-1-.54c0,0,.3-1,.38-1.35a23.11,23.11,0,0,0,.49-3.6c0-.27,0-.49,0-.68,0-.56,0-.76.25-.76A9.42,9.42,0,0,1,155.43,13Zm.49-3.38a13.45,13.45,0,0,1,1.87,1c.22.14.9.52.9.76s-.51,1-.78,1-.33-.17-.44-.27a11.65,11.65,0,0,0-1.92-1.3c-.17-.09-.37-.16-.37-.32S155.6,9.66,155.92,9.66Z"/><path class="cls-3" d="M169.42,20c-.45.46-.88.91-1.31,1.37a.81.81,0,0,1-.54.3c-.26,0-1.24-.22-1.24-.39a12.45,12.45,0,0,1,1.37-1.42l.26-.24,3-3c.09-.09.26-.24.26-.36S171,16,171,16l-3-3-.26-.25a12.29,12.29,0,0,1-1.37-1.42c0-.17,1-.39,1.24-.39a.81.81,0,0,1,.54.3c.43.46.86.91,1.31,1.37l2.83,2.79c.3.29.77.55.77.91s-.47.62-.77.91Z"/><path class="cls-3" d="M174.56,20c-.45.46-.88.91-1.31,1.37a.81.81,0,0,1-.54.3c-.26,0-1.24-.22-1.24-.39a12.45,12.45,0,0,1,1.37-1.42l.26-.24,3-3c.09-.09.26-.24.26-.36s-.17-.27-.26-.36l-3-3-.26-.25a12.29,12.29,0,0,1-1.37-1.42c0-.17,1-.39,1.24-.39a.81.81,0,0,1,.54.3c.43.46.86.91,1.31,1.37l2.83,2.79c.3.29.77.55.77.91s-.47.62-.77.91Z"/></g></g></svg>