<svg xmlns="http://www.w3.org/2000/svg" viewBox="0 0 110.88 22.26"><defs><style>.cls-1{fill:#ed1c24;}.cls-2,.cls-3{fill:#fff;}.cls-2{opacity:0.3;}</style></defs><title>button_header</title><g id="Layer_2" data-name="Layer 2"><g id="レイヤー_1" data-name="レイヤー 1"><rect class="cls-1" width="110.88" height="22.26"/><rect class="cls-2" x="1.1" y="1.27" width="108.68" height="9.6"/><path class="cls-3" d="M10.83,12.73A15.18,15.18,0,0,0,9,14.07s-.1.09-.16.09-.56-.65-.56-.87.1-.15.23-.22c.64-.38,1.24-.8,1.87-1.17.47-.28.52-.31.52-.61s0-.84,0-1.28c0-.15-.07-.27-.24-.27l-1,.17a1.39,1.39,0,0,1-.31,0c-.12,0-.28,0-.28-.67,0-.3,0-.3.26-.31.41,0,.84-.07,1.25-.11.18,0,.32-.08.36-.26s0-1.07,0-1.18,0-.28,0-.41,0-.08,0-.11a.13.13,0,0,1,.14-.15c.15,0,.76.14.94.17s.21,0,.21.14-.08.15-.14.19a1.24,1.24,0,0,0-.19.73,2.69,2.69,0,0,1,0,.3v.13a.16.16,0,0,0,.17.17,7.46,7.46,0,0,0,.85-.23.84.84,0,0,1,.18,0c.21,0,.24.57.24.73s-.14.28-1.09.44c-.5.08-.46.17-.46,1.13,0,.23,0,.44.15.44a.74.74,0,0,0,.25-.09,5.6,5.6,0,0,1,2.06-.47,2.21,2.21,0,0,1,2.42,2.07,1.88,1.88,0,0,1-.91,1.64,4.76,4.76,0,0,1-2.36.47c-.17,0-.4,0-.46-.09a2.2,2.2,0,0,1-.17-.72c0-.11,0-.22.17-.22a7.39,7.39,0,0,0,1,.11c.75,0,1.78-.25,1.78-1.18s-.82-1.2-1.51-1.2A4.67,4.67,0,0,0,12,12a.37.37,0,0,0-.14.3c0,.18,0,.61,0,.82s.1,1.33.1,1.41c0,.52-.58.73-.85.73s-.32-.23-.4-.41a2.32,2.32,0,0,0-.67-.91c-.06,0-.14-.11-.14-.19a.21.21,0,0,1,.22-.19c.11,0,.46.31.6.38a.36.36,0,0,0,.19.1c.06,0,.07,0,.07-.08s0-.48,0-.64C11,12.9,11,12.73,10.83,12.73Zm4.7-4.37c.26.19.83.68,1.13.91a2.89,2.89,0,0,1,.59.58c0,.18-.39.64-.58.64s-.17-.08-.24-.14A17,17,0,0,0,15,9.1c-.08-.07-.19-.14-.19-.25s.4-.59.56-.59A.35.35,0,0,1,15.53,8.36Z"/><path class="cls-3" d="M24.13,12.85c-.23,0-.32.09-.32.32v.77c0,.55,0,1.1,0,1.66,0,.35-.08.39-.49.39s-.49,0-.49-.38c0-.56,0-1.12,0-1.67v-.77c0-.23-.1-.32-.32-.32H20.38c-.15,0-.22.06-.23.22s0,.1,0,.15c0,.26-.17.26-.49.26s-.49,0-.49-.27,0-.6,0-.9V8.93c0-.26,0-.52,0-.79,0-.42.18-.51.58-.51h2.79c.22,0,.32-.09.32-.32V6.84a5.43,5.43,0,0,0,0-.75.42.42,0,0,1,0-.11c0-.14.09-.15.19-.15l.82,0c.09,0,.24,0,.24.14s-.06.1-.14.17-.14.25-.14.6v.54c0,.23.09.32.32.32h2.81c.36,0,.59.07.59.48s0,.55,0,.82v3.38c0,.3,0,.59,0,.9s-.14.27-.48.27-.5,0-.5-.27a.54.54,0,0,1,0-.14c0-.16-.08-.22-.23-.22ZM22.89,8.8a.33.33,0,0,0-.32-.32H20.45a.33.33,0,0,0-.32.32v.71a.33.33,0,0,0,.32.32h2.12a.33.33,0,0,0,.32-.32Zm0,2.16a.32.32,0,0,0-.32-.32H20.45a.32.32,0,0,0-.32.32v.74a.33.33,0,0,0,.32.32h2.12a.33.33,0,0,0,.32-.32Zm3.7-2.16a.3.3,0,0,0-.31-.32H24.13a.32.32,0,0,0-.32.32v.71a.32.32,0,0,0,.32.32h2.15a.3.3,0,0,0,.31-.32Zm0,2.16c0-.21-.11-.3-.31-.32H24.13a.31.31,0,0,0-.32.32v.74a.32.32,0,0,0,.32.32h2.15a.3.3,0,0,0,.31-.32Z"/><path class="cls-3" d="M30.08,10.91c-.18,0-.36,0-.55,0s-.24-.11-.24-.44,0-.46.25-.46l.54,0H31.3c.44,0,.61.11.61.52s0,.6,0,.91v1.57a1.41,1.41,0,0,0,.93,1.5,7.8,7.8,0,0,0,2.54.28h2.53c.37,0,.8,0,1.16,0,.17,0,.19.11.19.26,0,.58-.17.64-.54.64h-4.1a7.48,7.48,0,0,1-1.74-.17,2.12,2.12,0,0,1-1.29-.9.28.28,0,0,0-.22-.14.31.31,0,0,0-.17.06c-.33.26-.88.68-1.22.91a.29.29,0,0,0-.1.19c0,.08,0,.18-.15.18s-.11-.06-.23-.23l-.11-.18a1.33,1.33,0,0,1-.26-.48c0-.1.13-.17.29-.24l.19-.09c.25-.14.9-.58,1.16-.75a.5.5,0,0,0,.22-.48V11.23c0-.22-.09-.32-.32-.32Zm1.45-2.39c-.09,0-.18-.09-.24-.16a15.48,15.48,0,0,0-1.66-1.58c-.08-.07-.17-.14-.17-.25S29.81,6,30,6A6.12,6.12,0,0,1,31.13,7c.26.25.63.6.87.88a.3.3,0,0,1,.08.18C32.07,8.2,31.71,8.52,31.53,8.52ZM35.3,7.2a.54.54,0,0,0-.24,0h-1c-.26,0-.54,0-.81,0s-.3-.08-.3-.47,0-.46.34-.46.52,0,.79,0h1.25c.74,0,.88,0,.93.57,0,.14,0,.4,0,.71a7,7,0,0,0,2.6,5.3c.08.07.3.22.3.33a.79.79,0,0,1-.65.63c-.19,0-.83-.67-1-.83a8.44,8.44,0,0,1-1.79-3.13s0-.07-.09-.07a.1.1,0,0,0-.09.07,8.94,8.94,0,0,1-2.2,3.43c-.11.11-.5.49-.62.49s-.56-.41-.56-.59.18-.27.27-.35a8.71,8.71,0,0,0,2.85-5.52C35.37,7.25,35.35,7.22,35.3,7.2Z"/><path class="cls-3" d="M46.53,7.58a.23.23,0,0,1-.1.17,12.24,12.24,0,0,0-1.48,2.61c0,.17.23.21.41.24a7.58,7.58,0,0,1,1.31.41.6.6,0,0,0,.2.06c.17,0,.22-.13.25-.26a5.68,5.68,0,0,0,.19-1.32V9.39c0-.11,0-.25.15-.25s.81.15.92.18.18.06.18.16a.26.26,0,0,1-.07.14c-.14.14-.14.13-.19.4s-.17.77-.27,1.16a.58.58,0,0,0,0,.21c0,.18.14.27.29.35s.89.47,1.08.55.26.1.26.24-.44.89-.65.89-.19-.1-.26-.16a4.09,4.09,0,0,0-1.08-.71.26.26,0,0,0-.22.17,8.07,8.07,0,0,1-1.28,1.78c-.16.17-.89.85-1.09.85s-.76-.36-.76-.56.11-.16.18-.19a5.13,5.13,0,0,0,2.15-2.42c0-.21-.18-.26-.51-.4a6.54,6.54,0,0,0-1.48-.41c-.22,0-.3.16-.58.73-.06.13-.14.26-.22.43-.35.71-.75,1.61-1.67,1.61a1.26,1.26,0,0,1-1.25-1.32,2.55,2.55,0,0,1,1.81-2.17,3.94,3.94,0,0,1,1-.19c.19,0,.3,0,.39-.23.31-.63.59-1.27.92-1.89a.58.58,0,0,0,.09-.22A.12.12,0,0,0,44.95,8s-1.58.58-1.73.64a.89.89,0,0,1-.28.08c-.29,0-.57-.69-.57-.84s.13-.14.22-.16a11.28,11.28,0,0,0,2.72-.82.61.61,0,0,1,.31-.12C45.78,6.76,46.53,7.35,46.53,7.58ZM41.74,12.8c0,.23.11.42.35.42.41,0,.75-.66.93-1a3.59,3.59,0,0,0,.34-.75.12.12,0,0,0-.12-.11C42.78,11.37,41.74,12,41.74,12.8Z"/><path class="cls-3" d="M53.53,7.19c.07,0,.19.09.19.18s0,.09-.09.11c-.24.11-.3.18-.44.57a11.57,11.57,0,0,0-.59,3.52c0,.23,0,1.63.3,1.63.09,0,.17-.17.31-.51.06-.14.18-.56.32-.56s.36.15.36.27a1.25,1.25,0,0,1-.06.22,9.66,9.66,0,0,0-.47,1.79c0,.16,0,.32,0,.47s-.15.33-.35.42a1.25,1.25,0,0,1-.35.1c-.16,0-.26-.23-.32-.35a8.16,8.16,0,0,1-.67-3.45,13.64,13.64,0,0,1,.54-3.65c.09-.32.19-.64.27-1,0-.08,0-.18.14-.18A7.24,7.24,0,0,1,53.53,7.19Zm4.54-.33c.06,0,.1,0,.1.11s-.06.13-.1.18A1.78,1.78,0,0,0,58,8v.26c0,.25,0,.42.24.42a8.84,8.84,0,0,0,1.21-.3.43.43,0,0,1,.17,0c.22,0,.28.67.28.77s-.33.28-1.48.46c-.21,0-.38.07-.38.34s.08,2.15.1,2.52.15.32.36.42S60,13.66,60,14s-.33.66-.54.66-.23-.11-.3-.18a3.65,3.65,0,0,0-1-.71c-.11,0-.14.09-.15.18-.14.8-.85,1.06-1.58,1.06s-1.83-.39-1.83-1.38.87-1.33,1.7-1.33a4.46,4.46,0,0,1,.55,0H57c.16,0,.22-.08.22-.23,0-.39-.06-1.57-.08-2,0-.13,0-.41-.26-.41-.06,0-.83,0-1.26,0a9.17,9.17,0,0,1-1.15-.06c-.15,0-.15-.55-.15-.69s0-.26.16-.26l.23,0c.49,0,1,.08,1.5.08s.83,0,.83-.26-.1-1.4-.15-1.71v-.1A.12.12,0,0,1,57,6.67,9,9,0,0,1,58.08,6.86Zm-1,6.39a2.6,2.6,0,0,0-.67-.1c-.31,0-.93.11-.93.52s.61.57.94.57c.5,0,.81-.21.81-.74A.25.25,0,0,0,57.1,13.24Z"/><path class="cls-3" d="M63,12.16a1.65,1.65,0,0,0,.39.83,2.68,2.68,0,0,0,2,.61,15.36,15.36,0,0,0,3.46-.4l.13,0c.17,0,.22.2.22.66,0,.18,0,.36-.23.43a20.33,20.33,0,0,1-3.41.33,3.6,3.6,0,0,1-3.13-1.18,2.48,2.48,0,0,1-.41-1c0-.25.79-.42.8-.42S63,12,63,12.16Zm.68-4.55a6.78,6.78,0,0,0,2,.25,9.09,9.09,0,0,0,2.07-.23h.14c.26,0,.26.55.26.73s-.07.31-.3.34a15.94,15.94,0,0,1-2.08.13,8.34,8.34,0,0,1-2.55-.31.23.23,0,0,1-.09-.22,4.83,4.83,0,0,1,.09-.53c0-.1.07-.21.2-.21A1.25,1.25,0,0,1,63.7,7.61Z"/><path class="cls-3" d="M75.3,6.82c0,.07-.07.13-.12.17s-.21.28-.28.58c0,.1,0,.2-.08.33a1.12,1.12,0,0,0,0,.19.17.17,0,0,0,.18.17,13.78,13.78,0,0,0,2.37-.51,1,1,0,0,1,.3-.08c.22,0,.29.74.29.82s-.16.19-.33.23c-.75.14-2,.31-2.74.4-.35,0-.37.14-.49.66,0,.21-.1.47-.2.82A2.71,2.71,0,0,0,74,11a.08.08,0,0,0,.09.09A.29.29,0,0,0,74.3,11a4,4,0,0,1,2.19-.73,2.11,2.11,0,0,1,2.24,2.25,2.68,2.68,0,0,1-2.27,2.6,10.85,10.85,0,0,1-2.34.32c-.33,0-.38-.06-.44-.26a2.68,2.68,0,0,1-.12-.58.2.2,0,0,1,.23-.21c.14,0,.46.06.84.06a5.91,5.91,0,0,0,1.94-.33,1.71,1.71,0,0,0,1.22-1.66,1.23,1.23,0,0,0-1.26-1.31,4,4,0,0,0-2.83,1.41c-.08.1-.17.26-.32.26s-.73-.26-.73-.52a.68.68,0,0,1,.07-.26,12,12,0,0,0,.66-2,5.06,5.06,0,0,0,.15-.64.15.15,0,0,0-.18-.15l-1.58.14h-.19c-.16,0-.22-.07-.26-.2a3.14,3.14,0,0,1-.08-.56c0-.27.16-.26.24-.26l1.1,0c.67,0,1.07,0,1.19-.18A8.89,8.89,0,0,0,74,6.68c0-.17,0-.36.16-.36S75.3,6.58,75.3,6.82Z"/><path class="cls-3" d="M83.46,8.63c.08,0,.19.06.19.15a.13.13,0,0,1-.07.11c-.19.15-.22.21-.26.51-.09.64-.2,1.27-.33,1.91,0,0,0,.09,0,.14a.1.1,0,0,0,.09.11.26.26,0,0,0,.15-.07A4.42,4.42,0,0,1,86,10.28a2.24,2.24,0,0,1,2.4,2.28c0,1.79-1.6,2.4-3.08,2.75a6.16,6.16,0,0,1-.88.16c-.22,0-.27-.08-.36-.26a1.7,1.7,0,0,1-.17-.58c0-.17.16-.17.29-.18a9.62,9.62,0,0,0,1.51-.25c.88-.23,1.72-.61,1.72-1.66a1.36,1.36,0,0,0-1.49-1.34,4.63,4.63,0,0,0-3.22,1.92c-.08.1-.18.24-.33.24s-.71-.09-.71-.39c0,0,.22-.69.27-1a16.56,16.56,0,0,0,.35-2.58c0-.19,0-.35,0-.49,0-.4,0-.55.18-.55A6.7,6.7,0,0,1,83.46,8.63Zm.35-2.42A9.69,9.69,0,0,1,85.15,7c.16.1.65.38.65.55s-.36.73-.56.73S85,8.11,84.92,8a8.4,8.4,0,0,0-1.38-.93c-.13-.07-.26-.11-.26-.23S83.58,6.21,83.81,6.21Z"/><path class="cls-3" d="M93.5,13.63c-.32.33-.63.65-.94,1a.58.58,0,0,1-.38.21c-.18,0-.89-.16-.89-.28a8.85,8.85,0,0,1,1-1l.18-.18,2.15-2.12c.06-.06.18-.18.18-.25s-.12-.19-.18-.25L92.46,8.6l-.18-.18a8.85,8.85,0,0,1-1-1c0-.12.71-.28.89-.28a.58.58,0,0,1,.38.22c.31.33.62.65.94,1l2,2c.22.21.55.4.55.65s-.34.45-.55.65Z"/><path class="cls-3" d="M97.19,13.63c-.32.33-.63.65-.94,1a.58.58,0,0,1-.38.21c-.18,0-.89-.16-.89-.28a8.93,8.93,0,0,1,1-1l.19-.18,2.15-2.12c.06-.06.19-.18.19-.25s-.12-.19-.19-.25L96.15,8.6,96,8.43a8.93,8.93,0,0,1-1-1c0-.12.71-.28.89-.28a.58.58,0,0,1,.38.22c.31.33.62.65.94,1l2,2c.21.21.55.4.55.65s-.34.45-.55.65Z"/></g></g></svg>