<svg xmlns="http://www.w3.org/2000/svg" viewBox="0 0 28.65 9.24"><defs><style>.cls-1{fill:#393839;}</style></defs><title>color_selector_text</title><g id="Layer_2" data-name="Layer 2"><g id="レイヤー_1" data-name="レイヤー 1"><path class="cls-1" d="M7.51,7.7A3.67,3.67,0,0,1,4.37,9.24,4.23,4.23,0,0,1,0,4.8,4.23,4.23,0,0,1,4.37.36,3.52,3.52,0,0,1,7.28,1.68l-.64.54A2.7,2.7,0,0,0,4.37,1.07,3.49,3.49,0,0,0,.79,4.8,3.49,3.49,0,0,0,4.37,8.52,3,3,0,0,0,6.86,7.21Z"/><path class="cls-1" d="M11.33,3.36a2.8,2.8,0,0,1,2.9,2.9,2.8,2.8,0,0,1-2.9,2.9,2.8,2.8,0,0,1-2.9-2.9A2.8,2.8,0,0,1,11.33,3.36Zm0,5.16a2.14,2.14,0,0,0,2.18-2.26,2.18,2.18,0,1,0-4.37,0A2.14,2.14,0,0,0,11.33,8.52Z"/><path class="cls-1" d="M15.95,0h.72V9h-.72Z"/><path class="cls-1" d="M21.28,3.36a2.8,2.8,0,0,1,2.9,2.9,2.9,2.9,0,1,1-5.8,0A2.8,2.8,0,0,1,21.28,3.36Zm0,5.16a2.14,2.14,0,0,0,2.18-2.26,2.18,2.18,0,1,0-4.37,0A2.14,2.14,0,0,0,21.28,8.52Z"/><path class="cls-1" d="M25.77,5.06c0-.41-.06-1.26-.06-1.55h.72c0,.41,0,.86,0,1a2,2,0,0,1,1.75-1.11,1.7,1.7,0,0,1,.42.06l-.08.7a.9.9,0,0,0-.27,0A1.73,1.73,0,0,0,26.49,6V9h-.72Z"/></g></g></svg>