<svg xmlns="http://www.w3.org/2000/svg" viewBox="0 0 66.62 16.11"><defs><style>.cls-1{fill:#fff;}</style></defs><title>designer</title><g id="Layer_2" data-name="Layer 2"><g id="レイヤー_1" data-name="レイヤー 1"><path class="cls-1" d="M0,0H3.72C10,0,10.23,5.13,10.23,6S10,12,3.72,12H0ZM1.12,11H3.43c3.2,0,5.68-1.55,5.68-5S6.63,1,3.43,1H1.12Z"/><path class="cls-1" d="M19.4,10.56A3.85,3.85,0,0,1,16,12.24a3.87,3.87,0,0,1-4-4.15A3.9,3.9,0,0,1,15.95,4a3.57,3.57,0,0,1,3.69,3.67v.71H13a2.93,2.93,0,0,0,3,3,3.16,3.16,0,0,0,2.63-1.39Zm-.78-3.11A2.64,2.64,0,0,0,15.89,4.9,2.91,2.91,0,0,0,13,7.45Z"/><path class="cls-1" d="M21.93,10a2.54,2.54,0,0,0,2.28,1.29A1.65,1.65,0,0,0,26,9.88c0-2.16-4.66-.65-4.66-3.64A2.43,2.43,0,0,1,24,4a2.87,2.87,0,0,1,2.77,1.48L25.89,6A1.92,1.92,0,0,0,24,4.9c-.73,0-1.67.44-1.67,1.26,0,2.12,4.66.48,4.66,3.65,0,1.61-1.34,2.43-2.84,2.43A3.46,3.46,0,0,1,21,10.64Z"/><path class="cls-1" d="M29.83.31a.76.76,0,1,1-.76.77A.76.76,0,0,1,29.83.31Zm-.51,3.88h1V12h-1Z"/><path class="cls-1" d="M41.12,11.52c0,3.91-2.58,4.59-4.18,4.59A5,5,0,0,1,33,14.47l.8-.75a3.7,3.7,0,0,0,3.09,1.48c3.11,0,3.16-2.72,3.16-3.6V10.5h0a3.39,3.39,0,0,1-3,1.53,4.13,4.13,0,0,1-4.2-4,4.13,4.13,0,0,1,4.2-4,3.39,3.39,0,0,1,3,1.53h0V4.18h1ZM37,4.9A3.11,3.11,0,1,0,40.14,8,3.11,3.11,0,0,0,37,4.9Z"/><path class="cls-1" d="M43.62,6.39c0-.58-.09-1.8-.09-2.21h1c0,.58,0,1.22.07,1.38h.05A2.94,2.94,0,0,1,47.36,4c2.45,0,3,1.67,3,3.38V12h-1V7.41c0-1.27-.36-2.52-2-2.52s-2.72,1.05-2.72,3.21V12h-1Z"/><path class="cls-1" d="M60,10.56a4.08,4.08,0,0,1-7.38-2.46A3.9,3.9,0,0,1,56.56,4a3.57,3.57,0,0,1,3.69,3.67v.71h-6.6a2.93,2.93,0,0,0,3,3,3.16,3.16,0,0,0,2.63-1.39Zm-.78-3.11A2.64,2.64,0,0,0,56.51,4.9a2.91,2.91,0,0,0-2.86,2.55Z"/><path class="cls-1" d="M62.53,6.39c0-.58-.09-1.8-.09-2.21h1c0,.58,0,1.22.07,1.38A2.79,2.79,0,0,1,66,4a2.39,2.39,0,0,1,.6.08l-.12,1A1.25,1.25,0,0,0,66.11,5a2.46,2.46,0,0,0-2.57,2.75V12h-1Z"/></g></g></svg>