<svg xmlns="http://www.w3.org/2000/svg" viewBox="0 0 249.04 109.78"><defs><style>.cls-1{fill:#5ebcdc;}.cls-2{fill:#fff;}</style></defs><title>design_2_1</title><g id="Layer_2" data-name="Layer 2"><g id="レイヤー_1" data-name="レイヤー 1"><rect class="cls-1" width="249.04" height="109.78"/><path class="cls-2" d="M21.81,28.12c.16,0,.63,0,.76,0l.17,0c.13,0,.41.32.41.43a.31.31,0,0,1-.11.19,3.19,3.19,0,0,0-.26.38,16.72,16.72,0,0,1-1.47,2.07.27.27,0,0,0-.09.21.31.31,0,0,0,.16.26A12.93,12.93,0,0,1,23.2,33c.13.12.76.68.76.81s-.24.41-.39.41-.13-.07-.18-.13a12.14,12.14,0,0,0-1.19-1.17A15.1,15.1,0,0,0,20.94,32a.32.32,0,0,0-.2-.08c-.13,0-.21.1-.37.26A12.26,12.26,0,0,1,17.78,34a1.06,1.06,0,0,1-.33.14.57.57,0,0,1-.4-.38c0-.11.14-.16.26-.21a11.22,11.22,0,0,0,4.76-4.32,1.11,1.11,0,0,0,.19-.38c0-.18-.24-.15-.44-.15H19.33l-1.19,0c-.21,0-.22-.1-.22-.29s0-.3.21-.3l1.2,0Z"/><path class="cls-2" d="M26.81,30.25c0,.24.05,1.68,0,1.78s-.19.14-.29.14c-.28,0-.32-.12-.32-.32,0-.53,0-1.07,0-1.6V29a9.21,9.21,0,0,0,0-1.31.79.79,0,0,1,0-.15.1.1,0,0,1,.11-.1,3.84,3.84,0,0,1,.55.11c.06,0,.13,0,.13.13s0,.08-.07.12-.08.57-.08.73Zm4.06.06c0,.39,0,.78,0,1.18a3.86,3.86,0,0,1-.93,2.61,5.05,5.05,0,0,1-1.45,1c-.1,0-.46-.23-.46-.35s.19-.17.26-.2a3,3,0,0,0,1.92-2.42,12.09,12.09,0,0,0,.11-1.8V28a3.47,3.47,0,0,0,0-.63s0-.09,0-.12.06-.1.13-.1a3.8,3.8,0,0,1,.45.06c.08,0,.21,0,.21.13a.21.21,0,0,1-.08.13c-.08.08-.08.44-.08.56Z"/><path class="cls-2" d="M34.83,30.49a3.6,3.6,0,0,1,.38.72c0,.17-.27.26-.36.26s-.13-.07-.17-.14A10.7,10.7,0,0,0,34,30.25a.26.26,0,0,1-.07-.17c0-.12.19-.25.31-.25S34.67,30.23,34.83,30.49Zm4.68-.71a.18.18,0,0,1-.1.15.15.15,0,0,0-.07.1,11.2,11.2,0,0,1-.59,1.57,5.26,5.26,0,0,1-2.08,2.35,5.61,5.61,0,0,1-1.63.66c-.15,0-.32-.23-.32-.36s.11-.15.2-.17a5,5,0,0,0,2-1,5.43,5.43,0,0,0,1.37-1.81,6,6,0,0,0,.51-1.65c0-.08,0-.15.12-.15S39.51,29.62,39.51,29.78ZM37,29.93a3.67,3.67,0,0,1,.39.72c0,.16-.28.26-.36.26s-.15-.1-.2-.18a9.64,9.64,0,0,0-.62-1,.38.38,0,0,1-.07-.16c0-.13.2-.26.31-.26S36.76,29.6,37,29.93Z"/><path class="cls-2" d="M43.82,33.22c0,.5,0,1,0,1.49,0,.3,0,.43-.33.43s-.33-.13-.33-.43c0-.5,0-1,0-1.49v-4.8a10.24,10.24,0,0,0,0-1.26,1.25,1.25,0,0,1,0-.19c0-.07,0-.11.1-.11s.71.1.71.23,0,.09-.07.13a4.55,4.55,0,0,0-.07,1.2Zm1.83-2.64c.15.11.79.61.79.76a.43.43,0,0,1-.33.36.3.3,0,0,1-.2-.1,12,12,0,0,0-1.58-1.27c-.08-.05-.18-.1-.18-.21s.17-.36.3-.36A6.37,6.37,0,0,1,45.64,30.58Z"/><path class="cls-2" d="M18.46,48.72a.17.17,0,0,0,.18-.18v-.31a3.88,3.88,0,0,0,0-.6.41.41,0,0,1,0-.08s0-.06.08-.06.47,0,.47.12,0,.08-.07.1-.06.19-.06.52v.31a.17.17,0,0,0,.17.18h1.54c.12,0,.28.19.28.26a2.6,2.6,0,0,0-.09.37,5.12,5.12,0,0,1-.5,1.61A4.09,4.09,0,0,1,19,52.4a2.86,2.86,0,0,1-.69.4.28.28,0,0,1-.22-.23c0-.07.09-.1.15-.13a4,4,0,0,0,2-2,3.72,3.72,0,0,0,.27-1.14c0-.21-.15-.19-.33-.19H17.33a.18.18,0,0,0-.18.18v.84c0,.17,0,.35,0,.43s-.05.14-.21.14-.18,0-.18-.15,0-.28,0-.42V48.92c0-.17,0-.21.28-.21Z"/><path class="cls-2" d="M23.56,49.88l1.2,0a.18.18,0,0,0,.18-.18v-.21a5.16,5.16,0,0,0,0-.63.29.29,0,0,1,0-.07.07.07,0,0,1,.08-.08,1.15,1.15,0,0,1,.24,0c.06,0,.13,0,.13.11s0,.06-.06.09,0,.08,0,.18,0,.24,0,.35v.21a.18.18,0,0,0,.18.18h.32l.6,0c.12,0,.13.08.13.18s0,.17-.15.17h-.89a.18.18,0,0,0-.18.19l0,1.25v.2c0,.53-.12.77-.85.77-.16,0-.18-.2-.18-.24s.09-.1.15-.1c.55,0,.55-.06.53-.58l0-1.11s0-.08-.06-.08-.08,0-.11.09A6.77,6.77,0,0,1,23.19,52a.38.38,0,0,1-.16.08c-.08,0-.19-.13-.19-.21s.06-.1.1-.12a5.67,5.67,0,0,0,1.6-1.43.13.13,0,0,0,0-.08.07.07,0,0,0-.08-.06h-.94l-.6,0c-.12,0-.13-.08-.13-.18s0-.17.17-.17Z"/><path class="cls-2" d="M32.15,49.84h.75c.15,0,.16,0,.16.2s0,.19-.13.19H28.43c-.13,0-.14-.07-.14-.19s0-.2.16-.2h3.69Z"/><path class="cls-2" d="M37.9,48.5a3.29,3.29,0,0,0,.56,0h.08c.08,0,.24.27.24.33a.24.24,0,0,1-.05.11,1.23,1.23,0,0,0-.18.32,10.21,10.21,0,0,1-.64,1.21.21.21,0,0,0-.05.14.16.16,0,0,0,.08.14c.2.14.43.3.43.39s-.12.26-.2.26-.06,0-.1-.05l-.31-.24A.22.22,0,0,0,37.6,51c-.1,0-.15.07-.21.15a5.25,5.25,0,0,1-1.45,1.16,4.81,4.81,0,0,1-.78.35.39.39,0,0,1-.27-.28c0-.06.09-.08.22-.13a4.59,4.59,0,0,0,2-1.3.29.29,0,0,0,.09-.18.19.19,0,0,0-.11-.17,7.7,7.7,0,0,0-.82-.45s-.11-.05-.11-.1.12-.26.21-.26a6,6,0,0,1,.89.46.43.43,0,0,0,.19.08c.12,0,.16-.1.22-.19A6.06,6.06,0,0,0,38.2,49c0-.15-.19-.13-.3-.13H36.27c-.1,0-.15.08-.21.16a9.43,9.43,0,0,1-.89,1.09.21.21,0,0,1-.13.06c-.09,0-.28-.1-.28-.19s0-.08.07-.1a6.23,6.23,0,0,0,1.62-2.27s0-.15.1-.15a1.81,1.81,0,0,1,.34.19s.07,0,.07.08-.09.09-.13.1-.07.09-.1.15l-.21.36a.13.13,0,0,0,0,.08.09.09,0,0,0,.1.09Z"/><path class="cls-2" d="M44.09,49.84h.75c.15,0,.16,0,.16.2s0,.19-.14.19H40.38c-.13,0-.14-.07-.14-.19s0-.2.16-.2h3.69Z"/><path class="cls-2" d="M47.57,50.32s.1,0,.1.1,0,.06-.08.06-.14,0-.22.13-.84,1-1,1-.23-.13-.23-.21.08-.1.13-.13a3.71,3.71,0,0,0,.92-1s0-.08.09-.08A1.35,1.35,0,0,1,47.57,50.32ZM48.33,49a.18.18,0,0,0,.18-.18v-.13a5.88,5.88,0,0,0,0-.83.27.27,0,0,1,0-.07c0-.06,0-.08.1-.08a2.45,2.45,0,0,1,.37.06.07.07,0,0,1,.06.07s0,.06-.06.09-.06.11-.06.25v.64a.18.18,0,0,0,.18.18h2c.13,0,.15.06.15.19s0,.19-.14.19h-2a.18.18,0,0,0-.18.18v1.72c0,.13,0,.26,0,.38,0,.32,0,.55-.32.71a1.42,1.42,0,0,1-.51.14c-.13,0-.23-.21-.23-.29s.07-.1.13-.1c.45,0,.55-.12.55-.6v-2a.18.18,0,0,0-.18-.18H46.41c-.13,0-.14-.07-.14-.19s0-.19.14-.19h1.92Zm2.54,1.86c.08.08.4.41.4.5s-.15.21-.23.21-.13-.08-.17-.13a5.44,5.44,0,0,0-.95-.94s-.11-.08-.11-.14a.28.28,0,0,1,.21-.21C50.16,50.16,50.76,50.77,50.87,50.88Zm-.07-3c.05.05.28.29.28.34a.31.31,0,0,1-.22.21s-.06,0-.09-.06a6.41,6.41,0,0,0-.44-.49.14.14,0,0,1-.05-.08.32.32,0,0,1,.2-.2C50.54,47.65,50.75,47.88,50.8,47.93Zm.6-.38c.05.05.29.29.29.34a.32.32,0,0,1-.23.21s-.06,0-.09-.06a6.32,6.32,0,0,0-.44-.49.14.14,0,0,1-.05-.08.32.32,0,0,1,.21-.19C51.15,47.27,51.35,47.5,51.4,47.55Z"/><path class="cls-2" d="M54.21,51.6c0,.32,0,.64,0,1s0,.28-.21.28-.21-.08-.21-.28,0-.64,0-1V48.52a6.88,6.88,0,0,0,0-.81.87.87,0,0,1,0-.12s0-.07.06-.07.46.06.46.15,0,.06,0,.08a3,3,0,0,0,0,.77Zm1.18-1.7c.1.07.51.39.51.49a.27.27,0,0,1-.21.23.19.19,0,0,1-.13-.06,7.74,7.74,0,0,0-1-.82c-.05,0-.12-.06-.12-.13s.11-.23.19-.23A4.1,4.1,0,0,1,55.39,49.91Z"/><path class="cls-2" d="M58.88,48.26c.05,0,.11,0,.11.08s0,.05-.05.08a.25.25,0,0,0,0,.17,11.62,11.62,0,0,1,0,1.25,3.44,3.44,0,0,1-1.14,2.31.11.11,0,0,1-.08,0c-.07,0-.32-.1-.32-.19s.08-.1.13-.13A3.35,3.35,0,0,0,58.53,49a3.72,3.72,0,0,0,0-.61s0-.06,0-.08a.06.06,0,0,1,.07-.07A2.46,2.46,0,0,1,58.88,48.26Zm1.48,3.21s0,.12.06.12.13-.06.18-.1A17.7,17.7,0,0,0,62.38,50s.07-.08.11-.08.19.17.19.24-.1.13-.14.17a23.48,23.48,0,0,1-1.95,1.56l-.08.06s-.08.08-.15.08a1,1,0,0,1-.28-.12c-.08-.05-.13-.07-.13-.16s0-.39,0-.77v-2a6,6,0,0,0,0-.84.55.55,0,0,1,0-.1.06.06,0,0,1,.06-.06,2.37,2.37,0,0,1,.36.08s.08,0,.08.08,0,.05,0,.08,0,.18,0,.4Z"/><path class="cls-2" d="M65.8,47.79c.06,0,.17,0,.17.1a.14.14,0,0,1-.06.1c-.09.1-.09.16-.12.31s-.06.35-.09.52a.22.22,0,0,0,0,.07.09.09,0,0,0,.1.1h0s.26,0,.44,0c.6,0,.82.37.82.94a4.63,4.63,0,0,1-.36,1.93,1.19,1.19,0,0,1-1.09.66c-.25,0-.31-.28-.31-.36s0-.06,0-.06a2.61,2.61,0,0,0,.33,0,.76.76,0,0,0,.73-.52,3.9,3.9,0,0,0,.29-1.51c0-.42,0-.79-.55-.79s-.6.12-.62.23a7.31,7.31,0,0,1-1.08,2.38,6.66,6.66,0,0,1-.42.56.15.15,0,0,1-.1.05c-.07,0-.25-.13-.25-.21a.22.22,0,0,1,.08-.13A5.87,5.87,0,0,0,65.05,50a4.81,4.81,0,0,0,.15-.53.07.07,0,0,0-.07-.06l-.12,0a7.8,7.8,0,0,0-.9.27l-.07,0c-.08,0-.21-.28-.21-.36s.08,0,.43-.12.58-.13.88-.19.18-.1.21-.28a5.5,5.5,0,0,0,.07-.8.83.83,0,0,0,0-.22v0a.06.06,0,0,1,.06-.06A2.54,2.54,0,0,1,65.8,47.79ZM68.49,50c0,.07-.19.2-.28.2s-.1-.06-.13-.12a4,4,0,0,0-.81-1.3.15.15,0,0,1-.05-.1c0-.1.21-.18.26-.18S68.49,49.8,68.49,50Zm-.66-2.21c.06,0,.27.22.32.28s.28.28.28.34a.31.31,0,0,1-.23.21s-.06,0-.08-.06a6.57,6.57,0,0,0-.45-.49s-.05-.05-.05-.08A.32.32,0,0,1,67.82,47.76Zm.9-.13c.05.05.28.28.28.34a.31.31,0,0,1-.23.21s-.06,0-.08-.06-.29-.33-.44-.49-.06,0-.06-.08.15-.2.21-.2S68.67,47.57,68.72,47.63Z"/><path class="cls-2" d="M70.62,47.78c-.13,0-.18.05-.18.18v3.8c0,.29,0,.58,0,.87s0,.26-.19.26-.19-.1-.19-.25,0-.59,0-.88V48.1c0-.13,0-.25,0-.38s.05-.28.27-.28h1.21c.13,0,.29.12.29.22a4.82,4.82,0,0,1-.65,1.18.59.59,0,0,0-.1.19s0,.09.06.12a2.14,2.14,0,0,1,.57,1.38,1.17,1.17,0,0,1-.33.92.89.89,0,0,1-.51.13c-.21,0-.32,0-.32-.25,0-.07,0-.11.1-.11h.26c.38,0,.46-.39.46-.7a2,2,0,0,0-.62-1.29.28.28,0,0,1-.09-.17.53.53,0,0,1,.12-.22,8.84,8.84,0,0,0,.6-1c0-.07-.06-.07-.17-.07Zm1.58,3.69s.11,0,.11.07,0,0-.06.05-.08,0-.1.09a9.37,9.37,0,0,1-.35.91c0,.06-.07.13-.15.13s-.22-.06-.22-.14a.19.19,0,0,1,0-.08,3.72,3.72,0,0,0,.38-1s0-.08.07-.08A2.39,2.39,0,0,1,72.2,51.46Zm2.45-.82c.11,0,.15-.05.15-.15v-.16c0-.11,0-.16-.15-.16H72.37c-.12,0-.13-.05-.13-.17s0-.17.13-.17h2.28c.11,0,.15,0,.15-.15v-.15c0-.1,0-.15-.15-.15H72.23c-.11,0-.13,0-.13-.17s0-.17.13-.17h2.61c.24,0,.31.06.31.28s0,.22,0,.34v.85c0,.15,0,.29,0,.44s0,.14-.18.14a.21.21,0,0,1-.16,0s-.06-.1-.12-.1H73l-.74,0c-.12,0-.13-.06-.13-.17s0-.18.13-.18l.74,0Zm.45-3-.06,0a.3.3,0,0,0-.11,0h-.1a17.82,17.82,0,0,1-2.52.31c-.1,0-.2,0-.2-.22s.11-.14.24-.14a12.45,12.45,0,0,0,2.46-.29l.08,0c.06,0,.07,0,.21.22a.19.19,0,0,1,.05.12A.06.06,0,0,1,75.1,47.68ZM72.6,49c-.1,0-.12-.09-.17-.24s-.15-.31-.21-.44a.2.2,0,0,1,0-.1c0-.08.12-.14.19-.14s.12.05.21.26a2.81,2.81,0,0,1,.21.51C72.8,48.93,72.68,49,72.6,49Zm1.21,3.55c.26,0,.31,0,.42-.53,0-.11,0-.15.12-.15s.22,0,.22.13a2.21,2.21,0,0,1-.23.71c-.13.17-.33.15-.53.15H73c-.26,0-.56,0-.56-.36,0-.07,0-.14,0-.21v-.53a2.06,2.06,0,0,0,0-.34v-.06c0-.05,0-.06.08-.06l.38,0s.07,0,.07.06,0,.05-.06.06-.1.12-.1.31v.57c0,.21.13.21.33.21Zm-.17-.5a.14.14,0,0,1-.12-.1,4.15,4.15,0,0,0-.35-.56.23.23,0,0,1,0-.1c0-.09.12-.15.2-.15s.11.06.21.2a2.24,2.24,0,0,1,.31.57C73.84,52,73.72,52,73.65,52Zm0-3.08c-.09,0-.12,0-.13-.13s-.08-.35-.13-.52a.93.93,0,0,1-.06-.21c0-.09.12-.13.19-.13s.13.07.23.43a3.89,3.89,0,0,1,.1.42C73.86,48.91,73.75,48.94,73.66,48.94Zm1-.66a3.24,3.24,0,0,0,.2-.35s0-.08.08-.08.23.15.28.19.08.06.08.1-.07.06-.12.06-.16.12-.26.27l0,.07c-.13.2-.23.39-.32.39s-.2-.09-.2-.17.16-.28.21-.35Zm.58,4.39c-.09,0-.12-.06-.15-.13a6.48,6.48,0,0,0-.43-.93.35.35,0,0,1,0-.11c0-.08.12-.16.19-.16s.1,0,.13.1a4.78,4.78,0,0,1,.24.46,4.2,4.2,0,0,1,.24.64C75.44,52.61,75.34,52.67,75.26,52.67Z"/><path class="cls-2" d="M78.48,47.61c0,.05-.05.1-.08.13a4.05,4.05,0,0,0-.15.89.07.07,0,0,0,.06.07h.1c.08,0,.21.21.21.26s-.07.1-.11.17-.27.46-.31.55a.38.38,0,0,0,0,.21s0,.1.06.1,0,0,.06,0,.3-.3.39-.39c.37-.35.93-.94,1.46-.94a.53.53,0,0,1,.44.23,1.09,1.09,0,0,1,.08.51c0,.66-.08,1.32-.08,2,0,.26,0,.54.19.54a1.36,1.36,0,0,0,.73-.45.12.12,0,0,1,.08-.06c.09,0,.15.25.15.33s-.18.19-.24.24a1.47,1.47,0,0,1-.79.33c-.43,0-.48-.41-.48-.74,0-.66.07-1.32.07-2,0-.19,0-.53-.26-.53s-.65.32-.86.51a8.91,8.91,0,0,0-.9.88c-.1.1-.13.12-.13.26q0,.57,0,1.14c0,.23,0,.47,0,.7,0,.07,0,.12-.22.12s-.18,0-.18-.13c0-.49,0-1,0-1.49,0,0,0-.06,0-.06s-.18.22-.21.26c-.14.22-.42.69-.54.92,0,0,0,0-.06,0s-.26-.16-.26-.25a.24.24,0,0,1,.06-.12A11.3,11.3,0,0,0,77.82,50a.3.3,0,0,0,0-.15c0-.16,0-.39,0-.54a.07.07,0,0,0-.08-.07h0a8.43,8.43,0,0,1-1,.34c-.13,0-.19-.3-.19-.34s.09-.08.15-.08a5.61,5.61,0,0,0,1-.24c.22-.06.19-.13.21-.33s0-.64,0-.85a1,1,0,0,0,0-.15v-.06s0-.08.06-.08S78.48,47.5,78.48,47.61Z"/><path class="cls-2" d="M82.76,48.51c.72,0,3.62-.33,4.28-.46h.1c.1,0,.1.2.1.3s-.06.13-.22.13a4.47,4.47,0,0,0-1.12.12,2,2,0,0,0-1.19,1,2.79,2.79,0,0,0-.4,1.37,1,1,0,0,0,.56,1,1.89,1.89,0,0,0,.82.13h.18c.05,0,.12,0,.12.07a.82.82,0,0,1-.08.28c0,.06-.05.06-.12.06a3.08,3.08,0,0,1-.87-.13,1.31,1.31,0,0,1-1-1.36,3.08,3.08,0,0,1,1-2.25s0,0,0-.05,0,0-.08,0l-.72.08A14.81,14.81,0,0,0,82.7,49h-.1c-.12,0-.15-.34-.15-.36S82.51,48.53,82.76,48.51Z"/><path class="cls-2" d="M89.18,48.6s.12,0,.12.09,0,.07-.07.1-.07.1-.08.18a3.26,3.26,0,0,0,0,.57,4.19,4.19,0,0,0,.24,1.61c.1.24.39.71.69.71s.45-.33.54-.49.08-.16.14-.16.23.14.23.21-.28.42-.35.49a.78.78,0,0,1-.55.34c-.44,0-.78-.44-1-.8a4.57,4.57,0,0,1-.34-2c0-.13,0-.84,0-.94s0-.06.08-.06A1.68,1.68,0,0,1,89.18,48.6Zm2.87,0a2,2,0,0,1,.77.72,3.27,3.27,0,0,1,.46,1.26,1.27,1.27,0,0,1,0,.15c0,.14-.14.15-.25.15s-.15-.07-.16-.15a2.55,2.55,0,0,0-.91-1.8c-.05,0-.1-.07-.1-.12A.23.23,0,0,1,92.06,48.56Z"/><path class="cls-2" d="M94.69,48.51c.72,0,3.62-.33,4.28-.46h.1c.1,0,.1.2.1.3s-.06.13-.22.13a4.47,4.47,0,0,0-1.12.12,2,2,0,0,0-1.19,1,2.79,2.79,0,0,0-.4,1.37,1,1,0,0,0,.56,1,1.89,1.89,0,0,0,.82.13h.18c.05,0,.12,0,.12.07a.82.82,0,0,1-.08.28c0,.06-.05.06-.12.06a3.08,3.08,0,0,1-.87-.13,1.31,1.31,0,0,1-1-1.36,3.08,3.08,0,0,1,1-2.25s0,0,0-.05,0,0-.08,0l-.72.08a14.82,14.82,0,0,0-1.52.24h-.1c-.12,0-.15-.34-.15-.36S94.44,48.53,94.69,48.51Z"/><path class="cls-2" d="M103,47.66c0,.06-.06.09-.11.12s-.31.64-.37.83a.25.25,0,0,0,0,.07c0,.1.08.13.17.14a5.51,5.51,0,0,0,.74.06c.14,0,.24,0,.24.11a.75.75,0,0,1-.05.24.09.09,0,0,1-.1.06,7,7,0,0,1-1-.12h-.07c-.13,0-.15.12-.17.19s-.17.71-.17.82.07.12.14.12a5.31,5.31,0,0,0,.71.05h.1c.08,0,.14,0,.14.1a.9.9,0,0,1-.06.22c0,.06,0,.08-.1.08s-.59-.05-.79-.08h-.08c-.17,0-.16.15-.17.21a3.4,3.4,0,0,0,0,.37c0,.7.31,1.09,1,1.09a1.73,1.73,0,0,0,.91-.24.72.72,0,0,0,.36-.68,2.36,2.36,0,0,0-.24-1,.23.23,0,0,1,0-.09c0-.09.21-.14.29-.14s.1.05.13.12a3.12,3.12,0,0,1,.24,1.15c0,.91-.88,1.24-1.66,1.24a1.26,1.26,0,0,1-1.39-1.36,4.54,4.54,0,0,1,0-.58v-.06c0-.15-.14-.17-.28-.21a2.36,2.36,0,0,1-.45-.2c-.06,0-.1-.06-.1-.13s0-.28.12-.28a.26.26,0,0,1,.13.06,1.78,1.78,0,0,0,.56.24c.16,0,.12-.21.3-.9a.64.64,0,0,0,0-.1c0-.12-.1-.15-.19-.19a5.34,5.34,0,0,1-.55-.23c-.06,0-.12-.06-.12-.13s0-.28.13-.28a.26.26,0,0,1,.12.05,3.08,3.08,0,0,0,.56.28l.1,0c.1,0,.12-.1.14-.17.1-.32.2-.62.29-.94,0-.06,0-.12.1-.12S103,47.56,103,47.66Z"/><path class="cls-2" d="M108.16,52.32c0,.07-.16.28-.26.28s-.09,0-.12-.08a3.38,3.38,0,0,0-1-.84s-.1-.06-.1-.12a.37.37,0,0,1,.24-.25A3.56,3.56,0,0,1,108.16,52.32Z"/><path class="cls-2" d="M17.44,62.76a.1.1,0,0,0,.09-.07,6.94,6.94,0,0,0,.34-1.19c0-.14-.12-.13-.29-.13h-.43c-.13,0-.18,0-.22.17S16.42,63,16.2,63s-.21-.08-.21-.16A.19.19,0,0,1,16,62.7a6.84,6.84,0,0,0,.87-2.51v0c0-.1-.07-.13-.15-.13h-.6c-.12,0-.12-.08-.12-.17s0-.17.12-.17h2.19c.12,0,.12.08.12.17s0,.17-.12.17h-.9c-.13,0-.18,0-.21.17s-.08.47-.14.7c0,0,0,0,0,0s.07.12.15.12h.68c.12,0,.33,0,.33.3a8.93,8.93,0,0,1-.51,1.7,5.5,5.5,0,0,1-1.25,1.87.2.2,0,0,1-.13.06c-.08,0-.19-.07-.19-.15s.08-.14.13-.19a5.28,5.28,0,0,0,1-1.32.28.28,0,0,0,0-.12.25.25,0,0,0-.08-.15c-.12-.13-.24-.24-.33-.32s-.19-.18-.19-.22a.23.23,0,0,1,.19-.17c.08,0,.39.33.46.41A.15.15,0,0,0,17.44,62.76Zm3.5,1.83a.35.35,0,0,0,.17.09c.19,0,.23-.76.24-.91s0-.14.12-.14.23,0,.23.14a4.14,4.14,0,0,1-.16.88.45.45,0,0,1-.41.37c-.44,0-.78-.58-.95-.93,0,0-.06-.08-.12-.08a.17.17,0,0,0-.1,0,8.15,8.15,0,0,1-1.18.66A7.23,7.23,0,0,1,18,65a.38.38,0,0,1-.15,0,.19.19,0,0,1-.19-.2c0-.12.12-.14.21-.17a8,8,0,0,0,1.95-1,.18.18,0,0,0,.09-.16.31.31,0,0,0,0-.08c-.07-.2-.13-.4-.19-.6a.18.18,0,0,0-.2-.15l-.51,0-.61.05c-.1,0-.12-.08-.12-.21s0-.14.27-.15H19l.46,0c.08,0,.14,0,.14-.14s0,0,0,0,0-.22,0-.32-.07-.17-.19-.16h-.14l-.57,0c-.11,0-.12-.07-.12-.21s0-.14.18-.14h.62c.12,0,.16-.07.15-.18l0-.29c0-.11-.06-.15-.17-.15h-.23l-.6,0c-.1,0-.12-.07-.12-.21s0-.13.22-.14h.71c.12,0,.16-.06.16-.18s0-.62,0-.76,0-.06,0-.08,0-.07.08-.07l.37,0s.08,0,.08.07,0,.06-.09.08-.07.06-.07.18,0,.35,0,.52.07.16.18.15l.88,0,.6,0c.1,0,.12.05.12.21s0,.13-.24.14h-.46l-.88,0c-.12,0-.15.06-.16.17l0,.29c0,.12.06.17.18.16l.76,0,.57,0c.1,0,.12.05.12.21s0,.13-.23.14h-.45l-.74,0c-.09,0-.15,0-.15.14v0c0,.11,0,.22.05.33a.17.17,0,0,0,.2.15l.78,0,.61-.05c.09,0,.12,0,.12.21s0,.13-.24.13l-.47,0-.73,0c-.07,0-.13,0-.13.13s0,0,0,0,.08.28.13.42a.12.12,0,0,0,.11.09.14.14,0,0,0,.08,0,4.24,4.24,0,0,0,.47-.41s.07-.08.12-.08.35.17.35.25-.08.07-.13.08-.08,0-.13.07-.36.3-.54.44a.19.19,0,0,0-.09.15.25.25,0,0,0,0,.1A2,2,0,0,0,20.94,64.59Zm-.13-4.36c-.08,0-.12-.06-.15-.12a6.17,6.17,0,0,0-.4-.51.18.18,0,0,1-.07-.12c0-.09.12-.17.19-.17s.33.32.39.4.23.28.23.35S20.89,60.23,20.81,60.23Z"/><path class="cls-2" d="M25.55,63.82c0,.1,0,.13.13.13h1.86c.12,0,.12.06.12.16s0,.16-.12.16H25.68c-.09,0-.13,0-.13.13v.06c0,.09,0,.13.13.13H28c.12,0,.13.05.13.17s0,.17-.12.17H22.69c-.12,0-.12-.07-.12-.17s0-.17.13-.17h2.4c.09,0,.13,0,.13-.13v-.06c0-.09,0-.13-.13-.13H23.21c-.12,0-.12-.07-.12-.16s0-.16.12-.16H25.1c.09,0,.13,0,.13-.13v0c0-.1,0-.13-.13-.13H23.9c-.23,0-.31,0-.31-.24V62.26c0-.17.08-.22.28-.22h3c.15,0,.28,0,.28.21v1.22c0,.19-.13.21-.29.21H25.68c-.09,0-.13,0-.13.13Zm-2-2.11h-.75c-.12,0-.12-.07-.12-.17s0-.17.13-.17H28c.12,0,.13.06.13.17s0,.17-.13.17h-4.4Zm3.69-.84c0,.2-.13.22-.29.22H23.86c-.17,0-.32,0-.32-.22,0-.06,0-.12,0-.17v-.78c0-.06,0-.12,0-.17s.11-.22.36-.22H27c.17,0,.29,0,.29.22Zm-.34-.9a.12.12,0,0,0-.13-.13H24a.13.13,0,0,0-.13.13v0a.13.13,0,0,0,.13.13h2.76a.13.13,0,0,0,.13-.13ZM24,60.43a.13.13,0,0,0-.13.13v.08a.13.13,0,0,0,.13.13h2.76a.12.12,0,0,0,.13-.13v-.08a.12.12,0,0,0-.13-.13Zm1.21,2a.13.13,0,0,0-.13-.13H24a.13.13,0,0,0-.13.13v.1a.13.13,0,0,0,.13.13H25.1a.13.13,0,0,0,.13-.13ZM24,63a.12.12,0,0,0-.13.13v.12a.12.12,0,0,0,.13.13H25.1a.12.12,0,0,0,.13-.13v-.12A.12.12,0,0,0,25.1,63Zm2.7-.28a.13.13,0,0,0,.13-.13v-.1a.13.13,0,0,0-.13-.13H25.68a.13.13,0,0,0-.13.13v.1a.13.13,0,0,0,.13.13Zm-1.19.53a.12.12,0,0,0,.13.13h1.06a.12.12,0,0,0,.13-.13v-.12a.12.12,0,0,0-.13-.13H25.68a.12.12,0,0,0-.13.13Z"/><path class="cls-2" d="M31.43,59.84c.06,0,.17,0,.17.1s0,.07-.06.1-.09.16-.12.31-.06.35-.09.52a.3.3,0,0,0,0,.07.1.1,0,0,0,.1.1h0s.26,0,.44,0c.6,0,.81.37.81.94a4.6,4.6,0,0,1-.36,1.93,1.18,1.18,0,0,1-1.09.66c-.25,0-.31-.28-.31-.36s0-.06,0-.06a2.61,2.61,0,0,0,.33,0,.76.76,0,0,0,.72-.52,3.9,3.9,0,0,0,.3-1.51c0-.42,0-.79-.55-.79s-.6.12-.62.23a7.27,7.27,0,0,1-1.08,2.38,6.66,6.66,0,0,1-.42.56.14.14,0,0,1-.1.05c-.07,0-.25-.13-.25-.21a.22.22,0,0,1,.08-.13,5.88,5.88,0,0,0,1.26-2.12,4.78,4.78,0,0,0,.15-.53.07.07,0,0,0-.07-.06l-.12,0a7.89,7.89,0,0,0-.9.27l-.07,0c-.08,0-.2-.28-.2-.36s.08,0,.43-.12.58-.13.88-.19.18-.1.21-.28a5.79,5.79,0,0,0,.07-.8.83.83,0,0,0,0-.22v0a.06.06,0,0,1,.06-.06A2.46,2.46,0,0,1,31.43,59.84ZM34.11,62c0,.07-.19.2-.28.2s-.1-.06-.13-.12a4.08,4.08,0,0,0-.82-1.3.14.14,0,0,1-.05-.1c0-.1.21-.18.26-.18S34.11,61.86,34.11,62Zm-.66-2.21c.06,0,.27.22.32.28s.28.28.28.34a.31.31,0,0,1-.23.21s-.06,0-.08-.06a6.55,6.55,0,0,0-.45-.49.13.13,0,0,1-.05-.08A.31.31,0,0,1,33.45,59.81Zm.9-.13c.05.05.28.28.28.34a.31.31,0,0,1-.23.21s-.06,0-.08-.06-.29-.33-.44-.49-.06,0-.06-.08.15-.2.21-.2S34.3,59.62,34.35,59.68Z"/><path class="cls-2" d="M36.3,64.4c0,.13,0,.16-.18.16s-.17,0-.17-.17,0-.3,0-.44V62.53a0,0,0,0,0,0,0l0,0c-.06.1-.22.4-.33.4s-.2-.1-.2-.17a.23.23,0,0,1,.05-.12,6.06,6.06,0,0,0,1-2.42v0c0-.1-.06-.13-.15-.13h-.54c-.11,0-.12-.08-.12-.17s0-.17.12-.17h1.84c.12,0,.12.08.12.17s0,.17-.12.17h-.6c-.12,0-.19,0-.21.17a8.52,8.52,0,0,1-.25,1,.13.13,0,0,0,0,0c0,.08.06.11.13.12h.62c.19,0,.22.12.22.28v1.95c0,.15,0,.3,0,.44s0,.17-.18.17S37,64.2,37,64.07V64c0-.1-.05-.14-.15-.14h-.42c-.13,0-.18.05-.18.18S36.3,64.27,36.3,64.4ZM37,61.91a.19.19,0,0,0-.18-.18h-.4a.19.19,0,0,0-.18.18v1.41a.17.17,0,0,0,.18.17h.4a.17.17,0,0,0,.18-.17Zm2.69-1.36a1,1,0,0,1,.21.08c.06,0,.16.06.16.11s0,0-.08.06-.08,0-.1.06-.1.26-.15.4a.17.17,0,0,0,0,.06c0,.08.06.1.12.1h.29l.75,0c.12,0,.13.06.13.17s0,.17-.13.17H40c-.12,0-.17.05-.17.18v.23c0,.13.05.17.17.18h.84c.12,0,.13.05.13.17s0,.17-.13.17H40c-.12,0-.17.05-.17.18v.27c0,.12.05.17.17.17h.83c.12,0,.13.05.13.17s0,.17-.13.17H40c-.12,0-.17,0-.17.17v.37c0,.13.05.17.17.18h1c.12,0,.13.06.13.17s0,.17-.13.17H38.66c-.11,0-.15,0-.15.15s0,.28-.19.28-.18-.09-.18-.24,0-.48,0-.71V62.21a.06.06,0,0,0-.06-.06.06.06,0,0,0-.05,0c-.1.12-.26.35-.38.35a.21.21,0,0,1-.18-.17c0-.05.06-.11.1-.15a8.7,8.7,0,0,0,.73-.93,8.23,8.23,0,0,0,.5-.84.09.09,0,0,0,0-.05c0-.07-.06-.1-.12-.1h-.4c-.11,0-.15.05-.15.15v.12c0,.06,0,.12,0,.17s-.1.12-.18.12-.17,0-.17-.12,0-.14,0-.22v-.07c0-.08,0-.15,0-.23s.12-.24.29-.24h.77a.22.22,0,0,0,.24-.15c0-.1.13-.28.16-.37s0-.1.09-.1.36.12.36.19,0,.06-.08.08-.09.05-.17.23a.12.12,0,0,0,0,0c0,.06,0,.09.1.09h1.14c.19,0,.31,0,.31.25v.32c0,.06,0,.14,0,.19s0,.15-.17.15-.18,0-.18-.12,0-.12,0-.18v-.12c0-.13-.05-.18-.17-.18H39.44a.23.23,0,0,0-.26.15c-.14.26-.34.6-.5.84a.13.13,0,0,0,0,.06c0,.06.05.08.1.08h.41a.23.23,0,0,0,.25-.16,5.43,5.43,0,0,0,.25-.64S39.7,60.55,39.74,60.55Zm-1.08,1.18a.17.17,0,0,0-.17.17v.23a.18.18,0,0,0,.17.18h.61a.17.17,0,0,0,.17-.18v-.23a.17.17,0,0,0-.17-.18Zm.61,1.52a.17.17,0,0,0,.17-.17v-.27a.17.17,0,0,0-.17-.18h-.61a.17.17,0,0,0-.17.17v.27a.17.17,0,0,0,.17.18Zm-.61.32c-.12,0-.17,0-.17.17v.37c0,.13.05.18.18.18h.61c.12,0,.17-.05.17-.18v-.37c0-.13-.05-.17-.17-.17Z"/><path class="cls-2" d="M42.63,60.73h-.49c-.12,0-.12-.09-.12-.18s0-.16.12-.16h2c.11,0,.12.08.12.17s0,.17-.12.17H42.63Zm.91,3.91h-.7c-.09,0-.13,0-.13.12v.1c0,.11,0,.13-.17.13s-.16,0-.16-.15,0-.22,0-.33v-1c0-.09,0-.18,0-.27s0-.26.24-.26h1.13c.21,0,.24.08.24.28v1.58c0,.12,0,.16-.16.16s-.17,0-.17-.14a.4.4,0,0,1,0-.08C43.66,64.67,43.62,64.63,43.53,64.63Zm-.61-2.2H42.5c-.1,0-.1-.09-.1-.17s0-.15.1-.15h1.39c.1,0,.1.08.1.16s0,.16-.1.16h-1Zm0-.86h-.42c-.11,0-.11-.08-.11-.17s0-.15.11-.15H43.9c.11,0,.11.08.11.16s0,.16-.11.16h-1Zm-.08-1.71h-.34c-.1,0-.1-.08-.1-.17s0-.15.1-.15h1.39c.1,0,.11.08.11.16s0,.16-.11.16h-1Zm.62,4.48a.18.18,0,0,0,.18-.18v-.7a.18.18,0,0,0-.18-.18h-.6a.18.18,0,0,0-.18.18v.7a.18.18,0,0,0,.18.18Zm1.38-1s0,0-.06.06-.08,0-.09.11a9.68,9.68,0,0,1-.21,1c0,.08-.06.13-.15.13s-.21,0-.21-.12a.13.13,0,0,1,0-.07,5.09,5.09,0,0,0,.23-1c0-.26,0-.26.09-.26S44.86,63.23,44.86,63.31Zm.78-2a.16.16,0,0,0-.12.08,3.45,3.45,0,0,1-.85.9.45.45,0,0,1-.22.12c-.12,0-.18-.15-.18-.22s0-.08.08-.11a2.82,2.82,0,0,0,.91-.87.21.21,0,0,0,0-.1A.16.16,0,0,0,45.2,61l-.45-.29c-.06,0-.09-.08-.09-.11a.2.2,0,0,1,.16-.18,2.93,2.93,0,0,1,.5.29.16.16,0,0,0,.08,0,.12.12,0,0,0,.12-.1,3.36,3.36,0,0,0,.12-.57c0-.12-.06-.17-.17-.17h-1c-.11,0-.13-.05-.13-.17s0-.17.13-.17h2.66c.24,0,.35.06.35.31a8.82,8.82,0,0,1-.24,2c-.14.41-.45.45-.83.45s-.39,0-.39-.26c0-.08,0-.13.1-.13h.1l.31,0c.28,0,.38-.05.45-.33a9.82,9.82,0,0,0,.15-1.5c0-.22-.14-.19-.45-.19h-.55c-.12,0-.18,0-.19.17a3.47,3.47,0,0,1-.17.77.36.36,0,0,0,0,.09.21.21,0,0,0,.09.16l.33.24s.08.07.08.12a.19.19,0,0,1-.17.18,1.77,1.77,0,0,1-.38-.26A.17.17,0,0,0,45.64,61.35Zm.57,3.17c.25,0,.31,0,.38-.47,0-.12,0-.17.12-.17s.22,0,.22.13a1.74,1.74,0,0,1-.2.67c-.13.17-.32.16-.51.16h-.6c-.27,0-.55,0-.55-.38,0-.08,0-.16,0-.24v-.86a2.63,2.63,0,0,0,0-.39s0,0,0-.06,0-.06.08-.06l.37,0s.08,0,.08.06,0,.05-.06.07-.1.13-.1.36v.94c0,.23.12.23.32.23Zm-.17-2,.28.3c.05.06.19.21.19.29s-.12.17-.2.17-.08,0-.11-.08-.31-.37-.42-.48a.18.18,0,0,1-.07-.12.2.2,0,0,1,.19-.17C46,62.47,46,62.52,46,62.56Zm1.42,1.79c-.08,0-.11-.06-.14-.13a5.46,5.46,0,0,0-.49-.92.25.25,0,0,1,0-.12c0-.09.12-.17.2-.17s.08,0,.12.09.19.32.28.49a4.27,4.27,0,0,1,.28.62C47.65,64.29,47.55,64.34,47.46,64.34Z"/><path class="cls-2" d="M49.05,60.57c.71,0,3.62-.34,4.28-.46h.1c.1,0,.1.2.1.3s-.06.13-.22.13a4.47,4.47,0,0,0-1.12.12,2,2,0,0,0-1.19,1A2.77,2.77,0,0,0,50.6,63a1,1,0,0,0,.56,1,1.93,1.93,0,0,0,.83.13h.16c.05,0,.13,0,.13.07a.86.86,0,0,1-.08.28c0,.06-.05.06-.12.06a3.07,3.07,0,0,1-.87-.13,1.31,1.31,0,0,1-1-1.36,3.09,3.09,0,0,1,1-2.25s0,0,0-.05,0,0-.08,0c-.29,0-1.91.24-2.24.32h-.1c-.12,0-.15-.34-.15-.36S48.8,60.58,49.05,60.57Zm4,.83a1.79,1.79,0,0,1,.27.35c0,.07-.15.2-.23.2s-.06,0-.09-.07a6.31,6.31,0,0,0-.42-.51s-.05-.05-.05-.08.15-.19.22-.19S53,61.34,53,61.4Zm.71-.32a1.83,1.83,0,0,1,.27.35c0,.07-.15.21-.24.21s-.06,0-.08-.07-.28-.35-.42-.51-.05-.05-.05-.08.15-.19.21-.19S53.69,61,53.74,61.08Z"/><path class="cls-2" d="M57,59.91c.1.26.13.38.25.38a2.42,2.42,0,0,0,.6-.26A.4.4,0,0,1,58,60c.07,0,.17.22.17.28s0,.05-.14.11a5.23,5.23,0,0,1-.54.24.14.14,0,0,0-.12.14,4.59,4.59,0,0,0,.2.47c0,.08.08.15.18.15a4.18,4.18,0,0,0,.89-.44.22.22,0,0,1,.1-.05c.05,0,.18.19.18.27s-.05.1-.28.22-.42.2-.65.3c0,0-.12,0-.12.12a1.67,1.67,0,0,0,.16.35,7.93,7.93,0,0,0,.64,1,.22.22,0,0,1,.06.12c0,.12-.23.27-.33.27a.12.12,0,0,1-.09,0A1.94,1.94,0,0,0,57,63c-.37,0-.79.17-.79.6s.71.74,1.16.74a3.47,3.47,0,0,0,.45,0h.08c.12,0,.12.12.12.2s0,.19-.43.19a2.85,2.85,0,0,1-.93-.12,1,1,0,0,1-.78-.94.94.94,0,0,1,.35-.73,1.28,1.28,0,0,1,.76-.22,2.45,2.45,0,0,1,1,.21L58,63a0,0,0,0,0,0,0s-.45-.84-.5-.94a.19.19,0,0,0-.17-.12l-.12,0a11.91,11.91,0,0,1-1.75.37c-.1,0-.11-.06-.12-.11a.89.89,0,0,1,0-.18c0-.1.06-.08.22-.1a7.1,7.1,0,0,0,1.52-.29c.08,0,.17,0,.17-.15a.38.38,0,0,0-.06-.14c-.2-.44-.22-.51-.34-.51l-.1,0a5.39,5.39,0,0,1-.89.15c-.11,0-.15-.19-.15-.28s.11-.07.21-.08a3.53,3.53,0,0,0,.63-.1c.08,0,.21,0,.21-.15a.75.75,0,0,0-.07-.19,2.48,2.48,0,0,0-.21-.41.14.14,0,0,1,0-.07c0-.09.21-.12.28-.12S56.87,59.64,57,59.91Z"/><path class="cls-2" d="M63.94,60.32s-.06.08-.1.1a8.64,8.64,0,0,0-1.16,1.13s-.11.11-.11.15a0,0,0,0,0,0,0l.13,0a2.43,2.43,0,0,1,.53-.06,1.38,1.38,0,0,1,1.55,1.3,1.74,1.74,0,0,1-1.9,1.61,1.44,1.44,0,0,1-.86-.24.65.65,0,0,1-.29-.52.66.66,0,0,1,.66-.64c.4,0,.89.31.89.74a.87.87,0,0,1-.07.27.06.06,0,0,0,.06.05A1.37,1.37,0,0,0,64.45,63c0-.71-.62-1-1.25-1a2,2,0,0,0-1.33.47,11,11,0,0,0-.82.87s-.06.08-.1.08-.25-.18-.25-.25.13-.17.25-.28c.83-.73,1.53-1.59,2.29-2.38a.15.15,0,0,0,.06-.11.06.06,0,0,0-.07-.06l-.16,0c-.47.1-.94.18-1.42.29l-.15,0c-.13,0-.13-.2-.13-.3s.05-.17.18-.17h.17A6,6,0,0,0,63.26,60a.68.68,0,0,1,.2,0A.63.63,0,0,1,63.94,60.32Zm-1.47,3.13a.35.35,0,0,0-.36.35c0,.29.42.44.66.44S63,64,63,63.93A.48.48,0,0,0,62.47,63.46Z"/><path class="cls-2" d="M68.4,59.51c.06,0,.31.06.39.08s.15,0,.15.1a.11.11,0,0,1-.05.09c-.08.05-.1.06-.1.64,0,.11,0,.22,0,.33v0c0,.1,0,.17.14.17a4.62,4.62,0,0,0,1.16-.26l.11,0c.1,0,.18.22.18.28s-.17.13-.39.19a7.22,7.22,0,0,1-1,.18c-.15,0-.2.07-.2.22,0,.31,0,1,.05,1.29,0,.15.13.17.22.19a6,6,0,0,1,1.48.58c.05,0,.17.08.17.15s-.14.29-.22.29a.49.49,0,0,1-.19-.1,5.07,5.07,0,0,0-1.13-.53,1,1,0,0,0-.19-.05c-.07,0-.1.06-.1.12s0,.14,0,.23a.78.78,0,0,1-.21.62,1.35,1.35,0,0,1-.91.29c-.49,0-1.16-.21-1.16-.8s.79-.91,1.36-.91h.33c.1,0,.13-.06.13-.15s0-.88,0-1.13a17.23,17.23,0,0,0-.09-2s0,0,0-.06S68.36,59.51,68.4,59.51ZM67,63.79c0,.37.51.46.8.46s.73-.14.73-.62,0-.41-.48-.41S67,63.3,67,63.79Z"/><path class="cls-2" d="M75.52,62.4A2.72,2.72,0,0,1,74,64.6a1.73,1.73,0,0,1-.46.21c-.09,0-.21-.16-.21-.26s.08-.1.13-.12a3,3,0,0,0,.94-.56,1.91,1.91,0,0,0,.77-1.43,1,1,0,0,0-1.08-1.12,2.1,2.1,0,0,0-1.43.64.24.24,0,0,1-.12.07c-.09,0-.21-.24-.21-.32s.13-.15.21-.2A2.92,2.92,0,0,1,74.08,61,1.34,1.34,0,0,1,75.52,62.4Zm-2.31-2.67a6.93,6.93,0,0,0,1.54.31c.08,0,.1,0,.1.11s0,.28-.15.28-.72-.14-.86-.17a7.82,7.82,0,0,1-.77-.19A.1.1,0,0,1,73,60c0-.07,0-.25.15-.25Z"/><path class="cls-2" d="M78.3,60c.15.07.23.1.23.16s0,.06-.09.09-.16.19-.23.38a5.21,5.21,0,0,0-.3,1.81,3.33,3.33,0,0,0,.19,1.21s0,.07.08.07.09-.08.22-.37.1-.22.15-.22.12,0,.12.08-.09.32-.11.38a2.94,2.94,0,0,0-.12.57.73.73,0,0,0,0,.17v.06c0,.08-.26.19-.29.19s-.2-.24-.24-.32a4.43,4.43,0,0,1-.37-1.88,7,7,0,0,1,.35-2.09c0-.1.06-.19.08-.29s0-.1.08-.1A1.81,1.81,0,0,1,78.3,60Zm1,3.3a1.22,1.22,0,0,0,1.07.48,5,5,0,0,0,1.41-.21l.11,0c.08,0,.07.08.07.15S82,64,82,64a6.81,6.81,0,0,1-1.45.18,1.8,1.8,0,0,1-1.35-.48s-.1-.1-.1-.15.12-.3.2-.3A.11.11,0,0,1,79.35,63.32Zm.28-2.87a3.21,3.21,0,0,0,.85.11,4.26,4.26,0,0,0,1-.13l.11,0c.08,0,.08.13.08.21s0,.17,0,.19a5.82,5.82,0,0,1-1.1.12,4.27,4.27,0,0,1-1-.13c-.07,0-.07-.1-.07-.17s0-.21.09-.21Z"/><path class="cls-2" d="M85,64.37c0,.07-.16.28-.26.28s-.09,0-.12-.08a3.35,3.35,0,0,0-1-.84s-.1-.06-.1-.12a.37.37,0,0,1,.24-.25A3.57,3.57,0,0,1,85,64.37Z"/><path class="cls-2" d="M88.22,62.37s.1,0,.1.1,0,.06-.08.06-.14,0-.22.13-.84,1-1,1-.23-.13-.23-.21.08-.1.13-.13a3.71,3.71,0,0,0,.92-1s0-.08.09-.08A1.38,1.38,0,0,1,88.22,62.37ZM89,61.08a.18.18,0,0,0,.18-.18v-.13a5.89,5.89,0,0,0,0-.83.26.26,0,0,1,0-.07c0-.06,0-.08.1-.08a2.47,2.47,0,0,1,.37.06.07.07,0,0,1,.06.07s0,.06-.06.09-.06.11-.06.25v.64a.18.18,0,0,0,.18.18h2c.13,0,.15.06.15.19s0,.19-.14.19h-2a.18.18,0,0,0-.18.18v1.72c0,.13,0,.26,0,.38,0,.32,0,.55-.32.71a1.44,1.44,0,0,1-.51.14c-.13,0-.23-.21-.23-.29s.07-.1.13-.1c.45,0,.55-.12.55-.6v-2a.18.18,0,0,0-.18-.18H87.06c-.13,0-.14-.07-.14-.19s0-.19.14-.19H89Zm2.54,1.86c.08.08.4.41.4.5s-.15.21-.23.21-.13-.08-.17-.13a5.44,5.44,0,0,0-.95-.94s-.11-.08-.11-.14a.28.28,0,0,1,.21-.21C90.8,62.21,91.41,62.82,91.51,62.94Zm-.07-3c.05.05.28.29.28.34a.31.31,0,0,1-.22.21s-.06,0-.09-.06A6.41,6.41,0,0,0,91,60a.14.14,0,0,1-.05-.08.32.32,0,0,1,.21-.2C91.18,59.7,91.39,59.93,91.44,60Zm.6-.38c.05.05.29.29.29.34a.32.32,0,0,1-.23.21s-.06,0-.09-.06a6.29,6.29,0,0,0-.44-.49.14.14,0,0,1-.05-.08.32.32,0,0,1,.21-.19C91.79,59.33,92,59.55,92,59.6Z"/><path class="cls-2" d="M94.79,63.66c0,.32,0,.64,0,1s0,.28-.21.28-.21-.08-.21-.28,0-.64,0-1V60.57a6.47,6.47,0,0,0,0-.81.87.87,0,0,1,0-.12s0-.07.06-.07.46.06.46.15,0,.06,0,.08a3,3,0,0,0,0,.77ZM96,62c.1.07.51.39.51.49a.27.27,0,0,1-.21.23.19.19,0,0,1-.13-.06,7.75,7.75,0,0,0-1-.82c-.05,0-.12-.06-.12-.13s.11-.23.19-.23A4.07,4.07,0,0,1,96,62Z"/><path class="cls-2" d="M99.39,60.32c.05,0,.11,0,.11.08s0,.05-.05.08a.25.25,0,0,0,0,.17,11.6,11.6,0,0,1,0,1.25,3.44,3.44,0,0,1-1.14,2.31.11.11,0,0,1-.08,0c-.07,0-.32-.1-.32-.19s.08-.1.13-.13A3.35,3.35,0,0,0,99,61a3.94,3.94,0,0,0,0-.61s0-.06,0-.08a.06.06,0,0,1,.07-.07A2.34,2.34,0,0,1,99.39,60.32Zm1.48,3.21s0,.12.06.12.13-.06.18-.1a17.48,17.48,0,0,0,1.78-1.46S103,62,103,62s.19.17.19.24-.1.13-.13.17A23.21,23.21,0,0,1,101.11,64L101,64s-.08.08-.15.08a1,1,0,0,1-.28-.12c-.08-.05-.14-.07-.14-.16s0-.39,0-.77v-2a6,6,0,0,0,0-.84.53.53,0,0,1,0-.1.06.06,0,0,1,.06-.06,2.37,2.37,0,0,1,.36.08s.08,0,.08.08,0,.05,0,.08,0,.18,0,.4Z"/><path class="cls-2" d="M106,60.91c.19,0,.19-.22.19-.22,0-.17.06-.85.06-1s0-.08.06-.08l.42.1a.08.08,0,0,1,0,.08.09.09,0,0,1-.05.08s-.06,0-.07.07a.69.69,0,0,0,0,.18c0,.21,0,.42-.06.63v0a.13.13,0,0,0,.12.13h1.55a.31.31,0,0,1,.24.24c0,.06,0,.42,0,.51a14.69,14.69,0,0,1-.21,1.53,1.8,1.8,0,0,1-.42,1,1.55,1.55,0,0,1-.87.21c-.08,0-.11,0-.17-.1a.39.39,0,0,1-.09-.2c0-.06,0-.08.1-.08h.31c.54,0,.69-.25.83-1.07.05-.3.17-1.23.17-1.51s-.06-.14-.42-.14h-1c-.11,0-.16.08-.18.18a5.21,5.21,0,0,1-1,2.28c-.12.15-.74.88-.9.88s-.24-.15-.24-.22a.11.11,0,0,1,.06-.09,4.61,4.61,0,0,0,1.51-2.2,4.15,4.15,0,0,0,.17-.71.12.12,0,0,0-.12-.12h-1.14l-.6,0c-.1,0-.13-.06-.13-.2s0-.18.13-.18H106Z"/><path class="cls-2" d="M18.16,73.12s.13.08.13.13-.05.07-.08.08-.08,0-.12.11A9.39,9.39,0,0,1,17,75.11c-.12.14-.34.38-.47.51a.2.2,0,0,1-.13.06c-.08,0-.28-.1-.28-.2s0-.05,0-.08a6.81,6.81,0,0,0,1.66-2.27c0-.06,0-.15.1-.15A1.62,1.62,0,0,1,18.16,73.12Zm1.89.06a7.58,7.58,0,0,1,.67.89,8.43,8.43,0,0,1,.71,1.23c0,.11-.19.22-.29.22s-.1-.07-.14-.15a7.88,7.88,0,0,0-1.27-2,.2.2,0,0,1-.06-.12c0-.08.16-.2.23-.2S20,73.13,20.06,73.18Zm.81-.42c0,.05.28.29.28.34a.31.31,0,0,1-.23.21s-.06,0-.08-.06a5.32,5.32,0,0,0-.45-.49s-.05-.05-.05-.08.15-.2.21-.2S20.82,72.71,20.87,72.76Zm.59-.4c.05.05.29.29.29.34a.32.32,0,0,1-.23.21s-.06,0-.09-.06a5.27,5.27,0,0,0-.44-.49.14.14,0,0,1-.05-.08c0-.06.14-.19.21-.19S21.4,72.31,21.45,72.36Z"/><path class="cls-2" d="M26.33,74h.75c.15,0,.16,0,.16.21s0,.19-.13.19H22.62c-.13,0-.14-.07-.14-.19s0-.21.16-.21h3.69Z"/><path class="cls-2" d="M29.5,72.08c.15.07.23.1.23.16s0,.06-.09.09-.16.19-.23.38a5.25,5.25,0,0,0-.3,1.81,3.33,3.33,0,0,0,.19,1.21s0,.07.08.07.09-.08.22-.37.1-.22.15-.22.12,0,.12.08a3.88,3.88,0,0,1-.11.38,2.92,2.92,0,0,0-.12.57.85.85,0,0,0,0,.17v.06c0,.08-.26.19-.29.19s-.2-.24-.24-.32a4.43,4.43,0,0,1-.37-1.88,7,7,0,0,1,.35-2.09c0-.1.06-.19.08-.29s0-.1.08-.1A2,2,0,0,1,29.5,72.08Zm1,3.3a1.22,1.22,0,0,0,1.07.48A5,5,0,0,0,33,75.64l.11,0c.08,0,.07.08.07.15s0,.26-.06.29a6.84,6.84,0,0,1-1.45.18,1.8,1.8,0,0,1-1.35-.48s-.1-.1-.1-.15.12-.3.21-.3A.11.11,0,0,1,30.54,75.38Zm.28-2.87a3.21,3.21,0,0,0,.85.11,4.26,4.26,0,0,0,1-.13l.11,0c.08,0,.08.13.08.21s0,.17,0,.19a5.86,5.86,0,0,1-1.1.12,4.27,4.27,0,0,1-1-.13c-.07,0-.07-.1-.07-.17s0-.21.09-.21Z"/><path class="cls-2" d="M35.49,72.1s.1,0,.1.1,0,.06-.09.09a.24.24,0,0,0-.13.13,3.33,3.33,0,0,0-.18.58A7.49,7.49,0,0,0,35,74.61c0,.16,0,1.18.21,1.18a.07.07,0,0,0,.06,0c0-.05.15-.39.19-.46s.08-.22.15-.22.12,0,.12.09a.42.42,0,0,1,0,.08,3.25,3.25,0,0,0-.26,1.19v.06a.13.13,0,0,1-.1.15.61.61,0,0,1-.17.06c-.08,0-.13-.12-.16-.17a4.58,4.58,0,0,1-.37-1.89,7.32,7.32,0,0,1,.3-2c0-.17.1-.35.15-.52s0-.1.08-.1A2.3,2.3,0,0,1,35.49,72.1ZM38.13,72a.06.06,0,0,1,0,.06.16.16,0,0,1-.06.1c-.06.08-.06.19-.06.47s0,.46.13.46a4.25,4.25,0,0,0,.73-.19l.1,0c.07,0,.1.11.12.2a.35.35,0,0,1,0,.1c0,.07,0,.09-.15.12s-.52.1-.71.12-.22,0-.22.19.05,1.29.06,1.57a.19.19,0,0,0,.13.21c.17.07,1,.47,1,.65s-.13.28-.22.28-.12-.08-.15-.11-.51-.46-.64-.46-.06.06-.06.11c0,.5-.4.67-.85.67s-1-.19-1-.71.47-.68.91-.68a3.54,3.54,0,0,1,.46,0c.08,0,.1-.06.1-.12,0-.3,0-1-.05-1.27,0-.11,0-.29-.13-.29h-.06c-.18,0-.45,0-.63,0s-.66,0-.72,0-.1-.13-.1-.25,0-.13.08-.13h.12c.26,0,.58,0,.84,0,.42,0,.56,0,.56-.15s-.06-.83-.1-1c0,0,0,0,0-.05a.07.07,0,0,1,.08-.07A4,4,0,0,1,38.13,72Zm-1.46,3.82c0,.28.39.38.61.38s.53-.14.53-.5a.16.16,0,0,0-.08-.15,1.32,1.32,0,0,0-.45-.08C37.07,75.42,36.67,75.5,36.67,75.77Z"/><path class="cls-2" d="M43.72,72.43c.1,0,.4,0,.49,0h.11c.08,0,.26.21.26.28a.2.2,0,0,1-.07.12,2,2,0,0,0-.17.24,10.76,10.76,0,0,1-.94,1.33.17.17,0,0,0-.06.13.2.2,0,0,0,.1.17,8.33,8.33,0,0,1,1.18.89c.08.08.49.44.49.52s-.15.26-.25.26-.08,0-.12-.08a7.62,7.62,0,0,0-.76-.75,9.56,9.56,0,0,0-.82-.61.21.21,0,0,0-.13-.05c-.08,0-.13.06-.24.17a7.87,7.87,0,0,1-1.66,1.16.68.68,0,0,1-.21.09.37.37,0,0,1-.26-.24c0-.07.09-.1.17-.14a7.21,7.21,0,0,0,3.06-2.77.74.74,0,0,0,.12-.24c0-.12-.15-.1-.28-.1H41.36c-.13,0-.14-.06-.14-.19s0-.19.13-.19h2.36Z"/><path class="cls-2" d="M47.15,73.8c0,.15,0,1.08,0,1.14S47,75,47,75s-.21-.08-.21-.2c0-.34,0-.69,0-1V73a6.22,6.22,0,0,0,0-.84.41.41,0,0,1,0-.1.06.06,0,0,1,.07-.06,2.4,2.4,0,0,1,.35.07s.08,0,.08.08,0,.05,0,.08-.05.37-.05.47Zm2.61,0c0,.25,0,.5,0,.76a2.48,2.48,0,0,1-.6,1.68,3.21,3.21,0,0,1-.93.65c-.06,0-.29-.15-.29-.22s.12-.11.17-.13A1.9,1.9,0,0,0,49.31,75a7.67,7.67,0,0,0,.07-1.16V72.38a2.21,2.21,0,0,0,0-.41s0-.06,0-.08,0-.06.08-.06l.29,0c.05,0,.14,0,.14.08s0,.06-.05.08-.05.28-.05.36Z"/><path class="cls-2" d="M52.51,74a2.37,2.37,0,0,1,.24.46c0,.11-.17.17-.23.17s-.08,0-.11-.09A7,7,0,0,0,52,73.8a.16.16,0,0,1,0-.11c0-.08.12-.16.2-.16S52.41,73.79,52.51,74Zm3-.46a.11.11,0,0,1-.06.1.1.1,0,0,0,0,.06,6.94,6.94,0,0,1-.38,1,3.37,3.37,0,0,1-1.34,1.51,3.61,3.61,0,0,1-1,.42c-.1,0-.21-.15-.21-.23s.07-.1.13-.11a3.21,3.21,0,0,0,1.32-.63,3.5,3.5,0,0,0,.88-1.16,3.8,3.8,0,0,0,.33-1.06c0-.05,0-.1.08-.1S55.52,73.4,55.52,73.5Zm-1.64.1a2.36,2.36,0,0,1,.25.46c0,.1-.18.17-.23.17s-.1-.06-.13-.12a6.71,6.71,0,0,0-.4-.67.24.24,0,0,1,0-.1c0-.08.13-.17.2-.17S53.75,73.39,53.88,73.6Z"/><path class="cls-2" d="M58.53,75.71c0,.32,0,.64,0,1s0,.28-.21.28-.21-.08-.21-.28,0-.64,0-1V72.63a6.88,6.88,0,0,0,0-.81.88.88,0,0,1,0-.12s0-.07.06-.07.46.06.46.15,0,.06,0,.08a3,3,0,0,0,0,.77ZM59.7,74c.1.07.51.39.51.49a.27.27,0,0,1-.21.23.19.19,0,0,1-.13-.06,7.76,7.76,0,0,0-1-.82c-.05,0-.12-.06-.12-.13s.11-.23.19-.23A4.1,4.1,0,0,1,59.7,74Z"/><path class="cls-2" d="M63.82,71.9c.06,0,.17,0,.17.1s0,.07-.06.1-.09.16-.12.31-.06.35-.09.52a.3.3,0,0,0,0,.07.1.1,0,0,0,.1.1h0s.26,0,.44,0c.6,0,.81.37.81.94a4.6,4.6,0,0,1-.36,1.93,1.18,1.18,0,0,1-1.09.66c-.25,0-.31-.28-.31-.36s0-.06,0-.06a2.6,2.6,0,0,0,.33,0,.76.76,0,0,0,.72-.52,3.9,3.9,0,0,0,.3-1.51c0-.42,0-.79-.55-.79s-.6.12-.62.23A7.28,7.28,0,0,1,62.51,76a6.64,6.64,0,0,1-.42.56.14.14,0,0,1-.1.05c-.07,0-.25-.13-.25-.21a.22.22,0,0,1,.08-.13,5.88,5.88,0,0,0,1.26-2.12,4.79,4.79,0,0,0,.15-.53.07.07,0,0,0-.07-.06l-.12,0a7.89,7.89,0,0,0-.9.27l-.07,0c-.08,0-.21-.28-.21-.36s.08,0,.43-.12.58-.13.88-.19.18-.1.21-.28a5.78,5.78,0,0,0,.07-.8.83.83,0,0,0,0-.22v0a.06.06,0,0,1,.06-.06A2.46,2.46,0,0,1,63.82,71.9Zm2.69,2.18c0,.07-.19.2-.28.2s-.1-.06-.13-.12a4.08,4.08,0,0,0-.82-1.3.14.14,0,0,1-.05-.1c0-.1.21-.18.26-.18S66.51,73.91,66.51,74.07Zm-.66-2.21c.06,0,.27.22.32.28s.28.28.28.34a.31.31,0,0,1-.23.21s-.06,0-.08-.06a6.55,6.55,0,0,0-.45-.49.13.13,0,0,1-.05-.08A.31.31,0,0,1,65.85,71.86Zm.9-.13c.05.05.28.28.28.34a.31.31,0,0,1-.23.21s-.06,0-.08-.06-.29-.33-.44-.49-.06,0-.06-.08.15-.2.21-.2S66.7,71.68,66.75,71.73Z"/><path class="cls-2" d="M69.9,72.37c0-.06,0-.13,0-.17v-.09c0-.17,0-.17-.19-.17h-1c-.12,0-.14,0-.14-.17s0-.17.13-.17l.39,0h.87c.33,0,.28.3.28.59a5.2,5.2,0,0,0,2.44,4.39c.08.05.14.08.14.15s-.08.26-.2.26a.22.22,0,0,1-.12,0,5.71,5.71,0,0,1-1.11-1,5.84,5.84,0,0,1-1.32-2.49s0,0,0,0,0,0,0,0a6,6,0,0,1-1.84,2.88,3.51,3.51,0,0,1-.77.53c-.08,0-.19-.14-.19-.22s.06-.08.1-.11a6.16,6.16,0,0,0,2.12-2.45,5.29,5.29,0,0,0,.47-1.59A.86.86,0,0,0,69.9,72.37Z"/><path class="cls-2" d="M73.42,74.07a5.76,5.76,0,0,0,.6-.2,5.47,5.47,0,0,1,1.84-.46,1.18,1.18,0,0,1,.88.34,1.24,1.24,0,0,1,.32.82,1.48,1.48,0,0,1-.29.83,2.27,2.27,0,0,1-.93.67,3.79,3.79,0,0,1-1,.28c-.14,0-.21-.21-.21-.26s.09-.1.15-.1a3,3,0,0,0,.89-.22,1.41,1.41,0,0,0,1-1.19.85.85,0,0,0-.41-.73.9.9,0,0,0-.47-.1,5.46,5.46,0,0,0-2,.62.78.78,0,0,1-.26.1c-.1,0-.24-.19-.24-.28S73.36,74.08,73.42,74.07Z"/><path class="cls-2" d="M78.6,72.62c.72,0,3.62-.33,4.28-.46H83c.1,0,.1.2.1.3s-.06.13-.22.13a4.47,4.47,0,0,0-1.12.12,2,2,0,0,0-1.19,1,2.79,2.79,0,0,0-.4,1.37,1,1,0,0,0,.56,1,1.89,1.89,0,0,0,.82.13h.18c.05,0,.12,0,.12.07a.82.82,0,0,1-.08.28c0,.06-.05.06-.12.06a3.08,3.08,0,0,1-.87-.13,1.31,1.31,0,0,1-1-1.36,3.08,3.08,0,0,1,1-2.25s0,0,0-.05,0,0-.08,0l-.72.08a14.82,14.82,0,0,0-1.52.24h-.1c-.12,0-.15-.34-.15-.36S78.35,72.63,78.6,72.62Z"/><path class="cls-2" d="M84.88,72.71s.12,0,.12.09,0,.07-.07.1-.07.1-.08.18a3.48,3.48,0,0,0,0,.57A4.23,4.23,0,0,0,85,75.25c.1.24.39.71.69.71s.45-.33.54-.49.08-.16.14-.16.23.14.23.21-.28.42-.35.49a.77.77,0,0,1-.54.34c-.44,0-.78-.44-1-.8a4.57,4.57,0,0,1-.34-2c0-.13,0-.84,0-.94s0-.06.08-.06A1.68,1.68,0,0,1,84.88,72.71Zm2.87,0a2,2,0,0,1,.77.72A3.3,3.3,0,0,1,89,74.64a1.26,1.26,0,0,1,0,.15c0,.14-.14.15-.25.15s-.15-.07-.16-.15a2.55,2.55,0,0,0-.91-1.8c-.05,0-.1-.07-.1-.12A.23.23,0,0,1,87.75,72.67Z"/><path class="cls-2" d="M92.5,71.74c.08,0,.15,0,.15.1s0,.06-.05.11a1,1,0,0,0,0,.4v.15a.13.13,0,0,0,.13.14h.09a6.77,6.77,0,0,0,1.18-.24l.11,0c.11,0,.11.19.11.28s0,.1-.2.14c-.35.07-.83.15-1.19.18-.12,0-.22.05-.22.19,0,.67,0,.76.14.76a5.74,5.74,0,0,0,1-.18l.08,0c.07,0,.06.1.06.15,0,.27-.06.25-.23.28s-.53.08-.76.1-.23.06-.23.22,0,.65,0,.73.09.17.24.21S94,75.85,94,76a.35.35,0,0,1-.25.3c-.05,0-.13-.07-.17-.1a3.08,3.08,0,0,0-.71-.42l-.11,0c-.1,0-.1.1-.1.13a1,1,0,0,1-.1.39,1.14,1.14,0,0,1-1,.42c-.44,0-.94-.19-.94-.71s.72-.72,1.18-.72h.37c.09,0,.11-.06.11-.13s0-.67,0-.7-.05-.12-.14-.12h-.7a3.22,3.22,0,0,1-.57,0,.52.52,0,0,1-.08-.28.08.08,0,0,1,.08-.09c.06,0,.53,0,.76,0,.49,0,.64,0,.64-.14s0-.49,0-.64,0-.18-.14-.18-.9,0-1.35,0h-.33c-.12,0-.13-.16-.13-.26s0-.14.1-.14.58,0,1,0c.11,0,.68,0,.75,0a.15.15,0,0,0,.12-.15,5.81,5.81,0,0,0-.06-.7.48.48,0,0,1,0-.09s0-.06.07-.06A3.27,3.27,0,0,1,92.5,71.74ZM91,76c0,.3.34.37.58.37s.69-.1.73-.47a1.25,1.25,0,0,0,0-.15c0-.11-.07-.15-.4-.15S91,75.6,91,76Z"/><path class="cls-2" d="M98.15,71.57c.14,0,.38,0,.38.09s-.12.05-.12.36v.53a.16.16,0,0,0,.15.17l.29,0c.31,0,1.25-.06,1.51-.06.11,0,.12.06.12.19s-.06.2-.16.2h-.61c-.19,0-1,0-1.15,0s-.15.1-.15.21c0,.61,0,.62.08.75a2,2,0,0,1,.18.86,2.72,2.72,0,0,1-.87,2.07s-.33-.07-.33-.13.1-.12.12-.14a2.53,2.53,0,0,0,.6-1,0,0,0,0,0,0,0,.19.19,0,0,0-.1,0,.59.59,0,0,1-.27.07c-.5,0-.68-.54-.68-1s.22-1.11.82-1.11H98a.08.08,0,0,0,.08-.08c0-.35,0-.51-.17-.51l-.48,0c-.49,0-1,.06-1.48.13h-.08c-.08,0-.16,0-.16-.28s.06-.13.24-.13c.62,0,1.24-.07,1.86-.1.13,0,.24,0,.24-.19a6.16,6.16,0,0,0-.08-.91v0a.06.06,0,0,1,.06-.06Zm-.72,3.2c0,.28.08.64.43.64s.46-.33.46-.63-.1-.71-.44-.71S97.43,74.5,97.43,74.77Z"/><path class="cls-2" d="M103.57,76a.86.86,0,1,1-.86-.86A.86.86,0,0,1,103.57,76Zm-1.47,0a.61.61,0,1,0,.61-.61A.61.61,0,0,0,102.09,76Z"/></g></g></svg>