<svg xmlns="http://www.w3.org/2000/svg" viewBox="0 0 106.3 12.32"><defs><style>.cls-1{fill:#85cae4;}</style></defs><title>designer_interview</title><g id="Layer_2" data-name="Layer 2"><g id="レイヤー_1" data-name="レイヤー 1"><path class="cls-1" d="M0,0H2.85c4.78,0,5,3.93,5,4.6s-.19,4.6-5,4.6H0ZM.86,8.42H2.63C5.07,8.42,7,7.24,7,4.6S5.07.78,2.63.78H.86Z"/><path class="cls-1" d="M14.83,8.07a3,3,0,0,1-2.6,1.29,3,3,0,0,1-3-3.17,3,3,0,0,1,3-3.15A2.73,2.73,0,0,1,15,5.85V6.4H10a2.24,2.24,0,0,0,2.28,2.26,2.41,2.41,0,0,0,2-1.07Zm-.6-2.38a2,2,0,0,0-2.08-2,2.23,2.23,0,0,0-2.18,2Z"/><path class="cls-1" d="M16.77,7.67a2,2,0,0,0,1.74,1,1.26,1.26,0,0,0,1.38-1.11c0-1.65-3.56-.49-3.56-2.78A1.86,1.86,0,0,1,18.38,3,2.2,2.2,0,0,1,20.5,4.17l-.7.42a1.47,1.47,0,0,0-1.42-.84c-.56,0-1.27.34-1.27,1,0,1.63,3.56.36,3.56,2.79A1.93,1.93,0,0,1,18.5,9.36a2.64,2.64,0,0,1-2.42-1.22Z"/><path class="cls-1" d="M22.81.23a.59.59,0,1,1-.59.58A.58.58,0,0,1,22.81.23Zm-.39,3h.78v6h-.78Z"/><path class="cls-1" d="M31.45,8.81c0,3-2,3.51-3.2,3.51a3.79,3.79,0,0,1-3-1.26l.61-.57a2.83,2.83,0,0,0,2.37,1.13c2.38,0,2.42-2.08,2.42-2.76V8h0A2.59,2.59,0,0,1,28.37,9.2a3.16,3.16,0,0,1-3.21-3.08A3.16,3.16,0,0,1,28.37,3a2.59,2.59,0,0,1,2.27,1.17h0v-1h.78ZM28.31,3.74a2.38,2.38,0,1,0,2.38,2.38A2.38,2.38,0,0,0,28.31,3.74Z"/><path class="cls-1" d="M33.36,4.89c0-.44-.06-1.38-.06-1.69h.78c0,.44,0,.94.05,1.05h0A2.25,2.25,0,0,1,36.22,3c1.87,0,2.29,1.27,2.29,2.59V9.2h-.78V5.67c0-1-.27-1.92-1.51-1.92s-2.08.81-2.08,2.46v3h-.78Z"/><path class="cls-1" d="M45.89,8.07a3.12,3.12,0,0,1-5.64-1.89,3,3,0,0,1,3-3.15,2.73,2.73,0,0,1,2.82,2.81V6.4H41A2.24,2.24,0,0,0,43.3,8.66a2.41,2.41,0,0,0,2-1.07Zm-.6-2.38a2,2,0,0,0-2.08-2,2.23,2.23,0,0,0-2.18,2Z"/><path class="cls-1" d="M47.81,4.89c0-.44-.06-1.38-.06-1.69h.78c0,.44,0,.94.05,1.05A2.13,2.13,0,0,1,50.49,3a1.88,1.88,0,0,1,.46.06l-.09.77a1,1,0,0,0-.3-.05,1.88,1.88,0,0,0-2,2.11V9.2h-.78Z"/><path class="cls-1" d="M55.74,0h.86V9.2h-.86Z"/><path class="cls-1" d="M58.9,4.89c0-.44-.06-1.38-.06-1.69h.78c0,.44,0,.94.05,1.05h0A2.25,2.25,0,0,1,61.76,3c1.87,0,2.29,1.27,2.29,2.59V9.2h-.78V5.67c0-1-.27-1.92-1.51-1.92s-2.08.81-2.08,2.46v3H58.9Z"/><path class="cls-1" d="M69.07,3.9H67.35V7.81a.77.77,0,0,0,.83.84,2.31,2.31,0,0,0,.88-.21l.06.7a3.45,3.45,0,0,1-1,.21,1.4,1.4,0,0,1-1.55-1.55V3.9h-1.3V3.2h1.3V1.47h.78V3.2h1.72Z"/><path class="cls-1" d="M75.76,8.07a3.12,3.12,0,0,1-5.64-1.89,3,3,0,0,1,3-3.15,2.73,2.73,0,0,1,2.82,2.81V6.4h-5a2.24,2.24,0,0,0,2.28,2.26,2.41,2.41,0,0,0,2-1.07Zm-.6-2.38a2,2,0,0,0-2.08-2,2.23,2.23,0,0,0-2.18,2Z"/><path class="cls-1" d="M77.69,4.89c0-.44-.06-1.38-.06-1.69h.78c0,.44,0,.94.05,1.05A2.13,2.13,0,0,1,80.37,3a1.88,1.88,0,0,1,.46.06l-.09.77a1,1,0,0,0-.3-.05,1.88,1.88,0,0,0-2,2.11V9.2h-.78Z"/><path class="cls-1" d="M81.17,3.2h.88l2,5.16L86,3.2h.79l-2.37,6h-.81Z"/><path class="cls-1" d="M88.56.23A.59.59,0,1,1,88,.82.58.58,0,0,1,88.56.23Zm-.39,3h.78v6h-.78Z"/><path class="cls-1" d="M96.46,8.07a3.12,3.12,0,0,1-5.64-1.89,3,3,0,0,1,3-3.15,2.73,2.73,0,0,1,2.82,2.81V6.4h-5a2.24,2.24,0,0,0,2.27,2.26,2.41,2.41,0,0,0,2-1.07Zm-.6-2.38a2,2,0,0,0-2.08-2,2.23,2.23,0,0,0-2.18,2Z"/><path class="cls-1" d="M97.54,3.2h.86l1.46,5h0l1.68-5h.74l1.78,5h0l1.42-5h.78l-1.77,6h-.81l-1.79-4.91h0L100.23,9.2h-.81Z"/></g></g></svg>