<svg xmlns="http://www.w3.org/2000/svg" viewBox="0 0 249.04 109.78"><defs><style>.cls-1{fill:#5ebcdc;}.cls-2{fill:#fff;}</style></defs><title>design4</title><g id="Layer_2" data-name="Layer 2"><g id="レイヤー_1" data-name="レイヤー 1"><rect class="cls-1" width="249.04" height="109.78"/><path class="cls-2" d="M22,29.66l.83,0c.21,0,.45.32.45.38a6,6,0,0,0-.15.6A6,6,0,0,1,20.4,35a9.67,9.67,0,0,1-1.78.94.84.84,0,0,1-.31.09c-.19,0-.33-.27-.33-.38s.08-.14.17-.16A6.67,6.67,0,0,0,21.67,33a5.42,5.42,0,0,0,.82-2.4,1,1,0,0,0,0-.17c0-.25-.23-.22-.53-.22H18.16c-.4,0-.8,0-1.2,0-.21,0-.22-.13-.22-.3s0-.29.22-.29l1.2,0Z"/><path class="cls-2" d="M26.61,32.15l1.87,0a.28.28,0,0,0,.28-.28v-.32a8.1,8.1,0,0,0,0-1,.42.42,0,0,1,0-.11.12.12,0,0,1,.13-.13,1.68,1.68,0,0,1,.38.07c.09,0,.21,0,.21.17s0,.1-.09.14-.05.13-.05.28,0,.37,0,.55v.32a.28.28,0,0,0,.28.28h.5l.93,0c.19,0,.21.12.21.28s0,.26-.23.26H29.59a.28.28,0,0,0-.28.29l0,1.95v.31c0,.83-.18,1.2-1.32,1.2-.25,0-.28-.31-.28-.38s.14-.16.24-.16c.86,0,.85-.09.83-.91l0-1.72c0-.07,0-.12-.1-.12s-.12.07-.17.14A10.55,10.55,0,0,1,26,35.48a.58.58,0,0,1-.25.12c-.13,0-.3-.21-.3-.32s.09-.15.16-.19a8.76,8.76,0,0,0,2.49-2.22.21.21,0,0,0,.07-.13.11.11,0,0,0-.12-.1l-1.46,0-.93,0c-.19,0-.21-.12-.21-.28s.05-.26.26-.26Z"/><path class="cls-2" d="M39.47,32.09l1.17,0c.23,0,.25.07.25.32s0,.3-.21.3l-1.21,0H34.9l-1.2,0c-.21,0-.22-.11-.22-.3s0-.32.25-.32l1.17,0Z"/><path class="cls-2" d="M45.8,33.79c0,1.29-.13,1.44,1.33,1.44a23.72,23.72,0,0,0,2.39-.15h.09c.12,0,.12.1.12.19,0,.32-.06.42-.23.44-.41,0-1.71.06-2.18.06a4,4,0,0,1-1.78-.22c-.31-.22-.32-.55-.32-1s0-.52,0-.78V32.29a.2.2,0,0,0-.2-.2H45l-.86.17-1.29.26c-.17,0-.2-.31-.2-.41s.2-.15,1.39-.38l1-.19a.29.29,0,0,0,.23-.28V30.12c0-.3,0-1,0-1.25a.58.58,0,0,1,0-.13c0-.07,0-.09.1-.09s.7,0,.7.2,0,.09-.07.14a.43.43,0,0,0-.09.27c0,.22,0,.63,0,.86v1a.2.2,0,0,0,.25.2l2.59-.5,1.07-.22c.13,0,.46.26.46.39a.36.36,0,0,1-.11.22l-.92,1.08c-.28.33-.56.67-.85,1-.08.09-.16.21-.3.21s-.44-.15-.44-.3a.21.21,0,0,1,.08-.14,12.74,12.74,0,0,0,1.51-1.61.1.1,0,0,0,0-.08.07.07,0,0,0-.07-.07,4.38,4.38,0,0,0-.46.08l-2.57.5a.3.3,0,0,0-.27.33Z"/><path class="cls-2" d="M53.28,32.1a3.6,3.6,0,0,1,.38.72c0,.17-.27.26-.36.26s-.13-.07-.17-.14a10.68,10.68,0,0,0-.64-1.08.26.26,0,0,1-.07-.17c0-.12.19-.25.31-.25S53.12,31.84,53.28,32.1ZM58,31.39a.18.18,0,0,1-.1.15.15.15,0,0,0-.07.1,11.18,11.18,0,0,1-.59,1.57,5.26,5.26,0,0,1-2.08,2.35,5.61,5.61,0,0,1-1.63.66c-.15,0-.32-.23-.32-.36s.11-.15.2-.17a5,5,0,0,0,2-1,5.43,5.43,0,0,0,1.37-1.81,6,6,0,0,0,.51-1.65c0-.08,0-.15.12-.15S58,31.23,58,31.39Zm-2.55.15a3.68,3.68,0,0,1,.39.72c0,.16-.28.26-.36.26s-.15-.1-.2-.18a9.64,9.64,0,0,0-.62-1,.38.38,0,0,1-.07-.16c0-.13.2-.26.31-.26S55.21,31.21,55.41,31.54Z"/><path class="cls-2" d="M62.26,34.83c0,.5,0,1,0,1.49,0,.3,0,.43-.33.43s-.33-.13-.33-.43c0-.5,0-1,0-1.49V30a10.24,10.24,0,0,0,0-1.26,1.25,1.25,0,0,1,0-.19c0-.07,0-.11.1-.11s.71.1.71.23,0,.09-.07.13a4.54,4.54,0,0,0-.07,1.2Zm1.83-2.64c.15.11.79.61.79.76a.43.43,0,0,1-.33.36.3.3,0,0,1-.2-.1,12,12,0,0,0-1.58-1.27c-.08-.05-.18-.1-.18-.21s.17-.36.3-.36A6.42,6.42,0,0,1,64.09,32.19Z"/><path class="cls-2" d="M73.93,30.25a3.2,3.2,0,0,1,1,2.35A3.42,3.42,0,0,1,73,35.71a3.33,3.33,0,0,1-1,.35c-.15,0-.42-.3-.42-.42s.08-.1.14-.11a2.94,2.94,0,0,0,2.56-2.9,2.75,2.75,0,0,0-2.08-2.74,2.13,2.13,0,0,0-.44-.07c-.28,0-.28.25-.29.42a8.39,8.39,0,0,1-1.41,4.63,1.6,1.6,0,0,1-1.16.69,1.44,1.44,0,0,1-1.19-.85,2.94,2.94,0,0,1-.28-1.34,4,4,0,0,1,4-4.08A3.36,3.36,0,0,1,73.93,30.25ZM70.4,30A3.46,3.46,0,0,0,68,33.34c0,.54.19,1.65.89,1.65s1.21-1.1,1.41-1.62a10.54,10.54,0,0,0,.63-3.15s0-.08,0-.11a.19.19,0,0,0-.19-.21A1.51,1.51,0,0,0,70.4,30Z"/><path class="cls-2" d="M81,29.1h2.45l1.16,0c.18,0,.19.1.19.27s0,.27-.19.27l-1.16,0h-6l-1.16,0c-.19,0-.2-.1-.2-.27s0-.27.2-.27l1.16,0H80c.18,0,.26-.07.27-.26a3.22,3.22,0,0,0,0-.53.29.29,0,0,1,0-.09c0-.11.07-.13.16-.13l.28,0c.22,0,.41,0,.41.14s-.06.09-.14.14-.12.2-.13.44S80.84,29.1,81,29.1Zm2.73,4.43c0-.2-.08-.28-.28-.28h-6c-.2,0-.28.08-.28.28V35.8c0,.27,0,.55,0,.82s-.06.28-.28.28-.29,0-.29-.27,0-.55,0-.83V33.55c0-.16,0-.32,0-.47s.17-.34.49-.34H83.8c.26,0,.48,0,.48.32v2.51c0,.16,0,.33,0,.5,0,.87-.92.85-1.55.85-.25,0-.38,0-.38-.37,0-.11,0-.17.16-.17l.61,0c.49,0,.62,0,.62-.54Zm-1.07-1.91c0,.07,0,.14,0,.21,0,.29-.17.35-.42.35H78.74c-.25,0-.44,0-.44-.34,0-.08,0-.15,0-.22v-.87c0-.07,0-.15,0-.22,0-.28.18-.34.42-.34h3.53c.26,0,.44,0,.44.35,0,.07,0,.14,0,.21Zm-3.85-.22a.27.27,0,0,0,.28.27h2.77a.28.28,0,0,0,.28-.27V31a.27.27,0,0,0-.28-.27H79.11a.27.27,0,0,0-.28.27Zm3.24,4.16c0,.25-.15.34-.38.34h-2c-.23,0-.34,0-.35.29,0,.1-.19.1-.27.1s-.25,0-.25-.2V34.2c0-.25.14-.34.38-.34h2.47c.23,0,.38.09.38.34a1.66,1.66,0,0,0,0,.22Zm-2.7-.44a.27.27,0,0,0,.27.27h1.62a.27.27,0,0,0,.28-.27v-.48a.27.27,0,0,0-.28-.27H79.65a.27.27,0,0,0-.28.27Z"/><path class="cls-2" d="M88.89,28.68c.08.16.64,1.24.69,1.32a.27.27,0,0,0,.24.16,4.54,4.54,0,0,0,1.3-.62c.06,0,.19-.14.26-.14s.33.3.33.41-1.29.73-1.51.81-.16.06-.16.17a1.34,1.34,0,0,0,.17.36,13.76,13.76,0,0,0,1.61,2.45.34.34,0,0,1,.14.26.51.51,0,0,1-.4.41c-.12,0-.32-.16-.42-.23a4.87,4.87,0,0,0-2.44-.82,1.22,1.22,0,0,0-1.36,1.17c0,1.24,1.63,1.5,2.58,1.5l.52,0c.09,0,.14,0,.14.13,0,.53-.33.47-.39.47-1.29,0-3.4-.39-3.4-2a1.76,1.76,0,0,1,1.93-1.72,4.24,4.24,0,0,1,1.93.54.34.34,0,0,0,.14,0,.06.06,0,0,0,.06,0,.41.41,0,0,0-.09-.17c-.37-.54-.86-1.39-1.18-2a.28.28,0,0,0-.26-.18.51.51,0,0,0-.13,0,13.69,13.69,0,0,1-2.52.4c-.26,0-.34-.45-.34-.49s.06-.11.49-.11a10.34,10.34,0,0,0,2.08-.28c.09,0,.19-.06.19-.17a4.76,4.76,0,0,0-.44-.83,4.94,4.94,0,0,0-.41-.62.26.26,0,0,1-.09-.16c0-.12.47-.17.53-.17S88.84,28.59,88.89,28.68Z"/><path class="cls-2" d="M16.58,50.67s0,0,0,0,.1,0,.1.07,0,.06-.09.09-.08.16-.08.63V53c0,.26,0,.53,0,.79s0,.24-.19.24-.19-.11-.19-.26,0-.51,0-.77v-1.7s0-.08-.06-.08a.09.09,0,0,0-.06,0c-.09.1-.46.48-.57.48s-.19-.1-.19-.17.06-.12.13-.17A7.87,7.87,0,0,0,17,49.53s0-.07.08-.07.37.12.37.2-.05.06-.08.06-.1,0-.15.12c-.16.24-.38.55-.57.78A.07.07,0,0,0,16.58,50.67ZM17,48.55c-.06,0-.09,0-.15.09a6.61,6.61,0,0,1-1.07,1.18.21.21,0,0,1-.14.07c-.06,0-.19-.09-.19-.17s.06-.1.13-.16a6.14,6.14,0,0,0,1.07-1.21s0-.06.07-.06a2,2,0,0,1,.29.12s.08,0,.08.08S17,48.55,17,48.55Zm3.27,1.3H21c.12,0,.13.06.13.17s0,.17-.12.17l-.68,0h-.8c-.13,0-.18.06-.18.18v1c0,.13.05.18.18.18H20.7c.11,0,.13,0,.13.17s0,.17-.13.17H19.48c-.13,0-.18.05-.18.18v1.31c0,.12.05.17.17.19h.6l.92,0a.12.12,0,0,1,.14.13c0,.27-.17.23-.82.23H19.16a1.93,1.93,0,0,1-.78-.18,1.47,1.47,0,0,1-.67-.63.09.09,0,0,0-.07,0,.08.08,0,0,0-.08.06,4.47,4.47,0,0,1-.39.73c0,.06-.08.13-.15.13s-.2-.08-.2-.15a.63.63,0,0,1,.1-.19,3.55,3.55,0,0,0,.51-1.14,3.46,3.46,0,0,0,.11-.83c0-.1,0-.19.09-.19l.31,0s.08,0,.08.07,0,.06-.07.08-.07.08-.08.22a4.33,4.33,0,0,1-.08.51.68.68,0,0,0,0,.11.31.31,0,0,0,.05.17,1.5,1.5,0,0,0,.95.82h.05c.09,0,.11-.07.12-.14V50.34c0-.12-.05-.18-.18-.18h-.53l-.68,0c-.12,0-.12-.08-.12-.17s0-.17.12-.17h1.62a.26.26,0,0,0,.27-.13c.33-.47.57-.85.86-1.34,0,0,0-.07.08-.07s.34.19.34.26,0,.05-.11.06a.1.1,0,0,0-.09,0,9.91,9.91,0,0,1-.71,1,.1.1,0,0,0,0,.06c0,.06,0,.07.1.08Zm-1.73-.17c-.08,0-.12-.06-.15-.13a5.09,5.09,0,0,0-.66-1,.16.16,0,0,1-.06-.11c0-.08.12-.16.19-.16a.16.16,0,0,1,.12.06,6.3,6.3,0,0,1,.39.53,3,3,0,0,1,.35.64C18.74,49.62,18.61,49.67,18.54,49.67Z"/><path class="cls-2" d="M25.23,51.6s-.05,0-.05.06v1.16c0,.31,0,.61,0,.91s0,.28-.19.28-.19-.1-.19-.27,0-.61,0-.92V51.68s0-.07-.06-.07a.05.05,0,0,0-.05,0,9.56,9.56,0,0,1-1.76,1.68,3.35,3.35,0,0,1-.64.4c-.07,0-.17-.12-.17-.21s.16-.18.22-.22a9.2,9.2,0,0,0,2.1-1.82.13.13,0,0,0,0-.06c0-.05-.05-.07-.1-.07H22.31c-.12,0-.12-.06-.12-.17s0-.17.12-.17h2.33c.13,0,.18-.05.18-.18V49.7c0-.13-.05-.18-.18-.18H22.85c-.12,0-.12-.07-.12-.17s0-.17.12-.17l.71,0h1.08c.13,0,.18-.06.18-.18a2.87,2.87,0,0,0,0-.53.24.24,0,0,1,0-.06c0-.07,0-.09.1-.09l.19,0c.15,0,.28,0,.28.09s0,.06-.09.1-.1.14-.09.49c0,.12.06.17.18.17h1.1l.71,0c.12,0,.13.08.13.17s0,.17-.13.17H25.36c-.13,0-.18.05-.18.18v1.14c0,.13.05.18.18.18h0a.2.2,0,0,0,.21-.1,5.66,5.66,0,0,0,.74-1.17s0-.06.07-.06.34.19.34.25,0,.05-.06.06-.1,0-.13,0a6.68,6.68,0,0,1-.51.84.1.1,0,0,0,0,.06c0,.06,0,.08.1.08h1.55c.12,0,.13.05.13.17s0,.17-.12.17H25.6s-.1,0-.1.08a.09.09,0,0,0,0,.06,8.23,8.23,0,0,0,2.13,1.79c.06,0,.21.12.21.19s-.1.21-.17.21a5.41,5.41,0,0,1-1-.62,7.7,7.7,0,0,1-1.43-1.42A0,0,0,0,0,25.23,51.6Zm-1.31-.75c-.09,0-.12-.06-.15-.13a8.77,8.77,0,0,0-.44-.78.19.19,0,0,1,0-.11c0-.09.12-.15.2-.15a.12.12,0,0,1,.11.06c.08.11.19.3.26.42a3.61,3.61,0,0,1,.27.55C24.12,50.81,24,50.85,23.92,50.85Z"/><path class="cls-2" d="M31,48.53c.06,0,.31.06.38.08s.15,0,.15.1a.11.11,0,0,1-.05.09c-.08.05-.1.06-.1.64,0,.11,0,.22,0,.33v0c0,.1,0,.17.14.17a4.62,4.62,0,0,0,1.16-.26l.11,0c.1,0,.18.22.18.28s-.17.13-.38.19a7.32,7.32,0,0,1-1,.18c-.15,0-.2.07-.2.22,0,.31,0,1,.05,1.29,0,.15.13.17.22.19a6,6,0,0,1,1.48.58c.05,0,.17.08.17.15s-.14.29-.22.29S33,53,32.91,53a5.08,5.08,0,0,0-1.13-.53,1,1,0,0,0-.19-.05c-.07,0-.1.06-.1.12s0,.14,0,.23a.78.78,0,0,1-.21.62,1.34,1.34,0,0,1-.91.29c-.49,0-1.16-.21-1.16-.8s.79-.91,1.36-.91h.33c.1,0,.13-.06.13-.15s0-.88,0-1.13a18.15,18.15,0,0,0-.09-2s0,0,0-.06S31,48.53,31,48.53Zm-1.4,4.28c0,.37.51.46.8.46s.73-.14.73-.62,0-.41-.48-.41S29.6,52.32,29.6,52.81Z"/><path class="cls-2" d="M36,49.21c0,.06-.08.1-.12.12s-.19.48-.21.61a4.81,4.81,0,0,0-.07.81c0,.08,0,.58.08.58s.08-.12.13-.22.24-.56.32-.56.12,0,.12.09a.22.22,0,0,1,0,.08,3.92,3.92,0,0,0-.41,1.21,1.51,1.51,0,0,0,0,.16.3.3,0,0,1,0,.08c0,.1-.18.15-.26.15s-.12-.08-.14-.15a5.32,5.32,0,0,1,0-2.88,1.31,1.31,0,0,0,0-.22s0-.13.07-.13S36,49.12,36,49.21Zm2.31-.33a8.18,8.18,0,0,1,.19,1.74,3.66,3.66,0,0,1-1,2.87c-.09.08-.35.31-.46.31s-.26-.15-.26-.26,0-.07.08-.09a2.46,2.46,0,0,0,.93-1,4.28,4.28,0,0,0,.32-1.8A5.21,5.21,0,0,0,37.88,49a.24.24,0,0,1,0-.06c0-.1.24-.14.31-.14S38.3,48.81,38.32,48.88Z"/><path class="cls-2" d="M42.21,51a.19.19,0,0,0,0-.06,1,1,0,0,1-.14-.26c0-.08.12-.13.19-.13s.12.08.37.53a2.44,2.44,0,0,1,.24.51c0,.08-.12.13-.19.13s-.1-.06-.21-.28-.07-.1-.15-.1h0l-.35,0c-.12,0-.15.07-.17.2v1.59c0,.21,0,.42,0,.63s0,.23-.18.23-.19-.09-.19-.23,0-.42,0-.63V51.58c0-.11-.05-.17-.17-.16l-.74.08s-.05,0-.08.08a.08.08,0,0,1-.06.05c-.08,0-.15-.36-.15-.38s.06-.05.17-.06l.42,0a.3.3,0,0,0,.26-.15l.18-.26a.25.25,0,0,0,0-.12.21.21,0,0,0-.06-.14c-.25-.24-.49-.48-.74-.71-.1-.1-.15-.13-.15-.2a.2.2,0,0,1,.18-.17c.06,0,.12.07.18.12a.1.1,0,0,0,.08,0,.11.11,0,0,0,.1-.06,8.5,8.5,0,0,0,.51-1.14s0-.07.07-.07.34.14.34.21,0,0-.09.05a.12.12,0,0,0-.09.06,7.43,7.43,0,0,1-.54,1.1.19.19,0,0,0,0,.1.18.18,0,0,0,.06.13l.27.29a.16.16,0,0,0,.1,0,.13.13,0,0,0,.11-.07,11.61,11.61,0,0,0,.58-1.06s0-.08.06-.08a.56.56,0,0,1,.18.08s.17.08.17.12,0,.05-.08.05a.15.15,0,0,0-.11.07c-.16.32-.75,1.28-1,1.59a.08.08,0,0,0,0,.05c0,.05,0,.07.08.07l.63-.06S42.21,51,42.21,51Zm-1.08,1.13s0,0-.06.06-.08,0-.1.13-.13.45-.26.84-.12.37-.24.37-.21,0-.21-.12a.48.48,0,0,1,0-.13A5.57,5.57,0,0,0,40.66,52c0-.05,0-.1.08-.1S41.13,52,41.13,52.09Zm1.57,1c-.08,0-.11-.06-.13-.13-.1-.28-.23-.57-.35-.84a.38.38,0,0,1,0-.11c0-.08.12-.14.2-.14s.12.09.3.51a4.1,4.1,0,0,1,.21.57C42.89,53.07,42.75,53.11,42.69,53.11ZM43,50.68a.18.18,0,0,1-.13.09c-.06,0-.21-.07-.21-.15a.19.19,0,0,1,0-.1,7.36,7.36,0,0,0,.92-2.12c0-.05,0-.1.08-.1s.38.09.38.16,0,.06-.08.08-.09.07-.12.16a5,5,0,0,1-.28.76.19.19,0,0,0,0,.06.1.1,0,0,0,.12.1h1.56c.2,0,.29.09.29.28a18,18,0,0,1-.3,3.41.71.71,0,0,1-.49.55,2.79,2.79,0,0,1-.7.09c-.14,0-.31,0-.31-.27,0-.08,0-.1.11-.1h.35c.4,0,.62-.06.73-.45a16.41,16.41,0,0,0,.26-3c0-.2,0-.18-.34-.18H43.54a.23.23,0,0,0-.25.14A6.31,6.31,0,0,1,43,50.68Zm1.13,1.61c-.1,0-.12-.06-.16-.14a8.62,8.62,0,0,0-.51-1,.22.22,0,0,1,0-.11c0-.1.12-.16.2-.16a.16.16,0,0,1,.13.1c.11.18.21.37.31.56a2.74,2.74,0,0,1,.26.58C44.28,52.23,44.17,52.29,44.09,52.29Z"/><path class="cls-2" d="M48.93,51.16s0,0,.1.08c.53.23,1,.55,1,1.15s-.41,1.17-1.66,1.17c-.92,0-1.54-.4-1.54-1.11a1.35,1.35,0,0,1,.91-1.21c.06,0,.1-.05.1-.08s0,0-.09-.08a1.11,1.11,0,0,1-.74-1c0-.56.51-1,1.45-1s1.39.41,1.39,1a1.18,1.18,0,0,1-.79,1C49,51.11,48.93,51.13,48.93,51.16Zm-.62.2a.44.44,0,0,0-.18,0c-.5.21-.93.53-.93,1s.49.78,1.16.78,1.26-.29,1.26-.81-.46-.73-1.14-1A.5.5,0,0,0,48.3,51.36Zm.11-1.9c-.63,0-1.05.25-1.05.64s.4.64.9.83a.53.53,0,0,0,.18,0,.4.4,0,0,0,.17,0c.33-.14.81-.4.81-.85S49,49.46,48.41,49.46Z"/><path class="cls-2" d="M53.17,53.26c0,.06,0,.09-.11.12a1.75,1.75,0,0,1-.72.15A1.33,1.33,0,0,1,51,52.09a1.53,1.53,0,0,1,1.58-1.66,1.62,1.62,0,0,1,.56.1c.08,0,.12.06.12.12a.3.3,0,0,1,0,.1l0,.07c0,.08-.05.12-.09.12l-.1,0a1,1,0,0,0-.44-.1,1.19,1.19,0,0,0-1.2,1.29,1,1,0,0,0,1,1.11,1.25,1.25,0,0,0,.55-.13.31.31,0,0,1,.11,0s.05,0,.08.12l0,0A.24.24,0,0,1,53.17,53.26Z"/><path class="cls-2" d="M54.63,52.53c0,.33,0,.78,0,.84s0,.13-.15.13h-.08c-.12,0-.15,0-.15-.13s0-.5,0-.84V51.42c0-.23,0-.76,0-.84s0-.13.15-.13h0c.13,0,.15,0,.16.15s0,.13.05.13a.21.21,0,0,0,.1,0,1.51,1.51,0,0,1,.87-.28.91.91,0,0,1,.71.29c.06.06.09.1.13.1a.25.25,0,0,0,.13-.07,1.68,1.68,0,0,1,1-.32.93.93,0,0,1,1,1v1.07c0,.32,0,.79,0,.84s0,.13-.15.13h-.08c-.12,0-.15,0-.15-.13s0-.52,0-.84v-.94c0-.51-.22-.81-.7-.81a1.3,1.3,0,0,0-.71.23c-.13.09-.17.16-.17.26s0,.05,0,.08,0,.21,0,.24v.94c0,.32,0,.79,0,.84s0,.13-.15.13h-.08c-.12,0-.15,0-.15-.13s0-.52,0-.84v-.94c0-.51-.22-.81-.7-.81a1.33,1.33,0,0,0-.74.25.28.28,0,0,0-.15.29Z"/><path class="cls-2" d="M65.15,49.35h.53c.13,0,.29.21.29.24s-.05.08-.1.39a3.83,3.83,0,0,1-1.73,2.82,6.31,6.31,0,0,1-1.14.6.56.56,0,0,1-.2.06c-.12,0-.21-.17-.21-.24s.05-.09.11-.1A4.3,4.3,0,0,0,65,51.49,3.47,3.47,0,0,0,65.49,50a.52.52,0,0,0,0-.11c0-.16-.15-.14-.34-.14H62.71l-.77,0c-.13,0-.14-.08-.14-.19s0-.19.14-.19h3.21Z"/><path class="cls-2" d="M68.52,51l1.2,0a.18.18,0,0,0,.18-.18v-.21a5.16,5.16,0,0,0,0-.63.22.22,0,0,1,0-.07.08.08,0,0,1,.08-.08,1.11,1.11,0,0,1,.24,0c.06,0,.13,0,.13.11s0,.06-.06.09,0,.08,0,.18,0,.24,0,.35v.21a.18.18,0,0,0,.18.18h.32l.6,0c.12,0,.13.08.13.18s0,.17-.15.17h-.89a.18.18,0,0,0-.18.19l0,1.25v.2c0,.53-.12.77-.85.77-.16,0-.18-.2-.18-.24s.09-.1.15-.1c.55,0,.55-.06.53-.58l0-1.11s0-.08-.06-.08-.08,0-.11.09a6.76,6.76,0,0,1-1.59,1.46.38.38,0,0,1-.16.08c-.08,0-.19-.14-.19-.21s.06-.1.1-.12a5.64,5.64,0,0,0,1.6-1.43.13.13,0,0,0,0-.08.07.07,0,0,0-.08-.06h-.94l-.6,0c-.12,0-.13-.08-.13-.18s0-.17.17-.17Z"/><path class="cls-2" d="M77.13,50.92h.75c.15,0,.16,0,.16.2s0,.19-.14.19H73.42c-.13,0-.14-.07-.14-.19s0-.2.16-.2h3.69Z"/><path class="cls-2" d="M81.53,52c0,.83-.08.92.86.92.49,0,1.05,0,1.54-.1H84c.08,0,.08.06.08.12s0,.27-.15.28c-.26,0-1.1,0-1.4,0a2.59,2.59,0,0,1-1.14-.14c-.2-.14-.21-.35-.21-.62s0-.33,0-.5V51a.13.13,0,0,0-.13-.13h0l-.55.11-.83.17c-.11,0-.13-.2-.13-.26s.13-.1.89-.24l.63-.12a.19.19,0,0,0,.15-.18v-.73c0-.19,0-.64,0-.8a.37.37,0,0,1,0-.08s0-.06.06-.06.45,0,.45.13,0,.06,0,.09a.28.28,0,0,0-.06.17c0,.14,0,.41,0,.55v.65a.13.13,0,0,0,.16.13l1.66-.32L84,50c.08,0,.3.17.3.25a.23.23,0,0,1-.07.14l-.59.69c-.18.21-.36.43-.55.64s-.1.13-.19.13-.28-.1-.28-.19a.13.13,0,0,1,.05-.09,8.18,8.18,0,0,0,1-1,.06.06,0,0,0,0-.05,0,0,0,0,0,0,0l-.3.05-1.65.32a.19.19,0,0,0-.17.21Z"/><path class="cls-2" d="M86.7,50.92a2.37,2.37,0,0,1,.24.46c0,.11-.17.17-.23.17s-.08,0-.11-.09a6.94,6.94,0,0,0-.41-.69.17.17,0,0,1,0-.11c0-.08.12-.16.2-.16S86.6,50.75,86.7,50.92Zm3-.46a.11.11,0,0,1-.06.1.1.1,0,0,0,0,.06,7.17,7.17,0,0,1-.38,1,3.38,3.38,0,0,1-1.34,1.51,3.64,3.64,0,0,1-1,.42c-.1,0-.21-.15-.21-.23s.07-.1.13-.11a3.21,3.21,0,0,0,1.32-.63A3.47,3.47,0,0,0,89,51.44a3.87,3.87,0,0,0,.33-1.06c0-.05,0-.1.08-.1S89.71,50.36,89.71,50.46Zm-1.64.1a2.36,2.36,0,0,1,.25.46c0,.1-.18.17-.23.17s-.1-.06-.13-.12a6,6,0,0,0-.4-.67.24.24,0,0,1,0-.1c0-.08.13-.17.2-.17S87.94,50.35,88.07,50.56Z"/><path class="cls-2" d="M92.89,52.67c0,.32,0,.64,0,1s0,.28-.21.28-.21-.08-.21-.28,0-.64,0-1V49.59a6.47,6.47,0,0,0,0-.81.87.87,0,0,1,0-.12s0-.07.06-.07.46.06.46.15,0,.06,0,.08a3,3,0,0,0,0,.77ZM94.06,51c.1.07.51.39.51.49a.27.27,0,0,1-.21.23.19.19,0,0,1-.13-.06,7.75,7.75,0,0,0-1-.82c-.05,0-.12-.06-.12-.13s.11-.23.19-.23A4.07,4.07,0,0,1,94.06,51Z"/><path class="cls-2" d="M100.75,49.73a2.06,2.06,0,0,1,.62,1.51,2.2,2.2,0,0,1-1.22,2,2.14,2.14,0,0,1-.62.22c-.1,0-.27-.19-.27-.27s.05-.06.09-.07A1.89,1.89,0,0,0,101,51.27a1.77,1.77,0,0,0-1.34-1.76,1.34,1.34,0,0,0-.28,0c-.18,0-.18.16-.19.27a5.39,5.39,0,0,1-.91,3,1,1,0,0,1-.74.44.93.93,0,0,1-.77-.55,1.89,1.89,0,0,1-.18-.86,2.56,2.56,0,0,1,2.58-2.62A2.17,2.17,0,0,1,100.75,49.73Zm-2.28-.17a2.23,2.23,0,0,0-1.53,2.15c0,.35.12,1.06.57,1.06s.78-.71.91-1a6.8,6.8,0,0,0,.4-2s0-.05,0-.07a.13.13,0,0,0-.12-.13A1,1,0,0,0,98.48,49.57Z"/><path class="cls-2" d="M102.79,51.38c-.07,0-.19-.1-.19-.18s.07-.12.1-.15a6.06,6.06,0,0,0,.87-1.36,6,6,0,0,0,.46-1.23s0-.1.08-.1a.77.77,0,0,1,.15,0c.16.06.24.08.24.14s-.06.08-.09.1-.1.08-.14.2a8.28,8.28,0,0,1-.44,1,.17.17,0,0,0,0,.05s0,.07.08.08.13,0,.13.07,0,.06-.09.1-.08.18-.08.64V53c0,.26,0,.53,0,.79s0,.24-.19.24-.19-.1-.19-.24,0-.53,0-.79V50.63s0-.05-.05-.05a.06.06,0,0,0,0,0C103.34,50.74,102.94,51.38,102.79,51.38ZM107,50.09s.42.08.42.17,0,.05-.06.06-.1,0-.11.08a26.32,26.32,0,0,1-.56,2.75v0c0,.08.06.12.14.12h1.28c.12,0,.13.06.13.19s0,.18-.13.18h-3.87c-.12,0-.13-.06-.13-.18s0-.19.13-.19h1.9c.12,0,.19,0,.22-.16a21.89,21.89,0,0,0,.56-3C107,50.14,107,50.09,107,50.09Zm-.67-.83c0,.13.05.18.18.18H108c.12,0,.13.06.13.18s0,.19-.13.19h-3.39c-.12,0-.13-.07-.13-.19s0-.18.13-.18h1.25c.13,0,.18-.05.18-.18V49.2a4.6,4.6,0,0,0,0-.73.23.23,0,0,1,0-.06c0-.07,0-.09.1-.09l.19,0c.15,0,.28,0,.28.09s0,.06-.1.1-.08.2-.08.68Zm-.82,3.54c-.16,0-.17-.13-.17-.2a11.31,11.31,0,0,0-.37-2.07.53.53,0,0,1,0-.1c0-.1.12-.15.2-.15s.17.14.33.91a11.72,11.72,0,0,1,.21,1.44C105.74,52.75,105.66,52.8,105.56,52.8Z"/><path class="cls-2" d="M18.65,62.23H20.9c.12,0,.13.05.13.17s0,.17-.12.17H18.6c-.1,0-.13,0-.13.13v.08c0,.1,0,.13.13.13h1.16c.22,0,.27.06.27.24s0,.15,0,.24v1.27c0,.08,0,.16,0,.24s-.06.24-.28.24h-2.6c-.19,0-.28,0-.28-.24V63.14c0-.18.05-.24.26-.24H18c.1,0,.13,0,.13-.13v-.08c0-.09,0-.13-.13-.13H15.58c-.12,0-.12-.07-.12-.17s0-.17.12-.17H18c.12,0,.17,0,.17-.17a.59.59,0,0,0,0-.15.13.13,0,0,0-.13-.13H16.26c-.3,0-.4,0-.4-.21s0-.09,0-.13v-.54s0-.09,0-.13c0-.2.17-.21.33-.21h4.07c.17,0,.36,0,.36.21,0,0,0,.09,0,.13v.54s0,.08,0,.13-.15.21-.32.21H18.47c.11,0,.17,0,.17.08s0,0-.08.08a.16.16,0,0,0-.08.14C18.47,62.2,18.56,62.23,18.65,62.23ZM16,66c-.17,0-.19-.09-.19-.24s0-.46,0-.69V64a3.72,3.72,0,0,0,0-.61.34.34,0,0,1,0-.08c0-.06,0-.08.1-.08h.19c.17,0,.25,0,.25.09s0,.06-.09.09-.08.15-.08.58v1.27c0,.12.07.16.19.16h3.7l.75,0c.12,0,.13.06.13.18s0,.17-.13.17H16.29c-.07,0-.1,0-.11.1S16.12,66,16,66Zm.35-5.15a.15.15,0,0,0-.15.15v.25a.14.14,0,0,0,.15.15h.84a.15.15,0,0,0,.15-.15V61a.15.15,0,0,0-.15-.15Zm3.35,2.43a.13.13,0,0,0-.14-.13H17.32a.13.13,0,0,0-.13.13v.07a.12.12,0,0,0,.13.13h2.25a.13.13,0,0,0,.14-.13Zm-2.39.48a.12.12,0,0,0-.13.13V64a.13.13,0,0,0,.13.14h2.25a.13.13,0,0,0,.14-.14v-.07a.13.13,0,0,0-.14-.13Zm0,.61a.12.12,0,0,0-.13.13v.13a.13.13,0,0,0,.13.13h2.25a.13.13,0,0,0,.14-.13v-.13a.13.13,0,0,0-.14-.13Zm.36-3.12a.14.14,0,0,0,.15.15h.82a.15.15,0,0,0,.15-.15V61a.15.15,0,0,0-.15-.15h-.82a.15.15,0,0,0-.15.15Zm1.45,0a.14.14,0,0,0,.15.15h.84a.15.15,0,0,0,.16-.15V61a.15.15,0,0,0-.16-.15h-.84a.15.15,0,0,0-.15.15Z"/><path class="cls-2" d="M24.58,60.8s-.05.06-.08.08-.15.13-.25.31a.81.81,0,0,0-.09.19.07.07,0,0,0,.07.06,6.82,6.82,0,0,0,1.08-.25h.06c.12,0,.13.27.13.28s-.17.12-.26.14c-.41.09-.82.15-1.24.21-.19,0-.17.06-.39.4a2.39,2.39,0,0,0-.24.42.06.06,0,0,0,.06.06.34.34,0,0,0,.13,0,2,2,0,0,1,.93-.28.68.68,0,0,1,.54.24.88.88,0,0,1,.13.46c0,.06,0,.15.09.15a7.27,7.27,0,0,0,.86-.41.56.56,0,0,1,.17-.06c.09,0,.16.21.16.29s-.1.1-.29.17-.54.22-.81.33c-.1,0-.15.08-.15.21s0,.54,0,.81,0,.2-.19.2-.17,0-.17-.14,0-.43,0-.64,0-.14-.1-.14a1.92,1.92,0,0,0-.41.21c-.28.16-.62.39-.62.75,0,.55.7.63,1.11.63A4.6,4.6,0,0,0,26,65.27l.1,0c.1,0,.1.12.1.19s0,.2-.08.22a9.21,9.21,0,0,1-1.22.09,2.41,2.41,0,0,1-.91-.13.88.88,0,0,1-.62-.82c0-.55.48-.83.9-1.07l.45-.24a.19.19,0,0,0,.13-.16c0-.31,0-.66-.43-.66a2.46,2.46,0,0,0-1.24.48,3.89,3.89,0,0,0-.69.83s-.06.1-.12.1-.26-.13-.26-.22,0-.06.05-.08A14.36,14.36,0,0,0,23.37,62a.2.2,0,0,0,0-.1c0-.05-.05-.05-.09-.05l-.76,0c-.06,0-.1,0-.1-.19s0-.18.11-.18H23c.68,0,.63,0,.73-.22a3.91,3.91,0,0,0,.3-.69c0-.07,0-.12.08-.12A1.15,1.15,0,0,1,24.58,60.8Z"/><path class="cls-2" d="M30.71,61H33c.12,0,.12.06.12.17s0,.17-.12.17H27.7c-.12,0-.13-.06-.13-.17s0-.17.13-.17H30c.12,0,.17,0,.17-.17a2,2,0,0,0,0-.34.2.2,0,0,1,0-.06c0-.07,0-.08.1-.08l.18,0c.14,0,.26,0,.26.09s0,.06-.09.09-.08.13-.08.28S30.6,61,30.71,61Zm1.75,2.85c0-.13-.05-.18-.18-.18H28.45c-.13,0-.18.05-.18.18v1.46c0,.17,0,.35,0,.53s0,.18-.18.18-.19,0-.19-.17,0-.35,0-.53V63.91c0-.1,0-.21,0-.3s.11-.22.31-.22H32.5c.17,0,.31,0,.31.21V65.2c0,.1,0,.21,0,.32,0,.56-.59.55-1,.55-.16,0-.24,0-.24-.24,0-.07,0-.11.1-.11h.39c.31,0,.4,0,.4-.35Zm-.69-1.23s0,.09,0,.13-.11.22-.27.22H29.25c-.16,0-.28,0-.28-.22s0-.1,0-.14v-.56s0-.1,0-.14.12-.22.27-.22H31.5c.17,0,.28,0,.28.22s0,.09,0,.13Zm-2.47-.14a.17.17,0,0,0,.18.17h1.78a.18.18,0,0,0,.18-.17v-.28a.18.18,0,0,0-.18-.17H29.49a.18.18,0,0,0-.18.17Zm2.08,2.67c0,.16-.1.22-.24.22H29.87c-.15,0-.22,0-.22.19s-.12.06-.17.06-.16,0-.16-.13V64.32c0-.16.09-.22.24-.22h1.59c.15,0,.24.06.24.22a1.12,1.12,0,0,0,0,.14Zm-1.73-.28a.17.17,0,0,0,.17.17h1a.18.18,0,0,0,.18-.17v-.31a.17.17,0,0,0-.18-.17h-1a.17.17,0,0,0-.18.17Z"/><path class="cls-2" d="M37.27,61.21c0,.06-.06.07-.1.07s-.17,0-.56.33-.71.59-1,.9-.46.38-.46.57.32.58.48.75A17.36,17.36,0,0,0,37,65.1c.13.12.26.2.26.28a.37.37,0,0,1-.3.28c-.06,0-.1-.05-.16-.12a9.54,9.54,0,0,0-.78-.82c-.33-.33-.66-.67-1-1a.9.9,0,0,1-.29-.61.65.65,0,0,1,.13-.4,7.82,7.82,0,0,1,.76-.69,11.66,11.66,0,0,0,1.18-1.07.12.12,0,0,1,.08-.05A1.08,1.08,0,0,1,37.27,61.21Z"/><path class="cls-2" d="M41.64,60.59c.14,0,.38,0,.38.09s-.12.05-.12.36v.53a.16.16,0,0,0,.15.17l.29,0c.31,0,1.25-.06,1.51-.06.11,0,.12.06.12.19s-.06.2-.16.2H43.2c-.19,0-1,0-1.15,0s-.15.1-.15.21c0,.61,0,.62.08.75a2,2,0,0,1,.18.86A2.72,2.72,0,0,1,41.28,66s-.33-.07-.33-.13.1-.12.12-.14a2.53,2.53,0,0,0,.6-1,0,0,0,0,0,0,0,.19.19,0,0,0-.1,0,.58.58,0,0,1-.27.07c-.5,0-.68-.54-.68-1s.22-1.11.81-1.11h.06a.08.08,0,0,0,.08-.08c0-.35,0-.51-.17-.51l-.48,0c-.49,0-1,.06-1.48.13h-.08c-.08,0-.16,0-.16-.28s.06-.13.24-.13c.62,0,1.24-.07,1.86-.1.13,0,.24,0,.24-.19a6.17,6.17,0,0,0-.08-.91v0a.06.06,0,0,1,.06-.06Zm-.73,3.2c0,.28.08.64.43.64s.45-.33.45-.63-.1-.71-.44-.71S40.91,63.52,40.91,63.79Z"/><path class="cls-2" d="M48.51,61.39s-.06.08-.1.1a8.59,8.59,0,0,0-1.16,1.13s-.11.11-.11.15a0,0,0,0,0,0,0l.13,0a2.42,2.42,0,0,1,.53-.06A1.38,1.38,0,0,1,49.4,64a1.74,1.74,0,0,1-1.9,1.61,1.44,1.44,0,0,1-.86-.24.65.65,0,0,1-.29-.52.66.66,0,0,1,.66-.64c.4,0,.89.31.89.74a.87.87,0,0,1-.07.27.06.06,0,0,0,.06.05A1.37,1.37,0,0,0,49,64c0-.71-.62-1-1.25-1a2,2,0,0,0-1.33.48,11,11,0,0,0-.82.87s-.06.08-.1.08-.25-.18-.25-.25.13-.17.25-.28c.83-.73,1.53-1.59,2.29-2.38a.15.15,0,0,0,.06-.11.06.06,0,0,0-.07-.06l-.16,0c-.47.1-.94.18-1.42.29l-.15,0c-.13,0-.13-.2-.13-.3s.05-.17.18-.17h.17A6,6,0,0,0,47.84,61a.68.68,0,0,1,.2,0A.63.63,0,0,1,48.51,61.39ZM47,64.53a.35.35,0,0,0-.36.35c0,.29.42.44.66.44s.19-.19.19-.31A.48.48,0,0,0,47,64.53Z"/><path class="cls-2" d="M51.76,64.07c.17.66.81.8,1.4.8a9.11,9.11,0,0,0,1.91-.21l.12,0c.1,0,.09.11.09.18s0,.21-.08.24a11.37,11.37,0,0,1-1.92.19,2,2,0,0,1-1.73-.66,1.22,1.22,0,0,1-.21-.53c0-.12.25-.15.27-.15S51.73,64,51.76,64.07Zm.44-2.65a3.82,3.82,0,0,0,1.15.15,5.05,5.05,0,0,0,1.16-.13h.06c.11,0,.12.15.12.24s0,.17-.15.19a10.38,10.38,0,0,1-1.18.07A4.78,4.78,0,0,1,52,61.77a.11.11,0,0,1-.08-.12c0-.07,0-.26.12-.26Z"/><path class="cls-2" d="M58.43,60.82c.15,0,.14.06.15.19a9.53,9.53,0,0,0,.28,1.41c0,.06,0,.15.14.15a2.1,2.1,0,0,0,.38-.19c.28-.15.85-.46,1.09-.63a.33.33,0,0,1,.17-.08c.09,0,.25.32.25.37s-.07.07-.12.08a15.18,15.18,0,0,0-1.94,1c-.46.27-1.24.72-1.24,1.33a.62.62,0,0,0,.32.48,2.07,2.07,0,0,0,1.13.25,12.41,12.41,0,0,0,1.7-.15h.06c.07,0,.06.1.06.2s0,.21-.08.23-1.52.1-1.78.1a2.29,2.29,0,0,1-1.23-.26,1,1,0,0,1-.52-.87c0-.69.7-1.14,1.21-1.48.07,0,.12-.08.12-.17a.26.26,0,0,0,0-.1,8.78,8.78,0,0,1-.32-1.13A2.82,2.82,0,0,0,58.1,61a.46.46,0,0,1,0-.07C58.08,60.82,58.36,60.82,58.43,60.82Z"/><path class="cls-2" d="M63,61.64c.71,0,3.62-.34,4.28-.46h.1c.1,0,.1.2.1.3s-.06.13-.22.13a4.47,4.47,0,0,0-1.12.12,2,2,0,0,0-1.19,1,2.77,2.77,0,0,0-.4,1.37,1,1,0,0,0,.56,1,1.93,1.93,0,0,0,.83.13h.16c.05,0,.13,0,.13.07a.86.86,0,0,1-.08.28c0,.06-.05.06-.12.06a3.07,3.07,0,0,1-.87-.13,1.31,1.31,0,0,1-1-1.36,3.09,3.09,0,0,1,1-2.25s0,0,0-.05,0,0-.08,0c-.29,0-1.91.24-2.24.32h-.1c-.12,0-.15-.34-.15-.36S62.71,61.65,63,61.64Zm4,.83a1.79,1.79,0,0,1,.27.35c0,.07-.15.2-.23.2s-.06,0-.09-.07a6.33,6.33,0,0,0-.42-.51s-.05-.05-.05-.08.15-.19.22-.19S66.89,62.41,66.94,62.47Zm.71-.32a1.83,1.83,0,0,1,.27.35c0,.07-.15.21-.24.21s-.06,0-.08-.07-.28-.35-.42-.51-.05-.05-.05-.08.15-.19.21-.19S67.6,62.09,67.65,62.15Z"/><path class="cls-2" d="M70.53,65.44c0,.07-.16.28-.26.28s-.09,0-.12-.08a3.38,3.38,0,0,0-1-.84s-.1-.06-.1-.12a.37.37,0,0,1,.24-.25A3.56,3.56,0,0,1,70.53,65.44Z"/><path class="cls-2" d="M74.69,60.59c.06,0,.31.06.38.08s.15,0,.15.1a.11.11,0,0,1-.05.09c-.08.05-.1.06-.1.64,0,.11,0,.22,0,.33v0c0,.1,0,.17.14.17a4.62,4.62,0,0,0,1.16-.26l.11,0c.1,0,.18.22.18.28s-.17.13-.38.19a7.32,7.32,0,0,1-1,.18c-.15,0-.2.07-.2.23,0,.31,0,1,.05,1.28,0,.15.13.17.22.19a6,6,0,0,1,1.48.58c.05,0,.17.08.17.15s-.14.29-.22.29-.14-.07-.19-.1a5.08,5.08,0,0,0-1.13-.53,1,1,0,0,0-.19-.05c-.07,0-.1.06-.1.12s0,.14,0,.23a.78.78,0,0,1-.21.62,1.34,1.34,0,0,1-.91.29c-.49,0-1.16-.21-1.16-.8s.79-.91,1.36-.91h.33c.1,0,.13-.06.13-.15s0-.88,0-1.13a18.16,18.16,0,0,0-.09-2s0,0,0-.06S74.65,60.59,74.69,60.59Zm-1.4,4.28c0,.37.51.46.8.46s.73-.14.73-.62,0-.41-.48-.41S73.29,64.38,73.29,64.86Z"/><path class="cls-2" d="M79.65,61.26c0,.06-.08.1-.12.12s-.19.48-.21.61a4.81,4.81,0,0,0-.07.81c0,.08,0,.58.08.58s.08-.12.13-.22.24-.56.32-.56.12,0,.12.09a.23.23,0,0,1,0,.08A3.92,3.92,0,0,0,79.47,64a1.53,1.53,0,0,0,0,.16.3.3,0,0,1,0,.08c0,.1-.18.15-.26.15s-.12-.08-.14-.15a5.32,5.32,0,0,1,0-2.88,1.31,1.31,0,0,0,0-.22s0-.13.07-.13S79.65,61.18,79.65,61.26ZM82,60.93a8.18,8.18,0,0,1,.19,1.74,3.66,3.66,0,0,1-1,2.87c-.09.08-.35.31-.46.31s-.26-.15-.26-.26,0-.07.08-.09a2.45,2.45,0,0,0,.93-1,4.28,4.28,0,0,0,.32-1.8A5.21,5.21,0,0,0,81.53,61a.24.24,0,0,1,0-.06c0-.1.24-.14.31-.14S81.95,60.87,82,60.93Z"/><path class="cls-2" d="M86.46,64.54s0-.09-.07-.09a.11.11,0,0,0-.06,0,7.61,7.61,0,0,1-2.15,1.28.85.85,0,0,1-.24.08c-.09,0-.15-.14-.15-.22s.11-.12.22-.16a7.46,7.46,0,0,0,2.1-1.17.06.06,0,0,0,0-.05s0-.06-.07-.06H84c-.12,0-.13-.06-.13-.17s0-.17.13-.17h2.32c.13,0,.17,0,.18-.17a2.56,2.56,0,0,0,0-.33.24.24,0,0,1,0-.06c0-.06,0-.08.1-.08h.18c.15,0,.26,0,.26.08s0,.05-.09.09-.08.11-.08.28.06.17.17.17h2.33c.12,0,.12.06.12.17s0,.17-.12.17H87.22s-.07,0-.07.06a.08.08,0,0,0,0,.05,8.21,8.21,0,0,0,2.17,1.24c.07,0,.15.06.15.13s-.07.22-.15.22a4.77,4.77,0,0,1-.91-.41,8.21,8.21,0,0,1-1.5-1l-.06,0c-.06,0-.07,0-.08.08v.7c0,.22,0,.43,0,.64s0,.23-.18.23-.19-.08-.19-.22,0-.43,0-.65Zm-1.25-2a10.58,10.58,0,0,1-.94.67c-.12.08-.12.09-.12.13s0,.12-.07.12-.27-.3-.27-.35.06-.07.1-.09a6.89,6.89,0,0,0,1.1-.75s.07-.07.11-.07.17.13.17.21S85.25,62.52,85.21,62.55Zm-.22-.8c-.06,0-.12-.06-.16-.1a9.12,9.12,0,0,0-.69-.61S84,61,84,60.91a.22.22,0,0,1,.17-.19c.08,0,.42.31.5.37s.47.39.47.48A.21.21,0,0,1,85,61.75ZM87.23,61h.25c.2,0,.26.08.26.27s0,.22,0,.33v1.14c0,.12,0,.23,0,.35s0,.18-.18.18-.13,0-.16-.06-.05-.09-.12-.1H86c-.06,0-.08,0-.11.09s-.11.06-.17.06-.17,0-.17-.14,0-.26,0-.39V61.59c0-.1,0-.21,0-.31s0-.29.24-.29H86a.25.25,0,0,0,.24-.15,4.49,4.49,0,0,0,.24-.46s0-.07.07-.07.36.14.36.22,0,0-.08.05a.14.14,0,0,0-.11.06s-.08.16-.12.22a.07.07,0,0,0,0,.05.08.08,0,0,0,.09.08Zm.16.49c0-.12-.06-.18-.17-.18H86.09c-.11,0-.16.07-.17.18v.23c0,.1.06.17.17.17h1.12a.17.17,0,0,0,.17-.17Zm-1.47,1.12c0,.1.06.18.17.18h1.12a.17.17,0,0,0,.17-.18v-.24a.17.17,0,0,0-.17-.17H86.09c-.11,0-.16.07-.17.17Zm3.29.77a.24.24,0,0,1-.14-.08,10.16,10.16,0,0,0-1-.77c-.05,0-.12-.08-.12-.14a.21.21,0,0,1,.17-.18,3.25,3.25,0,0,1,.64.45c.14.11.4.31.52.43a.18.18,0,0,1,.06.11A.21.21,0,0,1,89.21,63.39Zm.13-2.47h-.06s-.08,0-.12.08-.79.79-.95.79S88,61.7,88,61.62s.08-.12.15-.17a4.83,4.83,0,0,0,.78-.72s.06-.08.1-.08a1.23,1.23,0,0,1,.29.14s.06,0,.06.08A.05.05,0,0,1,89.34,60.92Z"/><path class="cls-2" d="M92.71,60.76s0,.08-.08.12a4.51,4.51,0,0,0-.23.75.12.12,0,0,0,0,.05.07.07,0,0,0,.07.06h.07l.49-.13.07,0c.08,0,.09.22.09.27s-.06.14-.75.26c-.13,0-.19,0-.24.17a12.73,12.73,0,0,1-.65,1.58c-.13.28-.29.6-.45.87a.11.11,0,0,1-.1.07c-.07,0-.28-.1-.28-.19a.54.54,0,0,1,.1-.2,11.2,11.2,0,0,0,.89-1.76,3.37,3.37,0,0,0,.12-.36.06.06,0,0,0-.07-.06s-.68.08-.83.08h-.08c-.13,0-.15-.19-.15-.3s.06-.08.13-.08a5.11,5.11,0,0,0,1.12-.1c.08-.05.09-.14.13-.3a3.18,3.18,0,0,0,.14-.89c0-.06,0-.1.07-.1S92.71,60.67,92.71,60.76Zm1,1.81s0,.19,0,.37,0,1.26.08,1.48.12.14.22.17,1,.42,1,.56-.12.24-.22.24a.27.27,0,0,1-.15-.08,2.57,2.57,0,0,0-.72-.39c-.06,0-.06.07-.06.11a.71.71,0,0,1-.79.8c-.42,0-1-.25-1-.75s.52-.66.95-.66a3.09,3.09,0,0,1,.36,0h0a.07.07,0,0,0,.07-.08c0-.17-.12-1.59-.13-1.75s0,0,0-.06.05-.08.1-.08S93.75,62.48,93.75,62.57Zm-1.36,2.49c0,.29.42.42.66.42s.46-.19.46-.49,0-.26-.47-.26C92.82,64.74,92.38,64.77,92.38,65.06Zm2.85-2.46c0,.1-.18.21-.26.21s-.06,0-.09-.06a3.14,3.14,0,0,0-.77-.78s-.08-.06-.08-.11a.36.36,0,0,1,.24-.22A3,3,0,0,1,95.24,62.6Z"/><path class="cls-2" d="M97.7,62.14s0,.06-.09.1-.08.18-.08.64V65.1c0,.26,0,.53,0,.79s0,.24-.19.24-.19-.1-.19-.24,0-.53,0-.79V62.68s0-.05-.05-.05a0,0,0,0,0,0,0c-.09.14-.5.78-.65.78s-.19-.1-.19-.18.07-.12.1-.15a6.07,6.07,0,0,0,.87-1.36,6,6,0,0,0,.46-1.23s0-.1.08-.1a.77.77,0,0,1,.15,0c.16.06.24.08.24.14s-.06.08-.09.1-.1.08-.14.2a8.27,8.27,0,0,1-.44,1,.17.17,0,0,0,0,.05s0,.06.08.08S97.7,62.08,97.7,62.14Zm1.83.13c0-.07-.06-.09-.12-.1h-1.3c-.12,0-.12-.08-.12-.17s0-.17.12-.17h1.45c.12,0,.17-.05.17-.18v-.41a4.81,4.81,0,0,0,0-.73v-.06c0-.06,0-.08.09-.08l.28,0s.15,0,.15.08,0,.06-.09.08-.08.19-.08.69v.41c0,.13.05.18.18.18h1.57c.12,0,.12.07.12.17s0,.17-.12.17h-1.47c-.06,0-.11,0-.11.1a.1.1,0,0,0,0,.06,7.69,7.69,0,0,0,1.72,2s.1.08.1.13a.22.22,0,0,1-.17.19c-.12,0-.57-.46-.66-.56a8.15,8.15,0,0,1-1.09-1.47,0,0,0,0,0,0,0,0,0,0,0,0,0,.05v1.75c0,.13.05.18.18.18h.64c.11,0,.11.1.11.18s0,.16-.11.16h-.64c-.13,0-.18.06-.18.18,0,.28,0,.56,0,.83s0,.21-.17.21-.18-.08-.18-.22,0-.55,0-.82c0-.12-.05-.18-.17-.18h-.74c-.11,0-.11-.09-.11-.18s0-.16.11-.16h.74c.12,0,.17-.05.17-.18V62.62s0,0,0,0,0,0,0,0a6.83,6.83,0,0,1-1.14,1.65c-.08.09-.42.46-.52.46s-.17-.12-.17-.19.08-.12.15-.19a6.6,6.6,0,0,0,1.54-2A.1.1,0,0,0,99.53,62.27Z"/><path class="cls-2" d="M104,62s-.05.05-.08.05a.11.11,0,0,0-.12.05c-.15.18-.6.61-.83.61a.22.22,0,0,1-.18-.19c0-.05,0-.06.12-.1a1.71,1.71,0,0,0,.69-.57s0-.06.08-.06S104,61.94,104,62Zm0-.57c.09,0,.13,0,.13-.13v-.09c0-.09,0-.13-.13-.13h-.75c-.11,0-.11-.08-.11-.16s0-.17.11-.17H104c.08,0,.13,0,.13-.12a1.36,1.36,0,0,0,0-.16.14.14,0,0,1,0-.06c0-.06,0-.07.09-.07l.26,0s.14,0,.14.07,0,.05-.08.08a.12.12,0,0,0-.06.12c0,.08,0,.12.12.12h.84c.12,0,.12.08.12.17s0,.15-.11.15h-.85c-.1,0-.13,0-.13.13v.09c0,.09,0,.13.13.13h1c.12,0,.12.08.12.16s0,.17-.12.17H105c-.09,0-.12,0-.12.13V62c0,.19,0,.17.12.17h.12c.22,0,.23-.05.26-.17s0-.1.12-.1.19,0,.19.14a.45.45,0,0,1-.57.44h-.27c-.23,0-.29-.12-.29-.33,0,0,0-.07,0-.11v-.08c0-.12-.05-.17-.18-.17H103c-.11,0-.12-.08-.12-.16s0-.17.12-.17h1Zm.76,1.3h.53c.11,0,.12.08.12.16s0,.16-.12.16h-.71a.14.14,0,0,0-.16.16v.1c0,.1,0,.14.15.14l.67-.1c.08,0,.1.1.1.17s-.05.15-.17.17c-.55.08-1.1.15-1.66.21-.19,0-.18,0-.22.1s0,.05-.06.05-.06,0-.1-.13-.07-.26-.07-.27.09-.07.19-.08.53,0,.71-.06.15-.06.15-.17v-.12c0-.12-.05-.18-.18-.18h-.6c-.11,0-.12-.08-.12-.17s0-.15.12-.15h.62c.1,0,.15,0,.15-.15s0-.17,0-.21.05-.08.1-.08h.17c.13,0,.24,0,.24.08s0,.06-.08.09a.14.14,0,0,0-.07.1v0c0,.09.07.12.15.12Zm1.2,1.82c-.13,0-.17,0-.24.15a1.79,1.79,0,0,1-.21.33,3.1,3.1,0,0,1-1.15.82,3.73,3.73,0,0,1-.87.26c-.11,0-.21-.14-.21-.23s.05-.08.1-.09a3,3,0,0,0,1.94-1.1.09.09,0,0,0,0-.06c0-.07-.06-.09-.12-.09h-1.9c-.12,0-.13-.06-.13-.17s0-.17.13-.17h2c.11,0,.17,0,.19-.14a.5.5,0,0,0,0-.14c0-.1,0-.16.09-.16s.4,0,.4.1-.06.08-.1.1a.1.1,0,0,0-.06.08.22.22,0,0,0,0,.06c0,.07.05.09.11.1h1.61c.29,0,.42,0,.42.22a4.17,4.17,0,0,1-.26,1.25c-.17.39-.52.41-1,.41s-.49,0-.49-.28c0-.09,0-.11.12-.11h.12l.35,0c.24,0,.49,0,.59-.26a4.23,4.23,0,0,0,.15-.78c0-.17-.05-.15-.43-.15Zm.75-3.77c0-.08,0-.15,0-.22s0-.12.08-.12.39,0,.39.11-.06.07-.09.09a.1.1,0,0,0-.06.1c0,.14,0,.29,0,.43s.05.17.17.17h.46c.2,0,.35,0,.35.26a1.26,1.26,0,0,1,0,.15c0,.24,0,.5,0,.74s0,1.09.21,1.09.2-.44.21-.56,0-.12.11-.12.21,0,.21.16-.12.85-.54.85a.36.36,0,0,1-.35-.26,3.16,3.16,0,0,1-.17-1.13c0-.23,0-.46,0-.69s-.05-.17-.17-.17h-.34a.17.17,0,0,0-.2.16,4.59,4.59,0,0,1-.12.52.24.24,0,0,0,0,.1.24.24,0,0,0,.09.17c.08.06.4.33.4.42a.2.2,0,0,1-.18.18c-.05,0-.11,0-.19-.12l-.17-.17a.14.14,0,0,0-.1,0,.13.13,0,0,0-.11.07c-.19.31-.65.77-.82.77a.26.26,0,0,1-.21-.22c0-.05,0-.07.11-.11a2,2,0,0,0,.68-.67.16.16,0,0,0,0-.09.17.17,0,0,0-.07-.13l-.2-.15c-.08-.06-.12-.1-.12-.15a.2.2,0,0,1,.18-.18c.07,0,.2.12.26.17a.1.1,0,0,0,.07,0,.09.09,0,0,0,.09-.08,2,2,0,0,0,.08-.32v0c0-.1-.06-.13-.15-.13H106c-.11,0-.11-.09-.11-.18s0-.17.11-.17h.53c.12,0,.17,0,.19-.17S106.71,60.91,106.71,60.78Z"/><path class="cls-2" d="M16.1,73.69c.71,0,3.62-.34,4.28-.46h.1c.1,0,.1.2.1.3s-.06.13-.22.13a4.47,4.47,0,0,0-1.12.12,2,2,0,0,0-1.19,1,2.77,2.77,0,0,0-.4,1.37,1,1,0,0,0,.56,1,1.93,1.93,0,0,0,.83.13h.16c.05,0,.13,0,.13.07a.86.86,0,0,1-.08.28c0,.06-.05.06-.12.06a3.07,3.07,0,0,1-.87-.13,1.31,1.31,0,0,1-1-1.36,3.09,3.09,0,0,1,1-2.25s0,0,0-.05,0,0-.08,0c-.29,0-1.91.24-2.24.32h-.1c-.12,0-.15-.34-.15-.36S15.85,73.71,16.1,73.69Zm4,.83a1.79,1.79,0,0,1,.27.35c0,.07-.15.21-.23.21S20.06,75,20,75a6.32,6.32,0,0,0-.42-.51s-.05-.05-.05-.08.15-.19.22-.19S20,74.46,20.09,74.52Zm.71-.32a1.83,1.83,0,0,1,.27.35c0,.07-.15.21-.24.21s-.06,0-.08-.07-.28-.35-.42-.51-.05-.05-.05-.08.15-.19.21-.19S20.74,74.15,20.79,74.2Z"/><path class="cls-2" d="M23.41,76.17s-.06,0-.1.05a11,11,0,0,0-1,.76.12.12,0,0,1-.08,0c-.08,0-.22-.21-.22-.33s.1-.1.37-.27.65-.44,1-.63c.1-.06.13-.1.13-.21v-.37c0-.19,0-.39,0-.57a.13.13,0,0,0-.13-.13l-.64.11-.18,0s-.12,0-.12-.26,0-.13.07-.13h0a4.78,4.78,0,0,0,.87-.1.16.16,0,0,0,.1-.16c0-.17,0-.5,0-.64a1.31,1.31,0,0,0,0-.23s0,0,0-.06,0-.08.06-.08a2.47,2.47,0,0,1,.35.06s.12,0,.12.08-.05.1-.08.13a.41.41,0,0,0-.07.24c0,.06,0,.41,0,.46a.08.08,0,0,0,.09.09,5.89,5.89,0,0,0,.58-.15l.09,0c.1,0,.1.19.1.26s0,.14-.65.24c-.28,0-.26.06-.26.81,0,.2,0,.29.06.29l.09,0a3.58,3.58,0,0,1,1.33-.33,1.19,1.19,0,0,1,1.31,1.11,1,1,0,0,1-.51.88,2.44,2.44,0,0,1-1.16.23c-.06,0-.32,0-.36,0a1,1,0,0,1-.09-.31.07.07,0,0,1,.07-.07,2.85,2.85,0,0,0,.56.08c.49,0,1.11-.17,1.11-.77s-.53-.76-1-.76a2.78,2.78,0,0,0-1.32.37.18.18,0,0,0-.1.17c0,.1,0,.38,0,.49s.06.78.06.83a.35.35,0,0,1-.37.35c-.12,0-.17-.13-.21-.23a1.38,1.38,0,0,0-.39-.55.11.11,0,0,1,0-.07.08.08,0,0,1,.08-.08,2.41,2.41,0,0,1,.38.24s.09.07.12.07,0,0,0,0,0-.4,0-.46C23.48,76.26,23.5,76.17,23.41,76.17ZM26,73.92l.26.22.57.47s.1.07.1.12-.15.25-.24.25a.22.22,0,0,1-.13-.08c-.25-.24-.52-.47-.79-.69,0,0-.1-.07-.1-.13a.31.31,0,0,1,.22-.22S25.92,73.9,26,73.92Z"/><path class="cls-2" d="M29.31,74h.33a.71.71,0,0,1,.27,0,.33.33,0,0,1,.14.26,3,3,0,0,1-.21.62,6.54,6.54,0,0,1-.91,1.51c-.17.21-.8.87-1.05.87a.2.2,0,0,1-.19-.18c0-.1.15-.18.22-.23a4.9,4.9,0,0,0,1.7-2.42c0-.15-.21-.12-.31-.12H28.06c-.12,0-.13-.07-.13-.18s0-.19.13-.19h1.25Zm2.08.77a.15.15,0,0,0,.1,0,8.61,8.61,0,0,0,1.24-1.07s0-.05.08-.05a.82.82,0,0,1,.31.32s0,.06-.06.06H33l-.07,0c-.24.21-.29.3-.71.64l-.51.39a.17.17,0,0,0-.08.13.22.22,0,0,0,0,.1A6.25,6.25,0,0,0,33.25,77c.05,0,.16.1.16.16s-.1.21-.19.21-.83-.6-1-.75a7,7,0,0,1-1.44-2.22,0,0,0,0,0,0,0,0,0,0,0,0,0,0v2.65c0,.15,0,.31,0,.46a.49.49,0,0,1-.28.51,2,2,0,0,1-.75.11c-.17,0-.28,0-.28-.26,0-.08,0-.12.11-.12h.33c.53,0,.52-.19.52-.66V73.37a7.46,7.46,0,0,0,0-.78s0,0,0-.06,0-.08.1-.08l.29,0c.05,0,.15,0,.15.08s0,.06-.09.09-.09.17-.08.67a.71.71,0,0,0,0,.28,7.34,7.34,0,0,0,.49,1.13A.15.15,0,0,0,31.39,74.8Z"/><path class="cls-2" d="M36.78,72.86s-.05.06-.08.08-.15.13-.25.31a.81.81,0,0,0-.09.19.07.07,0,0,0,.07.06,6.82,6.82,0,0,0,1.08-.25h.06c.12,0,.13.27.13.28s-.17.12-.26.14c-.41.09-.82.15-1.24.21-.19,0-.17.06-.39.4a2.39,2.39,0,0,0-.24.42.06.06,0,0,0,.06.06.34.34,0,0,0,.13,0,2,2,0,0,1,.93-.28.68.68,0,0,1,.54.24.88.88,0,0,1,.13.46c0,.06,0,.15.09.15a7.27,7.27,0,0,0,.86-.41.56.56,0,0,1,.17-.06c.09,0,.16.21.16.29s-.1.1-.29.17-.54.22-.81.33c-.1,0-.15.08-.15.21s0,.54,0,.81,0,.2-.19.2-.17,0-.17-.14,0-.43,0-.64,0-.14-.1-.14a1.92,1.92,0,0,0-.41.21c-.28.16-.62.39-.62.75,0,.55.7.63,1.11.63a4.6,4.6,0,0,0,1.18-.14l.1,0c.1,0,.1.12.1.19s0,.2-.08.22a9.21,9.21,0,0,1-1.22.09,2.41,2.41,0,0,1-.91-.13.88.88,0,0,1-.62-.82c0-.55.48-.83.9-1.07l.45-.24a.19.19,0,0,0,.13-.16c0-.31,0-.66-.43-.66a2.46,2.46,0,0,0-1.24.48,3.89,3.89,0,0,0-.69.83s-.06.1-.12.1-.26-.13-.26-.22,0-.06.05-.08a14.43,14.43,0,0,0,1.21-1.73.2.2,0,0,0,0-.1c0-.05-.05-.05-.09-.05l-.76,0c-.06,0-.1,0-.1-.19s0-.18.11-.18h.48c.68,0,.63,0,.73-.22a3.91,3.91,0,0,0,.3-.69c0-.07,0-.12.08-.12A1.15,1.15,0,0,1,36.78,72.86Z"/><path class="cls-2" d="M43.51,73.28c0,.08-.15.14-.24.19s-1.64,1.46-1.92,1.7c0,0-.12.09-.12.13a0,0,0,0,0,0,0l1.5-.37c.44-.1,1.07-.26,1.48-.41h.06c.1,0,.1.24.1.31s-.08.12-.26.14a3.4,3.4,0,0,0-1.3.47c-.41.25-1,.73-1,1.25a.79.79,0,0,0,.56.66,2.76,2.76,0,0,0,.76.14c.06,0,.13,0,.13.08s0,.29-.21.29a2.65,2.65,0,0,1-.73-.16,1.15,1.15,0,0,1-.88-1,1.76,1.76,0,0,1,.87-1.3s.07,0,.07-.07,0,0-.05,0l-.17,0a18,18,0,0,0-2.06.66l-.07,0c-.08,0-.19-.19-.19-.3s0-.06.36-.15a.59.59,0,0,0,.24-.12c.8-.64,1.53-1.36,2.27-2.06,0,0,.07-.06.07-.1s0,0,0,0-1.19.28-1.32.32l-.16,0c-.1,0-.16-.24-.16-.31s.1-.11.2-.12A9.9,9.9,0,0,0,43,72.88a.34.34,0,0,1,.13-.06C43.3,72.82,43.51,73.18,43.51,73.28Z"/><path class="cls-2" d="M49.22,73.28c0,.08-.15.14-.24.19s-1.64,1.46-1.91,1.7c0,0-.12.09-.12.13a0,0,0,0,0,0,0l1.5-.37c.44-.1,1.07-.26,1.48-.41H50c.1,0,.1.24.1.31S50,75,49.87,75a3.39,3.39,0,0,0-1.3.47c-.41.25-1,.73-1,1.25a.79.79,0,0,0,.56.66,2.75,2.75,0,0,0,.76.14c.06,0,.13,0,.13.08s0,.29-.21.29a2.64,2.64,0,0,1-.72-.16,1.15,1.15,0,0,1-.88-1,1.77,1.77,0,0,1,.87-1.3s.07,0,.07-.07,0,0-.05,0l-.17,0A18,18,0,0,0,45.9,76l-.07,0c-.08,0-.19-.19-.19-.3s0-.06.36-.15a.61.61,0,0,0,.24-.12c.8-.64,1.53-1.36,2.27-2.06,0,0,.07-.06.07-.1s0,0,0,0-1.19.28-1.32.32l-.16,0c-.1,0-.16-.24-.16-.31s.1-.11.2-.12a9.86,9.86,0,0,0,1.66-.33.37.37,0,0,1,.13-.06C49,72.82,49.22,73.18,49.22,73.28Z"/><path class="cls-2" d="M54.64,73.26c0,.06-.06.07-.1.07s-.17,0-.56.33-.71.59-1,.9-.46.38-.46.57.32.58.47.75a17.38,17.38,0,0,0,1.38,1.27c.13.12.26.2.26.28a.37.37,0,0,1-.3.28c-.06,0-.1-.05-.16-.12a9.23,9.23,0,0,0-.78-.82c-.33-.33-.66-.67-1-1a.89.89,0,0,1-.29-.61.65.65,0,0,1,.13-.4A7.6,7.6,0,0,1,53,74,11.88,11.88,0,0,0,54.16,73a.12.12,0,0,1,.08-.05A1.09,1.09,0,0,1,54.64,73.26Zm.62.67c0,.05.28.29.28.35a.32.32,0,0,1-.23.21s-.06,0-.08-.07-.29-.33-.45-.49-.05-.05-.05-.08.15-.2.21-.2S55.2,73.88,55.25,73.93Zm.76-.44a1.61,1.61,0,0,1,.28.34.31.31,0,0,1-.23.21S56,74,56,74a6.22,6.22,0,0,0-.44-.49s-.06-.05-.06-.08a.33.33,0,0,1,.21-.2C55.75,73.2,56,73.44,56,73.49Z"/><path class="cls-2" d="M57.84,76.13c.17.66.81.8,1.4.8a9.11,9.11,0,0,0,1.91-.21l.12,0c.1,0,.09.11.09.18s0,.21-.08.24a11.35,11.35,0,0,1-1.92.19,2,2,0,0,1-1.73-.66,1.22,1.22,0,0,1-.21-.53c0-.12.25-.15.27-.15S57.81,76,57.84,76.13Zm.44-2.65a3.84,3.84,0,0,0,1.15.15,5,5,0,0,0,1.16-.13h.06c.11,0,.12.15.12.24s0,.17-.15.19a10.43,10.43,0,0,1-1.18.07,4.77,4.77,0,0,1-1.33-.16A.11.11,0,0,1,58,73.7c0-.07,0-.26.12-.26Z"/><path class="cls-2" d="M64.38,72.88c.15,0,.14.06.15.19a9.51,9.51,0,0,0,.28,1.41c0,.06,0,.15.14.15a2.1,2.1,0,0,0,.38-.19c.28-.15.85-.46,1.09-.63a.33.33,0,0,1,.17-.08c.09,0,.25.32.25.37s-.07.07-.12.08a15.18,15.18,0,0,0-1.94,1c-.46.27-1.24.72-1.24,1.33a.62.62,0,0,0,.32.48,2.07,2.07,0,0,0,1.13.25,12.57,12.57,0,0,0,1.7-.15h.06c.07,0,.06.1.06.2s0,.21-.08.23-1.52.1-1.78.1a2.29,2.29,0,0,1-1.23-.26,1,1,0,0,1-.52-.87c0-.69.7-1.14,1.21-1.48.07,0,.12-.08.12-.17a.26.26,0,0,0,0-.1,8.76,8.76,0,0,1-.32-1.13,2.82,2.82,0,0,0-.15-.53A.47.47,0,0,1,64,73C64,72.88,64.31,72.88,64.38,72.88Z"/><path class="cls-2" d="M70.62,73c.06,0,.17,0,.17.1a.14.14,0,0,1-.06.1c-.09.1-.09.16-.12.31s-.06.35-.09.52a.22.22,0,0,0,0,.07.09.09,0,0,0,.1.1h0s.26,0,.44,0c.6,0,.82.37.82.94A4.63,4.63,0,0,1,71.55,77a1.19,1.19,0,0,1-1.09.66c-.25,0-.31-.28-.31-.36s0-.06,0-.06a2.61,2.61,0,0,0,.33,0,.76.76,0,0,0,.73-.52,3.9,3.9,0,0,0,.29-1.51c0-.42,0-.79-.55-.79s-.6.12-.62.23a7.31,7.31,0,0,1-1.08,2.38,6.64,6.64,0,0,1-.42.56.15.15,0,0,1-.1.05c-.07,0-.25-.13-.25-.21a.22.22,0,0,1,.08-.13,5.87,5.87,0,0,0,1.26-2.12,4.81,4.81,0,0,0,.15-.53.07.07,0,0,0-.07-.06l-.12,0a7.8,7.8,0,0,0-.9.27l-.07,0c-.08,0-.21-.28-.21-.36s.08,0,.43-.12.58-.13.88-.19.18-.1.21-.28a5.49,5.49,0,0,0,.07-.8.83.83,0,0,0,0-.22v0a.06.06,0,0,1,.06-.06A2.53,2.53,0,0,1,70.62,73Zm2.69,2.18c0,.07-.19.2-.28.2s-.1-.06-.13-.12a4,4,0,0,0-.81-1.3.15.15,0,0,1-.05-.1c0-.1.21-.18.26-.18S73.31,75,73.31,75.14Zm-.66-2.21c.06,0,.27.22.32.28s.28.28.28.34a.31.31,0,0,1-.23.21s-.06,0-.08-.06a6.57,6.57,0,0,0-.45-.49s-.05-.05-.05-.08A.32.32,0,0,1,72.64,72.93Zm.9-.13c.05.05.28.28.28.34a.31.31,0,0,1-.23.21s-.06,0-.08-.06-.29-.33-.44-.49-.06,0-.06-.08.15-.2.21-.2S73.49,72.75,73.54,72.81Z"/><path class="cls-2" d="M75,73.69c.71,0,3.62-.34,4.28-.46h.1c.1,0,.1.2.1.3s-.06.13-.22.13a4.47,4.47,0,0,0-1.12.12,2,2,0,0,0-1.19,1,2.77,2.77,0,0,0-.4,1.37,1,1,0,0,0,.56,1,1.93,1.93,0,0,0,.83.13h.16c.05,0,.13,0,.13.07a.86.86,0,0,1-.08.28c0,.06-.05.06-.12.06a3.07,3.07,0,0,1-.87-.13,1.31,1.31,0,0,1-1-1.36,3.09,3.09,0,0,1,1-2.25s0,0,0-.05,0,0-.08,0c-.29,0-1.91.24-2.24.32h-.1c-.12,0-.15-.34-.15-.36S74.71,73.71,75,73.69Zm4,.83a1.79,1.79,0,0,1,.27.35c0,.07-.15.21-.23.21s-.06,0-.09-.07a6.33,6.33,0,0,0-.42-.51s-.05-.05-.05-.08.15-.19.22-.19S78.89,74.46,78.94,74.52Zm.71-.32a1.83,1.83,0,0,1,.27.35c0,.07-.15.21-.24.21s-.06,0-.08-.07-.28-.35-.42-.51-.05-.05-.05-.08.15-.19.21-.19S79.6,74.15,79.65,74.2Z"/><path class="cls-2" d="M82.8,73c.1.26.13.38.25.38a2.41,2.41,0,0,0,.6-.26.41.41,0,0,1,.14-.06c.07,0,.17.22.17.28s0,.05-.14.11a5.26,5.26,0,0,1-.55.24.14.14,0,0,0-.12.14,4.18,4.18,0,0,0,.2.47c0,.08.08.15.18.15a4.23,4.23,0,0,0,.89-.44.22.22,0,0,1,.1-.05c.05,0,.18.19.18.27s-.05.1-.28.22-.42.2-.65.3c0,0-.12,0-.12.12a1.77,1.77,0,0,0,.16.35,8.16,8.16,0,0,0,.64,1,.22.22,0,0,1,.06.12c0,.12-.23.27-.33.27a.12.12,0,0,1-.09,0,1.94,1.94,0,0,0-1.27-.46c-.37,0-.79.17-.79.6s.71.74,1.16.74a3.48,3.48,0,0,0,.46,0h.08c.12,0,.12.12.12.2s0,.19-.43.19a2.86,2.86,0,0,1-.93-.12,1,1,0,0,1-.78-.94.94.94,0,0,1,.35-.73,1.27,1.27,0,0,1,.76-.22,2.45,2.45,0,0,1,1,.21l.08,0a0,0,0,0,0,0,0s-.46-.84-.5-.94A.19.19,0,0,0,83.2,75l-.12,0a11.85,11.85,0,0,1-1.75.37c-.1,0-.11-.06-.12-.11a.77.77,0,0,1,0-.18c0-.1.06-.08.22-.1a7.11,7.11,0,0,0,1.52-.29c.08,0,.17,0,.17-.15a.35.35,0,0,0-.06-.14c-.2-.44-.22-.51-.34-.51l-.1,0a5.36,5.36,0,0,1-.88.15c-.11,0-.15-.19-.15-.28s.11-.07.21-.08a3.5,3.5,0,0,0,.63-.1c.08,0,.2,0,.2-.15a.75.75,0,0,0-.07-.19,2.46,2.46,0,0,0-.21-.41.12.12,0,0,1,0-.07c0-.09.21-.12.28-.12S82.7,72.76,82.8,73Z"/><path class="cls-2" d="M88.87,72.81c.08,0,.15,0,.15.1S89,73,89,73a1,1,0,0,0,0,.4v.15a.13.13,0,0,0,.13.14h.09a6.8,6.8,0,0,0,1.18-.24l.11,0c.11,0,.11.19.11.28s0,.1-.2.14c-.35.07-.84.15-1.19.18-.12,0-.22.05-.22.19,0,.67,0,.76.14.76a5.69,5.69,0,0,0,1-.18l.08,0c.07,0,.06.1.06.15,0,.27-.06.25-.23.28s-.53.08-.76.1-.23.06-.23.22,0,.65,0,.73.09.17.24.21,1.12.44,1.12.6a.35.35,0,0,1-.25.29c-.05,0-.13-.07-.17-.1a3,3,0,0,0-.71-.42l-.11,0c-.1,0-.1.1-.1.13a1,1,0,0,1-.1.39,1.14,1.14,0,0,1-1,.42c-.44,0-.95-.19-.95-.71s.72-.72,1.18-.72h.37c.09,0,.11-.06.11-.13s0-.67,0-.7-.05-.12-.14-.12h-.7a3.22,3.22,0,0,1-.57,0,.52.52,0,0,1-.08-.28.08.08,0,0,1,.08-.09c.06,0,.53,0,.76,0,.5,0,.64,0,.64-.14s0-.49,0-.64,0-.18-.14-.18-.91,0-1.35,0h-.33c-.12,0-.13-.16-.13-.26s0-.14.1-.14.58,0,1,0c.11,0,.68,0,.74,0a.15.15,0,0,0,.12-.15,6.23,6.23,0,0,0-.06-.7.48.48,0,0,1,0-.09s0-.06.07-.06A3.19,3.19,0,0,1,88.87,72.81Zm-1.52,4.25c0,.3.34.37.58.37s.69-.1.73-.47a1.25,1.25,0,0,0,0-.15c0-.11-.07-.15-.4-.15S87.35,76.67,87.35,77.06Z"/><path class="cls-2" d="M94.53,72.65c.14,0,.38,0,.38.09s-.12.05-.12.36v.53a.16.16,0,0,0,.15.17l.29,0c.31,0,1.25-.06,1.51-.06.11,0,.12.06.12.19s-.06.2-.16.2h-.61c-.19,0-1,0-1.15,0s-.15.1-.15.21c0,.61,0,.62.08.75a2,2,0,0,1,.18.86A2.72,2.72,0,0,1,94.17,78s-.33-.07-.33-.13.1-.12.12-.14a2.53,2.53,0,0,0,.6-1,0,0,0,0,0,0,0,.2.2,0,0,0-.1,0,.59.59,0,0,1-.27.07c-.5,0-.68-.54-.68-1s.22-1.11.82-1.11h.06a.08.08,0,0,0,.08-.08c0-.35,0-.51-.17-.51l-.48,0c-.49,0-1,.06-1.48.13h-.08c-.08,0-.16,0-.16-.28s.06-.13.24-.13c.62,0,1.24-.07,1.86-.1.13,0,.24,0,.24-.19a6.17,6.17,0,0,0-.08-.91v0a.06.06,0,0,1,.06-.06Zm-.72,3.2c0,.28.08.64.43.64s.46-.33.46-.63-.1-.71-.44-.71S93.8,75.57,93.8,75.84Z"/><path class="cls-2" d="M99.94,77.07a.86.86,0,1,1-.86-.86A.86.86,0,0,1,99.94,77.07Zm-1.47,0a.61.61,0,1,0,.61-.61A.61.61,0,0,0,98.47,77.07Z"/></g></g></svg>