<svg xmlns="http://www.w3.org/2000/svg" viewBox="0 0 249.04 109.78"><defs><style>.cls-1{fill:#393839;}.cls-2{fill:#fff;}</style></defs><title>design_3</title><g id="Layer_2" data-name="Layer 2"><g id="レイヤー_1" data-name="レイヤー 1"><rect class="cls-1" width="249.04" height="109.78"/><path class="cls-2" d="M144.61,20l.83,0c.21,0,.45.32.45.38a6,6,0,0,0-.15.6,6,6,0,0,1-2.69,4.39,9.86,9.86,0,0,1-1.78.94.85.85,0,0,1-.31.09c-.19,0-.33-.27-.33-.38s.08-.14.17-.16a6.68,6.68,0,0,0,3.52-2.51,5.41,5.41,0,0,0,.82-2.4,1,1,0,0,0,0-.17c0-.25-.23-.22-.53-.22h-3.81c-.4,0-.8,0-1.2,0-.21,0-.22-.13-.22-.3s0-.29.22-.29l1.2,0Z"/><path class="cls-2" d="M149.27,22.51l1.87,0a.28.28,0,0,0,.28-.28v-.32a7.73,7.73,0,0,0-.05-1,.42.42,0,0,1,0-.11.12.12,0,0,1,.13-.13,1.67,1.67,0,0,1,.38.07c.09,0,.21,0,.21.17s0,.1-.09.14-.05.13-.05.28,0,.37,0,.55v.32a.28.28,0,0,0,.28.28h.5l.93,0c.19,0,.21.12.21.28s0,.26-.23.26h-1.39a.28.28,0,0,0-.28.29l0,1.95v.31c0,.83-.18,1.2-1.32,1.2-.25,0-.28-.31-.28-.38s.14-.16.24-.16c.86,0,.85-.09.83-.91l0-1.72c0-.07,0-.12-.1-.12s-.12.07-.17.14a10.51,10.51,0,0,1-2.48,2.27.58.58,0,0,1-.25.12c-.13,0-.3-.21-.3-.32s.09-.15.16-.19a8.79,8.79,0,0,0,2.49-2.22.21.21,0,0,0,.07-.13.11.11,0,0,0-.12-.1l-1.46,0-.93,0c-.19,0-.21-.12-.21-.28s0-.26.26-.26Z"/><path class="cls-2" d="M162.13,22.45l1.17,0c.23,0,.25.07.25.32s0,.3-.21.3l-1.21,0h-4.58l-1.2,0c-.21,0-.22-.11-.22-.3s0-.32.25-.32l1.17,0Z"/><path class="cls-2" d="M168.45,24.15c0,1.29-.13,1.44,1.33,1.44a23.72,23.72,0,0,0,2.39-.15h.09c.12,0,.12.1.12.19,0,.32-.06.42-.23.44-.41,0-1.71.06-2.18.06a4,4,0,0,1-1.78-.22c-.31-.22-.32-.55-.32-1s0-.52,0-.78V22.65a.2.2,0,0,0-.2-.2h0l-.86.17-1.29.26c-.17,0-.2-.31-.2-.41s.2-.15,1.39-.38l1-.19a.29.29,0,0,0,.23-.28V20.48c0-.3,0-1,0-1.25a.71.71,0,0,1,0-.13c0-.07,0-.09.1-.09s.7,0,.7.2,0,.09-.07.14a.45.45,0,0,0-.09.27c0,.22,0,.63,0,.86v1a.2.2,0,0,0,.25.2l2.59-.5,1.07-.22c.13,0,.46.26.46.39a.35.35,0,0,1-.11.22l-.92,1.08c-.28.33-.56.67-.85,1-.08.09-.16.21-.3.21s-.44-.15-.44-.3a.2.2,0,0,1,.08-.14,12.73,12.73,0,0,0,1.51-1.61.09.09,0,0,0,0-.08.07.07,0,0,0-.07-.07,4.33,4.33,0,0,0-.46.08l-2.57.5a.3.3,0,0,0-.27.33Z"/><path class="cls-2" d="M175.93,22.46a3.61,3.61,0,0,1,.38.72c0,.17-.27.26-.36.26s-.13-.07-.17-.14a10.71,10.71,0,0,0-.64-1.08.27.27,0,0,1-.07-.17c0-.12.19-.25.31-.25S175.77,22.2,175.93,22.46Zm4.68-.71a.17.17,0,0,1-.1.15.15.15,0,0,0-.07.1,10.72,10.72,0,0,1-.59,1.57,5.25,5.25,0,0,1-2.08,2.35,5.63,5.63,0,0,1-1.63.66c-.15,0-.32-.23-.32-.36s.11-.15.2-.17a5,5,0,0,0,2-1,5.4,5.4,0,0,0,1.37-1.81,5.89,5.89,0,0,0,.51-1.65c0-.08,0-.15.12-.15S180.61,21.59,180.61,21.75Zm-2.55.15a3.69,3.69,0,0,1,.39.72c0,.16-.28.26-.36.26s-.15-.1-.2-.18a9.64,9.64,0,0,0-.62-1,.39.39,0,0,1-.07-.16c0-.13.2-.26.31-.26S177.86,21.57,178.06,21.9Z"/><path class="cls-2" d="M184.92,25.19c0,.5,0,1,0,1.49,0,.3,0,.43-.33.43s-.33-.13-.33-.43c0-.5,0-1,0-1.49v-4.8a10.66,10.66,0,0,0,0-1.26,1.25,1.25,0,0,1,0-.19c0-.07,0-.11.1-.11s.71.1.71.23,0,.09-.07.13a4.63,4.63,0,0,0-.07,1.2Zm1.83-2.64c.15.11.79.61.79.76a.43.43,0,0,1-.33.36.29.29,0,0,1-.2-.1,12,12,0,0,0-1.58-1.27c-.08-.05-.18-.1-.18-.21s.17-.36.3-.36A6.37,6.37,0,0,1,186.75,22.55Z"/><path class="cls-2" d="M141.69,38.11h.53c.13,0,.29.21.29.24s-.05.08-.1.39a3.83,3.83,0,0,1-1.73,2.82,6.25,6.25,0,0,1-1.14.6.56.56,0,0,1-.2.06c-.12,0-.21-.17-.21-.24s.05-.09.11-.1a4.3,4.3,0,0,0,2.26-1.61A3.48,3.48,0,0,0,142,38.7a.52.52,0,0,0,0-.11c0-.16-.15-.14-.34-.14h-2.45l-.77,0c-.13,0-.14-.08-.14-.19s0-.19.14-.19h3.21Z"/><path class="cls-2" d="M145,39.71l1.2,0a.18.18,0,0,0,.18-.18v-.2a5.17,5.17,0,0,0,0-.63.22.22,0,0,1,0-.07.08.08,0,0,1,.08-.08,1.1,1.1,0,0,1,.24,0c.06,0,.13,0,.13.11s0,.06-.06.09,0,.08,0,.18,0,.24,0,.35v.21a.18.18,0,0,0,.18.18h.32l.6,0c.12,0,.13.08.13.18s0,.17-.15.17h-.89a.18.18,0,0,0-.18.19l0,1.25v.2c0,.53-.12.77-.85.77-.16,0-.18-.2-.18-.24s.09-.1.15-.1c.55,0,.55-.06.53-.58l0-1.11s0-.08-.06-.08-.08,0-.11.09a6.76,6.76,0,0,1-1.59,1.46.38.38,0,0,1-.16.08c-.08,0-.19-.13-.19-.21s.06-.1.1-.12a5.64,5.64,0,0,0,1.6-1.43.13.13,0,0,0,0-.08A.07.07,0,0,0,146,40H145l-.6,0c-.12,0-.13-.08-.13-.18s0-.17.17-.17Z"/><path class="cls-2" d="M153.61,39.67h.75c.15,0,.16,0,.16.21s0,.19-.13.19H149.9c-.13,0-.14-.07-.14-.19s0-.21.16-.21h3.69Z"/><path class="cls-2" d="M158,40.76c0,.83-.08.92.86.92.49,0,1.05,0,1.54-.1h.06c.08,0,.08.06.08.12s0,.27-.15.28c-.26,0-1.1,0-1.4,0a2.59,2.59,0,0,1-1.14-.14c-.2-.14-.21-.35-.21-.62s0-.33,0-.5v-1a.13.13,0,0,0-.13-.13h0l-.55.11-.83.17c-.11,0-.13-.2-.13-.26s.13-.1.89-.24l.63-.12a.19.19,0,0,0,.15-.18V38.4c0-.19,0-.64,0-.8a.36.36,0,0,1,0-.08s0-.06.06-.06.45,0,.45.13,0,.06,0,.09a.28.28,0,0,0-.06.17c0,.14,0,.41,0,.55v.65a.13.13,0,0,0,.16.13l1.66-.32.69-.14c.08,0,.3.17.3.25a.23.23,0,0,1-.07.14l-.59.69c-.18.21-.36.43-.55.64s-.1.13-.19.13-.28-.1-.28-.19a.13.13,0,0,1,.05-.09,8.18,8.18,0,0,0,1-1,.06.06,0,0,0,0-.05,0,0,0,0,0,0,0l-.3.05-1.65.32a.19.19,0,0,0-.17.21Z"/><path class="cls-2" d="M163.12,39.67a2.37,2.37,0,0,1,.24.46c0,.11-.17.17-.23.17s-.08,0-.11-.09a6.93,6.93,0,0,0-.41-.69.16.16,0,0,1,0-.11c0-.08.12-.16.2-.16S163,39.51,163.12,39.67Zm3-.46a.11.11,0,0,1-.06.1.1.1,0,0,0,0,.06,7.15,7.15,0,0,1-.38,1,3.38,3.38,0,0,1-1.34,1.51,3.64,3.64,0,0,1-1,.42c-.1,0-.21-.15-.21-.23s.07-.1.13-.11a3.21,3.21,0,0,0,1.32-.63,3.47,3.47,0,0,0,.88-1.16,3.87,3.87,0,0,0,.33-1.06c0-.05,0-.1.08-.1S166.13,39.12,166.13,39.22Zm-1.64.1a2.36,2.36,0,0,1,.25.46c0,.1-.18.17-.23.17s-.1-.06-.13-.12a6,6,0,0,0-.4-.67.24.24,0,0,1,0-.1c0-.08.13-.17.2-.17S164.36,39.1,164.49,39.31Z"/><path class="cls-2" d="M169.27,41.43c0,.32,0,.64,0,1s0,.28-.21.28-.21-.08-.21-.28,0-.64,0-1V38.34a6.88,6.88,0,0,0,0-.81.88.88,0,0,1,0-.12s0-.07.06-.07.46.06.46.15,0,.06,0,.08a3,3,0,0,0,0,.77Zm1.18-1.7c.1.07.51.39.51.49a.27.27,0,0,1-.21.23.19.19,0,0,1-.13-.06,7.75,7.75,0,0,0-1-.82c-.05,0-.12-.06-.12-.13s.11-.23.19-.23A4.1,4.1,0,0,1,170.45,39.73Z"/><path class="cls-2" d="M177.11,38.49a2.05,2.05,0,0,1,.62,1.51,2.2,2.2,0,0,1-1.22,2,2.16,2.16,0,0,1-.62.22c-.1,0-.27-.19-.27-.27s.05-.06.09-.07A1.89,1.89,0,0,0,177.34,40,1.77,1.77,0,0,0,176,38.26a1.36,1.36,0,0,0-.28,0c-.18,0-.18.16-.19.27a5.39,5.39,0,0,1-.91,3,1,1,0,0,1-.75.44.92.92,0,0,1-.76-.55,1.89,1.89,0,0,1-.18-.86,2.56,2.56,0,0,1,2.58-2.62A2.16,2.16,0,0,1,177.11,38.49Zm-2.27-.17a2.22,2.22,0,0,0-1.53,2.15c0,.35.12,1.06.57,1.06s.78-.71.9-1a6.74,6.74,0,0,0,.41-2s0-.05,0-.07a.13.13,0,0,0-.12-.13A1,1,0,0,0,174.83,38.32Z"/><path class="cls-2" d="M183.29,39.49h.76c.13,0,.14.05.14.18s0,.2-.15.2h-1.77c-.17,0-.17.17-.19.28a3.46,3.46,0,0,1-.42,1.25,2.5,2.5,0,0,1-.95.86,3.08,3.08,0,0,1-.67.28c-.09,0-.26-.19-.26-.26s.09-.09.15-.11a3.27,3.27,0,0,0,.86-.37,2.26,2.26,0,0,0,.86-1.34,2.42,2.42,0,0,0,.06-.43.16.16,0,0,0-.15-.15h-2.31c-.13,0-.13-.08-.13-.19s0-.19.14-.19h4Zm-1-1.74.77,0c.13,0,.15.05.15.19s0,.19-.14.19h-2.93c-.12,0-.14-.06-.14-.19s0-.19.15-.19l.76,0Zm1.78.19a1.8,1.8,0,0,1,.27.35c0,.08-.15.21-.23.21s-.06,0-.09-.07-.28-.34-.42-.5-.05-.06-.05-.08.15-.19.21-.19S184,37.89,184.08,37.95Zm.49-.53a2.23,2.23,0,0,1,.28.37.31.31,0,0,1-.23.21s-.06,0-.09-.07a6,6,0,0,0-.42-.5s-.05-.05-.05-.08.15-.19.22-.19S184.52,37.36,184.57,37.41Z"/><path class="cls-2" d="M186.57,39a.19.19,0,0,0,.2-.18v-.62c0-.19,0-.3,0-.49,0,0,0-.06,0-.08s0-.06.08-.06.44,0,.44.12,0,.08-.07.1-.05.31-.05.41v.62a.18.18,0,0,0,.18.18h1.51a.18.18,0,0,0,.19-.2v-.17a8,8,0,0,0,0-1,.31.31,0,0,1,0-.08s0-.06.07-.06l.29,0c.05,0,.13,0,.13.08s0,0-.05.08a2.44,2.44,0,0,0-.05.7c0,.12,0,.24,0,.35v0c0,.15.08.22.18.22h1c.13,0,.14.06.14.19s0,.19-.14.19h-1c-.21,0-.19.22-.19.27a3.94,3.94,0,0,1-.37,1.91,2.67,2.67,0,0,1-1.21,1,.18.18,0,0,1-.08,0c-.07,0-.26-.15-.26-.23s.08-.09.16-.12c1.29-.57,1.4-1.32,1.4-2.61,0-.12-.06-.21-.18-.21h-1.5a.18.18,0,0,0-.18.18v.91c0,.08,0,.37,0,.41s-.06.17-.2.17-.19-.06-.19-.19,0-.26,0-.39v-.91a.18.18,0,0,0-.18-.18h-1c-.13,0-.14-.08-.14-.19s0-.19.14-.19h1ZM190,37.63c.06,0,.27.23.32.28s.28.29.28.34a.31.31,0,0,1-.23.21s-.06,0-.08-.06a5.47,5.47,0,0,0-.45-.49s-.05-.05-.05-.08A.31.31,0,0,1,190,37.63Zm.55-.48c.06,0,.27.22.32.28s.28.29.28.34A.31.31,0,0,1,191,38s-.06,0-.08-.06a6.4,6.4,0,0,0-.45-.49s-.05-.05-.05-.08A.32.32,0,0,1,190.6,37.15Z"/><path class="cls-2" d="M194.41,41.67c0,.27,0,.53,0,.8s-.06.17-.23.17-.18,0-.18-.17,0-.53,0-.8V39.53c0-.05,0-.16-.09-.16a.28.28,0,0,0-.15.08,10,10,0,0,1-1.44.92,1.48,1.48,0,0,1-.31.14c-.08,0-.22-.16-.22-.23s.06-.1.12-.12a8.37,8.37,0,0,0,3.29-2.75s0-.06.08-.06a1.16,1.16,0,0,1,.27.15s.12.07.12.12-.05.06-.09.08-.1,0-.15.12a8.29,8.29,0,0,1-.94,1,.25.25,0,0,0-.11.21Z"/><path class="cls-2" d="M202.11,39.2c0,.08-.31.38-.39.46a12.58,12.58,0,0,1-1.52,1.28A10.4,10.4,0,0,1,198.33,42c-.16.07-.16.08-.22.2a.09.09,0,0,1-.08,0c-.06,0-.1-.08-.14-.17a1.36,1.36,0,0,1-.12-.26c0-.05.1-.07.16-.09a8.4,8.4,0,0,0,2.52-1.43A11,11,0,0,0,201.84,39a.14.14,0,0,1,.1-.07C202,38.9,202.11,39.15,202.11,39.2Zm-4-1.36.63.44c.15.11.31.22.31.29s-.12.25-.22.25-.22-.13-.28-.18c-.22-.17-.45-.35-.69-.51,0,0-.08-.05-.08-.1s.11-.24.21-.24A.25.25,0,0,1,198.13,37.84Z"/><path class="cls-2" d="M205.72,37.48c0,.06-.06.09-.11.12s-.31.64-.37.83a.25.25,0,0,0,0,.07c0,.1.08.13.17.14a5.51,5.51,0,0,0,.74.06c.14,0,.24,0,.24.11a.75.75,0,0,1-.05.24.09.09,0,0,1-.1.06,7,7,0,0,1-1-.12h-.07c-.13,0-.15.12-.17.19s-.17.71-.17.82.07.12.14.12a5.29,5.29,0,0,0,.71.05h.1c.08,0,.14,0,.14.1a.9.9,0,0,1-.06.22c0,.06,0,.08-.1.08s-.59-.05-.79-.08h-.08c-.17,0-.16.15-.17.21a3.41,3.41,0,0,0,0,.37c0,.7.31,1.09,1,1.09a1.73,1.73,0,0,0,.91-.24.72.72,0,0,0,.36-.68,2.36,2.36,0,0,0-.24-1,.23.23,0,0,1,0-.09c0-.09.21-.14.29-.14s.1.05.13.12a3.12,3.12,0,0,1,.24,1.15c0,.91-.88,1.24-1.66,1.24a1.26,1.26,0,0,1-1.39-1.36,4.54,4.54,0,0,1,0-.59V40.5c0-.15-.14-.17-.28-.21a2.36,2.36,0,0,1-.45-.2c-.06,0-.1-.06-.1-.13s0-.28.12-.28a.26.26,0,0,1,.13.06,1.79,1.79,0,0,0,.56.24c.16,0,.12-.21.3-.9a.65.65,0,0,0,0-.1c0-.12-.1-.15-.19-.19a5.37,5.37,0,0,1-.55-.23c-.06,0-.12-.06-.12-.13s0-.28.13-.28a.26.26,0,0,1,.12.05,3.09,3.09,0,0,0,.56.28l.1,0c.1,0,.12-.1.14-.17.1-.32.2-.62.29-.94,0-.06,0-.12.1-.12S205.72,37.39,205.72,37.48Z"/><path class="cls-2" d="M211.13,37.28c.06,0,.31.06.39.08s.15,0,.15.1a.11.11,0,0,1-.05.09c-.08.05-.1.06-.1.64,0,.11,0,.22,0,.33v0c0,.1,0,.17.14.17a4.62,4.62,0,0,0,1.16-.26l.11,0c.1,0,.18.22.18.28s-.17.13-.39.19a7.21,7.21,0,0,1-1,.18c-.15,0-.2.07-.2.23,0,.31,0,1,.05,1.28,0,.15.13.17.22.19a6,6,0,0,1,1.48.58c.05,0,.17.08.17.15s-.14.29-.22.29a.49.49,0,0,1-.19-.1,5.07,5.07,0,0,0-1.13-.53,1,1,0,0,0-.19-.05c-.07,0-.1.06-.1.12s0,.14,0,.23a.78.78,0,0,1-.21.62,1.35,1.35,0,0,1-.91.29c-.49,0-1.16-.21-1.16-.8s.79-.91,1.36-.91h.33c.1,0,.13-.06.13-.15s0-.88,0-1.13a17.26,17.26,0,0,0-.09-2s0,0,0-.06S211.09,37.28,211.13,37.28Zm-1.4,4.28c0,.37.51.46.8.46s.73-.14.73-.62,0-.41-.48-.41S209.73,41.07,209.73,41.56Z"/><path class="cls-2" d="M216.1,38c0,.06-.08.1-.12.12s-.19.48-.21.61a4.81,4.81,0,0,0-.07.81c0,.08,0,.58.08.58s.08-.12.13-.22.24-.56.32-.56.12,0,.12.09a.22.22,0,0,1,0,.08,3.92,3.92,0,0,0-.41,1.21,1.5,1.5,0,0,0,0,.16.3.3,0,0,1,0,.08c0,.1-.18.15-.26.15s-.12-.08-.14-.15a5.32,5.32,0,0,1,0-2.88,1.3,1.3,0,0,0,0-.22s0-.13.07-.13S216.1,37.88,216.1,38Zm2.31-.33a8.18,8.18,0,0,1,.19,1.74,3.66,3.66,0,0,1-1,2.87c-.09.08-.35.31-.46.31s-.26-.15-.26-.26,0-.07.08-.09a2.45,2.45,0,0,0,.93-1,4.28,4.28,0,0,0,.32-1.8,5.21,5.21,0,0,0-.22-1.64.24.24,0,0,1,0-.06c0-.1.24-.14.31-.14S218.4,37.57,218.41,37.63Z"/><path class="cls-2" d="M221.37,39.33l.6.37s.06.05.06.08-.1.26-.2.26a.24.24,0,0,1-.14-.06c-.3-.21-.62-.4-.94-.58,0,0-.08,0-.08-.09s.09-.24.19-.24A2.9,2.9,0,0,1,221.37,39.33Zm3.69-.55a1.28,1.28,0,0,1-.09.28,5,5,0,0,1-3.3,3.06.31.31,0,0,0-.2.15s0,.08-.1.08-.1-.07-.15-.17a1.79,1.79,0,0,1-.1-.26c0-.05.07-.06.11-.08a6.9,6.9,0,0,0,.78-.26,4.35,4.35,0,0,0,1.64-1.07,4.91,4.91,0,0,0,1.06-1.86c0-.06,0-.13.1-.13S225.06,38.7,225.06,38.78Zm-3-.88c.09.07.56.4.61.45a.09.09,0,0,1,0,.08c0,.07-.1.24-.21.24a.26.26,0,0,1-.14-.08,8.8,8.8,0,0,0-.83-.61s-.09-.05-.09-.1.12-.23.21-.23A1.64,1.64,0,0,1,222.1,37.9Z"/><path class="cls-2" d="M231,39.2c0,.08-.31.38-.39.46a12.57,12.57,0,0,1-1.52,1.28A10.39,10.39,0,0,1,227.24,42c-.16.07-.16.08-.22.2a.09.09,0,0,1-.08,0c-.06,0-.1-.08-.14-.17a1.36,1.36,0,0,1-.12-.26c0-.05.1-.07.16-.09a8.41,8.41,0,0,0,2.52-1.43A11,11,0,0,0,230.76,39a.14.14,0,0,1,.1-.07C230.94,38.9,231,39.15,231,39.2Zm-4-1.36.63.44c.15.11.31.22.31.29s-.12.25-.22.25-.22-.13-.28-.18c-.22-.17-.45-.35-.69-.51,0,0-.08-.05-.08-.1s.11-.24.21-.24A.25.25,0,0,1,227,37.84Z"/><path class="cls-2" d="M235.72,38.16h.53c.13,0,.29.21.29.24s-.05.08-.1.38a3.82,3.82,0,0,1-1.73,2.82,6.2,6.2,0,0,1-1.14.6.53.53,0,0,1-.2.06c-.12,0-.21-.17-.21-.24s.05-.09.11-.1a4.28,4.28,0,0,0,2.26-1.61,3.48,3.48,0,0,0,.53-1.54.69.69,0,0,0,0-.11c0-.16-.15-.14-.34-.14h-2.45l-.77,0c-.13,0-.14-.08-.14-.19s0-.19.14-.19h3.21Zm1.82-.58a.6.6,0,1,1-.6-.6A.6.6,0,0,1,237.54,37.58Zm-1,0a.36.36,0,0,0,.35.35.35.35,0,0,0,.35-.35.34.34,0,0,0-.35-.35A.35.35,0,0,0,236.58,37.58Z"/><path class="cls-2" d="M139.38,50.14c.05,0,.11,0,.11.08s0,.05-.05.08a.25.25,0,0,0,0,.17,11.62,11.62,0,0,1,0,1.25A3.44,3.44,0,0,1,138.21,54a.11.11,0,0,1-.08,0c-.07,0-.32-.1-.32-.19s.08-.1.13-.13A3.35,3.35,0,0,0,139,50.85a3.72,3.72,0,0,0,0-.61s0-.06,0-.08a.06.06,0,0,1,.07-.07A2.3,2.3,0,0,1,139.38,50.14Zm1.48,3.21s0,.12.06.12.13-.06.18-.1a17.7,17.7,0,0,0,1.78-1.46s.07-.08.11-.08.19.17.19.24-.1.13-.14.17a23.49,23.49,0,0,1-1.95,1.56l-.08.06s-.08.08-.15.08a1,1,0,0,1-.28-.12c-.08-.05-.13-.07-.13-.16s0-.39,0-.77V51a6,6,0,0,0,0-.84.53.53,0,0,1,0-.1.06.06,0,0,1,.06-.06,2.37,2.37,0,0,1,.36.08s.08,0,.08.08,0,.05,0,.08,0,.18,0,.4Z"/><path class="cls-2" d="M144.1,50.39c.71,0,3.62-.34,4.28-.46h.1c.1,0,.1.2.1.3s-.06.13-.22.13a4.46,4.46,0,0,0-1.12.12,2,2,0,0,0-1.19,1,2.79,2.79,0,0,0-.4,1.37,1,1,0,0,0,.56,1,1.92,1.92,0,0,0,.83.13h.16c.05,0,.14,0,.14.07a.82.82,0,0,1-.08.28c0,.06-.05.06-.12.06a3.08,3.08,0,0,1-.87-.13,1.31,1.31,0,0,1-1-1.36,3.08,3.08,0,0,1,1-2.25s0,0,0-.05,0,0-.08,0c-.29,0-1.92.24-2.24.32h-.1c-.12,0-.15-.34-.15-.36S143.85,50.4,144.1,50.39Zm4,.83a1.78,1.78,0,0,1,.27.35.31.31,0,0,1-.23.21s-.06,0-.09-.07-.28-.35-.42-.51-.05-.05-.05-.08.15-.19.22-.19S148,51.16,148.08,51.22Zm.71-.32a1.82,1.82,0,0,1,.27.35c0,.07-.15.21-.24.21s-.06,0-.08-.07-.28-.35-.43-.51-.05-.05-.05-.08.15-.19.21-.19S148.74,50.85,148.79,50.9Z"/><path class="cls-2" d="M150.73,51.07c.08.06.35.23.35.33a.22.22,0,0,1-.18.19c-.06,0-.1,0-.17-.1-.23-.18-.47-.34-.71-.5-.06,0-.12-.07-.12-.13a.22.22,0,0,1,.17-.19A3.48,3.48,0,0,1,150.73,51.07Zm.6,1.55a14.69,14.69,0,0,1-1,1.68.32.32,0,0,0-.07.15s0,.08,0,.12a.06.06,0,0,1-.06.07s-.33-.2-.33-.26a.32.32,0,0,1,.07-.13,14.15,14.15,0,0,0,1.09-1.88s0-.08.08-.08.23.09.23.19A.43.43,0,0,1,151.33,52.62Zm-.12-2.47c-.06,0-.09,0-.17-.1-.24-.18-.48-.35-.73-.51-.07,0-.12-.07-.12-.13s.1-.19.16-.19a2.14,2.14,0,0,1,.51.3c.1.07.37.26.46.33a.15.15,0,0,1,.06.11A.21.21,0,0,1,151.21,50.15Zm1.71,2.34a2.52,2.52,0,0,1-.87,1.89,2,2,0,0,1-.76.35c-.11,0-.21-.16-.21-.23s.08-.08.18-.12a1.9,1.9,0,0,0,1.32-1.8c0-.11,0-.19,0-.25s0-.14.09-.14.4,0,.4.11-.06.07-.09.09A.11.11,0,0,0,152.92,52.49Zm1.16-.33c-.12,0-.18.05-.18.18v1.75c0,.26.08.28.32.28h.51c.31,0,.35-.08.44-.75,0-.15.05-.17.12-.17s.22,0,.22.13a3,3,0,0,1-.23.91c-.13.2-.3.2-.52.2h-.64c-.31,0-.56-.08-.56-.44,0-.11,0-.22,0-.33V52.34c0-.13-.06-.18-.18-.18h-1.84c-.12,0-.12-.07-.12-.17s0-.17.12-.17h1.59c.12,0,.18-.05.18-.17v-.8c0-.13-.06-.18-.18-.18h-.83a.23.23,0,0,0-.24.15c-.07.14-.15.3-.23.43s-.09.14-.17.14-.21-.06-.21-.13a2.07,2.07,0,0,1,.18-.33,5.84,5.84,0,0,0,.58-1.43c0-.09,0-.19.1-.19s.39.09.39.17,0,.06-.08.07-.1.07-.14.2-.07.23-.16.46a.16.16,0,0,0,0,.05c0,.08.06.1.12.1h.69c.12,0,.18-.05.18-.18V50c0-.24,0-.49,0-.71,0,0,0,0,0-.06s0-.08.1-.08h.18c.14,0,.26,0,.26.09s0,.06-.09.09-.08.18-.08.67v.19c0,.13.06.18.18.18h1.31c.12,0,.13.05.13.17s0,.17-.13.17h-1.31c-.12,0-.18.05-.18.18v.8c0,.12.06.17.18.17h1.58c.12,0,.12.08.12.17s0,.17-.12.17h-1.34Z"/><path class="cls-2" d="M157.17,52.87c-.06,0-.08,0-.09.1a11.11,11.11,0,0,1-.37,1.36c0,.07-.06.12-.14.12s-.22,0-.22-.12a.26.26,0,0,1,0-.06,6.78,6.78,0,0,0,.39-1.51c0-.05,0-.1.08-.1s.38.07.38.14S157.21,52.86,157.17,52.87Zm.57-.48v1.45c0,.24,0,.48,0,.72s0,.26-.19.26-.19-.1-.19-.25,0-.48,0-.73v-1.4c0-.12-.05-.17-.17-.17l-.55.05a.11.11,0,0,0-.07.05s0,.08-.08.08-.08-.07-.1-.16a2,2,0,0,1-.06-.24s0-.06.13-.06h.32a.26.26,0,0,0,.24-.15l.21-.34a.3.3,0,0,0,0-.12.21.21,0,0,0-.06-.14,8.83,8.83,0,0,0-.75-.72.18.18,0,0,1-.07-.12.21.21,0,0,1,.18-.17c.06,0,.17.1.22.15a.12.12,0,0,0,.09,0,.13.13,0,0,0,.1-.06,10.32,10.32,0,0,0,.62-1.06s0-.06.08-.06.15.08.19.11.15.1.15.15-.05.05-.11.06a.1.1,0,0,0-.09,0,6.61,6.61,0,0,1-.63,1,.14.14,0,0,0,0,.09.16.16,0,0,0,0,.1l.19.19a.11.11,0,0,0,.1,0,.13.13,0,0,0,.11-.07c.17-.29.34-.6.51-.91,0,0,0-.07.08-.07s.13.06.19.1.16.09.16.14,0,.05-.08.05a.16.16,0,0,0-.12.06,17.28,17.28,0,0,1-.94,1.52.09.09,0,0,0,0,.05c0,.06,0,.08.1.08l.57-.07c.05,0,.1,0,.1-.1a.13.13,0,0,0,0-.05,1.06,1.06,0,0,1-.12-.25c0-.09.12-.16.19-.16s.18.17.35.55a1.76,1.76,0,0,1,.15.41c0,.08-.1.14-.18.14s-.13-.07-.16-.15a.14.14,0,0,0-.16-.1l-.34.05C157.79,52.22,157.76,52.27,157.75,52.39Zm.75,1.5c-.09,0-.13-.06-.15-.14a5.8,5.8,0,0,0-.29-.82.23.23,0,0,1,0-.11c0-.07.12-.14.2-.14s.15.13.3.53a3.94,3.94,0,0,1,.16.53C158.68,53.84,158.58,53.89,158.5,53.89Zm1.33-1.2c0-.06-.05-.08-.1-.08h-.42c-.06,0-.07,0-.1.08s0,.07-.15.07-.17,0-.17-.14,0-.23,0-.34v-1c0-.1,0-.19,0-.29s.06-.29.28-.29H160c.11,0,.16,0,.16-.15v-.21c0-.11-.05-.15-.16-.15h-1.24c-.12,0-.12-.07-.12-.17s0-.17.12-.17H160c.12,0,.17-.05.18-.17a2.24,2.24,0,0,0,0-.41s0,0,0-.06,0-.08.1-.08l.27,0c.05,0,.15,0,.15.08s0,.06-.09.1-.08.13-.08.37.06.17.18.17H162c.12,0,.12.07.12.17s0,.17-.12.17H160.6c-.1,0-.15,0-.15.15v.21c0,.11,0,.15.15.15h.87c.2,0,.28.06.28.27v1.32c0,.11,0,.22,0,.34s0,.14-.17.14-.13,0-.15-.06-.05-.09-.12-.09h-.51c-.05,0-.1,0-.1.08a.22.22,0,0,0,0,.06A8.75,8.75,0,0,0,162,54.17c.07.06.11.09.11.14a.24.24,0,0,1-.19.19c-.1,0-.43-.34-.51-.42a7,7,0,0,1-.87-1.15.07.07,0,0,0,0,0s0,0,0,.06v.73c0,.29,0,.58,0,.88,0,.13,0,.25-.17.25s-.18-.1-.18-.24c0-.29,0-.59,0-.89V52.9s0-.06-.05-.06,0,0,0,0a7.08,7.08,0,0,1-1.25,1.48c-.06.05-.2.18-.27.18a.23.23,0,0,1-.19-.19c0-.06.1-.14.15-.18a7.13,7.13,0,0,0,1.33-1.41A.13.13,0,0,0,159.83,52.68Zm.31-1.52A.15.15,0,0,0,160,51h-.6a.14.14,0,0,0-.15.15v.17a.14.14,0,0,0,.15.15h.6a.15.15,0,0,0,.16-.15Zm-.77.63a.14.14,0,0,0-.15.15v.2a.14.14,0,0,0,.15.15h.6a.15.15,0,0,0,.16-.15V52a.15.15,0,0,0-.16-.15Zm1.91-.3a.15.15,0,0,0,.15-.15v-.17a.14.14,0,0,0-.15-.15h-.67a.14.14,0,0,0-.15.15v.17a.15.15,0,0,0,.15.15Zm-.83.66a.15.15,0,0,0,.15.15h.67a.15.15,0,0,0,.15-.15V52a.15.15,0,0,0-.15-.15h-.67a.14.14,0,0,0-.15.15Z"/><path class="cls-2" d="M165,49.53c.05.1.41.8.44.85a.17.17,0,0,0,.15.1,2.9,2.9,0,0,0,.84-.4s.12-.09.17-.09.21.19.21.26-.83.47-1,.52-.1,0-.1.11a.86.86,0,0,0,.11.23,8.77,8.77,0,0,0,1,1.57.22.22,0,0,1,.09.17.33.33,0,0,1-.26.26c-.08,0-.21-.1-.27-.15a3.14,3.14,0,0,0-1.57-.53.79.79,0,0,0-.87.75c0,.8,1,1,1.66,1H166c.06,0,.09,0,.09.08,0,.34-.21.3-.25.3-.83,0-2.18-.25-2.18-1.32a1.13,1.13,0,0,1,1.24-1.1,2.72,2.72,0,0,1,1.24.35.23.23,0,0,0,.09,0,0,0,0,0,0,0,0,.26.26,0,0,0-.06-.11c-.24-.35-.55-.89-.76-1.27a.18.18,0,0,0-.17-.12l-.08,0a8.83,8.83,0,0,1-1.62.26c-.17,0-.22-.29-.22-.31s0-.07.31-.07a6.63,6.63,0,0,0,1.34-.18c.06,0,.12,0,.12-.11a3.11,3.11,0,0,0-.28-.53,3.43,3.43,0,0,0-.26-.4.17.17,0,0,1-.06-.1c0-.08.3-.11.34-.11S164.94,49.47,165,49.53Z"/><path class="cls-2" d="M170.24,49.49c0,.05-.05.1-.08.13a4.18,4.18,0,0,0-.15.89.07.07,0,0,0,.06.07h.1c.08,0,.21.21.21.26s-.07.1-.11.17-.27.46-.32.55a.4.4,0,0,0,0,.21s0,.1.06.1,0,0,.06,0,.3-.3.39-.39c.37-.35.93-.94,1.46-.94a.54.54,0,0,1,.44.23,1.12,1.12,0,0,1,.08.51c0,.66-.08,1.32-.08,2,0,.26,0,.54.19.54a1.36,1.36,0,0,0,.73-.45s.05-.06.08-.06.15.25.15.33-.18.19-.24.24a1.47,1.47,0,0,1-.79.33c-.43,0-.47-.41-.47-.74,0-.66.07-1.32.07-2,0-.19,0-.53-.26-.53s-.65.32-.86.51a9.07,9.07,0,0,0-.9.88c-.1.1-.13.12-.13.26q0,.57,0,1.14c0,.23,0,.47,0,.7,0,.07,0,.12-.22.12s-.18,0-.18-.13c0-.49,0-1,0-1.49,0,0,0-.06,0-.06s-.18.22-.21.26c-.14.22-.42.69-.55.92,0,0,0,0-.06,0s-.26-.16-.26-.25a.24.24,0,0,1,.06-.12,11.16,11.16,0,0,0,1.05-1.8.3.3,0,0,0,0-.15c0-.16,0-.39,0-.54a.07.07,0,0,0-.08-.07h0a8.5,8.5,0,0,1-1,.34c-.13,0-.19-.3-.19-.34s.09-.08.15-.08a5.56,5.56,0,0,0,1-.24c.22-.06.19-.13.21-.33s0-.64,0-.85a1.27,1.27,0,0,0,0-.15V49.4s0-.08.06-.08S170.24,49.38,170.24,49.49Z"/><path class="cls-2" d="M176.95,49.5s-.05.07-.1.1a.2.2,0,0,0-.09.13c-.08.24-.13.48-.2.71a.42.42,0,0,0,0,.11.07.07,0,0,0,.07.06,6.74,6.74,0,0,0,1-.31.24.24,0,0,1,.1,0c.08,0,.07.09.07.15,0,.22,0,.24-.12.27a10.76,10.76,0,0,1-1.12.26c-.15,0-.17.08-.21.22a21.82,21.82,0,0,1-1.21,2.93c-.07.13-.12.24-.21.24s-.28-.11-.28-.2.06-.12.09-.15A15.11,15.11,0,0,0,176,51.17a.13.13,0,0,0,0-.05.07.07,0,0,0-.07-.07c-.06,0-.48,0-.75,0s-.32,0-.32-.29a.08.08,0,0,1,.08-.09s.29,0,.54,0l.48,0a.22.22,0,0,0,.16-.06,5.12,5.12,0,0,0,.29-1.23c0-.06,0-.15.08-.15S176.95,49.4,176.95,49.5Zm-.15,4.17A1.58,1.58,0,0,0,178,54a2.52,2.52,0,0,0,.85-.12h.05c.1,0,.1.17.1.24s0,.15-.08.18a4.54,4.54,0,0,1-.86.07,2.75,2.75,0,0,1-1.29-.24c-.09-.05-.31-.2-.31-.31s.15-.26.22-.26S176.77,53.64,176.79,53.67Zm.9-2.22a3.62,3.62,0,0,1,1.09.16c.06,0,.08,0,.08.11s0,.26-.14.26l-.11,0a2.76,2.76,0,0,0-.92-.14h-.26c-.11,0-.13,0-.13-.15S177.34,51.46,177.69,51.46Z"/><path class="cls-2" d="M184.5,51.54h.77c.13,0,.14.05.14.18s0,.2-.15.2h-1.77c-.17,0-.17.17-.19.28a3.43,3.43,0,0,1-.42,1.25,2.48,2.48,0,0,1-.94.86,3.07,3.07,0,0,1-.67.28c-.09,0-.26-.19-.26-.26s.09-.09.15-.11a3.3,3.3,0,0,0,.86-.37,2.26,2.26,0,0,0,.86-1.34,2.43,2.43,0,0,0,.06-.43.16.16,0,0,0-.15-.15h-2.31c-.13,0-.13-.08-.13-.19s0-.19.14-.19h4Zm-1-1.74.76,0c.13,0,.15.05.15.19s0,.19-.14.19h-2.93c-.12,0-.14-.06-.14-.19s0-.19.15-.19l.76,0Zm1.78.19a1.79,1.79,0,0,1,.27.35c0,.08-.15.21-.23.21s-.06,0-.09-.07-.28-.34-.42-.5-.05-.06-.05-.08.15-.19.21-.19S185.24,49.94,185.29,50Zm.49-.53a2.24,2.24,0,0,1,.28.37c0,.07-.15.21-.23.21s-.06,0-.09-.07a6.05,6.05,0,0,0-.42-.5s-.05-.05-.05-.08.15-.19.22-.19S185.73,49.42,185.78,49.47Z"/><path class="cls-2" d="M187.64,51.07a.18.18,0,0,0,.2-.18v-.62c0-.19,0-.3,0-.49,0,0,0-.06,0-.08s0-.06.08-.06.44,0,.44.12,0,.08-.07.1-.05.31-.05.41v.62a.18.18,0,0,0,.18.18h1.51a.18.18,0,0,0,.19-.2v-.17a8.38,8.38,0,0,0,0-1,.24.24,0,0,1,0-.08s0-.06.07-.06l.29,0c.05,0,.14,0,.14.08s0,0-.05.08a2.44,2.44,0,0,0-.05.7c0,.12,0,.24,0,.35v0c0,.15.08.22.18.22h1c.13,0,.14.06.14.19s0,.19-.14.19h-1c-.21,0-.19.22-.19.27a3.92,3.92,0,0,1-.37,1.91,2.67,2.67,0,0,1-1.21,1l-.08,0c-.07,0-.26-.15-.26-.23s.08-.09.16-.12c1.29-.57,1.4-1.32,1.4-2.61,0-.12-.06-.21-.18-.21h-1.5a.18.18,0,0,0-.18.18v.91c0,.08,0,.37,0,.41s-.06.17-.2.17-.19-.06-.19-.19,0-.26,0-.39V51.6a.17.17,0,0,0-.18-.18h-1c-.13,0-.14-.08-.14-.19s0-.19.14-.19h1Zm3.48-1.39c.06,0,.27.23.32.28s.28.29.28.34a.31.31,0,0,1-.23.21s-.06,0-.08-.06A5.78,5.78,0,0,0,191,50s-.05-.05-.05-.08A.32.32,0,0,1,191.12,49.68Zm.55-.48c.06,0,.27.22.32.28s.28.29.28.34A.31.31,0,0,1,192,50S192,50,192,50a6.42,6.42,0,0,0-.45-.49s-.05-.05-.05-.08A.32.32,0,0,1,191.68,49.2Z"/><path class="cls-2" d="M195.35,53.72c0,.27,0,.53,0,.8s-.06.17-.23.17-.18,0-.18-.17,0-.53,0-.8V51.59c0-.05,0-.16-.09-.16a.28.28,0,0,0-.15.08,9.94,9.94,0,0,1-1.44.92,1.48,1.48,0,0,1-.31.14c-.08,0-.22-.16-.22-.23s.06-.1.12-.12a8.37,8.37,0,0,0,3.29-2.75s0-.06.08-.06a1.16,1.16,0,0,1,.27.15s.12.07.12.12-.05.06-.09.08-.1,0-.15.12a8.29,8.29,0,0,1-.94,1c-.07.07-.11.1-.11.21Z"/><path class="cls-2" d="M202.92,51.25c0,.08-.31.38-.39.46A12.6,12.6,0,0,1,201,53a10.33,10.33,0,0,1-1.87,1.07c-.16.07-.16.08-.22.2a.09.09,0,0,1-.08,0c-.06,0-.1-.08-.14-.17a1.35,1.35,0,0,1-.12-.26c0-.05.1-.07.16-.09a8.39,8.39,0,0,0,2.53-1.43A10.93,10.93,0,0,0,202.66,51a.14.14,0,0,1,.1-.07C202.84,51,202.92,51.2,202.92,51.25Zm-4-1.36.63.44c.15.11.31.22.31.29s-.12.25-.22.25-.22-.13-.28-.18c-.22-.17-.45-.35-.69-.51,0,0-.08-.05-.08-.1s.11-.24.21-.24A.25.25,0,0,1,198.94,49.89Z"/><path class="cls-2" d="M205.06,49.85c.15.07.23.1.23.16s0,.06-.09.09-.16.19-.23.38a5.25,5.25,0,0,0-.3,1.81,3.33,3.33,0,0,0,.19,1.21s0,.07.08.07.09-.08.22-.37.1-.22.15-.22.12,0,.12.08a3.88,3.88,0,0,1-.11.38,2.93,2.93,0,0,0-.12.57.85.85,0,0,0,0,.17v.06c0,.08-.26.19-.29.19s-.2-.24-.24-.32a4.43,4.43,0,0,1-.37-1.88,7,7,0,0,1,.35-2.09c0-.1.06-.19.08-.29s0-.1.08-.1A2.06,2.06,0,0,1,205.06,49.85Zm1,3.3a1.22,1.22,0,0,0,1.07.48,5,5,0,0,0,1.41-.21l.11,0c.08,0,.07.08.07.15s0,.26-.06.29a6.84,6.84,0,0,1-1.45.18,1.8,1.8,0,0,1-1.35-.48s-.1-.1-.1-.15.12-.3.21-.3A.11.11,0,0,1,206.1,53.15Zm.28-2.87a3.21,3.21,0,0,0,.85.11,4.26,4.26,0,0,0,1-.13l.11,0c.08,0,.08.13.08.21s0,.17,0,.19a5.85,5.85,0,0,1-1.1.12,4.27,4.27,0,0,1-1-.13c-.07,0-.07-.1-.07-.17s0-.21.09-.21Z"/><path class="cls-2" d="M211.83,53.76a.86.86,0,1,1-.86-.86A.86.86,0,0,1,211.83,53.76Zm-1.47,0a.61.61,0,1,0,.61-.61A.61.61,0,0,0,210.36,53.76Z"/><path class="cls-2" d="M213.7,54.3a.52.52,0,0,0-.06.15s0,.08,0,.13a.07.07,0,0,1-.06.07s-.18-.11-.22-.13-.12-.08-.12-.13.1-.17.13-.21a13.49,13.49,0,0,0,1-1.79c0-.06.05-.12.1-.12s.23.1.23.19A19.9,19.9,0,0,1,213.7,54.3Zm.24-3.33c.09.06.44.3.44.4a.22.22,0,0,1-.18.18.18.18,0,0,1-.12-.06,7.67,7.67,0,0,0-.7-.51s-.12-.06-.12-.13a.22.22,0,0,1,.17-.19A2.42,2.42,0,0,1,213.94,51Zm.64-.86a.19.19,0,0,1-.12-.05c-.23-.18-.47-.35-.71-.5-.06,0-.12-.06-.12-.13s.09-.19.17-.19a2.88,2.88,0,0,1,.52.3c.08.06.44.29.44.38A.21.21,0,0,1,214.58,50.1Zm3.71,4.1a.13.13,0,0,0,.15.15h.27c.12,0,.12.08.12.17s0,.17-.12.17h-4.16c-.12,0-.12-.07-.12-.17s0-.17.12-.17H215c.12,0,.17-.06.17-.18V53c0-.1,0-.21,0-.31s.06-.3.29-.3H218c.24,0,.3.06.3.3s0,.21,0,.31Zm-.67-2.48h-1.78c-.06,0-.08,0-.12.1s-.1.06-.16.06-.18,0-.18-.15,0-.26,0-.38V50.05c0-.12,0-.23,0-.34s.06-.28.28-.28h2.11c.21,0,.29.06.29.28v1.63c0,.13,0,.26,0,.39s0,.14-.18.14-.13,0-.16-.06S217.68,51.73,217.62,51.72Zm-1.55,1.16a.17.17,0,0,0-.18-.17h-.22a.17.17,0,0,0-.18.17v1.3a.17.17,0,0,0,.18.17h.22a.17.17,0,0,0,.18-.17Zm1.48-2.46a.18.18,0,0,0,.18-.18v-.32a.17.17,0,0,0-.18-.17h-1.64a.17.17,0,0,0-.18.17v.32a.18.18,0,0,0,.18.18Zm-1.82.8a.17.17,0,0,0,.18.18h1.64a.18.18,0,0,0,.18-.18v-.33a.17.17,0,0,0-.18-.17h-1.64a.17.17,0,0,0-.18.17ZM217,52.88a.17.17,0,0,0-.17-.17h-.26a.17.17,0,0,0-.17.17v1.3a.17.17,0,0,0,.17.17h.26a.17.17,0,0,0,.17-.17Zm.76,1.47a.17.17,0,0,0,.17-.17v-1.3a.17.17,0,0,0-.17-.17h-.24a.17.17,0,0,0-.18.17v1.3a.17.17,0,0,0,.17.17Z"/><path class="cls-2" d="M221.12,50.73h.33a.71.71,0,0,1,.27,0,.33.33,0,0,1,.14.26,3,3,0,0,1-.21.62,6.54,6.54,0,0,1-.91,1.51c-.17.21-.8.87-1.05.87a.2.2,0,0,1-.19-.18c0-.1.15-.18.22-.23a4.9,4.9,0,0,0,1.7-2.42c0-.15-.21-.12-.31-.12h-1.25c-.12,0-.13-.07-.13-.18s0-.19.13-.19h1.25Zm2.08.77a.15.15,0,0,0,.1,0,8.6,8.6,0,0,0,1.24-1.07s0-.05.08-.05a.82.82,0,0,1,.31.32s0,.06-.06.06h-.1l-.07,0c-.24.21-.29.3-.71.64l-.51.39a.17.17,0,0,0-.08.13.22.22,0,0,0,0,.1,6.25,6.25,0,0,0,1.63,1.68c.05,0,.16.1.16.16s-.1.21-.19.21-.83-.6-1-.75a7,7,0,0,1-1.44-2.22,0,0,0,0,0,0,0,0,0,0,0,0,0,0v2.65c0,.15,0,.31,0,.46a.49.49,0,0,1-.28.51,2,2,0,0,1-.75.11c-.17,0-.28,0-.28-.26,0-.08,0-.12.11-.12h.33c.53,0,.52-.19.52-.66V50.06a7.43,7.43,0,0,0,0-.78s0,0,0-.06,0-.08.1-.08l.29,0c.05,0,.15,0,.15.08s0,.06-.09.09-.09.17-.08.67a.71.71,0,0,0,0,.28,7.34,7.34,0,0,0,.49,1.13A.15.15,0,0,0,223.2,51.5Z"/><path class="cls-2" d="M227.12,49.85c.15.07.23.1.23.16s0,.06-.09.09-.16.19-.23.38a5.25,5.25,0,0,0-.3,1.81,3.33,3.33,0,0,0,.19,1.21s0,.07.08.07.09-.08.22-.37.1-.22.15-.22.12,0,.12.08a3.88,3.88,0,0,1-.11.38,2.92,2.92,0,0,0-.12.57.85.85,0,0,0,0,.17v.06c0,.08-.26.19-.29.19s-.2-.24-.24-.32a4.43,4.43,0,0,1-.37-1.88,7,7,0,0,1,.35-2.09c0-.1.06-.19.08-.29s0-.1.08-.1A2,2,0,0,1,227.12,49.85Zm1,3.3a1.22,1.22,0,0,0,1.07.48,5,5,0,0,0,1.41-.21l.11,0c.08,0,.07.08.07.15s0,.26-.06.29a6.84,6.84,0,0,1-1.45.18,1.8,1.8,0,0,1-1.35-.48s-.1-.1-.1-.15.12-.3.21-.3A.11.11,0,0,1,228.17,53.15Zm.28-2.87a3.21,3.21,0,0,0,.85.11,4.26,4.26,0,0,0,1-.13l.11,0c.08,0,.08.13.08.21s0,.17,0,.19a5.85,5.85,0,0,1-1.1.12,4.27,4.27,0,0,1-1-.13c-.07,0-.07-.1-.07-.17s0-.21.09-.21Z"/><path class="cls-2" d="M233.13,49.87s.1,0,.1.1,0,.06-.09.09a.24.24,0,0,0-.13.13,3.32,3.32,0,0,0-.18.58,7.48,7.48,0,0,0-.19,1.61c0,.16,0,1.18.21,1.18a.07.07,0,0,0,.06,0c0-.05.15-.39.19-.46s.08-.22.15-.22.12,0,.12.09a.42.42,0,0,1,0,.08,3.25,3.25,0,0,0-.26,1.19v.06a.13.13,0,0,1-.1.15.61.61,0,0,1-.17.06c-.08,0-.13-.12-.16-.17a4.57,4.57,0,0,1-.37-1.89,7.32,7.32,0,0,1,.3-2c0-.17.1-.35.15-.52s0-.1.08-.1A2.31,2.31,0,0,1,233.13,49.87Zm2.64-.15a.06.06,0,0,1,0,.06.16.16,0,0,1-.06.1c-.06.08-.06.19-.06.47s0,.46.13.46a4.25,4.25,0,0,0,.73-.19l.1,0c.07,0,.1.11.12.2a.35.35,0,0,1,0,.1c0,.07,0,.09-.15.12s-.52.1-.71.12-.22,0-.22.19.05,1.29.06,1.57a.19.19,0,0,0,.13.21c.17.07,1,.47,1,.65s-.13.28-.22.28-.12-.08-.15-.11-.51-.46-.64-.46-.06.06-.06.11c0,.5-.4.67-.85.67s-1-.19-1-.71.47-.68.91-.68a3.53,3.53,0,0,1,.46,0c.08,0,.1-.06.1-.12,0-.3,0-1-.05-1.27,0-.11,0-.29-.13-.29h-.06c-.18,0-.45,0-.63,0s-.66,0-.72,0-.1-.13-.1-.25,0-.13.08-.13h.12c.26,0,.58,0,.84,0,.42,0,.56,0,.56-.15s-.06-.83-.1-1c0,0,0,0,0-.05a.07.07,0,0,1,.08-.07A4,4,0,0,1,235.77,49.72Zm-1.46,3.82c0,.28.39.38.61.38s.53-.14.53-.5a.16.16,0,0,0-.08-.15,1.32,1.32,0,0,0-.46-.08C234.71,53.19,234.31,53.27,234.31,53.54Z"/><path class="cls-2" d="M140.31,63.74c.2,0,.2-.24.2-.62s0-.62-.15-.62h-.08a11.22,11.22,0,0,1-1.47.12c-.19,0-.25-.29-.25-.29s.07-.07.12-.07h.08a10.35,10.35,0,0,0,1.84-.17,4.38,4.38,0,0,0,1.18-.37.19.19,0,0,1,.11,0,.78.78,0,0,1,.33.38s0,.06-.08.06H142a.68.68,0,0,0-.2.05c-.24.08-.48.15-.71.2s-.22,0-.22.17,0,0,0,.05a4,4,0,0,1,0,.49c0,.21,0,.44,0,.55a.12.12,0,0,0,.13.12h1.88c.13,0,.15,0,.15.19s0,.19-.15.19l-.76,0h-1.18c-.17,0-.18.16-.21.28a3.14,3.14,0,0,1-1.1,1.75,3.52,3.52,0,0,1-.8.49c-.07,0-.28-.16-.28-.24s.07-.09.14-.13a2.92,2.92,0,0,0,1.1-.8,3,3,0,0,0,.5-.85,2.47,2.47,0,0,0,.11-.4.1.1,0,0,0-.1-.1h-1.59l-.77,0c-.13,0-.14-.08-.14-.19s0-.19.14-.19h2.39Z"/><path class="cls-2" d="M146.07,63.92a.17.17,0,0,0,.15-.22l-.06-.3a5.17,5.17,0,0,0-.15-.62.26.26,0,0,1,0-.1c0-.08.11-.08.27-.08s.18,0,.18.08a.11.11,0,0,1,0,.05.13.13,0,0,0,0,.06,4.49,4.49,0,0,0,.1.53l.06.31a.17.17,0,0,0,.21.14l1.24-.26.48-.1c.08,0,.28.17.28.26s-.06.11-.1.15a9.9,9.9,0,0,0-.73,1c-.08.12-.12.18-.21.18s-.24-.06-.24-.15.05-.09.09-.13a6.91,6.91,0,0,0,.61-.87.07.07,0,0,0-.07-.07l-.1,0-1.18.24a.18.18,0,0,0-.15.18s0,0,0,0l.27,1.32c0,.15.18.73.18.84s-.1.15-.21.15-.15-.12-.2-.4l-.1-.52-.28-1.32a.16.16,0,0,0-.17-.14h0l-.61.13-.64.13c-.11,0-.13-.15-.13-.23s.06-.1.28-.13l.42-.08Z"/><path class="cls-2" d="M153.19,65.77c0,.27,0,.53,0,.8s-.06.17-.23.17-.18,0-.18-.17,0-.53,0-.8V63.64c0-.05,0-.16-.09-.16a.28.28,0,0,0-.15.08,9.93,9.93,0,0,1-1.44.92,1.47,1.47,0,0,1-.31.14c-.08,0-.22-.16-.22-.23s.06-.1.12-.12A8.37,8.37,0,0,0,154,61.52s0-.06.08-.06a1.15,1.15,0,0,1,.27.15s.12.07.12.12-.05.06-.09.08-.1,0-.15.12a8.29,8.29,0,0,1-.94,1,.25.25,0,0,0-.11.21Z"/><path class="cls-2" d="M157.46,62.19c.05,0,.11,0,.11.08s0,.05-.05.08a.25.25,0,0,0,0,.17,11.62,11.62,0,0,1,0,1.25,3.44,3.44,0,0,1-1.14,2.31.11.11,0,0,1-.08,0c-.07,0-.32-.1-.32-.19s.08-.1.13-.13a3.35,3.35,0,0,0,1.09-2.88,4,4,0,0,0,0-.61s0-.06,0-.08a.06.06,0,0,1,.07-.07A2.51,2.51,0,0,1,157.46,62.19Zm1.48,3.21s0,.12.06.12.13-.06.18-.1A17.49,17.49,0,0,0,161,64s.07-.08.11-.08.19.17.19.24-.1.13-.13.17a23.21,23.21,0,0,1-1.95,1.56l-.08.06S159,66,159,66a1,1,0,0,1-.28-.12c-.08-.05-.14-.07-.14-.16s0-.39,0-.77V63a6,6,0,0,0,0-.84.53.53,0,0,1,0-.1.06.06,0,0,1,.06-.06,2.37,2.37,0,0,1,.36.08s.08,0,.08.08,0,.05,0,.08,0,.18,0,.4Z"/><path class="cls-2" d="M164.11,65.54c0,.32,0,.64,0,1s0,.28-.21.28-.21-.08-.21-.28,0-.64,0-1V62.45a6.88,6.88,0,0,0,0-.81.88.88,0,0,1,0-.12s0-.07.06-.07.46.06.46.15,0,.06,0,.08a3,3,0,0,0,0,.77Zm1.18-1.7c.1.07.51.39.51.49a.27.27,0,0,1-.21.23.19.19,0,0,1-.13-.06,7.76,7.76,0,0,0-1-.82c-.05,0-.12-.06-.12-.13s.11-.23.19-.23A4.1,4.1,0,0,1,165.29,63.84Zm.56-1.62a1.89,1.89,0,0,1,.28.35c0,.07-.15.21-.23.21s-.07,0-.09-.06a6.63,6.63,0,0,0-.43-.51s-.05-.05-.05-.08a.32.32,0,0,1,.22-.19C165.59,61.92,165.8,62.16,165.84,62.21Zm.6-.38a2.41,2.41,0,0,1,.27.35c0,.08-.15.21-.22.21s-.07,0-.1-.07a5.39,5.39,0,0,0-.43-.5s-.05-.05-.05-.08a.32.32,0,0,1,.21-.19C166.2,61.55,166.4,61.78,166.45,61.84Z"/><path class="cls-2" d="M171.83,62.34h.47c.3,0,.37.07.37.31s0,.33,0,.49v2.18c0,.23,0,.44,0,.66s0,.17-.23.17-.17-.07-.17-.24-.1-.19-.28-.19h-2.75c-.18,0-.28,0-.28.19s0,.24-.17.24-.23,0-.23-.17,0-.44,0-.66V63.14c0-.16,0-.32,0-.49s.05-.32.36-.32h2.9Zm-2.71.35a.18.18,0,0,0-.18.18v2.31a.18.18,0,0,0,.18.18h3a.18.18,0,0,0,.18-.18V62.87a.17.17,0,0,0-.18-.18Z"/><path class="cls-2" d="M175.46,63.78a2.37,2.37,0,0,1,.24.46c0,.11-.17.17-.23.17s-.08,0-.11-.09a6.92,6.92,0,0,0-.41-.69.17.17,0,0,1,0-.11c0-.08.12-.16.2-.16S175.36,63.61,175.46,63.78Zm3-.46a.11.11,0,0,1-.06.1.1.1,0,0,0,0,.06,6.91,6.91,0,0,1-.38,1A3.37,3.37,0,0,1,176.64,66a3.61,3.61,0,0,1-1,.42c-.1,0-.21-.15-.21-.23s.07-.1.13-.11a3.21,3.21,0,0,0,1.32-.63,3.5,3.5,0,0,0,.88-1.16,3.81,3.81,0,0,0,.33-1.06c0-.05,0-.1.08-.1S178.47,63.22,178.47,63.33Zm-1.64.1a2.36,2.36,0,0,1,.25.46c0,.1-.18.17-.23.17s-.1-.06-.13-.12a6.69,6.69,0,0,0-.4-.67.24.24,0,0,1,0-.1c0-.08.13-.17.2-.17S176.7,63.21,176.83,63.42Z"/><path class="cls-2" d="M183.68,62.51a3.43,3.43,0,0,0,.57,0h.06a.58.58,0,0,1,.29.3c0,.06-.1.15-.26.46a6.53,6.53,0,0,1-2.91,3.21,1.33,1.33,0,0,1-.34.15c-.08,0-.34-.12-.34-.21s.09-.09.13-.11a6.11,6.11,0,0,0,1-.57A5.65,5.65,0,0,0,183.46,64a5.24,5.24,0,0,0,.55-1.09c0-.1-.16-.08-.31-.08h-1.47a.27.27,0,0,0-.3.15c-.13.19-.85,1.08-1,1.08s-.28-.1-.28-.19a.1.1,0,0,1,.05-.08,6,6,0,0,0,1.67-2.22c0-.06,0-.13.09-.13s.44.12.44.21,0,.06-.06.08a.31.31,0,0,0-.18.18,3.54,3.54,0,0,1-.22.39.19.19,0,0,0,0,.08.09.09,0,0,0,.1.1Z"/><path class="cls-2" d="M188.45,61.72c.06,0,.17,0,.17.1s0,.07-.06.1-.09.16-.12.31-.06.35-.09.52a.3.3,0,0,0,0,.07.1.1,0,0,0,.1.1h0s.26,0,.44,0c.6,0,.81.37.81.94a4.6,4.6,0,0,1-.36,1.93,1.18,1.18,0,0,1-1.09.66c-.25,0-.31-.28-.31-.36s0-.06,0-.06a2.61,2.61,0,0,0,.33,0,.76.76,0,0,0,.72-.52,3.9,3.9,0,0,0,.3-1.51c0-.42,0-.79-.55-.79s-.6.12-.62.23a7.28,7.28,0,0,1-1.08,2.38,6.64,6.64,0,0,1-.42.56.14.14,0,0,1-.1.05c-.07,0-.25-.13-.25-.21a.22.22,0,0,1,.08-.13A5.88,5.88,0,0,0,187.71,64a4.81,4.81,0,0,0,.15-.53.07.07,0,0,0-.07-.06l-.12,0a7.88,7.88,0,0,0-.9.27l-.07,0c-.08,0-.21-.28-.21-.36s.08,0,.43-.12.58-.13.88-.19.18-.1.21-.28a5.77,5.77,0,0,0,.07-.8.83.83,0,0,0,0-.22v0a.06.06,0,0,1,.06-.06A2.47,2.47,0,0,1,188.45,61.72Zm2.69,2.18c0,.07-.19.2-.28.2s-.1-.06-.13-.12a4.08,4.08,0,0,0-.82-1.3.14.14,0,0,1-.05-.1c0-.1.21-.18.26-.18S191.14,63.74,191.14,63.9Zm-.66-2.21c.06,0,.27.22.32.28s.28.28.28.34a.31.31,0,0,1-.23.21s-.06,0-.08-.06a6.61,6.61,0,0,0-.45-.49.13.13,0,0,1-.05-.08A.31.31,0,0,1,190.48,61.69Zm.9-.13c.05.05.28.28.28.34a.31.31,0,0,1-.23.21s-.06,0-.08-.06-.29-.33-.44-.49-.06,0-.06-.08.15-.2.21-.2S191.33,61.5,191.38,61.56Z"/><path class="cls-2" d="M194.6,64.06a.2.2,0,0,1,.05.1.24.24,0,0,1-.19.19c-.1,0-.19-.15-.23-.23s-.22-.37-.31-.52a0,0,0,0,0,0,0s0,0,0,.05v2.13c0,.3,0,.59,0,.89s0,.25-.18.25-.19-.1-.19-.24,0-.59,0-.89V63.67s0,0,0,0h0a8.31,8.31,0,0,1-.55,1.55c0,.06-.08.14-.16.14s-.22-.1-.22-.17a.27.27,0,0,1,.05-.11,10.55,10.55,0,0,0,.83-2.14.11.11,0,0,0,0,0c0-.09-.06-.12-.13-.12h-.51c-.11,0-.12-.08-.12-.17s0-.17.12-.17h.55c.13,0,.17-.06.18-.18v-.22a5.51,5.51,0,0,0,0-.77.23.23,0,0,1,0-.06c0-.06,0-.08.1-.08h.18c.15,0,.27,0,.27.09s0,.06-.09.1-.08.18-.08.72v.22c0,.12.05.18.17.18h.52c.12,0,.12.08.12.17s0,.17-.12.17H194c-.06,0-.1,0-.12.08a.3.3,0,0,0,0,.1A7.71,7.71,0,0,0,194.6,64.06Zm1.17,1.62a.12.12,0,0,0-.13.07c-.13.19-.81,1-1,1s-.21-.09-.21-.17.08-.12.13-.16a4.28,4.28,0,0,0,.86-1s0-.05.07-.05a1.56,1.56,0,0,1,.29.12c.05,0,.08,0,.08.08S195.84,65.68,195.77,65.68Zm-.29-.55-.74,0c-.12,0-.13-.07-.13-.17s0-.18.13-.18l.74,0h2l.75,0c.12,0,.13.07.13.18s0,.17-.13.17l-.75,0h-.64c-.13,0-.18.05-.18.18V66c0,.12,0,.23,0,.35,0,.48-.5.49-.87.49-.06,0-.17,0-.21-.05a.44.44,0,0,1-.06-.21c0-.07.05-.1.11-.1h.24c.41,0,.42-.08.42-.46v-.76c0-.12-.05-.18-.18-.18Zm1.59-3c0,.13.05.18.17.18h.47c.15,0,.27,0,.27.2v1c0,.19-.13.21-.28.21h-2.46c-.15,0-.28,0-.28-.2v-1c0-.18.12-.21.26-.21h.46c.13,0,.17-.05.18-.18v-.22c0-.12-.05-.17-.18-.17h-.84c-.12,0-.12-.07-.12-.17s0-.17.12-.17h3.28c.12,0,.13.05.13.17s0,.17-.12.17h-.88c-.12,0-.17.05-.17.17Zm-1.12,2.27h-.66c-.12,0-.12-.08-.12-.17s0-.17.12-.17h2.35c.12,0,.13.06.13.17s0,.17-.13.17h-1.69Zm-.49-1.8a.17.17,0,0,0-.17.18v.44a.17.17,0,0,0,.17.17h.22a.18.18,0,0,0,.18-.17V62.8a.17.17,0,0,0-.18-.18Zm.9-.87a.17.17,0,0,0-.18.17v.22a.17.17,0,0,0,.18.18h.22a.17.17,0,0,0,.17-.18v-.22a.17.17,0,0,0-.17-.17Zm-.18,1.49a.17.17,0,0,0,.18.17h.22a.17.17,0,0,0,.17-.17V62.8a.17.17,0,0,0-.17-.18h-.22a.17.17,0,0,0-.18.18Zm.89,0a.17.17,0,0,0,.17.17h.24a.17.17,0,0,0,.18-.17V62.8a.17.17,0,0,0-.17-.18h-.24a.17.17,0,0,0-.17.18Zm1.09,3.56c-.06,0-.1-.05-.13-.1a9.59,9.59,0,0,0-.82-.93s-.08-.08-.08-.14a.18.18,0,0,1,.32-.09c.12.12.29.3.4.42a3.26,3.26,0,0,1,.51.66C198.36,66.72,198.24,66.8,198.16,66.8Z"/><path class="cls-2" d="M202.63,65.32H205c.12,0,.14.05.14.17s0,.17-.13.17h-2.33c-.13,0-.18.05-.18.18v.29c0,.19,0,.37,0,.56s0,.22-.18.22-.19-.06-.19-.21,0-.38,0-.57v-.29c0-.13-.05-.18-.18-.18h-2.33c-.12,0-.12-.06-.12-.17s0-.17.12-.17H202c.1,0,.15,0,.15-.15a1.41,1.41,0,0,0,0-.27v-.06c0-.06,0-.08.09-.08h.18c.15,0,.26,0,.26.08s0,.05-.09.09-.07.1-.07.22S202.52,65.32,202.63,65.32Zm-2.33-2.47a.17.17,0,0,1-.12-.06c-.13-.1-.4-.29-.53-.37s-.12-.07-.12-.13a.22.22,0,0,1,.17-.19,1.34,1.34,0,0,1,.34.2c.21.14.43.28.43.37A.22.22,0,0,1,200.3,62.86Zm-.22,1.82a.31.31,0,0,0-.06.14s0,.08,0,.12,0,.08-.06.08a.32.32,0,0,1-.14-.07c-.05,0-.21-.13-.21-.19s0-.08.06-.11a6.9,6.9,0,0,0,.81-1.38c0-.07.05-.12.1-.12s.22.09.22.17A10.69,10.69,0,0,1,200.08,64.68Zm.69-2.68a.17.17,0,0,1-.12-.06,5.93,5.93,0,0,0-.53-.37s-.12-.07-.12-.13a.22.22,0,0,1,.17-.19,1.93,1.93,0,0,1,.44.26c.13.09.34.21.34.31A.21.21,0,0,1,200.77,62Zm1.16,0c0,.09.07.1.12.1h.78a.25.25,0,0,0,.26-.15,4.16,4.16,0,0,0,.32-.67s0-.06.06-.06.34.15.34.22,0,0-.09.05a.12.12,0,0,0-.1.06c-.06.14-.13.27-.21.4a.12.12,0,0,0,0,.06c0,.06.05.08.1.09h1.3c.11,0,.12.05.12.16s0,.16-.12.16h-1.31c-.11,0-.15.05-.15.15v.14c0,.1,0,.15.15.15h1.09c.11,0,.12.05.12.16s0,.16-.12.16h-1.09c-.11,0-.15.05-.15.15v.15c0,.11,0,.15.15.15h1.08c.11,0,.12.05.12.17s0,.16-.12.16h-1.08c-.11,0-.15,0-.15.15v.15c0,.1,0,.15.15.15h1.41c.12,0,.13,0,.13.17s0,.17-.13.17h-3c-.24,0-.31-.06-.31-.28s0-.22,0-.34V62.84s0-.06,0-.06a.06.06,0,0,0,0,0c-.06.1-.27.46-.38.46s-.2-.07-.2-.14.05-.1.07-.13a5.67,5.67,0,0,0,.87-1.65c0-.1,0-.17.09-.17l.12,0c.14,0,.26.06.26.12s0,.05-.07.06-.08,0-.1.09-.12.33-.19.46S201.93,62,201.93,62Zm.93.85a.15.15,0,0,0,.15-.15v-.14a.15.15,0,0,0-.15-.15h-.81a.15.15,0,0,0-.15.15v.14a.15.15,0,0,0,.15.15Zm-1,.6a.15.15,0,0,0,.15.15h.81a.15.15,0,0,0,.15-.15v-.15a.15.15,0,0,0-.15-.15h-.81a.15.15,0,0,0-.15.15ZM203,64a.15.15,0,0,0-.15-.15h-.81a.15.15,0,0,0-.15.15v.15a.15.15,0,0,0,.15.15h.81a.15.15,0,0,0,.15-.15Z"/><path class="cls-2" d="M208.49,65.15a.25.25,0,0,0-.14.27v.64c0,.09,0,.15.14.15h0l1.27-.2c.1,0,.12.1.12.17s-.06.15-.18.17c-.79.15-1.6.26-2.4.35-.19,0-.19,0-.22.11s0,0-.06,0-.07,0-.1-.15a2.35,2.35,0,0,1-.07-.25c0-.08.08-.07.22-.08l.77-.08c.13,0,.17-.08.17-.2v-.49c0-.06,0-.12-.1-.12l-.06,0a10,10,0,0,1-1.2.48,1.07,1.07,0,0,1-.19.05c-.09,0-.16-.13-.16-.21s.12-.13.19-.15a6.53,6.53,0,0,0,2.09-1,.08.08,0,0,0,0-.05s0-.05-.07-.05h-2.06c-.12,0-.13-.07-.13-.17s0-.17.13-.17h2.33c.12,0,.17,0,.17-.17a.45.45,0,0,0,0-.16.84.84,0,0,1,0-.17c0-.06,0-.08.1-.08h.18c.14,0,.26,0,.26.09s0,.06-.09.09-.08.11-.08.21.06.17.17.17h2.36c.12,0,.12.06.12.17s0,.17-.12.17h-2.12c-.06,0-.12,0-.12.09a.1.1,0,0,0,0,.06,2.83,2.83,0,0,0,.37.54.17.17,0,0,0,.14.07.16.16,0,0,0,.11,0,4.55,4.55,0,0,0,.55-.42.12.12,0,0,1,.08,0,.79.79,0,0,1,.27.33.05.05,0,0,1-.05.05H211a.1.1,0,0,0-.07,0l-.44.31a.12.12,0,0,0-.06.11s0,.06.06.1a4,4,0,0,0,1.29.72c.06,0,.18.06.18.15s-.07.22-.15.22a4.25,4.25,0,0,1-1-.46,4,4,0,0,1-1.48-1.61c0-.05,0-.08-.11-.08a.19.19,0,0,0-.1,0A6.69,6.69,0,0,1,208.49,65.15Zm-.78-3.21a4,4,0,0,0,0-.63.24.24,0,0,1,0-.06c0-.06,0-.08.1-.08H208c.14,0,.26,0,.26.09s0,.06-.09.09-.08.15-.08.58v1.12c0,.24,0,.48,0,.71s0,.24-.18.24-.19-.08-.19-.23,0-.4,0-.6,0-.1-.08-.1l-.06,0-.7.44s0,.06,0,.1,0,.09-.07.09a1,1,0,0,1-.3-.32c0-.05.11-.09.26-.17s.57-.34.85-.53a.26.26,0,0,0,.15-.27Zm-.53.51a.14.14,0,0,1-.13-.09,4.88,4.88,0,0,0-.42-.64.2.2,0,0,1-.06-.12c0-.09.12-.16.21-.16s.22.2.37.41a1.6,1.6,0,0,1,.24.44C207.38,62.41,207.24,62.45,207.18,62.45Zm2.65.08c0-.12-.05-.17-.17-.17h-1.2c-.12,0-.13-.07-.13-.17s0-.17.13-.17h1.2c.12,0,.17-.05.17-.18v-.12c0-.15,0-.29,0-.44s0,0,0-.06,0-.08.1-.08h.18c.15,0,.26,0,.26.09s0,.06-.09.09-.09.15-.08.51c0,.13.05.18.18.18h1.4c.12,0,.13.05.13.17s0,.17-.13.17h-1.41c-.13,0-.18.05-.18.17v.55c0,.13.05.18.18.18h1.11c.12,0,.13.06.13.17s0,.17-.13.17l-.73,0h-1.27l-.73,0c-.12,0-.12-.07-.12-.17s0-.17.12-.17h.93c.12,0,.17-.05.17-.18Z"/><path class="cls-2" d="M213.5,64.12a.23.23,0,0,1-.17.12c-.07,0-.2-.09-.2-.17s.06-.12.1-.16a6.41,6.41,0,0,0,1.29-2.63c0-.05,0-.12.09-.12s.39.08.39.17,0,.07-.08.09-.1.1-.13.21a6.55,6.55,0,0,1-.46,1.18s0,0,0,0a.06.06,0,0,0,.06.06s.12,0,.12.08,0,.06-.09.09-.08.16-.08.66v2.09c0,.27,0,.54,0,.81s0,.25-.18.25-.19-.1-.19-.24,0-.55,0-.82V63.61s0-.06,0-.06a0,0,0,0,0,0,0A5.85,5.85,0,0,1,213.5,64.12Zm1.33-.87c-.12,0-.12-.08-.12-.17s0-.18.13-.18l.74,0h.23c.13,0,.17-.05.17-.18v-.31c0-.12-.05-.17-.17-.17H215c-.12,0-.13-.07-.13-.17s0-.17.13-.17h.76c.12,0,.17-.05.17-.17a2.9,2.9,0,0,0,0-.39s0,0,0-.06,0-.08.1-.08h.18c.14,0,.26,0,.26.09s0,.06-.09.09-.09.12-.08.35.06.17.18.17H217c.12,0,.17-.05.17-.17a2,2,0,0,0,0-.39.19.19,0,0,1,0-.06c0-.07,0-.08.1-.08h.18c.15,0,.27,0,.27.09s0,.06-.09.09-.09.11-.08.35.06.17.17.17h.88c.12,0,.13.06.13.17s0,.17-.13.17h-.88c-.12,0-.17.05-.17.17v.31c0,.13,0,.17.17.18H218l.73,0c.12,0,.13.07.13.18s0,.17-.13.17l-.73,0h-2.38c-.12,0-.18.05-.18.18a7.89,7.89,0,0,1-.51,3.13c-.08.21-.13.33-.23.33a.23.23,0,0,1-.22-.19.84.84,0,0,1,.08-.18,7.28,7.28,0,0,0,.55-3.12c0-.09-.05-.13-.15-.13Zm1.61,2.47c-.13,0-.18.05-.18.18v.22c0,.19,0,.39,0,.58s0,.23-.19.23-.17,0-.17-.18,0-.41,0-.62V64c0-.19,0-.24.25-.24h2c.21,0,.26.06.26.22s0,.23,0,.34v1.83c0,.1,0,.21,0,.31,0,.42-.19.5-.71.5-.14,0-.21,0-.21-.24s0-.1.1-.1h.29c.19,0,.17-.12.17-.31v-.38c0-.13-.05-.18-.17-.18h-.42c-.12,0-.17.05-.17.18V66c0,.21,0,.42,0,.62s0,.22-.17.22-.16-.09-.16-.22,0-.42,0-.63v-.1c0-.13-.05-.18-.18-.18Zm.59-1.51a.15.15,0,0,0-.15-.15h-.46a.15.15,0,0,0-.15.15v.23a.15.15,0,0,0,.15.15h.46a.15.15,0,0,0,.15-.15Zm-.6.66a.17.17,0,0,0-.17.18v.22a.17.17,0,0,0,.17.17h.42a.17.17,0,0,0,.17-.17v-.22a.18.18,0,0,0-.17-.18Zm-.11-2.14a.18.18,0,0,0,.18.18H217a.18.18,0,0,0,.17-.18v-.31a.17.17,0,0,0-.17-.17h-.51a.17.17,0,0,0-.18.17Zm1.63,1.86a.14.14,0,0,0,.15-.15v-.23a.14.14,0,0,0-.15-.15h-.46a.14.14,0,0,0-.15.15v.23a.14.14,0,0,0,.15.15Zm-.62.67a.17.17,0,0,0,.17.17h.42a.17.17,0,0,0,.17-.17v-.22a.18.18,0,0,0-.17-.18h-.42a.17.17,0,0,0-.17.18Z"/><path class="cls-2" d="M222.3,61.59l.44.85a.17.17,0,0,0,.15.1,2.9,2.9,0,0,0,.84-.4.46.46,0,0,1,.17-.09c.08,0,.21.19.21.26s-.83.47-1,.52-.1,0-.1.11a.86.86,0,0,0,.11.23,8.77,8.77,0,0,0,1,1.57.22.22,0,0,1,.09.17.33.33,0,0,1-.26.26c-.08,0-.21-.1-.27-.15a3.13,3.13,0,0,0-1.57-.53.79.79,0,0,0-.87.75c0,.8,1,1,1.66,1h.33c.06,0,.09,0,.09.08,0,.34-.21.3-.25.3-.83,0-2.19-.25-2.19-1.32a1.13,1.13,0,0,1,1.24-1.1,2.72,2.72,0,0,1,1.24.35.22.22,0,0,0,.09,0,0,0,0,0,0,0,0,.26.26,0,0,0-.06-.11c-.24-.35-.55-.89-.76-1.27a.18.18,0,0,0-.17-.12l-.08,0a8.86,8.86,0,0,1-1.62.26c-.17,0-.22-.29-.22-.31s0-.07.31-.07a6.6,6.6,0,0,0,1.34-.18c.06,0,.12,0,.12-.11a3.13,3.13,0,0,0-.28-.53,3,3,0,0,0-.26-.4.17.17,0,0,1-.06-.1c0-.08.3-.11.34-.11S222.27,61.53,222.3,61.59Z"/><path class="cls-2" d="M227.92,61.54c0,.05-.05.1-.08.13a4.18,4.18,0,0,0-.15.89.07.07,0,0,0,.06.07h.1c.08,0,.21.21.21.26S228,63,228,63s-.27.46-.32.55a.4.4,0,0,0,0,.21s0,.1.06.1,0,0,.06,0,.3-.3.39-.39c.37-.35.93-.94,1.46-.94a.54.54,0,0,1,.44.23,1.12,1.12,0,0,1,.08.51c0,.66-.08,1.32-.08,2,0,.26,0,.54.19.54a1.36,1.36,0,0,0,.73-.45.13.13,0,0,1,.08-.06c.09,0,.15.25.15.33s-.18.19-.24.24a1.48,1.48,0,0,1-.79.33c-.43,0-.47-.41-.47-.74,0-.66.07-1.32.07-2,0-.19,0-.53-.26-.53s-.65.32-.86.51a9.08,9.08,0,0,0-.9.88c-.1.1-.13.12-.13.26q0,.57,0,1.14c0,.23,0,.47,0,.7,0,.07,0,.12-.22.12s-.18,0-.18-.13c0-.49,0-1,0-1.49,0,0,0-.06,0-.06s-.18.22-.21.26c-.14.22-.42.69-.55.92,0,0,0,0-.06,0s-.26-.16-.26-.25a.24.24,0,0,1,.06-.12,11.16,11.16,0,0,0,1.05-1.8.3.3,0,0,0,0-.15c0-.16,0-.39,0-.54a.07.07,0,0,0-.08-.07h0a8.51,8.51,0,0,1-1,.34c-.13,0-.19-.3-.19-.34s.09-.08.15-.08a5.66,5.66,0,0,0,1-.24c.22-.06.19-.13.21-.33s0-.64,0-.85a1.27,1.27,0,0,0,0-.15v-.06s0-.08.06-.08S227.92,61.44,227.92,61.54Z"/><path class="cls-2" d="M232.43,62.45c.72,0,3.62-.33,4.28-.46h.1c.1,0,.1.2.1.3s-.06.13-.22.13a4.46,4.46,0,0,0-1.12.12,2,2,0,0,0-1.19,1,2.79,2.79,0,0,0-.4,1.37,1,1,0,0,0,.56,1,1.89,1.89,0,0,0,.82.13h.18c.05,0,.12,0,.12.07a.82.82,0,0,1-.08.28c0,.06-.05.06-.12.06a3.08,3.08,0,0,1-.87-.13,1.31,1.31,0,0,1-1-1.36,3.08,3.08,0,0,1,1-2.25s0,0,0-.05,0,0-.08,0l-.72.08a14.82,14.82,0,0,0-1.52.24h-.1c-.12,0-.15-.34-.15-.36S232.18,62.46,232.43,62.45Z"/><path class="cls-2" d="M138.71,74.59s.12,0,.12.09,0,.07-.07.1-.07.1-.08.18a3.27,3.27,0,0,0,0,.57,4.19,4.19,0,0,0,.24,1.61c.1.24.39.71.69.71s.45-.33.54-.49.08-.16.14-.16.23.14.23.21-.28.42-.35.49a.78.78,0,0,1-.55.34c-.44,0-.78-.44-1-.8a4.57,4.57,0,0,1-.34-2c0-.13,0-.84,0-.94s0-.06.08-.06A1.68,1.68,0,0,1,138.71,74.59Zm2.87,0a2,2,0,0,1,.77.72,3.27,3.27,0,0,1,.46,1.26,1.28,1.28,0,0,1,0,.15c0,.14-.14.15-.25.15s-.15-.07-.16-.15a2.55,2.55,0,0,0-.91-1.8c-.05,0-.1-.07-.1-.12A.23.23,0,0,1,141.58,74.54Z"/><path class="cls-2" d="M147.79,74.26s-.06.08-.1.1a8.7,8.7,0,0,0-1.16,1.13s-.11.11-.11.15a0,0,0,0,0,0,0l.13,0a2.44,2.44,0,0,1,.53-.06,1.38,1.38,0,0,1,1.55,1.3,1.74,1.74,0,0,1-1.9,1.61,1.44,1.44,0,0,1-.86-.24.63.63,0,0,1,.37-1.16c.4,0,.89.31.89.74a.87.87,0,0,1-.07.27.06.06,0,0,0,.06.05,1.38,1.38,0,0,0,1.13-1.26c0-.71-.62-1-1.25-1a2,2,0,0,0-1.33.48,10.31,10.31,0,0,0-.82.87s-.06.08-.1.08-.25-.18-.25-.25.13-.17.25-.28c.83-.73,1.53-1.59,2.29-2.38a.14.14,0,0,0,.06-.11.06.06,0,0,0-.07-.06l-.16,0c-.48.1-.95.18-1.42.29l-.15,0c-.13,0-.13-.2-.13-.3s.05-.17.18-.17h.17a6,6,0,0,0,1.55-.23.68.68,0,0,1,.2,0A.63.63,0,0,1,147.79,74.26Zm-1.47,3.13a.35.35,0,0,0-.36.35c0,.29.42.44.66.44s.19-.19.19-.31A.48.48,0,0,0,146.31,77.39Z"/><path class="cls-2" d="M154.79,74.65a2.06,2.06,0,0,1,.62,1.51,2.2,2.2,0,0,1-1.22,2,2.14,2.14,0,0,1-.62.22c-.1,0-.27-.19-.27-.27s.05-.06.09-.07A1.89,1.89,0,0,0,155,76.18a1.77,1.77,0,0,0-1.34-1.76,1.34,1.34,0,0,0-.28,0c-.18,0-.18.16-.19.27a5.39,5.39,0,0,1-.91,3,1,1,0,0,1-.74.44.93.93,0,0,1-.77-.55,1.89,1.89,0,0,1-.18-.86A2.56,2.56,0,0,1,153.2,74,2.17,2.17,0,0,1,154.79,74.65Zm-2.28-.17A2.23,2.23,0,0,0,151,76.63c0,.35.12,1.06.57,1.06s.78-.71.91-1a6.8,6.8,0,0,0,.4-2s0-.05,0-.07a.12.12,0,0,0-.12-.13A1,1,0,0,0,152.51,74.48Z"/><path class="cls-2" d="M157.2,74.5c.71,0,3.62-.34,4.28-.46h.1c.1,0,.1.2.1.3s-.06.13-.22.13a4.47,4.47,0,0,0-1.12.12,2,2,0,0,0-1.19,1,2.77,2.77,0,0,0-.4,1.37,1,1,0,0,0,.56,1,1.93,1.93,0,0,0,.83.13h.16c.05,0,.13,0,.13.07a.86.86,0,0,1-.08.28c0,.06-.05.06-.12.06a3.07,3.07,0,0,1-.87-.13,1.31,1.31,0,0,1-1-1.36,3.09,3.09,0,0,1,1-2.25s0,0,0-.05,0,0-.08,0c-.29,0-1.91.24-2.24.32H157c-.12,0-.15-.34-.15-.36S157,74.51,157.2,74.5Zm4,.83a1.79,1.79,0,0,1,.27.35c0,.07-.15.21-.23.21s-.06,0-.09-.07a6.33,6.33,0,0,0-.42-.51s-.05-.05-.05-.08.15-.19.22-.19S161.13,75.27,161.19,75.33Zm.71-.32a1.83,1.83,0,0,1,.27.35c0,.07-.15.21-.24.21s-.06,0-.08-.07-.28-.35-.42-.51-.05-.05-.05-.08.15-.19.21-.19S161.84,75,161.89,75Z"/><path class="cls-2" d="M165,78.3c0,.07-.16.28-.26.28s-.09,0-.12-.08a3.38,3.38,0,0,0-1-.84s-.1-.06-.1-.12a.37.37,0,0,1,.24-.25A3.56,3.56,0,0,1,165,78.3Z"/><path class="cls-2" d="M168.56,75.28c-.08,0-.09,0-.13.15a6.79,6.79,0,0,1-1.22,1.79s-.1.11-.17.11-.2-.09-.2-.17.06-.1.1-.14a5.47,5.47,0,0,0,1.24-1.89s0-.08.08-.08a2.07,2.07,0,0,1,.3.09s.08,0,.08.08S168.59,75.27,168.56,75.28Zm.92-1.08a5.22,5.22,0,0,0,0-.78.24.24,0,0,1,0-.06c0-.06,0-.08.1-.08l.3,0c.06,0,.15,0,.15.08s0,.06-.09.09-.08.2-.08.73V77.9c0,.14,0,.29,0,.43,0,.58-.47.62-1,.62-.17,0-.27,0-.27-.25,0-.08,0-.13.11-.13l.33,0c.5,0,.51-.16.51-.64Zm2.85,3.12c-.08,0-.12-.07-.15-.13a12.2,12.2,0,0,0-1.3-1.84s-.08-.08-.08-.13A.22.22,0,0,1,171,75c.06,0,.1,0,.13.09.25.29.49.59.72.91a7,7,0,0,1,.69,1.12C172.54,77.26,172.42,77.33,172.33,77.33Z"/><path class="cls-2" d="M175.78,73.64l.44.85a.17.17,0,0,0,.15.1,2.89,2.89,0,0,0,.84-.4.46.46,0,0,1,.17-.09c.08,0,.21.19.21.26s-.83.47-1,.52-.1,0-.1.11a.86.86,0,0,0,.11.23,8.78,8.78,0,0,0,1,1.57.22.22,0,0,1,.09.17.33.33,0,0,1-.26.26c-.08,0-.21-.1-.27-.15a3.13,3.13,0,0,0-1.57-.53.79.79,0,0,0-.87.75c0,.8,1,1,1.66,1h.33c.06,0,.09,0,.09.08,0,.34-.21.3-.25.3-.83,0-2.19-.25-2.19-1.32a1.13,1.13,0,0,1,1.24-1.1,2.72,2.72,0,0,1,1.24.35.22.22,0,0,0,.09,0,0,0,0,0,0,0,0,.26.26,0,0,0-.06-.11c-.24-.35-.55-.89-.76-1.27a.18.18,0,0,0-.17-.12l-.08,0a8.86,8.86,0,0,1-1.62.26c-.17,0-.22-.29-.22-.31s0-.07.31-.07a6.6,6.6,0,0,0,1.34-.18c.06,0,.12,0,.12-.11a3.14,3.14,0,0,0-.28-.53,3,3,0,0,0-.26-.4.17.17,0,0,1-.06-.1c0-.08.3-.11.34-.11S175.75,73.58,175.78,73.64Z"/><path class="cls-2" d="M181.84,73.63s0,.08-.08.12a4.7,4.7,0,0,0-.23.75.16.16,0,0,0,0,.05.07.07,0,0,0,.07.06h.07l.49-.13.07,0c.08,0,.09.22.09.27s-.06.14-.75.26c-.13,0-.19,0-.24.17a13,13,0,0,1-.65,1.58c-.13.28-.3.6-.45.87a.11.11,0,0,1-.1.07c-.07,0-.28-.1-.28-.19a.54.54,0,0,1,.1-.2,11.2,11.2,0,0,0,.89-1.76,3.41,3.41,0,0,0,.12-.36.07.07,0,0,0-.07-.06s-.68.08-.83.08H180c-.13,0-.15-.19-.15-.3s.06-.08.13-.08a5.09,5.09,0,0,0,1.12-.1c.08-.05.09-.14.13-.3a3.17,3.17,0,0,0,.14-.89c0-.06,0-.1.07-.1S181.84,73.54,181.84,73.63Zm1,1.81s0,.19,0,.37,0,1.26.08,1.48.12.14.22.17,1,.42,1,.56-.12.24-.22.24a.28.28,0,0,1-.15-.08,2.55,2.55,0,0,0-.72-.39c-.06,0-.06.07-.06.11a.71.71,0,0,1-.79.8c-.42,0-1-.25-1-.75s.52-.66.94-.66a3.11,3.11,0,0,1,.36,0h0a.07.07,0,0,0,.07-.08c0-.17-.12-1.59-.13-1.75s0,0,0-.06.05-.08.1-.08S182.87,75.34,182.87,75.43Zm-1.36,2.49c0,.29.42.42.66.42s.46-.19.46-.49,0-.26-.47-.26C181.95,77.6,181.51,77.63,181.51,77.92Zm2.85-2.46c0,.1-.18.21-.26.21s-.06,0-.09-.06a3.16,3.16,0,0,0-.76-.78s-.08-.06-.08-.11a.36.36,0,0,1,.24-.22A3,3,0,0,1,184.36,75.46Z"/><path class="cls-2" d="M187.3,77s-.06,0-.1.05a11,11,0,0,0-1,.76.12.12,0,0,1-.08,0c-.08,0-.22-.21-.22-.33s.1-.1.37-.27.65-.44,1-.63c.1-.06.13-.1.13-.21V76c0-.19,0-.39,0-.57a.13.13,0,0,0-.13-.13l-.64.11-.18,0s-.12,0-.12-.26,0-.13.07-.13h0a4.79,4.79,0,0,0,.87-.1.16.16,0,0,0,.1-.16c0-.17,0-.5,0-.64a1.3,1.3,0,0,0,0-.23s0,0,0-.06,0-.08.06-.08a2.63,2.63,0,0,1,.35.06s.12,0,.12.08-.05.1-.08.13a.41.41,0,0,0-.07.24c0,.06,0,.41,0,.46a.08.08,0,0,0,.09.09,5.88,5.88,0,0,0,.58-.15l.09,0c.1,0,.1.19.1.26s0,.14-.65.24c-.28,0-.26.06-.26.81,0,.2,0,.29.06.29l.09,0a3.58,3.58,0,0,1,1.33-.33A1.19,1.19,0,0,1,190.48,77a1,1,0,0,1-.51.88,2.44,2.44,0,0,1-1.16.23c-.06,0-.32,0-.36,0a1,1,0,0,1-.09-.31.07.07,0,0,1,.07-.07,2.86,2.86,0,0,0,.56.08c.49,0,1.11-.17,1.11-.77s-.53-.76-1-.76a2.78,2.78,0,0,0-1.32.37.18.18,0,0,0-.1.17c0,.1,0,.38,0,.49s.06.78.06.83a.35.35,0,0,1-.37.35c-.12,0-.17-.13-.21-.23a1.38,1.38,0,0,0-.39-.55.11.11,0,0,1,0-.07.08.08,0,0,1,.08-.08,2.41,2.41,0,0,1,.38.24s.09.07.12.07,0,0,0,0,0-.4,0-.46C187.37,77.07,187.39,77,187.3,77Zm2.55-2.24.26.22.57.47s.1.07.1.12-.15.25-.24.25a.22.22,0,0,1-.13-.08c-.25-.24-.52-.47-.79-.69,0,0-.1-.07-.1-.13a.31.31,0,0,1,.22-.22S189.81,74.71,189.85,74.73Z"/><path class="cls-2" d="M195,75.47v.41c0,.13.06.18.18.18h2.3c.13,0,.13.06.13.19s0,.18-.13.18h-2.3c-.12,0-.18.05-.18.18v1.3c0,.19,0,.37,0,.55a.4.4,0,0,1-.3.42,2.5,2.5,0,0,1-.74.09c-.11,0-.22,0-.27-.07a.62.62,0,0,1-.06-.22c0-.06,0-.09.1-.09h.37c.55,0,.55-.1.55-.54V76.58c0-.13-.06-.18-.18-.18H192.2c-.12,0-.13-.06-.13-.18s0-.19.13-.19h2.33c.12,0,.18-.05.18-.18v-.1a4.05,4.05,0,0,0,0-.69s0,0,0-.06,0-.08.09-.08h.14a.25.25,0,0,0,.16-.06c.15-.12,1-.77,1-.91s-.07-.07-.1-.07h-3c-.12,0-.13-.06-.13-.17s0-.17.13-.17h3.4a.31.31,0,0,1,.29.27c0,.24-1.29,1.16-1.53,1.33A.26.26,0,0,0,195,75.47Z"/><path class="cls-2" d="M200.06,75.73s0,0,0,0v2c0,.29,0,.59,0,.88s0,.25-.19.25-.19-.1-.19-.24,0-.59,0-.89v-1.9s0,0,0,0l0,0a7.12,7.12,0,0,1-.65,1.43c-.07.11-.1.16-.16.16s-.21-.1-.21-.17a.56.56,0,0,1,.08-.17,9.93,9.93,0,0,0,.94-2.08.12.12,0,0,0,0-.05c0-.08-.06-.11-.13-.12h-.64c-.11,0-.12-.09-.12-.18s0-.16.12-.16h.64a.16.16,0,0,0,.18-.18v-.25a5.28,5.28,0,0,0,0-.77v-.06c0-.06,0-.08.1-.08h.18c.22,0,.26,0,.26.09s0,.06-.09.09-.08.19-.08.73v.25c0,.12.06.18.18.18s.36,0,.48,0,.12.08.12.17,0,.17-.12.17h-.52c-.07,0-.13,0-.13.11a.34.34,0,0,0,0,.1,5.1,5.1,0,0,0,.64,1c0,.05.09.1.09.14a.22.22,0,0,1-.19.19c-.15,0-.43-.58-.5-.71A0,0,0,0,0,200.06,75.73Zm2,2a11.52,11.52,0,0,1-1,.62c-.11.06-.12.07-.13.12s0,.12-.07.12-.26-.3-.26-.35,0-.06.06-.07a8.55,8.55,0,0,0,1.21-.74.16.16,0,0,1,.08,0c.09,0,.16.13.16.21A.17.17,0,0,1,202.11,77.72Zm1-.6a.14.14,0,0,0,.1,0,5.6,5.6,0,0,0,.61-.55s0,0,.07,0a.75.75,0,0,1,.28.32s0,.05-.06.05h-.1l-.07,0a5.83,5.83,0,0,1-.53.47.16.16,0,0,0-.07.12.15.15,0,0,0,0,.1,3.1,3.1,0,0,0,.81.6c.06,0,.18.09.18.17s-.08.21-.17.21a1.82,1.82,0,0,1-.43-.22,3.47,3.47,0,0,1-1-1.12,0,0,0,0,0,0,0s0,0,0,.05V78c0,.13,0,.26,0,.39,0,.49-.49.51-.86.51-.06,0-.17,0-.21-.05a.54.54,0,0,1-.06-.21c0-.07.05-.1.11-.1H202c.43,0,.41-.15.41-.51V76.5c0-.13-.05-.18-.18-.18H201c-.12,0-.12-.07-.12-.16s0-.16.12-.16h1.23c.11,0,.15-.05.15-.15v-.24c0-.11,0-.15-.15-.15h-1c-.11,0-.12-.07-.12-.16s0-.16.12-.16h1c.11,0,.15-.05.15-.15v-.22c0-.11,0-.16-.15-.16h-.42l-.73,0c-.12,0-.12-.06-.12-.17s0-.16.12-.16h1.52a.28.28,0,0,0,.28-.13,6.67,6.67,0,0,0,.55-.94s0-.06.06-.06.33.17.33.23,0,0-.08.05a.11.11,0,0,0-.11.05c-.15.28-.23.42-.37.66a.08.08,0,0,0,0,.06c0,.06.05.07.1.08h.86c.12,0,.13.05.13.16s0,.17-.12.17l-.73,0h-.6c-.11,0-.15.05-.15.16V75c0,.1,0,.15.15.15h1.2c.11,0,.12.06.12.16s0,.16-.12.16h-1.2c-.11,0-.15,0-.15.15v.24c0,.1,0,.15.15.15h1.41c.12,0,.12.05.12.16s0,.16-.12.16H202.8c-.05,0-.09,0-.1.08a.27.27,0,0,0,0,.08,3.94,3.94,0,0,0,.3.57A.15.15,0,0,0,203.15,77.13Zm-1.62-.37c.07.06.3.25.3.34a.21.21,0,0,1-.19.17c-.06,0-.1-.05-.14-.09a4.76,4.76,0,0,0-.47-.42s-.09-.06-.09-.12a.22.22,0,0,1,.18-.19C201.2,76.45,201.46,76.69,201.53,76.75Zm.48-2.52c-.06,0-.09,0-.12-.1-.12-.21-.26-.41-.4-.6a.24.24,0,0,1-.05-.11c0-.09.12-.15.19-.15s.18.13.35.4a2,2,0,0,1,.22.41C202.21,74.18,202.07,74.23,202,74.23Z"/><path class="cls-2" d="M208,73.77c.06,0,.17,0,.17.1a.14.14,0,0,1-.06.1c-.09.1-.09.16-.12.31s-.06.35-.09.52a.22.22,0,0,0,0,.07.09.09,0,0,0,.1.1h0s.26,0,.44,0c.6,0,.82.37.82.94a4.63,4.63,0,0,1-.36,1.93,1.19,1.19,0,0,1-1.09.66c-.25,0-.31-.28-.31-.36s0-.06,0-.06a2.6,2.6,0,0,0,.33,0,.76.76,0,0,0,.73-.52,3.9,3.9,0,0,0,.29-1.51c0-.42,0-.79-.55-.79s-.6.12-.62.23a7.31,7.31,0,0,1-1.08,2.38,6.65,6.65,0,0,1-.42.56.15.15,0,0,1-.1.05c-.07,0-.25-.13-.25-.21a.22.22,0,0,1,.08-.13A5.87,5.87,0,0,0,207.24,76a4.81,4.81,0,0,0,.15-.53.07.07,0,0,0-.07-.06l-.12,0a7.81,7.81,0,0,0-.9.27l-.07,0c-.08,0-.2-.28-.2-.36s.08,0,.43-.12.58-.13.88-.19.18-.1.21-.28a5.49,5.49,0,0,0,.07-.8.83.83,0,0,0,0-.22v0a.06.06,0,0,1,.06-.06A2.54,2.54,0,0,1,208,73.77ZM210.67,76c0,.07-.19.2-.28.2s-.1-.06-.13-.12a4,4,0,0,0-.81-1.3.15.15,0,0,1-.05-.1c0-.1.21-.18.26-.18S210.67,75.79,210.67,76ZM210,73.74c.06,0,.27.22.32.28s.28.28.28.34a.31.31,0,0,1-.23.21s-.06,0-.08-.06a6.55,6.55,0,0,0-.45-.49s-.05-.05-.05-.08A.32.32,0,0,1,210,73.74Zm.9-.13c.05.05.28.28.28.34a.31.31,0,0,1-.23.21s-.06,0-.08-.06-.29-.33-.44-.49-.06,0-.06-.08.15-.2.21-.2S210.85,73.56,210.9,73.61Z"/><path class="cls-2" d="M213,74.59s.12,0,.12.09,0,.07-.07.1-.07.1-.08.18a3.48,3.48,0,0,0,0,.57,4.23,4.23,0,0,0,.24,1.61c.1.24.39.71.69.71s.45-.33.54-.49.08-.16.14-.16.23.14.23.21-.28.42-.35.49a.77.77,0,0,1-.54.34c-.44,0-.78-.44-1-.8a4.57,4.57,0,0,1-.34-2c0-.13,0-.84,0-.94s0-.06.08-.06A1.69,1.69,0,0,1,213,74.59Zm2.87,0a2,2,0,0,1,.77.72,3.3,3.3,0,0,1,.46,1.26,1.28,1.28,0,0,1,0,.15c0,.14-.14.15-.25.15s-.15-.07-.16-.15a2.55,2.55,0,0,0-.91-1.8c-.05,0-.1-.07-.1-.12A.23.23,0,0,1,215.85,74.54Z"/><path class="cls-2" d="M222.05,74.26s-.06.08-.1.1a8.6,8.6,0,0,0-1.16,1.13s-.11.11-.11.15a0,0,0,0,0,0,0l.13,0a2.43,2.43,0,0,1,.53-.06,1.38,1.38,0,0,1,1.55,1.3,1.74,1.74,0,0,1-1.9,1.61,1.44,1.44,0,0,1-.86-.24.65.65,0,0,1-.29-.52.66.66,0,0,1,.66-.64c.4,0,.89.31.89.74a.87.87,0,0,1-.07.27.06.06,0,0,0,.06.05,1.37,1.37,0,0,0,1.13-1.26c0-.71-.62-1-1.25-1a2,2,0,0,0-1.33.48,11,11,0,0,0-.82.87s-.06.08-.1.08-.25-.18-.25-.25.13-.17.25-.28c.83-.73,1.53-1.59,2.29-2.38a.15.15,0,0,0,.06-.11.06.06,0,0,0-.07-.06l-.16,0c-.47.1-.94.18-1.42.29l-.15,0c-.13,0-.13-.2-.13-.3s.05-.17.18-.17h.17a6,6,0,0,0,1.55-.23.68.68,0,0,1,.2,0A.63.63,0,0,1,222.05,74.26Zm-1.47,3.13a.35.35,0,0,0-.36.35c0,.29.42.44.66.44s.19-.19.19-.31A.48.48,0,0,0,220.58,77.39Z"/><path class="cls-2" d="M225.53,76.93c.17.66.81.8,1.4.8a9.11,9.11,0,0,0,1.91-.21l.12,0c.1,0,.09.11.09.18s0,.21-.08.24a11.35,11.35,0,0,1-1.92.19,2,2,0,0,1-1.73-.66,1.22,1.22,0,0,1-.21-.53c0-.12.25-.15.27-.15S225.5,76.84,225.53,76.93Zm.4-2.67a4.13,4.13,0,0,0,1.29.18,5.41,5.41,0,0,0,1-.1h.07c.1,0,.11.14.11.22s0,.19-.12.21c-.29,0-.68,0-1,0a5,5,0,0,1-1.56-.19.11.11,0,0,1-.08-.12c0-.07,0-.26.12-.26Zm3.21,0c0,.05.28.29.28.34a.31.31,0,0,1-.23.21s-.06,0-.08-.06a6.38,6.38,0,0,0-.45-.49s-.05-.05-.05-.08a.32.32,0,0,1,.21-.19C228.88,73.95,229.08,74.17,229.14,74.22Zm.54-.42c.05.05.28.28.28.34a.31.31,0,0,1-.22.21s-.07,0-.09-.06-.29-.33-.44-.5-.06-.05-.06-.08.15-.2.21-.2S229.63,73.74,229.68,73.8Z"/><path class="cls-2" d="M233.53,75.62a.12.12,0,0,0-.06.11.14.14,0,0,0,.05.1,2.66,2.66,0,0,1,.93,2c0,.79-.31,1.14-1.11,1.14-.22,0-.38,0-.38-.24,0-.06,0-.13.1-.13s.21,0,.37,0c.46,0,.67-.16.67-.79a1.94,1.94,0,0,0,0-.34c0-.05,0-.09-.1-.09a.12.12,0,0,0-.08,0,6.75,6.75,0,0,1-1.83,1.05,3.47,3.47,0,0,1-.55.17c-.09,0-.15-.14-.15-.22s.12-.13.22-.16a6.75,6.75,0,0,0,2.24-1.16.15.15,0,0,0,.08-.14.17.17,0,0,0,0-.08,2.08,2.08,0,0,0-.13-.24.13.13,0,0,0-.12-.08.16.16,0,0,0-.11,0,6.35,6.35,0,0,1-1.48.89,3.5,3.5,0,0,1-.55.19c-.1,0-.16-.13-.16-.21s.11-.12.18-.15a6.44,6.44,0,0,0,1.83-1,.15.15,0,0,0,.07-.12.17.17,0,0,0-.05-.11l-.14-.14a.16.16,0,0,0-.1,0,.19.19,0,0,0-.1,0,7.17,7.17,0,0,1-1.43.7,1.24,1.24,0,0,1-.21.06c-.1,0-.16-.13-.16-.21s.1-.13.21-.17a7.93,7.93,0,0,0,1.86-.94.06.06,0,0,0,0-.05s0-.05-.06-.05h-1.21c-.12,0-.13-.06-.13-.17s0-.17.13-.17h3.7c.12,0,.12.07.12.17s0,.17-.12.17h-1.31c-.07,0-.13,0-.13.11a.12.12,0,0,0,0,.05,5.93,5.93,0,0,0,.46,1,.16.16,0,0,0,.13.08.18.18,0,0,0,.1,0,6.25,6.25,0,0,0,.91-.72s0,0,.08,0,.27.28.27.33a.05.05,0,0,1-.06.05l-.1,0a.1.1,0,0,0-.07,0,7.61,7.61,0,0,1-.87.63.14.14,0,0,0-.08.13.14.14,0,0,0,0,.1,5,5,0,0,0,1.3,1.23s.15.1.15.16-.1.21-.17.21a3.56,3.56,0,0,1-.92-.66,6.07,6.07,0,0,1-1.5-2.49.1.1,0,0,0-.1-.07.18.18,0,0,0-.11,0Zm.73-1.57h1.86c.22,0,.37,0,.37.28,0,.08,0,.17,0,.25v.23s0,.12,0,.17,0,.13-.18.13-.18,0-.18-.12,0-.14,0-.18v-.26c0-.13-.06-.18-.18-.18h-4.11c-.12,0-.17.05-.17.17v.22s0,.12,0,.18-.1.11-.18.11-.18,0-.18-.13,0-.12,0-.16v-.19c0-.08,0-.16,0-.24,0-.26.13-.29.36-.29h1.86c.12,0,.18-.05.18-.18a3.92,3.92,0,0,0,0-.48s0,0,0-.06,0-.08.1-.08l.24,0c.16,0,.2,0,.2.08s0,.06-.09.09-.08.13-.08.42C234.09,74,234.14,74,234.26,74Z"/><path class="cls-2" d="M142.27,86H143c.11,0,.12.05.12.17s0,.17-.12.17h-4.5c-.13,0-.18.05-.18.17v1.29a7.27,7.27,0,0,1-.39,2.7,2.35,2.35,0,0,1-.19.39.12.12,0,0,1-.09,0c-.08,0-.25-.08-.25-.17a.27.27,0,0,1,0-.12,4.17,4.17,0,0,0,.37-1,9,9,0,0,0,.16-1.87v-1c0-.17,0-.33,0-.51s.07-.28.33-.28h1.77c.12,0,.17,0,.18-.16a3.41,3.41,0,0,0,0-.37.19.19,0,0,1,0-.06c0-.06,0-.08.1-.08l.18,0c.15,0,.26,0,.26.08s0,.06-.09.1-.08.11-.08.31.05.17.17.17Zm-3.22,2.63c-.07,0-.19,0-.19-.12a5.08,5.08,0,0,1,.26-.55,6.16,6.16,0,0,0,.38-.83c0-.08-.08-.07-.14-.07h-.64c-.11,0-.12-.08-.12-.16s0-.17.12-.17h.89c.13,0,.3,0,.3.2a8.46,8.46,0,0,1-.48,1.1.13.13,0,0,0,0,.06c0,.07.06.09.12.1H140a.25.25,0,0,1,.27.28,2.25,2.25,0,0,1-.09.4,4,4,0,0,1-.39.88.27.27,0,0,0,0,.12.17.17,0,0,0,.07.13,3.15,3.15,0,0,0,2.3.56l1,0c.08,0,.1.05.1.13a.2.2,0,0,1-.12.21c-.06,0-1.09,0-1.25,0a3.06,3.06,0,0,1-2.22-.61.17.17,0,0,0-.12-.05.17.17,0,0,0-.13.06c-.17.17-.79.7-1,.7a.19.19,0,0,1-.17-.18c0-.06.08-.1.19-.16a3.43,3.43,0,0,0,.79-.6.17.17,0,0,0,.06-.12.2.2,0,0,0,0-.13,3.36,3.36,0,0,1-.44-.84c0-.08.13-.12.21-.12s.09,0,.12.12a3.09,3.09,0,0,0,.31.57.1.1,0,0,0,.1.06s.07,0,.09-.07a3.47,3.47,0,0,0,.34-.91c0-.09-.1-.08-.3-.08h-.28a.51.51,0,0,0-.18.1Zm2.88.67c0,.13.06.18.18.18h.76c.13,0,.13.07.13.17s0,.17-.12.17h-2.24c-.12,0-.12-.08-.12-.17s0-.17.12-.17h.78c.12,0,.18-.05.18-.18v-.69c0-.13-.06-.18-.18-.18h-.89c-.12,0-.12-.07-.12-.17s0-.17.13-.17h.88c.12,0,.18-.05.18-.18V87.5c0-.08,0-.15-.13-.15h0c-.17,0-.66.08-.8.08s-.17-.09-.17-.22.1-.12.23-.13a9.61,9.61,0,0,0,2-.35l.09,0s.28.24.28.32a.06.06,0,0,1-.06.05l-.06,0-.08,0-.78.19c-.13,0-.15.08-.17.21v.5c0,.13.06.18.18.18h1c.12,0,.13.06.13.17s0,.17-.13.17h-1c-.12,0-.18.05-.18.18Z"/><path class="cls-2" d="M146.7,85.7c0,.06-.06.09-.11.12s-.31.64-.37.83a.25.25,0,0,0,0,.07c0,.1.08.13.17.14a5.51,5.51,0,0,0,.74.06c.14,0,.24,0,.24.11a.76.76,0,0,1-.05.24.09.09,0,0,1-.1.06,7,7,0,0,1-1-.12h-.07c-.13,0-.15.12-.17.19s-.17.71-.17.82.07.12.14.12a5.48,5.48,0,0,0,.71.05h.1c.08,0,.14,0,.14.1a.91.91,0,0,1-.06.22c0,.06,0,.08-.1.08s-.59-.05-.79-.08h-.08c-.17,0-.16.15-.17.21a3.42,3.42,0,0,0,0,.37c0,.7.31,1.09,1,1.09a1.73,1.73,0,0,0,.91-.24.72.72,0,0,0,.36-.68,2.36,2.36,0,0,0-.24-1,.23.23,0,0,1,0-.09c0-.09.21-.14.29-.14s.1.05.13.12a3.12,3.12,0,0,1,.24,1.15c0,.91-.88,1.24-1.66,1.24a1.26,1.26,0,0,1-1.39-1.36,4.51,4.51,0,0,1,0-.58v-.06c0-.15-.14-.17-.28-.21a2.36,2.36,0,0,1-.45-.2c-.06,0-.1-.06-.1-.13s0-.28.12-.28a.26.26,0,0,1,.13.06,1.78,1.78,0,0,0,.56.24c.16,0,.12-.21.3-.9a.64.64,0,0,0,0-.1c0-.12-.1-.15-.19-.19a5.36,5.36,0,0,1-.55-.23c-.06,0-.12-.06-.12-.13s0-.28.13-.28a.25.25,0,0,1,.12.05,3.09,3.09,0,0,0,.56.28l.1,0c.1,0,.12-.1.14-.17.1-.32.2-.62.29-.94,0-.06,0-.12.1-.12S146.7,85.6,146.7,85.7Z"/><path class="cls-2" d="M151.45,88.29c0-.07-.06-.09-.12-.1h-1.56c-.12,0-.13-.06-.13-.17s0-.17.13-.17h1.73a.23.23,0,0,0,.25-.14c.12-.24.34-.73.42-1,0,0,0-.11.09-.11s.4.11.4.19-.06.08-.1.09-.17.18-.44.78a.15.15,0,0,0,0,.06c0,.1.1.1.12.1h2.92c.12,0,.13.05.13.17s0,.17-.13.17h-1.31s0,0,0,0,0,0,0,0,.22.07.22.13-.07.06-.12.08a.11.11,0,0,0-.08.08,2.54,2.54,0,0,1-.72,1.15.13.13,0,0,0,0,.08s0,.07.07.1a10.11,10.11,0,0,1,1.5.71c.08.05.12.08.12.14s-.06.2-.15.2a.43.43,0,0,1-.17-.07,13,13,0,0,0-1.61-.75l-.12,0a.34.34,0,0,0-.16.05,5.4,5.4,0,0,1-1.41.62,3.89,3.89,0,0,1-.71.12h-.12c-.17,0-.21-.19-.21-.24s0-.1.11-.1a4.23,4.23,0,0,0,1.93-.54.09.09,0,0,0,0-.07.1.1,0,0,0-.06-.08c-.31-.1-.58-.19-.89-.28h-.08a.13.13,0,0,0-.13.08c-.05.08-.11.16-.19.16s-.2-.08-.2-.16a.27.27,0,0,1,.06-.13c.2-.3.52-.83.7-1.15A.11.11,0,0,0,151.45,88.29Zm2.6-2.17h.59c.21,0,.37,0,.37.27,0,.09,0,.19,0,.28v.26s0,.14,0,.17,0,.15-.18.15-.18,0-.18-.12,0-.15,0-.2v-.3c0-.13-.06-.18-.18-.18h-4c-.13,0-.18.05-.18.18v.27c0,.05,0,.13,0,.19s-.1.12-.19.12-.17,0-.17-.13,0-.13,0-.18v-.23c0-.09,0-.18,0-.27,0-.26.14-.28.36-.28h1.85c.13,0,.18-.05.18-.18a2.46,2.46,0,0,0,0-.52.23.23,0,0,1,0-.06c0-.06.05-.08.1-.08h.18c.14,0,.26,0,.26.09s0,.06-.09.09-.09.15-.08.48c0,.13.06.17.18.17Zm-1.45,3.51a.25.25,0,0,0,.17-.08,2.28,2.28,0,0,0,.78-1.2s0,0,0-.06,0-.1-.11-.1h-1.38a.23.23,0,0,0-.25.14l-.43.76a.14.14,0,0,0,0,.08.12.12,0,0,0,.1.12c.35.1.69.2,1,.32Z"/><path class="cls-2" d="M157.06,87.57c-.08,0-.08.08-.11.17a7.11,7.11,0,0,1-.56,1.56c0,.06-.08.14-.17.14s-.22-.05-.22-.13a.79.79,0,0,1,.09-.2,4.72,4.72,0,0,0,.54-1.61c0-.06,0-.16.1-.16s.41.06.41.14S157.1,87.54,157.06,87.57Zm2.68,2.9c.35,0,.4-.06.56-.87,0-.17,0-.2.13-.2s.24,0,.24.14a3.86,3.86,0,0,1-.26.94c-.15.32-.3.34-.63.34h-1.46c-.35,0-.62-.09-.62-.49,0-.14,0-.28,0-.41V87.36a3.76,3.76,0,0,0,0-.66.23.23,0,0,1,0-.06c0-.06,0-.08.1-.08l.37,0s.1,0,.1.07,0,.06-.08.08-.09.21-.09.62v2.79c0,.29.07.32.34.32Zm-.52-4.5a4.33,4.33,0,0,1,.44.41.14.14,0,0,1,0,.1.21.21,0,0,1-.19.2.32.32,0,0,1-.18-.11,7.35,7.35,0,0,0-1.17-.92c-.05,0-.13-.08-.13-.15a.22.22,0,0,1,.18-.2A5.14,5.14,0,0,1,159.22,86Zm2.11,3.35c-.14,0-.15-.12-.31-.62a10,10,0,0,0-.56-1.21.23.23,0,0,1-.05-.12c0-.09.13-.17.21-.17a.17.17,0,0,1,.14.1,8.57,8.57,0,0,1,.44.89,5.38,5.38,0,0,1,.34,1C161.53,89.27,161.41,89.32,161.33,89.32Z"/><path class="cls-2" d="M163.78,86c.05,0,.11,0,.11.1s0,.07-.06.1-.11.22-.13.37a17.81,17.81,0,0,0-.12,2.19c0,.62,0,1.46.87,1.46a1.85,1.85,0,0,0,1.77-1.67c0-.06,0-.18.09-.18a.39.39,0,0,1,.29.32,2.2,2.2,0,0,1-.24.7,2.22,2.22,0,0,1-1.88,1.2,1.22,1.22,0,0,1-1-.48,2.32,2.32,0,0,1-.28-1.32c0-.47,0-1.08.06-1.55,0-.25.08-.92.08-1.12V86c0-.06,0-.12.08-.12A1.69,1.69,0,0,1,163.78,86Z"/><path class="cls-2" d="M167.77,86.55c.72,0,3.62-.33,4.28-.46h.1c.1,0,.1.2.1.3s-.06.13-.22.13a4.46,4.46,0,0,0-1.12.12,2,2,0,0,0-1.19,1,2.79,2.79,0,0,0-.4,1.37,1,1,0,0,0,.56,1,1.89,1.89,0,0,0,.82.13h.18c.05,0,.12,0,.12.07a.82.82,0,0,1-.08.28c0,.06-.05.06-.12.06a3.08,3.08,0,0,1-.87-.13A1.31,1.31,0,0,1,169,89a3.08,3.08,0,0,1,1-2.25s0,0,0-.05,0,0-.08,0l-.72.08a14.81,14.81,0,0,0-1.52.24h-.1c-.12,0-.15-.34-.15-.36S167.52,86.57,167.77,86.55Z"/><path class="cls-2" d="M174.61,89s-.06,0-.1.05a11,11,0,0,0-1,.76.12.12,0,0,1-.08,0c-.08,0-.22-.21-.22-.33s.1-.1.37-.27.65-.44,1-.63c.1-.06.13-.1.13-.21v-.37c0-.19,0-.39,0-.57a.13.13,0,0,0-.13-.13l-.64.11-.18,0s-.12,0-.12-.26,0-.13.07-.13h0a4.79,4.79,0,0,0,.87-.1.16.16,0,0,0,.1-.16c0-.17,0-.5,0-.64a1.3,1.3,0,0,0,0-.23s0,0,0-.06,0-.08.06-.08a2.47,2.47,0,0,1,.35.06s.12,0,.12.08-.05.1-.08.13a.41.41,0,0,0-.07.24c0,.06,0,.41,0,.46a.08.08,0,0,0,.09.09,5.85,5.85,0,0,0,.58-.15l.09,0c.1,0,.1.19.1.26s0,.14-.65.24c-.28,0-.26.06-.26.81,0,.2,0,.29.06.29l.09,0a3.58,3.58,0,0,1,1.33-.33,1.19,1.19,0,0,1,1.31,1.11,1,1,0,0,1-.51.88,2.44,2.44,0,0,1-1.16.23c-.06,0-.32,0-.36,0a1,1,0,0,1-.09-.31.07.07,0,0,1,.07-.07,2.86,2.86,0,0,0,.56.08c.49,0,1.11-.17,1.11-.77s-.53-.76-1-.76a2.78,2.78,0,0,0-1.32.37.18.18,0,0,0-.1.17c0,.1,0,.38,0,.49s.06.78.06.83a.35.35,0,0,1-.37.35c-.12,0-.17-.13-.21-.23a1.38,1.38,0,0,0-.39-.55.11.11,0,0,1,0-.07.08.08,0,0,1,.08-.08,2.41,2.41,0,0,1,.38.24s.09.07.12.07,0,0,0,0,0-.4,0-.46C174.68,89.12,174.7,89,174.61,89Zm2.55-2.24.26.22.57.47s.1.07.1.12-.15.25-.24.25a.22.22,0,0,1-.13-.08c-.25-.24-.52-.47-.79-.69,0,0-.1-.07-.1-.13a.31.31,0,0,1,.22-.22S177.13,86.76,177.16,86.79Z"/><path class="cls-2" d="M179.25,88.23a.22.22,0,0,1-.15.09.22.22,0,0,1-.2-.17A.22.22,0,0,1,179,88a7.05,7.05,0,0,0,.89-1.29,6.16,6.16,0,0,0,.52-1.32c0-.05,0-.12.09-.12s.4.1.4.17-.05.06-.08.08-.09.08-.13.2a6.69,6.69,0,0,1-.54,1.23.06.06,0,0,0,0,0,.05.05,0,0,0,.05.06c.05,0,.14,0,.14.08s0,.06-.09.09-.08.19-.08.65v2c0,.27,0,.54,0,.81s0,.24-.19.24-.19-.1-.19-.24,0-.54,0-.81V87.69s0-.06-.05-.06a.07.07,0,0,0-.05,0C179.58,87.81,179.37,88.11,179.25,88.23Zm2.14.3c-.06,0-.08,0-.1.09s0,.06-.17.06-.18,0-.18-.13,0-.2,0-.29v-.72c0-.1,0-.19,0-.29s.1-.27.31-.27h1.09c.13,0,.18-.05.18-.18v-.27c0-.12-.05-.17-.18-.17H181c-.12,0-.12-.07-.12-.17s0-.17.13-.17h1.38c.13,0,.18-.05.18-.17a2.14,2.14,0,0,0,0-.46.24.24,0,0,1,0-.06c0-.06,0-.08.1-.08h.18c.14,0,.27,0,.27.09s0,.06-.1.09-.08.15-.08.42c0,.12.06.17.17.17h1.54c.12,0,.13,0,.13.17s0,.17-.12.17H183c-.13,0-.17.05-.17.17v.27c0,.13,0,.18.17.18h1.12c.21,0,.31,0,.31.26s0,.2,0,.3v.72c0,.1,0,.19,0,.29s-.06.13-.18.13-.15,0-.16-.06,0-.08-.1-.09h-1c-.13,0-.18.05-.19.18a3,3,0,0,1-.16.89.25.25,0,0,0,0,.1.17.17,0,0,0,.09.15,5.42,5.42,0,0,0,1.87.74c.08,0,.16,0,.16.14s0,.22-.16.22a4.42,4.42,0,0,1-.71-.18,5.62,5.62,0,0,1-1.34-.64.18.18,0,0,0-.12,0,.18.18,0,0,0-.13.06,2.57,2.57,0,0,1-1.45.76l-.2,0c-.12,0-.17-.13-.17-.22s0-.12.13-.13a2.3,2.3,0,0,0,1.42-.65.17.17,0,0,0,0-.11.2.2,0,0,0-.07-.14,3,3,0,0,1-.48-.6.69.69,0,0,1-.1-.21c0-.09.15-.15.21-.15s.13.12.17.17a2.31,2.31,0,0,0,.37.49.12.12,0,0,0,.09,0c.05,0,.08,0,.1-.08a2.59,2.59,0,0,0,.1-.67c0-.12-.05-.17-.17-.17Zm1.14-1.05c0-.12-.05-.18-.18-.18h-.87c-.13,0-.18.06-.18.18V88c0,.13.05.18.18.18h.87c.12,0,.18-.05.18-.18Zm1.42.74c.13,0,.18-.05.18-.18v-.56c0-.12-.05-.18-.18-.18H183c-.12,0-.17.06-.17.18V88c0,.12.05.18.17.18Z"/><path class="cls-2" d="M186.33,86.64s.12,0,.12.09,0,.07-.07.1-.07.1-.08.18a3.27,3.27,0,0,0,0,.57,4.19,4.19,0,0,0,.24,1.61c.1.24.39.71.69.71s.45-.33.54-.49.08-.16.14-.16.23.14.23.21-.28.42-.35.49a.78.78,0,0,1-.55.34c-.44,0-.78-.44-1-.8a4.57,4.57,0,0,1-.34-2c0-.13,0-.84,0-.94s0-.06.08-.06A1.68,1.68,0,0,1,186.33,86.64Zm2.87,0a2,2,0,0,1,.77.72,3.27,3.27,0,0,1,.46,1.26,1.26,1.26,0,0,1,0,.15c0,.14-.14.15-.25.15s-.15-.07-.16-.15a2.55,2.55,0,0,0-.91-1.8c-.05,0-.1-.07-.1-.12A.23.23,0,0,1,189.2,86.6Z"/><path class="cls-2" d="M192.32,86.64s.12,0,.12.09,0,.07-.07.1-.07.1-.08.18a3.47,3.47,0,0,0,0,.57,4.23,4.23,0,0,0,.24,1.61c.1.24.39.71.69.71s.45-.33.54-.49.08-.16.14-.16.23.14.23.21-.28.42-.35.49a.77.77,0,0,1-.54.34c-.44,0-.78-.44-1-.8a4.57,4.57,0,0,1-.34-2c0-.13,0-.84,0-.94s0-.06.08-.06A1.68,1.68,0,0,1,192.32,86.64Zm2.87,0a2,2,0,0,1,.77.72,3.3,3.3,0,0,1,.46,1.26,1.26,1.26,0,0,1,0,.15c0,.14-.14.15-.25.15s-.15-.07-.16-.15a2.55,2.55,0,0,0-.91-1.8c-.05,0-.1-.07-.1-.12A.23.23,0,0,1,195.19,86.6Z"/><path class="cls-2" d="M199.85,85.66s-.05.07-.1.1a.2.2,0,0,0-.09.13c-.08.24-.13.48-.2.71a.42.42,0,0,0,0,.11.07.07,0,0,0,.07.06,6.73,6.73,0,0,0,1-.31.24.24,0,0,1,.1,0c.08,0,.07.09.07.15,0,.22,0,.24-.12.27a10.76,10.76,0,0,1-1.12.26c-.15,0-.17.08-.21.22A21.82,21.82,0,0,1,198,90.27c-.07.13-.12.24-.21.24s-.28-.11-.28-.2.06-.12.09-.15a15.11,15.11,0,0,0,1.26-2.82.13.13,0,0,0,0-.05.07.07,0,0,0-.07-.07c-.06,0-.48,0-.75,0s-.32,0-.32-.29a.08.08,0,0,1,.08-.09s.29,0,.54,0l.48,0a.22.22,0,0,0,.16-.06,5.11,5.11,0,0,0,.29-1.23c0-.06,0-.15.08-.15S199.85,85.56,199.85,85.66Zm-.15,4.17a1.58,1.58,0,0,0,1.2.35,2.52,2.52,0,0,0,.85-.12h.05c.1,0,.1.17.1.24s0,.15-.08.18a4.54,4.54,0,0,1-.86.07,2.75,2.75,0,0,1-1.29-.24c-.09-.05-.31-.2-.31-.31s.15-.26.22-.26S199.67,89.8,199.7,89.84Zm.9-2.22a3.62,3.62,0,0,1,1.09.16c.06,0,.08,0,.08.11s0,.26-.14.26l-.11,0a2.76,2.76,0,0,0-.92-.14h-.26c-.11,0-.13,0-.13-.15S200.25,87.62,200.6,87.62Z"/><path class="cls-2" d="M205.79,85.66s-.05.07-.1.1a.2.2,0,0,0-.09.13c-.08.24-.13.48-.2.71a1,1,0,0,0,0,.11.07.07,0,0,0,.07.06,6.74,6.74,0,0,0,1-.31.24.24,0,0,1,.1,0c.08,0,.07.09.07.15,0,.22,0,.24-.12.27a10.76,10.76,0,0,1-1.12.26c-.15,0-.17.08-.21.22a21.82,21.82,0,0,1-1.21,2.93c-.07.13-.12.24-.21.24s-.28-.11-.28-.2.06-.12.09-.15a14.74,14.74,0,0,0,1.26-2.82.13.13,0,0,0,0-.05.07.07,0,0,0-.07-.07c-.06,0-.48,0-.75,0s-.32,0-.32-.29a.08.08,0,0,1,.08-.09s.29,0,.54,0l.48,0a.22.22,0,0,0,.16-.06,5.11,5.11,0,0,0,.29-1.23c0-.06,0-.15.08-.15S205.79,85.56,205.79,85.66Zm-.15,4.17a1.58,1.58,0,0,0,1.2.35,2.52,2.52,0,0,0,.85-.12h.05c.1,0,.1.17.1.24s0,.15-.08.18a4.5,4.5,0,0,1-.86.07,2.75,2.75,0,0,1-1.29-.24c-.09-.05-.31-.2-.31-.31s.15-.26.22-.26S205.61,89.8,205.63,89.84Zm.9-2.22a3.62,3.62,0,0,1,1.09.16c.06,0,.08,0,.08.11s0,.26-.14.26l-.11,0a2.76,2.76,0,0,0-.92-.14h-.26c-.11,0-.13,0-.13-.15S206.18,87.62,206.53,87.62Zm.82-1.42a2.12,2.12,0,0,1,.28.35c0,.08-.15.21-.24.21s-.06,0-.08-.07a6.49,6.49,0,0,0-.43-.5s-.05-.05-.05-.08.15-.19.22-.19S207.3,86.15,207.35,86.2Zm.62-.34a1.57,1.57,0,0,1,.28.35c0,.07-.15.21-.23.21a.11.11,0,0,1-.09-.06,6.24,6.24,0,0,0-.43-.51s-.05-.05-.05-.08.15-.19.22-.19S207.92,85.81,208,85.86Z"/><path class="cls-2" d="M210.31,86.12s.07,0,.07.07,0,.06-.07.08-.11.07-.16.21a6.57,6.57,0,0,0-.32,1.89,4,4,0,0,0,.2,1.26s0,.08.06.08,0,0,0,0l.24-.66c0-.12.06-.17.12-.17s.1,0,.1.08,0,.17-.05.2a4.05,4.05,0,0,0-.2,1.19c0,.1-.21.15-.29.15s-.11,0-.15-.13a4.13,4.13,0,0,1-.43-1.95,7.85,7.85,0,0,1,.28-1.89l.1-.37s0-.09.08-.09Zm2.33-.26c.08,0,.45,0,.45.11s-.08.08-.08.3,0,.52,0,.71,0,.18.15.18l.59-.11h.08c.09,0,.1.17.1.24s-.1.13-.7.21c-.12,0-.19.07-.19.19s0,.44,0,.67a3.08,3.08,0,0,1-.71,2.1c-.05.06-.26.31-.34.31a.34.34,0,0,1-.24-.23.1.1,0,0,1,0-.07,2.79,2.79,0,0,0,.69-1,3,3,0,0,0,.21-1.28c0-.46,0-.64-.17-.64l-1.12.17-.17,0c-.11,0-.13-.15-.13-.22s.06-.13.22-.15.87-.08,1.15-.13a.18.18,0,0,0,.15-.18c0-.14-.1-1-.13-1.11a.26.26,0,0,1,0-.06S212.6,85.86,212.64,85.86Z"/><path class="cls-2" d="M217.76,85.67c.08,0,.15,0,.15.1s0,.06-.05.11a1,1,0,0,0,0,.4v.15a.13.13,0,0,0,.13.14H218a6.81,6.81,0,0,0,1.18-.24l.11,0c.11,0,.11.19.11.28s0,.1-.2.14c-.35.07-.84.15-1.19.18-.12,0-.22.05-.22.19,0,.67,0,.76.14.76a5.69,5.69,0,0,0,1-.18l.08,0c.07,0,.06.1.06.15,0,.27-.06.25-.23.28s-.53.08-.76.1-.23.06-.23.22,0,.65,0,.73.09.17.24.21,1.12.44,1.12.6a.35.35,0,0,1-.25.29c-.05,0-.13-.07-.17-.1a3,3,0,0,0-.71-.42l-.11,0c-.1,0-.1.1-.1.13a1,1,0,0,1-.1.39,1.14,1.14,0,0,1-1,.42c-.44,0-.95-.19-.95-.71s.72-.72,1.18-.72h.37c.09,0,.11-.06.11-.13s0-.67,0-.7-.05-.12-.14-.12h-.7a3.22,3.22,0,0,1-.57,0A.52.52,0,0,1,216,88a.08.08,0,0,1,.08-.09c.06,0,.53,0,.76,0,.5,0,.64,0,.64-.14s0-.49,0-.64,0-.18-.14-.18-.91,0-1.35,0h-.33c-.12,0-.13-.16-.13-.26s0-.14.1-.14.58,0,1,0c.11,0,.68,0,.74,0a.15.15,0,0,0,.12-.15,6.26,6.26,0,0,0-.06-.7.48.48,0,0,1,0-.09s0-.06.07-.06A3.19,3.19,0,0,1,217.76,85.67Zm-1.52,4.25c0,.3.34.37.58.37s.69-.1.73-.47a1.27,1.27,0,0,0,0-.15c0-.11-.07-.15-.4-.15S216.24,89.53,216.24,89.92Z"/><path class="cls-2" d="M223.42,85.51c.14,0,.38,0,.38.09s-.12.05-.12.36v.53a.16.16,0,0,0,.15.17l.29,0c.31,0,1.25-.06,1.51-.06.11,0,.12.06.12.19s-.06.2-.16.2H225c-.19,0-1,0-1.15,0s-.15.1-.15.21c0,.61,0,.62.08.75a1.94,1.94,0,0,1,.18.86,2.72,2.72,0,0,1-.87,2.07s-.33-.07-.33-.13.1-.12.12-.14a2.53,2.53,0,0,0,.6-1,0,0,0,0,0,0,0,.2.2,0,0,0-.1,0,.58.58,0,0,1-.27.07c-.5,0-.68-.54-.68-1s.22-1.11.81-1.11h.06a.08.08,0,0,0,.08-.08c0-.35,0-.51-.17-.51l-.48,0c-.49,0-1,.06-1.48.13h-.08c-.08,0-.16,0-.16-.28s.06-.13.24-.13c.62,0,1.24-.07,1.86-.1.13,0,.24,0,.24-.19a6.17,6.17,0,0,0-.08-.91v0a.06.06,0,0,1,.06-.06Zm-.73,3.2c0,.28.08.64.43.64s.45-.33.45-.63-.1-.71-.44-.71S222.69,88.44,222.69,88.71Z"/><path class="cls-2" d="M228.83,89.93a.86.86,0,1,1-.86-.86A.86.86,0,0,1,228.83,89.93Zm-1.47,0a.61.61,0,1,0,.61-.61A.61.61,0,0,0,227.36,89.93Z"/></g></g></svg>