<svg xmlns="http://www.w3.org/2000/svg" viewBox="0 0 249.04 109.78"><defs><style>.cls-1{fill:#393839;}.cls-2{fill:#fff;}</style></defs><title>design5</title><g id="Layer_2" data-name="Layer 2"><g id="レイヤー_1" data-name="レイヤー 1"><rect class="cls-1" width="249.04" height="109.78"/><path class="cls-2" d="M146.12,19.63a.27.27,0,0,0,.28-.28v-.48a6,6,0,0,0,0-.94.6.6,0,0,1,0-.13c0-.07.06-.1.12-.1s.73,0,.73.19-.07.12-.11.16-.1.29-.1.81v.49a.26.26,0,0,0,.27.28h1.57l.83,0c.18,0,.44.3.44.4a4.38,4.38,0,0,0-.14.58,7.94,7.94,0,0,1-.78,2.51A6.36,6.36,0,0,1,147,25.35a4.41,4.41,0,0,1-1.08.62.44.44,0,0,1-.34-.35c0-.11.14-.16.24-.21a6.24,6.24,0,0,0,3.09-3.17,5.86,5.86,0,0,0,.42-1.78c0-.33-.24-.29-.52-.29h-4.46a.28.28,0,0,0-.28.28v1.3c0,.26,0,.55,0,.67s-.08.22-.32.22-.28,0-.28-.24,0-.44,0-.66v-1.8c0-.26.06-.32.44-.32Z"/><path class="cls-2" d="M153.54,21.44l1.87,0a.28.28,0,0,0,.28-.28v-.32a7.73,7.73,0,0,0-.05-1,.42.42,0,0,1,0-.11.12.12,0,0,1,.13-.13,1.67,1.67,0,0,1,.38.07c.09,0,.21,0,.21.17s0,.1-.09.14-.05.13-.05.28,0,.37,0,.55v.32a.28.28,0,0,0,.28.28h.5l.93,0c.19,0,.21.12.21.28s0,.26-.23.26h-1.39a.28.28,0,0,0-.28.29l0,1.95v.31c0,.83-.18,1.2-1.32,1.2-.25,0-.28-.31-.28-.38s.14-.16.24-.16c.86,0,.85-.09.83-.91l0-1.72c0-.07,0-.12-.1-.12s-.12.07-.17.14A10.51,10.51,0,0,1,153,24.77a.58.58,0,0,1-.25.12c-.13,0-.3-.21-.3-.32s.09-.15.16-.19a8.79,8.79,0,0,0,2.49-2.22.21.21,0,0,0,.07-.13.11.11,0,0,0-.12-.1l-1.46,0-.93,0c-.19,0-.21-.12-.21-.28s0-.26.26-.26Z"/><path class="cls-2" d="M166.4,21.38l1.17,0c.23,0,.25.07.25.32s0,.3-.21.3l-1.21,0h-4.58l-1.2,0c-.21,0-.22-.11-.22-.3s0-.32.25-.32l1.17,0Z"/><path class="cls-2" d="M174.86,19.29a5,5,0,0,0,.87,0l.12,0c.12,0,.38.42.38.52a.39.39,0,0,1-.08.17,1.92,1.92,0,0,0-.28.5,16.27,16.27,0,0,1-1,1.89.32.32,0,0,0-.08.21.25.25,0,0,0,.12.22c.31.22.67.46.67.6s-.18.41-.31.41a.24.24,0,0,1-.15-.08l-.49-.37a.36.36,0,0,0-.23-.11c-.16,0-.23.11-.33.23a8.14,8.14,0,0,1-2.25,1.8,7.49,7.49,0,0,1-1.21.55.61.61,0,0,1-.42-.43c0-.1.14-.13.34-.2a7.13,7.13,0,0,0,3.08-2,.44.44,0,0,0,.14-.28.3.3,0,0,0-.17-.26,12,12,0,0,0-1.27-.7c-.05,0-.17-.08-.17-.15s.18-.4.32-.4a9.27,9.27,0,0,1,1.39.71.66.66,0,0,0,.3.13c.19,0,.25-.15.34-.3a9.46,9.46,0,0,0,.84-1.82c0-.24-.3-.21-.46-.21h-2.55c-.16,0-.23.13-.32.25a14.71,14.71,0,0,1-1.39,1.7.34.34,0,0,1-.21.09c-.14,0-.44-.16-.44-.3s.07-.12.11-.15a9.72,9.72,0,0,0,2.52-3.54c0-.06.07-.24.16-.24a2.87,2.87,0,0,1,.53.3c.07,0,.11.06.11.13s-.14.14-.2.16-.11.14-.16.23-.21.37-.32.56a.2.2,0,0,0,0,.13.14.14,0,0,0,.16.14Z"/><path class="cls-2" d="M184,21.38l1.17,0c.23,0,.25.07.25.32s0,.3-.21.3L184,22H179.4l-1.2,0c-.21,0-.22-.11-.22-.3s0-.32.25-.32l1.17,0Z"/><path class="cls-2" d="M189.26,24.12c0,.5,0,1,0,1.49,0,.3,0,.43-.33.43s-.33-.13-.33-.43c0-.5,0-1,0-1.49v-4.8a10.24,10.24,0,0,0,0-1.26,1.25,1.25,0,0,1,0-.19c0-.07,0-.11.1-.11s.71.1.71.23,0,.09-.07.13a4.54,4.54,0,0,0-.07,1.2Zm1.83-2.64c.15.11.79.61.79.76a.43.43,0,0,1-.33.36.3.3,0,0,1-.2-.1,12,12,0,0,0-1.58-1.27c-.08-.05-.18-.1-.18-.21s.17-.36.3-.36A6.41,6.41,0,0,1,191.09,21.48Z"/><path class="cls-2" d="M195.74,23.57c0,.3,0,.46,0,.58s.05.25.14.25a11.76,11.76,0,0,0,1.68-.73,15.15,15.15,0,0,0,3.52-2.44s.13-.12.19-.12.28.26.28.39a.21.21,0,0,1-.1.15c-.24.22-.49.42-.75.63a17.81,17.81,0,0,1-4.3,2.52L196,25a.51.51,0,0,1-.23.09,1.68,1.68,0,0,1-.55-.24.2.2,0,0,1-.1-.19s0-.72,0-1.19V20a8.16,8.16,0,0,0-.05-1.38s0-.05,0-.07a.1.1,0,0,1,.11-.11c.1,0,.68.1.68.24s0,.07-.06.11a.24.24,0,0,0-.07.18c0,.27,0,.76,0,1Z"/><path class="cls-2" d="M207.14,24.49c0,.42,0,.83,0,1.25,0,.23-.09.26-.36.26s-.28,0-.28-.26c0-.42,0-.83,0-1.25V21.17c0-.08,0-.25-.14-.25a.43.43,0,0,0-.23.12,15.61,15.61,0,0,1-2.24,1.44,2.3,2.3,0,0,1-.48.22c-.13,0-.35-.25-.35-.36s.1-.15.19-.19c1.73-.87,4.18-2.56,5.12-4.28,0,0,.06-.1.12-.1s.33.18.42.23.18.11.18.19-.08.1-.14.12-.15.06-.24.18a12.79,12.79,0,0,1-1.46,1.6c-.11.11-.17.16-.17.33Z"/><path class="cls-2" d="M144.37,39.83a.12.12,0,0,0-.1.06,7.42,7.42,0,0,1-1.64,1.75,2.53,2.53,0,0,1-.63.4.21.21,0,0,1-.19-.19c0-.08.12-.14.17-.18A6.85,6.85,0,0,0,143.76,40a5.7,5.7,0,0,0,.48-.75s0-.1.1-.1.37.13.37.21,0,.06-.08.08a.06.06,0,0,0,0,.06.06.06,0,0,0,0,0,7.93,7.93,0,0,0,2.59,2.09c.08,0,.13.07.13.14s-.09.21-.16.21a5.68,5.68,0,0,1-1.05-.62,8.42,8.42,0,0,1-1.65-1.52A.12.12,0,0,0,144.37,39.83Zm.7,2.61h.37c.17,0,.22,0,.28.06a.3.3,0,0,1,.09.2,5.53,5.53,0,0,1-.66,1.43,6.26,6.26,0,0,1-.6.8.25.25,0,0,1-.19.11c-.08,0-.19-.07-.19-.16s.06-.12.15-.22a5.74,5.74,0,0,0,.83-1.21,2.68,2.68,0,0,0,.25-.59c0-.08,0-.1-.1-.1h-2.35c-.12,0-.13-.06-.13-.17s0-.17.13-.17h2.13Zm-1.3-.8h-.34c-.11,0-.11-.09-.11-.17s0-.16.11-.16h2c.11,0,.11.09.11.17s0,.16-.11.16h-1.66Z"/><path class="cls-2" d="M150.69,39.6c.08,0,.15,0,.15.1s0,.06-.05.11a1,1,0,0,0,0,.4v.15a.13.13,0,0,0,.13.14H151a6.8,6.8,0,0,0,1.18-.24l.11,0c.11,0,.11.19.11.28s0,.1-.2.14c-.35.07-.84.15-1.19.18-.12,0-.22.05-.22.19,0,.67,0,.76.14.76a5.69,5.69,0,0,0,1-.18l.08,0c.07,0,.06.1.06.15,0,.27-.06.25-.23.28s-.53.08-.76.1-.23.06-.23.22,0,.65,0,.73.09.17.24.21,1.12.44,1.12.6a.35.35,0,0,1-.25.3c-.05,0-.13-.07-.17-.1a3,3,0,0,0-.71-.42l-.11,0c-.1,0-.1.1-.1.13a1,1,0,0,1-.1.39,1.14,1.14,0,0,1-1,.42c-.44,0-.95-.19-.95-.71s.72-.72,1.18-.72h.37c.09,0,.11-.06.11-.13s0-.67,0-.7-.05-.12-.14-.12h-.7a3.21,3.21,0,0,1-.57,0,.52.52,0,0,1-.08-.28.08.08,0,0,1,.08-.09c.06,0,.53,0,.76,0,.5,0,.64,0,.64-.14s0-.49,0-.64,0-.18-.14-.18-.91,0-1.35,0h-.33c-.12,0-.13-.16-.13-.26s0-.14.1-.14.58,0,1,0c.11,0,.68,0,.74,0a.15.15,0,0,0,.12-.15,6.23,6.23,0,0,0-.06-.7.49.49,0,0,1,0-.09s0-.06.07-.06A3.19,3.19,0,0,1,150.69,39.6Zm-1.52,4.25c0,.3.34.37.58.37s.69-.1.73-.47a1.27,1.27,0,0,0,0-.15c0-.11-.07-.15-.4-.15S149.17,43.46,149.17,43.85Z"/><path class="cls-2" d="M154.25,40.48c.71,0,3.62-.34,4.28-.46h.1c.1,0,.1.2.1.3s-.06.13-.22.13a4.47,4.47,0,0,0-1.12.12,2,2,0,0,0-1.19,1,2.77,2.77,0,0,0-.4,1.37,1,1,0,0,0,.56,1,1.93,1.93,0,0,0,.83.13h.16c.05,0,.13,0,.13.07a.86.86,0,0,1-.08.28c0,.06-.05.06-.12.06a3.07,3.07,0,0,1-.87-.13,1.31,1.31,0,0,1-1-1.36,3.09,3.09,0,0,1,1-2.25s0,0,0-.05,0,0-.08,0c-.29,0-1.91.24-2.24.32h-.1c-.12,0-.15-.34-.15-.36S154,40.49,154.25,40.48Zm4,.83a1.79,1.79,0,0,1,.27.35c0,.07-.15.21-.23.21s-.06,0-.09-.07a6.33,6.33,0,0,0-.42-.51s-.05-.05-.05-.08.15-.19.22-.19S158.18,41.25,158.23,41.31Zm.71-.32a1.83,1.83,0,0,1,.27.35c0,.07-.15.21-.24.21s-.06,0-.08-.07-.28-.35-.42-.51-.05-.05-.05-.08.15-.19.21-.19S158.89,40.94,158.94,41Z"/><path class="cls-2" d="M163,40.14c0,.13.06.18.18.18h.62a0,0,0,0,0,0,0,0,0,0,0,0,0,0s0,0,0-.06a.24.24,0,0,1,.05-.11,4.83,4.83,0,0,0,.37-.68s0-.07.07-.07.33.15.33.22,0,0-.07.05-.1,0-.14.1a4.43,4.43,0,0,1-.25.46.14.14,0,0,0,0,.06c0,.06,0,.08.1.08h.8c.21,0,.37,0,.37.27v.49s0,.14,0,.17,0,.15-.18.15-.18,0-.18-.12,0-.14,0-.19v-.26a.16.16,0,0,0-.18-.18h-4.11c-.13,0-.18.05-.18.18V41c0,.05,0,.13,0,.19s-.1.12-.18.12-.18,0-.18-.13,0-.13,0-.18v-.18c0-.08,0-.17,0-.26,0-.26.13-.28.36-.28h1.86c.12,0,.18-.05.18-.18v-.21a4,4,0,0,0,0-.55s0,0,0-.06,0-.08.1-.08l.18,0c.15,0,.26,0,.26.09s0,.06-.09.09-.08.15-.08.5Zm1.23,2.6h.43c.16,0,.31,0,.31.2V44.2c0,.47-.57.44-.94.44-.16,0-.24,0-.24-.24s0-.13.11-.13h.39c.29,0,.33,0,.33-.22v-.82a.16.16,0,0,0-.18-.18h-1.27c-.13,0-.18.05-.18.18v.65c0,.26,0,.51,0,.77s0,.24-.19.24-.19-.1-.19-.24,0-.51,0-.77v-.65c0-.12-.05-.18-.17-.18h-1.22c-.13,0-.18.05-.18.18v.8c0,.14,0,.28,0,.42s0,.17-.19.17-.19,0-.19-.16,0-.29,0-.43V43.2c0-.1,0-.19,0-.26s.12-.21.34-.21h1.43c.12,0,.17-.05.17-.17a.71.71,0,0,0,0-.12c0-.11-.06-.15-.17-.15h-1c-.17,0-.3,0-.3-.21v-.83c0-.19.12-.22.28-.22h2.74c.15,0,.26,0,.26.21v.84c0,.19-.12.22-.28.22h-1s0,0,0,0,0,0-.09.08a.16.16,0,0,0-.08.16c0,.12.06.16.17.16Zm-2.54-2.47c-.06,0-.1,0-.12-.1a4.15,4.15,0,0,0-.33-.55.21.21,0,0,1,0-.11c0-.08.12-.15.19-.15s.19.19.35.43a1.2,1.2,0,0,1,.16.32C161.88,40.22,161.74,40.27,161.68,40.27Zm-.13,1.54a.18.18,0,0,0,.17.18H164a.18.18,0,0,0,.18-.18v-.26a.18.18,0,0,0-.18-.17h-2.24a.17.17,0,0,0-.17.17Z"/><path class="cls-2" d="M167.16,40.64h-.58c-.12,0-.12-.08-.12-.17s0-.17.12-.17h2.16c.12,0,.12.08.12.17s0,.17-.12.17h-1.58Zm-.35,2.62c0-.06,0-.12,0-.18s.07-.24.25-.24h1.19c.17,0,.26,0,.26.23v1c0,.12,0,.25,0,.38s0,.17-.18.17-.15-.05-.17-.08-.1-.08-.17-.08h-.64c-.15,0-.2.08-.21.22s0,.11-.18.11-.16,0-.16-.13,0-.23,0-.34Zm.5-.9h-.37c-.11,0-.12-.09-.12-.17s0-.17.12-.17h1.45c.12,0,.12.09.12.18s0,.16-.12.16H167.3Zm0-.85h-.37c-.11,0-.11-.09-.11-.17s0-.16.11-.16h1.45c.11,0,.11.09.11.17s0,.16-.11.16h-1.08Zm.05-1.72H167c-.12,0-.12-.09-.12-.18s0-.16.12-.16h1.45c.11,0,.12.08.12.17s0,.17-.12.17h-1ZM167.14,44a.18.18,0,0,0,.18.18H168a.18.18,0,0,0,.18-.18v-.67a.17.17,0,0,0-.18-.17h-.65a.17.17,0,0,0-.18.17Zm3.15.05a.19.19,0,0,0-.13.05,5.8,5.8,0,0,1-.95.56,2.07,2.07,0,0,1-.49.18.19.19,0,0,1-.19-.19c0-.1.09-.12.19-.16a5.5,5.5,0,0,0,1.2-.64.15.15,0,0,0,.07-.13.18.18,0,0,0,0-.11,4.37,4.37,0,0,1-.56-1.15.17.17,0,0,0-.19-.13H169c-.12,0-.13-.06-.13-.17s0-.18.13-.18l.73,0h1.34c.18,0,.28,0,.33.06a.35.35,0,0,1,.1.22,4.1,4.1,0,0,1-.88,1.38.19.19,0,0,0-.05.12.15.15,0,0,0,.07.12,3.42,3.42,0,0,0,1.26.6c.08,0,.14,0,.14.12s0,.21-.15.21l-.16,0a3.49,3.49,0,0,1-1.35-.68A.2.2,0,0,0,170.29,44.07Zm-.81-2.89c-.08.12-.42.5-.56.5s-.17-.13-.17-.22.06-.09.12-.14a1.3,1.3,0,0,0,.58-1.24c0-.12,0-.23,0-.35s.05-.3.28-.3h.94c.23,0,.28.08.28.29v1.13c0,.22,0,.32.21.32h.36c.13,0,.26,0,.31-.6,0-.09,0-.14.15-.14s.18,0,.18.13a2,2,0,0,1-.1.51c-.12.36-.26.42-.52.42H171c-.36,0-.42-.18-.42-.5V39.93c0-.13-.05-.18-.18-.18H170c-.12,0-.18,0-.18.17A2,2,0,0,1,169.48,41.17Zm.84,2.31a.15.15,0,0,0,.12-.06,3.29,3.29,0,0,0,.67-1c0-.1-.11-.08-.32-.08h-.94c-.07,0-.13,0-.13.12s0,0,0,0a3.6,3.6,0,0,0,.48.92A.15.15,0,0,0,170.32,43.49Z"/><path class="cls-2" d="M175.15,39.62l.44.85a.17.17,0,0,0,.15.1,2.89,2.89,0,0,0,.84-.4.46.46,0,0,1,.17-.09c.08,0,.21.19.21.26s-.83.47-1,.52-.1,0-.1.11a.86.86,0,0,0,.11.23,8.78,8.78,0,0,0,1,1.57.22.22,0,0,1,.09.17.33.33,0,0,1-.26.26c-.08,0-.21-.1-.27-.15a3.13,3.13,0,0,0-1.57-.53.79.79,0,0,0-.87.75c0,.8,1,1,1.66,1h.33c.06,0,.09,0,.09.08,0,.34-.21.3-.25.3-.83,0-2.19-.25-2.19-1.32A1.13,1.13,0,0,1,175,42.2a2.72,2.72,0,0,1,1.24.35.22.22,0,0,0,.09,0,0,0,0,0,0,0,0,.26.26,0,0,0-.06-.11c-.24-.35-.55-.89-.76-1.27a.18.18,0,0,0-.17-.12l-.08,0a8.86,8.86,0,0,1-1.62.26c-.17,0-.22-.29-.22-.31s0-.07.31-.07a6.6,6.6,0,0,0,1.34-.18c.06,0,.12,0,.12-.11a3.14,3.14,0,0,0-.28-.53,3,3,0,0,0-.26-.4.17.17,0,0,1-.06-.1c0-.08.3-.11.34-.11S175.12,39.56,175.15,39.62Z"/><path class="cls-2" d="M180.42,39.58c0,.05-.05.1-.08.13a4.05,4.05,0,0,0-.15.89.07.07,0,0,0,.06.07h.1c.08,0,.21.21.21.26s-.07.1-.11.17-.27.46-.31.55a.38.38,0,0,0,0,.21s0,.1.06.1,0,0,.06,0,.3-.3.39-.39c.37-.35.93-.94,1.46-.94a.53.53,0,0,1,.44.23,1.09,1.09,0,0,1,.08.51c0,.66-.08,1.32-.08,2,0,.26,0,.54.19.54a1.36,1.36,0,0,0,.73-.45.12.12,0,0,1,.08-.06c.09,0,.15.25.15.33s-.18.19-.24.24a1.48,1.48,0,0,1-.79.33c-.43,0-.48-.41-.48-.74,0-.66.07-1.32.07-2,0-.19,0-.53-.26-.53s-.65.32-.86.51a8.89,8.89,0,0,0-.9.88c-.1.1-.13.12-.13.26q0,.57,0,1.14c0,.23,0,.47,0,.7,0,.07,0,.12-.22.12s-.18,0-.18-.13c0-.49,0-1,0-1.49,0,0,0-.06,0-.06s-.18.22-.21.26c-.14.22-.42.69-.54.92,0,0,0,0-.06,0s-.26-.16-.26-.25a.24.24,0,0,1,.06-.12,11.3,11.3,0,0,0,1.05-1.8.3.3,0,0,0,0-.15c0-.16,0-.39,0-.54a.07.07,0,0,0-.08-.07h0a8.41,8.41,0,0,1-1,.34c-.13,0-.19-.3-.19-.34s.09-.08.15-.08a5.52,5.52,0,0,0,1-.24c.22-.06.19-.13.21-.33s0-.64,0-.85a.94.94,0,0,0,0-.15v-.06s0-.08.06-.08S180.42,39.47,180.42,39.58Z"/><path class="cls-2" d="M184.59,40.48c.72,0,3.62-.33,4.28-.46h.1c.1,0,.1.2.1.3s-.06.13-.22.13a4.46,4.46,0,0,0-1.12.12,2,2,0,0,0-1.19,1,2.79,2.79,0,0,0-.4,1.37,1,1,0,0,0,.56,1,1.89,1.89,0,0,0,.82.13h.18c.05,0,.12,0,.12.07a.82.82,0,0,1-.08.28c0,.06-.05.06-.12.06a3.08,3.08,0,0,1-.87-.13,1.31,1.31,0,0,1-1-1.36,3.08,3.08,0,0,1,1-2.25s0,0,0-.05,0,0-.08,0l-.72.08a14.81,14.81,0,0,0-1.52.24h-.1c-.12,0-.15-.34-.15-.36S184.34,40.49,184.59,40.48Z"/><path class="cls-2" d="M190.89,40.57s.12,0,.12.09,0,.07-.07.1-.07.1-.08.18a3.47,3.47,0,0,0,0,.57,4.23,4.23,0,0,0,.24,1.61c.1.24.39.71.69.71s.45-.33.54-.49.08-.16.14-.16.23.14.23.21-.28.42-.35.49a.77.77,0,0,1-.54.34c-.44,0-.78-.44-1-.8a4.57,4.57,0,0,1-.34-2c0-.13,0-.84,0-.94s0-.06.08-.06A1.68,1.68,0,0,1,190.89,40.57Zm2.87,0a2,2,0,0,1,.77.72A3.3,3.3,0,0,1,195,42.5a1.26,1.26,0,0,1,0,.15c0,.14-.14.15-.25.15s-.15-.07-.16-.15a2.55,2.55,0,0,0-.91-1.8c-.05,0-.1-.07-.1-.12A.23.23,0,0,1,193.76,40.53Z"/><path class="cls-2" d="M198.44,39.59s-.05.07-.1.1a.2.2,0,0,0-.09.13c-.08.24-.13.48-.2.71a.42.42,0,0,0,0,.11.07.07,0,0,0,.07.06,6.74,6.74,0,0,0,1-.31.24.24,0,0,1,.1,0c.08,0,.07.09.07.15,0,.22,0,.24-.12.27A10.76,10.76,0,0,1,198,41c-.15,0-.17.08-.21.22a21.82,21.82,0,0,1-1.21,2.93c-.07.13-.12.24-.21.24s-.28-.11-.28-.21.06-.12.09-.15a15.11,15.11,0,0,0,1.26-2.82.13.13,0,0,0,0-.05.07.07,0,0,0-.07-.07c-.06,0-.48,0-.75,0s-.32,0-.32-.29a.08.08,0,0,1,.08-.09s.29,0,.54,0l.48,0a.22.22,0,0,0,.16-.06,5.11,5.11,0,0,0,.29-1.23c0-.06,0-.15.08-.15S198.44,39.49,198.44,39.59Zm-.15,4.17a1.58,1.58,0,0,0,1.2.35,2.52,2.52,0,0,0,.85-.12h.05c.1,0,.1.17.1.24s0,.15-.08.18a4.55,4.55,0,0,1-.86.07,2.75,2.75,0,0,1-1.29-.24c-.09-.05-.31-.2-.31-.31s.15-.26.22-.26S198.26,43.73,198.29,43.76Zm.9-2.22a3.62,3.62,0,0,1,1.09.16c.06,0,.08,0,.08.11s0,.26-.14.26l-.11,0a2.76,2.76,0,0,0-.92-.14h-.26c-.11,0-.13,0-.13-.15S198.83,41.55,199.19,41.55Z"/><path class="cls-2" d="M203.77,40.69a.17.17,0,0,0,.18-.18V40.2a3.65,3.65,0,0,0,0-.6.41.41,0,0,1,0-.08.07.07,0,0,1,.08-.06s.47,0,.47.12,0,.08-.07.1-.06.19-.06.52v.31a.17.17,0,0,0,.17.18H206c.12,0,.28.19.28.26a3,3,0,0,0-.09.37,5.07,5.07,0,0,1-.5,1.61,4.1,4.1,0,0,1-1.38,1.45,2.82,2.82,0,0,1-.69.4.28.28,0,0,1-.22-.23c0-.07.09-.1.15-.13a4,4,0,0,0,2-2,3.78,3.78,0,0,0,.27-1.14c0-.21-.15-.19-.33-.19h-2.87a.18.18,0,0,0-.18.18v.83c0,.17,0,.35,0,.43s-.05.14-.21.14-.18,0-.18-.15,0-.28,0-.42V40.89c0-.17,0-.21.28-.21Z"/><path class="cls-2" d="M208.75,41.85l1.2,0a.18.18,0,0,0,.18-.18v-.2a5.16,5.16,0,0,0,0-.63.29.29,0,0,1,0-.07.07.07,0,0,1,.08-.08,1.15,1.15,0,0,1,.24,0c.06,0,.13,0,.13.11s0,.06-.06.09,0,.08,0,.18,0,.24,0,.35v.21a.18.18,0,0,0,.18.18H211l.6,0c.12,0,.13.08.13.18s0,.17-.15.17h-.89a.18.18,0,0,0-.18.19l0,1.25v.2c0,.53-.12.77-.85.77-.16,0-.18-.2-.18-.24s.09-.1.15-.1c.55,0,.54-.06.53-.58l0-1.11s0-.08-.06-.08-.08,0-.11.09A6.77,6.77,0,0,1,208.38,44a.38.38,0,0,1-.16.08c-.08,0-.19-.14-.19-.21s.06-.1.1-.12a5.66,5.66,0,0,0,1.6-1.43.13.13,0,0,0,0-.08.07.07,0,0,0-.08-.06h-.94l-.6,0c-.12,0-.13-.08-.13-.18s0-.17.17-.17Z"/><path class="cls-2" d="M217.22,41.81H218c.15,0,.16,0,.16.21s0,.19-.13.19h-4.49c-.13,0-.14-.07-.14-.19s0-.21.16-.21h3.69Z"/><path class="cls-2" d="M222.85,40.47a3.28,3.28,0,0,0,.56,0h.08c.08,0,.24.27.24.33a.24.24,0,0,1-.05.11,1.23,1.23,0,0,0-.18.32,10.2,10.2,0,0,1-.64,1.21.21.21,0,0,0-.05.14.16.16,0,0,0,.08.14c.2.14.43.3.43.39s-.12.26-.2.26-.06,0-.1-.05L222.7,43a.22.22,0,0,0-.15-.07c-.1,0-.15.07-.21.15a5.25,5.25,0,0,1-1.45,1.16,4.74,4.74,0,0,1-.78.35.39.39,0,0,1-.27-.28c0-.06.09-.08.22-.13a4.58,4.58,0,0,0,2-1.3.29.29,0,0,0,.09-.18.19.19,0,0,0-.11-.17,7.71,7.71,0,0,0-.82-.45s-.11-.05-.11-.1.12-.26.21-.26a6,6,0,0,1,.89.46.43.43,0,0,0,.19.08c.12,0,.16-.1.22-.19a6.06,6.06,0,0,0,.54-1.17c0-.15-.19-.13-.3-.13h-1.64c-.1,0-.15.08-.21.16a9.34,9.34,0,0,1-.89,1.09.21.21,0,0,1-.13.06c-.09,0-.28-.1-.28-.19s0-.08.07-.1a6.23,6.23,0,0,0,1.62-2.27s0-.15.1-.15a1.8,1.8,0,0,1,.34.19s.07,0,.07.08-.09.09-.13.1-.07.09-.1.15l-.21.36a.13.13,0,0,0,0,.08.09.09,0,0,0,.1.09Z"/><path class="cls-2" d="M228.92,41.81h.75c.15,0,.16,0,.16.21s0,.19-.13.19h-4.49c-.13,0-.14-.07-.14-.19s0-.21.16-.21h3.69Z"/><path class="cls-2" d="M232.56,43.57c0,.32,0,.64,0,1s0,.28-.21.28-.21-.08-.21-.28,0-.64,0-1V40.49a6.88,6.88,0,0,0,0-.81.88.88,0,0,1,0-.12s0-.07.06-.07.46.06.46.15,0,.06,0,.08a3,3,0,0,0,0,.77Zm1.18-1.7c.1.07.51.39.51.49a.27.27,0,0,1-.21.23.19.19,0,0,1-.13-.06,7.76,7.76,0,0,0-1-.82c-.05,0-.12-.06-.12-.13s.11-.23.19-.23A4.07,4.07,0,0,1,233.74,41.88Z"/><path class="cls-2" d="M143.37,55.27c0,.19,0,.3,0,.37s0,.16.09.16a7.42,7.42,0,0,0,1.08-.47,9.76,9.76,0,0,0,2.26-1.57s.08-.08.12-.08.18.17.18.25a.13.13,0,0,1-.06.1c-.15.14-.31.27-.48.41a11.44,11.44,0,0,1-2.76,1.62l-.26.12a.31.31,0,0,1-.15.06,1.09,1.09,0,0,1-.35-.15A.13.13,0,0,1,143,56s0-.46,0-.76V53a5.16,5.16,0,0,0,0-.89s0,0,0,0A.06.06,0,0,1,143,52c.06,0,.44.06.44.15s0,0,0,.07a.15.15,0,0,0,0,.12c0,.17,0,.49,0,.66Z"/><path class="cls-2" d="M150.94,55.86c0,.27,0,.53,0,.8s-.06.17-.23.17-.18,0-.18-.17,0-.53,0-.8V53.73c0-.05,0-.16-.09-.16a.28.28,0,0,0-.15.08,9.93,9.93,0,0,1-1.44.92,1.47,1.47,0,0,1-.31.14c-.08,0-.22-.16-.22-.23s.06-.1.12-.12a8.37,8.37,0,0,0,3.29-2.75s0-.06.08-.06a1.15,1.15,0,0,1,.27.15s.12.07.12.12-.05.06-.09.08-.1,0-.15.12a8.29,8.29,0,0,1-.94,1,.25.25,0,0,0-.11.21Z"/><path class="cls-2" d="M156.23,51.7s-.05.06-.08.08-.15.13-.25.31a.81.81,0,0,0-.09.19.07.07,0,0,0,.07.06,6.85,6.85,0,0,0,1.08-.25H157c.12,0,.13.27.13.28s-.17.12-.26.14c-.4.09-.82.15-1.24.21-.19,0-.17.06-.38.4a2.41,2.41,0,0,0-.24.42.06.06,0,0,0,.06.06.33.33,0,0,0,.13,0,2,2,0,0,1,.93-.28.69.69,0,0,1,.55.24.9.9,0,0,1,.13.46c0,.06,0,.15.09.15a7.28,7.28,0,0,0,.85-.41.57.57,0,0,1,.17-.06c.09,0,.16.21.16.29s-.1.1-.29.17-.55.22-.82.33c-.1,0-.15.08-.15.21s0,.54,0,.81,0,.2-.19.2-.17,0-.17-.14,0-.43,0-.64,0-.14-.1-.14a1.91,1.91,0,0,0-.41.21c-.28.16-.62.39-.62.75,0,.55.7.63,1.11.63a4.6,4.6,0,0,0,1.18-.14l.1,0c.1,0,.1.12.1.19s0,.2-.08.22a9.2,9.2,0,0,1-1.22.09,2.42,2.42,0,0,1-.91-.13.88.88,0,0,1-.62-.82c0-.55.48-.83.9-1.07l.45-.24a.19.19,0,0,0,.13-.16c0-.31,0-.66-.43-.66a2.46,2.46,0,0,0-1.24.48,4,4,0,0,0-.7.83s-.06.1-.12.1-.26-.13-.26-.22a.14.14,0,0,1,.05-.08A14.34,14.34,0,0,0,155,52.91a.2.2,0,0,0,0-.1c0-.05-.05-.05-.09-.05l-.76,0c-.06,0-.1,0-.1-.19s0-.18.11-.18h.48c.68,0,.63,0,.73-.22a4.06,4.06,0,0,0,.29-.69c0-.07,0-.12.08-.12A1.15,1.15,0,0,1,156.23,51.7Z"/><path class="cls-2" d="M160.78,55.06c.13,0,.16-.09.16-.22V52.28c0-.26,0-.56,0-.81,0,0,0,0,0-.06s0-.09.1-.09l.19,0c.15,0,.28,0,.28.09s0,.06-.1.1-.09.22-.09.76V55.8c0,.31,0,.61,0,.91s0,.28-.19.28-.2-.1-.2-.27,0-.61,0-.92v-.3c0-.07,0-.13-.11-.13h-.05c-.42.14-.84.25-1.25.37,0,0,0,0-.06.1s0,.06-.07.06-.24-.33-.24-.37,0-.05.11-.08l.28-.07a.16.16,0,0,0,.14-.19V53a6.2,6.2,0,0,0,0-.66s0,0,0-.06.05-.08.1-.08h.18c.18,0,.26,0,.26.09s0,.06-.09.09-.08.17-.08.61v2.1c0,.08,0,.14.12.14h0Zm2.38.41a.12.12,0,0,0-.1.06,6.29,6.29,0,0,1-1.16,1.23.39.39,0,0,1-.22.11.2.2,0,0,1-.19-.17c0-.07.06-.12.17-.2a6,6,0,0,0,1.22-1.28.26.26,0,0,0,.05-.15.35.35,0,0,0,0-.13,6.66,6.66,0,0,1-.76-2.72c0-.08,0-.12-.13-.12h-.12c-.12,0-.13,0-.13-.17s0-.18.13-.18l.69,0h1.38a.29.29,0,0,1,.31.29,2,2,0,0,1,0,.27,7.16,7.16,0,0,1-.78,2.62.26.26,0,0,0,0,.13.25.25,0,0,0,.05.15,4.61,4.61,0,0,0,1.26,1.26s.09.06.09.12a.23.23,0,0,1-.21.2c-.1,0-.22-.11-.29-.17a5.82,5.82,0,0,1-1-1.11A.12.12,0,0,0,163.16,55.46Zm0-.82s.06,0,.08-.06a7.48,7.48,0,0,0,.62-2.18c0-.06,0-.17,0-.22s-.05-.11-.27-.11h-1c-.12,0-.17.05-.17.17a6.26,6.26,0,0,0,.62,2.34A.11.11,0,0,0,163.16,54.65Z"/><path class="cls-2" d="M166.5,55a.13.13,0,0,0-.1.13,10,10,0,0,1-.33,1.29c0,.07-.06.13-.15.13s-.21,0-.21-.11a.24.24,0,0,1,0-.08,5.86,5.86,0,0,0,.34-1.37c0-.13,0-.18.1-.18s.39.05.39.13S166.53,55,166.5,55Zm-.24-2.5c.05,0,.08,0,.11-.07a10.26,10.26,0,0,0,.62-1.12s0-.06.08-.06.13.08.19.12.15.1.15.14,0,.06-.12.06a.09.09,0,0,0-.08,0,8.87,8.87,0,0,1-.61,1,.14.14,0,0,0,0,.1.16.16,0,0,0,.06.12l.19.19a.15.15,0,0,0,.1,0A.17.17,0,0,0,167,53l.52-.89s0-.07.08-.07.12.06.19.11.16.1.16.15,0,.05-.08.05a.17.17,0,0,0-.12.05,17.78,17.78,0,0,1-1,1.51.08.08,0,0,0,0,.05c0,.06,0,.07.09.07l.63-.06c.06,0,.1,0,.1-.1a.13.13,0,0,0,0-.06,1.6,1.6,0,0,1-.12-.3c0-.08.13-.13.2-.13s.13.1.37.65a2,2,0,0,1,.12.35c0,.1-.13.14-.19.14s-.12-.1-.15-.17a.14.14,0,0,0-.13-.1h0l-.39.05c-.13,0-.17.08-.17.2V56c0,.24,0,.48,0,.72s0,.26-.19.26-.19-.1-.19-.25,0-.48,0-.73V54.57c0-.11-.05-.17-.17-.16l-.5,0a.11.11,0,0,0-.07.06s0,.08-.08.08-.08-.07-.1-.16a1.72,1.72,0,0,1-.06-.24c0-.05,0-.06.12-.06h.29a.27.27,0,0,0,.24-.15l.24-.37a.24.24,0,0,0,0-.12.2.2,0,0,0-.06-.14,9.59,9.59,0,0,0-.78-.68.17.17,0,0,1-.08-.12.2.2,0,0,1,.18-.18c.06,0,.15.1.21.13A.14.14,0,0,0,166.26,52.52Zm1.62,3.57c-.1,0-.13-.06-.15-.14a5.34,5.34,0,0,0-.34-.83.41.41,0,0,1,0-.13c0-.08.12-.15.19-.15a.15.15,0,0,1,.13.1,4.89,4.89,0,0,1,.21.47,3.5,3.5,0,0,1,.19.56C168.06,56,168,56.09,167.88,56.09Zm1.88-2.51a0,0,0,0,0,0,0,3.53,3.53,0,0,1-.51,1.2c-.06.09-.23.35-.35.35s-.2-.1-.2-.18a.13.13,0,0,1,.05-.09,3.29,3.29,0,0,0,.8-1.81v0c0-.1-.07-.13-.16-.13h-.57c-.13,0-.18.05-.18.18v2.85c0,.26,0,.52,0,.78s0,.24-.19.24-.18-.07-.18-.23,0-.53,0-.8V52.85c0-.21,0-.27.25-.27h.87c.12,0,.17,0,.19-.17s0-.18,0-.27c0-.26,0-.64,0-.75s0-.12.08-.12.39,0,.39.1-.06.07-.09.1,0,.05,0,.1,0,.33,0,.5,0,.22,0,.34.06.17.17.17h.86c.21,0,.26.06.26.26s0,.28,0,.41V56c0,.12,0,.24,0,.37a.46.46,0,0,1-.17.44,1.78,1.78,0,0,1-.89.15c-.14,0-.21,0-.21-.24,0-.06,0-.09.09-.09h.29c.54,0,.53-.13.53-.39V53.09c0-.13-.05-.18-.17-.18h-.55c-.08,0-.15,0-.15.13v0a5.27,5.27,0,0,0,.7,1.86.22.22,0,0,1,0,.1c0,.08-.12.17-.21.17s-.12-.07-.15-.12a4.4,4.4,0,0,1-.57-1.48S169.78,53.58,169.76,53.58Z"/><path class="cls-2" d="M174.7,52.61c0,.13.05.18.18.18s.44,0,.66,0,.12.07.12.17,0,.17-.12.17-.44,0-.66,0-.18.05-.18.17v.55c0,.23,0,.46,0,.69s0,.24-.18.24-.19-.09-.19-.25,0-.45,0-.68v-.55c0-.12-.05-.17-.18-.17h-.4c-.13,0-.17,0-.2.17a2.17,2.17,0,0,1-1,1.6.26.26,0,0,1-.14.06c-.1,0-.19-.13-.19-.21s.05-.08.15-.15a1.83,1.83,0,0,0,.81-1.3v0c0-.1-.07-.13-.16-.13h-.71c-.12,0-.13-.07-.13-.17s0-.17.13-.17h.74c.12,0,.17,0,.19-.17V52c0-.12-.05-.17-.17-.17h-.46c-.08,0-.12,0-.12-.17s0-.17.12-.17h2.65c.12,0,.13.07.13.17s0,.17-.13.17h-.44c-.12,0-.17.05-.17.17Zm1.6,2.65H177c.13,0,.13.06.13.17s0,.17-.12.17h-1.62c-.12,0-.18.05-.18.18v.57c0,.13.06.18.18.18h2.33c.12,0,.13.06.13.17s0,.17-.13.17l-.74,0h-3.89l-.74,0c-.12,0-.12-.07-.12-.17s0-.17.12-.17h2.34c.13,0,.18-.05.18-.18v-.57c0-.13-.05-.18-.18-.18h-1.61c-.12,0-.12-.06-.12-.17s0-.17.12-.17h1.61c.13,0,.18-.05.18-.17a2.93,2.93,0,0,0,0-.44s0-.05,0-.07,0-.07.1-.07h.18c.19,0,.26,0,.26.09s0,.05-.09.09-.08.16-.08.4.06.16.18.16Zm-2.49-3.41c-.12,0-.17,0-.17.17s0,.41,0,.6.05.17.17.17h.38c.13,0,.18-.05.18-.18V52c0-.12-.05-.17-.17-.17Zm2.15.44a5.34,5.34,0,0,0,0-.56s0,0,0-.06,0-.08.1-.08h.18c.19,0,.26,0,.26.08s0,.06-.09.09-.08.11-.08.51v.91c0,.19,0,.38,0,.57s0,.23-.18.23-.19-.06-.19-.21,0-.39,0-.58Zm1.29-.2a4.44,4.44,0,0,0,0-.66s0,0,0-.05,0-.08.1-.08l.3,0c.12,0,.15,0,.15.08s0,.07-.09.1-.09.11-.09.59v1.75c0,.13,0,.26,0,.39,0,.52-.56.53-1,.53-.14,0-.18,0-.21,0a.5.5,0,0,1-.06-.22c0-.06,0-.09.11-.09h.28c.49,0,.49-.13.49-.53Z"/><path class="cls-2" d="M179.85,52c.15.07.23.1.23.16s0,.06-.09.09-.16.19-.23.38a5.21,5.21,0,0,0-.3,1.81,3.33,3.33,0,0,0,.19,1.21s0,.07.08.07.09-.08.22-.37.1-.22.15-.22.12,0,.12.08-.09.32-.11.38a2.93,2.93,0,0,0-.12.57.73.73,0,0,0,0,.17v.06c0,.08-.26.19-.29.19s-.2-.24-.24-.32a4.43,4.43,0,0,1-.37-1.88,7,7,0,0,1,.35-2.09c0-.1.06-.19.08-.29s0-.1.08-.1A1.8,1.8,0,0,1,179.85,52Zm1,3.3a1.22,1.22,0,0,0,1.07.48,5,5,0,0,0,1.41-.21l.11,0c.08,0,.07.08.07.15s0,.26-.06.29a6.81,6.81,0,0,1-1.45.18,1.8,1.8,0,0,1-1.35-.48s-.1-.1-.1-.15.12-.3.21-.3A.11.11,0,0,1,180.9,55.29Zm.28-2.87a3.21,3.21,0,0,0,.85.11,4.26,4.26,0,0,0,1-.13l.11,0c.08,0,.08.13.08.21s0,.17,0,.19a5.82,5.82,0,0,1-1.1.12,4.27,4.27,0,0,1-1-.13c-.07,0-.07-.1-.07-.17s0-.21.09-.21Z"/><path class="cls-2" d="M187.25,51.49c.14,0,.38,0,.38.09s-.12.05-.12.36v.53a.16.16,0,0,0,.15.17l.29,0c.31,0,1.25-.06,1.51-.06.11,0,.12.06.12.19s-.06.2-.16.2h-.61c-.19,0-1,0-1.15,0s-.15.1-.15.21c0,.61,0,.62.08.75a2,2,0,0,1,.18.86,2.72,2.72,0,0,1-.87,2.07s-.33-.07-.33-.13.1-.12.12-.14a2.53,2.53,0,0,0,.6-1,0,0,0,0,0,0,0,.19.19,0,0,0-.1,0,.59.59,0,0,1-.27.07c-.5,0-.68-.54-.68-1s.22-1.11.82-1.11h.06a.08.08,0,0,0,.08-.08c0-.35,0-.51-.17-.51l-.48,0c-.49,0-1,.06-1.48.13h-.08c-.08,0-.16,0-.16-.28s.06-.13.24-.13c.62,0,1.24-.07,1.86-.1.13,0,.24,0,.24-.19a6.16,6.16,0,0,0-.08-.91v0a.06.06,0,0,1,.06-.06Zm-.72,3.2c0,.28.08.64.43.64s.46-.33.46-.63-.1-.71-.44-.71S186.52,54.42,186.52,54.69Z"/><path class="cls-2" d="M194.05,52.29s-.06.08-.1.1a8.71,8.71,0,0,0-1.16,1.13s-.11.11-.11.15a0,0,0,0,0,0,0l.13,0a2.44,2.44,0,0,1,.53-.06,1.38,1.38,0,0,1,1.55,1.3,1.74,1.74,0,0,1-1.9,1.61,1.44,1.44,0,0,1-.86-.24.63.63,0,0,1,.37-1.16c.4,0,.89.31.89.74a.87.87,0,0,1-.07.27.06.06,0,0,0,.06.05,1.38,1.38,0,0,0,1.13-1.26c0-.71-.62-1-1.25-1a2,2,0,0,0-1.33.48,10.31,10.31,0,0,0-.82.87s-.06.08-.1.08-.25-.18-.25-.25.13-.17.25-.28c.83-.73,1.53-1.59,2.29-2.38a.14.14,0,0,0,.06-.11.06.06,0,0,0-.07-.06l-.16,0c-.48.1-.95.18-1.42.29l-.15,0c-.13,0-.13-.2-.13-.3s.05-.17.18-.17h.17a6,6,0,0,0,1.55-.23.68.68,0,0,1,.2,0A.63.63,0,0,1,194.05,52.29Zm-1.47,3.13a.35.35,0,0,0-.36.35c0,.29.42.44.66.44s.19-.19.19-.31A.48.48,0,0,0,192.58,55.42Z"/><path class="cls-2" d="M197.23,55c.17.66.81.8,1.4.8a9.11,9.11,0,0,0,1.91-.21l.12,0c.1,0,.09.11.09.18s0,.21-.08.24a11.35,11.35,0,0,1-1.92.19,2,2,0,0,1-1.73-.66,1.22,1.22,0,0,1-.21-.53c0-.12.25-.15.27-.15S197.2,54.88,197.23,55Zm.44-2.65a3.84,3.84,0,0,0,1.15.15,5,5,0,0,0,1.16-.13H200c.11,0,.12.15.12.24s0,.17-.15.19a10.46,10.46,0,0,1-1.18.07,4.78,4.78,0,0,1-1.33-.16.11.11,0,0,1-.08-.12c0-.07,0-.26.12-.26Z"/><path class="cls-2" d="M203.83,51.72c.15,0,.14.06.15.19a9.52,9.52,0,0,0,.28,1.41c0,.06,0,.15.14.15a2.11,2.11,0,0,0,.38-.19c.28-.15.85-.46,1.09-.63a.33.33,0,0,1,.17-.08c.09,0,.25.32.25.37s-.07.07-.12.08a15.18,15.18,0,0,0-1.94,1c-.46.27-1.24.72-1.24,1.33a.62.62,0,0,0,.32.48,2.07,2.07,0,0,0,1.13.25,12.41,12.41,0,0,0,1.7-.15h.06c.07,0,.06.1.06.2s0,.21-.08.23-1.52.1-1.78.1a2.29,2.29,0,0,1-1.23-.26,1,1,0,0,1-.52-.87c0-.69.7-1.14,1.21-1.48.07,0,.12-.08.12-.17a.26.26,0,0,0,0-.1,8.78,8.78,0,0,1-.32-1.13,2.82,2.82,0,0,0-.15-.53.46.46,0,0,1,0-.07C203.49,51.72,203.76,51.72,203.83,51.72Z"/><path class="cls-2" d="M208.3,52.53c.71,0,3.62-.34,4.28-.46h.1c.1,0,.1.2.1.3s-.06.13-.22.13a4.47,4.47,0,0,0-1.12.12,2,2,0,0,0-1.19,1,2.77,2.77,0,0,0-.4,1.37,1,1,0,0,0,.56,1,1.93,1.93,0,0,0,.83.13h.16c.05,0,.13,0,.13.07a.86.86,0,0,1-.08.28c0,.06-.05.06-.12.06a3.07,3.07,0,0,1-.87-.13,1.31,1.31,0,0,1-1-1.36,3.09,3.09,0,0,1,1-2.25s0,0,0-.05,0,0-.08,0c-.29,0-1.91.24-2.24.32h-.1c-.12,0-.15-.34-.15-.36S208,52.55,208.3,52.53Zm4,.83a1.78,1.78,0,0,1,.27.35c0,.07-.15.21-.23.21s-.06,0-.09-.07a6.33,6.33,0,0,0-.42-.51s-.05-.05-.05-.08.15-.19.22-.19S212.23,53.3,212.28,53.36ZM213,53a1.83,1.83,0,0,1,.27.35c0,.07-.15.21-.24.21s-.06,0-.08-.07-.28-.35-.42-.51-.05-.05-.05-.08.15-.19.21-.19S212.93,53,213,53Z"/><path class="cls-2" d="M215.8,56.34c0,.07-.16.28-.26.28s-.09,0-.12-.08a3.35,3.35,0,0,0-1-.84s-.1-.06-.1-.12a.37.37,0,0,1,.24-.25A3.57,3.57,0,0,1,215.8,56.34Z"/><path class="cls-2" d="M217.78,56.41a.34.34,0,0,0-.05.15.14.14,0,0,0,0,.05.3.3,0,0,1,0,.08s0,.08-.06.08a.38.38,0,0,1-.15-.08c-.09-.05-.21-.12-.21-.18a.47.47,0,0,1,.06-.13c.12-.18.35-.59.46-.79.21-.38.38-.78.56-1.18a.09.09,0,0,1,.08-.06c.08,0,.24.1.24.19S217.91,56.18,217.78,56.41Zm.54-2.71c-.06,0-.11-.05-.18-.1l-.44-.3c-.16-.1-.24-.15-.24-.22s.09-.19.17-.19a3.67,3.67,0,0,1,.6.37c.1.07.28.16.28.25A.23.23,0,0,1,218.33,53.7Zm.19-1.39c-.08,0-.21-.15-.56-.38-.17-.12-.28-.17-.28-.24a.23.23,0,0,1,.17-.19,3.46,3.46,0,0,1,.6.38c.12.08.24.16.24.24A.22.22,0,0,1,218.52,52.32Zm2.11,2.79s0-.06-.05-.06a.06.06,0,0,0,0,0,6.77,6.77,0,0,1-1.41,1.5.47.47,0,0,1-.21.11c-.08,0-.17-.12-.17-.2s.06-.1.1-.14a8.06,8.06,0,0,0,1.46-1.43.09.09,0,0,0,0-.06c0-.06-.05-.08-.1-.08h-1.05c-.12,0-.12-.06-.12-.17s0-.17.13-.17l.7,0h.57c.13,0,.18-.05.18-.18a2.78,2.78,0,0,0,0-.4.23.23,0,0,1,0-.06c0-.06,0-.08.1-.08h.18c.15,0,.26,0,.26.09s0,.05-.09.08-.08.14-.08.37.06.16.17.16h.94l.71,0c.12,0,.12.07.12.17s0,.17-.12.17h-1.46s-.09,0-.09.08a.11.11,0,0,0,0,.06,7.76,7.76,0,0,0,1.47,1.36c.05,0,.16.1.16.17s-.1.21-.18.21-.34-.22-.42-.28a6.79,6.79,0,0,1-1.23-1.24.07.07,0,0,0,0,0s-.05,0-.05.06v1c0,.22,0,.44,0,.67s0,.23-.18.23-.19-.08-.19-.22,0-.45,0-.67Zm-.25-2.86a2.17,2.17,0,0,1-1.21,1.64c-.08,0-.22-.12-.22-.2s.05-.07.08-.09a1.89,1.89,0,0,0,1-1.09,1.78,1.78,0,0,0,.06-.37c0-.14,0-.21.08-.21s.42.06.42.13-.06.06-.1.08A.11.11,0,0,0,220.37,52.25Zm2.08-.23c0-.13,0-.18-.17-.18h-.66c-.13,0-.18.05-.18.18v1c0,.24.12.24.32.24h.36c.28,0,.3-.05.37-.4,0-.12,0-.15.13-.15s.22,0,.22.13a1.47,1.47,0,0,1-.19.57c-.13.17-.31.17-.51.17h-.49c-.29,0-.55,0-.55-.4V52c0-.13-.05-.18-.18-.18h-1.36c-.13,0-.17.05-.18.18v.17c0,.06,0,.12,0,.17s-.1.12-.18.12-.18,0-.18-.14,0-.15,0-.19V52c0-.08,0-.15,0-.23s.11-.26.3-.26h3.15c.18,0,.31,0,.31.24s0,.16,0,.24v.15c0,.06,0,.13,0,.19s0,.14-.17.14-.18,0-.18-.12,0-.12,0-.17Z"/><path class="cls-2" d="M226,51.67c.05.1.41.8.44.85a.17.17,0,0,0,.15.1,2.9,2.9,0,0,0,.84-.4s.12-.09.17-.09.21.19.21.26-.83.47-1,.52-.1,0-.1.11a.86.86,0,0,0,.11.23,8.78,8.78,0,0,0,1,1.57A.22.22,0,0,1,228,55a.33.33,0,0,1-.26.26c-.08,0-.21-.1-.27-.15a3.14,3.14,0,0,0-1.57-.53.79.79,0,0,0-.87.75c0,.8,1,1,1.66,1H227c.06,0,.09,0,.09.08,0,.34-.21.3-.25.3-.83,0-2.18-.25-2.18-1.32a1.13,1.13,0,0,1,1.24-1.1,2.72,2.72,0,0,1,1.24.35.23.23,0,0,0,.09,0,0,0,0,0,0,0,0,.26.26,0,0,0-.06-.11c-.24-.35-.55-.89-.76-1.27a.18.18,0,0,0-.17-.12l-.08,0a8.83,8.83,0,0,1-1.62.26c-.17,0-.22-.29-.22-.31s0-.07.31-.07a6.63,6.63,0,0,0,1.34-.18c.06,0,.12,0,.12-.11a3.11,3.11,0,0,0-.28-.53,3.43,3.43,0,0,0-.26-.4.17.17,0,0,1-.06-.1c0-.08.3-.11.34-.11S226,51.62,226,51.67Z"/><path class="cls-2" d="M233.88,52.68a2.06,2.06,0,0,1,.62,1.51,2.2,2.2,0,0,1-1.22,2,2.14,2.14,0,0,1-.62.22c-.1,0-.27-.19-.27-.27s.05-.06.09-.07a1.89,1.89,0,0,0,1.64-1.86,1.77,1.77,0,0,0-1.34-1.76,1.34,1.34,0,0,0-.28,0c-.18,0-.18.16-.19.27a5.39,5.39,0,0,1-.91,3,1,1,0,0,1-.74.44.93.93,0,0,1-.77-.55,1.89,1.89,0,0,1-.18-.86,2.56,2.56,0,0,1,2.58-2.62A2.17,2.17,0,0,1,233.88,52.68Zm-2.28-.17a2.23,2.23,0,0,0-1.53,2.15c0,.35.12,1.06.57,1.06s.78-.71.91-1a6.8,6.8,0,0,0,.4-2s0-.05,0-.07a.12.12,0,0,0-.12-.13A1,1,0,0,0,231.6,52.51Z"/><path class="cls-2" d="M143,64.76c.26,0,.52,0,.78,0,.06,0,.22,0,.25-.17s.1-.73.11-.79,0-.1.08-.1l.35.13s.06,0,.06.07,0,.06-.06.08-.15.28-.18.53c0,0,0,0,0,0a.1.1,0,0,0,.1.1h.1a7.61,7.61,0,0,0,.87-.22.45.45,0,0,1,.13,0c.1,0,.13.22.13.27s0,.1-.19.13c-.33.08-.71.17-1,.22a.2.2,0,0,0-.19.13s0,.28,0,.32a.1.1,0,0,0,.1.1h.06a3,3,0,0,1,.58-.05c.92,0,1.77.47,1.77,1.48a1.82,1.82,0,0,1-1.1,1.59,3.2,3.2,0,0,1-.79.29c-.12,0-.19-.19-.19-.25s0-.06.07-.06a3,3,0,0,0,.51-.17A1.55,1.55,0,0,0,146.42,67a1.1,1.1,0,0,0-.63-1,1.15,1.15,0,0,0-.35-.1c-.1,0-.15.08-.19.16a4.75,4.75,0,0,1-.87,1.34.2.2,0,0,0-.07.15s0,.28.05.33a.17.17,0,0,1,0,.05c0,.09-.15.14-.22.14s-.11-.06-.12-.14,0-.1-.07-.1a.1.1,0,0,0-.07,0,2.09,2.09,0,0,1-1.1.51.56.56,0,0,1-.58-.63,2.56,2.56,0,0,1,1.61-2,.19.19,0,0,0,.13-.2s0-.32,0-.35a.1.1,0,0,0-.1-.11c-.05,0-.62.09-1,.09-.15,0-.25,0-.25-.24s0-.14.15-.14Zm-.48,2.91c0,.17.05.29.24.29a2.15,2.15,0,0,0,1.07-.55.25.25,0,0,0,.1-.21s0,0,0,0c0-.24,0-.5,0-.74,0-.09,0-.19,0-.28s0-.09-.08-.09S142.52,66.85,142.52,67.67Zm1.8-1.79c-.1.06-.08.19-.08.5,0,.11,0,.37,0,.46s0,.08,0,.08a3.34,3.34,0,0,0,.66-1.1s-.05,0-.08,0A1.73,1.73,0,0,0,144.32,65.88Z"/><path class="cls-2" d="M151.54,64.34s-.06.08-.1.1a8.75,8.75,0,0,0-1.16,1.13s-.11.11-.11.15a0,0,0,0,0,0,0l.13,0a2.44,2.44,0,0,1,.53-.06,1.38,1.38,0,0,1,1.55,1.3,1.74,1.74,0,0,1-1.9,1.61,1.44,1.44,0,0,1-.86-.24.63.63,0,0,1,.37-1.16c.4,0,.89.31.89.74a.87.87,0,0,1-.07.27.06.06,0,0,0,.06.05A1.38,1.38,0,0,0,152.05,67c0-.71-.62-1-1.25-1a2,2,0,0,0-1.33.47,10.29,10.29,0,0,0-.82.87s-.06.08-.1.08-.25-.18-.25-.25.13-.17.25-.28c.83-.73,1.53-1.59,2.29-2.38a.14.14,0,0,0,.06-.11.06.06,0,0,0-.07-.06l-.16,0c-.48.1-.95.18-1.42.29l-.15,0c-.13,0-.13-.2-.13-.3s.05-.17.18-.17h.17a6,6,0,0,0,1.55-.23.68.68,0,0,1,.2,0A.63.63,0,0,1,151.54,64.34Zm-1.47,3.13a.35.35,0,0,0-.36.35c0,.29.42.44.66.44s.19-.19.19-.31A.48.48,0,0,0,150.07,67.48Z"/><path class="cls-2" d="M155.39,67.06s-.06,0-.1.05a10.77,10.77,0,0,0-1,.76.12.12,0,0,1-.08,0c-.08,0-.22-.21-.22-.33s.1-.1.37-.27.66-.44,1-.63c.1-.06.13-.1.13-.21v-.37c0-.19,0-.39,0-.57a.13.13,0,0,0-.13-.13l-.63.11-.18,0s-.12,0-.12-.26,0-.13.07-.13h0a4.83,4.83,0,0,0,.88-.1.16.16,0,0,0,.1-.16c0-.17,0-.5,0-.64a1.52,1.52,0,0,0,0-.23s0,0,0-.06,0-.08.06-.08a2.45,2.45,0,0,1,.35.06s.12,0,.12.08-.05.1-.08.13a.38.38,0,0,0-.07.24c0,.06,0,.41,0,.46a.08.08,0,0,0,.09.09,5.85,5.85,0,0,0,.58-.15l.09,0c.1,0,.1.19.1.26s0,.14-.65.24c-.28,0-.26.06-.26.81,0,.2,0,.29.06.29l.09,0a3.57,3.57,0,0,1,1.33-.33,1.19,1.19,0,0,1,1.31,1.11,1,1,0,0,1-.51.88,2.44,2.44,0,0,1-1.16.23c-.06,0-.32,0-.36,0a1.07,1.07,0,0,1-.09-.31.07.07,0,0,1,.07-.07,2.88,2.88,0,0,0,.56.08c.49,0,1.11-.17,1.11-.77s-.53-.76-1-.76a2.78,2.78,0,0,0-1.32.37.18.18,0,0,0-.1.17c0,.1,0,.38,0,.49s.06.78.06.83a.35.35,0,0,1-.37.35c-.12,0-.17-.13-.21-.23a1.38,1.38,0,0,0-.39-.55.11.11,0,0,1,0-.07.08.08,0,0,1,.08-.08,2.33,2.33,0,0,1,.39.24s.09.07.12.07,0,0,0,0,0-.4,0-.46C155.46,67.16,155.48,67.06,155.39,67.06Zm2.55-2.24.26.22.57.47s.1.07.1.12-.15.25-.24.25a.23.23,0,0,1-.13-.08c-.25-.24-.52-.47-.79-.69,0,0-.1-.07-.1-.13a.31.31,0,0,1,.22-.22A.18.18,0,0,1,157.94,64.82Z"/><path class="cls-2" d="M160.21,65.34c0,.05-.1.13-.18.13s-.2-.08-.2-.16.05-.1.08-.13a7.65,7.65,0,0,0,1.15-1.66c.06-.15.08-.17.12-.17s.38.11.38.19,0,.06-.07.06-.1,0-.1.06a.06.06,0,0,0,0,0,5,5,0,0,0,.87.87s.11.08.11.13a.24.24,0,0,1-.19.21c-.15,0-.69-.61-.86-.88a.1.1,0,0,0-.09-.06s-.06,0-.09.06A8.94,8.94,0,0,1,160.21,65.34Zm1.07.67c0,.12.05.17.17.17H162c.12,0,.12.08.12.18s0,.16-.12.16h-.51c-.13,0-.18.05-.18.17v1.39c0,.08,0,.15.12.15h0l.53-.13c.09,0,.12.1.12.17s0,.13-.12.15c-.5.14-1,.24-1.55.34-.15,0-.17,0-.21.13s0,.05-.06.05-.19-.37-.19-.4,0-.06.08-.06a6.85,6.85,0,0,0,.73-.11c.13,0,.17-.08.17-.21V66.68c0-.12-.05-.17-.18-.17h-.62c-.11,0-.12-.08-.12-.17s0-.17.12-.17h.62c.13,0,.18-.05.18-.17v-.39c0-.1,0-.15-.15-.15h-.3c-.12,0-.12-.09-.12-.18s0-.16.12-.16h1.39c.11,0,.12.08.12.17s0,.17-.12.17h-.42c-.12,0-.17.05-.17.17Zm-.78,2c-.09,0-.13-.06-.15-.14-.08-.23-.18-.5-.28-.71a.29.29,0,0,1,0-.12c0-.08.12-.15.19-.15s.17.16.31.52a2.78,2.78,0,0,1,.15.46C160.68,68,160.57,68,160.49,68Zm1.59-1.1c-.06,0-.07,0-.14.33a5.48,5.48,0,0,1-.19.6.12.12,0,0,1-.13.08c-.06,0-.19,0-.19-.1a.55.55,0,0,1,0-.14,5,5,0,0,0,.25-.88.06.06,0,0,1,.06-.05l.14,0c.09,0,.24,0,.24.09S162.12,66.9,162.08,66.91Zm2.76-1.4c0,.1,0,.15.15.15h.1c.19,0,.28,0,.28.22s0,.24,0,.35v1.95c0,.11,0,.21,0,.32,0,.5-.28.51-.9.51-.18,0-.26,0-.26-.24,0-.07,0-.1.1-.1h.44c.26,0,.27-.06.27-.32V66.16c0-.13-.06-.18-.18-.18H162.8c-.12,0-.18.05-.18.18v2c0,.21,0,.41,0,.62s0,.2-.18.2-.18-.05-.18-.19,0-.42,0-.63v-2c0-.12,0-.23,0-.35s.07-.24.3-.24h.12c.1,0,.15,0,.15-.15V64.18c0-.1,0-.21,0-.31s0-.29.25-.29h1.51c.19,0,.25.08.25.26s0,.22,0,.33Zm-.36,2.13c0,.05,0,.11,0,.16s-.08.22-.24.22h-.58a.17.17,0,0,0-.18.17v0c0,.1,0,.11-.18.11s-.16,0-.16-.15,0-.15,0-.24V67c0-.05,0-.11,0-.16s.06-.24.24-.24h.86c.16,0,.24.07.24.23a1.28,1.28,0,0,1,0,.17Zm-.15-3.1c.13,0,.17-.05.18-.17v-.27c0-.13-.05-.18-.18-.18h-1c-.12,0-.17.05-.17.18v1.42c0,.11,0,.15.15.15h.18c.11,0,.16,0,.16-.15v-.38c0-.12,0-.23,0-.34s.06-.26.3-.26h.36Zm-.83,3a.17.17,0,0,0,.18.17H164a.17.17,0,0,0,.18-.17V67a.17.17,0,0,0-.18-.17h-.29a.17.17,0,0,0-.18.17Zm.85-1.86a.15.15,0,0,0,.16-.15V65a.15.15,0,0,0-.16-.15h-.2A.15.15,0,0,0,164,65v.52a.15.15,0,0,0,.15.15Z"/><path class="cls-2" d="M167.57,66.32c-.16.11-.48.35-.63.48a.27.27,0,0,1-.13.08c-.08,0-.22-.18-.22-.3s.08-.09.18-.15l.67-.44c.08,0,.14-.09.14-.19a.36.36,0,0,0,0-.14,4.23,4.23,0,0,0-.48-.8.15.15,0,0,1,0-.09c0-.06.09-.07.24-.13a.66.66,0,0,1,.21-.06s.07,0,.07.06,0,0,0,.06v0a4.39,4.39,0,0,0,.32.76c0,.06.06.12.13.12a.19.19,0,0,0,.1,0,4.33,4.33,0,0,1,2.13-.84,1,1,0,0,1,1.11,1c0,.82-.82,1.2-1.51,1.36l-.23,0c-.12,0-.22-.23-.22-.28s.07-.08.12-.09c.55-.09,1.48-.33,1.48-1,0-.48-.36-.66-.79-.66a3,3,0,0,0-1.34.46c-.19.11-.38.21-.57.33s-.13.08-.13.16a20.91,20.91,0,0,0,1.21,2.15.52.52,0,0,1,.1.22c0,.1-.22.2-.3.2s-.1-.07-.2-.26c-.35-.67-.74-1.34-1.08-2a.13.13,0,0,0-.12-.09C167.7,66.23,167.63,66.28,167.57,66.32Zm1.48-2.18c.22.09.33.12.33.21s-.08.24-.17.24a.16.16,0,0,1-.1,0,3.88,3.88,0,0,0-.83-.29c-.05,0-.08,0-.08-.08s.06-.28.16-.28A4.75,4.75,0,0,1,169.05,64.14Z"/><path class="cls-2" d="M173.38,66.17c.13,0,.18-.05.18-.17V64.25c0-.11,0-.22,0-.34s.08-.28.31-.28h3.31c.13,0,.15,0,.15.18s0,.18-.16.18h-3.1c-.11,0-.15.05-.15.15v.2c0,.11,0,.15.15.15h2.68c.12,0,.13.06.13.17s0,.17-.13.17h-2.68c-.11,0-.15,0-.15.15v.2c0,.11,0,.15.15.15h2.66c.12,0,.13,0,.13.17s0,.17-.13.17h-2.67c-.11,0-.15,0-.15.15V66c0,.11,0,.15.15.15h3.82c.13,0,.13.06.13.19s0,.19-.13.19l-.75,0h-1.55c-.06,0-.13,0-.13.1a.22.22,0,0,0,0,.06,3.15,3.15,0,0,0,.43.71.15.15,0,0,0,.13.07.18.18,0,0,0,.12,0,7.68,7.68,0,0,0,.84-.69s0,0,.08,0,.15.13.21.21.06.07.06.12a.05.05,0,0,1-.06.05h-.11a.08.08,0,0,0-.06,0,9.37,9.37,0,0,1-.74.58.14.14,0,0,0-.06.12.13.13,0,0,0,.05.1,4.81,4.81,0,0,0,1.49.85c.06,0,.13.05.13.13s-.06.21-.15.21a4,4,0,0,1-1.09-.49,4,4,0,0,1-1.61-1.88c-.05-.12-.1-.16-.23-.16h-.8c-.13,0-.18.05-.18.18v1.46c0,.08,0,.15.13.15h0c.35-.08,1.32-.3,1.37-.3s.12.1.12.17-.06.14-.17.17c-.77.19-1.54.34-2.31.48-.18,0-.17,0-.21.12a.07.07,0,0,1-.06.05c-.08,0-.19-.35-.19-.4s.06-.06.28-.09l.47-.08c.13,0,.17-.08.17-.21V66.7c0-.12-.05-.18-.18-.18h-.07l-.74,0c-.13,0-.13-.07-.13-.19s0-.19.13-.19h.81Z"/><path class="cls-2" d="M182.12,63.82c.05,0,.13,0,.13.11s0,.06-.05.1a1.12,1.12,0,0,0-.11.51s0,0,0,0,.1.13.16.14a2.15,2.15,0,0,1,.68.24,1.58,1.58,0,0,1,.91,1.47,2.24,2.24,0,0,1-1.37,2,2.91,2.91,0,0,1-.53.23c-.08,0-.28-.22-.28-.28s.06-.07.15-.1a2.07,2.07,0,0,0,1.64-1.83,1.41,1.41,0,0,0-1.21-1.36l-.13,0c-.12,0-.13.12-.14.2a4.82,4.82,0,0,1-.82,2,1.85,1.85,0,0,1-1.36.86c-.5,0-.66-.56-.66-1a2.39,2.39,0,0,1,.66-1.64.19.19,0,0,0,.07-.14.51.51,0,0,0,0-.13c-.1-.3-.17-.59-.26-.89a.16.16,0,0,1,0-.06c0-.12.28-.15.31-.15s.1.07.1.12.13.62.17.72,0,.12.11.12a.27.27,0,0,0,.12-.05,2.83,2.83,0,0,1,1.13-.38c.21,0,.24,0,.24-.55,0-.12,0-.22,0-.34s0-.09.06-.09A1.84,1.84,0,0,1,182.12,63.82Zm-2.62,3.36c0,.22,0,.62.34.62s.82-.34.82-.53a.23.23,0,0,0,0-.1c-.15-.27-.45-.94-.56-1.23,0,0,0-.06-.07-.06A1.75,1.75,0,0,0,179.5,67.18Zm.83-1.59a8.8,8.8,0,0,0,.4,1c.08.18.14.33.21.33s.32-.5.36-.59a4.78,4.78,0,0,0,.34-1.16s0,0,0-.06a.1.1,0,0,0-.1-.1C181.19,65,180.32,65.37,180.32,65.58Z"/><path class="cls-2" d="M189.36,64.74a2.05,2.05,0,0,1,.62,1.51,2.2,2.2,0,0,1-1.22,2,2.16,2.16,0,0,1-.62.22c-.1,0-.27-.19-.27-.27s.05-.06.09-.07a1.89,1.89,0,0,0,1.64-1.86,1.77,1.77,0,0,0-1.34-1.76,1.36,1.36,0,0,0-.28,0c-.18,0-.18.16-.19.27a5.39,5.39,0,0,1-.91,3,1,1,0,0,1-.75.44.92.92,0,0,1-.76-.55,1.89,1.89,0,0,1-.18-.86,2.56,2.56,0,0,1,2.58-2.62A2.16,2.16,0,0,1,189.36,64.74Zm-2.27-.17a2.22,2.22,0,0,0-1.53,2.15c0,.35.12,1.06.57,1.06s.78-.71.9-1a6.74,6.74,0,0,0,.41-2s0-.05,0-.07a.13.13,0,0,0-.12-.13A1,1,0,0,0,187.09,64.57Z"/><path class="cls-2" d="M194.67,64.58a3.3,3.3,0,0,0,.56,0h.08c.08,0,.24.27.24.33a.24.24,0,0,1-.05.11,1.18,1.18,0,0,0-.18.32,10.5,10.5,0,0,1-.64,1.21.21.21,0,0,0-.05.14.16.16,0,0,0,.08.14c.2.14.43.3.43.39s-.12.26-.2.26a.16.16,0,0,1-.1-.05l-.31-.24c-.05,0-.08-.07-.15-.07s-.15.07-.21.15a5.28,5.28,0,0,1-1.45,1.16,4.89,4.89,0,0,1-.78.35.39.39,0,0,1-.27-.28c0-.06.09-.08.22-.13a4.58,4.58,0,0,0,2-1.3.29.29,0,0,0,.09-.18.19.19,0,0,0-.11-.17,7.67,7.67,0,0,0-.81-.45s-.11-.05-.11-.1.12-.26.21-.26a5.86,5.86,0,0,1,.89.46.44.44,0,0,0,.19.08c.12,0,.16-.1.22-.19a6,6,0,0,0,.54-1.17c0-.15-.19-.13-.29-.13H193c-.1,0-.15.08-.21.16a9.53,9.53,0,0,1-.89,1.09.21.21,0,0,1-.13.06c-.09,0-.28-.1-.28-.19s0-.08.07-.1a6.28,6.28,0,0,0,1.62-2.27s0-.15.1-.15a1.88,1.88,0,0,1,.34.19s.07,0,.07.08-.09.09-.13.1-.07.09-.1.15-.14.24-.21.36a.13.13,0,0,0,0,.08.09.09,0,0,0,.1.09Z"/><path class="cls-2" d="M201.62,65.45c0,.08-.31.38-.39.46a12.59,12.59,0,0,1-1.52,1.28,10.4,10.4,0,0,1-1.87,1.07c-.16.07-.16.08-.22.2a.09.09,0,0,1-.08,0c-.06,0-.1-.08-.14-.17a1.36,1.36,0,0,1-.12-.26c0-.05.1-.07.16-.09A8.4,8.4,0,0,0,200,66.55a11,11,0,0,0,1.39-1.34.14.14,0,0,1,.1-.07C201.54,65.15,201.62,65.4,201.62,65.45Zm-4-1.36.63.44c.15.11.31.22.31.29s-.12.25-.22.25-.22-.13-.28-.18c-.22-.17-.45-.35-.69-.51,0,0-.08-.05-.08-.1s.11-.24.21-.24A.25.25,0,0,1,197.64,64.09Z"/><path class="cls-2" d="M206.17,64.41h.53c.13,0,.29.21.29.24s-.05.08-.1.38a3.82,3.82,0,0,1-1.73,2.82,6.31,6.31,0,0,1-1.14.6.56.56,0,0,1-.2.06c-.12,0-.21-.17-.21-.24s.05-.09.11-.1A4.3,4.3,0,0,0,206,66.55a3.48,3.48,0,0,0,.53-1.54.68.68,0,0,0,0-.11c0-.16-.15-.14-.34-.14h-2.45l-.77,0c-.13,0-.14-.08-.14-.19s0-.19.14-.19h3.21Zm1.13-.48c.05.05.29.29.29.34a.32.32,0,0,1-.23.22s-.06,0-.09-.07a6.32,6.32,0,0,0-.44-.49s-.05-.05-.05-.08a.32.32,0,0,1,.2-.2C207,63.65,207.25,63.88,207.31,63.93Zm.54-.47c0,.05.28.29.28.34a.31.31,0,0,1-.23.21.11.11,0,0,1-.08-.06c-.14-.17-.29-.33-.44-.49a.13.13,0,0,1-.06-.08c0-.06.15-.19.21-.19S207.79,63.4,207.85,63.45Z"/><path class="cls-2" d="M212.46,65.29c.14,0,.29,0,.43,0H213c.14,0,.3.21.3.25s-.09.28-.1.31a5,5,0,0,1-2,2.56,2.83,2.83,0,0,1-.75.4c-.08,0-.21-.15-.21-.23s.1-.11.15-.13a4.71,4.71,0,0,0,2.22-2.16,2.39,2.39,0,0,0,.19-.49c0-.09,0-.14-.33-.14H209c-.13,0-.14-.07-.14-.19s0-.19.15-.19h3.4Zm-.61-1.37h.65c.14,0,.15.05.15.19s0,.19-.15.19h-3c-.13,0-.15-.06-.15-.19s0-.19.15-.19h2.32Z"/><path class="cls-2" d="M218.54,65.92h.75c.15,0,.16,0,.16.21s0,.19-.14.19h-4.49c-.13,0-.14-.07-.14-.19s0-.21.16-.21h3.69Z"/><path class="cls-2" d="M222.7,63.71s0,.08-.08.12a4.52,4.52,0,0,0-.23.75.12.12,0,0,0,0,.05.07.07,0,0,0,.07.06h.07l.49-.13.07,0c.08,0,.09.22.09.27s-.06.14-.75.26c-.13,0-.19,0-.24.17a12.74,12.74,0,0,1-.65,1.58c-.13.28-.29.6-.45.87a.11.11,0,0,1-.1.07c-.07,0-.28-.1-.28-.19a.53.53,0,0,1,.1-.2,11.21,11.21,0,0,0,.89-1.76,3.4,3.4,0,0,0,.12-.36.06.06,0,0,0-.07-.06s-.68.08-.83.08h-.08c-.13,0-.15-.19-.15-.3s.06-.08.13-.08a5.11,5.11,0,0,0,1.12-.1c.08-.05.09-.14.13-.3a3.17,3.17,0,0,0,.14-.89c0-.06,0-.1.07-.1S222.7,63.62,222.7,63.71Zm1,1.81s0,.19,0,.37,0,1.26.08,1.48.12.14.22.17,1,.42,1,.56-.12.24-.22.24a.27.27,0,0,1-.15-.08,2.57,2.57,0,0,0-.72-.39c-.06,0-.06.07-.06.11a.71.71,0,0,1-.79.8c-.42,0-1-.25-1-.75s.52-.66.95-.66a3.11,3.11,0,0,1,.36,0h0a.07.07,0,0,0,.07-.08c0-.17-.12-1.59-.13-1.75s0,0,0-.06.05-.08.1-.08S223.74,65.43,223.74,65.52ZM222.38,68c0,.29.42.42.66.42s.46-.19.46-.49,0-.26-.47-.26C222.81,67.68,222.38,67.72,222.38,68Zm2.85-2.46c0,.1-.18.21-.26.21s-.06,0-.09-.06a3.14,3.14,0,0,0-.77-.78s-.08-.06-.08-.11a.36.36,0,0,1,.24-.22A3,3,0,0,1,225.23,65.55Z"/><path class="cls-2" d="M227.83,64a8.61,8.61,0,0,0,.28,1.45s0,.13.13.13a2.47,2.47,0,0,0,.37-.19l.88-.53a.28.28,0,0,1,.16-.07c.09,0,.26.32.26.37s-.08.07-.12.08a11.85,11.85,0,0,0-1.72.85c-.45.25-1.12.65-1.12,1.24a.65.65,0,0,0,.31.49,2.1,2.1,0,0,0,1.14.24,12.58,12.58,0,0,0,1.7-.15h.06c.07,0,.06.1.06.2s0,.21-.08.23-1.52.1-1.78.1a2.29,2.29,0,0,1-1.23-.26,1,1,0,0,1-.52-.87c0-.67.6-1.07,1.1-1.39.06,0,.12-.08.12-.17a.22.22,0,0,0,0-.09,8.94,8.94,0,0,1-.33-1.14,3.13,3.13,0,0,0-.15-.53.25.25,0,0,1,0-.07c0-.09.27-.09.33-.09S227.82,63.92,227.83,64Zm2.5.18a2.82,2.82,0,0,1,.26.44c0,.08-.17.17-.25.17s-.13-.19-.43-.65c0,0,0,0,0-.08s.17-.17.23-.17S230.22,64.07,230.33,64.22Zm.63-.35a2.4,2.4,0,0,1,.24.42c0,.08-.17.18-.24.18s-.09-.12-.44-.65c0,0,0-.05,0-.08s.17-.17.23-.17S230.81,63.64,231,63.87Z"/><path class="cls-2" d="M233.82,68.39c0,.07-.16.28-.26.28s-.09,0-.12-.08a3.38,3.38,0,0,0-1-.84s-.1-.06-.1-.12a.37.37,0,0,1,.24-.25A3.56,3.56,0,0,1,233.82,68.39Z"/><path class="cls-2" d="M143.8,76.1a8.6,8.6,0,0,0,.28,1.45s0,.13.13.13a2.46,2.46,0,0,0,.37-.19l.88-.53a.28.28,0,0,1,.16-.07c.09,0,.26.32.26.37s-.08.07-.12.08a11.86,11.86,0,0,0-1.72.85c-.45.25-1.12.65-1.12,1.24a.65.65,0,0,0,.31.49,2.1,2.1,0,0,0,1.14.24,12.57,12.57,0,0,0,1.7-.15h.06c.07,0,.06.1.06.2s0,.21-.08.23-1.52.1-1.78.1a2.29,2.29,0,0,1-1.23-.26,1,1,0,0,1-.52-.87c0-.67.6-1.07,1.1-1.39.06,0,.12-.08.12-.17a.22.22,0,0,0,0-.09,8.92,8.92,0,0,1-.33-1.14,3.13,3.13,0,0,0-.15-.53.25.25,0,0,1,0-.07c0-.09.27-.09.33-.09S143.78,76,143.8,76.1Zm2.5.18a2.83,2.83,0,0,1,.26.44c0,.08-.17.17-.25.17s-.13-.19-.43-.65c0,0,0,0,0-.08s.17-.17.23-.17S146.19,76.12,146.3,76.28Zm.63-.35a2.41,2.41,0,0,1,.24.42c0,.08-.17.18-.24.18s-.09-.12-.44-.65c0,0,0-.05,0-.08s.17-.17.23-.17S146.78,75.69,146.92,75.92Z"/><path class="cls-2" d="M150.92,75.9s.18.13.18.2-.08.1-.13.1a.26.26,0,0,0-.18.12c-.15.18-.31.4-.44.59a11.37,11.37,0,0,0-.84,1.36,0,0,0,0,0,0,0s.1-.05.13-.08a2.41,2.41,0,0,1,1.12-.44.68.68,0,0,1,.58.33,1,1,0,0,1,.06.35,3,3,0,0,1-.09.64,4.7,4.7,0,0,0-.1.72c0,.15,0,.35.23.35.44,0,1.09-.73,1.29-1.08,0,0,0-.08.09-.08s.22.29.22.37a.16.16,0,0,1-.07.12c-.14.15-.29.29-.45.43a1.82,1.82,0,0,1-1.13.62c-.39,0-.55-.34-.55-.69a4.16,4.16,0,0,1,.09-.75,2.91,2.91,0,0,0,.06-.58c0-.23-.08-.42-.35-.42a2.48,2.48,0,0,0-1.53,1,4.25,4.25,0,0,0-.49,1.29c0,.06,0,.13-.11.13s-.35-.09-.35-.17.08-.21.1-.26a16.91,16.91,0,0,1,.72-1.61,19.84,19.84,0,0,1,1.36-2.28,2.06,2.06,0,0,0,.17-.31s.06-.14.11-.14S150.87,75.87,150.92,75.9Z"/><path class="cls-2" d="M156.79,75.77s0,.08-.08.12a4.71,4.71,0,0,0-.23.75.16.16,0,0,0,0,.05.07.07,0,0,0,.07.06h.07l.49-.13.07,0c.08,0,.09.22.09.27s-.06.14-.75.26c-.13,0-.19,0-.24.17a13,13,0,0,1-.65,1.58c-.13.28-.3.6-.45.87a.11.11,0,0,1-.1.07c-.07,0-.28-.1-.28-.19a.53.53,0,0,1,.1-.2,11.21,11.21,0,0,0,.89-1.76,3.43,3.43,0,0,0,.12-.36.07.07,0,0,0-.07-.06s-.68.08-.83.08h-.08c-.13,0-.15-.19-.15-.3s.06-.08.13-.08a5.09,5.09,0,0,0,1.12-.1c.08-.05.09-.14.13-.3a3.17,3.17,0,0,0,.14-.89c0-.06,0-.1.07-.1S156.79,75.68,156.79,75.77Zm1,1.81s0,.19,0,.37,0,1.26.08,1.48.12.14.22.17,1,.42,1,.56-.12.24-.22.24a.28.28,0,0,1-.15-.08,2.54,2.54,0,0,0-.72-.39c-.06,0-.06.07-.06.11a.71.71,0,0,1-.79.8c-.42,0-1-.25-1-.75s.52-.66.94-.66a3.11,3.11,0,0,1,.36,0h0a.07.07,0,0,0,.07-.08c0-.17-.12-1.59-.13-1.75s0,0,0-.06.05-.08.1-.08S157.82,77.48,157.82,77.57Zm-1.36,2.49c0,.29.42.42.66.42s.46-.19.46-.49,0-.26-.47-.26C156.9,79.74,156.46,79.77,156.46,80.07Zm2.85-2.46c0,.1-.18.21-.26.21s-.06,0-.09-.06a3.16,3.16,0,0,0-.76-.78s-.08-.06-.08-.11a.36.36,0,0,1,.24-.22A3,3,0,0,1,159.31,77.61Z"/><path class="cls-2" d="M163.36,77.92a.16.16,0,0,0-.12.06,7.64,7.64,0,0,1-2.15,1.48,1.32,1.32,0,0,1-.41.16.2.2,0,0,1-.19-.2c0-.1.12-.13.19-.17A7.25,7.25,0,0,0,162.64,78a6.32,6.32,0,0,0,.62-.62s.06-.09.11-.09.36.15.36.24,0,0-.06.06a.06.06,0,0,0,0,.05,0,0,0,0,0,0,0,8.63,8.63,0,0,0,2.37,1.6c.06,0,.14.06.14.13s-.08.21-.16.21a4.69,4.69,0,0,1-1-.48A8.37,8.37,0,0,1,163.48,78,.17.17,0,0,0,163.36,77.92Zm.33-1.78h1.87c.22,0,.38,0,.38.27,0,.09,0,.19,0,.28V77s0,.13,0,.17,0,.14-.18.14-.18,0-.18-.12,0-.14,0-.19v-.35c0-.12-.05-.17-.18-.17h-4.13c-.12,0-.17.05-.17.17v.3c0,.06,0,.13,0,.2s-.09.12-.18.12-.18,0-.18-.13,0-.13,0-.19v-.26c0-.09,0-.18,0-.27,0-.26.14-.28.36-.28H163c.13,0,.18-.05.18-.18a3.66,3.66,0,0,0,0-.44s0,0,0-.06.05-.08.1-.08h.18c.14,0,.26,0,.26.09s0,.06-.09.09-.08.16-.08.4S163.57,76.14,163.69,76.14Zm-1.1.91a.17.17,0,0,0-.1.06,4.2,4.2,0,0,1-1.24.94.55.55,0,0,1-.21.06.21.21,0,0,1-.18-.19c0-.06,0-.08.09-.1a3.86,3.86,0,0,0,1.34-1s.06-.07.1-.07.33.19.33.25S162.62,77.05,162.59,77.05Zm-.16,3.73a.11.11,0,0,0-.13.13c0,.12-.05.14-.18.14s-.17-.05-.17-.16,0-.21,0-.3v-1c0-.09,0-.18,0-.28s.06-.28.28-.28h2.22c.2,0,.29.05.29.26s0,.2,0,.29v1c0,.1,0,.21,0,.31s0,.16-.18.16-.17,0-.17-.17a.11.11,0,0,0-.13-.13Zm-.13-.5a.18.18,0,0,0,.17.18h1.74a.19.19,0,0,0,.18-.18v-.74a.18.18,0,0,0-.18-.18h-1.74a.17.17,0,0,0-.17.18Zm3.28-2.17a2.87,2.87,0,0,1-.73-.43c-.13-.1-.78-.64-.78-.77s.12-.17.19-.17.09,0,.13.09a4.39,4.39,0,0,0,1.27,1c.05,0,.11.06.11.12S165.66,78.12,165.57,78.12Z"/><path class="cls-2" d="M171.52,78.11s-.09,0-.09.07a.12.12,0,0,0,0,.06,4.42,4.42,0,0,0,1.34.92c.06,0,.18.08.18.16s-.08.21-.17.21a2.74,2.74,0,0,1-.63-.32,4.16,4.16,0,0,1-1.07-1,.27.27,0,0,0-.28-.14h-1.11a.32.32,0,0,0-.29.11,6.09,6.09,0,0,1-1.68,1.13.8.8,0,0,1-.26.09.2.2,0,0,1-.19-.2c0-.1.13-.14.21-.17a5.52,5.52,0,0,0,1.43-.85.07.07,0,0,0,0-.06s0-.05-.07-.06h-1.4c-.12,0-.13-.06-.13-.17s0-.17.13-.17h1.71a.3.3,0,0,0,.28-.12,1.93,1.93,0,0,0,.24-.37s.05-.1.11-.1.37.1.37.2-.08.08-.13.1-.08.06-.15.17a.09.09,0,0,0,0,.05c0,.05,0,.06.08.06h2.88c.12,0,.13.06.13.17s0,.17-.13.17h-1.34Zm-3.3-.88c-.15,0-.16,0-.16-.15V75.92c0-.18,0-.26.24-.26h1.21c.2,0,.24.08.24.26s0,.15,0,.23v.58c0,.11,0,.21,0,.32s0,.12-.16.12a.19.19,0,0,1-.15,0s-.06-.06-.1-.07h-.86c-.06,0-.08,0-.11.1S168.35,77.23,168.22,77.23Zm.08,3.85c-.15,0-.16-.05-.16-.16s0-.2,0-.3v-.94c0-.08,0-.16,0-.24s0-.27.24-.27h1.22c.19,0,.24.08.24.26s0,.17,0,.25v.83c0,.1,0,.21,0,.31s0,.15-.16.15-.16,0-.17-.15,0-.12-.13-.12h-.78c-.08,0-.13,0-.13.12S168.49,81.08,168.31,81.08Zm1.12-4.94a.16.16,0,0,0-.17-.17h-.69a.17.17,0,0,0-.18.17v.46c0,.11.07.18.18.18h.69a.17.17,0,0,0,.17-.18Zm-1,4.08a.17.17,0,0,0,.18.17h.69a.17.17,0,0,0,.18-.17v-.58a.18.18,0,0,0-.18-.18h-.69a.18.18,0,0,0-.18.18Zm2.23.73c0,.11,0,.14-.17.14s-.16,0-.16-.15,0-.22,0-.33v-.91c0-.09,0-.19,0-.28s0-.25.22-.25h1.34c.17,0,.23.07.23.24v1.52c0,.11,0,.16-.16.16s-.17,0-.17-.12a1.24,1.24,0,0,1,0-.15.11.11,0,0,0-.13-.12h-.89c-.08,0-.13,0-.13.12Zm-.06-3.71c-.14,0-.16,0-.16-.14s0-.2,0-.3v-.62c0-.08,0-.17,0-.26s.05-.24.22-.24h1.35c.17,0,.23.08.23.24s0,.17,0,.26v.62c0,.1,0,.21,0,.31s0,.13-.17.13-.13,0-.15-.06,0-.09-.1-.1h-1c-.06,0-.08,0-.1.1S170.77,77.24,170.64,77.24Zm.05,3a.18.18,0,0,0,.18.18h.8a.18.18,0,0,0,.18-.18v-.58a.18.18,0,0,0-.18-.18h-.8a.18.18,0,0,0-.18.18ZM172,76.15a.17.17,0,0,0-.17-.18H171a.18.18,0,0,0-.18.18v.46a.19.19,0,0,0,.18.18h.8a.17.17,0,0,0,.17-.18Z"/><path class="cls-2" d="M174.33,76.64c.71,0,3.62-.34,4.28-.46h.1c.1,0,.1.2.1.3s-.06.13-.22.13a4.47,4.47,0,0,0-1.12.12,2,2,0,0,0-1.19,1,2.77,2.77,0,0,0-.4,1.37,1,1,0,0,0,.56,1,1.93,1.93,0,0,0,.83.13h.16c.05,0,.13,0,.13.07a.86.86,0,0,1-.08.28c0,.06-.05.06-.12.06a3.07,3.07,0,0,1-.87-.13,1.31,1.31,0,0,1-1-1.36,3.09,3.09,0,0,1,1-2.25s0,0,0-.05,0,0-.08,0c-.29,0-1.91.24-2.24.32h-.1c-.12,0-.15-.34-.15-.36S174.08,76.66,174.33,76.64Zm4,.83a1.79,1.79,0,0,1,.27.35c0,.07-.15.21-.23.21s-.06,0-.09-.07a6.33,6.33,0,0,0-.42-.51s-.05-.05-.05-.08.15-.19.22-.19S178.27,77.41,178.32,77.47Zm.71-.32a1.83,1.83,0,0,1,.27.35c0,.07-.15.21-.24.21s-.06,0-.08-.07-.28-.35-.42-.51-.05-.05-.05-.08.15-.19.21-.19S179,77.1,179,77.15Z"/><path class="cls-2" d="M182.92,75.79c0,.06-.06.09-.11.12s-.31.64-.37.83a.25.25,0,0,0,0,.07c0,.1.08.13.17.14a5.51,5.51,0,0,0,.74.06c.14,0,.24,0,.24.11a.75.75,0,0,1-.05.24.09.09,0,0,1-.1.06,7,7,0,0,1-1-.12h-.07c-.13,0-.15.12-.17.19s-.17.71-.17.82.07.12.14.12a5.46,5.46,0,0,0,.71.05h.1c.08,0,.14,0,.14.1a.9.9,0,0,1-.06.22c0,.06,0,.08-.1.08s-.59-.05-.79-.08h-.08c-.17,0-.16.15-.17.21a3.4,3.4,0,0,0,0,.37c0,.7.31,1.09,1,1.09a1.73,1.73,0,0,0,.91-.24.72.72,0,0,0,.36-.68,2.36,2.36,0,0,0-.24-1,.23.23,0,0,1,0-.09c0-.09.21-.14.29-.14s.1.05.13.12a3.12,3.12,0,0,1,.24,1.15c0,.91-.88,1.24-1.66,1.24a1.26,1.26,0,0,1-1.39-1.36,4.51,4.51,0,0,1,0-.58V78.8c0-.15-.14-.17-.28-.21a2.36,2.36,0,0,1-.45-.2c-.06,0-.1-.06-.1-.13s0-.28.12-.28A.26.26,0,0,1,181,78a1.78,1.78,0,0,0,.56.24c.16,0,.12-.21.3-.9a.64.64,0,0,0,0-.1c0-.12-.1-.15-.19-.19a5.36,5.36,0,0,1-.55-.23c-.06,0-.12-.06-.12-.13s0-.28.13-.28a.26.26,0,0,1,.12.05,3.09,3.09,0,0,0,.56.28l.1,0c.1,0,.12-.1.14-.17.1-.32.2-.62.29-.94,0-.06,0-.12.1-.12S182.92,75.69,182.92,75.79Z"/><path class="cls-2" d="M186.62,80.08s0,0-.06.07,0,.09-.08.09-.22-.35-.22-.37,0-.06.15-.08l.42-.08c.13,0,.17-.08.17-.21V76.13c0-.12,0-.17-.17-.17h-.38c-.12,0-.12-.07-.12-.17s0-.17.12-.17h2.86c.12,0,.13.06.13.17s0,.17-.12.17H189c-.12,0-.17.06-.17.17V80c0,.29,0,.58,0,.87s0,.26-.18.26-.19-.11-.19-.26,0-.58,0-.87v-.16c0-.08,0-.14-.12-.14h0C187.73,79.83,187.19,80,186.62,80.08Zm.71-3.38a.17.17,0,0,0,.17.18h.77a.18.18,0,0,0,.18-.18v-.57a.18.18,0,0,0-.18-.18h-.77a.17.17,0,0,0-.17.18Zm0,1.23a.17.17,0,0,0,.17.18h.77a.18.18,0,0,0,.18-.18v-.55c0-.11-.06-.17-.18-.17h-.77a.16.16,0,0,0-.17.17Zm0,1.5c0,.08,0,.15.12.15h0l.79-.19a.19.19,0,0,0,.16-.22V78.6c0-.12-.05-.17-.18-.17h-.77c-.12,0-.17.05-.17.17Zm3.24.12a.14.14,0,0,0-.1.06,9,9,0,0,1-1.12,1.09.45.45,0,0,1-.26.15.18.18,0,0,1-.17-.17c0-.06.06-.1.15-.18a7.07,7.07,0,0,0,1.23-1.2.25.25,0,0,0,.05-.15.25.25,0,0,0,0-.13,6.65,6.65,0,0,1-.66-2.41c0-.08-.05-.12-.13-.12h-.08c-.12,0-.13-.07-.13-.17s0-.17.13-.17h2a.29.29,0,0,1,.31.29,6.36,6.36,0,0,1-.19,1.07,6,6,0,0,1-.65,1.52.24.24,0,0,0,0,.13.25.25,0,0,0,0,.13,4.87,4.87,0,0,0,.91,1c.05,0,.2.17.2.23a.23.23,0,0,1-.21.2c-.2,0-1-.94-1.09-1.14A.13.13,0,0,0,190.57,79.55Zm0-.79a.09.09,0,0,0,.08-.05,5.56,5.56,0,0,0,.66-2,.56.56,0,0,0,0-.09c0-.09,0-.1-.33-.1h-.88c-.11,0-.17.05-.16.17a5.88,5.88,0,0,0,.53,2A.09.09,0,0,0,190.6,78.76Z"/><path class="cls-2" d="M194.6,77h.33a.71.71,0,0,1,.27,0,.33.33,0,0,1,.14.26,2.88,2.88,0,0,1-.21.62,6.53,6.53,0,0,1-.9,1.51c-.17.21-.8.87-1.05.87a.2.2,0,0,1-.19-.18c0-.1.15-.18.22-.23a4.38,4.38,0,0,0,1.35-1.58,4.24,4.24,0,0,0,.35-.83c0-.15-.21-.12-.31-.12h-1.25c-.12,0-.13-.07-.13-.18s0-.19.13-.19h1.25Zm2.08.77a.14.14,0,0,0,.1,0A8.51,8.51,0,0,0,198,76.64s0-.05.08-.05a.83.83,0,0,1,.31.32.06.06,0,0,1-.06.06h-.1l-.07,0c-.24.21-.29.3-.71.64-.17.13-.34.26-.51.39s-.08.07-.08.13a.2.2,0,0,0,0,.1,6.21,6.21,0,0,0,1.63,1.68c.05,0,.16.1.16.16s-.1.21-.19.21-.83-.6-1-.75a7.07,7.07,0,0,1-1.44-2.22s0,0,0,0a0,0,0,0,0,0,0V80c0,.15,0,.31,0,.46a.5.5,0,0,1-.28.51,2,2,0,0,1-.75.11c-.17,0-.28,0-.28-.26,0-.08,0-.12.11-.12h.33c.53,0,.52-.19.52-.66V76.32c0-.26,0-.53,0-.78,0,0,0,0,0-.06s0-.08.1-.08l.29,0c.05,0,.15,0,.15.08s0,.06-.09.09-.09.17-.08.67a.71.71,0,0,0,0,.28,7.35,7.35,0,0,0,.49,1.13S196.63,77.75,196.69,77.75Z"/><path class="cls-2" d="M202.15,75.92c.06,0,.17,0,.17.1a.14.14,0,0,1-.06.1c-.09.1-.09.16-.12.31s-.06.35-.09.52a.22.22,0,0,0,0,.07.09.09,0,0,0,.1.1h0s.26,0,.44,0c.6,0,.82.37.82.94a4.63,4.63,0,0,1-.36,1.93,1.19,1.19,0,0,1-1.09.66c-.25,0-.31-.28-.31-.36s0-.06,0-.06a2.61,2.61,0,0,0,.33,0,.76.76,0,0,0,.73-.52,3.9,3.9,0,0,0,.29-1.51c0-.42,0-.79-.55-.79s-.6.12-.62.23A7.31,7.31,0,0,1,200.83,80a6.65,6.65,0,0,1-.42.56.15.15,0,0,1-.1.05c-.07,0-.25-.13-.25-.21a.22.22,0,0,1,.08-.13,5.87,5.87,0,0,0,1.26-2.12,4.81,4.81,0,0,0,.15-.53.07.07,0,0,0-.07-.06l-.12,0a7.8,7.8,0,0,0-.9.27l-.07,0c-.08,0-.21-.28-.21-.36s.08,0,.43-.12.58-.13.88-.19.18-.1.21-.28a5.49,5.49,0,0,0,.07-.8.83.83,0,0,0,0-.22v0a.06.06,0,0,1,.06-.06A2.54,2.54,0,0,1,202.15,75.92Zm2.69,2.18c0,.07-.19.2-.28.2s-.1-.06-.13-.12a4,4,0,0,0-.81-1.3.15.15,0,0,1-.05-.1c0-.1.21-.18.26-.18S204.83,77.93,204.83,78.09Zm-.66-2.21c.06,0,.27.22.32.28s.28.28.28.34a.31.31,0,0,1-.23.21s-.06,0-.08-.06a6.57,6.57,0,0,0-.45-.49s-.05-.05-.05-.08A.32.32,0,0,1,204.17,75.88Zm.9-.13c.05.05.28.28.28.34a.31.31,0,0,1-.23.21s-.06,0-.08-.06-.29-.33-.44-.49-.06,0-.06-.08.15-.2.21-.2S205,75.7,205.07,75.76Z"/><path class="cls-2" d="M207.76,76c.05,0,.11,0,.11.1s0,.07-.06.1-.11.22-.13.37a17.83,17.83,0,0,0-.12,2.19c0,.62,0,1.46.87,1.46a1.85,1.85,0,0,0,1.77-1.67c0-.06,0-.18.09-.18a.39.39,0,0,1,.29.32,2.2,2.2,0,0,1-.24.7,2.22,2.22,0,0,1-1.88,1.2,1.22,1.22,0,0,1-1-.48,2.32,2.32,0,0,1-.28-1.32c0-.47,0-1.08.06-1.55,0-.25.08-.92.08-1.12v-.12c0-.06,0-.12.08-.12A1.7,1.7,0,0,1,207.76,76Z"/><path class="cls-2" d="M213.41,78.38c-.16.11-.48.35-.63.48a.27.27,0,0,1-.13.08c-.08,0-.22-.18-.22-.3s.08-.09.18-.15l.67-.44c.08,0,.13-.09.13-.19a.33.33,0,0,0,0-.14,4.12,4.12,0,0,0-.47-.8.15.15,0,0,1,0-.09c0-.06.09-.07.24-.13a.65.65,0,0,1,.21-.06s.07,0,.07.06,0,0,0,.06v0a4.54,4.54,0,0,0,.32.76c0,.06.06.12.13.12a.21.21,0,0,0,.1,0,4.33,4.33,0,0,1,2.13-.84,1,1,0,0,1,1.11,1c0,.82-.82,1.2-1.51,1.36l-.23,0c-.12,0-.22-.23-.22-.28s.07-.08.12-.09c.54-.09,1.48-.33,1.48-1,0-.48-.36-.66-.79-.66a3,3,0,0,0-1.34.46c-.19.11-.38.21-.56.33s-.13.08-.13.16a20.58,20.58,0,0,0,1.21,2.15.52.52,0,0,1,.1.22c0,.1-.22.2-.3.2s-.1-.07-.2-.26c-.35-.67-.74-1.34-1.08-2a.13.13,0,0,0-.12-.09A.38.38,0,0,0,213.41,78.38Zm1.48-2.18c.22.09.33.12.33.21s-.08.24-.17.24a.16.16,0,0,1-.1,0,3.84,3.84,0,0,0-.83-.29c-.05,0-.08,0-.08-.08s.06-.28.16-.28A4.74,4.74,0,0,1,214.88,76.2Z"/><path class="cls-2" d="M221.18,75.6c.14,0,.38,0,.38.09s-.12.05-.12.36v.53a.16.16,0,0,0,.15.17l.29,0c.31,0,1.25-.06,1.51-.06.11,0,.12.06.12.19s-.06.2-.16.2h-.61c-.19,0-1,0-1.15,0s-.15.1-.15.21c0,.61,0,.62.08.75a1.94,1.94,0,0,1,.18.86,2.72,2.72,0,0,1-.87,2.07s-.33-.07-.33-.13.1-.12.12-.14a2.53,2.53,0,0,0,.6-1,0,0,0,0,0,0,0,.2.2,0,0,0-.1,0,.58.58,0,0,1-.27.07c-.5,0-.68-.54-.68-1s.22-1.11.81-1.11H221a.08.08,0,0,0,.08-.08c0-.35,0-.51-.17-.51l-.48,0c-.49,0-1,.06-1.48.13h-.08c-.08,0-.16,0-.16-.28s.06-.13.24-.13c.62,0,1.24-.07,1.86-.1.13,0,.24,0,.24-.19a6.16,6.16,0,0,0-.08-.91v0a.06.06,0,0,1,.06-.06Zm-.73,3.2c0,.28.08.64.43.64s.46-.33.46-.63-.1-.71-.44-.71S220.45,78.52,220.45,78.79Z"/><path class="cls-2" d="M227.93,76.21c0,.06-.06.07-.1.07s-.17,0-.56.33-.71.59-1,.9-.46.38-.46.57.32.58.48.75a17.33,17.33,0,0,0,1.38,1.27c.13.12.26.2.26.28a.37.37,0,0,1-.3.28c-.06,0-.1-.05-.16-.12a9.52,9.52,0,0,0-.78-.82c-.33-.33-.66-.67-1-1a.9.9,0,0,1-.29-.61.65.65,0,0,1,.13-.4,7.84,7.84,0,0,1,.76-.69,11.66,11.66,0,0,0,1.18-1.07.12.12,0,0,1,.08-.05A1.08,1.08,0,0,1,227.93,76.21Z"/><path class="cls-2" d="M232.16,75.77s0,.08-.08.12a4.52,4.52,0,0,0-.23.75.12.12,0,0,0,0,.05.07.07,0,0,0,.07.06H232l.49-.13.07,0c.08,0,.09.22.09.27s-.06.14-.75.26c-.13,0-.19,0-.24.17a12.75,12.75,0,0,1-.65,1.58c-.13.28-.29.6-.45.87a.11.11,0,0,1-.1.07c-.07,0-.28-.1-.28-.19a.53.53,0,0,1,.1-.2,11.21,11.21,0,0,0,.89-1.76,3.4,3.4,0,0,0,.12-.36.06.06,0,0,0-.07-.06s-.68.08-.83.08h-.08c-.13,0-.15-.19-.15-.3s.06-.08.13-.08a5.11,5.11,0,0,0,1.12-.1c.08-.05.09-.14.13-.3a3.17,3.17,0,0,0,.14-.89c0-.06,0-.1.07-.1S232.16,75.68,232.16,75.77Zm1,1.81s0,.19,0,.37,0,1.26.08,1.48.12.14.22.17,1,.42,1,.56-.12.24-.22.24a.27.27,0,0,1-.15-.08,2.57,2.57,0,0,0-.72-.39c-.06,0-.06.07-.06.11a.71.71,0,0,1-.79.8c-.42,0-1-.25-1-.75s.52-.66.95-.66a3.11,3.11,0,0,1,.36,0h0a.07.07,0,0,0,.07-.08c0-.17-.12-1.59-.13-1.75s0,0,0-.06.05-.08.1-.08S233.2,77.48,233.2,77.57Zm-1.36,2.49c0,.29.42.42.66.42s.46-.19.46-.49,0-.26-.47-.26C232.27,79.74,231.83,79.77,231.83,80.07Zm2.85-2.46c0,.1-.18.21-.26.21s-.06,0-.09-.06a3.14,3.14,0,0,0-.77-.78s-.08-.06-.08-.11a.36.36,0,0,1,.24-.22A3,3,0,0,1,234.69,77.61Z"/><path class="cls-2" d="M143.64,88.32c0,.06-.08.1-.12.12s-.19.48-.21.61a4.81,4.81,0,0,0-.07.81c0,.08,0,.58.08.58s.08-.12.13-.22.24-.56.32-.56.12,0,.12.09a.27.27,0,0,1,0,.08,3.87,3.87,0,0,0-.41,1.21,1.51,1.51,0,0,0,0,.16.4.4,0,0,1,0,.08c0,.1-.18.15-.26.15s-.12-.08-.14-.15a5.53,5.53,0,0,1-.2-1.46,5.66,5.66,0,0,1,.2-1.43,1.29,1.29,0,0,0,0-.22s0-.13.07-.13S143.64,88.23,143.64,88.32ZM146,88a8.31,8.31,0,0,1,.19,1.74,3.66,3.66,0,0,1-1,2.87c-.09.08-.35.31-.46.31s-.26-.15-.26-.26,0-.07.08-.09a2.46,2.46,0,0,0,.93-1,4.31,4.31,0,0,0,.32-1.8,5.21,5.21,0,0,0-.22-1.64.25.25,0,0,1,0-.06c0-.1.24-.14.31-.14S145.94,87.93,146,88Z"/><path class="cls-2" d="M150.34,87.82c.08,0,.15,0,.15.1s0,.06-.05.11a1,1,0,0,0,0,.4v.15a.13.13,0,0,0,.13.14h.09a6.81,6.81,0,0,0,1.18-.24l.11,0c.11,0,.11.19.11.28s0,.1-.2.14c-.35.07-.84.15-1.19.18-.12,0-.22.05-.22.19,0,.67,0,.76.14.76a5.69,5.69,0,0,0,1-.18l.08,0c.07,0,.06.1.06.15,0,.27-.06.25-.23.28s-.53.08-.76.1-.23.06-.23.22,0,.65,0,.73.09.17.24.21,1.12.44,1.12.6a.35.35,0,0,1-.25.29c-.05,0-.13-.07-.17-.1a3,3,0,0,0-.71-.42l-.11,0c-.1,0-.1.1-.1.13a1,1,0,0,1-.1.39,1.14,1.14,0,0,1-1,.42c-.44,0-.95-.19-.95-.71s.72-.72,1.18-.72H150c.09,0,.11-.06.11-.13s0-.67,0-.7-.05-.12-.14-.12h-.7a3.23,3.23,0,0,1-.57,0,.52.52,0,0,1-.08-.28.08.08,0,0,1,.08-.09c.06,0,.53,0,.76,0,.5,0,.64,0,.64-.14s0-.49,0-.64,0-.18-.14-.18-.91,0-1.35,0h-.33c-.12,0-.13-.16-.13-.26s0-.14.1-.14.58,0,1,0c.11,0,.68,0,.74,0a.15.15,0,0,0,.12-.15,6.23,6.23,0,0,0-.06-.7.49.49,0,0,1,0-.09s0-.06.07-.06A3.19,3.19,0,0,1,150.34,87.82Zm-1.52,4.25c0,.3.34.37.58.37s.69-.1.73-.47a1.27,1.27,0,0,0,0-.15c0-.11-.07-.15-.4-.15S148.82,91.68,148.82,92.06Z"/><path class="cls-2" d="M154.7,88.1c.05,0,.11,0,.11.1s0,.07-.06.1-.11.22-.13.37a17.83,17.83,0,0,0-.12,2.19c0,.62,0,1.46.87,1.46a1.85,1.85,0,0,0,1.77-1.67c0-.06,0-.18.09-.18a.39.39,0,0,1,.29.32,2.2,2.2,0,0,1-.24.7,2.22,2.22,0,0,1-1.88,1.2,1.22,1.22,0,0,1-1-.48,2.32,2.32,0,0,1-.28-1.32c0-.47,0-1.08.06-1.55,0-.25.08-.92.08-1.12v-.12c0-.06,0-.12.08-.12A1.69,1.69,0,0,1,154.7,88.1Z"/><path class="cls-2" d="M161.16,87.8s-.05.07-.1.1A.19.19,0,0,0,161,88c-.08.24-.13.48-.2.71a.35.35,0,0,0,0,.11.07.07,0,0,0,.07.06,6.67,6.67,0,0,0,1-.31l.1,0c.08,0,.07.09.07.15,0,.22,0,.24-.12.27a10.64,10.64,0,0,1-1.12.26c-.15,0-.17.08-.21.22a22.07,22.07,0,0,1-1.21,2.93c-.07.13-.12.24-.21.24s-.28-.11-.28-.2.06-.12.09-.15a15.24,15.24,0,0,0,1.27-2.82.17.17,0,0,0,0-.05.07.07,0,0,0-.07-.07c-.06,0-.47,0-.74,0s-.32,0-.32-.29a.08.08,0,0,1,.08-.09s.29,0,.55,0l.47,0a.22.22,0,0,0,.16-.06,5.12,5.12,0,0,0,.3-1.23c0-.06,0-.15.08-.15S161.16,87.71,161.16,87.8ZM161,92a1.58,1.58,0,0,0,1.19.35,2.53,2.53,0,0,0,.85-.12h.05c.1,0,.1.17.1.24s0,.15-.08.18a4.5,4.5,0,0,1-.85.07,2.75,2.75,0,0,1-1.29-.24c-.09-.05-.31-.2-.31-.31s.15-.26.22-.26S161,91.95,161,92Zm.9-2.22a3.6,3.6,0,0,1,1.09.16c.06,0,.08,0,.08.11s0,.26-.14.26l-.11,0a2.75,2.75,0,0,0-.92-.14h-.26c-.11,0-.13,0-.13-.15S161.55,89.76,161.9,89.76Z"/><path class="cls-2" d="M166.46,92.07a.86.86,0,1,1-.86-.86A.86.86,0,0,1,166.46,92.07Zm-1.47,0a.61.61,0,1,0,.61-.61A.61.61,0,0,0,165,92.07Z"/></g></g></svg>