<svg xmlns="http://www.w3.org/2000/svg" viewBox="0 0 344.45 210.68"><defs><style>.cls-1{fill:#393839;}.cls-2{fill:#85cae4;}</style></defs><title>designer_interview_all</title><g id="Layer_2" data-name="Layer 2"><g id="レイヤー_1" data-name="レイヤー 1"><rect class="cls-1" width="344.45" height="210.68"/><path class="cls-2" d="M57.94,20.08h2.85c4.78,0,5,3.93,5,4.6s-.19,4.6-5,4.6H57.94Zm.86,8.42h1.77c2.44,0,4.34-1.18,4.34-3.82s-1.9-3.82-4.34-3.82H58.8Z"/><path class="cls-2" d="M72.78,28.16a3.12,3.12,0,0,1-5.64-1.89,3,3,0,0,1,3-3.15A2.73,2.73,0,0,1,73,25.93v.55h-5a2.24,2.24,0,0,0,2.28,2.26,2.41,2.41,0,0,0,2-1.07Zm-.6-2.38a2,2,0,0,0-2.08-2,2.23,2.23,0,0,0-2.18,2Z"/><path class="cls-2" d="M74.71,27.75a2,2,0,0,0,1.74,1,1.26,1.26,0,0,0,1.38-1.11c0-1.65-3.56-.49-3.56-2.78a1.86,1.86,0,0,1,2.05-1.73,2.2,2.2,0,0,1,2.12,1.13l-.7.42a1.47,1.47,0,0,0-1.42-.84c-.56,0-1.27.34-1.27,1,0,1.63,3.56.36,3.56,2.79a1.93,1.93,0,0,1-2.17,1.86A2.64,2.64,0,0,1,74,28.22Z"/><path class="cls-2" d="M80.76,20.32a.59.59,0,1,1-.58.58A.58.58,0,0,1,80.76,20.32Zm-.39,3h.78v6h-.78Z"/><path class="cls-2" d="M89.39,28.9c0,3-2,3.51-3.2,3.51a3.79,3.79,0,0,1-3-1.26l.61-.57a2.83,2.83,0,0,0,2.37,1.13c2.38,0,2.42-2.08,2.42-2.76v-.83h0a2.59,2.59,0,0,1-2.27,1.17,3.08,3.08,0,1,1,0-6.16,2.59,2.59,0,0,1,2.27,1.17h0v-1h.78Zm-3.13-5.07a2.38,2.38,0,1,0,2.38,2.38A2.38,2.38,0,0,0,86.26,23.83Z"/><path class="cls-2" d="M91.3,25c0-.44-.06-1.38-.06-1.69H92c0,.44,0,.94.05,1.05h0a2.25,2.25,0,0,1,2.05-1.21c1.87,0,2.29,1.27,2.29,2.59v3.58h-.78V25.75c0-1-.27-1.92-1.51-1.92s-2.08.81-2.08,2.46v3H91.3Z"/><path class="cls-2" d="M103.83,28.16a3.12,3.12,0,0,1-5.64-1.89,3,3,0,0,1,3-3.15A2.73,2.73,0,0,1,104,25.93v.55H99a2.24,2.24,0,0,0,2.28,2.26,2.41,2.41,0,0,0,2-1.07Zm-.6-2.38a2,2,0,0,0-2.08-2,2.23,2.23,0,0,0-2.18,2Z"/><path class="cls-2" d="M105.76,25c0-.44-.06-1.38-.06-1.69h.78c0,.44,0,.94.05,1.05a2.13,2.13,0,0,1,1.91-1.21,1.88,1.88,0,0,1,.45.06l-.09.77a1,1,0,0,0-.3-.05,1.88,1.88,0,0,0-2,2.11v3.28h-.78Z"/><path class="cls-2" d="M113.69,20.08h.86v9.2h-.86Z"/><path class="cls-2" d="M116.85,25c0-.44-.06-1.38-.06-1.69h.78c0,.44,0,.94.05,1.05h0a2.25,2.25,0,0,1,2.05-1.21c1.87,0,2.29,1.27,2.29,2.59v3.58h-.78V25.75c0-1-.27-1.92-1.51-1.92s-2.08.81-2.08,2.46v3h-.78Z"/><path class="cls-2" d="M127,24H125.3V27.9a.77.77,0,0,0,.83.84,2.31,2.31,0,0,0,.88-.21l.06.7a3.45,3.45,0,0,1-1,.21,1.4,1.4,0,0,1-1.55-1.55V24h-1.3v-.7h1.3V21.55h.78v1.73H127Z"/><path class="cls-2" d="M133.71,28.16a3.12,3.12,0,0,1-5.64-1.89,3,3,0,0,1,3-3.15,2.73,2.73,0,0,1,2.82,2.81v.55h-5a2.24,2.24,0,0,0,2.28,2.26,2.41,2.41,0,0,0,2-1.07Zm-.6-2.38a2,2,0,0,0-2.08-2,2.23,2.23,0,0,0-2.18,2Z"/><path class="cls-2" d="M135.63,25c0-.44-.06-1.38-.06-1.69h.78c0,.44,0,.94.05,1.05a2.13,2.13,0,0,1,1.91-1.21,1.88,1.88,0,0,1,.46.06l-.09.77a1,1,0,0,0-.3-.05,1.88,1.88,0,0,0-2,2.11v3.28h-.78Z"/><path class="cls-2" d="M139.11,23.28H140l2,5.16,2-5.16h.79l-2.37,6h-.81Z"/><path class="cls-2" d="M146.5,20.32a.59.59,0,1,1-.58.58A.58.58,0,0,1,146.5,20.32Zm-.39,3h.78v6h-.78Z"/><path class="cls-2" d="M154.4,28.16a3.12,3.12,0,0,1-5.64-1.89,3,3,0,0,1,3-3.15,2.73,2.73,0,0,1,2.82,2.81v.55h-5a2.24,2.24,0,0,0,2.27,2.26,2.41,2.41,0,0,0,2-1.07Zm-.6-2.38a2,2,0,0,0-2.08-2,2.23,2.23,0,0,0-2.18,2Z"/><path class="cls-2" d="M155.48,23.28h.86l1.46,5h0l1.68-5h.74l1.78,5h0l1.42-5h.78l-1.77,6h-.81l-1.79-4.91h0l-1.68,4.91h-.81Z"/></g></g></svg>