<svg xmlns="http://www.w3.org/2000/svg" viewBox="0 0 301.86 26"><defs><style>.cls-1{fill:#231f20;}</style></defs><title>footer_img_small</title><g id="Layer_2" data-name="Layer 2"><g id="レイヤー_1" data-name="レイヤー 1"><path class="cls-1" d="M2,5.83c.26,1,1.26,1.25,2.18,1.25a14.16,14.16,0,0,0,3-.33l.19,0c.15,0,.14.17.14.28s0,.32-.13.38a17.6,17.6,0,0,1-3,.29,3.05,3.05,0,0,1-2.69-1,1.89,1.89,0,0,1-.33-.82c0-.19.39-.24.42-.24C1.93,5.58,1.94,5.69,2,5.83ZM2.67,1.7a6,6,0,0,0,1.79.23,7.81,7.81,0,0,0,1.81-.2h.1c.17,0,.19.24.19.37s-.05.27-.23.29a16.37,16.37,0,0,1-1.84.11,7.41,7.41,0,0,1-2.07-.25A.17.17,0,0,1,2.29,2c0-.11,0-.4.19-.4A.65.65,0,0,1,2.67,1.7Z"/><path class="cls-1" d="M16.21,2.27a3.2,3.2,0,0,1,1,2.35,3.42,3.42,0,0,1-1.9,3.12,3.32,3.32,0,0,1-1,.35c-.15,0-.42-.3-.42-.42s.08-.1.14-.11a2.94,2.94,0,0,0,2.56-2.9A2.75,2.75,0,0,0,14.5,1.92a2.11,2.11,0,0,0-.44-.07c-.28,0-.28.25-.29.42A8.38,8.38,0,0,1,12.36,6.9a1.6,1.6,0,0,1-1.16.69A1.44,1.44,0,0,1,10,6.74,2.93,2.93,0,0,1,9.74,5.4a4,4,0,0,1,4-4.08A3.37,3.37,0,0,1,16.21,2.27ZM12.67,2A3.46,3.46,0,0,0,10.3,5.36c0,.54.19,1.65.89,1.65s1.21-1.1,1.41-1.62a10.58,10.58,0,0,0,.63-3.15s0-.08,0-.11A.19.19,0,0,0,13,1.92,1.52,1.52,0,0,0,12.67,2Z"/><path class="cls-1" d="M20.74,3.09a.29.29,0,0,0,.31-.28v-1c0-.3,0-.46,0-.76,0,0,0-.09,0-.13s0-.1.12-.1.69,0,.69.19-.07.12-.11.16-.08.49-.08.64v1a.28.28,0,0,0,.28.28h2.35a.28.28,0,0,0,.29-.31V2.51A14.94,14.94,0,0,0,24.49,1a.46.46,0,0,1,0-.12c0-.07,0-.1.11-.1a3.52,3.52,0,0,1,.45,0c.08,0,.21,0,.21.13s0,.07-.08.13a3.82,3.82,0,0,0-.08,1.09c0,.19,0,.37,0,.55v0c0,.23.13.34.28.34h.43l1.2,0c.2,0,.22.09.22.29s0,.3-.22.3l-1.2,0h-.43c-.32,0-.29.35-.29.42a6.13,6.13,0,0,1-.57,3,4.17,4.17,0,0,1-1.89,1.5.29.29,0,0,1-.13,0c-.11,0-.41-.24-.41-.35s.13-.14.25-.19c2-.88,2.18-2.06,2.18-4.06,0-.18-.09-.33-.28-.33H21.9a.28.28,0,0,0-.28.28V5.34c0,.12,0,.58,0,.64,0,.23-.1.27-.31.27S21,6.16,21,5.95s0-.41,0-.61V3.92a.27.27,0,0,0-.28-.28h-.42l-1.2,0c-.2,0-.22-.12-.22-.3s0-.29.22-.29l1.2,0Z"/><path class="cls-1" d="M32.65,7.22c0,.42,0,.83,0,1.25,0,.23-.09.26-.36.26s-.28,0-.28-.26c0-.42,0-.83,0-1.25V3.9c0-.08,0-.25-.14-.25a.43.43,0,0,0-.23.12,15.55,15.55,0,0,1-2.24,1.44,2.27,2.27,0,0,1-.48.22c-.13,0-.35-.25-.35-.36s.1-.15.19-.19C30.55,4,33,2.32,33.94.6c0,0,.06-.1.12-.1a1.75,1.75,0,0,1,.42.23c.07,0,.18.11.18.19s-.08.1-.14.12-.15.06-.24.18a12.94,12.94,0,0,1-1.46,1.6c-.11.11-.17.16-.17.33Z"/><path class="cls-1" d="M39.33,6.85c0,.5,0,1,0,1.49,0,.3,0,.43-.33.43s-.33-.13-.33-.43c0-.5,0-1,0-1.49V2a10.44,10.44,0,0,0,0-1.26,1.26,1.26,0,0,1,0-.19c0-.07,0-.11.1-.11s.71.1.71.23,0,.09-.07.13A4.59,4.59,0,0,0,39.33,2Zm1.83-2.64c.15.11.79.61.79.76a.43.43,0,0,1-.33.36.29.29,0,0,1-.2-.1A12,12,0,0,0,39.84,4c-.08-.05-.18-.1-.18-.21s.17-.36.3-.36A6.41,6.41,0,0,1,41.16,4.21Z"/><path class="cls-1" d="M46.13,1.2c.24.11.36.16.36.25s0,.1-.14.14-.25.29-.36.59A8.12,8.12,0,0,0,45.52,5a5.21,5.21,0,0,0,.3,1.89c0,.06,0,.11.12.11s.14-.12.34-.58c.11-.24.16-.34.24-.34s.18,0,.18.12a6.08,6.08,0,0,1-.17.59,4.56,4.56,0,0,0-.19.88,1.25,1.25,0,0,0,0,.26V8c0,.13-.4.3-.46.3s-.31-.37-.37-.49A6.88,6.88,0,0,1,45,4.89a10.91,10.91,0,0,1,.55-3.25c0-.15.09-.3.13-.45s0-.15.12-.15A2.7,2.7,0,0,1,46.13,1.2Zm1.63,5.13a1.9,1.9,0,0,0,1.67.74,7.8,7.8,0,0,0,2.2-.33l.17,0c.12,0,.11.12.11.23s0,.4-.09.45a10.62,10.62,0,0,1-2.26.28,2.79,2.79,0,0,1-2.1-.74c-.05,0-.16-.15-.16-.23s.18-.46.32-.46A.17.17,0,0,1,47.76,6.33Zm.43-4.46A5,5,0,0,0,49.52,2a6.62,6.62,0,0,0,1.54-.2l.17,0c.13,0,.13.2.13.32s0,.26,0,.3a9,9,0,0,1-1.71.18A6.67,6.67,0,0,1,48,2.41c-.11,0-.11-.16-.11-.27s0-.32.14-.32A.59.59,0,0,1,48.19,1.87Z"/><path class="cls-1" d="M53.42,3.32a11,11,0,0,0,1.24-.4A10.84,10.84,0,0,1,58.36,2a2.31,2.31,0,0,1,1.73.67,2.41,2.41,0,0,1,.64,1.62,3.57,3.57,0,0,1-2.46,3,7.63,7.63,0,0,1-1.88.52c-.26,0-.36-.4-.36-.47s.17-.15.3-.16a6.11,6.11,0,0,0,2.1-.6,2.75,2.75,0,0,0,1.71-2.3,1.76,1.76,0,0,0-.85-1.51,2,2,0,0,0-1-.23,11,11,0,0,0-4.18,1.27,1.94,1.94,0,0,1-.48.19c-.17,0-.44-.35-.44-.51S53.33,3.34,53.42,3.32Z"/><path class="cls-1" d="M63.75,2.18c.07,0,.18.06.18.14s-.06.11-.11.15-.11.15-.13.28a5.17,5.17,0,0,0-.06.89A6.56,6.56,0,0,0,64,6.14c.16.38.61,1.11,1.08,1.11.31,0,.7-.51.84-.76,0-.08.12-.25.22-.25s.36.22.36.33-.44.65-.55.77a1.21,1.21,0,0,1-.85.53c-.69,0-1.22-.69-1.5-1.25a7.11,7.11,0,0,1-.53-3c0-.2,0-1.31,0-1.47s.06-.09.12-.09A2.59,2.59,0,0,1,63.75,2.18Zm4.47-.07a3.18,3.18,0,0,1,1.2,1.12,5.1,5.1,0,0,1,.72,2,1.85,1.85,0,0,1,0,.23c0,.21-.22.24-.39.24s-.23-.11-.25-.24a4,4,0,0,0-1.42-2.8c-.08-.06-.16-.11-.16-.19A.36.36,0,0,1,68.22,2.11Z"/><path class="cls-1" d="M72,2c1.12-.06,5.63-.52,6.66-.71l.15,0c.16,0,.16.31.16.47s-.1.21-.34.21a6.92,6.92,0,0,0-1.75.19A3.08,3.08,0,0,0,75,3.72a4.32,4.32,0,0,0-.62,2.13,1.59,1.59,0,0,0,.88,1.52,3,3,0,0,0,1.28.2h.28c.08,0,.19,0,.19.11a1.32,1.32,0,0,1-.12.43c0,.09-.08.1-.19.1A4.81,4.81,0,0,1,75.39,8,2,2,0,0,1,73.85,5.9a4.8,4.8,0,0,1,1.62-3.51s0,0,0-.08-.07-.07-.12-.07-1,.11-1.12.13a23.14,23.14,0,0,0-2.36.37l-.15,0c-.18,0-.23-.53-.23-.56S71.63,2.06,72,2Z"/><path class="cls-1" d="M85.34,8.13c-.12,0-.18,0-.18-.07a.31.31,0,0,1,.06-.14c.19-.29.36-.58.54-.88l2.72-4.59c.18-.3.35-.59.51-.88a.32.32,0,0,1,.37-.22h.14c.12,0,.18,0,.18.07a.29.29,0,0,1-.06.14c-.19.3-.37.6-.55.9L86.36,7c-.18.3-.35.59-.51.88a.32.32,0,0,1-.37.22Z"/><path class="cls-1" d="M97.31,4.6c0,.1,0,.19.16.19l.09,0a6.09,6.09,0,0,1,.76-.36c.14,0,.22.19.22.31s-.07.16-1,.6a.34.34,0,0,0-.23.38V7.25c0,.46,0,.92,0,1.38,0,.23,0,.38-.29.38s-.29-.15-.29-.38c0-.46,0-.92,0-1.38V5.92a.17.17,0,0,0-.17-.2l-.09,0c-1,.36-1,.38-1,.53a.11.11,0,0,1-.11.1c-.13,0-.35-.53-.35-.59s.07-.09.12-.1a12.22,12.22,0,0,0,1.41-.49.35.35,0,0,0,.24-.37V3.14a.24.24,0,0,0-.28-.28H96c-.2,0-.28.06-.34.26-.15.56-.18.72-.38.72S95,3.8,95,3.68s0-.19.06-.23a8.06,8.06,0,0,0,.42-2.33V1c0-.08.06-.12.14-.12s.54.05.54.14,0,.07-.07.09-.11.1-.13.29-.08.64-.08.73.11.2.23.2h.37c.2,0,.26-.08.28-.28V1.56a11.87,11.87,0,0,0,0-1.2s0-.08,0-.11.08-.12.16-.12l.32,0c.28,0,.37,0,.37.14s0,.08-.14.14-.13.3-.13,1.13v.53a.24.24,0,0,0,.28.28c.27,0,.54,0,.81,0s.2.08.2.27,0,.26-.2.26-.54,0-.81,0-.28.08-.28.28Zm4.15-3.1h.71l.84,0c.18,0,.19.11.19.27s0,.26-.19.26l-.84,0h-.71a.25.25,0,0,0-.28.28v.87c0,.2.09.28.28.28h1.17l.92,0c.19,0,.2.11.2.27s0,.26-.2.26l-.92,0H99.55l-.93,0c-.18,0-.19-.12-.19-.26s0-.27.19-.27l.93,0h.83c.19,0,.28-.08.28-.28V2.27a.25.25,0,0,0-.28-.28h-.45l-.84,0c-.19,0-.19-.13-.19-.27s0-.26.19-.26l.84,0h.45c.2,0,.28-.09.28-.28V.85a3.22,3.22,0,0,0,0-.39,1.42,1.42,0,0,1,0-.22c0-.1.06-.13.15-.13l.32,0c.26,0,.37,0,.37.14s0,.08-.14.14-.14.24-.13.8C101.18,1.42,101.27,1.5,101.46,1.5Zm1,3.81h.17l.84,0c.19,0,.19.12.19.27s0,.27-.18.27l-.85,0h-.17c-.19,0-.28.08-.28.28V7.53c0,.21,0,.41,0,.62,0,.79-.87.82-1.46.82-.19,0-.29,0-.34-.07a.78.78,0,0,1-.09-.34.14.14,0,0,1,.16-.15h.44c.73,0,.75-.18.75-.82V6.09c0-.2-.09-.28-.28-.28H99.68l-.84,0c-.19,0-.19-.13-.19-.28s0-.26.19-.26l.84,0h1.67c.2,0,.26-.07.28-.27a6.3,6.3,0,0,0,0-.63s0-.06,0-.09.07-.12.15-.12a4.82,4.82,0,0,1,.54.06c.07,0,.16,0,.16.11s-.06.09-.15.14-.13.21-.13.55S102.25,5.31,102.43,5.31ZM100.1,7.74c-.1,0-.15-.06-.2-.15-.21-.33-.42-.65-.66-1a.33.33,0,0,1-.09-.19c0-.13.19-.23.3-.23s.38.34.57.62a3,3,0,0,1,.39.68C100.41,7.66,100.23,7.74,100.1,7.74Z"/><path class="cls-1" d="M106.59,7.44a.2.2,0,0,0-.16.1,7.67,7.67,0,0,1-.76,1.09c-.06.07-.13.16-.23.16s-.32-.15-.32-.25.14-.22.19-.29a6.53,6.53,0,0,0,1.13-1.92,5,5,0,0,0,.28-1.21c0-.09,0-.25.14-.25l.21,0c.25.06.4.08.4.18s-.06.1-.11.12-.14.14-.16.28a5.58,5.58,0,0,1-.29,1.06.69.69,0,0,0,0,.2A.37.37,0,0,0,107,7a2.86,2.86,0,0,0,1.66,1.12h.06c.14,0,.19-.11.19-.23V4.24c0-.19-.08-.28-.28-.28h-1l-1,0c-.18,0-.19-.11-.19-.27s0-.26.19-.26l1,0h3.21l1,0c.19,0,.2.09.2.27s0,.26-.19.26l-1,0h-1.1c-.2,0-.28.08-.28.28V5.3c0,.2.08.28.28.28h1.08l.77,0c.17,0,.2.08.2.27s0,.26-.2.26l-.77,0h-1.08c-.2,0-.28.09-.28.28v1.6c0,.19.07.28.26.29.51,0,1.4,0,1.93,0s.93,0,1.4,0h.34c.12,0,.2.06.2.18,0,.39-.22.35-.92.35h-2.41a4,4,0,0,1-3.47-1.25A.18.18,0,0,0,106.59,7.44Zm2.85-6.2c0,.2.08.28.27.28h2.87c.34,0,.58,0,.58.43,0,.14,0,.27,0,.4v.33c0,.06,0,.17,0,.25s-.07.2-.27.2-.29,0-.29-.17,0-.23,0-.28V2.29c0-.19-.08-.27-.27-.27H106c-.19,0-.27.08-.27.27v.38c0,.05,0,.19,0,.27s-.16.18-.29.18-.27,0-.27-.2,0-.19,0-.25V2.34c0-.13,0-.26,0-.38,0-.41.21-.45.56-.45h2.86c.2,0,.28-.08.28-.28V1.15a4.81,4.81,0,0,0,0-.85.26.26,0,0,1,0-.09c0-.1.06-.13.15-.13l.28,0c.23,0,.42,0,.42.13s-.06.1-.14.15-.13.23-.13.75Z"/><path class="cls-1" d="M119.59,1.15h2.48l1.15,0c.19,0,.2.09.2.27s0,.27-.2.27l-1.15,0h-6c-.39,0-.77,0-1.16,0-.18,0-.19-.11-.19-.27s0-.27.19-.27l1.16,0h2.43c.19,0,.26-.07.28-.26a4.38,4.38,0,0,0,0-.57.28.28,0,0,1,0-.09c0-.1.07-.13.15-.13l.28,0c.23,0,.42,0,.42.14s-.06.09-.14.14-.14.18-.13.49S119.41,1.15,119.59,1.15Zm1.18.58s.55.25.55.36-.06.08-.12.09a.22.22,0,0,0-.18.08c-.15.3-.17.35-.34.66a.14.14,0,0,0,0,.09c0,.1.08.12.17.13h1.47c.35,0,.48.06.48.37s0,.39,0,.59V7.56c0,.17,0,.34,0,.51,0,.74-.34.86-1.22.86-.32,0-.53,0-.53-.38,0-.12.05-.15.16-.15l.69,0c.36,0,.35-.14.35-.55V3.92c0-.2-.08-.28-.27-.28H120.3c-.2,0-.28.08-.28.28v.64c0,.3.22.28.46.28h.45c.42,0,.43-.07.53-.49,0-.17.06-.23.19-.23s.34,0,.34.2a1.92,1.92,0,0,1-.27.79.92.92,0,0,1-.78.23h-.68c-.4,0-.77,0-.77-.54V3.92c0-.2-.08-.28-.28-.28h-3.07c-.2,0-.28.08-.28.28V7.55c0,.36,0,.72,0,1.08s0,.32-.28.32-.29-.1-.29-.32,0-.72,0-1.08V4.1c0-.19,0-.39,0-.58s.11-.39.49-.39h3.87a.4.4,0,0,0,.42-.21,6,6,0,0,0,.56-1.1S120.7,1.73,120.77,1.73ZM118.54,4c-.09,0-.1,0-.16.13a4,4,0,0,1-1.89,1.68.31.31,0,0,1-.3-.27c0-.1.11-.15.23-.21a3.39,3.39,0,0,0,1.52-1.45c0-.1.07-.2.16-.2s.54.13.54.23S118.58,4,118.54,4Zm-.78-.94a.19.19,0,0,1-.19-.14,6.23,6.23,0,0,0-.42-.82.31.31,0,0,1-.06-.15c0-.14.19-.23.31-.23s.16.09.3.32a3.55,3.55,0,0,1,.37.8C118.07,3,117.88,3.07,117.75,3.07Zm2.91,4.3c0,.08,0,.15,0,.22,0,.27-.15.35-.39.35h-2c-.21,0-.35.06-.35.29s0,.17-.28.17-.25,0-.25-.22v-2c0-.27.18-.33.42-.33h2.42c.25,0,.43,0,.43.34,0,.08,0,.17,0,.25Zm-2.73-.21a.27.27,0,0,0,.27.28h1.66a.27.27,0,0,0,.28-.28V6.64a.27.27,0,0,0-.28-.28h-1.66a.27.27,0,0,0-.27.28Z"/><path class="cls-1" d="M125.21,7.39a.17.17,0,0,0-.09.11c0,.06,0,.14-.12.14s-.35-.55-.35-.58.05-.1.23-.13.43-.09.65-.12a.28.28,0,0,0,.26-.33V1.25c0-.18-.07-.26-.26-.27l-.59,0c-.18,0-.19-.11-.19-.27s0-.27.19-.27l1.12,0h2.22l1.11,0c.19,0,.2.1.2.27s0,.27-.19.27l-.54,0c-.19,0-.26.09-.26.27v6c0,.45,0,.9,0,1.36,0,.23,0,.4-.28.4s-.29-.17-.29-.4c0-.46,0-.91,0-1.36V7c0-.12-.05-.22-.18-.22h-.07C126.94,7,126.09,7.21,125.21,7.39Zm1.11-5.26a.26.26,0,0,0,.27.28h1.2a.28.28,0,0,0,.28-.28V1.25a.28.28,0,0,0-.28-.28h-1.2a.26.26,0,0,0-.27.28Zm0,1.91a.26.26,0,0,0,.27.28h1.2a.28.28,0,0,0,.28-.28V3.18c0-.17-.1-.27-.28-.27h-1.2a.25.25,0,0,0-.27.27Zm0,2.34c0,.12,0,.23.19.23h.07c.42-.09.83-.18,1.24-.29a.29.29,0,0,0,.25-.34V5.09c0-.19-.08-.27-.28-.27h-1.2c-.19,0-.27.08-.27.27Zm5,.19a.22.22,0,0,0-.16.09,14.21,14.21,0,0,1-1.75,1.7.71.71,0,0,1-.41.23.29.29,0,0,1-.27-.26c0-.1.1-.16.24-.28a10.91,10.91,0,0,0,1.92-1.86A.4.4,0,0,0,131,6a.39.39,0,0,0-.06-.21,10.37,10.37,0,0,1-1-3.75c0-.13-.08-.18-.21-.18h-.13c-.18,0-.2-.11-.2-.27s0-.27.2-.27l1.15,0h1.93a.44.44,0,0,1,.48.45,9.89,9.89,0,0,1-.3,1.67,9.28,9.28,0,0,1-1,2.36.35.35,0,0,0,0,.42,7.63,7.63,0,0,0,1.41,1.58c.08.07.31.26.31.35a.35.35,0,0,1-.33.31c-.32,0-1.48-1.46-1.69-1.77A.2.2,0,0,0,131.36,6.57Zm0-1.23a.15.15,0,0,0,.13-.08,8.62,8.62,0,0,0,1-3.16.79.79,0,0,0,0-.14c0-.14,0-.16-.52-.16H130.7c-.17,0-.27.08-.25.26a9.07,9.07,0,0,0,.83,3.19A.14.14,0,0,0,131.41,5.34Z"/><path class="cls-1" d="M135.42,4.6c0,.16.09.22.25.22H138l.59,0a.35.35,0,0,1,.4.38,9,9,0,0,1-.74,3c-.38.71-1,.72-1.73.72-.55,0-.75.06-.75-.41,0-.12,0-.15.15-.15s.53,0,.83,0c.49,0,.82,0,1.07-.51a8.39,8.39,0,0,0,.61-2.36c0-.21-.11-.19-.43-.19h-2.49c-.13,0-.19.1-.25.19a.2.2,0,0,1-.19.07c-.13,0-.32,0-.32-.16s.12-1,.14-1.19c.07-.57.09-1,.12-1.23,0-.46.12-.5.51-.5h2.6c.19,0,.28-.08.28-.28v-1c0-.2-.09-.28-.28-.28h-3.27c-.17,0-.2-.06-.2-.26s0-.26.23-.26h3.6c.39,0,.46.15.46.43s0,.35,0,.53v1c0,.23,0,.45,0,.68s-.07.21-.28.21-.22,0-.26-.1-.07-.14-.18-.14h-2.34c-.22,0-.35,0-.39.47,0,.23,0,.48-.09,1C135.43,4.48,135.42,4.58,135.42,4.6Zm6-3c0-.4,0-.86,0-1.25,0,0,0-.08,0-.11s.07-.14.16-.14l.3,0c.23,0,.44,0,.44.14s-.06.1-.15.15S142,.78,142,1.62V7.11c0,.47,0,1,0,1.42,0,.27,0,.43-.3.43s-.31-.15-.31-.42c0-.48,0-.95,0-1.43Z"/><path class="cls-1" d="M145.76,1.2c.24.11.36.16.36.25s0,.1-.14.14-.25.29-.36.59A8.12,8.12,0,0,0,145.15,5a5.21,5.21,0,0,0,.3,1.89c0,.06,0,.11.12.11s.14-.12.34-.58c.11-.24.16-.34.24-.34s.18,0,.18.12a6.05,6.05,0,0,1-.17.59,4.56,4.56,0,0,0-.19.88,1.25,1.25,0,0,0,0,.26V8c0,.13-.4.3-.46.3s-.31-.37-.37-.49a6.88,6.88,0,0,1-.58-2.93,10.91,10.91,0,0,1,.55-3.25c0-.15.09-.3.13-.45s0-.15.12-.15A2.69,2.69,0,0,1,145.76,1.2Zm1.63,5.13a1.9,1.9,0,0,0,1.67.74,7.8,7.8,0,0,0,2.2-.33l.17,0c.12,0,.11.12.11.23s0,.4-.09.45a10.62,10.62,0,0,1-2.26.28,2.79,2.79,0,0,1-2.1-.74c-.05,0-.16-.15-.16-.23s.18-.46.32-.46A.17.17,0,0,1,147.39,6.33Zm.43-4.46a5,5,0,0,0,1.33.17,6.62,6.62,0,0,0,1.54-.2l.17,0c.13,0,.13.2.13.32s0,.26,0,.3a9,9,0,0,1-1.71.18,6.67,6.67,0,0,1-1.63-.2c-.11,0-.11-.16-.11-.27s0-.32.14-.32A.59.59,0,0,1,147.82,1.87Z"/><path class="cls-1" d="M159.55,5.27c-.07,0-.14,0-.14.11a.11.11,0,0,0,0,.09,7.41,7.41,0,0,0,2.24,1.6c.13.06.27.12.27.25s-.12.33-.26.33a4.84,4.84,0,0,1-1-.53,8.27,8.27,0,0,1-1.84-1.65.46.46,0,0,0-.44-.2h-1.53a.43.43,0,0,0-.43.18c-.23.25-.45.5-.7.73a8,8,0,0,1-1.87,1.28,1,1,0,0,1-.33.13c-.14,0-.26-.2-.26-.33s.16-.19.28-.25a7.44,7.44,0,0,0,2.23-1.55.15.15,0,0,0,0-.09c0-.08-.07-.09-.13-.1h-1.07l-1.17,0c-.18,0-.19-.1-.19-.27s0-.27.19-.27l1.17,0h.73c.19,0,.28-.08.28-.28V1.94c0-.2-.09-.28-.28-.28h-.28l-1.11,0c-.19,0-.2-.11-.2-.27s0-.27.2-.27l1.11,0h.28c.19,0,.26-.08.28-.27a3.38,3.38,0,0,0,0-.64s0-.07,0-.1.07-.13.16-.13L156,0c.22,0,.41,0,.41.13s-.05.09-.14.15-.13.18-.12.58c0,.18.09.25.27.25h2.42c.19,0,.27-.08.27-.27a3.28,3.28,0,0,0,0-.62s0-.06,0-.09.07-.13.16-.13l.28,0c.22,0,.41,0,.41.14s-.05.09-.14.14-.12.22-.13.57c0,.18.1.24.28.24h.27l1.11,0c.19,0,.2.1.2.27s0,.27-.19.27l-1.12,0h-.27c-.2,0-.28.08-.28.28V4.49c0,.2.08.28.28.28h.71l1.16,0c.18,0,.2.08.2.27s0,.27-.2.27l-1.16,0Zm-1.66,2.47c0,.2.08.27.28.27h1.7L161,8c.19,0,.19.12.19.27s0,.27-.19.27l-1.11,0h-4.53l-1.1,0c-.18,0-.19-.11-.19-.27s0-.27.19-.27l1.1,0h1.75c.19,0,.27-.07.27-.27V7.37c0-.2-.08-.26-.27-.28h-.35c-.35,0-.7,0-1,0-.18,0-.18-.12-.18-.26s0-.25.18-.25l1,0h.35c.19,0,.26-.07.27-.26a5,5,0,0,0,0-.55s0-.07,0-.1.07-.13.16-.13l.28,0c.22,0,.41,0,.41.14s0,.09-.14.14-.12.21-.13.47.08.27.28.27h.35l1,0c.18,0,.18.11.18.25s0,.26-.18.26c-.35,0-.7,0-1,0h-.35c-.2,0-.28.08-.28.28ZM156.4,1.66a.23.23,0,0,0-.25.24v.27a.23.23,0,0,0,.25.24h2.48a.23.23,0,0,0,.24-.24V1.9a.23.23,0,0,0-.24-.24Zm0,1.18a.23.23,0,0,0-.25.24v.26a.23.23,0,0,0,.25.24h2.48a.22.22,0,0,0,.24-.24V3.08a.23.23,0,0,0-.24-.24Zm2.72,1.42a.22.22,0,0,0-.24-.24H156.4a.23.23,0,0,0-.25.24v.27a.23.23,0,0,0,.25.24h2.48a.23.23,0,0,0,.24-.24Z"/><path class="cls-1" d="M163.39,3.4a11.42,11.42,0,0,0,1.24-.4,10.85,10.85,0,0,1,3.7-.93,2.31,2.31,0,0,1,1.73.67,2.41,2.41,0,0,1,.64,1.62,3.57,3.57,0,0,1-2.46,3,7.63,7.63,0,0,1-1.88.52c-.26,0-.36-.4-.36-.47s.17-.15.3-.16a6.1,6.1,0,0,0,2.1-.6,2.74,2.74,0,0,0,1.71-2.3,1.76,1.76,0,0,0-.85-1.51,2,2,0,0,0-1-.23,11,11,0,0,0-4.18,1.27,1.94,1.94,0,0,1-.48.19c-.17,0-.44-.35-.44-.51S163.3,3.42,163.39,3.4Zm7.41-1.65c.08.08.45.45.45.53a.5.5,0,0,1-.36.33c-.06,0-.1-.06-.14-.1a7,7,0,0,0-.69-.76s-.08-.08-.08-.13a.49.49,0,0,1,.33-.31C170.39,1.31,170.71,1.67,170.79,1.75Zm.88-.62c.08.08.45.45.45.53a.5.5,0,0,1-.36.33c-.06,0-.1-.06-.14-.1a8.18,8.18,0,0,0-.69-.76s-.08-.08-.08-.13a.5.5,0,0,1,.32-.31C171.27.69,171.59,1,171.67,1.13Z"/><path class="cls-1" d="M177.51,1.37c0,.09-.09.11-.15.11-.24,0-.27,0-.88.52s-1.1.92-1.63,1.4c-.37.34-.71.6-.71.89s.5.9.74,1.16a26.91,26.91,0,0,0,2.15,2c.21.18.4.31.4.44a.58.58,0,0,1-.47.43c-.1,0-.16-.08-.25-.19a14.5,14.5,0,0,0-1.21-1.28c-.52-.51-1-1-1.51-1.59a1.4,1.4,0,0,1-.45-1,1,1,0,0,1,.21-.63,12,12,0,0,1,1.18-1.07A18.63,18.63,0,0,0,176.76.92a.18.18,0,0,1,.13-.08A1.69,1.69,0,0,1,177.51,1.37Z"/><path class="cls-1" d="M183.46,6.24v1.3c0,.13.05.23.19.23h.07c.49-.11,1.12-.24,1.59-.4l.11,0c.15,0,.19.16.19.28s-.09.21-.26.26a35.62,35.62,0,0,1-3.51.77c-.29,0-.28.06-.33.19a.11.11,0,0,1-.11.08c-.08,0-.1-.07-.16-.22a3.65,3.65,0,0,1-.13-.39c0-.08.06-.1.13-.1.36,0,1.07-.16,1.44-.25.19,0,.25-.13.25-.32v-1c0-.07,0-.16-.13-.16a.19.19,0,0,0-.1,0,10.65,10.65,0,0,1-2,1,1.32,1.32,0,0,1-.33.09c-.13,0-.21-.19-.21-.3s.12-.17.22-.21A8.92,8.92,0,0,0,184,4.88a.17.17,0,0,0,0-.1c0-.08-.07-.1-.13-.11h-2.31c-.39,0-.77,0-1.16,0-.18,0-.19-.11-.19-.27s0-.27.19-.27l1.16,0H184c.19,0,.27-.08.27-.28V3.45c0-.19-.08-.27-.27-.27h-1.38l-1,0c-.19,0-.2-.12-.2-.27s0-.27.2-.27l1,0H184c.19,0,.27-.08.27-.27V2c0-.2-.08-.26-.27-.28h-1.92c-.38,0-.75,0-1.12,0-.18,0-.19-.11-.19-.27s0-.27.2-.27l1.11,0H184c.2,0,.28-.08.28-.28a4.55,4.55,0,0,0,0-.64s0-.06,0-.09.07-.13.16-.13l.28,0c.22,0,.41,0,.41.14s-.06.09-.14.14-.14.19-.13.57c0,.19.09.27.28.27H187l1.1,0c.19,0,.21.08.21.27s0,.27-.2.27c-.37,0-.74,0-1.11,0H185.1c-.19,0-.27.08-.27.28v.36c0,.19.08.27.27.27h1.36l1,0c.18,0,.2.1.2.27s0,.27-.19.27l-1,0H185.1c-.19,0-.27.08-.27.27V3.9c0,.2.08.28.27.28h2.41l1.15,0c.19,0,.2.1.2.27s0,.27-.2.27c-.38,0-.77,0-1.15,0h-2.08c-.11,0-.21,0-.21.18a.22.22,0,0,0,0,.08,5.06,5.06,0,0,0,.63,1.28.23.23,0,0,0,.21.13.3.3,0,0,0,.16,0,11.64,11.64,0,0,0,1.5-1.12s.07-.07.11-.07.41.44.41.52a.09.09,0,0,1-.08.09l-.09,0-.1,0a.14.14,0,0,0-.09,0,11.69,11.69,0,0,1-1.35,1,.23.23,0,0,0-.12.18.21.21,0,0,0,.07.15,6,6,0,0,0,2.07,1.38c.12,0,.27.09.27.22s-.11.33-.24.33A6,6,0,0,1,187,8.1,5.94,5.94,0,0,1,184.77,5a.14.14,0,0,0-.13-.11.14.14,0,0,0-.12.06c-.24.26-.6.61-.87.85A.43.43,0,0,0,183.46,6.24Z"/><path class="cls-1" d="M194.07,3.78c0-.2-.09-.28-.28-.28h-2.46l-1.16,0c-.19,0-.21-.1-.21-.28s0-.29.21-.29l1.16,0h6l1.15,0c.2,0,.22.09.22.29s0,.28-.21.28l-1.16,0h-2.44c-.19,0-.28.08-.28.28V7.37c0,.21,0,.42,0,.64,0,.85-.95.86-1.58.86-.16,0-.28,0-.34-.07a.82.82,0,0,1-.09-.34c0-.11.07-.15.16-.15l.46,0c.82,0,.85-.22.85-.88Zm-1.5,1.13c-.11,0-.13.06-.19.2a9.57,9.57,0,0,1-1.74,2.59.42.42,0,0,1-.27.16c-.12,0-.31-.14-.31-.24s.09-.17.19-.27A7.9,7.9,0,0,0,192,4.64c0-.06.06-.12.13-.12s.59.18.59.28S192.63,4.9,192.57,4.91Zm-.26-3.82-1.15,0C191,1.11,191,1,191,.82s0-.28.21-.28l1.15,0h4l1.15,0c.2,0,.21.1.21.28s0,.29-.21.29l-1.15,0Zm5.93,6.72c-.12,0-.19-.1-.25-.19A16.34,16.34,0,0,0,196.07,5c0-.06-.12-.13-.12-.21s.18-.27.31-.27a.28.28,0,0,1,.21.13c.37.41.72.84,1,1.28a9.56,9.56,0,0,1,1,1.62C198.54,7.69,198.36,7.81,198.24,7.81Z"/><path class="cls-1" d="M204.26,8.13c-.12,0-.18,0-.18-.07a.31.31,0,0,1,.06-.14c.19-.29.36-.58.54-.88l2.72-4.59c.18-.3.35-.59.51-.88a.32.32,0,0,1,.37-.22h.14c.12,0,.18,0,.18.07a.3.3,0,0,1-.06.14c-.19.3-.37.6-.55.9L205.28,7c-.18.3-.35.59-.51.88a.32.32,0,0,1-.37.22Z"/><path class="cls-1" d="M214.8,3.95s0-.08-.07-.08a.07.07,0,0,0-.06,0,7.88,7.88,0,0,1-.51.85.26.26,0,0,1-.2.14c-.11,0-.32-.13-.32-.25a.66.66,0,0,1,.13-.25A14.92,14.92,0,0,0,215.55.19c0-.07,0-.19.13-.19s.18,0,.23.06c.26.09.39.13.39.22s-.08.11-.14.14-.16.14-.21.31a18.09,18.09,0,0,1-.64,1.8s0,0,0,0,0,.09.1.1.18,0,.18.11-.06.09-.14.14-.13.27-.13,1V7.46c0,.39,0,.78,0,1.16,0,.23,0,.37-.29.37s-.29-.14-.29-.36c0-.39,0-.78,0-1.17Zm2.74,4.5c-.12,0-.2,0-.2.19s0,.32-.28.32-.28-.08-.28-.29,0-.67,0-1V2c0-.28,0-.55,0-.83s.08-.5.46-.5h4.53c.39,0,.5.08.5.48s0,.57,0,.85V7.61c0,.34,0,.68,0,1s-.07.27-.28.27-.26-.11-.28-.26-.07-.19-.2-.19Zm4.19-7a.24.24,0,0,0-.28-.28h-3.85a.24.24,0,0,0-.28.28V7.68c0,.2.09.26.28.28h3.84c.2,0,.29-.08.29-.28ZM220.17,7h-1.28c-.1,0-.14.06-.18.15s-.16.09-.25.09c-.25,0-.27-.07-.27-.25V4.87c0-.29.07-.43.38-.43H219c.2,0,.27-.08.27-.28V3.48c0-.2-.08-.28-.27-.28h-.24l-.85,0c-.17,0-.18-.12-.18-.27s0-.26.18-.26H219c.19,0,.27-.08.27-.27a4.44,4.44,0,0,0,0-.74s0-.07,0-.1.07-.13.16-.13a1.23,1.23,0,0,1,.28,0c.22,0,.41,0,.41.13s0,.09-.14.15-.14.19-.13.67c0,.19.09.26.28.26h1c.18,0,.19.12.19.26s0,.27-.19.27l-.85,0h-.17c-.2,0-.28.08-.28.28v.69c0,.2.08.28.28.28h.37c.34,0,.4.14.4.45,0,.13,0,.26,0,.39V6.47c0,.17,0,.35,0,.52s0,.24-.27.24-.22,0-.26-.1S220.25,7,220.17,7Zm-.14-.5a.26.26,0,0,0,.28-.27v-1a.26.26,0,0,0-.28-.28h-1c-.17,0-.26.11-.28.28v1a.27.27,0,0,0,.28.27Z"/><path class="cls-1" d="M228.28,3.21s0,0-.06,0a8.93,8.93,0,0,1-2.72,4.62,5.43,5.43,0,0,1-1.34.9.45.45,0,0,1-.33-.36c0-.08.09-.13.2-.2a8.36,8.36,0,0,0,1.77-1.42,8.7,8.7,0,0,0,2.09-4.68A12.63,12.63,0,0,0,228,.63c0-.35,0-.53.16-.53s.68.06.68.22-.12.14-.19.17a.16.16,0,0,0-.09.14c0,.14,0,.27,0,.4v.29a8.14,8.14,0,0,0,.1.95,8.84,8.84,0,0,0,3.79,6c.09.06.27.16.27.25s-.17.33-.3.33a5.34,5.34,0,0,1-1.1-.73,9.18,9.18,0,0,1-3-4.83S228.31,3.21,228.28,3.21Z"/><path class="cls-1" d="M234.47,2.16c-.11.06-.12.09-.14.22a10.55,10.55,0,0,1-.48,2.07c0,.12-.09.22-.24.22s-.32,0-.32-.17a.51.51,0,0,1,0-.13,8.57,8.57,0,0,0,.48-2c0-.08,0-.19,0-.25s0-.24.14-.24.6.07.6.18S234.51,2.14,234.47,2.16Zm.29-.65a7.89,7.89,0,0,0,0-1.2.35.35,0,0,1,0-.1c0-.1.06-.13.15-.13l.29,0c.22,0,.41,0,.41.14s-.06.09-.14.14-.13.29-.13,1.13V7.22c0,.46,0,.92,0,1.38,0,.23,0,.38-.28.38s-.3-.14-.3-.38c0-.46,0-.92,0-1.38Zm1.44,1.73c-.15,0-.19-.1-.22-.21A10.36,10.36,0,0,0,235.63,2a.41.41,0,0,1,0-.15c0-.14.19-.21.31-.21s.21.12.42.74a4.62,4.62,0,0,1,.19.68C236.51,3.19,236.33,3.24,236.2,3.24ZM239,2.82c0-.17-.07-.24-.24-.24H238l-.94,0c-.17,0-.17-.12-.17-.25s0-.26.17-.26l.94,0h.74c.17,0,.24-.07.24-.24V1.7c0-.17-.07-.24-.24-.24h-1l-.89,0c-.17,0-.17-.12-.17-.26s0-.24.17-.24l.89,0h1c.16,0,.23-.06.24-.23a2.28,2.28,0,0,0,0-.43.35.35,0,0,1,0-.1c0-.1.07-.12.15-.12l.27,0c.2,0,.38,0,.38.14s0,.08-.13.13-.11.16-.12.36.08.23.24.23h1.14l.89,0c.17,0,.17.12.17.26s0,.24-.17.24l-.89,0h-1.14c-.17,0-.24.07-.24.24v.17c0,.17.07.24.24.24h.86l.94,0c.18,0,.18.13.18.27s0,.24-.17.24l-.95,0h-.86c-.17,0-.24.07-.24.24V3c0,.17.07.24.24.24h1.17l1.13,0c.19,0,.2.08.2.25s0,.26-.19.26l-1.14,0h-3.2l-1.14,0c-.18,0-.18-.11-.18-.26s0-.25.19-.25l1.13,0h1c.17,0,.24-.07.24-.24Zm1.72,4.61c0-.19-.08-.28-.27-.28H238a.25.25,0,0,0-.28.28v.33c0,.29,0,.59,0,.88s0,.29-.28.29-.28,0-.28-.27,0-.6,0-.9V5.26c0-.17,0-.33,0-.5s.08-.35.4-.35h3.19c.33,0,.4.08.4.35s0,.31,0,.47v2.5c0,.16,0,.32,0,.48,0,.71-.38.73-1.2.73-.49,0-.62,0-.62-.37,0-.1,0-.16.14-.16h.52c.59,0,.61,0,.61-.45Zm-.2-1.9a.19.19,0,0,0,.2-.2V5.12a.2.2,0,0,0-.2-.21H238a.21.21,0,0,0-.21.21v.21a.2.2,0,0,0,.21.2Zm-2.72.92a.21.21,0,0,0,.21.21h2.51a.2.2,0,0,0,.2-.21V6.23a.19.19,0,0,0-.2-.2H238a.2.2,0,0,0-.21.2Z"/><path class="cls-1" d="M246.32,1.22h.29l.79,0c.18,0,.18.13.18.27s0,.27-.18.27l-.79,0h-.3c-.19,0-.27.08-.27.27v.49c0,.19.08.27.27.27h.43l1.1,0c.19,0,.2.1.2.27s0,.27-.19.27l-1.11,0h-1.92l-1.11,0c-.18,0-.19-.11-.19-.27s0-.27.19-.27l1.11,0h.45c.2,0,.27-.08.27-.27V2c0-.19-.07-.27-.27-.27h-.35l-.79,0c-.18,0-.18-.14-.18-.28s0-.26.18-.26l.79,0h.35c.19,0,.27-.08.27-.28a3,3,0,0,0,0-.55,2.41,2.41,0,0,1,0-.24c0-.1.07-.12.14-.12l.27,0c.21,0,.39,0,.39.14s-.06.08-.14.13S246,.5,246,1C246,1.15,246.13,1.22,246.32,1.22Zm.42,2.08s.57.19.57.29,0,.07-.1.08-.16,0-.18.11c-.1.28-.2.55-.31.82a.19.19,0,0,0,0,.08c0,.11.09.15.19.15h.87c.18,0,.19.12.19.26s0,.27-.19.27l-.85,0h-.63c-.19,0-.27.08-.27.27v.53c0,.2.08.28.27.28h.54l.77,0c.17,0,.18.13.18.27s0,.26-.18.26l-.77,0h-.53c-.2,0-.28.09-.28.28v.31c0,.36,0,.71,0,1.06s0,.37-.27.37-.27-.15-.27-.37,0-.7,0-1.06V7.18c0-.19-.08-.28-.28-.28h-.43l-.76,0c-.18,0-.18-.13-.18-.27s0-.26.18-.26l.76,0h.44c.19,0,.27-.08.27-.28V5.6c0-.19-.08-.27-.27-.27h-.51l-.85,0c-.18,0-.19-.12-.19-.27s0-.26.19-.26h1.92a.34.34,0,0,0,.39-.24,10.7,10.7,0,0,0,.46-1.18S246.67,3.3,246.74,3.3ZM244.9,4.74c-.21,0-.15-.14-.54-1a.38.38,0,0,1,0-.14c0-.14.19-.22.3-.22s.19.12.37.56a4.21,4.21,0,0,1,.21.63C245.2,4.67,245,4.74,244.9,4.74Zm6.36-3.37c0-.2-.09-.28-.28-.28h-1.86c-.2,0-.28.08-.28.28V3.64c0,.2.08.28.28.28h2.43a.38.38,0,0,1,.43.44,7,7,0,0,1-.29,1A8.65,8.65,0,0,1,251,6.84a.32.32,0,0,0,0,.41,5.85,5.85,0,0,0,1.21,1.07c.07,0,.14.09.14.18s-.12.33-.27.33c-.31,0-1.18-.89-1.4-1.13a.24.24,0,0,0-.18-.09.21.21,0,0,0-.17.08c-.19.2-.84.85-1.1.85a.3.3,0,0,1-.28-.27c0-.12.21-.25.31-.32a4.53,4.53,0,0,0,.76-.69.29.29,0,0,0,.09-.21.34.34,0,0,0-.06-.2,6.06,6.06,0,0,1-.83-2.29.14.14,0,0,0-.14-.14.24.24,0,0,0-.25.28V7.36c0,.41,0,.82,0,1.24,0,.23,0,.33-.29.33s-.29-.1-.29-.33c0-.42,0-.83,0-1.24V1c0-.33.06-.46.5-.46l.38,0h1.72l.38,0c.43,0,.5.13.5.45s0,.39,0,.59v.24c0,.17,0,.34,0,.51s0,.67-.27.85a1.87,1.87,0,0,1-.91.21c-.14,0-.31,0-.31-.4,0-.11,0-.14.15-.14h.32c.43,0,.49-.2.49-.7Zm-.74,5.11a.18.18,0,0,0,.15-.1,6,6,0,0,0,.72-1.79c0-.19-.16-.17-.47-.17H250c-.13,0-.25.05-.25.2s0,0,0,.06a5.15,5.15,0,0,0,.64,1.7A.17.17,0,0,0,250.52,6.48Z"/><path class="cls-1" d="M253.68,4.78a.38.38,0,0,1-.31-.28c0-.08.11-.18.16-.24a10.2,10.2,0,0,0,2.13-4c0-.08,0-.19.14-.19s.61.19.61.3-.09.11-.15.14-.16.14-.22.31a12.08,12.08,0,0,1-.8,1.81.15.15,0,0,0,0,.07c0,.1.1.11.13.12s.2,0,.2.12,0,.08-.14.14-.12.29-.12,1V7.34c0,.41,0,.82,0,1.23,0,.23,0,.38-.29.38s-.29-.15-.29-.37c0-.42,0-.83,0-1.24V3.76s0-.09-.08-.09a.07.07,0,0,0-.07,0C254.48,3.89,253.88,4.78,253.68,4.78Zm5.3,1c0-.06,0-.11-.09-.11a.1.1,0,0,0-.08,0,12.64,12.64,0,0,1-1.89,1.84,3.48,3.48,0,0,1-.78.51.35.35,0,0,1-.27-.29c0-.11.15-.2.23-.26a14.28,14.28,0,0,0,2.53-2.25.14.14,0,0,0,0-.09c0-.08-.07-.11-.14-.12h-1.14c-.38,0-.76,0-1.15,0-.18,0-.19-.12-.19-.27s0-.27.19-.27l1.15,0h1.32c.2,0,.28-.08.28-.28a4,4,0,0,0,0-.84.32.32,0,0,1,0-.09c0-.11.06-.13.15-.13a3.83,3.83,0,0,1,.46,0c.07,0,.23,0,.23.11s-.06.09-.14.14-.13.19-.12.77c0,.2.08.28.28.28H261l1.15,0c.19,0,.19.11.19.27s0,.27-.19.27L261,5.1H260c-.08,0-.15,0-.15.12a.18.18,0,0,0,0,.1,13.3,13.3,0,0,0,2.34,2.22c.09.07.22.14.22.24a.34.34,0,0,1-.28.29,4.69,4.69,0,0,1-1-.7,10.74,10.74,0,0,1-1.51-1.64.07.07,0,0,0-.07,0c-.06,0-.08,0-.08.1V7.46c0,.36,0,.72,0,1.09s0,.35-.28.35-.29-.12-.29-.35,0-.73,0-1.09ZM257.65,3c-.11,0-.14,0-.16.14s-.06.19-.28.19-.27-.08-.27-.25,0-.32,0-.47V1.26c0-.19,0-.36,0-.49s.09-.39.44-.39h3.76c.33,0,.45.09.45.43,0,.15,0,.3,0,.45V2.63c0,.14,0,.29,0,.44s0,.28-.27.28-.26-.06-.27-.17,0-.15-.16-.15ZM261,1.16a.27.27,0,0,0-.27-.28h-3a.28.28,0,0,0-.28.28V2.25a.27.27,0,0,0,.28.28h3c.17,0,.27-.1.27-.28Z"/><path class="cls-1" d="M264.54,2.32h-.81c-.18,0-.19-.12-.19-.26s0-.27.19-.27l.81,0h1.29l.81,0c.18,0,.18.13.18.27s0,.26-.18.26h-2.1Zm1.25,6.07h-1c-.33,0-.32,0-.32.34s0,.19-.28.19-.25,0-.25-.24V6.15c0-.28.11-.38.39-.38h1.72c.27,0,.4.08.4.37V8.41c0,.19,0,.22-.28.22s-.2,0-.24-.09S265.88,8.4,265.79,8.38Zm-1-7.43-.61,0C264,1,264,.84,264,.7s0-.25.17-.25l.61,0h1l.61,0c.17,0,.18.13.18.27s0,.26-.18.26l-.61,0Zm0,2.66-.61,0c-.17,0-.17-.14-.17-.28s0-.25.17-.25h2.16c.17,0,.18.13.18.26s0,.27-.18.27l-.61,0Zm0,1.35-.61,0c-.17,0-.17-.14-.17-.28s0-.25.17-.25l.61,0h.94l.61,0c.17,0,.18.13.18.26s0,.27-.18.27l-.61,0ZM266,6.55a.27.27,0,0,0-.28-.27h-.89a.26.26,0,0,0-.28.27V7.62a.29.29,0,0,0,.28.28h.89a.29.29,0,0,0,.28-.28Zm4.35-1.64c-.15,0-.21.06-.21.2v0c0,.14.06.2.21.2h1.87c.15,0,.18.07.18.23s0,.23-.18.23H268c-.32,0-.45-.06-.45-.38s0-.37,0-.55V4s0-.09-.08-.09a.11.11,0,0,0-.08,0c-.1.13-.4.58-.57.58s-.3-.12-.3-.23.07-.14.11-.19A6.39,6.39,0,0,0,267.94,2s0-.1.09-.1.58.11.58.24-.11.09-.16.1-.12.11-.19.26a.24.24,0,0,0,0,.08c0,.09.07.13.16.13h.91a.38.38,0,0,0,.4-.22c.08-.17.16-.34.23-.51s0-.1.09-.1.56.21.56.32-.08.07-.16.09a.18.18,0,0,0-.13.08l-.06.13a.24.24,0,0,0,0,.08.13.13,0,0,0,.15.13H271l1,0c.16,0,.19.07.19.24s0,.23-.19.23l-1,0h-.71c-.15,0-.21.06-.21.21v0c0,.14.06.2.21.2h.43l.94,0c.16,0,.19.08.19.24s0,.23-.19.23l-.94,0h-.43c-.15,0-.2.06-.21.21s.06.21.21.21h.42c.35,0,.73,0,.94,0s.19.08.19.24,0,.24-.19.24l-.94,0Zm-.74,3.32a.69.69,0,0,0-.2,0,13.13,13.13,0,0,1-2.53.61c-.22,0-.28-.22-.28-.33s.14-.14.4-.18a12.21,12.21,0,0,0,1.9-.43c.06,0,.1-.06.1-.13a.18.18,0,0,0-.06-.12,4.37,4.37,0,0,1-.69-.74.34.34,0,0,0-.34-.19l-.46,0c-.17,0-.19-.09-.19-.25s0-.26.19-.26l1.12,0h2.77a.38.38,0,0,1,.38.41c0,.36-1,.94-1.26,1.11a.13.13,0,0,0-.08.12c0,.06.05.09.09.11a7.55,7.55,0,0,0,1.61.39c.21,0,.37,0,.37.22s-.06.31-.23.31l-.3,0a6.15,6.15,0,0,1-2-.62A.63.63,0,0,0,269.56,8.23ZM270,.84c.16,0,.24-.06.23-.23a1.8,1.8,0,0,0,0-.24.34.34,0,0,1,0-.1c0-.09.06-.11.13-.11l.54,0s.1,0,.1.09,0,.08-.12.13-.09.1-.1.19v0c0,.15.1.19.23.19h.22l1,0c.19,0,.19.12.19.27s0,.27-.19.27l-1,0H271c-.14,0-.2,0-.2.19v.16c0,.2,0,.27-.25.27s-.27,0-.27-.24V1.53c0-.13-.06-.19-.2-.19h-1c-.15,0-.2,0-.2.19v.12c0,.22,0,.28-.26.28s-.26,0-.26-.25V1.53c0-.14-.07-.19-.2-.19h-.1l-1,0c-.19,0-.19-.12-.19-.27s0-.27.19-.27l1,0h.07c.17,0,.23-.06.23-.24a2.32,2.32,0,0,0,0-.26.35.35,0,0,1,0-.1c0-.09.06-.11.13-.11l.54,0s.1,0,.1.09,0,.08-.12.12a.26.26,0,0,0-.11.23c0,.16.08.22.24.22Zm-2,2.59a.2.2,0,0,0,.21.2h1.15a.2.2,0,0,0,.21-.2v0a.2.2,0,0,0-.21-.21h-1.15a.2.2,0,0,0-.21.21Zm1.36,1a.2.2,0,0,0,.21-.21.21.21,0,0,0-.21-.21h-1.15a.21.21,0,0,0-.21.21.2.2,0,0,0,.21.21Zm.21.63a.2.2,0,0,0-.21-.2h-1.15a.2.2,0,0,0-.21.2v0a.2.2,0,0,0,.21.2h1.15a.2.2,0,0,0,.21-.2Zm-.69,1.65c-.07,0-.14,0-.14.11a.17.17,0,0,0,0,.1,3.87,3.87,0,0,0,.61.54.44.44,0,0,0,.24.09.52.52,0,0,0,.21-.06c.15-.07,1-.55,1-.69s-.16-.09-.23-.09Z"/><path class="cls-1" d="M277.34,1.8c.2,0,.28-.08.28-.28V1.37a6.85,6.85,0,0,0,0-1,.39.39,0,0,1,0-.1c0-.11.08-.12.16-.12l.28,0c.21,0,.41,0,.41.14s-.06.09-.14.14-.13.26-.13.94v.15c0,.2.08.28.28.28h2.43l1.15,0c.19,0,.2.1.2.27s0,.27-.2.27l-1.15,0h-3s-.1,0-.1,0,0,0,0,0a.08.08,0,0,1,0,.08c0,.08-.09.12-.16.16a.13.13,0,0,0-.08.14c0,.34,0,.67,0,1,0,.18.07.26.25.26h3c.4,0,.43.23.43.47a12.43,12.43,0,0,1-.77,3.89c-.31.6-1.09.6-1.67.6-.35,0-.55,0-.55-.43,0-.13,0-.17.17-.17s.37,0,.62,0,.82,0,1-.43a10.89,10.89,0,0,0,.62-3.22c0-.22-.08-.2-.48-.2h-2.46c-.2,0-.28.06-.32.26a5.93,5.93,0,0,1-2.73,3.89,1,1,0,0,1-.41.15c-.16,0-.33-.23-.33-.38s.08-.13.16-.16a4.73,4.73,0,0,0,2.61-3,8,8,0,0,0,.36-2.66c0-.31-.08-.36-.36-.36h-1.78l-1.16,0c-.18,0-.19-.11-.19-.27s0-.27.2-.27l1.15,0Z"/><path class="cls-1" d="M285.65,4.27c0,.19.08.27.28.27h.24l1,0c.19,0,.19.12.19.27s0,.27-.19.27l-1,0h-.24c-.2,0-.28.08-.28.28v2.1c0,.12,0,.23.2.23h.07c.24,0,1.27-.3,1.33-.3s.19.14.19.26-.07.21-.16.24c-.61.19-2.67.54-3.42.66-.28,0-.27.06-.33.19s-.07.08-.1.08-.11-.09-.16-.23a2.48,2.48,0,0,1-.12-.39c0-.08.07-.1.14-.1.53,0,1-.14,1.58-.22a.28.28,0,0,0,.25-.32V5.32c0-.2-.08-.28-.27-.28h-.42l-1,0c-.18,0-.19-.12-.19-.27s0-.27.19-.27l1,0h.42c.19,0,.27-.08.27-.27V3.69c0-.19-.07-.26-.27-.27h-.54c-.15,0-.17-.09-.18-.22a.06.06,0,0,0-.05-.06l0,0c-.11.14-.49.64-.65.64s-.31-.13-.31-.25.08-.16.13-.21a11.64,11.64,0,0,0,1.42-1.85,11.6,11.6,0,0,0,.7-1.3c0-.05,0-.12.12-.12a3.57,3.57,0,0,1,.46.15c.06,0,.13,0,.13.11s-.11.11-.16.12,0,0,0,0,0,0,0,0a9.34,9.34,0,0,0,1.48,1.4c.06,0,.16.12.16.21a.37.37,0,0,1-.3.32c-.26,0-1.24-1.17-1.42-1.42a.2.2,0,0,0-.14-.08c-.08,0-.11,0-.15.1a13.15,13.15,0,0,1-1.06,1.61.17.17,0,0,0,0,.1c0,.09.07.11.14.12h1.57l.7,0c.17,0,.17.13.17.27s0,.26-.17.26h-.87c-.2,0-.28.08-.28.27Zm-1.37,3c-.15,0-.19-.09-.23-.22a7.39,7.39,0,0,0-.38-1,.48.48,0,0,1,0-.16c0-.14.2-.23.31-.23s.22.18.38.57a5.76,5.76,0,0,1,.26.84C284.57,7.22,284.38,7.28,284.28,7.28Zm3.17-1.62c0,.07-.11.08-.15.08a.17.17,0,0,0-.13.11c-.09.21-.51,1-.62,1.18a.22.22,0,0,1-.18.13c-.11,0-.34-.1-.34-.22a.23.23,0,0,1,0-.11,6.33,6.33,0,0,0,.68-1.29c0-.05,0-.13.11-.13S287.45,5.54,287.45,5.66Zm3.29-2.09,1.14,0c.19,0,.19.11.19.27s0,.27-.19.27l-1.14,0h-.51c-.2,0-.28.08-.28.28V7.21c0,.46,0,.91,0,1.37,0,.23,0,.38-.29.38s-.29-.15-.29-.37c0-.46,0-.92,0-1.38V4.35c0-.2-.08-.28-.27-.28h-.38l-1.14,0c-.18,0-.19-.1-.19-.27s0-.27.19-.27l1.14,0h.38c.19,0,.27-.08.27-.27V1.56a11.63,11.63,0,0,0,0-1.2s0-.06,0-.09.07-.13.16-.13l.28,0c.23,0,.41,0,.41.14s0,.09-.14.14-.13.27-.13.72V3.3c0,.19.08.27.28.27Z"/><path class="cls-1" d="M297.52,8.13c-.12,0-.18,0-.18-.07a.31.31,0,0,1,.06-.14c.19-.29.36-.58.54-.88l2.72-4.59c.18-.3.35-.59.51-.88a.32.32,0,0,1,.37-.22h.14c.12,0,.18,0,.18.07a.3.3,0,0,1-.06.14c-.19.3-.37.6-.55.9L298.54,7c-.18.3-.35.59-.51.88a.32.32,0,0,1-.37.22Z"/><path class="cls-1" d="M4.41,18a.19.19,0,0,0-.15.09,11.77,11.77,0,0,1-3.58,3.2,1.36,1.36,0,0,1-.41.19c-.11,0-.27-.21-.27-.33s.13-.17.26-.24a10.12,10.12,0,0,0,4-3.83s0-.1.11-.1.57.16.57.31-.12.08-.17.08H4.76a.07.07,0,0,0,0,.06.1.1,0,0,0,0,.07,11.6,11.6,0,0,0,4,3.37c.09,0,.23.1.23.21s-.13.34-.26.34a7.5,7.5,0,0,1-1.5-.86,12.28,12.28,0,0,1-2.6-2.49A.19.19,0,0,0,4.41,18ZM3,24.86a.24.24,0,0,0,0,.08c0,.09.07.13.16.13q1.47-.13,2.94-.3a.14.14,0,0,0,.13-.13.17.17,0,0,0,0-.1c-.19-.22-.38-.42-.58-.64a.28.28,0,0,1-.08-.15.32.32,0,0,1,.28-.26A.29.29,0,0,1,6,23.6c.3.32.59.65.87,1s.56.64.82,1a.33.33,0,0,1,.08.18.3.3,0,0,1-.28.25c-.13,0-.21-.13-.6-.61a.38.38,0,0,0-.33-.16H6.54c-1.68.2-3.37.37-5.06.52-.06,0-.06,0-.11.1s-.06.1-.12.1S1,25.37,1,25.33s.15-.11.24-.11.64,0,.83-.06a.39.39,0,0,0,.37-.25,19.88,19.88,0,0,0,.94-2,.22.22,0,0,0,0-.08c0-.12-.09-.15-.19-.16H2l-1.17,0c-.18,0-.19-.1-.19-.27s0-.27.19-.27l1.17,0H6.77l1.16,0c.19,0,.2.1.2.27s0,.27-.2.27l-1.16,0H3.89a.06.06,0,0,0-.06,0,.05.05,0,0,0,0,0c.11.07.26.13.26.22s-.09.08-.18.09a.16.16,0,0,0-.12.08C3.56,23.8,3.33,24.32,3,24.86ZM3.46,21l-1,0c-.18,0-.19-.12-.19-.27s0-.27.19-.27.66,0,1,0H5.39c.33,0,.66,0,1,0s.2.12.2.27,0,.27-.19.27l-1,0Z"/><path class="cls-1" d="M11.9,22.1c-.07,0-.09.06-.09.12v2.44c0,.32,0,.64,0,1s0,.37-.29.37-.28-.15-.28-.37,0-.65,0-1V22.55c0-.06,0-.13-.11-.13a.18.18,0,0,0-.09,0c-.25.24-.52.48-.79.71a.49.49,0,0,1-.32.16.3.3,0,0,1-.29-.27c0-.13.12-.19.24-.28a12.65,12.65,0,0,0,2.33-2.35,4,4,0,0,0,.48-.8c0-.09-.06-.1-.55-.1h-1c-.38,0-.76,0-1.14,0-.18,0-.2-.1-.2-.27s0-.27.2-.27l1,0c.19,0,.27-.09.27-.28V18.3a8.11,8.11,0,0,0,0-1s0-.06,0-.09.09-.13.15-.13l.28,0c.29,0,.42,0,.42.14s-.06.09-.14.14-.13.26-.13.91v.46c0,.2.08.28.27.28h.78a.43.43,0,0,1,.44.44,6.1,6.1,0,0,1-1.14,1.83.27.27,0,0,0-.08.19.27.27,0,0,0,.09.19c.42.4.87.76,1.32,1.12.07,0,.16.11.16.21s-.14.31-.29.31a.56.56,0,0,1-.31-.17c-.38-.32-.74-.66-1.09-1A.15.15,0,0,0,11.9,22.1Zm5-1.94,1.13,0c.19,0,.2.1.2.27s0,.27-.19.27l-1.14,0h-.52c-.2,0-.28.08-.28.27v3.82c0,.19.08.28.28.28h.91c.39,0,.77,0,1.15,0,.19,0,.19.12.19.27s0,.27-.19.27l-1.15,0h-3.2l-1.15,0c-.18,0-.19-.1-.19-.27s0-.27.19-.27c.38,0,.77,0,1.15,0h1.2c.2,0,.28-.09.28-.28V20.93c0-.19-.08-.27-.28-.27H14.9l-1.14,0c-.19,0-.2-.11-.2-.27s0-.27.2-.27l1.14,0h.36c.2,0,.28-.08.28-.28v-1.4a7.92,7.92,0,0,0,0-1.13s0-.07,0-.1.07-.13.15-.13l.29,0c.32,0,.41,0,.41.14s-.06.09-.14.14-.13.3-.13,1.06v1.4c0,.2.08.28.28.28Z"/><path class="cls-1" d="M22,21.52c.07.09.14.15.14.22a.36.36,0,0,1-.3.28c-.22,0-.6-.84-.68-1a.07.07,0,0,0-.06,0s0,0,0,.07v3.33c0,.43,0,.86,0,1.29,0,.19,0,.29-.25.29s-.26-.1-.26-.3c0-.43,0-.85,0-1.28v-3s0,0,0,0l0,0c-.09.34-.56,2.36-.9,2.36-.11,0-.32-.12-.32-.23a.31.31,0,0,1,.06-.16,14.12,14.12,0,0,0,1.08-3.39V19.8c0-.15-.1-.2-.23-.2s-.37,0-.48,0-.17-.15-.17-.28,0-.25.17-.25l.51,0h.07c.2,0,.26-.08.28-.28v-.39a7.83,7.83,0,0,0,0-1.08.27.27,0,0,1,0-.09c0-.1.06-.11.14-.11l.25,0c.2,0,.36,0,.36.12s0,.07-.12.13-.12.25-.12,1v.39c0,.2.08.26.27.28l.51,0c.17,0,.17.14.17.28s0,.25-.17.25l-.51,0h-.08c-.1,0-.18,0-.19.15a.31.31,0,0,0,0,.13A6.27,6.27,0,0,0,22,21.52Zm1.1-.17c-.2,0-.28.08-.28.28v2.2A.14.14,0,0,0,23,24a.2.2,0,0,0,.1,0c.26-.16.49-.31.78-.51a.25.25,0,0,0,.13-.22.31.31,0,0,0,0-.16,5.42,5.42,0,0,1-.41-.68c0-.14.18-.26.29-.26a.22.22,0,0,1,.19.12,8.12,8.12,0,0,1,.45.72,4.72,4.72,0,0,1,.48.95.28.28,0,0,1-.28.24c-.19,0-.23-.19-.31-.35a.14.14,0,0,0-.13-.09.17.17,0,0,0-.11,0A18.65,18.65,0,0,1,22.23,25a.18.18,0,0,0-.06.16c0,.08,0,.14-.11.14a1.44,1.44,0,0,1-.45-.5c0-.08.08-.1.4-.27l.1-.06a.31.31,0,0,0,.19-.34V18c0-.35.09-.47.53-.47H24c.39,0,.54.09.54.44s0,.48,0,.72v2c0,.2,0,.4,0,.6s-.06.26-.27.26-.28-.06-.3-.11-.18-.13-.28-.13Zm0-3.31a.29.29,0,0,0-.28.28v.61a.29.29,0,0,0,.28.28h.6a.29.29,0,0,0,.28-.28v-.61a.29.29,0,0,0-.28-.28Zm0,1.67a.27.27,0,0,0-.28.27v.59a.28.28,0,0,0,.28.28h.6a.28.28,0,0,0,.28-.28V20a.27.27,0,0,0-.28-.27ZM27,20.95c-.14,0-.2,0-.24.19s0,.06,0,.09a.45.45,0,0,0,0,0c0,.09.07.14.16.15s.36,0,.36.12-.07.09-.11.12-.15.26-.15.68v2.5c0,.31.09.32.32.32h0c.45,0,.42-.09.51-1.24,0-.13,0-.2.18-.2s.34,0,.34.19,0,.09,0,.12c-.13,1.26-.06,1.63-1,1.63h-.15c-.45,0-.77-.14-.77-.64,0-.16,0-.31,0-.47v-2s0-.06,0-.06a.05.05,0,0,0,0,0,9.87,9.87,0,0,1-1.87,3.17c-.07.08-.18.21-.3.21s-.34-.14-.34-.29a.3.3,0,0,1,.12-.2,9.19,9.19,0,0,0,2.24-4.16s0,0,0-.06-.1-.2-.23-.2h-.3l-.86,0c-.18,0-.19-.12-.19-.26s0-.27.19-.27H25c.14,0,.19,0,.19-.19v-2c0-.13-.05-.2-.19-.2h-.13c-.19,0-.2-.11-.2-.27s0-.27.19-.27l.86,0h1.4l.87,0c.18,0,.19.13.19.27s0,.27-.19.27l-.66,0a.23.23,0,0,0-.25.26A15.3,15.3,0,0,1,27,20.2v0c0,.15.1.21.24.21h.14l.86,0c.18,0,.19.12.19.27s0,.26-.19.26l-.86,0Zm-.68-2.89H26c-.17,0-.24.07-.24.24v1.88c0,.2.08.28.28.28h.16a.24.24,0,0,0,.28-.22,12.85,12.85,0,0,0,.15-1.95C26.6,18.12,26.51,18.06,26.36,18.06Z"/><path class="cls-1" d="M33.52,21.95c0,.1.11.1.13.11h3.26l1.16,0c.18,0,.19.1.19.27s0,.27-.19.27l-1.16,0H35.83c-.05,0-.06,0-.06,0a0,0,0,0,0,0,0c.09,0,.28.12.28.2s-.13.1-.19.11a.19.19,0,0,0-.13.1,4.52,4.52,0,0,1-.86,1.13.16.16,0,0,0-.06.13c0,.08.05.12.12.15.65.25,1.47.62,2.1.93.09,0,.24.11.24.23s-.09.34-.24.34a1,1,0,0,1-.32-.13,23,23,0,0,0-2.27-1,.54.54,0,0,0-.18,0,.56.56,0,0,0-.25.08,8,8,0,0,1-2.74,1c-.13,0-.61.11-.72.11s-.32-.3-.32-.37.08-.13.17-.14a9,9,0,0,0,3-.8.14.14,0,0,0,.07-.11c0-.07-.07-.1-.09-.11L32.14,24,32,24a.28.28,0,0,0-.24.13c-.18.21-.32.41-.46.41s-.31-.14-.31-.24a.38.38,0,0,1,.1-.2c.4-.43.76-.9,1.12-1.36a.13.13,0,0,0,0-.09c0-.09-.07-.11-.14-.12H30.86l-1.15,0c-.18,0-.2-.1-.2-.26s0-.28.2-.28l1.15,0h1.66a.42.42,0,0,0,.42-.21c.13-.18.28-.4.42-.62a.19.19,0,0,0,0-.1c0-.1-.08-.13-.16-.14H31.35c-.1,0-.12.06-.16.14s0,.1-.26.1-.28-.06-.28-.23,0-.26,0-.39v-1c0-.15,0-.3,0-.44,0-.38.17-.44.51-.44h1.28c.17,0,.24-.07.24-.24v-.31c0-.17-.07-.24-.24-.24H31l-1.14,0c-.19,0-.2-.11-.2-.27s0-.27.2-.27l1.14,0h5.76l1.15,0c.19,0,.19.11.19.27s0,.27-.19.27l-1.15,0H35.32c-.17,0-.24.07-.24.24v.31c0,.17.07.24.24.24h1.27c.46,0,.56.11.56.44,0,.11,0,.3,0,.44v1c0,.13,0,.26,0,.39s0,.23-.28.23-.24,0-.26-.1-.06-.13-.16-.14H33.9s0,0,0,.05a0,0,0,0,0,0,0c.14.08.28.13.28.22s-.09.09-.14.1-.15,0-.24.16l-.23.31A.12.12,0,0,0,33.52,21.95Zm-.84-2.46a.27.27,0,0,0-.28-.27h-.94a.25.25,0,0,0-.27.27v.73a.27.27,0,0,0,.27.28h.94a.29.29,0,0,0,.28-.28Zm1.4,4.62a.36.36,0,0,0,.26-.11,3.83,3.83,0,0,0,.95-1.21.2.2,0,0,0,0-.08c0-.15-.14-.15-.19-.16H33.32a.44.44,0,0,0-.43.2c-.16.21-.31.42-.48.63a.19.19,0,0,0,0,.12c0,.09.06.13.14.16.47.13,1,.26,1.42.42A.47.47,0,0,0,34.09,24.11Zm-.66-6.18a.23.23,0,0,0-.25.24v.31a.23.23,0,0,0,.25.24h.92a.23.23,0,0,0,.24-.24v-.31a.23.23,0,0,0-.24-.24Zm1.16,1.56a.26.26,0,0,0-.28-.27h-.85a.27.27,0,0,0-.28.27v.73a.29.29,0,0,0,.28.28h.85a.29.29,0,0,0,.28-.28Zm2,0a.27.27,0,0,0-.28-.27h-1a.25.25,0,0,0-.27.27v.73a.27.27,0,0,0,.27.28h1a.29.29,0,0,0,.28-.28Z"/><path class="cls-1" d="M43.83,25.13c-.12,0-.18,0-.18-.07a.31.31,0,0,1,.06-.14c.19-.29.36-.58.54-.88L47,19.45c.18-.3.35-.59.51-.88a.32.32,0,0,1,.37-.22H48c.12,0,.18,0,.18.07a.29.29,0,0,1-.06.14c-.19.3-.37.6-.55.9L44.85,24c-.18.3-.35.59-.51.88a.32.32,0,0,1-.37.22Z"/><path class="cls-1" d="M56.4,22.89c-.06,0-.09,0-.16.08a16.79,16.79,0,0,0-1.59,1.19.19.19,0,0,1-.13.07c-.13,0-.35-.32-.35-.51s.15-.15.57-.42,1-.68,1.54-1c.15-.09.21-.15.21-.32v-.58c0-.3,0-.6,0-.89a.2.2,0,0,0-.2-.21l-1,.17-.28,0c-.06,0-.19,0-.19-.4,0-.21.06-.21.11-.21H55a7.44,7.44,0,0,0,1.36-.16.25.25,0,0,0,.15-.25c0-.26,0-.77,0-1a2.21,2.21,0,0,0,0-.36s0-.06,0-.09,0-.12.1-.12a4,4,0,0,1,.54.1c.06,0,.19,0,.19.12s-.08.15-.12.2a.62.62,0,0,0-.11.38c0,.1-.06.64-.06.72a.13.13,0,0,0,.14.14,9,9,0,0,0,.9-.23l.14,0c.15,0,.16.3.16.41s-.07.22-1,.37c-.43.07-.4.1-.4,1.26,0,.31,0,.46.1.46a.4.4,0,0,0,.14,0,5.55,5.55,0,0,1,2.07-.52,1.86,1.86,0,0,1,2,1.72,1.55,1.55,0,0,1-.8,1.37,3.8,3.8,0,0,1-1.8.36c-.1,0-.5,0-.56-.06a1.63,1.63,0,0,1-.14-.49.11.11,0,0,1,.11-.11,4.44,4.44,0,0,0,.87.12c.77,0,1.73-.26,1.73-1.2s-.83-1.18-1.53-1.18a4.33,4.33,0,0,0-2,.58.28.28,0,0,0-.15.26c0,.15,0,.6,0,.77s.1,1.21.1,1.29a.55.55,0,0,1-.58.54c-.18,0-.26-.21-.32-.36a2.15,2.15,0,0,0-.61-.85.17.17,0,0,1-.06-.11.13.13,0,0,1,.13-.12,3.58,3.58,0,0,1,.6.37s.14.11.19.11,0,0,0-.06,0-.62,0-.71C56.51,23,56.54,22.89,56.4,22.89Zm4-3.49.41.35c.29.25.59.48.89.73,0,0,.15.11.15.18s-.24.39-.37.39a.35.35,0,0,1-.2-.12c-.39-.38-.81-.74-1.23-1.08-.07-.05-.15-.11-.15-.2a.49.49,0,0,1,.34-.34C60.26,19.31,60.31,19.36,60.36,19.4Z"/><path class="cls-1" d="M64.21,24.18c0,.45,0,.91,0,1.37,0,.23,0,.4-.28.4s-.29-.16-.29-.4c0-.46,0-.92,0-1.37V18.65c0-.25,0-.51,0-.76s.08-.48.54-.48h2.22c.39,0,.54.07.54.44s0,.53,0,.8v.71c0,.27,0,.54,0,.81s-.15.43-.53.43H64.49c-.2,0-.28.08-.28.28Zm.24-6.26a.23.23,0,0,0-.24.24v.34a.23.23,0,0,0,.24.24h1.74a.23.23,0,0,0,.24-.24v-.34a.23.23,0,0,0-.24-.24Zm-.24,1.93a.23.23,0,0,0,.24.24h1.74a.22.22,0,0,0,.24-.24v-.37a.23.23,0,0,0-.24-.25H64.45a.23.23,0,0,0-.24.25Zm2.48,4.53c-.13,0-.2,0-.2.19v.07c0,.18-.07.22-.27.22s-.27-.07-.27-.24v-2.4c0-.48.31-.4.78-.4h1.66c.52,0,.78-.08.78.42,0,.14,0,.29,0,.43v1.47c0,.16,0,.33,0,.49s0,.25-.27.25-.27,0-.27-.2v-.11c0-.14-.07-.19-.2-.19Zm1.67-.5a.29.29,0,0,0,.28-.28v-1a.27.27,0,0,0-.28-.27h-1.6a.27.27,0,0,0-.28.27v1a.29.29,0,0,0,.28.28Zm1-3.29h-.53c-.39,0-.54-.08-.54-.43s0-.54,0-.81v-.71c0-.27,0-.53,0-.8s.15-.44.54-.44H71c.42,0,.54.09.54.45s0,.53,0,.79V24c0,.3,0,.6,0,.9a.76.76,0,0,1-.24.7,2,2,0,0,1-1.13.22c-.39,0-.5,0-.5-.4a.16.16,0,0,1,.18-.18H70a3.17,3.17,0,0,0,.44,0c.57,0,.55-.17.55-.63V20.87c0-.2-.08-.28-.28-.28ZM69,17.92a.23.23,0,0,0-.24.24v.34a.23.23,0,0,0,.24.24h1.71A.23.23,0,0,0,71,18.5v-.34a.23.23,0,0,0-.24-.24Zm-.24,1.93a.23.23,0,0,0,.24.24h1.71a.23.23,0,0,0,.24-.24v-.37a.23.23,0,0,0-.24-.25H69a.23.23,0,0,0-.24.25Z"/><path class="cls-1" d="M74.51,19.18c.07,0,.18.06.18.14s-.06.11-.11.15-.11.15-.13.28a5.17,5.17,0,0,0-.06.89,6.56,6.56,0,0,0,.37,2.5c.16.38.61,1.11,1.08,1.11.31,0,.7-.51.84-.76,0-.08.12-.25.22-.25s.36.22.36.33-.44.65-.55.77a1.21,1.21,0,0,1-.85.53c-.69,0-1.22-.69-1.5-1.25a7.11,7.11,0,0,1-.53-3c0-.2,0-1.31,0-1.47S73.93,19,74,19A2.58,2.58,0,0,1,74.51,19.18ZM79,19.11a3.18,3.18,0,0,1,1.2,1.12,5.1,5.1,0,0,1,.72,2,1.83,1.83,0,0,1,0,.23c0,.21-.22.24-.39.24s-.23-.11-.25-.24a4,4,0,0,0-1.42-2.8c-.08-.06-.16-.11-.16-.19A.36.36,0,0,1,79,19.11Z"/><path class="cls-1" d="M86.89,18.07c-.07,0-.1,0-.15.09a14.18,14.18,0,0,1-3.07,3.07,2.86,2.86,0,0,1-.84.48.33.33,0,0,1-.29-.3c0-.1.11-.17.19-.22A11.84,11.84,0,0,0,85.42,19a10.55,10.55,0,0,0,1.29-1.78c0-.06.07-.15.15-.15s.58.2.58.34-.06.09-.12.11a.13.13,0,0,0-.07.11.14.14,0,0,0,0,.07,13.25,13.25,0,0,0,3.81,3.42c.14.09.29.17.29.27s-.15.33-.28.33a11.6,11.6,0,0,1-1.75-1.17A12,12,0,0,1,87,18.17.21.21,0,0,0,86.89,18.07ZM85.1,25.33c-.16,0-.22.07-.23.23a1,1,0,0,1,0,.18c0,.19-.08.22-.28.22s-.28-.06-.28-.24,0-.35,0-.52V23.26c0-.16,0-.31,0-.47,0-.34.09-.46.44-.46H89c.33,0,.47.07.47.43v2.48c0,.17,0,.34,0,.51s0,.25-.28.25-.28,0-.28-.21,0-.15,0-.23-.07-.23-.23-.23ZM86,21.07l-1,0c-.18,0-.19-.12-.19-.26s0-.27.19-.27l1,0h1.87l1,0c.19,0,.19.11.19.27s0,.26-.18.26l-1,0Zm2.69,3.77a.29.29,0,0,0,.28-.28V23.11a.28.28,0,0,0-.28-.27h-3.5a.27.27,0,0,0-.28.27v1.45a.29.29,0,0,0,.28.28Z"/><path class="cls-1" d="M95.15,17.57c.07,0,.22,0,.22.14s-.09.15-.13.21a4.82,4.82,0,0,0-.18,1.26s0,.08,0,.08l.08,0h.06c.11,0,.4.48.4.57s-.09.14-.14.19a3,3,0,0,0-.54.92c0,.26,0,.34.06.34s.06,0,.08,0A4.73,4.73,0,0,1,98,19.76a2.15,2.15,0,0,1,1.51.66,2.24,2.24,0,0,1,.62,1.59,3,3,0,0,1-1.82,2.61,6.1,6.1,0,0,1-1.23.48c-.14,0-.36-.33-.36-.46s.07-.13.16-.15c1.22-.24,2.66-1,2.66-2.43A1.67,1.67,0,0,0,98,20.29a4.76,4.76,0,0,0-2.85,1.51.5.5,0,0,0-.17.46v.26c0,.61,0,1.23,0,1.85,0,.18,0,.91,0,1s-.12.18-.37.18-.29,0-.29-.22c0-.83,0-1.66,0-2.49v-.2c0-.06,0-.14-.06-.14a.2.2,0,0,0-.13.08c-.21.24-1.07,1.3-1.22,1.53,0,0-.07.11-.14.11s-.41-.26-.41-.4a.37.37,0,0,1,.11-.2,12.94,12.94,0,0,0,1.27-1.49,6.46,6.46,0,0,0,.55-.93,3.69,3.69,0,0,0,.07-.89c0-.15-.08-.24-.18-.24s-.95.21-1.11.25a1.11,1.11,0,0,1-.24.05c-.21,0-.29-.5-.29-.56s.11-.11.3-.11a6.09,6.09,0,0,0,1.19-.14c.13,0,.29-.05.35-.2s.07-1.25.07-1.45,0-.29,0-.36,0-.11.09-.11S95.05,17.55,95.15,17.57Z"/><path class="cls-1" d="M104.66,18.68a.11.11,0,0,1,.08.1.19.19,0,0,1-.07.14c-.12.12-.11.29-.11.53s0,.61,0,.91a.2.2,0,0,0,.19.21l2.32-.35a.28.28,0,0,0,.24-.31v-.1a6.53,6.53,0,0,0-.16-1.67.25.25,0,0,1,0-.08.11.11,0,0,1,.12-.1s.71.05.71.2a.24.24,0,0,1,0,.11.6.6,0,0,0-.09.32c0,.4,0,.8,0,1.19v.09a.19.19,0,0,0,.19.2h.1c.22,0,1.53-.23,1.67-.23s.14.17.14.27c0,.36-.1.32-.35.34l-1.38.15a.48.48,0,0,0-.33.11,4.11,4.11,0,0,0-.17,1.12,1.21,1.21,0,0,1-.9,1.18,2.06,2.06,0,0,1-.6.09c-.25,0-.29-.28-.29-.41s0-.18.15-.18h.19a.77.77,0,0,0,.78-.39,3.9,3.9,0,0,0,.22-1.17.19.19,0,0,0-.19-.2l-.28,0c-.65.09-1.3.21-1.94.32-.17,0-.3.08-.3.29,0,.51,0,1.62.1,2.1a1,1,0,0,0,.61.88,3.49,3.49,0,0,0,1.2.16,8,8,0,0,0,1.82-.21l.11,0c.12,0,.11.16.11.24a.65.65,0,0,1-.08.37,9.82,9.82,0,0,1-1.89.16c-1.59,0-2.37-.25-2.46-2,0-.51,0-1,0-1.53,0-.14,0-.25-.2-.25s-1.32.24-1.52.29a.67.67,0,0,1-.2,0c-.16,0-.23-.34-.23-.47s.17-.17.42-.2c.47,0,.93-.14,1.4-.21.17,0,.3,0,.3-.28a15.75,15.75,0,0,0-.07-1.71.44.44,0,0,1,0-.11c0-.08,0-.11.11-.11A5.88,5.88,0,0,1,104.66,18.68Z"/></g></g></svg>