<svg xmlns="http://www.w3.org/2000/svg" viewBox="0 0 121.83 18.04"><defs><style>.cls-1{fill:#231f20;}.cls-2{fill:#fff;}</style></defs><title>header_title_small</title><g id="Layer_2" data-name="Layer 2"><g id="レイヤー_1" data-name="レイヤー 1"><path class="cls-1" d="M7.49.44H9.14L16.37,17.6H14.57L12.7,13H3.61L1.67,17.6H0Zm.75,1.75-4,9.41h7.88Z"/><path class="cls-1" d="M36.2,17.6H26.75a8.77,8.77,0,0,1-9-8.8c0-5,3.39-8.8,8.7-8.8s8.7,3.83,8.7,8.8c0,3-1.62,6.28-4.29,7.3v0H36.2Zm-9.5-1.45c4.41,0,6.84-3.54,6.84-7.35,0-4.17-2.64-7.35-7.1-7.35s-7.1,3.18-7.1,7.35A7.23,7.23,0,0,0,26.7,16.15Z"/><path class="cls-1" d="M51.26,11c0,3.66-1.58,7-6.26,7s-6.26-3.35-6.26-7V.44h1.6V10.62c0,2.45.65,6,4.66,6s4.66-3.52,4.66-6V.44h1.6Z"/><path class="cls-1" d="M60.92.44h1.65L69.79,17.6H68L66.13,13H57L55.1,17.6H53.42Zm.75,1.75-4,9.41h7.88Z"/><path class="cls-2" d="M80.51.44H90.79V1.89H82.11V8h8.07V9.46H82.11V17.6h-1.6Z"/><path class="cls-2" d="M99.25.44h1.65l7.23,17.17h-1.79L104.47,13H95.38L93.43,17.6H91.76ZM100,2.18l-4,9.41h7.88Z"/><path class="cls-2" d="M110.6.44h4.95c2.62,0,5.53.65,5.53,4.53A3.51,3.51,0,0,1,118,8.53v0a4,4,0,0,1,3.83,4.22c0,4-3.42,4.8-5.75,4.8H110.6Zm1.6,7.42h3.32c3.32,0,4-1.82,4-2.89,0-2.4-1.7-3.08-3.73-3.08H112.2Zm0,8.29h3.66c3.76,0,4.36-2.09,4.36-3.3,0-2.55-2.08-3.54-4.12-3.54h-3.9Z"/></g></g></svg>