<svg xmlns="http://www.w3.org/2000/svg" viewBox="0 0 344.45 753.34"><defs><style>.cls-1{fill:#fff;}.cls-2{fill:#f15a22;}.cls-3{fill:none;stroke:#f15a22;stroke-linecap:round;stroke-linejoin:round;stroke-width:0.9px;}</style></defs><title>kamonara_background_1</title><g id="Layer_2" data-name="Layer 2"><g id="レイヤー_1" data-name="レイヤー 1"><rect class="cls-1" width="344.45" height="753.34"/><path class="cls-2" d="M71.84,17.5a.25.25,0,0,0-.22.12,16.51,16.51,0,0,1-3.41,3.5,5.25,5.25,0,0,1-1.32.83c-.26,0-.63-.48-.63-.71s.24-.28.38-.36a13.3,13.3,0,0,0,3.74-3.31,9.68,9.68,0,0,0,1-1.48c.05-.09.11-.2.21-.2a5.6,5.6,0,0,1,.87.23c.12,0,.35.08.35.24s-.07.12-.13.15a.15.15,0,0,0-.09.13.19.19,0,0,0,0,.08,14.61,14.61,0,0,0,5.12,4.1c.2.09.31.15.31.3s-.28.79-.51.79a12.07,12.07,0,0,1-2.12-1.22,16.34,16.34,0,0,1-3.32-3.06A.3.3,0,0,0,71.84,17.5Zm-1.57,6.09c-.51,0-1,0-1.53,0-.28,0-.3-.12-.3-.55s0-.54.3-.54l1.53,0h4a.74.74,0,0,1,.78.66,13.14,13.14,0,0,1-1.53,3.12,13.23,13.23,0,0,1-1.2,1.61.57.57,0,0,1-.4.23c-.22,0-.77-.28-.77-.54s.16-.3.32-.46a10.14,10.14,0,0,0,1.83-2.68,2.41,2.41,0,0,0,.27-.69c0-.22-.15-.23-.36-.23Zm.44-2.39-.91,0c-.32,0-.31-.21-.31-.52s0-.52.32-.52H74c.31,0,.31.2.31.52s0,.52-.31.52l-.91,0Z"/><path class="cls-2" d="M84.09,16.61c.07,0,.16.07.16.16s-.08.13-.19.24a5.83,5.83,0,0,0-.39,1.21c0,.07-.05.21-.05.26a.16.16,0,0,0,.16.16c.09,0,.81-.2.93-.24a.6.6,0,0,1,.15,0c.2,0,.23.71.23.87s-.16.31-1.48.55c-.44.08-.43.15-.58.56a32.2,32.2,0,0,1-1.6,3.71c-.2.39-.4.78-.63,1.17a.25.25,0,0,1-.23.16c-.23,0-.94-.31-.94-.55a1.76,1.76,0,0,1,.22-.46,22.18,22.18,0,0,0,1.67-3.23,6.58,6.58,0,0,0,.34-.91.15.15,0,0,0-.16-.16l-.27,0c-.22,0-1.21.12-1.38.12s-.27-.12-.31-.35a4.63,4.63,0,0,1-.07-.61c0-.16.08-.2.23-.2h.31a6.36,6.36,0,0,0,2.08-.23,2.84,2.84,0,0,0,.28-.85,7.35,7.35,0,0,0,.21-1.53c0-.09,0-.22.12-.22A10.43,10.43,0,0,1,84.09,16.61Zm2,3.9c.12,0,.23.09.23.23s0,.46,0,.73c0,.71.05,2,.13,2.74,0,.24.12.31.34.39a8.27,8.27,0,0,1,1.36.63c.16.09.78.43.78.6s-.39.78-.67.78a.68.68,0,0,1-.34-.17,4.41,4.41,0,0,0-1.26-.71c-.15,0-.16.22-.17.34-.09,1-.81,1.41-1.76,1.41s-2.26-.55-2.26-1.71,1.16-1.55,2.14-1.55h.5c.13,0,.26,0,.26-.19,0-.39-.19-2.8-.26-3.24v-.16c0-.17.11-.24.27-.24A3.51,3.51,0,0,1,86.09,20.51Zm-2.58,5.23c0,.48.69.74,1.09.74.58,0,.83-.3.83-.86,0-.34,0-.46-.82-.46C84.23,25.16,83.51,25.23,83.51,25.74Zm5.91-5.14c0,.27-.6.71-.81.71s-.17-.09-.24-.19a7.26,7.26,0,0,0-1.64-1.69c-.08-.05-.17-.13-.17-.23s.5-.71.71-.71A6.46,6.46,0,0,1,89.42,20.6Z"/><path class="cls-2" d="M94.11,19.26c.09,0,.23.07.23.17a.16.16,0,0,1-.08.13c-.23.17-.26.24-.31.61-.11.75-.24,1.51-.39,2.26,0,.05,0,.11,0,.16a.12.12,0,0,0,.11.13.3.3,0,0,0,.17-.08,5.22,5.22,0,0,1,3.31-1.44A2.64,2.64,0,0,1,100,23.9c0,2.11-1.9,2.84-3.64,3.25a7.33,7.33,0,0,1-1,.19c-.26,0-.32-.09-.43-.31a2,2,0,0,1-.2-.69c0-.2.19-.2.34-.22a11.27,11.27,0,0,0,1.79-.3c1-.27,2-.73,2-2a1.61,1.61,0,0,0-1.76-1.59,5.47,5.47,0,0,0-3.8,2.27c-.09.12-.22.28-.39.28s-.83-.11-.83-.46c0,0,.26-.82.32-1.14a19.61,19.61,0,0,0,.42-3.05c0-.23,0-.42,0-.58,0-.47,0-.65.21-.65A8,8,0,0,1,94.11,19.26Zm.42-2.86a11.42,11.42,0,0,1,1.59.89c.19.12.77.44.77.64s-.43.86-.66.86-.28-.15-.38-.23a9.93,9.93,0,0,0-1.63-1.1c-.15-.08-.31-.13-.31-.27S94.26,16.4,94.52,16.4Z"/><path class="cls-2" d="M105.55,24.1a17.84,17.84,0,0,0-2.15,1.59c-.05,0-.12.11-.19.11-.24,0-.66-.77-.66-1s.12-.17.27-.26c.75-.44,1.47-.94,2.2-1.38.55-.34.62-.36.62-.73s0-1,0-1.51c0-.17-.08-.32-.28-.32l-1.2.2a1.67,1.67,0,0,1-.36,0c-.15,0-.34,0-.34-.79,0-.35.05-.35.31-.36.48,0,1-.08,1.48-.13.21,0,.38-.09.43-.31s.05-1.26.05-1.4,0-.34,0-.48,0-.09,0-.13a.16.16,0,0,1,.16-.17c.17,0,.9.16,1.12.2s.24.05.24.16-.09.17-.16.23a1.47,1.47,0,0,0-.23.86,3.25,3.25,0,0,1,0,.35V19a.19.19,0,0,0,.2.2,8.75,8.75,0,0,0,1-.27,1,1,0,0,1,.21-.05c.24,0,.28.67.28.86s-.16.34-1.29.52c-.59.09-.54.2-.54,1.33,0,.27,0,.52.17.52a.88.88,0,0,0,.3-.11,6.61,6.61,0,0,1,2.43-.55,2.61,2.61,0,0,1,2.86,2.45,2.22,2.22,0,0,1-1.08,1.94,5.62,5.62,0,0,1-2.78.55c-.2,0-.47,0-.54-.11a2.61,2.61,0,0,1-.2-.85c0-.13.05-.26.2-.26a8.77,8.77,0,0,0,1.13.13c.89,0,2.1-.3,2.1-1.4s-1-1.41-1.79-1.41a5.51,5.51,0,0,0-2.59.74.43.43,0,0,0-.16.35c0,.22,0,.73.05,1s.12,1.57.12,1.67c0,.62-.69.86-1,.86s-.38-.27-.47-.48a2.74,2.74,0,0,0-.79-1.08c-.07-.05-.16-.13-.16-.23a.25.25,0,0,1,.26-.23c.13,0,.54.36.71.44a.43.43,0,0,0,.23.12c.07,0,.08-.05.08-.09s-.05-.56-.05-.75C105.7,24.3,105.72,24.1,105.55,24.1Zm5.55-5.16c.31.23,1,.81,1.33,1.08a3.4,3.4,0,0,1,.7.69c0,.21-.46.75-.69.75s-.2-.09-.28-.16a20.13,20.13,0,0,0-1.73-1.48c-.09-.08-.23-.16-.23-.3s.47-.7.66-.7A.42.42,0,0,1,111.1,18.94Z"/><path class="cls-2" d="M117,21.33c0,.07.05.11.12.12s.34,0,.34.16-.07.12-.16.19-.16.26-.16.71v3.43c0,.5,0,1,0,1.49s-.11.46-.56.46-.56,0-.56-.46,0-1,0-1.49V22.65c0-.09,0-.17-.15-.17a.17.17,0,0,0-.11.05c-.17.16-.74.7-.94.7s-.58-.44-.58-.65.15-.26.27-.34a16.15,16.15,0,0,0,3.09-3.54c0-.08.08-.15.17-.15a3.69,3.69,0,0,1,.73.31c.11.05.31.13.31.26s-.12.13-.19.15-.17.05-.31.24c-.42.59-.86,1.17-1.33,1.72A.12.12,0,0,0,117,21.33Zm1-4.72c-.11,0-.13,0-.2.11-.34.48-2.37,2.7-2.88,2.7a.91.91,0,0,1-.58-.59c0-.15.16-.26.27-.34A10.51,10.51,0,0,0,117,16.06c.07-.11.12-.13.19-.13s1,.38,1,.56S118.1,16.61,118,16.61Zm6.63,6.78,1.32,0c.3,0,.28.16.28.47s0,.46-.28.46l-1.32,0h-.07c-.26,0-.36.11-.36.38v1.25c0,.27,0,.52,0,.79,0,1.17-1.13,1.21-2,1.21-.34,0-.69.05-.69-.81a.23.23,0,0,1,.26-.26l.22,0h.36c.81,0,.79-.19.79-.91V24.64c0-.27-.11-.38-.36-.38h-3.39l-1.33,0c-.28,0-.28-.16-.28-.47s0-.46.28-.46l1.33,0h3.43c.23,0,.31-.08.32-.31s-.05-.48-.05-.52.09-.17.22-.17.69.05.93.08.3,0,.3.17-.09.12-.17.17a.31.31,0,0,0-.13.27c0,.23.09.31.31.31Zm-4.89-1.18-1.37,0c-.28,0-.27-.17-.27-.46s0-.47.27-.47l1.37,0h4.61l1.38,0c.27,0,.27.16.27.47s0,.46-.27.46l-1.38,0Zm.78,4.64c-.15,0-.23-.15-.32-.27-.3-.39-.62-.79-1-1.16-.07-.07-.19-.19-.19-.28s.47-.54.65-.54.74.65.9.87a4.29,4.29,0,0,1,.58.85C121.21,26.53,120.75,26.84,120.55,26.84Zm4.4-7.39c0,.2,0,.4,0,.61,0,.42-.21.52-.59.52l-.77,0h-3l-.77,0c-.38,0-.61-.09-.61-.52,0-.2,0-.4,0-.61v-2c0-.2,0-.4,0-.61,0-.39.2-.51.58-.51h4.6c.38,0,.58.11.58.51,0,.2,0,.4,0,.61Zm-1-1.92a.25.25,0,0,0-.27-.27h-3.15a.25.25,0,0,0-.27.27v.27a.25.25,0,0,0,.27.27h3.15a.25.25,0,0,0,.27-.27Zm-3.36,1.29a.31.31,0,0,0-.32.32v.21a.3.3,0,0,0,.32.32h3a.3.3,0,0,0,.32-.32v-.21a.31.31,0,0,0-.32-.32Z"/><path class="cls-2" d="M132.66,16.61c.07,0,.16.07.16.16s-.08.13-.19.24a5.83,5.83,0,0,0-.39,1.21c0,.07-.05.21-.05.26a.16.16,0,0,0,.16.16c.09,0,.81-.2.93-.24a.6.6,0,0,1,.15,0c.2,0,.23.71.23.87s-.16.31-1.48.55c-.44.08-.43.15-.58.56a32.2,32.2,0,0,1-1.6,3.71c-.2.39-.4.78-.63,1.17a.25.25,0,0,1-.23.16c-.23,0-.94-.31-.94-.55a1.76,1.76,0,0,1,.22-.46,22.18,22.18,0,0,0,1.67-3.23,6.57,6.57,0,0,0,.34-.91.15.15,0,0,0-.16-.16l-.27,0c-.22,0-1.21.12-1.38.12s-.27-.12-.31-.35a4.64,4.64,0,0,1-.07-.61c0-.16.08-.2.23-.2h.31a6.36,6.36,0,0,0,2.08-.23,2.84,2.84,0,0,0,.28-.85,7.36,7.36,0,0,0,.21-1.53c0-.09,0-.22.12-.22A10.43,10.43,0,0,1,132.66,16.61Zm2,3.9c.12,0,.23.09.23.23s0,.46,0,.73c0,.71.05,2,.13,2.74,0,.24.12.31.34.39a8.3,8.3,0,0,1,1.36.63c.16.09.78.43.78.6s-.39.78-.67.78a.68.68,0,0,1-.34-.17,4.41,4.41,0,0,0-1.26-.71c-.15,0-.16.22-.17.34-.09,1-.81,1.41-1.76,1.41S131,26.92,131,25.77s1.16-1.55,2.14-1.55h.5c.13,0,.26,0,.26-.19,0-.39-.19-2.8-.26-3.24v-.16c0-.17.11-.24.27-.24A3.51,3.51,0,0,1,134.66,20.51Zm-2.58,5.23c0,.48.69.74,1.09.74.58,0,.83-.3.83-.86,0-.34,0-.46-.82-.46C132.8,25.16,132.08,25.23,132.08,25.74ZM138,20.6c0,.27-.6.71-.81.71s-.17-.09-.24-.19a7.26,7.26,0,0,0-1.64-1.69c-.08-.05-.17-.13-.17-.23s.5-.71.71-.71A6.46,6.46,0,0,1,138,20.6Z"/><path class="cls-2" d="M146.15,24.25c-.27,0-.38.11-.38.38v.91c0,.64,0,1.3,0,2,0,.42-.09.46-.58.46s-.58,0-.58-.44c0-.66,0-1.32,0-2v-.91c0-.27-.12-.38-.38-.38h-2.58c-.17,0-.26.07-.27.26s0,.12,0,.17c0,.31-.2.31-.58.31s-.58,0-.58-.32,0-.71,0-1.06v-4c0-.31,0-.62,0-.93,0-.5.21-.61.69-.61h3.29c.26,0,.38-.11.38-.38v-.56a6.46,6.46,0,0,0-.05-.89.5.5,0,0,1,0-.13c0-.16.11-.17.23-.17s.75,0,1,.05.28,0,.28.16-.07.12-.16.2-.16.3-.16.71v.63c0,.27.11.38.38.38h3.32c.43,0,.7.08.7.56,0,.32,0,.65,0,1v4c0,.35,0,.7,0,1.06s-.16.32-.56.32-.59,0-.59-.32a.65.65,0,0,1,0-.16c0-.19-.09-.26-.27-.26Zm-1.47-4.79a.38.38,0,0,0-.38-.38h-2.5a.38.38,0,0,0-.38.38v.83a.38.38,0,0,0,.38.38h2.5a.38.38,0,0,0,.38-.38Zm0,2.55a.38.38,0,0,0-.38-.38h-2.5a.38.38,0,0,0-.38.38v.87a.38.38,0,0,0,.38.38h2.5a.38.38,0,0,0,.38-.38Zm4.37-2.55a.36.36,0,0,0-.36-.38h-2.54a.38.38,0,0,0-.38.38v.83a.38.38,0,0,0,.38.38h2.54a.36.36,0,0,0,.36-.38Zm0,2.55c0-.24-.13-.35-.36-.38h-2.54a.37.37,0,0,0-.38.38v.87a.38.38,0,0,0,.38.38h2.54a.36.36,0,0,0,.36-.38Z"/><path class="cls-2" d="M153.07,21.95c-.21,0-.43,0-.65,0s-.28-.13-.28-.52,0-.54.3-.54l.63,0h1.44c.52,0,.73.13.73.62s0,.71,0,1.08v1.85a1.66,1.66,0,0,0,1.1,1.77,9.21,9.21,0,0,0,3,.34h3c.44,0,.94,0,1.37,0,.2,0,.23.13.23.31,0,.69-.2.75-.63.75h-4.84a8.84,8.84,0,0,1-2.06-.2,2.51,2.51,0,0,1-1.52-1.06.33.33,0,0,0-.26-.16.37.37,0,0,0-.2.07c-.39.31-1,.81-1.44,1.08a.35.35,0,0,0-.12.23c0,.09,0,.21-.17.21s-.13-.07-.27-.27-.08-.13-.13-.22a1.56,1.56,0,0,1-.31-.56c0-.12.15-.2.34-.28l.23-.11c.3-.16,1.06-.69,1.37-.89a.59.59,0,0,0,.26-.56V22.32c0-.26-.11-.38-.38-.38Zm1.71-2.82c-.11,0-.22-.11-.28-.19a18.37,18.37,0,0,0-2-1.87c-.09-.08-.2-.16-.2-.3s.42-.58.63-.58a7.22,7.22,0,0,1,1.34,1.09c.31.3.74.71,1,1a.35.35,0,0,1,.09.22C155.43,18.75,155,19.13,154.78,19.13Zm4.46-1.56a.62.62,0,0,0-.28,0h-1.17c-.31,0-.63,0-1,0s-.35-.09-.35-.55,0-.54.4-.54.62,0,.93,0h1.48c.87,0,1,0,1.1.67,0,.16,0,.47,0,.83a8.21,8.21,0,0,0,3.07,6.26c.09.08.35.26.35.39a.93.93,0,0,1-.77.74c-.23,0-1-.79-1.16-1a10,10,0,0,1-2.11-3.7s-.05-.08-.11-.08a.12.12,0,0,0-.11.08,10.57,10.57,0,0,1-2.59,4c-.13.13-.59.58-.73.58s-.66-.48-.66-.7.22-.32.32-.42a10.28,10.28,0,0,0,3.36-6.52C159.32,17.63,159.3,17.59,159.24,17.57Z"/><path class="cls-2" d="M172.4,18a.27.27,0,0,1-.12.2,14.44,14.44,0,0,0-1.75,3.08c0,.2.27.24.48.28a8.94,8.94,0,0,1,1.55.48.72.72,0,0,0,.24.07c.2,0,.26-.15.3-.31a6.74,6.74,0,0,0,.23-1.56v-.11c0-.13,0-.3.17-.3s1,.17,1.09.21.21.07.21.19a.3.3,0,0,1-.08.16c-.16.16-.16.15-.23.47s-.2.91-.32,1.37a.71.71,0,0,0-.05.24c0,.22.16.32.34.42s1,.55,1.28.64.31.12.31.28-.52,1-.77,1-.23-.12-.31-.19a4.83,4.83,0,0,0-1.28-.83.3.3,0,0,0-.26.2,9.5,9.5,0,0,1-1.51,2.1c-.19.2-1,1-1.29,1s-.9-.43-.9-.66.13-.19.21-.23a6.06,6.06,0,0,0,2.54-2.86c0-.24-.22-.31-.6-.47a7.71,7.71,0,0,0-1.75-.48c-.26,0-.35.19-.69.86-.07.15-.16.31-.26.51-.42.83-.89,1.9-2,1.9a1.48,1.48,0,0,1-1.48-1.56,3,3,0,0,1,2.14-2.57A4.67,4.67,0,0,1,169,21.4c.23,0,.35,0,.46-.27.36-.74.7-1.51,1.09-2.23a.69.69,0,0,0,.11-.26.14.14,0,0,0-.13-.13c-.05,0-1.87.69-2,.75a1.05,1.05,0,0,1-.34.09c-.34,0-.67-.82-.67-1s.15-.16.26-.19a13.31,13.31,0,0,0,3.21-1,.72.72,0,0,1,.36-.15C171.51,17.06,172.4,17.74,172.4,18Zm-5.66,6.16c0,.27.13.5.42.5.48,0,.89-.78,1.1-1.16a4.25,4.25,0,0,0,.4-.89.14.14,0,0,0-.15-.13C168,22.5,166.74,23.24,166.74,24.18Z"/><path class="cls-2" d="M181.06,21.79c0,.13.05.26.2.26a1.75,1.75,0,0,0,.36-.16,3,3,0,0,1,.56-.24c.27,0,.36.44.36.66s-.11.32-.75.62l-.43.2a.46.46,0,0,0-.31.5v2.06c0,.63,0,1.26,0,1.9,0,.39-.09.44-.56.44s-.58-.05-.58-.46c0-.63,0-1.25,0-1.88v-1.6c0-.07,0-.26-.23-.26h-.11l-.48.19c-.66.26-.69.26-.75.47s-.05.16-.15.16-.19-.16-.24-.3a6.54,6.54,0,0,1-.28-.87c0-.16.19-.17.32-.21a15.93,15.93,0,0,0,1.6-.54.45.45,0,0,0,.32-.5v-2c0-.27-.11-.38-.38-.38h-.39a.33.33,0,0,0-.39.31c-.17.83-.15,1-.52,1-.16,0-.62-.07-.62-.28a1.64,1.64,0,0,1,.08-.35,11.85,11.85,0,0,0,.47-3.23c0-.12.07-.17.19-.17l.52.05c.22,0,.44,0,.44.17a.19.19,0,0,1-.09.15c-.15.09-.16.12-.17.42,0,.13,0,.32-.05.6v.08c0,.17.15.23.28.24h.31c.23,0,.32-.11.32-.32V17.34c0-.35,0-.7-.05-1,0,0,0-.08,0-.12s.11-.17.23-.17,1,.05,1.1.08a.15.15,0,0,1,.13.15c0,.08-.07.11-.17.19s-.15.31-.15.78v1.22a.32.32,0,0,0,.34.38c.07,0,.86,0,.9,0,.28,0,.28.15.28.52s0,.52-.28.52l-.89,0c-.26,0-.35.12-.35.38Zm5.2-4.41c0,.27.12.36.36.36h.77l1.2,0c.3,0,.3.17.3.5s0,.5-.3.5l-1.2,0h-.77c-.26,0-.36.11-.36.38v.82c0,.27.11.38.36.38h1.29l1.3,0c.3,0,.3.16.3.51s0,.5-.3.5l-1.3,0h-4l-1.29,0c-.3,0-.3-.17-.3-.5s0-.51.3-.51l1.29,0h.91c.27,0,.38-.11.38-.38v-.82c0-.27-.12-.38-.38-.38h-.39l-1.18,0c-.3,0-.3-.17-.3-.5s0-.5.3-.5l1.18,0h.39c.27,0,.38-.11.38-.36a5.47,5.47,0,0,0-.05-1,.38.38,0,0,1,0-.12c0-.15.11-.19.23-.19s.78.05,1,.07.26,0,.26.16-.07.12-.17.2-.16.27-.16.6ZM188,22.79c.36,0,.74,0,1.12,0s.28.19.28.52,0,.51-.28.51-.74,0-1.12,0-.36.11-.36.38v1.68c0,1.48.16,2.15-2.07,2.15-.17,0-.44,0-.55-.17a2,2,0,0,1-.15-.69.22.22,0,0,1,.24-.26h.23l.42,0c.85,0,.83-.26.83-1V24.15c0-.27-.12-.38-.38-.38h-2.06l-1.22,0c-.3,0-.28-.19-.28-.51s0-.52.28-.52l1.22,0h2.06c.26,0,.35-.09.38-.35a4.44,4.44,0,0,0-.05-.74v-.12c0-.13.09-.17.2-.17s.71.05.94.08.3,0,.3.17-.08.12-.19.19-.16.27-.15.59S187.7,22.79,188,22.79Zm-3.56,3.62c-.13,0-.23-.15-.44-.47s-.36-.56-.7-1a.51.51,0,0,1-.13-.27c0-.23.44-.52.66-.52s.62.63.75.82a3.69,3.69,0,0,1,.54.93C185.06,26.16,184.62,26.41,184.39,26.41Z"/><path class="cls-2" d="M194.58,17.79c.27,0,.38-.11.38-.38V17a7.64,7.64,0,0,0,0-.79s0-.09,0-.13.09-.17.22-.17.75.05.94.07.3,0,.3.16-.07.12-.19.2-.16.27-.16.59v.48c0,.26.11.36.36.36h.77c.26,0,.36-.11.36-.36V17a7.63,7.63,0,0,0,0-.79s0-.08,0-.12.08-.19.21-.19.52,0,.77.05.47,0,.47.19-.05.13-.16.2-.19.27-.19,1c0,.27.11.38.38.38h1.47c.5,0,.71.11.71.65,0,.34,0,.66,0,1v3.87c0,.26.11.36.38.36h.94c.28,0,.3.12.3.51s0,.52-.3.52l-1.61,0h-8l-1.61,0c-.28,0-.3-.15-.3-.52s0-.51.3-.51h.93c.27,0,.38-.09.38-.36V19.42c0-.32,0-.65,0-1,0-.56.19-.69.71-.69h1.44Zm1,8h-.16a.33.33,0,0,0-.21.11,10.93,10.93,0,0,1-3.15,1.8,1.53,1.53,0,0,1-.48.13c-.3,0-.6-.58-.6-.71s.21-.2.47-.28A8.7,8.7,0,0,0,194.64,25c.07-.05.15-.13.23-.13a2.41,2.41,0,0,1,.89.74A.14.14,0,0,1,195.61,25.78Zm-1-5.07a.38.38,0,0,0,.38-.38V19.17a.38.38,0,0,0-.38-.38h-.77a.38.38,0,0,0-.38.38v1.17a.38.38,0,0,0,.38.38Zm-1.14,2.58a.38.38,0,0,0,.38.38h.77a.38.38,0,0,0,.38-.38V22a.38.38,0,0,0-.38-.38h-.77a.38.38,0,0,0-.38.38Zm4-4.13a.36.36,0,0,0-.36-.38h-.75a.37.37,0,0,0-.38.38v1.17a.36.36,0,0,0,.36.38h.77a.36.36,0,0,0,.36-.38Zm0,2.88a.36.36,0,0,0-.36-.38h-.75A.37.37,0,0,0,196,22v1.25a.36.36,0,0,0,.36.38h.77a.36.36,0,0,0,.36-.38Zm4.36,5.82a11.07,11.07,0,0,1-2.27-1.12c-.26-.16-1.61-1.08-1.61-1.32a1,1,0,0,1,.65-.58.42.42,0,0,1,.31.19,11.75,11.75,0,0,0,3.28,1.86c.09,0,.26.12.26.24S202.15,27.86,201.86,27.86ZM200,19.17a.39.39,0,0,0-.38-.38h-.79a.38.38,0,0,0-.38.38v1.17a.38.38,0,0,0,.38.38h.79a.39.39,0,0,0,.38-.38ZM200,22a.38.38,0,0,0-.38-.38h-.79a.38.38,0,0,0-.38.38v1.25a.38.38,0,0,0,.38.38h.79a.38.38,0,0,0,.38-.38Z"/><path class="cls-2" d="M209.05,17.08c.11,0,.34.08.34.23a.27.27,0,0,1-.11.19c-.23.19-.27.46-.34.93,0,.19-.05.4-.11.65a.56.56,0,0,0,0,.15.23.23,0,0,0,.24.24h.74c1.37,0,1.88.83,1.88,2.11a9.8,9.8,0,0,1-.78,4.09,2.65,2.65,0,0,1-2.43,1.41.51.51,0,0,1-.55-.28,1.87,1.87,0,0,1-.21-.77c0-.09,0-.17.15-.17s.36.07.66.07A1.4,1.4,0,0,0,210,25a8.07,8.07,0,0,0,.6-3.09c0-.78-.05-1.41-1-1.41s-1,.17-1.12.47a16,16,0,0,1-2.2,4.84,13.84,13.84,0,0,1-.89,1.2.32.32,0,0,1-.23.12c-.2,0-.85-.4-.85-.66s.11-.22.19-.3a11.47,11.47,0,0,0,2.49-4,11,11,0,0,0,.34-1.09.15.15,0,0,0-.16-.16,14,14,0,0,0-1.87.57.62.62,0,0,1-.15,0c-.27,0-.5-1-.5-1.12s.21-.17.35-.19c.6-.05,1.67-.32,2.33-.44.42-.08.4-.24.46-.66a11.44,11.44,0,0,0,.13-1.52,3,3,0,0,0,0-.48V17c0-.09,0-.17.13-.17S208.86,17,209.05,17.08Zm5.59,4.52c0,.23-.64.62-.89.62s-.23-.15-.28-.27a9.45,9.45,0,0,0-1.75-2.82.27.27,0,0,1-.12-.21c0-.2.58-.55.77-.55C212.84,18.36,214.64,21.26,214.64,21.6Zm-.6-4c.11.11.44.47.44.58s-.39.54-.56.54-.15-.09-.19-.15c-.31-.36-.62-.7-1-1,0,0-.12-.11-.12-.17s.42-.5.56-.5S213.92,17.51,214,17.63Zm1.69-.35c0,.19-.4.55-.58.55s-.13-.09-.19-.15c-.31-.38-.59-.67-.94-1,0,0-.12-.11-.12-.17s.42-.5.55-.5A5.59,5.59,0,0,1,215.73,17.28Z"/><path class="cls-2" d="M216.79,20.21c.54-.13,1.16-.36,1.68-.55a15.27,15.27,0,0,1,5-1.24,3.16,3.16,0,0,1,3.4,3.23c0,2-1.65,3.44-3.39,4.17a10.64,10.64,0,0,1-2.58.69c-.43,0-.63-.86-.63-1s.28-.23.44-.24a7.94,7.94,0,0,0,2.76-.75,3.44,3.44,0,0,0,2.19-2.89,2,2,0,0,0-1-1.8,2.41,2.41,0,0,0-1.22-.28c-1.88,0-4.09,1-5.75,1.84a.71.71,0,0,1-.32.11c-.34,0-.83-.75-.83-1.06S216.66,20.24,216.79,20.21Z"/><path class="cls-2" d="M230.78,18.74c.09,0,.26.07.26.19s-.05.13-.13.19-.17.32-.21.56a8.49,8.49,0,0,0-.09,1.3,8.27,8.27,0,0,0,.47,3c.19.44.7,1.3,1.24,1.3s.83-.63,1-.94c.07-.12.17-.34.34-.34s.75.44.75.64-.75,1.09-1,1.3a1.5,1.5,0,0,1-1.13.59,2.45,2.45,0,0,1-1.88-1.29,8.6,8.6,0,0,1-1-4.64c0-.43,0-1.55.07-2,0-.12.05-.19.17-.19A9.26,9.26,0,0,1,230.78,18.74Zm5.7-.19a4.2,4.2,0,0,1,1.73,1.59,7.1,7.1,0,0,1,1,2.69,2.2,2.2,0,0,1,0,.42.27.27,0,0,1-.2.31,2,2,0,0,1-.65.12c-.39,0-.38-.17-.4-.43a5.15,5.15,0,0,0-2-3.83.24.24,0,0,1-.11-.2A.93.93,0,0,1,236.48,18.55Z"/><path class="cls-2" d="M241.54,18.48c1.92-.12,3.83-.32,5.74-.55,1-.11,2.14-.24,3.06-.4l.19,0c.16,0,.2.15.23.28a6.7,6.7,0,0,1,.08.73c0,.3-.2.3-.54.3a7.71,7.71,0,0,0-2.29.27,4.18,4.18,0,0,0-2.38,2,5.35,5.35,0,0,0-.73,2.59A1.93,1.93,0,0,0,246,25.56a3.93,3.93,0,0,0,1.53.23H248c.16,0,.31,0,.31.19a2.74,2.74,0,0,1-.19.87c-.07.17-.16.2-.36.2-2.16,0-4.09-.77-4.09-3.25a6.22,6.22,0,0,1,1.69-4.15c.21-.2.26-.26.26-.31s-.09-.12-.17-.12-1.81.21-2.11.27c-.7.11-1.41.22-2.1.39a.54.54,0,0,1-.2,0c-.28,0-.38-1-.38-1.13,0-.26.11-.27.55-.28Z"/><path class="cls-2" d="M258.83,17.88c0,.15-.2.13-.3.13-.26,0-.32.17-.51.27-.4.31-.78.62-1.16.93-.74.6-1.45,1.24-2.15,1.88a.86.86,0,0,0-.35.6c0,.44.69,1.16,1,1.47.89.91,1.86,1.76,2.81,2.61.16.13.52.42.52.62s-.63.86-.93.86c-.13,0-.28-.2-.38-.31-.51-.61-1.06-1.17-1.63-1.72-.71-.71-1.42-1.42-2.08-2.19a2,2,0,0,1-.62-1.36,1.52,1.52,0,0,1,.28-.9A15.16,15.16,0,0,1,255,19.26a20.45,20.45,0,0,0,2.49-2.33c0-.05.11-.13.19-.13s.35.22.51.38S258.83,17.74,258.83,17.88Z"/><path class="cls-2" d="M269,18.17c0,.08-.19.19-.26.23a16.59,16.59,0,0,0-2.23,2.12.35.35,0,0,0-.09.2.15.15,0,0,0,.16.13l.23,0a3.28,3.28,0,0,1,4,2.78c0,2.29-2.06,3.51-4.15,3.51a3.14,3.14,0,0,1-1.92-.54,1.5,1.5,0,0,1-.65-1.18,1.56,1.56,0,0,1,1.6-1.49c.85,0,1.94.67,1.94,1.61a1.65,1.65,0,0,1-.05.34.13.13,0,0,0,.13.13,2.49,2.49,0,0,0,1.95-2.33c0-1.37-1.18-1.94-2.41-1.94a4.13,4.13,0,0,0-3,1.29c-.5.48-1,1-1.43,1.53-.08.09-.13.17-.21.17-.27,0-.78-.58-.78-.77s.17-.27.27-.36a65.28,65.28,0,0,0,4.68-4.76c.07-.08.16-.16.16-.28s-.09-.15-.19-.15a1.72,1.72,0,0,0-.26,0c-.83.2-1.69.35-2.54.51a2.88,2.88,0,0,1-.34.05c-.3,0-.32-.75-.32-1s.07-.34.44-.34H264a13.06,13.06,0,0,0,3.39-.5,1.88,1.88,0,0,1,.47-.12C268.32,17.08,269,18,269,18.17Zm-3.25,6.61a.63.63,0,0,0-.66.61c0,.55.74.82,1.2.82.27,0,.38-.31.38-.54A.89.89,0,0,0,265.73,24.78Z"/><path class="cls-2" d="M277.08,26.2a.82.82,0,0,1-.86.86.72.72,0,0,1-.77-.73.83.83,0,0,1,.86-.89A.73.73,0,0,1,277.08,26.2Zm-1-1.91c-.3,0-.32-.07-.34-.42l-.08-3.51c0-.78-.09-2.55-.09-2.82s.08-.3.39-.3h.54c.31,0,.39.05.39.3s-.07,2.06-.09,2.86l-.07,3.47c0,.35,0,.42-.34.42Z"/><line class="cls-3" x1="55.11" y1="15.23" x2="62.65" y2="29.39"/><line class="cls-3" x1="289.21" y1="15.23" x2="281.67" y2="29.39"/></g></g></svg>