<svg xmlns="http://www.w3.org/2000/svg" xmlns:xlink="http://www.w3.org/1999/xlink" viewBox="0 0 346.05 417.56"><defs><style>.cls-1,.cls-3{fill:none;}.cls-2{clip-path:url(#clip-path);}.cls-3{stroke:#006cb7;stroke-miterlimit:10;stroke-width:7.18px;}.cls-4{fill:#006cb7;}.cls-5{fill:#fff;}.cls-6{fill:#faa634;}.cls-7{fill:#00aeef;}.cls-8{fill:#fd0;}.cls-9{fill:#d5a10f;}.cls-10{fill:#17479e;stroke:#fff;stroke-linecap:round;stroke-linejoin:round;stroke-width:3.36px;}</style><clipPath id="clip-path"><rect class="cls-1" x="15.94" y="97.37" width="311.56" height="311.57"/></clipPath></defs><title>Asset 19</title><g id="Layer_2" data-name="Layer 2"><g id="レイヤー_1" data-name="レイヤー 1"><g class="cls-2"><g class="cls-2"><image width="2222" height="2035" transform="translate(15.88) scale(0.15)" xlink:href="../ FAB_web/yoko3.jpg"/></g><rect class="cls-3" x="15.94" y="97.37" width="311.56" height="311.57"/><rect class="cls-4" y="278.91" width="339.61" height="138.65"/></g><path class="cls-5" d="M78.11,367.75a.72.72,0,0,0,.62-.72,3.74,3.74,0,0,0-.08-.54l-.16-.7c-.05-.32-.55-2.41-.55-2.52,0-.29.39-.37.86-.4,1-.08,2.1-.16,3.17-.16.23,0,.47,0,.47.19a.81.81,0,0,1-.13.4,1.1,1.1,0,0,0-.21.64c0,.35.26,1.61.34,2l.05.21a.85.85,0,0,0,.83.78h.1l1.64-.27c.49-.05,3.51-.56,3.64-.56.6,0,.62.59.75,1.23.05.43.26,1.58.26,2,0,.64-.39.7-2.08.91-.55.05-1.2.13-2,.27l-1.59.24a.72.72,0,0,0-.55.72v.13l.31,1.63a.79.79,0,0,0,.78.67h.1l3.48-.51c.52-.08,3.69-.62,3.82-.62.6,0,.68.59.75,1.37l.08.54a10.48,10.48,0,0,1,.13,1.23.69.69,0,0,1-.65.8l-3.61.48-3.33.48a.75.75,0,0,0-.6.67.69.69,0,0,0,0,.21l.18,1c.16.78,1,4.55,1,5s-.44.51-.78.59a17.9,17.9,0,0,1-2.57.48c-.47,0-.6-.37-.68-1.18-.16-1.37-.42-2.7-.65-4L81,379.19a.84.84,0,0,0-.81-.72h-.1l-4,.59c-.55.08-3.27.56-3.53.56-.49,0-.6-.32-.7-.75s-.34-2.25-.34-2.6c0-.54.36-.59,1.82-.75.57-.05,1.3-.13,2.23-.27l3.87-.56a.71.71,0,0,0,.6-.7.62.62,0,0,0,0-.19l-.29-1.55a.76.76,0,0,0-.75-.7h-.18l-1.77.27c-.55.08-3.48.56-3.74.56-.44,0-.6-.4-.68-.8s-.29-2-.29-2.44c0-.59.36-.64,1.95-.83.57-.08,1.35-.16,2.31-.32Z"/><path class="cls-5" d="M100.8,372.87a.7.7,0,0,0,.57-.67,1.52,1.52,0,0,0,0-.19l-.23-1.26c0-.11-.13-.67-.26-1.26s-.31-1.39-.31-1.45c0-.24.26-.29.44-.32a22.48,22.48,0,0,1,2.65-.21c.34,0,.75,0,.75.48a.77.77,0,0,1-.1.35.86.86,0,0,0-.08.35c0,.19.21,1.23.26,1.5l.23,1.18a.72.72,0,0,0,.68.59l.16,0,3.48-.72c.68-.13,1.38-.27,2-.46a1.2,1.2,0,0,1,.44-.08c.47,0,2.16,1.53,2.16,2.14,0,.27-.18.43-.36.62a18.52,18.52,0,0,0-1.92,2.71,27.59,27.59,0,0,1-1.61,2.28.8.8,0,0,1-.6.32c-.39,0-2.47-.86-2.47-1.47a1.39,1.39,0,0,1,.31-.62,7.06,7.06,0,0,0,1.09-1.5.31.31,0,0,0-.34-.3l-.16,0-1.38.29a.68.68,0,0,0-.55.72V376a1.27,1.27,0,0,0,0,.27l1,5.2a24.82,24.82,0,0,1,.55,2.76c0,.35-.21.43-.49.51a20.63,20.63,0,0,1-2.39.45c-.44,0-.49-.27-.73-1.66-.08-.37-.16-.83-.26-1.37l-1.09-5.41a.68.68,0,0,0-.68-.59l-.18,0-1.33.29c-.47.11-2.62.59-2.94.59s-.49-.35-.57-.64-.36-1.93-.36-2.2c0-.51.42-.59,1.9-.83l1.4-.27Z"/><path class="cls-5" d="M134.81,369.82c.05.08.08.19.16.29a4.34,4.34,0,0,1,.44,1.26c0,.64-2.11,2.71-2.65,3.24-4.18,4.21-8.37,6.62-13.56,9.19a1.15,1.15,0,0,0-.7.7.23.23,0,0,1-.21.16c-.21,0-.36-.24-.47-.43a23.43,23.43,0,0,1-1.22-2.06,6.85,6.85,0,0,1-.75-1.61c0-.24.29-.37.49-.43a27,27,0,0,0,6.65-2.95,35.11,35.11,0,0,0,9.38-8.39l.16-.21c.23-.35.44-.64.73-.64C133.77,367.94,134.57,369.39,134.81,369.82Zm-15.64-5.47a29.74,29.74,0,0,1,4.57,3.38.58.58,0,0,1,.23.48c0,.78-1.85,2.95-2.44,2.95-.23,0-.49-.24-.65-.4a26.65,26.65,0,0,0-4.37-3.13c-.21-.13-.47-.3-.47-.56,0-.54,1.56-3.08,2.31-3.08A2.58,2.58,0,0,1,119.16,364.35Z"/><path class="cls-5" d="M149.92,370.24a59.15,59.15,0,0,0,7.85,7.15.78.78,0,0,1,.44.62c0,.78-1.9,3.27-2.81,3.27-.49,0-1.48-.91-1.9-1.29-2.05-1.85-4.91-4.88-6.78-7-.23-.29-.57-.7-1-.7s-1,.51-1.3.8c-.7.64-3.38,3.32-4,4a1,1,0,0,1-.7.4c-.47,0-1.46-1.21-1.79-1.61a7.49,7.49,0,0,1-1.25-1.9c0-.27.6-.56.81-.67a36.5,36.5,0,0,0,5.61-4.53,4.65,4.65,0,0,1,2.7-1.15C147.45,367.67,148.73,369,149.92,370.24Zm7.3-1.31a2.72,2.72,0,1,1-2.73-2.79A2.75,2.75,0,0,1,157.22,368.93Zm-4.11,0a1.41,1.41,0,0,0,1.38,1.42,1.39,1.39,0,0,0,1.38-1.42,1.38,1.38,0,1,0-2.75,0Z"/><path class="cls-5" d="M176.54,371.53c1.53,0,3.2-.11,3.43-.11.68,0,.78.3.78,1.07v1.29c0,1.47,0,1.93-.86,1.93-1,0-2.21-.08-3.35-.08h-12c-1.14,0-2.36.08-3.33.08s-.88-.51-.88-1.93v-1.23c0-.8.08-1.12.75-1.12.36,0,1.82.11,3.46.11Z"/><path class="cls-5" d="M201.76,369.82c.05.08.08.19.16.29a4.34,4.34,0,0,1,.44,1.26c0,.64-2.1,2.71-2.65,3.24-4.18,4.21-8.37,6.62-13.56,9.19a1.15,1.15,0,0,0-.7.7.23.23,0,0,1-.21.16c-.21,0-.36-.24-.47-.43a23.31,23.31,0,0,1-1.22-2.06,6.83,6.83,0,0,1-.75-1.61c0-.24.29-.37.49-.43a27,27,0,0,0,6.65-2.95,35.11,35.11,0,0,0,9.38-8.39l.16-.21c.23-.35.44-.64.73-.64C200.72,367.94,201.52,369.39,201.76,369.82Zm-15.64-5.47a29.74,29.74,0,0,1,4.57,3.38.58.58,0,0,1,.23.48c0,.78-1.85,2.95-2.44,2.95a1.13,1.13,0,0,1-.65-.4,26.65,26.65,0,0,0-4.37-3.13c-.21-.13-.47-.3-.47-.56,0-.54,1.56-3.08,2.31-3.08A2.58,2.58,0,0,1,186.12,364.35Z"/><path class="cls-5" d="M214.62,380.53c1.35,0,4.16-.05,4.34-.05.55,0,.65.16.65.78v2.36c0,.62-.1.78-.65.78-.18,0-3-.05-4.34-.05h-3.72c-1.38,0-4.42.05-4.6.05-.55,0-.65-.16-.65-.78v-1.15a1.14,1.14,0,0,1,.65-1.26c.52-.37.94-.7,1.43-1.12,5-4.34,7.2-6.67,7.2-8.87,0-1.47-.94-2.49-2.81-2.49a5,5,0,0,0-3.69,1.88c-.23.27-.36.4-.52.4s-.29-.13-.52-.37l-1.92-2.12a.94.94,0,0,1-.31-.59c0-.16.1-.32.34-.56a9.74,9.74,0,0,1,7-2.92c4.47,0,7,2.63,7,6.06S216.8,377,213.43,380c-.21.19-.29.29-.29.38s.16.13.47.13Z"/><path class="cls-5" d="M240,374c0,6.65-3.85,10.5-8.68,10.5-4.68,0-8.29-3.37-8.29-9.73,0-5.71,2.94-10.34,8.68-10.34C236.33,364.48,240,367.7,240,374Zm-12.52.91c0,3.59,1.43,5.44,3.85,5.44s4.26-2.46,4.26-6.19-1.53-5.33-3.87-5.33C228.74,368.88,227.52,371.72,227.52,375Z"/><path class="cls-5" d="M251.67,379c0,1.42.08,4.5.08,4.69,0,.56-.16.67-.75.67h-3c-.6,0-.75-.11-.75-.67,0-.19.08-3.27.08-4.69v-8.57c0-.48-.08-.67-.31-.67a1.15,1.15,0,0,0-.42.11c-.88.32-1.66.64-2.36,1a1.14,1.14,0,0,1-.49.16c-.23,0-.34-.19-.47-.59l-.91-2.65a1.47,1.47,0,0,1-.1-.51c0-.24.16-.35.6-.48a45.86,45.86,0,0,0,4.91-1.82,3.35,3.35,0,0,1,1.53-.32H251c.6,0,.75.11.75.67,0,.19-.08,3.27-.08,4.69Z"/><path class="cls-5" d="M268.84,374c0,.13.16.24.42.4a5.25,5.25,0,0,1,3.07,4.69c0,3.43-3.14,5.52-8.34,5.52-4.47,0-7.82-2-7.82-5.28,0-1.85,1-3.48,3.12-4.66.26-.16.42-.27.42-.37s-.13-.24-.36-.4a5,5,0,0,1-2.31-4.23c0-2.79,2.55-5.33,7.54-5.33,4.5,0,7.09,2.25,7.09,5.09a5.18,5.18,0,0,1-2.44,4.18C269,373.81,268.84,373.94,268.84,374Zm-5,2.06a1.7,1.7,0,0,0-.73.19c-2,.86-2.68,1.69-2.68,2.73,0,1.29,1.61,2,3.72,2s3.74-.75,3.74-2.06-1.46-2-3.35-2.71A2,2,0,0,0,263.85,376.11Zm.57-8c-1.58,0-3,.64-3,1.8s1,1.71,2.62,2.38a1.53,1.53,0,0,0,.62.16,1.63,1.63,0,0,0,.75-.24c1.4-.72,1.87-1.47,1.87-2.3C267.33,368.69,266,368.07,264.42,368.07Z"/><path class="cls-6" d="M57.24,321c.33.08,1,.21,1,.66,0,.25-.17.37-.33.5-.79.58-.87,1.24-1.12,2.69-.08.5-.17,1.07-.29,1.78a1.79,1.79,0,0,0-.08.46.84.84,0,0,0,.91.87c.17,0,.33,0,.5,0a8.12,8.12,0,0,1,4.71.95c2.07,1.32,2.52,3.72,2.52,6,0,3.8-.66,9.39-2.48,12.7A8.45,8.45,0,0,1,54.8,352a1.75,1.75,0,0,1-1.9-1,9,9,0,0,1-.7-2.94c0-.41.12-.7.54-.7s1.12.13,1.94.13c2.23,0,3.27-.5,4.3-2.52a24.91,24.91,0,0,0,1.82-9.35c0-2.07-.12-3.76-2.6-3.76s-2.77.33-3.06,1.49a48.89,48.89,0,0,1-5.25,12.28,47.5,47.5,0,0,1-4.14,6A1.14,1.14,0,0,1,45,352c-.7,0-3.35-1.57-3.35-2.52a1.55,1.55,0,0,1,.58-1A33.92,33.92,0,0,0,49.59,337a22.67,22.67,0,0,0,1-3.1.5.5,0,0,0-.54-.54,33.77,33.77,0,0,0-4.71,1.45,3.39,3.39,0,0,1-.87.25c-1,0-1.74-4.05-1.74-4.26,0-.62.7-.62,1.24-.66a64.68,64.68,0,0,0,6.86-1.28c.83-.16,1.24-.37,1.36-1.24a38.13,38.13,0,0,0,.41-5.33c0-.46,0-.91,0-1.41,0-.33,0-.83.45-.83S56.62,320.8,57.24,321Zm18,13.4c0,.91-2.6,2.44-3.43,2.44-.54,0-.74-.54-1-1-1.65-3.56-2.77-5.91-5.54-8.85a1.07,1.07,0,0,1-.37-.7c0-.74,2.4-2.19,3.14-2.19C69.6,324.11,75.22,333.33,75.22,334.36Z"/><path class="cls-5" d="M91.6,319.72c.21.08.66.21.66.5s-.29.46-.66.74a7.2,7.2,0,0,0-.74,2.19,13.36,13.36,0,0,0-.45,1.86.48.48,0,0,0,.45.54,19.83,19.83,0,0,0,2.36-.62,1.48,1.48,0,0,1,.41-.08c.5,0,.54.74.62,1.24a19.72,19.72,0,0,1,.21,2.19c0,.91-.5,1-4.3,1.7-1.49.25-1.45.54-1.94,1.9a105.14,105.14,0,0,1-6.74,14.72c-.25.41-.37.58-.83.58-.91,0-3.68-1.2-3.68-2.07a4.57,4.57,0,0,1,.74-1.49,77.17,77.17,0,0,0,4.92-9.55,16.17,16.17,0,0,0,1-2.52A.56.56,0,0,0,83,331c-.33,0-3.52.41-4.47.41-.7,0-.87-.37-1-1.32-.08-.5-.29-2-.29-2.4s.29-.66.74-.66h1.9a36.58,36.58,0,0,0,4.26-.21c.54-.08.91-.12,1.24-.66.62-1,1.32-5.62,1.32-6.95,0-.29,0-.7.37-.7S90.94,319.52,91.6,319.72Zm6,12.32c.45.12.83.37.83.87,0,.08-.08,1.32-.08,2.19,0,1.2.21,7.15.41,8,.12.62.66.79,1.28,1l.41.17c1,.37,5.83,2.65,5.83,3.64,0,.66-1.53,3-2.56,3-.41,0-.79-.37-1.08-.58-.62-.46-2.65-1.9-3.31-1.9-.46,0-.62.58-.66,1-.5,3-2.94,4.05-5.75,4.05-3.35,0-7.28-1.78-7.28-5.62s3.6-5.13,6.86-5.13h1.08c.5,0,.87-.21.87-.7,0-1.32-.62-7.32-.74-8.93,0-.21,0-.37,0-.58,0-.66.37-.91,1-.91A17.26,17.26,0,0,1,97.56,332ZM89.83,347.8c0,1.28,1.65,1.94,2.73,1.94,1.49,0,2.15-.79,2.15-2.23,0-.83,0-1.28-2.11-1.28C91.6,346.23,89.83,346.48,89.83,347.8ZM107.9,332c0,1-2.36,2.85-3.1,2.85-.41,0-.7-.46-.91-.75a23.45,23.45,0,0,0-5.17-5.33c-.17-.12-.54-.37-.54-.66,0-.58,1.9-2.85,2.77-2.85C102,325.26,107.9,330.93,107.9,332Z"/><path class="cls-6" d="M119.08,327.83c.29.13.74.25.74.58s-.21.37-.37.46c-.66.41-.7.79-.87,1.61-.33,1.9-.58,3.85-1,5.75a6.34,6.34,0,0,0-.12.87c0,.25.12.5.41.5a.93.93,0,0,0,.54-.25c3.06-2.15,5.54-3.8,9.47-3.8,5.09,0,9,3.39,9,8.6,0,5.87-4.38,8.35-9.39,9.84a27.71,27.71,0,0,1-5.38,1.12c-.91,0-1.16-.37-1.53-1.16a8.62,8.62,0,0,1-.7-2.69c0-.66.5-.7,1-.74a27.56,27.56,0,0,0,5.5-.83c2.94-.74,6-2,6-5.54,0-2.85-2.32-4.38-5-4.38-4.34,0-8.73,3.64-11.33,6.9-.33.41-.66.87-1.24.87-.37,0-3.14-.41-3.14-1.61a6.36,6.36,0,0,1,.41-1.45c.37-1.32.7-2.69,1-4.05a66,66,0,0,0,1-9c0-.33,0-.62,0-.91,0-1.2,0-1.82.7-1.82A29.37,29.37,0,0,1,119.08,327.83Zm.74-8.93c.62,0,4,2.15,4.71,2.61s3,1.7,3,2.4-1.7,3.27-2.56,3.27c-.45,0-1-.58-1.32-.83a33.9,33.9,0,0,0-5.21-3.51c-.41-.25-1-.46-1-.91S118.83,318.9,119.82,318.9Z"/><path class="cls-5" d="M154.57,318.9c.17,0,.41,0,.62.08,1,.12,2.23.21,2.23.58a.63.63,0,0,1-.25.46c-.25.21-.58.54-.62,1.74,0,.91,0,1.78,0,2.65a1.09,1.09,0,0,0,1.2,1.2c.33,0,1.9-.12,2.4-.12,2-.08,6.45-.33,8.19-.33.66,0,1,.21,1,2.11,0,2.52-.5,2.52-.91,2.52-.58,0-3.68-.25-6-.25a47.78,47.78,0,0,0-5,.21,1.28,1.28,0,0,0-.79,1.32v1.45a3.5,3.5,0,0,0,.41,2.15,12.82,12.82,0,0,1,1.24,5.79c0,6.66-4.42,14.1-6.2,14.1-.54,0-3.85-1.07-3.85-1.82,0-.33.66-.91.91-1.16a13.47,13.47,0,0,0,3-4,1.57,1.57,0,0,0,.21-.62.32.32,0,0,0-.33-.29.71.71,0,0,0-.29,0,4,4,0,0,1-1,.21c-3.6,0-4.92-3.89-4.92-6.91,0-3.8,1.65-7.44,5.83-7.82.29,0,.5-.21.5-.45,0-1.61-.33-1.78-.79-1.78a10.28,10.28,0,0,0-1.08.13c-3,.29-8.23.74-11.08,1.32a3.7,3.7,0,0,1-.62.08c-.66,0-.74-.58-.87-1.12a24.31,24.31,0,0,1-.33-3c0-.83.41-.74,2.44-.83,1.12,0,10.83-.58,11.21-.66a1.21,1.21,0,0,0,.91-1.28,30.67,30.67,0,0,0-.45-5.13v-.33a.47.47,0,0,1,.54-.5C152.34,318.65,154.07,318.85,154.57,318.9Zm-4.8,20.8c0,1.24.29,3.51,1.94,3.51s2.15-2.11,2.15-3.39-.37-3.64-2.07-3.64S149.77,338.46,149.77,339.7ZM166.85,322c0,.58-1.45,1.86-2,1.86-.21,0-.41-.25-.54-.41-1.12-1.32-1.78-2.07-3-3.31-.12-.12-.37-.33-.37-.54,0-.5,1.53-1.7,2-1.7S166.85,321.5,166.85,322Zm5.71-1.41c0,.62-1.49,1.86-2,1.86-.29,0-.91-.87-1.16-1.16-.74-.87-1.53-1.74-2.32-2.56-.17-.12-.41-.37-.41-.58,0-.46,1.57-1.65,2-1.65S172.56,320.14,172.56,320.63Z"/><path class="cls-5" d="M189.28,320.18c0,.21-.17.34-.38.46-.59.29-.89.34-1.48,1.86-.38,1-.72,2.07-1.05,3.08a1.49,1.49,0,0,0-.13.59c0,.72.55.88,1.14,1,1.43.17,2.87.29,4.3.34.8,0,1.43,0,1.43.8a12.43,12.43,0,0,1-.46,2.74c-.17.59-.34.93-.93.93a53,53,0,0,1-5.74-.63,1.26,1.26,0,0,0-.38-.08c-.68,0-1,.46-1.14,1s-.72,3.17-.72,3.5c0,.89.89.93,1.48,1a38,38,0,0,0,3.8.17c1.14,0,1.27.29,1.27.72a9.32,9.32,0,0,1-.55,2.83c-.21.63-.46,1-1.18,1-1,0-3-.29-4-.42a4.12,4.12,0,0,0-.68-.08c-1.14,0-1.14,1.05-1.14,2.87,0,3.67,1.94,5.61,5.61,5.61,1.9,0,4.81-.51,6.12-2a4.24,4.24,0,0,0,.93-3,18.24,18.24,0,0,0-1.43-6.12,2.23,2.23,0,0,1-.17-.76c0-1,3.12-1.56,3.59-1.56.68,0,.8.68,1.14,1.6A23.14,23.14,0,0,1,200,345c0,6.54-6,8.82-11.64,8.82-6.37,0-10.13-3.67-10.13-10.08,0-1.05.17-2.66.17-3.08,0-.93-.72-1.18-1.69-1.48a13.92,13.92,0,0,1-2.49-1c-.46-.25-.8-.46-.8-1,0-.25.42-3.59,1.48-3.59a2.33,2.33,0,0,1,1.05.42,7.64,7.64,0,0,0,2.7,1.18c.72,0,.84-.59,1.1-1.81.08-.46.25-1,.38-1.64a8.68,8.68,0,0,0,.17-.93c0-.93-.76-1.18-1.35-1.39-3-1.14-3.8-1.52-3.8-2.28s.68-3.63,1.56-3.63a2.3,2.3,0,0,1,1,.46,25.94,25.94,0,0,0,2.87,1.48,1.28,1.28,0,0,0,.55.13c.67,0,.84-.55,1-1,.38-1.44,1.31-4.43,1.65-5.65.13-.46.21-.84.63-.84a15.83,15.83,0,0,1,2.11.68C187.13,318.92,189.28,319.51,189.28,320.18Z"/><path class="cls-6" d="M214,327.65c.29.13.76.25.76.59s-.21.38-.38.46c-.67.42-.72.8-.89,1.64-.34,1.94-.59,3.92-1,5.87a6.44,6.44,0,0,0-.13.89c0,.25.13.51.42.51a.94.94,0,0,0,.55-.25c3.12-2.19,5.65-3.88,9.66-3.88,5.19,0,9.2,3.46,9.2,8.78,0,6-4.47,8.52-9.58,10a28.13,28.13,0,0,1-5.48,1.14c-.93,0-1.18-.38-1.56-1.18a8.78,8.78,0,0,1-.72-2.74c0-.67.51-.72,1.05-.76a28.39,28.39,0,0,0,5.61-.84c3-.76,6.12-2.07,6.12-5.65,0-2.91-2.36-4.47-5.06-4.47-4.43,0-8.9,3.71-11.56,7-.34.42-.68.88-1.27.88-.38,0-3.21-.42-3.21-1.64a6.48,6.48,0,0,1,.42-1.48c.38-1.35.72-2.74,1-4.13a67.39,67.39,0,0,0,1-9.2c0-.34,0-.63,0-.93,0-1.22,0-1.86.72-1.86A29.86,29.86,0,0,1,214,327.65Zm.76-9.11c.63,0,4.05,2.19,4.81,2.66s3.08,1.73,3.08,2.45S220.88,327,220,327c-.46,0-1-.59-1.35-.84a34.54,34.54,0,0,0-5.32-3.59c-.42-.25-1-.46-1-.93S213.7,318.54,214.72,318.54Z"/><path class="cls-5" d="M257,345c-.08.68-.3,2.11-.3,2.74a1.21,1.21,0,0,0,1.39,1.39c2,0,4.56-1.48,6.24-2.53a3.35,3.35,0,0,1,1.18-.55c.59,0,.55,2.19.55,2.66,0,.76,0,2.11-.72,2.53a20.93,20.93,0,0,1-7.81,2.15c-2.87,0-5.19-1.9-5.19-4.85a21.78,21.78,0,0,1,.38-3.33,18.88,18.88,0,0,0,.25-2.66c0-1-.38-1.52-1.39-1.52a6.78,6.78,0,0,0-3.75,1.77c-2.11,1.81-6.16,7.17-8,9.58-.25.29-.76,1.1-1.18,1.1-.89,0-3.37-2.11-3.37-3.08,0-.51.67-1.1,1-1.43,4.81-4.77,9.16-10,13.67-15,.38-.42,1.52-1.56,1.52-2a.34.34,0,0,0-.38-.34,26,26,0,0,0-2.57.68c-1,.25-5.91,1.56-6.62,1.56s-.76-.34-1.14-1a3.24,3.24,0,0,0-.3-.51,6.38,6.38,0,0,1-1-2.36c0-.55.42-.63.89-.68a89.44,89.44,0,0,0,15.23-3,3.73,3.73,0,0,1,1.18-.3c1,0,3,3,3,3.59,0,.46-.55.8-.93,1.05a53.08,53.08,0,0,0-5.86,5.7c-.21.21-.55.55-.55.84a.42.42,0,0,0,.42.42c.3,0,.55,0,.84,0,1.14,0,3.67.72,3.67,4.22A20.1,20.1,0,0,1,257,345Zm-3.54-23.84c.42.13.8.29.8.8,0,.21-.59,3.59-1.56,3.59-.3,0-2.66-.84-4.47-1.48-.8-.29-1.52-.55-1.81-.63-1.48-.46-2.4-.63-2.4-1.31a11.19,11.19,0,0,1,.63-2.15c.42-1.14.59-1.31,1.05-1.31S252.54,320.82,253.46,321.11Z"/><path class="cls-6" d="M292.16,324.49c0,.29-.46.55-.93.88a40.86,40.86,0,0,0-6.12,5.65,1.26,1.26,0,0,0-.42.72c0,.34.34.55.72.55a2.54,2.54,0,0,0,.55-.08,8,8,0,0,1,1.73-.17,12.4,12.4,0,0,1,5.19,1.27,8.72,8.72,0,0,1,5,8.19c0,7.47-6.62,11.35-13.42,11.35-3.5,0-8.48-1.43-8.48-5.74a5.3,5.3,0,0,1,5.4-5.11,6.88,6.88,0,0,1,5.61,3,4.2,4.2,0,0,1,.76,2.7c0,.3.17.55.51.55,1.1,0,5.11-2.23,5.11-6.5,0-4.09-3.46-5.78-7.13-5.78a12.81,12.81,0,0,0-9.45,4.13c-1.65,1.6-3.16,3.33-4.68,5.06a.57.57,0,0,1-.46.3c-.89,0-3-2.36-3-3,0-.51.63-1,1-1.27a168.77,168.77,0,0,0,13.12-13.25c.34-.34,1.1-1.1,1.1-1.52s-.38-.51-.72-.51a9.87,9.87,0,0,0-1,.17c-1,.25-7,1.48-7.64,1.48-.93,0-1.05-3.16-1.05-3.88,0-1,0-1.05,1.31-1.05h1c2.7,0,8.23-.59,10.67-1.56a5.78,5.78,0,0,1,1.6-.46C289.72,320.57,292.16,323.77,292.16,324.49Zm-10.67,20.93a1.75,1.75,0,0,0-1.81,1.69c0,1.52,2,2.24,3.29,2.24.8,0,1.14-.76,1.14-1.43A2.58,2.58,0,0,0,281.49,345.42Z"/><path class="cls-5" d="M316.91,291.74a1.46,1.46,0,0,1,.38.33A.79.79,0,0,0,316.91,291.74Z"/><path class="cls-5" d="M317.28,293.29l.24.49c-.2-.55.16-1.18-.23-1.71C317.49,292.45,317.18,292.91,317.28,293.29Z"/><path class="cls-5" d="M317.42,306.25l-.16-2.11c0,.12,0,.23,0,.32v-3.62c.07-.36.16-1.07.34-2.57-.08-.94-.2-2.6-.34-3.59v-2.52a.32.32,0,0,0-.34-.3H165.61c-.14-.06-.95-.09-.15-.25a113.58,113.58,0,0,0,13,0,4.43,4.43,0,0,1-1.58.18,7.74,7.74,0,0,0,2.58-.25,70.49,70.49,0,0,1,8.26.12l-.7-.18c2-.3,5.11.22,8.69,0h-.08a27.44,27.44,0,0,1,4.24-.38c-.59.21-1.72.19-1.6.41l3.16-.28c.56.14,4.14,0,3,.22,1.88-.34,6,0,4.45-.5-9.27.17-22.07-.12-32.81.31l1.72-.19c-5.58.39-7.64-.42-12.13.34l.59-.39c-2.55-.11-4.89.57-7.55.15l.26.16c-.71,0-1-.07-1.7-.07l.28.07a29.12,29.12,0,0,1-4.85,0c-.13-.13.86-.05,1.43-.09-.84-.13-2.29.14-3.73.14-1.12-.11,0-.18.17-.24-4.29.18-6.25-.24-9.29.35-.29.1,1.12.19-.45.25l.84,0h-3.75c1.46-.1,3.44-.28,1.53-.49l-.58.13c-2.72.21-2-.24-4.11-.33-2.56.06-4,.6-6.31.47-1,0-.84-.13-.55-.24-2.28,0-23.72.37-25.29.42-.32-.54-67.57-.47-70.13-.34-1.28.06-2.66.14-4,.15-.34,0-.64,0-1,0-.71.12-.53.78-.57.91s0,.31,0,.46a2.55,2.55,0,0,1,.54-1.34c1.33,0,2.53.07,4.21,0l-.15.18H27.5a.32.32,0,0,0-.34.3v0a.7.7,0,0,0,0,.29c0,1.3-.07,2.76,0,4.23-.1-.78-.26-.17-.28-1.26.11-.92-.06-1.65,0-2.37a9.87,9.87,0,0,1-.14,1c.09,2.31,0,5.42.23,8.38-.3-1.58,0,2.78-.37,2.13.7.84-.32,14.41.57,14.93-.25,4,.06.16-.15,4.8-.1,0-.1-.79-.11-1.09-.19,1.83.37,2.82,0,4.33,0,3,.13,1.6.33,2v3.58c-.09.71-.23.85-.44,2.11.42.35.22,2.65.44,4.53a.41.41,0,0,1,0-.06v1.76a13.37,13.37,0,0,0-.26-1.88c0,3.56,0,7.91.24,11.8-.06,2.16-.22-1.11-.26.59a54.27,54.27,0,0,0,.28,6.8v2c0,.08,0,.17,0,.25l-.24-.64c.32,1.88-.06,6.81.1,10.39a3.26,3.26,0,0,1,.15-.47v.33a10.31,10.31,0,0,0,0,2.54v7.63a13.26,13.26,0,0,1-.29-2.15c.2,2.34,0,6.2.27,8.24l-.3-.8a13.07,13.07,0,0,0,.33,3.28v2.84L27,392c0,6.82,0-4.79-.16,1.23.42.62.32,4.77.32,4.77a.26.26,0,0,0,0,.13c-.06.25.63.44.69.5,4-.08-.27-.19-.1-.32h1.9c1,.06,1.62.2,1.51.29,3,0,.57-.09,1.76-.29h.3l1.92.41c9.76-.14,104.59-.42,113.69-.18l-.58-.23H160c.11.1.15.21-.35.29,1.12-.09,2.31,0,3.47-.07l-2.06-.13c.29,0,.59-.07.88-.09h1.39a4.56,4.56,0,0,1,1.24.21c.83-.07,1.08-.14,1-.21h4.83a5.87,5.87,0,0,1-1.43.21c-.67-.22-2.65.06-4.38,0,.21.09.21.21-.18.29,3.12,0,4.46-.23,8,0,1.1-.17.48-.32.07-.47h1.72c-.95.1-1.32.23-.53.43a17.52,17.52,0,0,0,2.7-.06c-2.33-.1-.78-.26-.07-.37h3.11s0,0-.06.06l-1.88.23c6,.12,14.31.08,21.27,0h-3a18.23,18.23,0,0,1,2.88-.25h5.72l-.15,0c.38,0,.78,0,1.19,0h2.59a3,3,0,0,1-1.17.11c2,.27,4.91.1,7.37.16a6.68,6.68,0,0,0,2.39-.26h2l-.26.2c3.49,0,8.18,0,11.75-.2h2.4l-.25,0,.64,0h5s0,.05-.13.09l-.56,0c1.25,0,71-.08,72.57-.13h7.35a.41.41,0,0,0,.2-.06h0v0a.29.29,0,0,0,.12-.23v-6a1.22,1.22,0,0,0,.06-.22c0-.46,0-1-.06-1.52V327c0-.11,0-.22.06-.34a.24.24,0,0,1-.06-.08v-6c0,.08,0,.15,0,.22.16-.71.06-7.5,0-8.62l0,.08v-.48l0,.4a1.55,1.55,0,0,0,0-.7v-3.78l0,.06,0-.23v-2ZM135.87,293.44l-1.23-.09h1.2A.14.14,0,0,1,135.87,293.44ZM34.37,396.59l-.15.18h-4l-.72-.06c-1.71-.33-1.22-2.23-1.29-3.55.1.76.26.17.27,1.23C28.13,397.55,31.59,396.37,34.37,396.59Zm115-.07c2-.57,1.51.13,4.73-.11-.85.23-2.25.23-2.8.35h-5.35c1.38,0,2.7-.16,4.11-.25Zm10.13.21a4.23,4.23,0,0,0,1.57-.41c1,.25,1.26-.12,2.78,0,.54.23-1.26.21-1.83.33l1.82-.16a4.82,4.82,0,0,1,2,.26h-5.88ZM28.17,381.35m0-37.62V342s.08-.08.13-.47A7,7,0,0,1,28.17,343.73ZM159.77,291.4c1,.25,1.3-.12,2.85,0,.55.23-1.29.21-1.88.33l1.86-.16a5.15,5.15,0,0,1,2,.26h-6l-.42,0A4.48,4.48,0,0,0,159.77,291.4Zm-11.27.2h-.72c2-.57,1.56.13,4.85-.12-.87.23-2.31.23-2.88.35h-5.5C145.67,291.8,147,291.69,148.49,291.6Zm-11.42.17-.09.08h-.58Zm-110,19.35c0-.72,0-1.64.09-2.29v2.9C27.13,311.52,27.1,311.31,27.07,311.12Zm.09,85.38v.27c0-.09,0-.18,0-.28Zm109.46,1.87-1.25-.09h1.22A.16.16,0,0,1,136.62,398.37Zm176.58-1.6H166.72c-.15-.05-.92-.09-.15-.26a108.06,108.06,0,0,0,12.64,0,4.13,4.13,0,0,1-1.54.19,7.32,7.32,0,0,0,2.52-.25,68,68,0,0,1,8.06.12l-.68-.18c2-.3,5,.22,8.48,0H196a27.35,27.35,0,0,1,4.14-.38c-.57.22-1.68.2-1.56.41l3.08-.28c.54.15,4,0,2.9.22,1.83-.34,5.83,0,4.34-.5-9,.17-21.53-.12-32,.31l1.68-.19c-5.45.39-7.46-.42-11.83.34l.58-.39c-2.49-.11-4.77.57-7.37.15l.25.17c-.69,0-1-.07-1.66-.08l.28.07a27.71,27.71,0,0,1-4.73,0c-.12-.13.84-.05,1.4-.08-.83-.13-2.24.13-3.63.13-1.09-.1,0-.18.16-.23-4.19.17-6.1-.24-9.07.35-.28.11,1.09.2-.44.25l.81,0h-3.64c1.42-.1,3.35-.29,1.48-.49l-.56.13c-2.66.21-1.93-.24-4-.33-2.5.06-3.94.6-6.16.47-1,0-.82-.12-.53-.23-2.23,0-23.65.36-25.17.42-.31-.54-67-.46-69.53-.34-2.18-.12-6.17.88-6.45-.8-.27-2,0-5.21-.31-8,.3,1.53,0,5.45-.23,1.65.07-2.11.22,1.08.27-.58a51.86,51.86,0,0,0-.28-6.62v-1.92c0-.08,0-.16,0-.25l.25.62c-.32-1.83.06-6.64-.11-10.13a2,2,0,0,1-.14.46v-.31a9.89,9.89,0,0,0,0-2.48v-7.43a12.42,12.42,0,0,1,.29,2.09c-.19-2.29,0-6.05-.26-8l.29.78a12.54,12.54,0,0,0-.32-3.21v-2.77l.16.24c0-6.66.36-14.48-.13-19.81a.1.1,0,0,0,0,0v-4.22c.15.16.33.5.41-1.3-.15-4.71-.26-18.47-.1-24.34-.42-.62,0-3.54-.32-4.59v-.18c.11-.18.26-.55.43-.59,1.73-1.89,0-.5-.36-.14v0a1.84,1.84,0,0,1,2.58-.79c2.92,0,.56-.1,1.73-.29h.28l1.87.41c9.51-.13,104.22-.42,113.09-.17l-.57-.24h11.4c.11.1.14.21-.35.29,1.09-.09,2.25,0,3.39-.07l-2-.13a8.63,8.63,0,0,1,.86-.1h1.35a4.18,4.18,0,0,1,1.21.21c.81-.08,1-.14,1-.21h4.72a5.46,5.46,0,0,1-1.39.21c-.66-.22-2.59.05-4.28,0,.21.1.21.2-.18.29,3.05,0,4.34-.22,7.78,0,1.07-.17.47-.32.07-.47h1.68c-.92.1-1.28.24-.51.43a16.33,16.33,0,0,0,2.63-.06c-2.28-.1-.76-.26-.07-.37h3s0,0-.06.07l-1.84.22c5.89.12,14,.07,20.75,0l-2.93,0a17.64,17.64,0,0,1,2.8-.26h5.58l-.14,0c.36,0,.76,0,1.16,0h2.53a2.6,2.6,0,0,1-1.14.11c1.94.27,4.79.11,7.18.16a6.24,6.24,0,0,0,2.34-.27h1.91l-.26.2c3.4,0,8,0,11.47-.2h2.35l-.25,0,.63,0h4.82s0,.06-.13.09l-.54,0c1.22,0,2.64-.08,3.95-.13h75.1l.07,0a1.79,1.79,0,0,1,1.93,1.1,1.35,1.35,0,0,1,.06.39v3.54a1,1,0,0,0-.07.2c0,.45,0,1,.07,1.48v79.59l0-.05,0,.22v1.91l-.17-.7.16,2.06c0-.12,0-.23,0-.31v3.53c-.08.35-.16,1-.35,2.51.07.92.2,2.53.35,3.5v2.91A1.61,1.61,0,0,1,313.19,396.77Z"/><path class="cls-5" d="M201.11,398.61c0-.09.5-.13.46-.21C199.83,398.33,200,398.45,201.11,398.61Z"/><path class="cls-5" d="M159.61,398.57l-.63.08Z"/><polygon class="cls-5" points="164.5 398.49 164.54 398.49 164.53 398.49 164.5 398.49"/><path class="cls-5" d="M26.83,293.08a.12.12,0,0,1,0-.07A.12.12,0,0,0,26.83,293.08Z"/><path class="cls-5" d="M212.26,291a12,12,0,0,0-2.15.09,1.07,1.07,0,0,0,.7.09l-1.17.25C210.94,291.43,212.54,291.12,212.26,291Z"/><path class="cls-5" d="M213.38,291.24a12.73,12.73,0,0,1,2-.12l-.16.15,2.29-.05-.73.17c3.13.26,2.19-.53,6-.37l0,.36a58.78,58.78,0,0,1,6.11.11s0-.18-.41-.11-1-.16-.69-.27c3.87-.28-.6.21,2.1.36,3.29-.24,77.78-.45,80-.16-1.89-.22.92-.45,3.18-.43,1,.13-.71.21-1.08.32,1,0,1.9.13,2.95.08-1.36-.2-.47-.47,2-.58-5.36-.23-77.73.44-82.14.39.47-.06.34-.15.54-.22-5.07,0-11.33.13-13.35-.06-1.7-.07-2,.3-4.17.39l-1-.25C215.67,291.1,212.12,290.83,213.38,291.24Z"/><path class="cls-5" d="M236.07,290.79a2.79,2.79,0,0,0-.76.08h1.76Z"/><polygon class="cls-5" points="314.77 395.26 314.86 393.7 314.61 393.22 314.77 395.26"/><path class="cls-5" d="M198.77,293.68c0-.08.49-.13.45-.22C197.52,293.4,197.72,293.52,198.77,293.68Z"/><path class="cls-5" d="M158.29,293.64l-.61.07Z"/><polygon class="cls-5" points="163.1 293.56 163.09 293.56 163.06 293.56 163.1 293.56"/><path class="cls-5" d="M210.13,396a1.13,1.13,0,0,0,.69.08l-1.13.25c1.25.05,2.82-.26,2.54-.42A11.44,11.44,0,0,0,210.13,396Z"/><path class="cls-5" d="M313.58,395.45c.07,0,.09-.1,0-.18A.36.36,0,0,1,313.58,395.45Z"/><path class="cls-5" d="M234.19,396c.46-.06.33-.15.53-.22-4.94,0-11,.12-13-.07-1.66-.07-2,.3-4.06.39l-.95-.25c-1.13.16-4.59-.11-3.37.3a12.1,12.1,0,0,1,2-.13l-.15.15,2.23-.05-.71.18c3,.26,2.14-.54,5.88-.37l0,.36a57.2,57.2,0,0,1,6,.12s0-.18-.41-.11-.95-.16-.67-.27c3.78-.28-.58.21,2.06.36a80.18,80.18,0,0,1,11.13-.17c-1.51-.22,69.32-.44,71.52-.42,1,.13-.69.21-1.05.32a9.86,9.86,0,0,0,2.6,0c-.79-.08-.15-.28,0-.68-.44.27-71.91.1-73.4.31C238.26,395.88,236.34,396,234.19,396Z"/><path class="cls-5" d="M235.46,395.71a2.5,2.5,0,0,0-.75.09h1.71Z"/><path class="cls-5" d="M310.66,394.34H312a.6.6,0,0,0,.64-.57V296.36a.6.6,0,0,0-.64-.56H31.55a.61.61,0,0,0-.63.56v97.41a.61.61,0,0,0,.63.57H310.66ZM32,392.56l0-95.28a1.37,1.37,0,0,1,1.35-1l277.06,0a1.29,1.29,0,0,1,1.08,1.21v95a1.32,1.32,0,0,1-1.39,1.24l-277.06,0A1.28,1.28,0,0,1,32,392.56Z"/><path class="cls-5" d="M297.3,303.19a26.67,26.67,0,0,0-6.71-5.91,37.77,37.77,0,0,1,8.69-5.05c1.74-.79,3.51-1.5,5.3-2.16a21.22,21.22,0,0,0-1.89-1,19.67,19.67,0,0,0-3.35-1.29,44.78,44.78,0,0,0-11.25-1.52,55.31,55.31,0,0,0-11.67.73v-1.7c0-1.46,0-2.93,0-4.38a7.1,7.1,0,0,0-.93-3.67,8.86,8.86,0,0,0-2.74-2.69c-3.41-2.29-7.89-2.7-12-3.11a95.06,95.06,0,0,0-10.59-.47c-2.67,0-5.34.2-8,.4-6.39.48-12.75,1.21-19.11,1.94-6,.7-12,1.45-17.95,2.06s-12,1-18,1.34c-7.77.43-15.53.55-23.31.24-6.66-.26-13.33-.73-20-1.29-5.63-.47-11.23-1.18-16.84-1.85-6.46-.75-12.92-1.52-19.4-2.11-2.89-.26-5.78-.49-8.67-.63-3.13-.14-6.24-.11-9.37,0a66.14,66.14,0,0,0-9.13,1,23.15,23.15,0,0,0-5.68,1.75c-2,.94-3.83,2-4.74,3.86s-.67,3.66-.67,5.5v4.08a54.73,54.73,0,0,0-8.91-.87,52.49,52.49,0,0,0-11.79,1,24.77,24.77,0,0,0-4.72,1.44,17.46,17.46,0,0,0-2.75,1.43c1.84.67,3.63,1.11,5.4,1.91a37.09,37.09,0,0,1,8.58,5c-.22.12-.42.39-.62.52a29.42,29.42,0,0,0-6.63,6.18,35.89,35.89,0,0,0-4.49,6.59l-.64,1.29a47.93,47.93,0,0,1,5-1.89,28.29,28.29,0,0,1,7.1-1.12,47.64,47.64,0,0,1,9.55.94c3.45.61,6.88,1.29,10.38,1.63a51.67,51.67,0,0,0,6,.27q1.58,0,3.15-.15a8.24,8.24,0,0,0,2.51-.53,4.19,4.19,0,0,0,2.58-2.53,2.17,2.17,0,0,0,.07-.27,13.2,13.2,0,0,0,.13-1.75v-8c3.05-.25,6.12-.34,9.17-.35,5.8-.06,11.59.2,17.35.63,7.47.55,14.91,1.37,22.31,2.36,3.56.47,7.11,1,10.7,1.27,3.41.29,6.83.51,10.25.67,4.64.22,9.3.38,13.94.39,3.57,0,7.15-.11,10.71-.24,6.71-.26,13.44-.65,20.08-1.53,7.66-1,15.31-2,23-2.65,5.88-.5,11.78-.84,17.69-.9,4.05,0,8.15,0,12.22.36v1.07c0,2.9.08,8.72.13,8.72a1.43,1.43,0,0,0,.06.26,4.17,4.17,0,0,0,2.52,2.51,7.74,7.74,0,0,0,2.45.54c1,.09,2.1.14,3.15.16a52.84,52.84,0,0,0,6-.25c3.5-.34,6.94-1,10.39-1.64a48.85,48.85,0,0,1,9.55-1,29.48,29.48,0,0,1,10.75,2.4l1.44.62c-.29-.59-.58-1.19-.9-1.78a38.58,38.58,0,0,0-4.79-6.75"/><path class="cls-4" d="M301.94,312.24a1.17,1.17,0,0,1-.44-.08l-1.43-.6a28.71,28.71,0,0,0-10.26-2.24,47.52,47.52,0,0,0-9.25.92l-1.43.25c-2.92.53-5.93,1.06-9,1.35a55.48,55.48,0,0,1-6.06.25c-1,0-2.12-.07-3.2-.15a9.19,9.19,0,0,1-2.78-.61,5.1,5.1,0,0,1-3.15-3.15,1.85,1.85,0,0,1-.09-.37h.05a75.86,75.86,0,0,1-.19-8.62v0c-2.64-.19-5.54-.28-8.82-.28l-2.17,0c-5.33,0-11,.33-17.47.87-7.64.63-15.14,1.57-22.79,2.57-7,.92-14.07,1.26-20,1.49-4.31.16-7.6.23-10.66.23-4.07,0-8.48-.12-13.89-.37-3.74-.18-7.07-.39-10.2-.65-3.41-.29-6.83-.74-10.14-1.17l-.54-.07C130,300.7,122.78,300,116,299.47c-6.35-.45-11.86-.66-17.12-.6-3,0-5.58.1-8,.26v6.79a6.88,6.88,0,0,1-.17,2l-.07.31a5.15,5.15,0,0,1-3.21,3.15,9.23,9.23,0,0,1-2.83.59c-1.13.08-2.18.14-3.19.15h-.69c-1.75,0-3.55-.09-5.36-.27-2.93-.28-5.84-.79-8.66-1.29L65,310.22a47.33,47.33,0,0,0-9.27-.9,27.31,27.31,0,0,0-6.75,1,45.32,45.32,0,0,0-4.84,1.79,1.14,1.14,0,0,1-1.24-.25,1.07,1.07,0,0,1-.19-1.22l.64-1.25a34.83,34.83,0,0,1,4.59-6.61A31.39,31.39,0,0,1,54.16,297,40.69,40.69,0,0,0,47,293.14,30,30,0,0,0,43.79,292c-.68-.21-1.36-.42-2.05-.67a1.09,1.09,0,0,1-.72-.9,1.07,1.07,0,0,1,.49-1,18.6,18.6,0,0,1,2.89-1.47,25.43,25.43,0,0,1,4.89-1.46,52.72,52.72,0,0,1,10.53-1l1.42,0a57.27,57.27,0,0,1,7.7.65v-3.44a10.48,10.48,0,0,1,.8-5c1-2.06,3.12-3.25,5.21-4.24a24,24,0,0,1,5.9-1.78,69.41,69.41,0,0,1,9.21-1q5-.24,9.4,0c2.52.12,5.27.31,8.65.61,6.41.57,12.88,1.31,19.15,2l2.72.31c4.62.54,9.39,1.09,14.09,1.48,7.52.62,13.8,1,19.77,1.25q10.82.41,23-.24c6.92-.37,12.59-.79,17.83-1.3,4.35-.42,8.77-.94,13-1.44l4.73-.55c6.71-.77,12.77-1.43,19-1.9,2.19-.16,5.08-.35,8-.39a100.15,100.15,0,0,1,10.63.46l.22,0c4.07.39,8.68.83,12.23,3.17a9.66,9.66,0,0,1,3,3,7.76,7.76,0,0,1,1.08,4.09c0,1,0,1.91,0,2.86v1.77a53.78,53.78,0,0,1,8.13-.54l2.37,0a45.35,45.35,0,0,1,11.44,1.52,20.58,20.58,0,0,1,3.53,1.33l.5.25a13.5,13.5,0,0,1,1.46.79,1.07,1.07,0,0,1,.5,1,1.11,1.11,0,0,1-.72.9c-1.9.68-3.6,1.36-5.18,2.06a41.79,41.79,0,0,0-7.15,3.82,30.72,30.72,0,0,1,5.58,5.12A38,38,0,0,1,302,308.9c.23.42.45.85.67,1.29l.24.48a1.06,1.06,0,0,1-.19,1.22A1.1,1.1,0,0,1,301.94,312.24Z"/><path class="cls-4" d="M55.51,307.59a51.63,51.63,0,0,1,9,1l1.74.32c2.8.5,5.68,1,8.55,1.31a49.42,49.42,0,0,0,5.18.27h.67c1,0,2-.06,3.08-.15a6.87,6.87,0,0,0,2.19-.45,3.06,3.06,0,0,0,1.92-1.8c0-.06,0-.1,0-.14l0-.14c0-.25.09-1,.09-1.44v-8a1.13,1.13,0,0,1,1-1.12c2.77-.22,5.79-.34,9.25-.36,5.34,0,11,.17,17.44.64,6.89.5,14.21,1.28,22.37,2.37l.54.08c3.31.44,6.73.9,10.12,1.19,3.12.28,6.45.49,10.19.67,5.42.25,9.83.38,13.9.38,3.06,0,6.35-.08,10.66-.24,5.95-.23,13-.59,20-1.51,7.74-1,15.33-2,23.08-2.66,6.53-.56,12.34-.86,17.77-.91h2.21c3.81,0,7.11.12,10.11.38a1.12,1.12,0,0,1,1,1.11v1.07c0,2.86.08,7.91.11,8.55l0,.14a3,3,0,0,0,1.88,1.78,6.48,6.48,0,0,0,2.11.46c1,.08,2.08.13,3.09.15a54.25,54.25,0,0,0,5.86-.24c3-.29,6-.84,8.85-1.36l1.45-.26a49.38,49.38,0,0,1,9.77-1,30.08,30.08,0,0,1,9.75,1.92,38.92,38.92,0,0,0-4.11-5.59,25.88,25.88,0,0,0-6.42-5.67,1.14,1.14,0,0,1-.56-.87,1.1,1.1,0,0,1,.39-1,38.56,38.56,0,0,1,8.95-5.22c1-.44,2-.87,3.06-1.3a18,18,0,0,0-2.86-1.07,42.71,42.71,0,0,0-11-1.47c-.77,0-1.55,0-2.33,0a47.2,47.2,0,0,0-9.09.74,1.15,1.15,0,0,1-.93-.24,1.1,1.1,0,0,1-.41-.86v-3.17c0-1,0-1.94,0-2.9a6,6,0,0,0-.77-3.1,7.84,7.84,0,0,0-2.41-2.35c-3.11-2.09-7.27-2.5-11.3-2.89l-.22,0a93.85,93.85,0,0,0-10.47-.46c-2.9,0-5.76.23-7.93.39-6.25.46-12.34,1.16-19.07,1.94l-4.77.56c-4.31.52-8.79,1-13.19,1.49-5.32.54-11.07,1-18.08,1.35q-12.4.69-23.41.25c-6.05-.24-12.41-.66-20-1.3-4.79-.4-9.61-1-14.28-1.54l-2.73-.33c-6.3-.74-12.81-1.51-19.24-2.1-3.37-.3-6.12-.5-8.62-.62-2.91-.14-6-.13-9.27,0a66.92,66.92,0,0,0-9,1,21.58,21.58,0,0,0-5.4,1.66c-2,1-3.51,1.92-4.23,3.34a9.15,9.15,0,0,0-.57,4.18v4.9a1.13,1.13,0,0,1-1.33,1.1,52.53,52.53,0,0,0-8.72-.86,52.31,52.31,0,0,0-11.54.95,23.32,23.32,0,0,0-4.49,1.37l-.37.16a27.35,27.35,0,0,1,3,1.14,38.12,38.12,0,0,1,8.84,5.17,1.13,1.13,0,0,1,.39.95,1.12,1.12,0,0,1-.55.88l-.11.11a2.92,2.92,0,0,1-.49.39,28.75,28.75,0,0,0-6.36,5.95,38,38,0,0,0-3.58,5c.74-.28,1.5-.54,2.28-.77a29.16,29.16,0,0,1,7.38-1.16Z"/><path class="cls-7" d="M87.91,299.36v6.16A3.7,3.7,0,0,0,87,305c-1.77-.7-3.66-.2-5.43.23a37.73,37.73,0,0,1-5.73,1,14.12,14.12,0,0,1-2.66,0,4.26,4.26,0,0,1-2.1-.64,1.55,1.55,0,0,1-.57-.71c0-.08-.09-.46-.14-.64a.8.8,0,0,0,.1-.15,2.61,2.61,0,0,1,.28-.38,6.55,6.55,0,0,1,1.38-1.19,23,23,0,0,1,7.88-3,65.11,65.11,0,0,1,7.88-1.21Z"/><path class="cls-4" d="M74.25,308c-.4,0-.81,0-1.21-.06a5.92,5.92,0,0,1-2.88-.93A3.11,3.11,0,0,1,69,305.55a3.58,3.58,0,0,1-.14-.61l-.06-.23a1.62,1.62,0,0,1,.22-1.26l.06-.12a7,7,0,0,1,.43-.58,8.54,8.54,0,0,1,1.7-1.48A24.75,24.75,0,0,1,79.68,298a65.31,65.31,0,0,1,8.08-1.25,1.62,1.62,0,0,1,1.24.41,1.64,1.64,0,0,1,.52,1.2v7.12a1.62,1.62,0,0,1-2.61,1.28,1.82,1.82,0,0,0-.47-.27c-1.13-.45-2.76-.12-4.3.25l-.15,0a39.65,39.65,0,0,1-6,1.07C75.35,308,74.79,308,74.25,308Z"/><path class="cls-5" d="M72.32,304.52a5,5,0,0,0,1,.19,13.45,13.45,0,0,0,2.37,0,36.85,36.85,0,0,0,5.49-1l.15,0a15.44,15.44,0,0,1,3.7-.59,7.52,7.52,0,0,1,1.21.1V300.2c-2.1.26-4,.58-5.91,1a21.74,21.74,0,0,0-7.32,2.75A7.25,7.25,0,0,0,72.32,304.52Z"/><path class="cls-7" d="M263.64,299.22a39.47,39.47,0,0,1,5.8,1.47,20.66,20.66,0,0,1,2.83,1.21,10.45,10.45,0,0,1,1.79,1.15,4,4,0,0,1,1.15,1.27c-.13,2.28-3.58,2.13-5.47,2a37.71,37.71,0,0,1-5.73-1c-1.77-.43-3.67-.92-5.44-.23a3.42,3.42,0,0,0-.86.5V301c0-.87-.09-1.59.64-2.08s3.32-.07,5.27.28"/><path class="cls-4" d="M271.45,308c-.72,0-1.41-.05-1.85-.1a38.66,38.66,0,0,1-6-1.06c-1.73-.43-3.32-.74-4.46-.29a1.79,1.79,0,0,0-.46.26,1.61,1.61,0,0,1-2.61-1.27v-4.71a3.43,3.43,0,0,1,1.34-3.2,4,4,0,0,1,2.14-.48,26.13,26.13,0,0,1,4.34.5,40.89,40.89,0,0,1,6,1.53,22.94,22.94,0,0,1,3.07,1.3,12,12,0,0,1,2.06,1.34,5.16,5.16,0,0,1,1.58,1.83,1.6,1.6,0,0,1,.15.78C276.76,305.75,276,308,271.45,308Z"/><path class="cls-5" d="M260.55,303.05a15.57,15.57,0,0,1,3.75.6,37.44,37.44,0,0,0,5.59,1c.45,0,1,.08,1.56.08a5.46,5.46,0,0,0,1.84-.24l-.23-.19a8.5,8.5,0,0,0-1.53-1,18.45,18.45,0,0,0-2.61-1.11,37.31,37.31,0,0,0-5.56-1.4,23.36,23.36,0,0,0-3.76-.46h-.25c0,.13,0,.28,0,.41v2.38A7.49,7.49,0,0,1,260.55,303.05Z"/><path class="cls-8" d="M87.28,309c-1,1.12-2.61,1.35-4.11,1.45a47.79,47.79,0,0,1-6.17,0,86.51,86.51,0,0,1-10.83-1.51,62.8,62.8,0,0,0-10-1.26,29.89,29.89,0,0,0-11.07,1.91c.09-.17.19-.34.3-.5a42.13,42.13,0,0,1,5.47-7,28.13,28.13,0,0,1,3.33-3A17.3,17.3,0,0,1,57,297.52c-3.69-3.45-8.61-5.75-13.47-7.67a20.69,20.69,0,0,1,5.26-1.74,51.22,51.22,0,0,1,12-.95,53.24,53.24,0,0,1,6.25.51l2.27.37v16.2h0a3,3,0,0,0,2.42,2.86,13.67,13.67,0,0,0,5.46.1A53.12,53.12,0,0,0,83,306c1.35-.34,3.38-.57,4.39.51a1.79,1.79,0,0,1-.08,2.45"/><path class="cls-9" d="M87.91,299.36v6.16A3.7,3.7,0,0,0,87,305c-1.77-.7-3.66-.2-5.43.23a37.73,37.73,0,0,1-5.73,1,14.12,14.12,0,0,1-2.66,0,4.26,4.26,0,0,1-2.1-.64,1.55,1.55,0,0,1-.57-.71c0-.08-.09-.46-.14-.64a.8.8,0,0,0,.1-.15,2.61,2.61,0,0,1,.28-.38,6.55,6.55,0,0,1,1.38-1.19,23,23,0,0,1,7.88-3,65.11,65.11,0,0,1,7.88-1.21Z"/><path class="cls-8" d="M229.86,297.53c-7.48.55-14.93,1.37-22.35,2.36-3.54.47-7.07,1-10.63,1.27-3.39.3-6.78.51-10.18.68-4.62.22-9.26.37-13.89.37h-2.13c-5.66-.08-11.34-.28-17-.66-3.39-.22-6.78-.5-10.15-.91-3.93-.47-7.84-1.06-11.79-1.53-6.91-.83-13.85-1.49-20.81-1.88A173.05,173.05,0,0,0,92.4,297a64.09,64.09,0,0,0-15.65,2.35,16.91,16.91,0,0,0-6.35,3.18V284.95c0-1.52-.05-3.06,0-4.57a5.59,5.59,0,0,1,1.52-3.63A10.8,10.8,0,0,1,74.19,275a17.6,17.6,0,0,1,4.72-1.83,48.58,48.58,0,0,1,8-1.14,95.5,95.5,0,0,1,10-.27c5.91.18,11.81.79,17.69,1.42,6.4.69,12.79,1.49,19.18,2.21,5.39.63,10.77,1.13,16.19,1.52,7.52.56,15.06,1,22.61,1s15.13-.42,22.68-1q8.12-.59,16.22-1.51c6.38-.73,12.75-1.53,19.14-2.21,5.9-.64,11.84-1.25,17.78-1.45a95.37,95.37,0,0,1,9.91.23,51,51,0,0,1,8.15,1.12,17.77,17.77,0,0,1,4.82,1.8,11.63,11.63,0,0,1,2.1,1.54,5.57,5.57,0,0,1,1.78,3.63c.13,1.54.06,3.12.06,4.66v17.83a10.57,10.57,0,0,0-1-.75,24.19,24.19,0,0,0-8.33-3.21,88.09,88.09,0,0,0-18.69-1.73c-5.8,0-11.61.23-17.38.65"/><path class="cls-9" d="M263.64,299.22a39.47,39.47,0,0,1,5.8,1.47,20.66,20.66,0,0,1,2.83,1.21,10.45,10.45,0,0,1,1.79,1.15,4,4,0,0,1,1.15,1.27c-.13,2.28-3.58,2.13-5.47,2a37.71,37.71,0,0,1-5.73-1c-1.77-.43-3.67-.92-5.44-.23a3.42,3.42,0,0,0-.86.5V301c0-.87-.09-1.59.64-2.08s3.32-.07,5.27.28"/><path class="cls-8" d="M292.19,307.73c-7-.49-13.72,1.68-20.57,2.44a51.93,51.93,0,0,1-5.91.35c-1,0-2.09,0-3.12-.11a9.08,9.08,0,0,1-2.66-.44,2.94,2.94,0,0,1-2.11-2.18c-.13-1.13.89-1.85,2.07-2a7.08,7.08,0,0,1,2.64.19c1,.24,1.95.48,2.93.7a29.77,29.77,0,0,0,5.71.74c1.6,0,3.58-.15,4.61-1.37a2.79,2.79,0,0,0,.51-.94c0-.1.19-.86.1-.86h0s0,0,0-.15v-6.22c0-3.28-.11-8.17.38-9.16.64-1,1.85-1,3-1.18a57.6,57.6,0,0,1,12.51-.12,27.62,27.62,0,0,1,9.89,2.44c-4.88,1.92-9.77,4.23-13.48,7.67l.28.13a21.9,21.9,0,0,1,6.33,5,40.27,40.27,0,0,1,5.26,6.92,29.87,29.87,0,0,0-8.35-1.84"/><path class="cls-10" d="M84.3,281.71c-.16,0-.24-.16-.33-.26a16.22,16.22,0,0,0-1.87-2.26.65.65,0,0,1-.23-.31c0-.26.64-.81.92-.84a.38.38,0,0,1,.31.19,13.2,13.2,0,0,1,1,1.06,9.25,9.25,0,0,1,1.21,1.64C85.3,281.2,84.5,281.71,84.3,281.71Zm-.75,9.62c0,.13,0,.32-.19.33a.24.24,0,0,1-.21-.09l-.66-1a.81.81,0,0,1-.16-.36c0-.19.15-.31.41-.47a10.41,10.41,0,0,0,1-.81.72.72,0,0,0,.25-.69l-.17-2.75c0-.31-.15-.43-.46-.41h-.07c-.25,0-.48.06-.73.08s-.34-.2-.37-.71-.08-.75.27-.77.52,0,.78,0h.16c.34,0,.67-.07,1-.09.53,0,.82.12.86.68s0,.86.07,1.28l.13,2c.06,1,.36,1.81,1.4,2.09a6,6,0,0,0,1.84.1l3.21-.17c1-.06,2-.13,3-.22.31,0,.79-.1,1.09-.12s.41.07.43.37c.07,1.11-.46,1.13-.77,1.15-1.61.15-7,.54-8.4.44a3.3,3.3,0,0,1-2.09-.93.35.35,0,0,0-.29-.14.36.36,0,0,0-.24.13c-.29.3-.59.59-.88.87A.53.53,0,0,0,83.55,291.33Zm4.38-11.56c.27,0,.36-.13.35-.4v0c0-.27-.14-.37-.39-.35l-.39,0-1.38.1c-.35,0-.34-.07-.37-.54s-.06-.56.29-.58.92,0,1.4-.06l.58,0,.93-.08c.39,0,.63,0,.66.45,0,.24,0,.5,0,.8l0,.44c0,.28.05.47.06.61a1,1,0,0,1,0,.28.19.19,0,0,0,.17.19c.41,0,.68.1.7.37a2.3,2.3,0,0,1-.48,1.44,1.94,1.94,0,0,1-1.23.36l-.81.05c-1,.05-1.86.1-1.92-.86,0-.18,0-.39,0-.58l0-.34c0-.28,0-.45-.05-.63,0-.47.18-.56.53-.58s.64,0,1,0Zm1.88,7.13c-.08,0-.17,0-.17.14s.12.16.19.23.54.43.55.56a.16.16,0,0,1-.16.15H90a.61.61,0,0,0-.21.11,11.74,11.74,0,0,1-2.58,1.4c-.34,0-.82-.65-.83-.86s.16-.2.27-.24a10.6,10.6,0,0,0,2.25-1.18.14.14,0,0,0,.07-.13c0-.08-.1-.1-.16-.1l-1,.06c-.52,0-1.06.1-1.59.13-.33,0-.32-.17-.35-.57s-.06-.61.27-.63c.53,0,1.06,0,1.6-.07l.34,0c.25,0,.35-.13.33-.38v-.09c0-.23-.12-.35-.36-.34-.41,0-.84.09-1.25.11s-.33-.19-.36-.59-.05-.61.27-.63.87,0,1.21,0,.35-.15.34-.41a3.26,3.26,0,0,1-.06-.35c0-.17.11-.21.25-.22s1,0,1.26,0,.41,0,.42.18-.1.15-.21.25a.27.27,0,0,0-.06.14c0,.19.2.23.38.24l.86-.05c.25,0,.4-.12.4-.39,0-.09-.06-.31-.07-.39s.09-.21.23-.22,1,0,1.28,0,.39,0,.4.18-.08.13-.17.23a.22.22,0,0,0-.07.16c0,.2.25.25.42.24.39,0,.89-.08,1.27-.11s.34.17.37.59.05.61-.28.63-.83,0-1.23,0H93.5c-.25,0-.37.13-.35.39v.09c0,.25.13.35.4.33l.55,0c.52,0,1-.1,1.58-.13.33,0,.34.16.37.58s0,.6-.29.62c-.53,0-1.06,0-1.58.07l-1,.07a.12.12,0,0,0-.11.12.13.13,0,0,0,.07.12,13.22,13.22,0,0,0,2.35.86c.32.07.35.12.36.24s-.28,1-.63,1-3.37-1.07-3.39-1.5c0-.15.22-.41.33-.52a.16.16,0,0,0,0-.11.12.12,0,0,0-.15-.11Zm-2-6.07c-.25,0-.33.11-.33.38s0,.52.65.48l.29,0c.42,0,.72-.06.77-.52v-.08c0-.22-.16-.29-.36-.3Zm2.48,4.08a.35.35,0,0,0-.36.38v.09a.35.35,0,0,0,.4.33l1-.06a.35.35,0,0,0,.35-.38v-.09a.35.35,0,0,0-.4-.34ZM93,279.45c.25,0,.35-.13.33-.4v0c0-.26-.13-.37-.38-.36l-.58,0-1.36.1c-.36,0-.36,0-.4-.54s0-.57.31-.59.92,0,1.38-.05l.78-.05.92-.07c.39,0,.63,0,.66.44,0,.25,0,.5,0,.8l0,.44c0,.31.08.48.08.68s0,.31.24.33c.41.05.67.12.68.35a2.84,2.84,0,0,1-.45,1.52,2,2,0,0,1-1.25.36l-1.07.07c-1,.06-1.88.12-1.94-.85,0-.19,0-.39,0-.58l0-.34c0-.28,0-.45-.05-.62,0-.47.17-.56.53-.58s.63,0,1,0Zm-.34,1.07c-.26,0-.35.12-.35.39,0,.43.05.51.66.47l.6,0c.57,0,.7-.11.76-.52v-.09c0-.22-.18-.27-.36-.29Z"/><path class="cls-10" d="M106,282.6a16.31,16.31,0,0,0,4.82,4.34c.14.07.31.16.3.32s-.79,1.45-1.21,1.43a4.59,4.59,0,0,1-1.21-.75,23.36,23.36,0,0,1-3.88-4c-.49-.6-.82-1-1.14-1s-1.17.71-1.52,1c-.64.53-1.48,1.21-2,1.78-.1.09-.24.26-.39.26-.3,0-1.25-1.34-1.25-1.61s.37-.3.5-.36a15.23,15.23,0,0,0,2.58-1.8c.61-.5,1.36-1.22,2.2-1.2C104.75,281,105.4,281.9,106,282.6Zm3.41-.66c0,.22-.57.7-.77.69s-.23-.19-.49-.48-.53-.6-.86-.93c-.06-.05-.12-.12-.12-.2s.61-.65.76-.65A5.93,5.93,0,0,1,109.37,281.95Zm1.78-1a1.28,1.28,0,0,1-.76.71c-.08,0-.15-.1-.2-.16a16.22,16.22,0,0,0-1.15-1.26c-.06,0-.13-.11-.13-.19s.6-.65.77-.65A6,6,0,0,1,111.15,280.92Z"/><path class="cls-10" d="M123.29,281c0,.11-.19.19-.37.3a15.46,15.46,0,0,0-2.42,1.92.47.47,0,0,0-.18.26c0,.12.11.21.25.22a1,1,0,0,0,.2,0,3,3,0,0,1,.65,0,4.63,4.63,0,0,1,1.89.62,3.23,3.23,0,0,1,1.62,3.17c-.21,2.76-2.77,4-5.28,3.83-1.3-.1-3.1-.77-3-2.36a2,2,0,0,1,2.14-1.74,2.58,2.58,0,0,1,2,1.27,1.59,1.59,0,0,1,.2,1c0,.11,0,.21.17.21a2.54,2.54,0,0,0,2.07-2.26c.11-1.52-1.12-2.24-2.48-2.34a4.76,4.76,0,0,0-3.61,1.27c-.66.55-1.26,1.15-1.87,1.74a.21.21,0,0,1-.18.1c-.33,0-1.06-1-1-1.21s.26-.34.41-.44a62.21,62.21,0,0,0,5.23-4.54c.13-.11.43-.37.45-.53s-.13-.2-.25-.21-.29,0-.38,0c-.39.06-2.62.35-2.87.34s-.3-1.2-.27-1.47,0-.39.51-.36l.37,0a14.46,14.46,0,0,0,4-.28,2.07,2.07,0,0,1,.6-.13C122.5,279.45,123.32,280.7,123.29,281Zm-4.53,7.45a.65.65,0,0,0-.72.58c0,.56.69.88,1.15.92.3,0,.45-.25.46-.5A1,1,0,0,0,118.76,288.41Z"/><path class="cls-10" d="M134.39,286c-.06,0-.11.06-.13.09a12.47,12.47,0,0,1-5.69,6.18,1.88,1.88,0,0,1-.85.33c-.39,0-1-.89-.94-1.27,0-.17.23-.25.43-.33a11.61,11.61,0,0,0,6.74-9.84c0-.45.06-.91.1-1.38,0-.27.11-.46.42-.43s1.07.19,1.32.26.44.08.42.26-.19.21-.31.24a.3.3,0,0,0-.18.25c0,.48-.11,1-.17,1.48,0,.11,0,.24,0,.34a13.44,13.44,0,0,0,.42,3.6,12.16,12.16,0,0,0,4.43,6.51c.15.11.35.25.34.41,0,.41-.77,1.12-1.14,1.09a6.48,6.48,0,0,1-1.61-1.3,13,13,0,0,1-3.49-6.37C134.49,286.07,134.47,286,134.39,286Z"/><path class="cls-10" d="M149.66,290.93a.4.4,0,0,0,.14.32,18.21,18.21,0,0,1,1.47,1.5c.1.12.24.26.22.42s-.5,1-.95,1c-.18,0-.31-.19-.42-.31-.48-.55-.93-1.1-1.44-1.61a.52.52,0,0,0-.29-.15.53.53,0,0,0-.33.11,15.55,15.55,0,0,1-3.3,1.82,1.86,1.86,0,0,1-.69.22c-.31,0-.79-.93-.76-1.2s.21-.22.41-.3l.13,0a13.65,13.65,0,0,0,3-1.51A.32.32,0,0,0,147,291a.3.3,0,0,0-.13-.26,14.21,14.21,0,0,0-1.54-1c-.18-.1-.48-.22-.46-.44s.67-.91.94-.88a10.87,10.87,0,0,1,2.19,1.35.59.59,0,0,0,.26.1.43.43,0,0,0,.34-.15,8,8,0,0,0,1-1.27c.06-.12.2-.37.35-.36a4,4,0,0,1,.87.5l.16.11c.15.09.48.28.46.44s-.14.14-.24.15-.24,0-.47.3a8.68,8.68,0,0,1-.92,1.11A.43.43,0,0,0,149.66,290.93Zm-1.77-7.54a.73.73,0,0,0-.7.24c-.35.35-2,1.94-2.44,1.9-.22,0-1-.57-.92-.88,0-.16.25-.27.4-.38a11.57,11.57,0,0,0,3.45-3.62c.06-.09.11-.16.22-.15a9.6,9.6,0,0,1,1.08.41c.31.12.56.21.55.37s-.18.15-.29.16a.48.48,0,0,0-.39.26,1.35,1.35,0,0,0-.11.15.29.29,0,0,0-.05.15c0,.16.1.2.22.23l6.28.62c.59.06,1.19.09,1.78.15.38,0,.36.18.31.71s-.06.65-.44.62c-.6-.06-1.18-.15-1.78-.21Zm-.94,4.07c-.64-.06-1.28-.08-1.92-.14-.34,0-.33-.21-.27-.74s.09-.7.43-.66c.64.06,1.26.17,1.9.24l6.39.64,1.11.08c.58.06.95.15.88.82,0,.48-.26,1.63-.35,2.56-.05.48-.26,3.5.29,3.55.39,0,.69-1.54.75-1.84s.11-.37.41-.34.86.24.82.64a8,8,0,0,1-.52,1.88c-.32.74-.85,1.43-1.75,1.34a1.59,1.59,0,0,1-1.37-1.21,13.91,13.91,0,0,1-.18-4.8c0-.31.06-.63.11-.92s-.08-.43-.37-.46Zm1.71-2-1.55-.12c-.35,0-.32-.26-.28-.64s.07-.62.41-.59l1.53.19,4.73.47c.52.05,1,.07,1.55.13.36,0,.32.23.28.65s-.06.61-.4.58c-.51-.05-1-.13-1.54-.19Z"/><path class="cls-10" d="M166.22,288.1a.37.37,0,0,0-.15.24.31.31,0,0,0,.13.25,6.36,6.36,0,0,1,2,5c-.09,2.3-1,2.74-3.15,2.65-.87,0-1.17-.14-1.13-1.17,0-.22,0-.48.33-.47l.2,0,.87.09c.87,0,1.27-.09,1.32-1.35a2.87,2.87,0,0,0,0-.31c0-.13-.07-.22-.19-.23a.29.29,0,0,0-.18.05,18.36,18.36,0,0,1-5,2.43,2,2,0,0,1-.56.12c-.34,0-.73-.67-.71-1s.26-.26.55-.34a17.91,17.91,0,0,0,5.44-2.54.43.43,0,0,0,.19-.32.68.68,0,0,0-.12-.35.3.3,0,0,0-.27-.2.48.48,0,0,0-.25.08,16.12,16.12,0,0,1-4.29,2.2,2.27,2.27,0,0,1-.54.13c-.31,0-.63-.7-.62-1s.21-.24.44-.31a18.19,18.19,0,0,0,4.35-2,.35.35,0,0,0,.19-.27.46.46,0,0,0-.11-.27.32.32,0,0,0-.26-.17.29.29,0,0,0-.16,0,20.48,20.48,0,0,1-3.57,1.5,2.5,2.5,0,0,1-.49.1c-.33,0-.65-.73-.63-1s.28-.26.5-.33a16.63,16.63,0,0,0,3.86-1.52.11.11,0,0,0,.08-.1c0-.08-.07-.11-.14-.11h-.31l-1.78,0c-.38,0-.34-.24-.34-.53s-.14-.32-.36-.33a2.55,2.55,0,0,1-.38,0c-.59,0-.86,0-.85-.39,0-.2,0-.42.06-.64l0-.63c0-.36,0-.64,0-.81,0-.57.46-.63,1.28-.59l1.38.07,2.66.11c.31,0,.44-.11.45-.4a4.08,4.08,0,0,0,0-.92s0-.09,0-.14c0-.21.16-.22.31-.21.31,0,1.19.14,1.52.19.11,0,.29,0,.29.2s-.1.14-.2.22-.2.32-.2.76.13.41.42.42l2.64.1c.55,0,1.1,0,1.66.05s1,.1.93.67c0,.17,0,.48,0,.83l0,.71c0,.2,0,.42,0,.64s-.26.33-.88.31H172c-.21,0-.35,0-.39.25s0,.48-.38.47c-.59,0-1.19-.08-1.77-.11h-.37c-.17,0-.33.05-.34.25a.5.5,0,0,0,0,.13c.15.49.32.89.52,1.38.08.11.15.22.31.23a.46.46,0,0,0,.24-.08,13.25,13.25,0,0,0,1.55-1.15c.11-.09.19-.2.31-.19s.38.29.9.92c.12.13.28.33.28.43a.17.17,0,0,1-.16.17l-.14,0-.14,0a.4.4,0,0,0-.18.05,19.94,19.94,0,0,1-1.74,1.12.46.46,0,0,0-.22.32.44.44,0,0,0,.09.24,13.4,13.4,0,0,0,2.38,2.74c.09.09.33.28.33.43,0,.31-.8.86-1.1.85s-1.63-1.48-1.9-1.81a16.3,16.3,0,0,1-2.83-5.65.48.48,0,0,0-.42-.39.72.72,0,0,0-.43.17Zm5.5-2.16c0-.3-.11-.45-.43-.46l-9-.36c-.31,0-.44.12-.45.42v.3c0,.24.16.27.36.3l1.74.1,5.61.22c.58,0,1.18,0,1.77,0,.19,0,.36,0,.37-.23Z"/><path class="cls-10" d="M183.27,284c0,.22.11.31.31.3l3.51-.11c.45,0,.89-.06,1.33-.07s.8,0,.82.62l0,1.39c0,.19,0,.37,0,.56,0,.34-.19.35-.76.36s-.78,0-.79-.3c0-.19,0-.39,0-.58v-.5c0-.3-.15-.42-.45-.41l-3.57.11c-.3,0-.43.14-.42.44l0,1.05c0,.52.07,1,.09,1.53s-.17.48-.83.5-.83,0-.84-.44,0-1,0-1.54l0-1c0-.3-.13-.42-.45-.41l-3.54.11c-.3,0-.42.14-.41.44l0,.45c0,.21,0,.39,0,.59s-.26.32-.77.33-.78,0-.79-.3c0-.16,0-.41,0-.58l0-1.38c0-.55.26-.62.75-.63s.91,0,1.37,0l3.47-.11c.23,0,.29-.1.29-.31V284c0-.22-.08-.3-.3-.29l-2.05.06c-.6,0-1.17.07-1.75.09-.34,0-.35-.12-.36-.57s0-.56.33-.57l1.75,0,6.36-.2,1.74-.07c.36,0,.36.1.38.55s0,.58-.34.59c-.58,0-1.16,0-1.74,0l-2.1.07c-.22,0-.31.09-.3.31ZM182,294.17c0-.3-.13-.42-.43-.41l-2.18.06c-.28,0-.46,0-.47.32s-.11.33-.77.35H178c-.31,0-.5,0-.51-.33s0-.73,0-1.11l-.07-2.25c0-.3,0-.59,0-.89,0-.47.14-.58.73-.6l1.5,0,6.22-.19,1.39-.06c.66,0,.85.05.86.54,0,.3,0,.61,0,.91l.05,1.65c0,.3,0,.59,0,.89,0,.48-.14.58-.91.6-.31,0-.75,0-1.32,0l-2,.06c-.26,0-.36.12-.36.38,0,.5.1.63.73.6l3.33-.1c.59,0,.78-.12,1-1.21,0-.29.06-.42.35-.43s1,.11,1,.48a4.6,4.6,0,0,1-.53,1.66c-.31.59-.8.65-1.42.67l-4.19.13c-1.23,0-1.71-.15-1.75-1.42Zm-3-7.14c-.36,0-.76.05-.9.06s-.27-.18-.28-.49,0-.5.25-.51.57,0,.91,0l.84,0c.34,0,.74-.06.91-.07s.27.17.28.49,0,.5-.25.51-.55,0-.91,0Zm0,1.58c-.35,0-.75.05-.87.06-.28,0-.29-.17-.3-.5s0-.5.25-.51.57,0,.89,0l.87,0c.33,0,.73-.05.87-.06s.29.16.3.49,0,.5-.27.51c-.12,0-.52,0-.87,0Zm2.81,1.95a.28.28,0,0,0-.31-.29l-2.47.08a.28.28,0,0,0-.29.31v.14a.31.31,0,0,0,.31.29l2.47-.08a.28.28,0,0,0,.29-.3ZM179.22,292a.3.3,0,0,0-.29.3v.16a.28.28,0,0,0,.31.29l2.47-.07a.27.27,0,0,0,.29-.31v-.16a.28.28,0,0,0-.31-.29Zm7-1.16a.3.3,0,0,0,.28-.31v-.14a.27.27,0,0,0-.31-.29l-2.49.08a.27.27,0,0,0-.29.3v.14c0,.17.12.29.31.28Zm-2.74,1.48a.27.27,0,0,0,.31.29l2.48-.08a.28.28,0,0,0,.29-.31v-.16a.31.31,0,0,0-.31-.29l-2.49.08a.29.29,0,0,0-.29.31Zm1.58-5.47-.84,0c-.28,0-.27-.15-.28-.49s0-.5.25-.51.52,0,.85,0l1,0c.33,0,.7-.05.85-.05s.27.16.28.49,0,.5-.25.51h-.84Zm.08,1.58c-.34,0-.67.05-.86.06s-.29-.16-.3-.49,0-.5.25-.51h.88l.94,0,.88,0c.28,0,.28.15.29.49s0,.5-.26.51-.53,0-.88,0Z"/><path class="cls-10" d="M200.36,283.68c.27,0,.64-.07.78-.08.31,0,.56.27.78.45s.56.49.58.69-.11.3-.18.92a9.48,9.48,0,0,1-3.75,7,14.82,14.82,0,0,1-2.91,1.79,2.41,2.41,0,0,1-.5.16c-.38,0-1-1-1-1.25s.13-.23.27-.27a10.93,10.93,0,0,0,3.77-2.29,7.34,7.34,0,0,0,2.29-4.7,3.85,3.85,0,0,0,0-.39c0-.29-.29-.31-.57-.29l-5.56.32c-.66,0-1.3.11-2,.14-.47,0-.48-.11-.52-.82s-.07-.89.39-.92c.67,0,1.34,0,2-.09Zm4.44-1.4a1.56,1.56,0,0,1-3.11.18,1.56,1.56,0,0,1,3.11-.18Zm-2.39.14a.84.84,0,0,0,1.67-.1.84.84,0,1,0-1.67.1Z"/><path class="cls-10" d="M210.11,290.19c0,.39.09.63.37.61a6.42,6.42,0,0,0,1.23-.61,21.64,21.64,0,0,0,5.62-4.65c.09-.1.21-.27.35-.28s.88,1,.9,1.27a.45.45,0,0,1-.15.29c-.31.38-.65.72-1,1.07a27.93,27.93,0,0,1-6.49,4.68,5.4,5.4,0,0,0-.52.3.88.88,0,0,1-.37.19,5.27,5.27,0,0,1-1.28-.46c-.2-.13-.23-.26-.26-.53,0-.53-.07-1.11-.12-1.69L207.8,284c0-.34-.06-.69-.1-.95,0-.11-.09-.43-.1-.51a.17.17,0,0,1,.16-.2l.33,0c.25,0,1,.06,1.28.1s.33,0,.35.17-.07.15-.12.21a.61.61,0,0,0-.1.5c0,.23,0,.48,0,.73Z"/><path class="cls-10" d="M226.72,288c.21,1.61.09,1.85,1.76,1.63,1.14-.16,2.71-.55,3.84-.79l.21,0c.3,0,.36.39.4.72s.12.77-.14,1a1.69,1.69,0,0,1-.53.17c-.39.06-2.31.42-2.61.46l-.45.06a15.12,15.12,0,0,1-2.33.19,1.73,1.73,0,0,1-1-.34c-.53-.42-.64-1.46-.73-2.08,0-.22,0-.42-.07-.64l-.25-1.86a.33.33,0,0,0-.46-.27l-.77.26c-.27.1-2,.69-2.09.71s-.25-.08-.34-.32a5.34,5.34,0,0,1-.32-1c0-.26.19-.34,1-.57l1.29-.41,1.09-.37a.46.46,0,0,0,.31-.5l-.19-1.4c-.07-.51-.14-1-.23-1.53,0-.22-.16-.74-.17-.78s0-.18.13-.19,1,0,1.24,0,.67,0,.7.14a1,1,0,0,1-.1.35.62.62,0,0,0-.06.47c0,.44.1.89.16,1.32l.15,1.08a.33.33,0,0,0,.45.27l3.24-1.1,1.73-.62a2.11,2.11,0,0,1,1.3.94.68.68,0,0,1-.12.34c-.21.29-.4.61-.6.93-.59.95-1.2,1.9-1.83,2.84-.12.19-.29.46-.53.5s-1.27-.41-1.31-.75c0-.11.13-.25.23-.38a12.11,12.11,0,0,0,1.49-2.08.1.1,0,0,0-.12-.09c-.1,0-.44.14-.54.16l-2.73,1a.47.47,0,0,0-.34.54Zm4.69-7.46c0,.23-.47.76-.67.78s-.17-.07-.2-.11a16.15,16.15,0,0,0-1.27-1.14c-.07-.06-.14-.11-.15-.2s.5-.7.67-.72A6,6,0,0,1,231.42,280.57Zm1.48-1.24c0,.23-.46.78-.68.8-.06,0-.15-.08-.3-.21a13.92,13.92,0,0,0-1.17-1c-.07-.06-.16-.11-.17-.19s.5-.72.69-.74A6.29,6.29,0,0,1,232.89,279.33Z"/><path class="cls-10" d="M240,280.2c.22.13,1,.61,1,.85s-.67,1.24-1,1.26a1.68,1.68,0,0,1-.65-.39,19.68,19.68,0,0,0-2.15-1.35c-.13-.07-.26-.14-.26-.29s.56-1.26.92-1.29A12.69,12.69,0,0,1,240,280.2Zm8.2,2.17c0,.26-.58.91-.77,1.12a27.14,27.14,0,0,1-8.19,6.33c-.5.28-.52.29-.63.57a.15.15,0,0,1-.15.1c-.17,0-.53-.6-.65-.78a4.36,4.36,0,0,1-.52-.92c0-.17.27-.22.47-.29a21.47,21.47,0,0,0,9.24-7.29.37.37,0,0,1,.25-.19C247.56,281,248.18,282.13,248.19,282.37Z"/><path class="cls-10" d="M254.37,282.07a10.72,10.72,0,0,1,2.17,1.53c.22.19,1.09.87,1.08,1.14s-.75,1.07-1.06,1.07a.55.55,0,0,1-.34-.21,24.38,24.38,0,0,0-2.25-1.86.29.29,0,0,0-.16-.06c-.14,0-.19.12-.19.24l-.05,4.28c0,.63,0,1.24,0,1.87s0,.81-1,.8c-.63,0-.9,0-.89-.54,0-.7.06-1.41.07-2.12l.11-8.93c0-.4,0-.83,0-1.21,0-.08,0-.22,0-.28s0-.24.21-.24.42.06.53.08c.7.1,1.35.17,1.34.39a.46.46,0,0,1-.08.21,1.25,1.25,0,0,0-.18.83c0,.23,0,.53,0,.93l0,2.35c0,.13.07.15.12.16a.19.19,0,0,0,.14-.06C254,282.29,254.2,282.07,254.37,282.07Z"/><path class="cls-10" d="M264.24,289.51a1.16,1.16,0,0,1-1.32,1.1,1,1,0,0,1-1-1.12,1.17,1.17,0,0,1,1.3-1.15A1,1,0,0,1,264.24,289.51ZM263,287.1c-.39,0-.46-.12-.45-.51l.22-4c0-.94.1-3,.13-3.35s.12-.32.46-.29l1.09.09c.34,0,.44.1.41.36s-.31,2.4-.43,3.42l-.41,3.85c0,.39-.13.46-.52.43Z"/><path class="cls-4" d="M84.3,281.71c-.16,0-.24-.16-.33-.26a16.22,16.22,0,0,0-1.87-2.26.65.65,0,0,1-.23-.31c0-.26.64-.81.92-.84a.38.38,0,0,1,.31.19,13.2,13.2,0,0,1,1,1.06,9.25,9.25,0,0,1,1.21,1.64C85.3,281.2,84.5,281.71,84.3,281.71Zm-.75,9.62c0,.13,0,.32-.19.33a.24.24,0,0,1-.21-.09l-.66-1a.81.81,0,0,1-.16-.36c0-.19.15-.31.41-.47a10.41,10.41,0,0,0,1-.81.72.72,0,0,0,.25-.69l-.17-2.75c0-.31-.15-.43-.46-.41h-.07c-.25,0-.48.06-.73.08s-.34-.2-.37-.71-.08-.75.27-.77.52,0,.78,0h.16c.34,0,.67-.07,1-.09.53,0,.82.12.86.68s0,.86.07,1.28l.13,2c.06,1,.36,1.81,1.4,2.09a6,6,0,0,0,1.84.1l3.21-.17c1-.06,2-.13,3-.22.31,0,.79-.1,1.09-.12s.41.07.43.37c.07,1.11-.46,1.13-.77,1.15-1.61.15-7,.54-8.4.44a3.3,3.3,0,0,1-2.09-.93.35.35,0,0,0-.29-.14.36.36,0,0,0-.24.13c-.29.3-.59.59-.88.87A.53.53,0,0,0,83.55,291.33Zm4.38-11.56c.27,0,.36-.13.35-.4v0c0-.27-.14-.37-.39-.35l-.39,0-1.38.1c-.35,0-.34-.07-.37-.54s-.06-.56.29-.58.92,0,1.4-.06l.58,0,.93-.08c.39,0,.63,0,.66.45,0,.24,0,.5,0,.8l0,.44c0,.28.05.47.06.61a1,1,0,0,1,0,.28.19.19,0,0,0,.17.19c.41,0,.68.1.7.37a2.3,2.3,0,0,1-.48,1.44,1.94,1.94,0,0,1-1.23.36l-.81.05c-1,.05-1.86.1-1.92-.86,0-.18,0-.39,0-.58l0-.34c0-.28,0-.45-.05-.63,0-.47.18-.56.53-.58s.64,0,1,0Zm1.88,7.13c-.08,0-.17,0-.17.14s.12.16.19.23.54.43.55.56a.16.16,0,0,1-.16.15H90a.61.61,0,0,0-.21.11,11.74,11.74,0,0,1-2.58,1.4c-.34,0-.82-.65-.83-.86s.16-.2.27-.24a10.6,10.6,0,0,0,2.25-1.18.14.14,0,0,0,.07-.13c0-.08-.1-.1-.16-.1l-1,.06c-.52,0-1.06.1-1.59.13-.33,0-.32-.17-.35-.57s-.06-.61.27-.63c.53,0,1.06,0,1.6-.07l.34,0c.25,0,.35-.13.33-.38v-.09c0-.23-.12-.35-.36-.34-.41,0-.84.09-1.25.11s-.33-.19-.36-.59-.05-.61.27-.63.87,0,1.21,0,.35-.15.34-.41a3.26,3.26,0,0,1-.06-.35c0-.17.11-.21.25-.22s1,0,1.26,0,.41,0,.42.18-.1.15-.21.25a.27.27,0,0,0-.06.14c0,.19.2.23.38.24l.86-.05c.25,0,.4-.12.4-.39,0-.09-.06-.31-.07-.39s.09-.21.23-.22,1,0,1.28,0,.39,0,.4.18-.08.13-.17.23a.22.22,0,0,0-.07.16c0,.2.25.25.42.24.39,0,.89-.08,1.27-.11s.34.17.37.59.05.61-.28.63-.83,0-1.23,0H93.5c-.25,0-.37.13-.35.39v.09c0,.25.13.35.4.33l.55,0c.52,0,1-.1,1.58-.13.33,0,.34.16.37.58s0,.6-.29.62c-.53,0-1.06,0-1.58.07l-1,.07a.12.12,0,0,0-.11.12.13.13,0,0,0,.07.12,13.22,13.22,0,0,0,2.35.86c.32.07.35.12.36.24s-.28,1-.63,1-3.37-1.07-3.39-1.5c0-.15.22-.41.33-.52a.16.16,0,0,0,0-.11.12.12,0,0,0-.15-.11Zm-2-6.07c-.25,0-.33.11-.33.38s0,.52.65.48l.29,0c.42,0,.72-.06.77-.52v-.08c0-.22-.16-.29-.36-.3Zm2.48,4.08a.35.35,0,0,0-.36.38v.09a.35.35,0,0,0,.4.33l1-.06a.35.35,0,0,0,.35-.38v-.09a.35.35,0,0,0-.4-.34ZM93,279.45c.25,0,.35-.13.33-.4v0c0-.26-.13-.37-.38-.36l-.58,0-1.36.1c-.36,0-.36,0-.4-.54s0-.57.31-.59.92,0,1.38-.05l.78-.05.92-.07c.39,0,.63,0,.66.44,0,.25,0,.5,0,.8l0,.44c0,.31.08.48.08.68s0,.31.24.33c.41.05.67.12.68.35a2.84,2.84,0,0,1-.45,1.52,2,2,0,0,1-1.25.36l-1.07.07c-1,.06-1.88.12-1.94-.85,0-.19,0-.39,0-.58l0-.34c0-.28,0-.45-.05-.62,0-.47.17-.56.53-.58s.63,0,1,0Zm-.34,1.07c-.26,0-.35.12-.35.39,0,.43.05.51.66.47l.6,0c.57,0,.7-.11.76-.52v-.09c0-.22-.18-.27-.36-.29Z"/><path class="cls-4" d="M106,282.6a16.31,16.31,0,0,0,4.82,4.34c.14.07.31.16.3.32s-.79,1.45-1.21,1.43a4.59,4.59,0,0,1-1.21-.75,23.36,23.36,0,0,1-3.88-4c-.49-.6-.82-1-1.14-1s-1.17.71-1.52,1c-.64.53-1.48,1.21-2,1.78-.1.09-.24.26-.39.26-.3,0-1.25-1.34-1.25-1.61s.37-.3.5-.36a15.23,15.23,0,0,0,2.58-1.8c.61-.5,1.36-1.22,2.2-1.2C104.75,281,105.4,281.9,106,282.6Zm3.41-.66c0,.22-.57.7-.77.69s-.23-.19-.49-.48-.53-.6-.86-.93c-.06-.05-.12-.12-.12-.2s.61-.65.76-.65A5.93,5.93,0,0,1,109.37,281.95Zm1.78-1a1.28,1.28,0,0,1-.76.71c-.08,0-.15-.1-.2-.16a16.22,16.22,0,0,0-1.15-1.26c-.06,0-.13-.11-.13-.19s.6-.65.77-.65A6,6,0,0,1,111.15,280.92Z"/><path class="cls-4" d="M123.29,281c0,.11-.19.19-.37.3a15.46,15.46,0,0,0-2.42,1.92.47.47,0,0,0-.18.26c0,.12.11.21.25.22a1,1,0,0,0,.2,0,3,3,0,0,1,.65,0,4.63,4.63,0,0,1,1.89.62,3.23,3.23,0,0,1,1.62,3.17c-.21,2.76-2.77,4-5.28,3.83-1.3-.1-3.1-.77-3-2.36a2,2,0,0,1,2.14-1.74,2.58,2.58,0,0,1,2,1.27,1.59,1.59,0,0,1,.2,1c0,.11,0,.21.17.21a2.54,2.54,0,0,0,2.07-2.26c.11-1.52-1.12-2.24-2.48-2.34a4.76,4.76,0,0,0-3.61,1.27c-.66.55-1.26,1.15-1.87,1.74a.21.21,0,0,1-.18.1c-.33,0-1.06-1-1-1.21s.26-.34.41-.44a62.21,62.21,0,0,0,5.23-4.54c.13-.11.43-.37.45-.53s-.13-.2-.25-.21-.29,0-.38,0c-.39.06-2.62.35-2.87.34s-.3-1.2-.27-1.47,0-.39.51-.36l.37,0a14.46,14.46,0,0,0,4-.28,2.07,2.07,0,0,1,.6-.13C122.5,279.45,123.32,280.7,123.29,281Zm-4.53,7.45a.65.65,0,0,0-.72.58c0,.56.69.88,1.15.92.3,0,.45-.25.46-.5A1,1,0,0,0,118.76,288.41Z"/><path class="cls-4" d="M134.39,286c-.06,0-.11.06-.13.09a12.47,12.47,0,0,1-5.69,6.18,1.88,1.88,0,0,1-.85.33c-.39,0-1-.89-.94-1.27,0-.17.23-.25.43-.33a11.61,11.61,0,0,0,6.74-9.84c0-.45.06-.91.1-1.38,0-.27.11-.46.42-.43s1.07.19,1.32.26.44.08.42.26-.19.21-.31.24a.3.3,0,0,0-.18.25c0,.48-.11,1-.17,1.48,0,.11,0,.24,0,.34a13.44,13.44,0,0,0,.42,3.6,12.16,12.16,0,0,0,4.43,6.51c.15.11.35.25.34.41,0,.41-.77,1.12-1.14,1.09a6.48,6.48,0,0,1-1.61-1.3,13,13,0,0,1-3.49-6.37C134.49,286.07,134.47,286,134.39,286Z"/><path class="cls-4" d="M149.66,290.93a.4.4,0,0,0,.14.32,18.21,18.21,0,0,1,1.47,1.5c.1.12.24.26.22.42s-.5,1-.95,1c-.18,0-.31-.19-.42-.31-.48-.55-.93-1.1-1.44-1.61a.52.52,0,0,0-.29-.15.53.53,0,0,0-.33.11,15.55,15.55,0,0,1-3.3,1.82,1.86,1.86,0,0,1-.69.22c-.31,0-.79-.93-.76-1.2s.21-.22.41-.3l.13,0a13.65,13.65,0,0,0,3-1.51A.32.32,0,0,0,147,291a.3.3,0,0,0-.13-.26,14.21,14.21,0,0,0-1.54-1c-.18-.1-.48-.22-.46-.44s.67-.91.94-.88a10.87,10.87,0,0,1,2.19,1.35.59.59,0,0,0,.26.1.43.43,0,0,0,.34-.15,8,8,0,0,0,1-1.27c.06-.12.2-.37.35-.36a4,4,0,0,1,.87.5l.16.11c.15.09.48.28.46.44s-.14.14-.24.15-.24,0-.47.3a8.68,8.68,0,0,1-.92,1.11A.43.43,0,0,0,149.66,290.93Zm-1.77-7.54a.73.73,0,0,0-.7.24c-.35.35-2,1.94-2.44,1.9-.22,0-1-.57-.92-.88,0-.16.25-.27.4-.38a11.57,11.57,0,0,0,3.45-3.62c.06-.09.11-.16.22-.15a9.6,9.6,0,0,1,1.08.41c.31.12.56.21.55.37s-.18.15-.29.16a.48.48,0,0,0-.39.26,1.35,1.35,0,0,0-.11.15.29.29,0,0,0-.05.15c0,.16.1.2.22.23l6.28.62c.59.06,1.19.09,1.78.15.38,0,.36.18.31.71s-.06.65-.44.62c-.6-.06-1.18-.15-1.78-.21Zm-.94,4.07c-.64-.06-1.28-.08-1.92-.14-.34,0-.33-.21-.27-.74s.09-.7.43-.66c.64.06,1.26.17,1.9.24l6.39.64,1.11.08c.58.06.95.15.88.82,0,.48-.26,1.63-.35,2.56-.05.48-.26,3.5.29,3.55.39,0,.69-1.54.75-1.84s.11-.37.41-.34.86.24.82.64a8,8,0,0,1-.52,1.88c-.32.74-.85,1.43-1.75,1.34a1.59,1.59,0,0,1-1.37-1.21,13.91,13.91,0,0,1-.18-4.8c0-.31.06-.63.11-.92s-.08-.43-.37-.46Zm1.71-2-1.55-.12c-.35,0-.32-.26-.28-.64s.07-.62.41-.59l1.53.19,4.73.47c.52.05,1,.07,1.55.13.36,0,.32.23.28.65s-.06.61-.4.58c-.51-.05-1-.13-1.54-.19Z"/><path class="cls-4" d="M166.22,288.1a.37.37,0,0,0-.15.24.31.31,0,0,0,.13.25,6.36,6.36,0,0,1,2,5c-.09,2.3-1,2.74-3.15,2.65-.87,0-1.17-.14-1.13-1.17,0-.22,0-.48.33-.47l.2,0,.87.09c.87,0,1.27-.09,1.32-1.35a2.87,2.87,0,0,0,0-.31c0-.13-.07-.22-.19-.23a.29.29,0,0,0-.18.05,18.36,18.36,0,0,1-5,2.43,2,2,0,0,1-.56.12c-.34,0-.73-.67-.71-1s.26-.26.55-.34a17.91,17.91,0,0,0,5.44-2.54.43.43,0,0,0,.19-.32.68.68,0,0,0-.12-.35.3.3,0,0,0-.27-.2.48.48,0,0,0-.25.08,16.12,16.12,0,0,1-4.29,2.2,2.27,2.27,0,0,1-.54.13c-.31,0-.63-.7-.62-1s.21-.24.44-.31a18.19,18.19,0,0,0,4.35-2,.35.35,0,0,0,.19-.27.46.46,0,0,0-.11-.27.32.32,0,0,0-.26-.17.29.29,0,0,0-.16,0,20.48,20.48,0,0,1-3.57,1.5,2.5,2.5,0,0,1-.49.1c-.33,0-.65-.73-.63-1s.28-.26.5-.33a16.63,16.63,0,0,0,3.86-1.52.11.11,0,0,0,.08-.1c0-.08-.07-.11-.14-.11h-.31l-1.78,0c-.38,0-.34-.24-.34-.53s-.14-.32-.36-.33a2.55,2.55,0,0,1-.38,0c-.59,0-.86,0-.85-.39,0-.2,0-.42.06-.64l0-.63c0-.36,0-.64,0-.81,0-.57.46-.63,1.28-.59l1.38.07,2.66.11c.31,0,.44-.11.45-.4a4.08,4.08,0,0,0,0-.92s0-.09,0-.14c0-.21.16-.22.31-.21.31,0,1.19.14,1.52.19.11,0,.29,0,.29.2s-.1.14-.2.22-.2.32-.2.76.13.41.42.42l2.64.1c.55,0,1.1,0,1.66.05s1,.1.93.67c0,.17,0,.48,0,.83l0,.71c0,.2,0,.42,0,.64s-.26.33-.88.31H172c-.21,0-.35,0-.39.25s0,.48-.38.47c-.59,0-1.19-.08-1.77-.11h-.37c-.17,0-.33.05-.34.25a.5.5,0,0,0,0,.13c.15.49.32.89.52,1.38.08.11.15.22.31.23a.46.46,0,0,0,.24-.08,13.25,13.25,0,0,0,1.55-1.15c.11-.09.19-.2.31-.19s.38.29.9.92c.12.13.28.33.28.43a.17.17,0,0,1-.16.17l-.14,0-.14,0a.4.4,0,0,0-.18.05,19.94,19.94,0,0,1-1.74,1.12.46.46,0,0,0-.22.32.44.44,0,0,0,.09.24,13.4,13.4,0,0,0,2.38,2.74c.09.09.33.28.33.43,0,.31-.8.86-1.1.85s-1.63-1.48-1.9-1.81a16.3,16.3,0,0,1-2.83-5.65.48.48,0,0,0-.42-.39.72.72,0,0,0-.43.17Zm5.5-2.16c0-.3-.11-.45-.43-.46l-9-.36c-.31,0-.44.12-.45.42v.3c0,.24.16.27.36.3l1.74.1,5.61.22c.58,0,1.18,0,1.77,0,.19,0,.36,0,.37-.23Z"/><path class="cls-4" d="M183.27,284c0,.22.11.31.31.3l3.51-.11c.45,0,.89-.06,1.33-.07s.8,0,.82.62l0,1.39c0,.19,0,.37,0,.56,0,.34-.19.35-.76.36s-.78,0-.79-.3c0-.19,0-.39,0-.58v-.5c0-.3-.15-.42-.45-.41l-3.57.11c-.3,0-.43.14-.42.44l0,1.05c0,.52.07,1,.09,1.53s-.17.48-.83.5-.83,0-.84-.44,0-1,0-1.54l0-1c0-.3-.13-.42-.45-.41l-3.54.11c-.3,0-.42.14-.41.44l0,.45c0,.21,0,.39,0,.59s-.26.32-.77.33-.78,0-.79-.3c0-.16,0-.41,0-.58l0-1.38c0-.55.26-.62.75-.63s.91,0,1.37,0l3.47-.11c.23,0,.29-.1.29-.31V284c0-.22-.08-.3-.3-.29l-2.05.06c-.6,0-1.17.07-1.75.09-.34,0-.35-.12-.36-.57s0-.56.33-.57l1.75,0,6.36-.2,1.74-.07c.36,0,.36.1.38.55s0,.58-.34.59c-.58,0-1.16,0-1.74,0l-2.1.07c-.22,0-.31.09-.3.31ZM182,294.17c0-.3-.13-.42-.43-.41l-2.18.06c-.28,0-.46,0-.47.32s-.11.33-.77.35H178c-.31,0-.5,0-.51-.33s0-.73,0-1.11l-.07-2.25c0-.3,0-.59,0-.89,0-.47.14-.58.73-.6l1.5,0,6.22-.19,1.39-.06c.66,0,.85.05.86.54,0,.3,0,.61,0,.91l.05,1.65c0,.3,0,.59,0,.89,0,.48-.14.58-.91.6-.31,0-.75,0-1.32,0l-2,.06c-.26,0-.36.12-.36.38,0,.5.1.63.73.6l3.33-.1c.59,0,.78-.12,1-1.21,0-.29.06-.42.35-.43s1,.11,1,.48a4.6,4.6,0,0,1-.53,1.66c-.31.59-.8.65-1.42.67l-4.19.13c-1.23,0-1.71-.15-1.75-1.42Zm-3-7.14c-.36,0-.76.05-.9.06s-.27-.18-.28-.49,0-.5.25-.51.57,0,.91,0l.84,0c.34,0,.74-.06.91-.07s.27.17.28.49,0,.5-.25.51-.55,0-.91,0Zm0,1.58c-.35,0-.75.05-.87.06-.28,0-.29-.17-.3-.5s0-.5.25-.51.57,0,.89,0l.87,0c.33,0,.73-.05.87-.06s.29.16.3.49,0,.5-.27.51c-.12,0-.52,0-.87,0Zm2.81,1.95a.28.28,0,0,0-.31-.29l-2.47.08a.28.28,0,0,0-.29.31v.14a.31.31,0,0,0,.31.29l2.47-.08a.28.28,0,0,0,.29-.3ZM179.22,292a.3.3,0,0,0-.29.3v.16a.28.28,0,0,0,.31.29l2.47-.07a.27.27,0,0,0,.29-.31v-.16a.28.28,0,0,0-.31-.29Zm7-1.16a.3.3,0,0,0,.28-.31v-.14a.27.27,0,0,0-.31-.29l-2.49.08a.27.27,0,0,0-.29.3v.14c0,.17.12.29.31.28Zm-2.74,1.48a.27.27,0,0,0,.31.29l2.48-.08a.28.28,0,0,0,.29-.31v-.16a.31.31,0,0,0-.31-.29l-2.49.08a.29.29,0,0,0-.29.31Zm1.58-5.47-.84,0c-.28,0-.27-.15-.28-.49s0-.5.25-.51.52,0,.85,0l1,0c.33,0,.7-.05.85-.05s.27.16.28.49,0,.5-.25.51h-.84Zm.08,1.58c-.34,0-.67.05-.86.06s-.29-.16-.3-.49,0-.5.25-.51h.88l.94,0,.88,0c.28,0,.28.15.29.49s0,.5-.26.51-.53,0-.88,0Z"/><path class="cls-4" d="M200.36,283.68c.27,0,.64-.07.78-.08.31,0,.56.27.78.45s.56.49.58.69-.11.3-.18.92a9.48,9.48,0,0,1-3.75,7,14.82,14.82,0,0,1-2.91,1.79,2.41,2.41,0,0,1-.5.16c-.38,0-1-1-1-1.25s.13-.23.27-.27a10.93,10.93,0,0,0,3.77-2.29,7.34,7.34,0,0,0,2.29-4.7,3.85,3.85,0,0,0,0-.39c0-.29-.29-.31-.57-.29l-5.56.32c-.66,0-1.3.11-2,.14-.47,0-.48-.11-.52-.82s-.07-.89.39-.92c.67,0,1.34,0,2-.09Zm4.44-1.4a1.56,1.56,0,0,1-3.11.18,1.56,1.56,0,0,1,3.11-.18Zm-2.39.14a.84.84,0,0,0,1.67-.1.84.84,0,1,0-1.67.1Z"/><path class="cls-4" d="M210.11,290.19c0,.39.09.63.37.61a6.42,6.42,0,0,0,1.23-.61,21.64,21.64,0,0,0,5.62-4.65c.09-.1.21-.27.35-.28s.88,1,.9,1.27a.45.45,0,0,1-.15.29c-.31.38-.65.72-1,1.07a27.93,27.93,0,0,1-6.49,4.68,5.4,5.4,0,0,0-.52.3.88.88,0,0,1-.37.19,5.27,5.27,0,0,1-1.28-.46c-.2-.13-.23-.26-.26-.53,0-.53-.07-1.11-.12-1.69L207.8,284c0-.34-.06-.69-.1-.95,0-.11-.09-.43-.1-.51a.17.17,0,0,1,.16-.2l.33,0c.25,0,1,.06,1.28.1s.33,0,.35.17-.07.15-.12.21a.61.61,0,0,0-.1.5c0,.23,0,.48,0,.73Z"/><path class="cls-4" d="M226.72,288c.21,1.61.09,1.85,1.76,1.63,1.14-.16,2.71-.55,3.84-.79l.21,0c.3,0,.36.39.4.72s.12.77-.14,1a1.69,1.69,0,0,1-.53.17c-.39.06-2.31.42-2.61.46l-.45.06a15.12,15.12,0,0,1-2.33.19,1.73,1.73,0,0,1-1-.34c-.53-.42-.64-1.46-.73-2.08,0-.22,0-.42-.07-.64l-.25-1.86a.33.33,0,0,0-.46-.27l-.77.26c-.27.1-2,.69-2.09.71s-.25-.08-.34-.32a5.34,5.34,0,0,1-.32-1c0-.26.19-.34,1-.57l1.29-.41,1.09-.37a.46.46,0,0,0,.31-.5l-.19-1.4c-.07-.51-.14-1-.23-1.53,0-.22-.16-.74-.17-.78s0-.18.13-.19,1,0,1.24,0,.67,0,.7.14a1,1,0,0,1-.1.35.62.62,0,0,0-.06.47c0,.44.1.89.16,1.32l.15,1.08a.33.33,0,0,0,.45.27l3.24-1.1,1.73-.62a2.11,2.11,0,0,1,1.3.94.68.68,0,0,1-.12.34c-.21.29-.4.61-.6.93-.59.95-1.2,1.9-1.83,2.84-.12.19-.29.46-.53.5s-1.27-.41-1.31-.75c0-.11.13-.25.23-.38a12.11,12.11,0,0,0,1.49-2.08.1.1,0,0,0-.12-.09c-.1,0-.44.14-.54.16l-2.73,1a.47.47,0,0,0-.34.54Zm4.69-7.46c0,.23-.47.76-.67.78s-.17-.07-.2-.11a16.15,16.15,0,0,0-1.27-1.14c-.07-.06-.14-.11-.15-.2s.5-.7.67-.72A6,6,0,0,1,231.42,280.57Zm1.48-1.24c0,.23-.46.78-.68.8-.06,0-.15-.08-.3-.21a13.92,13.92,0,0,0-1.17-1c-.07-.06-.16-.11-.17-.19s.5-.72.69-.74A6.29,6.29,0,0,1,232.89,279.33Z"/><path class="cls-4" d="M240,280.2c.22.13,1,.61,1,.85s-.67,1.24-1,1.26a1.68,1.68,0,0,1-.65-.39,19.68,19.68,0,0,0-2.15-1.35c-.13-.07-.26-.14-.26-.29s.56-1.26.92-1.29A12.69,12.69,0,0,1,240,280.2Zm8.2,2.17c0,.26-.58.91-.77,1.12a27.14,27.14,0,0,1-8.19,6.33c-.5.28-.52.29-.63.57a.15.15,0,0,1-.15.1c-.17,0-.53-.6-.65-.78a4.36,4.36,0,0,1-.52-.92c0-.17.27-.22.47-.29a21.47,21.47,0,0,0,9.24-7.29.37.37,0,0,1,.25-.19C247.56,281,248.18,282.13,248.19,282.37Z"/><path class="cls-4" d="M254.37,282.07a10.72,10.72,0,0,1,2.17,1.53c.22.19,1.09.87,1.08,1.14s-.75,1.07-1.06,1.07a.55.55,0,0,1-.34-.21,24.38,24.38,0,0,0-2.25-1.86.29.29,0,0,0-.16-.06c-.14,0-.19.12-.19.24l-.05,4.28c0,.63,0,1.24,0,1.87s0,.81-1,.8c-.63,0-.9,0-.89-.54,0-.7.06-1.41.07-2.12l.11-8.93c0-.4,0-.83,0-1.21,0-.08,0-.22,0-.28s0-.24.21-.24.42.06.53.08c.7.1,1.35.17,1.34.39a.46.46,0,0,1-.08.21,1.25,1.25,0,0,0-.18.83c0,.23,0,.53,0,.93l0,2.35c0,.13.07.15.12.16a.19.19,0,0,0,.14-.06C254,282.29,254.2,282.07,254.37,282.07Z"/><path class="cls-4" d="M264.24,289.51a1.16,1.16,0,0,1-1.32,1.1,1,1,0,0,1-1-1.12,1.17,1.17,0,0,1,1.3-1.15A1,1,0,0,1,264.24,289.51ZM263,287.1c-.39,0-.46-.12-.45-.51l.22-4c0-.94.1-3,.13-3.35s.12-.32.46-.29l1.09.09c.34,0,.44.1.41.36s-.31,2.4-.43,3.42l-.41,3.85c0,.39-.13.46-.52.43Z"/></g></g></svg>