<svg xmlns="http://www.w3.org/2000/svg" xmlns:xlink="http://www.w3.org/1999/xlink" viewBox="0 0 350.65 189.72"><defs><style>.cls-1,.cls-4{fill:none;}.cls-2{clip-path:url(#clip-path);}.cls-3{fill:#006cb7;}.cls-4{stroke:#006cb7;stroke-miterlimit:10;stroke-width:5.77px;}.cls-5{fill:#fff;}.cls-6{fill:#faa634;}.cls-7{fill:#00aeef;}.cls-8{fill:#fd0;}.cls-9{fill:#d5a10f;}.cls-10{fill:#17479e;stroke:#fff;stroke-linecap:round;stroke-linejoin:round;stroke-width:1.79px;}</style><clipPath id="clip-path"><rect class="cls-1" x="3.65" y="43.25" width="321.79" height="139.63"/></clipPath></defs><title>kanaradu_4</title><g id="Layer_2" data-name="Layer 2"><g id="レイヤー_1" data-name="レイヤー 1"><g class="cls-2"><g class="cls-2"><image width="2222" height="2035" transform="translate(143.49) scale(0.09)" xlink:href="yoko5.jpg"/></g><rect class="cls-3" y="37.78" width="153.24" height="148.28"/><rect class="cls-4" x="3.65" y="43.25" width="321.79" height="139.63"/></g><rect class="cls-1" x="17.62" y="55.66" width="121.53" height="104.05"/><path class="cls-5" d="M18.24,173.32l1.41,0c.18,0,.21.05.21.26v.78c0,.2,0,.25-.21.25l-1.41,0H17l-1.5,0c-.18,0-.21-.05-.21-.25V174a.38.38,0,0,1,.21-.41c.17-.12.3-.23.47-.37,1.62-1.43,2.34-2.19,2.34-2.92,0-.48-.3-.82-.91-.82a1.63,1.63,0,0,0-1.2.62c-.08.09-.12.13-.17.13s-.09,0-.17-.12l-.63-.7a.31.31,0,0,1-.1-.19c0-.05,0-.11.11-.19a3.15,3.15,0,0,1,2.27-1,2,2,0,0,1,2.28,2c0,1.17-.87,2.15-2,3.14-.07.06-.09.1-.09.12s.05,0,.15,0Z"/><path class="cls-5" d="M26.55,171.19c0,2.18-1.25,3.45-2.83,3.45s-2.7-1.11-2.7-3.2c0-1.88,1-3.4,2.83-3.4C25.34,168,26.55,169.11,26.55,171.19Zm-4.08.3c0,1.18.47,1.79,1.25,1.79s1.39-.81,1.39-2-.5-1.75-1.26-1.75C22.87,169.49,22.47,170.43,22.47,171.49Z"/><path class="cls-5" d="M30.37,172.83c0,.47,0,1.48,0,1.54s-.05.22-.24.22h-1c-.2,0-.25,0-.25-.22s0-1.07,0-1.54V170c0-.16,0-.22-.1-.22l-.13,0c-.29.11-.54.21-.77.32a.38.38,0,0,1-.16.05c-.08,0-.11-.06-.15-.19l-.3-.87a.5.5,0,0,1,0-.17c0-.08,0-.11.19-.16a15.47,15.47,0,0,0,1.6-.6,1.07,1.07,0,0,1,.5-.11h.56c.19,0,.24,0,.24.22s0,1.08,0,1.54Z"/><path class="cls-5" d="M36,171.19s.05.08.13.13a1.73,1.73,0,0,1,1,1.54c0,1.13-1,1.81-2.71,1.81-1.45,0-2.55-.64-2.55-1.73a1.75,1.75,0,0,1,1-1.53c.09-.05.14-.09.14-.12s0-.08-.12-.13a1.64,1.64,0,0,1-.75-1.39c0-.92.83-1.75,2.45-1.75,1.46,0,2.31.74,2.31,1.67a1.71,1.71,0,0,1-.8,1.38C36.05,171.12,36,171.16,36,171.19Zm-1.62.68a.56.56,0,0,0-.24.06c-.64.28-.87.55-.87.9s.52.66,1.21.66,1.22-.25,1.22-.68-.47-.66-1.09-.89A.65.65,0,0,0,34.38,171.87Zm.19-2.64c-.52,0-1,.21-1,.59s.33.56.85.78a.47.47,0,0,0,.2.05.53.53,0,0,0,.25-.08c.46-.24.61-.48.61-.76S35.09,169.23,34.57,169.23Z"/><path class="cls-5" d="M43.22,169.17a.24.24,0,0,0-.25.25v.33a.25.25,0,0,0,.27.28h.18l1.14,0c.23,0,.25.1.25.41v.41c0,.33,0,.42-.25.42l-1.14,0h-.17a.25.25,0,0,0-.28.27v.38a.25.25,0,0,0,.24.25h1.08l1.14,0c.23,0,.25.1.25.38v.5c0,.29,0,.38-.25.38l-1.14,0H43.23c-.21,0-.26.13-.26.33,0,.42,0,.83,0,1.24,0,.23-.09.26-.4.26H42c-.27,0-.38,0-.38-.25,0-.42,0-.83,0-1.24v-.07a.25.25,0,0,0-.26-.26H39.56l-1.13,0c-.23,0-.25-.09-.25-.38v-.4c0-.42,0-.47.26-.47l.56,0c.19,0,.23-.14.23-.3v-.72c0-.12,0-.19-.1-.19a.12.12,0,0,0-.09,0,.19.19,0,0,1-.13.06c-.23,0-.85-.66-.85-.89,0-.07.08-.14.17-.21a5.57,5.57,0,0,0,1.61-2.6c0-.15.06-.21.14-.21a12.12,12.12,0,0,1,1.18.3c.09,0,.2,0,.2.14s-.08.1-.13.12-.18.06-.18.18.09.11.15.11H44l1.09,0c.22,0,.24.11.24.39v.5c0,.29,0,.4-.24.4l-1.09,0Zm-2.55,0c-.27,0-.33.09-.47.33l-.2.3a.21.21,0,0,0,0,.12c0,.12.15.12.4.12H41.4a.25.25,0,0,0,.24-.25v-.36a.24.24,0,0,0-.24-.25Zm0,2.05a.24.24,0,0,0-.24.25v.41a.24.24,0,0,0,.24.25h.75a.25.25,0,0,0,.24-.25v-.41a.26.26,0,0,0-.25-.25Z"/><path class="cls-5" d="M49,170.44c1.34,0,2.27.64,2.27,1.89s-.68,2.33-2.73,2.33a4.08,4.08,0,0,1-1.73-.39c-.12-.06-.18-.11-.18-.19a.56.56,0,0,1,0-.17l.3-.8c.05-.12.08-.18.14-.18a.36.36,0,0,1,.16.08,2.47,2.47,0,0,0,1.31.38c.88,0,1.24-.4,1.24-1s-.52-.82-1.15-.82a2.46,2.46,0,0,0-.8.12.82.82,0,0,1-.28.06,1,1,0,0,1-.27-.05l-.19-.05c-.17-.05-.22-.1-.22-.23a.67.67,0,0,1,0-.11c0-.3.06-.55.08-.88l.09-1.18c0-.34.05-.63.06-.92s0-.25.21-.25l1.49,0h.53l1.48,0c.18,0,.21.05.21.25v.89c0,.2,0,.25-.21.25l-1.48,0h-.74c-.22,0-.26,0-.28.26l0,.39c0,.07,0,.18,0,.2s0,.14.13.14S48.82,170.44,49,170.44Z"/><path class="cls-5" d="M53.36,168.87c0-.32,0-.63,0-1s.15-.49.49-.49l.89,0h2.4l.87,0c.29,0,.5.06.5.49s0,.64,0,1v4.28c0,.23,0,.45,0,.68a1,1,0,0,1-.48,1,2.3,2.3,0,0,1-1.18.25c-.43,0-.53-.12-.59-.41a3.45,3.45,0,0,1-.08-.66c0-.14,0-.26.2-.26s.28,0,.42,0c.37,0,.39-.16.39-.34v-.92a.25.25,0,0,0-.24-.25h-2c-.23,0-.32.07-.36.31A5.89,5.89,0,0,1,54.1,174c-.11.25-.5,1.07-.78,1.07s-.92-.47-.92-.75a.4.4,0,0,1,.12-.22,4.6,4.6,0,0,0,.72-1.69,7.91,7.91,0,0,0,.13-1.66Zm1.29.19a.25.25,0,0,0,.24.25H57a.25.25,0,0,0,.24-.25v-.12a.24.24,0,0,0-.24-.25H54.89a.24.24,0,0,0-.24.25Zm2.3,2.1a.25.25,0,0,0,.24-.25v-.16a.25.25,0,0,0-.24-.25h-2c-.19,0-.27.11-.27.3v.05c0,.2.09.3.29.3Z"/><path class="cls-5" d="M63.08,172.83c0,.47,0,1.48,0,1.54s-.05.22-.25.22h-1c-.2,0-.25,0-.25-.22s0-1.07,0-1.54V170c0-.16,0-.22-.1-.22l-.13,0c-.29.11-.54.21-.77.32a.38.38,0,0,1-.16.05c-.08,0-.11-.06-.15-.19l-.3-.87a.49.49,0,0,1,0-.17c0-.08.05-.11.19-.16a15.47,15.47,0,0,0,1.6-.6,1.07,1.07,0,0,1,.5-.11h.56c.19,0,.25,0,.25.22s0,1.08,0,1.54Z"/><path class="cls-5" d="M67,170.44c1.34,0,2.27.64,2.27,1.89s-.68,2.33-2.73,2.33a4.07,4.07,0,0,1-1.73-.39c-.12-.06-.18-.11-.18-.19a.54.54,0,0,1,0-.17l.3-.8c.05-.12.08-.18.14-.18a.37.37,0,0,1,.16.08,2.46,2.46,0,0,0,1.31.38c.88,0,1.24-.4,1.24-1s-.52-.82-1.15-.82a2.46,2.46,0,0,0-.8.12.82.82,0,0,1-.28.06,1,1,0,0,1-.27-.05l-.19-.05c-.17-.05-.22-.1-.22-.23a.63.63,0,0,1,0-.11c0-.3.06-.55.08-.88l.09-1.18c0-.34.05-.63.06-.92s0-.25.21-.25l1.49,0h.53l1.48,0c.18,0,.21.05.21.25v.89c0,.2,0,.25-.21.25l-1.48,0h-.74c-.22,0-.26,0-.28.26l0,.39c0,.07,0,.18,0,.2s0,.14.14.14S66.77,170.44,67,170.44Z"/><path class="cls-5" d="M72.81,174.45a.24.24,0,0,0-.28.25c0,.23-.1.24-.49.24H71.6c-.35,0-.46,0-.46-.25,0-.44,0-.88,0-1.32v-4.23c0-.31,0-.63,0-.94s.18-.49.52-.49l.93,0h2.3l.92,0c.32,0,.52.08.52.49s0,.63,0,.94v4.23c0,.44,0,.87,0,1.31,0,.22-.1.25-.37.25h-.63c-.31,0-.39,0-.39-.27s-.09-.22-.31-.22Zm-.3-4.28a.25.25,0,0,0,.24.25h2a.25.25,0,0,0,.24-.25v-1a.25.25,0,0,0-.24-.25h-2a.25.25,0,0,0-.24.25Zm0,2.77a.24.24,0,0,0,.24.25h2a.24.24,0,0,0,.24-.25v-1.07a.24.24,0,0,0-.24-.25h-2a.24.24,0,0,0-.24.26Z"/><path class="cls-5" d="M78.74,171.18a6.47,6.47,0,0,1,1.45-4.09c.08-.1.2-.25.32-.25a1.17,1.17,0,0,1,.68.57.27.27,0,0,1-.08.17,5.48,5.48,0,0,0-.08,7.1c.06.06.15.16.15.25s-.5.58-.66.58-.22-.12-.3-.21A6.47,6.47,0,0,1,78.74,171.18Z"/><path class="cls-5" d="M85.27,167.93c0-.36,0-.46,0-.63s.08-.12.17-.12l1.1.06c.1,0,.19,0,.19.11s0,.07-.09.13a.42.42,0,0,0-.08.32v1.32a5.48,5.48,0,0,0,3,4.88c.12.07.21.12.21.21s-.49,1-.8,1a6,6,0,0,1-1.54-1.11,6.13,6.13,0,0,1-1.36-1.92c0-.06-.06-.16-.14-.16s-.08,0-.14.14a6.56,6.56,0,0,1-2.92,3c-.23,0-.75-.68-.75-1,0-.11,0-.12.4-.32a5.28,5.28,0,0,0,2.16-2.14,5.2,5.2,0,0,0,.6-2.54Zm-2.69,2.88a11.51,11.51,0,0,0,.75-1.74c0-.07,0-.11.11-.11a9,9,0,0,1,1,.36c.11,0,.15.07.15.14s-.05.08-.1.1-.09.05-.14.16a10.73,10.73,0,0,1-.7,1.57c-.08.14-.11.21-.21.21s-.9-.33-.9-.53A.27.27,0,0,1,82.58,170.81Zm6.21-1.67c.14.13.31.25.46.38s.2.15.2.23-.09.08-.13.08-.07,0-.14.09-1.1,1.37-1.28,1.37-.79-.57-.79-.76.07-.12.14-.18A9.81,9.81,0,0,0,88.38,169s.05-.08.1-.08S88.72,169.08,88.79,169.14Z"/><path class="cls-5" d="M93,171.18a6.46,6.46,0,0,1-1.45,4.09c-.08.1-.2.25-.32.25a1.16,1.16,0,0,1-.68-.57.26.26,0,0,1,.08-.17,5.48,5.48,0,0,0,.08-7.1c-.06-.06-.15-.16-.15-.25s.5-.58.66-.58.22.12.3.21A6.45,6.45,0,0,1,93,171.18Z"/><path class="cls-5" d="M101,171.1a.35.35,0,0,1-.08.18,2.14,2.14,0,0,1-1.71,1,2.53,2.53,0,0,1-1.31-.43,2.27,2.27,0,0,0-1.08-.44,1,1,0,0,0-.78.46c-.07.1-.11.15-.16.15s-.1,0-.18-.11l-.5-.45c-.09-.08-.14-.14-.14-.2a.39.39,0,0,1,.08-.18,2.08,2.08,0,0,1,1.7-1,2.56,2.56,0,0,1,1.34.46,2.14,2.14,0,0,0,1.06.42.93.93,0,0,0,.79-.47c.07-.1.11-.15.16-.15s.09,0,.17.11l.52.46C101,171,101,171,101,171.1Z"/><path class="cls-5" d="M105.07,168a2.41,2.41,0,0,1,2.52,2.64,3.63,3.63,0,0,1-2.93,3.89,5.22,5.22,0,0,1-.93.11c-.17,0-.2,0-.2-.25v-.78c0-.23,0-.26.25-.28a2.74,2.74,0,0,0,1.83-.7,1.39,1.39,0,0,0,.35-.51s0,0,0,0a.28.28,0,0,0-.13,0,2.55,2.55,0,0,1-1.29.33,1.9,1.9,0,0,1-2-2A2.39,2.39,0,0,1,105.07,168Zm-.07,1.35a1,1,0,0,0-1.11,1,.91.91,0,0,0,1,.87A2,2,0,0,0,106,171a.38.38,0,0,0,.2-.39A1.12,1.12,0,0,0,105,169.38Z"/><path class="cls-5" d="M109.57,168.87c0-.32,0-.63,0-1s.15-.49.49-.49l.89,0h2.4l.87,0c.29,0,.5.06.5.49s0,.64,0,1v4.28c0,.23,0,.45,0,.68a1,1,0,0,1-.48,1,2.31,2.31,0,0,1-1.18.25c-.43,0-.53-.12-.59-.41a3.41,3.41,0,0,1-.08-.66c0-.14,0-.26.2-.26s.28,0,.42,0c.37,0,.39-.16.39-.34v-.92a.25.25,0,0,0-.24-.25h-2c-.23,0-.32.07-.36.31a5.82,5.82,0,0,1-.45,1.38c-.11.25-.5,1.07-.78,1.07s-.92-.47-.92-.75a.4.4,0,0,1,.12-.22,4.56,4.56,0,0,0,.72-1.69,7.78,7.78,0,0,0,.13-1.66Zm1.29.19a.25.25,0,0,0,.24.25h2.06a.25.25,0,0,0,.24-.25v-.12a.24.24,0,0,0-.24-.25H111.1a.24.24,0,0,0-.24.25Zm2.3,2.1a.25.25,0,0,0,.24-.25v-.16a.25.25,0,0,0-.24-.25h-2c-.19,0-.27.11-.27.3v.05c0,.2.09.3.29.3Z"/><path class="cls-5" d="M120.1,171.09s0,.05.13.09a1.38,1.38,0,0,1,.94,1.4c0,1-.73,2.09-2.79,2.09a4.18,4.18,0,0,1-1.85-.39c-.13-.06-.18-.11-.18-.2a.44.44,0,0,1,0-.16l.27-.8c0-.12.08-.19.14-.19s.08,0,.16.08a2.75,2.75,0,0,0,1.45.39c.8,0,1.3-.36,1.3-.86s-.46-.73-1.46-.73l-.68,0c-.18,0-.2-.05-.2-.26v-.71c0-.21,0-.27.2-.27l.58,0c.91,0,1.29-.2,1.29-.66s-.36-.58-1-.58a2.3,2.3,0,0,0-1.23.36.34.34,0,0,1-.17.08c-.06,0-.1-.05-.15-.18l-.35-.76a.47.47,0,0,1-.05-.17c0-.08.05-.12.17-.19a4.07,4.07,0,0,1,1.95-.48c1.61,0,2.24.8,2.24,1.61a1.59,1.59,0,0,1-.68,1.35C120.14,171,120.1,171.06,120.1,171.09Z"/><path class="cls-5" d="M124.68,174.45a.24.24,0,0,0-.28.25c0,.23-.1.24-.49.24h-.44c-.35,0-.46,0-.46-.25,0-.44,0-.88,0-1.32v-4.23c0-.31,0-.63,0-.94s.18-.49.52-.49l.93,0h2.3l.92,0c.32,0,.52.08.52.49s0,.63,0,.94v4.23c0,.44,0,.87,0,1.31,0,.22-.1.25-.37.25h-.63c-.31,0-.39,0-.39-.27s-.08-.22-.3-.22Zm-.3-4.28a.25.25,0,0,0,.24.25h2a.25.25,0,0,0,.24-.25v-1a.25.25,0,0,0-.24-.25h-2a.25.25,0,0,0-.24.25Zm0,2.77a.24.24,0,0,0,.24.25h2a.24.24,0,0,0,.24-.25v-1.07a.24.24,0,0,0-.24-.25h-2a.24.24,0,0,0-.24.26Z"/><path class="cls-5" d="M130.62,171.18a6.47,6.47,0,0,1,1.45-4.09c.08-.1.2-.25.32-.25a1.17,1.17,0,0,1,.68.57.27.27,0,0,1-.09.17,5.48,5.48,0,0,0-.08,7.1c.06.06.15.16.15.25s-.5.58-.66.58-.22-.12-.3-.21A6.47,6.47,0,0,1,130.62,171.18Z"/><path class="cls-5" d="M135.3,168.87c0-.32,0-.63,0-1s.15-.49.49-.49l.89,0h2.4l.87,0c.29,0,.5.06.5.49s0,.64,0,1v4.28c0,.23,0,.45,0,.68a1,1,0,0,1-.48,1,2.31,2.31,0,0,1-1.18.25c-.43,0-.53-.12-.59-.41a3.45,3.45,0,0,1-.08-.66c0-.14,0-.26.2-.26s.28,0,.42,0c.37,0,.39-.16.39-.34v-.92a.25.25,0,0,0-.24-.25h-2c-.23,0-.32.07-.36.31A5.84,5.84,0,0,1,136,174c-.11.25-.5,1.07-.78,1.07s-.92-.47-.92-.75a.4.4,0,0,1,.12-.22,4.58,4.58,0,0,0,.72-1.69,7.85,7.85,0,0,0,.13-1.66Zm1.29.19a.25.25,0,0,0,.24.25h2.06a.25.25,0,0,0,.24-.25v-.12a.24.24,0,0,0-.24-.25h-2.06a.24.24,0,0,0-.24.25Zm2.3,2.1a.25.25,0,0,0,.24-.25v-.16a.25.25,0,0,0-.24-.25h-2c-.19,0-.27.11-.27.3v.05c0,.2.09.3.29.3Z"/><path class="cls-5" d="M144.88,171.18a6.46,6.46,0,0,1-1.45,4.09c-.08.1-.2.25-.32.25a1.16,1.16,0,0,1-.68-.57.26.26,0,0,1,.08-.17,5.48,5.48,0,0,0,.08-7.1c-.06-.06-.15-.16-.15-.25s.5-.58.66-.58.22.12.3.21A6.45,6.45,0,0,1,144.88,171.18Z"/><path class="cls-5" d="M30.14,142.12a.38.38,0,0,0,.32-.39,2.16,2.16,0,0,0,0-.29l-.08-.37c0-.17-.28-1.29-.28-1.35s.2-.2.44-.21c.54,0,1.08-.09,1.63-.09.12,0,.24,0,.24.1a.47.47,0,0,1-.07.22.61.61,0,0,0-.11.35c0,.18.13.86.17,1.09l0,.11a.45.45,0,0,0,.43.42h.05l.84-.15c.25,0,1.81-.3,1.87-.3.31,0,.32.32.39.66s.13.85.13,1-.2.37-1.07.49c-.28,0-.61.07-1,.14l-.82.13a.38.38,0,0,0-.28.39v.07l.16.88a.41.41,0,0,0,.4.36h.05l1.79-.27c.27,0,1.9-.33,2-.33.31,0,.35.31.39.73l0,.29a5.71,5.71,0,0,1,.07.66c0,.26-.09.38-.33.43l-1.86.25-1.71.26a.4.4,0,0,0-.31.36.34.34,0,0,0,0,.11l.09.52c.08.42.49,2.44.49,2.69s-.23.27-.4.32a8.7,8.7,0,0,1-1.32.26c-.24,0-.31-.2-.35-.63-.08-.73-.21-1.45-.34-2.17l-.12-.65a.44.44,0,0,0-.41-.39h-.05l-2.07.32c-.28,0-1.68.3-1.82.3s-.31-.17-.36-.4-.17-1.21-.17-1.39.19-.32.93-.4c.29,0,.67-.07,1.15-.14l2-.3a.38.38,0,0,0,.31-.37.33.33,0,0,0,0-.1l-.15-.83a.4.4,0,0,0-.39-.37h-.09l-.91.14c-.28,0-1.79.3-1.92.3s-.31-.21-.35-.43-.15-1.09-.15-1.31.19-.35,1-.45c.29,0,.69-.09,1.19-.17Z"/><path class="cls-5" d="M41.89,144.87a.37.37,0,0,0,.29-.36.89.89,0,0,0,0-.1l-.12-.67c0-.06-.07-.36-.13-.68s-.16-.75-.16-.78.13-.16.23-.17a11.3,11.3,0,0,1,1.36-.11c.17,0,.39,0,.39.26a.42.42,0,0,1-.05.19.49.49,0,0,0,0,.19c0,.1.11.66.13.8l.12.63a.38.38,0,0,0,.35.32h.08l1.79-.39c.35-.07.71-.14,1-.24a.57.57,0,0,1,.23,0c.24,0,1.11.82,1.11,1.15a.48.48,0,0,1-.19.33,9.93,9.93,0,0,0-1,1.46c-.16.24-.67,1.06-.83,1.22a.41.41,0,0,1-.31.17c-.2,0-1.27-.46-1.27-.79a.75.75,0,0,1,.16-.33,3.76,3.76,0,0,0,.56-.81.16.16,0,0,0-.17-.16h-.08l-.71.16a.37.37,0,0,0-.28.39v.06a.65.65,0,0,0,0,.14l.53,2.79a13.76,13.76,0,0,1,.28,1.48c0,.19-.11.23-.25.27a10.32,10.32,0,0,1-1.23.25c-.23,0-.25-.14-.37-.89,0-.2-.08-.45-.13-.73l-.56-2.9a.35.35,0,0,0-.35-.32h-.09l-.68.16c-.24.05-1.35.31-1.51.31s-.25-.19-.29-.35-.19-1-.19-1.18.21-.32,1-.45l.72-.14Z"/><path class="cls-5" d="M59.49,143.23a1.54,1.54,0,0,0,.08.16,2.41,2.41,0,0,1,.23.68c0,.34-1.08,1.45-1.36,1.74a24.17,24.17,0,0,1-7,4.93.6.6,0,0,0-.36.37.12.12,0,0,1-.11.09c-.11,0-.19-.13-.24-.23-.23-.36-.44-.73-.63-1.11a3.75,3.75,0,0,1-.39-.86c0-.13.15-.2.25-.23a13.52,13.52,0,0,0,3.42-1.58,18.37,18.37,0,0,0,4.83-4.5l.08-.12c.12-.19.23-.35.37-.35S59.37,143,59.49,143.23Zm-8-2.93a15.6,15.6,0,0,1,2.35,1.81.31.31,0,0,1,.12.26c0,.42-.95,1.58-1.26,1.58-.12,0-.25-.13-.33-.21A13.71,13.71,0,0,0,50.08,142c-.11-.07-.24-.16-.24-.3s.8-1.65,1.19-1.65A1.33,1.33,0,0,1,51.45,140.29Z"/><path class="cls-5" d="M67.34,143.46a31,31,0,0,0,4,3.83.42.42,0,0,1,.23.33c0,.42-1,1.75-1.44,1.75-.25,0-.76-.49-1-.69-1.06-1-2.53-2.62-3.49-3.75-.12-.16-.29-.37-.49-.37s-.51.27-.67.43c-.36.34-1.74,1.78-2.07,2.15a.49.49,0,0,1-.36.21c-.24,0-.75-.64-.92-.86a4.05,4.05,0,0,1-.64-1c0-.14.31-.3.41-.36a18.94,18.94,0,0,0,2.89-2.43,2.34,2.34,0,0,1,1.39-.62C66.07,142.07,66.73,142.78,67.34,143.46Zm3.76-.71a1.4,1.4,0,1,1-1.4-1.5A1.45,1.45,0,0,1,71.1,142.75Zm-2.11,0a.74.74,0,0,0,.71.76.73.73,0,0,0,.71-.76.71.71,0,1,0-1.42,0Z"/><path class="cls-5" d="M81.11,144.15c.79,0,1.64-.06,1.76-.06.35,0,.4.16.4.58v.69c0,.79,0,1-.44,1s-1.14,0-1.72,0H75c-.59,0-1.22,0-1.71,0s-.46-.27-.46-1v-.66c0-.43,0-.61.39-.61.19,0,.94.06,1.78.06Z"/><path class="cls-5" d="M94.19,143.23s0,.1.08.16a2.39,2.39,0,0,1,.23.68c0,.34-1.08,1.45-1.36,1.74a24.15,24.15,0,0,1-7,4.93.6.6,0,0,0-.36.37.12.12,0,0,1-.11.09c-.11,0-.19-.13-.24-.23-.23-.36-.44-.73-.63-1.11a3.76,3.76,0,0,1-.39-.86c0-.13.15-.2.25-.23a13.54,13.54,0,0,0,3.42-1.58,18.36,18.36,0,0,0,4.83-4.5l.08-.12c.12-.19.23-.35.37-.35S94.07,143,94.19,143.23Zm-8-2.93a15.63,15.63,0,0,1,2.35,1.81.31.31,0,0,1,.12.26c0,.42-.95,1.58-1.26,1.58-.12,0-.25-.13-.33-.21A13.73,13.73,0,0,0,84.78,142c-.11-.07-.24-.16-.24-.3s.8-1.65,1.19-1.65A1.33,1.33,0,0,1,86.14,140.29Z"/><path class="cls-5" d="M100.8,149l2.23,0c.28,0,.33.09.33.42v1.26c0,.33-.05.42-.33.42l-2.23,0H98.89l-2.37,0c-.28,0-.33-.09-.33-.42V150a.62.62,0,0,1,.33-.67c.27-.2.48-.37.74-.6,2.55-2.33,3.7-3.58,3.7-4.76a1.27,1.27,0,0,0-1.44-1.34,2.55,2.55,0,0,0-1.9,1c-.12.14-.19.22-.27.22s-.15-.07-.27-.2l-1-1.14a.51.51,0,0,1-.16-.32c0-.09.05-.17.17-.3a4.91,4.91,0,0,1,3.58-1.57c2.3,0,3.61,1.41,3.61,3.25s-1.38,3.5-3.11,5.12c-.11.1-.15.16-.15.2s.08.07.24.07Z"/><path class="cls-5" d="M113.94,145.5c0,3.56-2,5.63-4.46,5.63s-4.26-1.81-4.26-5.22c0-3.06,1.51-5.55,4.46-5.55C112,140.37,113.94,142.09,113.94,145.5Zm-6.44.49c0,1.93.74,2.92,2,2.92s2.19-1.32,2.19-3.32-.79-2.86-2-2.86C108.13,142.72,107.5,144.25,107.5,146Z"/><path class="cls-5" d="M120,148.17c0,.76,0,2.42,0,2.52,0,.3-.08.36-.39.36h-1.55c-.31,0-.39-.06-.39-.36,0-.1,0-1.76,0-2.52v-4.6c0-.26,0-.36-.16-.36a.57.57,0,0,0-.21.06c-.45.17-.86.34-1.22.52a.57.57,0,0,1-.25.09c-.12,0-.17-.1-.24-.32l-.47-1.42a.8.8,0,0,1-.05-.27c0-.13.08-.19.31-.26a22.69,22.69,0,0,0,2.53-1,1.66,1.66,0,0,1,.79-.17h.88c.31,0,.39.06.39.36,0,.1,0,1.75,0,2.51Z"/><path class="cls-5" d="M128.87,145.5c0,.07.08.13.21.22a2.82,2.82,0,0,1,1.58,2.51c0,1.84-1.62,3-4.29,3-2.3,0-4-1.05-4-2.83a2.85,2.85,0,0,1,1.6-2.5c.13-.09.21-.14.21-.2s-.07-.13-.19-.22a2.7,2.7,0,0,1-1.19-2.27c0-1.49,1.31-2.86,3.88-2.86,2.31,0,3.65,1.21,3.65,2.73a2.8,2.8,0,0,1-1.26,2.24C128.94,145.37,128.87,145.44,128.87,145.5Zm-2.57,1.11a.83.83,0,0,0-.37.1c-1,.46-1.38.91-1.38,1.46s.83,1.08,1.91,1.08,1.92-.4,1.92-1.11-.75-1.08-1.72-1.45A1,1,0,0,0,126.31,146.61Zm.29-4.31c-.82,0-1.52.34-1.52,1s.52.92,1.35,1.28a.75.75,0,0,0,.32.09.81.81,0,0,0,.39-.13c.72-.39,1-.79,1-1.24C128.1,142.62,127.43,142.29,126.6,142.29Z"/><path class="cls-6" d="M38.1,74.48c.26.06.81.16.81.51,0,.19-.13.29-.26.39-.61.45-.68,1-.87,2.09-.06.38-.13.84-.23,1.38a1.44,1.44,0,0,0-.06.36.65.65,0,0,0,.71.68c.13,0,.26,0,.39,0a6.3,6.3,0,0,1,3.67.74c1.61,1,2,2.9,2,4.67,0,3-.52,7.31-1.93,9.89a6.59,6.59,0,0,1-6.09,3.48,1.36,1.36,0,0,1-1.48-.77,7,7,0,0,1-.55-2.29c0-.32.1-.55.42-.55s.87.1,1.51.1a3.09,3.09,0,0,0,3.35-2,19.42,19.42,0,0,0,1.42-7.28c0-1.61-.1-2.93-2-2.93s-2.16.26-2.38,1.16a38.06,38.06,0,0,1-4.09,9.57,36.81,36.81,0,0,1-3.22,4.64.89.89,0,0,1-.58.32c-.55,0-2.61-1.23-2.61-2a1.21,1.21,0,0,1,.45-.74,26.44,26.44,0,0,0,5.74-9,18,18,0,0,0,.8-2.42.39.39,0,0,0-.42-.42,26,26,0,0,0-3.67,1.13,2.67,2.67,0,0,1-.68.19c-.81,0-1.35-3.16-1.35-3.32,0-.48.55-.48,1-.52a51.2,51.2,0,0,0,5.35-1c.64-.13,1-.29,1.06-1a29.57,29.57,0,0,0,.32-4.16c0-.36,0-.71,0-1.1s0-.64.35-.64S37.62,74.35,38.1,74.48Zm14,10.44c0,.71-2,1.9-2.67,1.9-.42,0-.58-.42-.74-.74a22.41,22.41,0,0,0-4.32-6.89.84.84,0,0,1-.29-.55c0-.58,1.87-1.71,2.45-1.71C47.74,76.93,52.12,84.11,52.12,84.92Z"/><path class="cls-5" d="M67.46,73.51c.16.07.52.16.52.39s-.23.36-.52.58a5.62,5.62,0,0,0-.58,1.71,10.54,10.54,0,0,0-.35,1.45.37.37,0,0,0,.35.42,15.3,15.3,0,0,0,1.84-.48,1.18,1.18,0,0,1,.32-.06c.38,0,.42.58.48,1a15,15,0,0,1,.16,1.71c0,.71-.39.77-3.35,1.32-1.16.19-1.13.42-1.51,1.48a82,82,0,0,1-5.25,11.47c-.19.32-.29.45-.64.45-.71,0-2.87-.93-2.87-1.61a3.57,3.57,0,0,1,.58-1.16,59.83,59.83,0,0,0,3.83-7.44,12.46,12.46,0,0,0,.74-2,.43.43,0,0,0-.45-.42c-.26,0-2.74.32-3.48.32-.55,0-.68-.29-.8-1-.06-.39-.23-1.55-.23-1.87s.23-.51.58-.51h1.48a28.59,28.59,0,0,0,3.32-.16,1.11,1.11,0,0,0,1-.51,19.69,19.69,0,0,0,1-5.42c0-.23,0-.55.29-.55S66.94,73.35,67.46,73.51Zm4.64,9.6c.35.1.64.29.64.68,0,.06-.06,1-.06,1.71,0,.94.16,5.57.32,6.25.1.49.52.61,1,.81l.32.13c.74.29,4.54,2.06,4.54,2.83,0,.52-1.19,2.35-2,2.35-.32,0-.61-.29-.84-.45a9.24,9.24,0,0,0-2.58-1.48c-.36,0-.48.45-.52.74-.39,2.35-2.29,3.16-4.48,3.16-2.61,0-5.67-1.39-5.67-4.38s2.8-4,5.35-4H69c.39,0,.68-.16.68-.55,0-1-.48-5.7-.58-7,0-.16,0-.29,0-.45,0-.52.29-.71.77-.71A13.47,13.47,0,0,1,72.09,83.12Zm-6,12.27c0,1,1.29,1.52,2.13,1.52,1.16,0,1.67-.61,1.67-1.74,0-.65,0-1-1.64-1C67.46,94.17,66.07,94.36,66.07,95.39ZM80.15,83.08c0,.77-1.84,2.22-2.42,2.22-.32,0-.55-.36-.71-.58a18.24,18.24,0,0,0-4-4.16c-.13-.1-.42-.29-.42-.52,0-.45,1.48-2.22,2.16-2.22S80.15,82.25,80.15,83.08Z"/><path class="cls-6" d="M91.46,79.83c.23.1.58.19.58.45s-.16.29-.29.35c-.52.32-.55.61-.68,1.25-.26,1.49-.45,3-.77,4.48a4.83,4.83,0,0,0-.1.68c0,.19.1.39.32.39a.72.72,0,0,0,.42-.19c2.38-1.68,4.32-3,7.38-3,4,0,7,2.64,7,6.7,0,4.58-3.41,6.51-7.31,7.67a21.45,21.45,0,0,1-4.19.87c-.71,0-.9-.29-1.19-.9a6.69,6.69,0,0,1-.55-2.1c0-.51.39-.54.81-.58a21.51,21.51,0,0,0,4.28-.64c2.29-.58,4.67-1.58,4.67-4.32,0-2.22-1.8-3.42-3.87-3.42-3.38,0-6.8,2.84-8.83,5.38-.26.32-.52.68-1,.68-.29,0-2.45-.32-2.45-1.26a4.89,4.89,0,0,1,.32-1.13c.29-1,.55-2.1.74-3.16a51.19,51.19,0,0,0,.77-7c0-.26,0-.48,0-.71,0-.93,0-1.42.55-1.42A23.27,23.27,0,0,1,91.46,79.83Zm.58-7a22.38,22.38,0,0,1,3.67,2c.48.29,2.35,1.32,2.35,1.87s-1.32,2.55-2,2.55c-.35,0-.77-.45-1-.64A26.51,26.51,0,0,0,91,75.93c-.32-.19-.74-.35-.74-.71S91.27,72.87,92,72.87Z"/><path class="cls-5" d="M121.74,72.87c.13,0,.32,0,.48.06.77.1,1.74.16,1.74.45a.49.49,0,0,1-.19.36c-.19.16-.45.42-.48,1.35,0,.71,0,1.38,0,2.06a.85.85,0,0,0,.93.94c.26,0,1.48-.1,1.87-.1,1.55-.06,5-.26,6.38-.26.52,0,.77.16.77,1.64,0,2-.39,2-.71,2s-2.87-.19-4.67-.19a36.43,36.43,0,0,0-3.93.16,1,1,0,0,0-.61,1v1.13a2.72,2.72,0,0,0,.32,1.68,10,10,0,0,1,1,4.51c0,5.19-3.45,11-4.83,11-.42,0-3-.84-3-1.42,0-.26.52-.71.71-.9a10.48,10.48,0,0,0,2.35-3.12,1.23,1.23,0,0,0,.16-.48.25.25,0,0,0-.26-.23.54.54,0,0,0-.22,0,3.08,3.08,0,0,1-.74.16c-2.8,0-3.83-3-3.83-5.38,0-3,1.29-5.8,4.54-6.09.23,0,.39-.16.39-.36,0-1.25-.26-1.38-.61-1.38a8.35,8.35,0,0,0-.84.1c-2.35.22-6.41.58-8.63,1a3.07,3.07,0,0,1-.48.06c-.52,0-.58-.45-.68-.87a19,19,0,0,1-.26-2.32c0-.65.32-.58,1.9-.65.87,0,8.44-.45,8.73-.51a1,1,0,0,0,.71-1,23.81,23.81,0,0,0-.35-4v-.26c0-.25.16-.38.42-.38S121.35,72.84,121.74,72.87ZM118,89.08c0,1,.23,2.74,1.51,2.74s1.68-1.64,1.68-2.64-.29-2.83-1.61-2.83S118,88.11,118,89.08Zm13.31-13.76c0,.45-1.13,1.45-1.55,1.45-.16,0-.32-.19-.42-.32-.87-1-1.38-1.61-2.32-2.58-.1-.09-.29-.26-.29-.42,0-.39,1.19-1.32,1.58-1.32A12.32,12.32,0,0,1,131.31,75.32Zm4.45-1.1c0,.49-1.16,1.45-1.58,1.45-.23,0-.71-.68-.9-.9-.58-.68-1.19-1.35-1.8-2-.13-.1-.32-.29-.32-.45,0-.35,1.22-1.29,1.58-1.29A12.45,12.45,0,0,1,135.75,74.22Z"/><path class="cls-5" d="M38.13,106.27c0,.16-.13.26-.3.36-.46.23-.69.26-1.15,1.45-.29.79-.56,1.61-.82,2.4a1.16,1.16,0,0,0-.1.46c0,.56.43.69.89.76,1.12.13,2.24.23,3.35.26.62,0,1.12,0,1.12.63a9.72,9.72,0,0,1-.36,2.14c-.13.46-.26.72-.72.72a41.14,41.14,0,0,1-4.47-.5,1,1,0,0,0-.3-.07c-.53,0-.75.36-.89.79s-.56,2.47-.56,2.73c0,.69.69.72,1.15.75a29.41,29.41,0,0,0,3,.13c.89,0,1,.23,1,.56a7.29,7.29,0,0,1-.43,2.2c-.16.49-.36.76-.92.76-.76,0-2.3-.23-3.09-.33a3.26,3.26,0,0,0-.53-.07c-.89,0-.89.82-.89,2.23,0,2.86,1.51,4.37,4.37,4.37,1.48,0,3.75-.4,4.77-1.54a3.31,3.31,0,0,0,.72-2.33,14.21,14.21,0,0,0-1.12-4.77,1.74,1.74,0,0,1-.13-.59c0-.79,2.43-1.21,2.79-1.21.53,0,.63.53.89,1.25a18,18,0,0,1,1.09,5.75c0,5.09-4.7,6.87-9.07,6.87-5,0-7.89-2.86-7.89-7.86,0-.82.13-2.07.13-2.4,0-.72-.56-.92-1.31-1.15a10.9,10.9,0,0,1-1.94-.79c-.36-.2-.62-.36-.62-.79,0-.2.33-2.79,1.15-2.79a1.82,1.82,0,0,1,.82.33,5.93,5.93,0,0,0,2.1.92c.56,0,.66-.46.86-1.41.06-.36.2-.79.3-1.28a6.81,6.81,0,0,0,.13-.72c0-.72-.59-.92-1.05-1.09-2.3-.89-3-1.18-3-1.78s.53-2.83,1.22-2.83a1.79,1.79,0,0,1,.76.36,20,20,0,0,0,2.23,1.15,1,1,0,0,0,.43.1c.53,0,.66-.43.76-.79.3-1.12,1-3.45,1.28-4.41.1-.36.17-.66.49-.66a12.55,12.55,0,0,1,1.64.53C36.46,105.28,38.13,105.74,38.13,106.27Z"/><path class="cls-6" d="M60.74,112.09c.23.1.59.2.59.46s-.17.29-.3.36c-.53.33-.56.63-.69,1.28-.26,1.51-.46,3.06-.79,4.57a5,5,0,0,0-.1.69c0,.2.1.39.33.39a.74.74,0,0,0,.43-.2c2.43-1.71,4.41-3,7.53-3,4,0,7.17,2.69,7.17,6.84,0,4.67-3.49,6.64-7.46,7.82a22,22,0,0,1-4.27.89c-.72,0-.92-.3-1.22-.92a6.9,6.9,0,0,1-.56-2.14c0-.53.39-.56.82-.59a21.89,21.89,0,0,0,4.37-.66c2.33-.59,4.77-1.61,4.77-4.4,0-2.27-1.84-3.49-3.95-3.49-3.45,0-6.94,2.89-9,5.49-.26.33-.53.69-1,.69-.3,0-2.5-.33-2.5-1.28a5,5,0,0,1,.33-1.15c.3-1.05.56-2.14.76-3.22a52.61,52.61,0,0,0,.79-7.17c0-.26,0-.49,0-.72,0-1,0-1.45.56-1.45A23.45,23.45,0,0,1,60.74,112.09Zm.59-7.1a23.08,23.08,0,0,1,3.75,2.07c.49.3,2.4,1.35,2.4,1.91s-1.35,2.6-2,2.6c-.36,0-.79-.46-1.05-.66a27,27,0,0,0-4.14-2.8c-.33-.2-.76-.36-.76-.72S60.55,105,61.34,105Z"/><path class="cls-5" d="M97.67,125.57c-.07.53-.23,1.64-.23,2.13a1,1,0,0,0,1.08,1.09c1.58,0,3.55-1.15,4.87-2a2.63,2.63,0,0,1,.92-.42c.46,0,.43,1.71.43,2.07,0,.59,0,1.64-.56,2a16.27,16.27,0,0,1-6.08,1.68,3.79,3.79,0,0,1-4-3.78,17.11,17.11,0,0,1,.29-2.6,14.62,14.62,0,0,0,.2-2.07c0-.75-.3-1.18-1.08-1.18a5.28,5.28,0,0,0-2.93,1.38c-1.64,1.42-4.8,5.59-6.25,7.46-.2.23-.59.86-.92.86-.69,0-2.63-1.65-2.63-2.4,0-.39.53-.86.79-1.12,3.75-3.71,7.13-7.76,10.65-11.67.3-.33,1.18-1.22,1.18-1.54a.27.27,0,0,0-.3-.26,20.59,20.59,0,0,0-2,.53c-.76.2-4.6,1.22-5.16,1.22s-.59-.26-.89-.76a2.59,2.59,0,0,0-.23-.4,4.92,4.92,0,0,1-.76-1.84c0-.42.33-.49.69-.52A69.56,69.56,0,0,0,96.58,111a3,3,0,0,1,.92-.23c.79,0,2.3,2.3,2.3,2.79s-.43.62-.72.82a41.5,41.5,0,0,0-4.57,4.44c-.17.17-.43.43-.43.66a.33.33,0,0,0,.33.33c.23,0,.43,0,.66,0,.89,0,2.86.56,2.86,3.29A15.76,15.76,0,0,1,97.67,125.57ZM94.9,107c.33.1.62.23.62.62,0,.17-.46,2.79-1.22,2.79-.23,0-2.07-.66-3.48-1.15-.62-.23-1.18-.43-1.41-.49-1.15-.36-1.87-.5-1.87-1a8.64,8.64,0,0,1,.49-1.68c.33-.89.46-1,.82-1S94.18,106.76,94.9,107Z"/><path class="cls-6" d="M128.42,109.62c0,.23-.36.43-.72.69a31.78,31.78,0,0,0-4.77,4.41,1,1,0,0,0-.33.56c0,.26.26.43.56.43a2,2,0,0,0,.43-.06,6.19,6.19,0,0,1,1.35-.13,9.66,9.66,0,0,1,4,1,6.8,6.8,0,0,1,3.91,6.38c0,5.82-5.16,8.84-10.45,8.84-2.73,0-6.61-1.12-6.61-4.47a4.13,4.13,0,0,1,4.21-4,5.37,5.37,0,0,1,4.37,2.33,3.28,3.28,0,0,1,.59,2.1c0,.23.13.43.39.43a5.34,5.34,0,0,0,4-5.06c0-3.19-2.7-4.5-5.56-4.5a10,10,0,0,0-7.36,3.22c-1.28,1.25-2.47,2.6-3.65,3.95a.44.44,0,0,1-.36.23c-.69,0-2.37-1.84-2.37-2.37s.49-.76.79-1a131.35,131.35,0,0,0,10.22-10.32c.26-.26.86-.85.86-1.18s-.3-.39-.56-.39-.59.1-.79.13c-.79.2-5.42,1.15-6,1.15-.72,0-.82-2.47-.82-3,0-.75,0-.82,1-.82h.79a30.48,30.48,0,0,0,8.32-1.21,4.51,4.51,0,0,1,1.25-.37C126.51,106.57,128.42,109.07,128.42,109.62Zm-8.32,16.3a1.36,1.36,0,0,0-1.41,1.32c0,1.18,1.58,1.74,2.56,1.74.62,0,.89-.59.89-1.12A2,2,0,0,0,120.1,125.93Z"/><path class="cls-5" d="M142.51,57.77a.9.9,0,0,1,.26.23A.5.5,0,0,0,142.51,57.77Z"/><path class="cls-5" d="M142.76,58.84l.17.35c-.14-.38.11-.82-.16-1.19C142.9,58.25,142.69,58.58,142.76,58.84Z"/><path class="cls-5" d="M142.85,67.86l-.11-1.47c0,.09,0,.16,0,.22V64.09c0-.25.11-.75.23-1.79,0-.65-.13-1.81-.23-2.5V58a.22.22,0,0,0-.23-.21H74.41c-.12,0-.79-.06-.13-.18,1.47.2,7.61.15,10.84,0a4.53,4.53,0,0,1-1.33.13A7.65,7.65,0,0,0,86,57.62c2.16-.11,4.89,0,6.91.08l-.58-.12c1.69-.21,4.27.16,7.26,0h-.06a27.82,27.82,0,0,1,3.55-.26c-.49.14-1.44.13-1.34.28l2.64-.2c.47.1,3.46,0,2.49.15,1.57-.23,5,0,3.72-.34-7.75.11-18.45-.08-27.43.21l1.44-.13c-4.66.27-6.39-.29-10.14.24l.5-.27c-2.14-.08-4.09.39-6.32.1l.21.11c-.59,0-.82,0-1.42-.05l.24,0a29.73,29.73,0,0,1-4.05,0c-.11-.09.72,0,1.2-.06-.71-.09-1.92.1-3.11.1-.94-.08,0-.13.14-.17-3.59.12-5.23-.16-7.77.24-.24.07.93.14-.38.17l.7,0H51.22c1.22-.07,2.88-.2,1.28-.34l-.49.09c-2.27.15-1.66-.16-3.43-.23-2.14,0-3.38.42-5.28.33-.83,0-.7-.09-.46-.16-1.91,0-19.84.26-21.14.29-.26-.37-1.73-.32-3.48-.24-.88,0-1.82.1-2.73.1h-.68c-.49.09-.37.55-.39.63s0,.22,0,.32a1.81,1.81,0,0,1,.38-.93c.91,0,1.73,0,2.88,0l-.1.12H14.84a.22.22,0,0,0-.23.21v0a.47.47,0,0,0,0,.2c0,.9,0,1.92,0,2.95-.07-.54-.18-.11-.19-.87s0-1.15,0-1.65a6,6,0,0,1-.1.68c.07,1.62,0,3.78.16,5.83-.21-1.09,0,1.93-.25,1.49.48.58-.21,10,.39,10.39-.17,2.79,0,.12-.1,3.34-.07,0-.07-.55-.08-.76-.13,1.28.26,2,0,3,0,2.06.09,1.12.22,1.42v2.49c-.06.49-.15.59-.3,1.47.29.24.15,1.84.3,3.15a.26.26,0,0,1,0,0v1.23a9.12,9.12,0,0,0-.18-1.31c0,2.48,0,5.5.17,8.2,0,1.51-.15-.77-.18.42a37.77,37.77,0,0,0,.19,4.72v1.37c0,.06,0,.12,0,.18l-.16-.45c.22,1.3,0,4.74.07,7.23a2,2,0,0,1,.1-.33v.23a7.27,7.27,0,0,0,0,1.77v5.3a9.17,9.17,0,0,1-.2-1.49c.14,1.63,0,4.32.18,5.73l-.2-.55a9.2,9.2,0,0,0,.22,2.28v2l-.11-.17c0,4.75-.25,10.33.09,14.13l0,0v3c-.1-.12-.23-.36-.28.93.11,3.36.18,9,.06,13.15.29.43,0,2.44.22,3.22v.1a.23.23,0,0,0,0,.09c0,.17.43.3.47.35,2.76-.05-.18-.14-.07-.23h1.3c.68,0,1.11.14,1,.21,2.05,0,.39-.07,1.21-.21h.21l1.31.28c6.69-.09,32.71-.29,40.31-.12l-.49-.16h9.77c.09.07.13.15-.3.21.93-.06,1.94,0,2.9-.05l-1.72-.09c.24,0,.49-.05.74-.07h1.16a4.78,4.78,0,0,1,1,.14c.69-.05.9-.1.82-.14h4a5.67,5.67,0,0,1-1.2.15,35.72,35.72,0,0,0-3.66,0c.18.07.18.14-.15.2,2.61,0,3.72-.16,6.67,0,.92-.11.4-.22.06-.33h1.44c-.79.07-1.1.16-.44.3a16.36,16.36,0,0,0,2.25,0c-1.95-.07-.65-.18-.06-.26h2.6s0,0-.05,0l-1.58.16c5.05.08,12,.05,17.78,0H99.53a18.92,18.92,0,0,1,2.4-.18h4.66c.31,0,.65,0,1,0h2.17a2.87,2.87,0,0,1-1,.08c1.66.19,4.11.07,6.16.11a6.45,6.45,0,0,0,2-.18h1.64l-.21.14c2.92,0,6.84,0,9.83-.14h2l-.21,0,.54,0h4.14s0,0-.11.07l-.46,0c1,0,2.26-.05,3.38-.09h5a.26.26,0,0,0,.14,0h0v0a.2.2,0,0,0,.09-.16v-4.21a1.47,1.47,0,0,0,0-.15c0-.32,0-.68,0-1.06V82.27c0-.08,0-.16,0-.24a.14.14,0,0,1,0-.06V77.79l0,.15c.11-.49,0-5.22,0-6v0a1.06,1.06,0,0,0,0-.48V67.36ZM49.55,58.95l-1-.06h1A.08.08,0,0,1,49.55,58.95Zm-30,102.16-.1.13H16.72l-.49,0c-1.17-.23-.84-1.55-.88-2.47.07.53.18.11.19.85C15.28,161.77,17.65,161,19.55,161.11Zm41.25,0c1.67-.4,1.27.09,4-.08-.71.16-1.88.16-2.35.25H57.95c1.15,0,2.26-.11,3.44-.17Zm8.47.14a4.12,4.12,0,0,0,1.31-.28,20.35,20.35,0,0,0,2.32,0c.45.16-1.06.15-1.53.24l1.52-.11a4.7,4.7,0,0,1,1.64.18H69.61Zm-54-10.71v-2c0,.15,0,.28.06.42C15.36,149.43,15.34,150.06,15.31,150.5Zm0-56.56V92.71s.06-.06.09-.33A5.1,5.1,0,0,1,15.31,93.94ZM69.53,57.53a21.1,21.1,0,0,0,2.38,0c.46.16-1.08.15-1.57.24l1.56-.11a5.07,5.07,0,0,1,1.68.18h-5l-.36,0A4.42,4.42,0,0,0,69.53,57.53Zm-9.43.14h-.6c1.72-.39,1.3.09,4.06-.08-.73.16-1.93.16-2.4.25H56.57C57.75,57.8,58.89,57.73,60.11,57.66Zm-9.55.12-.07.06H50Zm-36,13.46c0-.5,0-1.14.06-1.59v2C14.59,71.53,14.57,71.38,14.55,71.24Zm.06,59.41v.19c0-.06,0-.13,0-.2Zm-.09,2.68a5.26,5.26,0,0,1,.09-1.6V133S14.56,133.06,14.52,133.34Zm35.65,29-1-.07h1A.09.09,0,0,1,50.18,162.35ZM140,161.23H75.34c-.12,0-.77-.06-.12-.18,1.44.2,7.42.15,10.57,0a4.17,4.17,0,0,1-1.29.13,7.3,7.3,0,0,0,2.11-.17c2.11-.11,4.78,0,6.74.08l-.57-.12c1.65-.21,4.17.16,7.09,0H99.8a26.24,26.24,0,0,1,3.46-.27c-.48.15-1.4.14-1.31.29l2.58-.2c.45.1,3.37,0,2.43.15,1.53-.23,4.88,0,3.63-.34-7.56.11-18-.08-26.76.22l1.4-.14c-4.55.27-6.24-.29-9.9.24l.49-.27c-2.08-.08-4,.39-6.17.1l.21.11c-.58,0-.8-.05-1.39-.05l.23,0a27.7,27.7,0,0,1-4,0c-.1-.09.7,0,1.17-.06-.69-.09-1.87.1-3,.09-.92-.08,0-.12.14-.16-3.51.12-5.1-.16-7.58.24-.24.07.91.14-.37.17l.67,0h-3c1.19-.07,2.8-.2,1.24-.34l-.47.09c-2.22.15-1.61-.16-3.35-.23-2.09,0-3.29.42-5.15.33-.81,0-.68-.09-.44-.16-1.86,0-19.77.26-21,.29-.25-.37-1.68-.32-3.39-.24-1.5-.08-4.22.62-4.42-.55-.18-1.37,0-3.63-.21-5.59.21,1.07,0-1.89.25-1.45-.48-.57.22-5.77-.39-6.13.17-2.72,0-.11.1-3.25.07,0,.07.53.08.74.13-1.25-.26-1.91,0-2.94,0-2-.09-1.09-.22-1.39V138c.06-.48.15-.57.3-1.43-.29-.23-.15-1.79-.3-3.08a.37.37,0,0,0,0,0v-1.2a8.55,8.55,0,0,0,.18,1.28c0-2.42,0-5.37-.17-8,0-1.47.15.75.18-.4a36.82,36.82,0,0,0-.19-4.61v-1.34c0-.06,0-.11,0-.17l.16.44c-.22-1.27,0-4.62-.07-7.05a2.18,2.18,0,0,1-.1.32v-.22a7.1,7.1,0,0,0,0-1.73v-5.17a8.83,8.83,0,0,1,.2,1.46c-.14-1.59,0-4.21-.18-5.59l.21.54a8.86,8.86,0,0,0-.22-2.23V97.91l.11.16c0-4.63.25-10.07-.09-13.78l0,0V81.33c.1.11.23.34.28-.9-.1-3.28-.18-12.85-.07-16.95-.29-.43,0-2.45-.22-3.19v-.12c.08-.12.18-.38.29-.41,1.19-1.32,0-.35-.25-.1v0a1.25,1.25,0,0,1,1.77-.55c2,0,.38-.07,1.19-.21h.19l1.28.28c6.52-.09,32.33-.3,39.74-.12l-.47-.16h9.53c.09.07.13.15-.29.21.91-.06,1.89,0,2.83-.05l-1.68-.09.72-.07H71.3a4.34,4.34,0,0,1,1,.14c.68-.05.88-.1.8-.14h3.95a5.53,5.53,0,0,1-1.17.15,33.39,33.39,0,0,0-3.57,0c.17.07.17.14-.15.2,2.55,0,3.63-.16,6.5,0,.89-.12.39-.23.06-.33h1.4c-.77.07-1.07.16-.43.3a17.07,17.07,0,0,0,2.2,0c-1.9-.07-.63-.18-.06-.26h2.54s0,0-.05,0l-1.54.16c4.93.08,11.68.05,17.35,0H97.69a16.81,16.81,0,0,1,2.34-.18h4.55c.3,0,.63,0,1,0h2.11a2.77,2.77,0,0,1-1,.08c1.62.19,4,.07,6,.11a6.22,6.22,0,0,0,2-.18h1.6l-.21.14c2.84,0,6.67,0,9.58-.14h2l-.21,0,.53,0h4s0,0-.11.06l-.45,0c1,0,2.21-.05,3.3-.09h5l0,0a1.22,1.22,0,0,1,1.32.76,1,1,0,0,1,0,.27V62.4a.71.71,0,0,0,0,.14l0,1v76.67c0,.08,0,.15,0,.23l0,.06v4.07a1.25,1.25,0,0,1,0-.15,7.16,7.16,0,0,0,0,1.85l0-.06v.32l0-.27a1,1,0,0,0,0,.47v2.56l0,0,0,.16v1.33l-.12-.49.11,1.43c0-.09,0-.16,0-.22V154c-.05.24-.12.73-.24,1.75,0,.64.13,1.76.24,2.44v2A1.11,1.11,0,0,1,140,161.23Z"/><path class="cls-5" d="M104.1,162.51c0-.06.42-.09.38-.15C103,162.32,103.2,162.41,104.1,162.51Z"/><path class="cls-5" d="M69.4,162.49l-.53.05Z"/><polygon class="cls-5" points="73.49 162.43 73.52 162.43 73.52 162.43 73.49 162.43"/><path class="cls-5" d="M14.39,58.69v0Z"/><path class="cls-5" d="M113.42,57.22a12.27,12.27,0,0,0-1.79.06,1.16,1.16,0,0,0,.59.06l-1,.17C112.31,57.55,113.65,57.32,113.42,57.22Z"/><path class="cls-5" d="M114.35,57.41a13.72,13.72,0,0,1,1.67-.08l-.13.1,1.91,0-.61.13c2.61.17,1.83-.37,5-.25l0,.24c2.14,0,3.22-.07,5.11.08,0,0,0-.12-.35-.07s-.81-.12-.57-.19c3.24-.19-.5.15,1.76.25a84.57,84.57,0,0,1,9.54-.11c-1.3-.15.63-.31,2.18-.3.71.09-.49.15-.74.22.72,0,1.31.09,2,.05-.93-.14-.32-.32,1.35-.41-3.67-.15-6.58.3-10.27.27.39,0,.29-.1.45-.15-4.24,0-9.47.09-11.16,0-1.42,0-1.69.21-3.48.27l-.81-.17C116.27,57.32,113.3,57.13,114.35,57.41Z"/><path class="cls-5" d="M133.33,57.1a2.66,2.66,0,0,0-.64.06h1.47Z"/><polygon class="cls-5" points="141.04 160.18 141.1 159.1 140.93 158.76 141.04 160.18"/><path class="cls-5" d="M102.14,59.11c0-.06.41-.09.38-.15C101.1,58.92,101.27,59,102.14,59.11Z"/><path class="cls-5" d="M68.29,59.09l-.51,0Z"/><polygon class="cls-5" points="72.32 59.03 72.31 59.03 72.29 59.03 72.32 59.03"/><path class="cls-5" d="M111.64,160.67a1.13,1.13,0,0,0,.57.06l-.95.17c1,0,2.35-.18,2.13-.3A11.37,11.37,0,0,0,111.64,160.67Z"/><path class="cls-5" d="M140.23,160.31c.05,0,.06-.08,0-.13A.32.32,0,0,1,140.23,160.31Z"/><path class="cls-5" d="M131.75,160.71c.38,0,.28-.11.44-.16-4.13,0-9.24.09-10.88,0-1.39-.05-1.65.21-3.4.27l-.79-.17c-.95.11-3.84-.08-2.81.21a12.47,12.47,0,0,1,1.63-.09l-.13.1,1.86,0-.59.13c2.54.17,1.78-.37,4.91-.26l0,.25c2.09,0,3.14-.07,5,.08,0,0,0-.13-.34-.08s-.79-.12-.55-.19c3.16-.19-.49.15,1.71.25a81.23,81.23,0,0,1,9.31-.11c-1.27-.15.61-.31,2.12-.29.69.09-.48.15-.72.22a6.42,6.42,0,0,0,1.78,0c-.54,0-.11-.19,0-.47-.31.19-2.22.07-3.46.21C135.15,160.62,133.55,160.72,131.75,160.71Z"/><path class="cls-5" d="M132.81,160.5a3,3,0,0,0-.62.05h1.43Z"/><path class="cls-5" d="M138.22,159.54h.93a.42.42,0,0,0,.44-.4V61a.42.42,0,0,0-.44-.39H17.62a.42.42,0,0,0-.44.39v98.17a.42.42,0,0,0,.44.4h120.6ZM17.94,158.3l0-96.68A.94.94,0,0,1,18.9,61l119.2,0a.89.89,0,0,1,.74.84V158.3a.92.92,0,0,1-1,.87l-119.2,0A.89.89,0,0,1,17.94,158.3Z"/><path class="cls-5" d="M140.45,65.63a12.08,12.08,0,0,0-2.36-3.14,13.27,13.27,0,0,1,3.05-2.69c.61-.42,1.23-.8,1.86-1.15a6.27,6.27,0,0,0-.67-.54,5.73,5.73,0,0,0-1.18-.69,10.86,10.86,0,0,0-4-.8A15.7,15.7,0,0,0,133,57V56.1c0-.77,0-1.55,0-2.33a3.81,3.81,0,0,0-.5-2A4.74,4.74,0,0,0,131,50.39c-1.81-1.21-4.19-1.44-6.4-1.65a50,50,0,0,0-5.64-.25c-1.42,0-2.84.1-4.26.21-3.4.26-6.79.64-10.17,1-3.18.37-6.36.77-9.55,1.09s-6.39.54-9.6.71c-4.13.23-8.26.29-12.4.13-3.55-.14-7.09-.39-10.63-.69-3-.25-6-.63-9-1-3.44-.41-6.88-.81-10.33-1.12-1.54-.14-3.08-.26-4.61-.34s-3.32-.06-5,0a35,35,0,0,0-4.86.52,12.25,12.25,0,0,0-3,.93,5,5,0,0,0-2.52,2.06A6.37,6.37,0,0,0,22.74,55v2.17a15.79,15.79,0,0,0-2.84-.47,12.49,12.49,0,0,0-4.14.52,6.75,6.75,0,0,0-1.65.77,5.57,5.57,0,0,0-1,.76,21.24,21.24,0,0,1,1.9,1,13.25,13.25,0,0,1,3,2.66c-.07.07-.14.21-.22.28A13.9,13.9,0,0,0,15.5,66a21,21,0,0,0-1.58,3.51l-.23.68a14,14,0,0,1,1.75-1,6.91,6.91,0,0,1,2.49-.59,11.41,11.41,0,0,1,3.36.5,23.93,23.93,0,0,0,4.34.87,28.47,28.47,0,0,0,3.18.14c.56,0,1.12,0,1.68-.08a4.21,4.21,0,0,0,1.34-.28,2.22,2.22,0,0,0,1.37-1.35.79.79,0,0,0,0-.14,5.85,5.85,0,0,0,.08-.93V63c1.62-.13,3.26-.18,4.88-.19,3.08,0,6.17.11,9.23.33,4,.29,7.93.74,11.87,1.26,1.89.25,3.78.51,5.69.68s3.63.27,5.45.36c2.47.12,4.95.2,7.42.2,1.9,0,3.8-.06,5.69-.13,3.57-.14,7.15-.35,10.69-.81,4.08-.54,8.15-1.06,12.25-1.41,3.13-.27,6.27-.45,9.41-.48,2.16,0,4.34,0,6.5.19v.57c0,1.54,0,4.64.07,4.64a.65.65,0,0,0,0,.14,2.21,2.21,0,0,0,1.34,1.34,4.2,4.2,0,0,0,1.3.29c.56,0,1.12.07,1.68.08A29.11,29.11,0,0,0,130,70a29.42,29.42,0,0,0,4.79-.87,11.4,11.4,0,0,1,3.35-.51,7.5,7.5,0,0,1,3.78,1.28l.51.33c-.11-.31-.2-.63-.32-1a22.73,22.73,0,0,0-1.68-3.59"/><path class="cls-3" d="M142.08,70.45a.27.27,0,0,1-.15,0l-.5-.32a7.26,7.26,0,0,0-3.6-1.19,11.35,11.35,0,0,0-3.25.48l-.5.14a30.48,30.48,0,0,1-4.4.71,29.62,29.62,0,0,1-3.22.13c-.55,0-1.13,0-1.7-.08a4.88,4.88,0,0,1-1.48-.33,2.72,2.72,0,0,1-1.67-1.67,1,1,0,0,1,0-.2h0a40.56,40.56,0,0,1-.1-4.59v0c-1.41-.1-2.95-.15-4.69-.15h-1.16c-2.84,0-5.88.18-9.3.46-4.06.34-8.05.84-12.12,1.37-3.74.49-7.49.67-10.66.79-2.29.08-4,.12-5.67.13-2.16,0-4.51-.07-7.39-.2-2-.09-3.77-.21-5.43-.36-1.82-.15-3.63-.39-5.39-.62l-.29,0c-4.29-.56-8.13-1-11.74-1.22-3.37-.24-6.31-.35-9.11-.32-1.57,0-3,.05-4.25.14v3.61a3.68,3.68,0,0,1-.09,1l0,.16A2.72,2.72,0,0,1,32.43,70a4.94,4.94,0,0,1-1.51.31c-.6,0-1.16.07-1.7.08h-.37c-.93,0-1.89-.05-2.85-.15a23.52,23.52,0,0,1-3.86-.69l-.61-.16a11.14,11.14,0,0,0-3.25-.48,6.57,6.57,0,0,0-2.37.55,13.16,13.16,0,0,0-1.7,1,.31.31,0,0,1-.44-.14.8.8,0,0,1-.07-.65l.22-.66a20.92,20.92,0,0,1,1.61-3.52,15,15,0,0,1,2.19-3.1,13.89,13.89,0,0,0-2.51-2,8.39,8.39,0,0,0-1.13-.61l-.72-.36a.58.58,0,0,1-.25-.48.72.72,0,0,1,.17-.55,6.51,6.51,0,0,1,1-.78A7.31,7.31,0,0,1,16,56.73a12.4,12.4,0,0,1,3.7-.52h.5a16.15,16.15,0,0,1,2.37.34V54.73A5.56,5.56,0,0,1,23,52a5.51,5.51,0,0,1,2.78-2.25,12.9,12.9,0,0,1,3.14-1,37.73,37.73,0,0,1,4.9-.51c1.76-.09,3.43-.09,5,0,1.34.06,2.81.16,4.6.32,3.41.3,6.86.7,10.19,1.09l1.45.17c2.46.29,5,.58,7.5.79,4,.33,7.34.55,10.52.67q5.76.22,12.25-.13c3.68-.2,6.7-.42,9.49-.69,2.32-.22,4.67-.5,6.94-.77l2.52-.29c3.57-.41,6.79-.76,10.11-1,1.16-.09,2.7-.19,4.26-.21a52.38,52.38,0,0,1,5.66.25h.12c2.16.21,4.62.44,6.51,1.69a5.11,5.11,0,0,1,1.62,1.57,4.17,4.17,0,0,1,.58,2.18c0,.5,0,1,0,1.52v.94a17.09,17.09,0,0,1,2.93-.28l.83,0a10.81,10.81,0,0,1,4,.8,5.62,5.62,0,0,1,1.24.71l.18.13a5.37,5.37,0,0,1,.51.42.69.69,0,0,1,.17.55.58.58,0,0,1-.25.48c-.66.36-1.26.72-1.82,1.1a14.42,14.42,0,0,0-2.51,2,14.18,14.18,0,0,1,2,2.72,22,22,0,0,1,1.72,3.59c.08.22.16.45.23.69l.08.25a.79.79,0,0,1-.06.65A.35.35,0,0,1,142.08,70.45Z"/><path class="cls-3" d="M18.21,68a12.3,12.3,0,0,1,3.16.51l.61.17a21.78,21.78,0,0,0,3.72.7c.93.09,1.86.14,2.75.14h.36c.52,0,1.05,0,1.64-.08a3.83,3.83,0,0,0,1.16-.24,1.64,1.64,0,0,0,1-1,.4.4,0,0,0,0-.08l0-.07c0-.13,0-.55,0-.76V63a.6.6,0,0,1,.55-.6c1.47-.12,3.08-.18,4.92-.19,2.84,0,5.84.09,9.28.34,3.66.27,7.56.68,11.91,1.26l.29,0c1.76.23,3.58.48,5.38.64s3.43.26,5.42.36c2.88.13,5.23.2,7.39.2,1.63,0,3.38,0,5.67-.12,3.17-.12,6.91-.32,10.63-.81,4.12-.55,8.16-1.06,12.28-1.41,3.48-.3,6.57-.46,9.46-.48h1.18c2,0,3.78.07,5.38.2A.59.59,0,0,1,123,63v.57c0,1.52,0,4.21.06,4.55l0,.07a1.62,1.62,0,0,0,1,.95,3.6,3.6,0,0,0,1.13.25c.56,0,1.11.07,1.64.08a29,29,0,0,0,3.12-.13,28.07,28.07,0,0,0,4.26-.73l.51-.14a11.61,11.61,0,0,1,3.43-.52,7.5,7.5,0,0,1,3.42,1,22.79,22.79,0,0,0-1.44-3,11.92,11.92,0,0,0-2.26-3,.67.67,0,0,1-.2-.46.77.77,0,0,1,.14-.51A13.76,13.76,0,0,1,141,59.26c.34-.23.7-.46,1.07-.69a5.25,5.25,0,0,0-1-.57,10.32,10.32,0,0,0-3.85-.78l-.82,0a14.76,14.76,0,0,0-3.28.39.59.59,0,0,1-.71-.58V55.32c0-.51,0-1,0-1.54a3.18,3.18,0,0,0-.41-1.65,4.12,4.12,0,0,0-1.28-1.25c-1.66-1.11-3.87-1.33-6-1.54h-.12a50.1,50.1,0,0,0-5.57-.25c-1.54,0-3.06.12-4.22.21-3.33.25-6.56.62-10.14,1l-2.54.3c-2.29.27-4.67.55-7,.8-2.83.28-5.89.51-9.62.71q-6.6.36-12.46.13c-3.22-.13-6.61-.35-10.65-.7-2.54-.21-5.12-.52-7.6-.82l-1.45-.17c-3.35-.39-6.82-.8-10.24-1.11-1.8-.16-3.26-.27-4.59-.33q-2.32-.11-4.93,0a34.88,34.88,0,0,0-4.78.51,11.68,11.68,0,0,0-2.87.88,4.47,4.47,0,0,0-2.25,1.78,4.81,4.81,0,0,0-.31,2.22v2.61a.6.6,0,0,1-.22.46.58.58,0,0,1-.49.13,14,14,0,0,0-2.74-.46,12.24,12.24,0,0,0-4.05.5,6.43,6.43,0,0,0-1.58.73l-.13.09a7.5,7.5,0,0,1,1.07.61A13.47,13.47,0,0,1,18.3,62a.76.76,0,0,1,.14.51.66.66,0,0,1-.2.46l0,.06a1.33,1.33,0,0,1-.17.21,13.67,13.67,0,0,0-2.23,3.17A22.44,22.44,0,0,0,14.55,69c.26-.15.53-.29.8-.41A7,7,0,0,1,17.94,68Z"/><path class="cls-7" d="M32.69,63.6v3.28a1.88,1.88,0,0,0-.46-.27,4.75,4.75,0,0,0-2.89.12,20.21,20.21,0,0,1-3,.55,8.27,8.27,0,0,1-1.43,0A2.38,2.38,0,0,1,23.74,67a.86.86,0,0,1-.3-.38s0-.25-.07-.35a.29.29,0,0,0,0-.07,1.35,1.35,0,0,1,.15-.2,3.77,3.77,0,0,1,.73-.64,12.32,12.32,0,0,1,4.19-1.59,34.16,34.16,0,0,1,4.19-.65Z"/><path class="cls-3" d="M25.42,68.19c-.21,0-.43,0-.64,0a3.16,3.16,0,0,1-1.53-.49,1.69,1.69,0,0,1-.61-.77,2.54,2.54,0,0,1-.08-.32l0-.13a.85.85,0,0,1,.12-.66l0-.07a3.39,3.39,0,0,1,.23-.31,4.57,4.57,0,0,1,.9-.79,13.22,13.22,0,0,1,4.49-1.71,35.67,35.67,0,0,1,4.3-.67.85.85,0,0,1,.66.22.87.87,0,0,1,.28.64v3.79a.86.86,0,0,1-1.39.68,1.17,1.17,0,0,0-.25-.15,4.23,4.23,0,0,0-2.29.14l-.08,0a20.77,20.77,0,0,1-3.18.57C26,68.17,25.7,68.19,25.42,68.19Z"/><path class="cls-5" d="M24.4,66.34a2.38,2.38,0,0,0,.55.1,6.75,6.75,0,0,0,1.26,0,19,19,0,0,0,2.92-.53l.08,0a8.16,8.16,0,0,1,2-.31,4,4,0,0,1,.64,0V64.05a30.32,30.32,0,0,0-3.14.53A11.72,11.72,0,0,0,24.79,66,3,3,0,0,0,24.4,66.34Z"/><path class="cls-7" d="M126.2,63.53a21.7,21.7,0,0,1,3.09.78,11.28,11.28,0,0,1,1.51.65,4.89,4.89,0,0,1,1,.62,2.1,2.1,0,0,1,.61.67c-.07,1.22-1.9,1.14-2.91,1a20.15,20.15,0,0,1-3-.55,4.75,4.75,0,0,0-2.9-.12,2.18,2.18,0,0,0-.46.26V64.48c0-.46,0-.84.34-1.11a6.76,6.76,0,0,1,2.81.15"/><path class="cls-3" d="M130.35,68.19c-.38,0-.74,0-1-.05a20.67,20.67,0,0,1-3.17-.57,4.36,4.36,0,0,0-2.38-.16,1.29,1.29,0,0,0-.24.14.86.86,0,0,1-1.39-.68V64.37a1.81,1.81,0,0,1,.72-1.7,2.12,2.12,0,0,1,1.14-.25,13.88,13.88,0,0,1,2.31.27,21.41,21.41,0,0,1,3.21.81,12.64,12.64,0,0,1,1.63.69,6.38,6.38,0,0,1,1.1.71,2.82,2.82,0,0,1,.84,1,.86.86,0,0,1,.08.41C133.17,67,132.75,68.19,130.35,68.19Z"/><path class="cls-5" d="M124.55,65.57a8.27,8.27,0,0,1,2,.32,19.29,19.29,0,0,0,3,.54c.24,0,.53,0,.83,0a2.82,2.82,0,0,0,1-.13l-.12-.1a5.08,5.08,0,0,0-.81-.52,10.31,10.31,0,0,0-1.39-.6,20.85,20.85,0,0,0-3-.74,12.57,12.57,0,0,0-2-.24h-.13c0,.07,0,.15,0,.22v1.26A4.07,4.07,0,0,1,124.55,65.57Z"/><path class="cls-8" d="M32.35,68.7a3.09,3.09,0,0,1-2.18.78,27.07,27.07,0,0,1-3.28,0,24.07,24.07,0,0,1-4.92-.8A15,15,0,0,0,18.44,68a7.46,7.46,0,0,0-3.89,1l.1-.26a23.2,23.2,0,0,1,1.92-3.71,12.75,12.75,0,0,1,1.17-1.59,6.28,6.28,0,0,1,1-.86A14.84,14.84,0,0,0,14,58.53a5.76,5.76,0,0,1,1.85-.93,12.21,12.21,0,0,1,4.2-.5,13.34,13.34,0,0,1,2.2.27,1.26,1.26,0,0,0,.51.2v8.62h0A1.6,1.6,0,0,0,24,67.72a7.24,7.24,0,0,0,2.9.05,28.23,28.23,0,0,0,3.12-.64c.72-.18,1.8-.3,2.34.27a1,1,0,0,1-.05,1.3"/><path class="cls-9" d="M32.69,63.6v3.28a1.88,1.88,0,0,0-.46-.27,4.75,4.75,0,0,0-2.89.12,20.21,20.21,0,0,1-3,.55,8.27,8.27,0,0,1-1.43,0A2.38,2.38,0,0,1,23.74,67a.86.86,0,0,1-.3-.38s0-.25-.07-.35a.29.29,0,0,0,0-.07,1.35,1.35,0,0,1,.15-.2,3.77,3.77,0,0,1,.73-.64,12.32,12.32,0,0,1,4.19-1.59,34.16,34.16,0,0,1,4.19-.65Z"/><path class="cls-8" d="M108.22,62.62c-4,.29-7.94.73-11.89,1.26-1.89.25-3.76.51-5.66.67s-3.61.27-5.42.36c-2.46.12-4.93.2-7.39.2H76.73c-3,0-6-.15-9-.35-1.81-.12-3.61-.27-5.4-.49-2.09-.25-4.18-.56-6.27-.81-3.68-.44-7.37-.79-11.07-1a92.18,92.18,0,0,0-9.87-.09,34.18,34.18,0,0,0-8.33,1.25,9,9,0,0,0-3.37,1.69V55.93c0-.81,0-1.63,0-2.44a2.93,2.93,0,0,1,.8-1.93,5.54,5.54,0,0,1,1.2-.94,9.36,9.36,0,0,1,2.51-1,25.62,25.62,0,0,1,4.25-.61,50.35,50.35,0,0,1,5.33-.15c3.15.1,6.29.42,9.41.75,3.4.37,6.8.79,10.2,1.18,2.87.33,5.73.59,8.61.8,4,.3,8,.53,12,.54s8.05-.23,12.06-.52q4.33-.31,8.63-.8c3.39-.39,6.79-.81,10.19-1.18,3.14-.34,6.29-.67,9.45-.77a51.45,51.45,0,0,1,5.28.12,27.92,27.92,0,0,1,4.34.59,9.55,9.55,0,0,1,2.57,1,6,6,0,0,1,1.12.82,2.94,2.94,0,0,1,.95,1.93c.08.82,0,1.65,0,2.48v9.49a5.47,5.47,0,0,0-.51-.4,12.82,12.82,0,0,0-4.43-1.71,47,47,0,0,0-10-.92c-3.08,0-6.17.12-9.25.35"/><path class="cls-9" d="M126.2,63.53a21.7,21.7,0,0,1,3.09.78,11.28,11.28,0,0,1,1.51.65,4.89,4.89,0,0,1,1,.62,2.1,2.1,0,0,1,.61.67c-.07,1.22-1.9,1.14-2.91,1a20.15,20.15,0,0,1-3-.55,4.75,4.75,0,0,0-2.9-.12,2.18,2.18,0,0,0-.46.26V64.48c0-.46,0-.84.34-1.11a6.76,6.76,0,0,1,2.81.15"/><path class="cls-8" d="M138.66,68c-2.45-.26-4.57.9-8.22,1.31a28.17,28.17,0,0,1-3.14.18c-.56,0-1.11,0-1.66-.06a5,5,0,0,1-1.42-.23,1.58,1.58,0,0,1-1.12-1.17c-.07-.6.48-1,1.1-1.07a3.81,3.81,0,0,1,1.4.09c.52.13,1,.26,1.56.38a16,16,0,0,0,3,.4,3.17,3.17,0,0,0,2.46-.74,1.38,1.38,0,0,0,.27-.49s.1-.46.05-.46h0s0,0,0-.08V62.81c0-1.74-.06-4.35.2-4.88a1.31,1.31,0,0,1,1.1-.63,13.48,13.48,0,0,1,4.39-.06,7.14,7.14,0,0,1,3.47,1.3,14.87,14.87,0,0,0-4.73,4.08l.1.07a9.26,9.26,0,0,1,2.23,2.66A23.6,23.6,0,0,1,141.6,69a7.71,7.71,0,0,0-2.94-1"/><path class="cls-10" d="M30.77,54.21c-.08,0-.13-.08-.17-.14a9,9,0,0,0-1-1.21s-.12-.11-.12-.17.34-.43.49-.44a.21.21,0,0,1,.17.1,5.94,5.94,0,0,1,.52.56,5,5,0,0,1,.64.87C31.3,53.93,30.88,54.2,30.77,54.21Zm-.4,5.12c0,.07,0,.17-.1.17a.13.13,0,0,1-.11-.05l-.35-.53a.46.46,0,0,1-.09-.2c0-.1.08-.16.22-.25a5.2,5.2,0,0,0,.52-.43.39.39,0,0,0,.14-.37l-.09-1.47c0-.16-.08-.23-.25-.22h0l-.39,0c-.18,0-.18-.11-.2-.38s0-.4.14-.41h.5l.53-.05c.28,0,.44.06.46.36s0,.46,0,.69l.07,1.05c0,.53.19,1,.75,1.11a3.22,3.22,0,0,0,1,.05l1.71-.09,1.59-.11.58-.06c.16,0,.22,0,.23.19,0,.59-.25.6-.41.61-.85.08-3.75.28-4.47.23a1.76,1.76,0,0,1-1.12-.5.17.17,0,0,0-.15-.07.19.19,0,0,0-.13.07l-.47.46A.28.28,0,0,0,30.37,59.33Zm2.33-6.15c.14,0,.2-.07.19-.21v0c0-.14-.07-.19-.21-.18h-.21l-.73.05c-.19,0-.18,0-.2-.29s0-.3.15-.31l.74,0,.31,0,.49,0c.21,0,.34,0,.35.24s0,.26,0,.42l0,.23c0,.15,0,.25,0,.32a.57.57,0,0,1,0,.15.1.1,0,0,0,.09.1c.22,0,.36.05.37.2a1.23,1.23,0,0,1-.25.76,1,1,0,0,1-.66.19l-.43,0c-.52,0-1,.05-1-.45,0-.1,0-.21,0-.31v-.18c0-.15,0-.24,0-.34,0-.25.1-.29.28-.31h.73Zm1,3.79s-.09,0-.09.07.06.09.1.12.29.23.3.3,0,.08-.09.08H33.8s-.08,0-.11.06a6.22,6.22,0,0,1-1.37.75c-.18,0-.44-.35-.45-.45s.09-.11.14-.13a5.6,5.6,0,0,0,1.2-.63.08.08,0,0,0,0-.07s-.05-.06-.09-.06l-.52,0-.85.07c-.17,0-.17-.09-.19-.31s0-.33.14-.34l.85,0h.18c.13,0,.19-.07.18-.2v0c0-.12-.06-.19-.2-.18l-.66.06c-.18,0-.17-.1-.19-.31s0-.33.15-.34l.64,0c.13,0,.19-.08.19-.22s0-.16,0-.19.06-.11.13-.12l.67,0c.08,0,.22,0,.23.09s-.05.08-.11.13a.15.15,0,0,0,0,.08c0,.1.11.13.2.13l.46,0c.13,0,.21-.06.21-.2a1.9,1.9,0,0,1,0-.21c0-.09.05-.11.12-.12h.68c.08,0,.21,0,.22.1s0,.07-.09.12a.12.12,0,0,0,0,.09c0,.11.13.13.22.13l.67-.06c.18,0,.18.09.2.32s0,.32-.15.33l-.66,0h-.09c-.13,0-.19.07-.19.21v.05c0,.13.07.19.21.18l.29,0,.84-.07c.17,0,.18.09.19.31s0,.31-.15.32l-.84,0-.55,0a.07.07,0,0,0-.07.06.07.07,0,0,0,0,.06,6.85,6.85,0,0,0,1.25.45c.17,0,.19.06.19.13s-.15.51-.33.52-1.79-.57-1.81-.8c0-.08.12-.22.18-.27s0,0,0-.06a.07.07,0,0,0-.08-.06Zm-1.06-3.23c-.13,0-.18.06-.18.21s0,.27.35.25H33c.22,0,.38,0,.41-.28v0c0-.12-.09-.16-.19-.16Zm1.31,2.17a.19.19,0,0,0-.19.21v0a.19.19,0,0,0,.21.18l.52,0a.18.18,0,0,0,.19-.21v0a.19.19,0,0,0-.21-.18ZM35.4,53c.13,0,.19-.07.18-.21v0c0-.14-.07-.2-.2-.19l-.31,0-.72.05c-.19,0-.19,0-.21-.29s0-.3.16-.31L35,52l.41,0,.49,0c.21,0,.33,0,.35.24s0,.26,0,.42v.23c0,.17,0,.26,0,.37s0,.17.13.17.35.06.36.19a1.5,1.5,0,0,1-.24.81,1.1,1.1,0,0,1-.67.2l-.57,0c-.52,0-1,.06-1-.45,0-.1,0-.21,0-.31v-.18c0-.15,0-.24,0-.33,0-.25.09-.3.28-.31h.51Zm-.18.57c-.14,0-.19.06-.19.2s0,.28.35.26l.31,0c.31,0,.37-.06.41-.28v0c0-.12-.09-.15-.19-.16Z"/><path class="cls-10" d="M42.31,54.68A8.71,8.71,0,0,0,44.88,57c.07,0,.17.08.16.18s-.42.77-.64.76a2.62,2.62,0,0,1-.65-.4,12.81,12.81,0,0,1-2.06-2.16c-.25-.32-.43-.54-.61-.54s-.62.38-.81.54c-.34.28-.79.64-1.09,1-.05,0-.13.14-.21.13s-.67-.71-.66-.86.2-.16.26-.19a7.62,7.62,0,0,0,1.37-1c.33-.26.72-.65,1.17-.63S42,54.31,42.31,54.68Zm1.81-.35c0,.11-.3.37-.41.37s-.12-.11-.26-.26-.28-.32-.46-.5a.12.12,0,0,1-.06-.1c0-.1.33-.35.4-.35A3.17,3.17,0,0,1,44.13,54.33Zm.94-.54a.68.68,0,0,1-.4.38s-.08-.05-.1-.09c-.17-.21-.42-.48-.61-.67,0,0-.07-.06-.07-.1s.32-.35.41-.35A3.16,3.16,0,0,1,45.07,53.79Z"/><path class="cls-10" d="M51.57,53.82c0,.06-.1.1-.19.16a8.29,8.29,0,0,0-1.29,1,.29.29,0,0,0-.1.14c0,.06.06.11.13.12h.11a1.92,1.92,0,0,1,.34,0,2.45,2.45,0,0,1,1,.32,1.73,1.73,0,0,1,.86,1.69,2.39,2.39,0,0,1-2.81,2c-.69-.05-1.65-.41-1.58-1.26a1,1,0,0,1,1.14-.93,1.35,1.35,0,0,1,1.06.68.82.82,0,0,1,.11.54c0,.06,0,.11.09.12a1.35,1.35,0,0,0,1.1-1.2c.06-.81-.6-1.19-1.32-1.25a2.54,2.54,0,0,0-1.92.67c-.35.29-.67.61-1,.93a.12.12,0,0,1-.09.05c-.18,0-.56-.51-.55-.64s.14-.19.22-.24a33.18,33.18,0,0,0,2.78-2.41c.07-.06.23-.2.24-.28s-.07-.1-.14-.11l-.2,0c-.2,0-1.39.19-1.53.18s-.16-.64-.15-.78,0-.21.27-.19l.2,0A7.68,7.68,0,0,0,50.5,53a1.18,1.18,0,0,1,.32-.07C51.15,53,51.58,53.67,51.57,53.82Zm-2.41,4a.34.34,0,0,0-.38.3c0,.3.36.47.61.49s.24-.13.25-.26A.51.51,0,0,0,49.16,57.78Z"/><path class="cls-10" d="M57.51,56.49s-.06,0-.07.05a6.62,6.62,0,0,1-3,3.29A1,1,0,0,1,54,60c-.21,0-.52-.48-.5-.68s.12-.13.23-.18a6.18,6.18,0,0,0,3.59-5.24c0-.24,0-.48.05-.73s.06-.25.22-.23.57.1.71.14.23,0,.22.14-.1.11-.16.13a.15.15,0,0,0-.1.13c0,.26-.06.52-.09.79,0,.06,0,.13,0,.18a7.26,7.26,0,0,0,.23,1.91,6.46,6.46,0,0,0,2.36,3.47c.08.06.19.13.18.22s-.41.6-.61.58a3.45,3.45,0,0,1-.86-.69,7,7,0,0,1-1.86-3.39S57.55,56.5,57.51,56.49Z"/><path class="cls-10" d="M65.63,59.13c0,.08,0,.12.08.17a8.8,8.8,0,0,1,.78.8c.05.06.13.14.12.22s-.26.55-.5.53-.17-.1-.23-.17c-.25-.3-.49-.59-.77-.86a.28.28,0,0,0-.15-.08.31.31,0,0,0-.17.06,8.2,8.2,0,0,1-1.76,1,.89.89,0,0,1-.36.12c-.17,0-.42-.49-.41-.64s.11-.12.22-.16l.07,0a7.31,7.31,0,0,0,1.59-.8.16.16,0,0,0,.07-.12.15.15,0,0,0-.07-.14,7.59,7.59,0,0,0-.82-.52c-.09,0-.26-.12-.25-.23s.36-.49.5-.47a5.79,5.79,0,0,1,1.17.72.32.32,0,0,0,.14.05.24.24,0,0,0,.19-.08,4,4,0,0,0,.53-.68c0-.07.1-.2.19-.19a2.14,2.14,0,0,1,.46.26l.09.06c.08.05.25.15.24.23s-.07.08-.12.08-.14,0-.25.16a5.07,5.07,0,0,1-.5.59A.27.27,0,0,0,65.63,59.13Zm-.94-4a.38.38,0,0,0-.37.13c-.18.18-1.07,1-1.3,1s-.51-.3-.49-.47.13-.14.21-.21a6.13,6.13,0,0,0,1.84-1.92s.06-.09.12-.08a4,4,0,0,1,.57.22c.17.07.31.11.3.2s-.1.08-.15.09a.25.25,0,0,0-.21.14l-.06.08a.18.18,0,0,0,0,.08c0,.08.07.11.12.12l3.34.34.95.08c.2,0,.19.09.16.37s0,.35-.23.33l-.94-.11Zm-.5,2.17-1-.08c-.19,0-.17-.11-.15-.39s0-.37.23-.35l1,.13,3.4.34.59,0c.31,0,.5.08.47.43s-.14.87-.19,1.37c0,.26-.14,1.86.15,1.89s.37-.82.4-1,.06-.2.22-.18.46.13.44.35a4.42,4.42,0,0,1-.28,1c-.17.39-.45.76-.93.71a.85.85,0,0,1-.73-.64,7.47,7.47,0,0,1-.09-2.56c0-.16,0-.33.06-.49s0-.23-.2-.25Zm.91-1.07-.82-.06c-.19,0-.17-.14-.15-.35s0-.33.21-.31l.82.1,2.51.26.82.06c.19,0,.17.13.15.36s0,.32-.22.3l-.82-.1Z"/><path class="cls-10" d="M74.46,57.61a.2.2,0,0,0-.08.13.17.17,0,0,0,.07.14,3.39,3.39,0,0,1,1.07,2.64c0,1.23-.52,1.46-1.67,1.42-.46,0-.62-.08-.6-.63,0-.12,0-.26.18-.25h.11l.46,0c.47,0,.68,0,.7-.71a1.07,1.07,0,0,0,0-.17.11.11,0,0,0-.1-.12.13.13,0,0,0-.09,0,9.92,9.92,0,0,1-2.64,1.3,1.25,1.25,0,0,1-.29.06c-.18,0-.39-.35-.38-.53s.14-.14.29-.18a9.49,9.49,0,0,0,2.9-1.36.23.23,0,0,0,.1-.17.34.34,0,0,0-.06-.19.16.16,0,0,0-.15-.1.23.23,0,0,0-.14,0,8.61,8.61,0,0,1-2.28,1.17,1.44,1.44,0,0,1-.29.07c-.17,0-.34-.37-.33-.52s.11-.13.23-.17a9.83,9.83,0,0,0,2.32-1,.2.2,0,0,0,.1-.15.21.21,0,0,0-.06-.14.17.17,0,0,0-.14-.09.14.14,0,0,0-.08,0,11.2,11.2,0,0,1-1.9.8,1.43,1.43,0,0,1-.26.06c-.17,0-.34-.39-.34-.55s.15-.14.27-.18a8.7,8.7,0,0,0,2-.81.06.06,0,0,0,0-.05s0-.06-.07-.07h-.17l-.95,0c-.2,0-.18-.12-.18-.28s-.08-.18-.19-.18h-.2c-.32,0-.46,0-.45-.21s0-.22,0-.34V56c0-.19,0-.34,0-.44,0-.29.25-.33.68-.31l.73,0,1.42.06c.17,0,.24-.06.24-.21a2.73,2.73,0,0,0,0-.49s0-.05,0-.08.09-.11.16-.11.63.08.8.1.16,0,.16.11-.05.07-.1.11-.11.17-.11.41.07.21.23.22l1.41.06.88,0c.23,0,.51.06.5.36,0,.09,0,.26,0,.44l0,.37c0,.11,0,.23,0,.34s-.14.18-.46.17h-.21c-.11,0-.18,0-.2.13s0,.25-.2.25l-.94-.05H76c-.09,0-.18,0-.18.14a.24.24,0,0,0,0,.07c.08.26.17.47.28.74,0,.06.08.12.17.12a.25.25,0,0,0,.13,0,6.6,6.6,0,0,0,.82-.61c.06,0,.1-.1.16-.1s.2.15.48.49c.06.07.15.17.15.23a.09.09,0,0,1-.09.09l-.07,0-.07,0a.21.21,0,0,0-.09,0,10.92,10.92,0,0,1-.92.6c-.06,0-.11.1-.12.17a.26.26,0,0,0,0,.13A7.33,7.33,0,0,0,78,60.92s.18.15.18.23-.43.46-.59.45-.87-.78-1-1a8.62,8.62,0,0,1-1.51-3,.26.26,0,0,0-.23-.21.42.42,0,0,0-.23.09Zm2.92-1.15c0-.16-.06-.24-.23-.25L72.38,56c-.17,0-.24.07-.24.23v.15c0,.13.08.15.19.16l.93.05,3,.12c.31,0,.62,0,.94,0,.1,0,.19,0,.2-.13Z"/><path class="cls-10" d="M83.54,55.42c0,.12.06.16.16.16l1.87-.06.71,0c.27,0,.42,0,.44.33l0,.74c0,.1,0,.2,0,.3s-.1.19-.4.19-.42,0-.42-.16,0-.21,0-.31v-.27c0-.15-.08-.22-.24-.21l-1.9.06c-.16,0-.23.07-.23.23l0,.56c0,.27,0,.54,0,.81s-.09.25-.44.26-.44,0-.45-.24,0-.55,0-.82l0-.56c0-.15-.07-.22-.24-.21l-1.88.06c-.16,0-.22.07-.22.23v.24c0,.11,0,.21,0,.32s-.14.17-.41.18-.42,0-.42-.16,0-.22,0-.31l0-.74c0-.29.14-.33.4-.34h.73l1.85-.05c.12,0,.16-.06.15-.17v0c0-.11,0-.15-.16-.15l-1.09,0-.93,0c-.18,0-.18-.06-.19-.3s0-.3.17-.31l.93,0,3.38-.11.92,0c.19,0,.19.05.2.29s0,.31-.18.32h-.93l-1.12,0c-.12,0-.16,0-.16.16Zm-.65,5.42c0-.16-.07-.23-.23-.22l-1.16,0c-.15,0-.25,0-.25.16s-.06.18-.41.19h-.13c-.17,0-.27,0-.27-.17s0-.4,0-.59l0-1.2c0-.16,0-.32,0-.48s.08-.31.39-.32h.8l3.31-.1.74,0c.35,0,.45,0,.46.28s0,.33,0,.49l0,.88c0,.16,0,.32,0,.47s-.07.31-.48.32h-.7l-1.06,0c-.14,0-.19.06-.19.2s.05.33.38.32L85.85,61c.32,0,.41-.06.51-.64,0-.15,0-.22.18-.23s.53.06.54.26a2.45,2.45,0,0,1-.28.88c-.16.32-.42.35-.75.36l-2.23.07c-.66,0-.91-.08-.93-.75ZM81.32,57l-.48,0c-.15,0-.14-.1-.15-.27s0-.26.13-.27h.94l.48,0c.15,0,.14.09.15.27s0,.26-.13.27h-.48Zm0,.84-.47,0c-.15,0-.15-.09-.16-.26s0-.26.13-.27h.48l.46,0,.47,0c.15,0,.15.09.16.26s0,.27-.14.28H81.8Zm1.49,1a.15.15,0,0,0-.16-.16l-1.32,0a.15.15,0,0,0-.15.16V59a.16.16,0,0,0,.16.15l1.32,0a.15.15,0,0,0,.15-.16Zm-1.45.78a.16.16,0,0,0-.15.16v.09a.15.15,0,0,0,.16.16l1.32,0a.14.14,0,0,0,.15-.16v-.08a.15.15,0,0,0-.17-.16Zm3.75-.62a.16.16,0,0,0,.15-.16v-.08a.15.15,0,0,0-.16-.15l-1.32,0a.15.15,0,0,0-.15.17V59a.15.15,0,0,0,.16.16Zm-1.46.79a.15.15,0,0,0,.16.16l1.32,0a.14.14,0,0,0,.15-.16v-.08a.16.16,0,0,0-.16-.15l-1.33,0a.16.16,0,0,0-.15.17ZM84.51,57l-.45,0c-.15,0-.14-.08-.15-.27s0-.26.14-.27h1l.45,0c.15,0,.14.09.15.27s0,.27-.13.27h-.45Zm0,.84-.46,0c-.15,0-.15-.09-.16-.26s0-.27.14-.27h1l.47,0c.15,0,.15.08.16.26s0,.27-.14.28h-.47Z"/><path class="cls-10" d="M92.66,55.25l.42,0c.16,0,.3.14.41.24s.3.26.31.37-.06.16-.1.49a5,5,0,0,1-2,3.7,7.81,7.81,0,0,1-1.55,1,1.07,1.07,0,0,1-.27.08c-.2,0-.52-.53-.53-.66s.07-.12.14-.15a6,6,0,0,0,2-1.21,3.93,3.93,0,0,0,1.21-2.5c0-.06,0-.16,0-.21s-.15-.16-.3-.15l-3,.17-1,.07c-.25,0-.25-.06-.28-.43s0-.48.21-.49l1.07,0ZM95,54.5a.83.83,0,0,1-.79.87.82.82,0,0,1-.1-1.65A.83.83,0,0,1,95,54.5Zm-1.27.07a.45.45,0,0,0,.89,0,.45.45,0,1,0-.89,0Z"/><path class="cls-10" d="M97.87,58.7c0,.21,0,.34.2.33a3.8,3.8,0,0,0,.65-.33,11.57,11.57,0,0,0,3-2.48c0-.06.11-.14.19-.15s.46.51.48.68a.23.23,0,0,1-.08.15,7.78,7.78,0,0,1-.53.57A14.93,14.93,0,0,1,98.32,60l-.28.16a.53.53,0,0,1-.2.1,3,3,0,0,1-.68-.25c-.11-.07-.12-.14-.13-.28s0-.59-.07-.89l-.31-3.38c0-.18,0-.37-.05-.51s0-.23-.05-.27,0-.1.08-.11h.18c.13,0,.56,0,.68.05s.18,0,.18.09,0,.08-.06.12a.32.32,0,0,0-.05.26c0,.13,0,.26,0,.39Z"/><path class="cls-10" d="M106.76,57.54c.12.86,0,1,.93.87.61-.09,1.44-.29,2-.42l.12,0c.16,0,.19.21.21.38s.06.41-.08.51a.85.85,0,0,1-.28.09l-1.39.25-.24,0a8.67,8.67,0,0,1-1.25.1.93.93,0,0,1-.54-.18c-.28-.22-.34-.78-.39-1.11,0-.12,0-.23,0-.34l-.13-1a.18.18,0,0,0-.25-.14l-.41.14c-.15.06-1,.37-1.11.38s-.13,0-.18-.17a3,3,0,0,1-.17-.52c0-.13.1-.18.51-.3l.69-.22.58-.2a.24.24,0,0,0,.17-.27l-.1-.74c0-.27-.07-.55-.12-.82,0-.12-.09-.39-.09-.42a.08.08,0,0,1,.07-.1H106c.08,0,.36,0,.37.07a.63.63,0,0,1,0,.18.33.33,0,0,0,0,.25c0,.23.05.47.09.7l.08.57a.18.18,0,0,0,.24.15l1.73-.59.92-.33a1.15,1.15,0,0,1,.69.5.35.35,0,0,1-.06.18c-.11.16-.21.32-.32.49-.31.51-.64,1-1,1.51-.06.1-.15.25-.28.27s-.68-.22-.7-.4.07-.14.12-.21a6.56,6.56,0,0,0,.79-1.11.06.06,0,0,0-.07,0l-.28.09-1.45.51a.26.26,0,0,0-.18.28Zm2.5-4c0,.13-.25.41-.36.42s-.09,0-.11-.06a7.52,7.52,0,0,0-.68-.61s-.08-.05-.08-.1.27-.37.36-.39A3.33,3.33,0,0,1,109.26,53.56Zm.78-.66c0,.12-.25.41-.36.42s-.08,0-.16-.11a8.17,8.17,0,0,0-.62-.56s-.08-.05-.09-.1.27-.38.37-.39A3.31,3.31,0,0,1,110,52.91Z"/><path class="cls-10" d="M113.85,53.39c.11.07.53.32.53.45s-.36.66-.52.67a1,1,0,0,1-.34-.21,10.06,10.06,0,0,0-1.14-.72c-.07,0-.14-.08-.14-.15s.3-.67.49-.69A6.75,6.75,0,0,1,113.85,53.39Zm4.36,1.17c0,.14-.31.48-.41.6a14.52,14.52,0,0,1-4.37,3.36c-.27.15-.27.16-.34.3a.09.09,0,0,1-.08.05c-.09,0-.28-.32-.35-.42a2.27,2.27,0,0,1-.27-.48c0-.09.14-.12.25-.16a11.41,11.41,0,0,0,4.93-3.87.2.2,0,0,1,.14-.1C117.88,53.83,118.21,54.43,118.21,54.55Z"/><path class="cls-10" d="M121.5,54.41a5.63,5.63,0,0,1,1.15.82c.11.1.58.46.57.61s-.4.56-.57.56a.29.29,0,0,1-.18-.11,12.18,12.18,0,0,0-1.19-1,.15.15,0,0,0-.08,0c-.08,0-.1.06-.1.13l0,2.28c0,.33,0,.65,0,1s0,.43-.53.43c-.33,0-.47,0-.47-.29s0-.75,0-1.12l.07-4.75c0-.22,0-.44,0-.65,0,0,0-.12,0-.15s0-.12.11-.12l.28,0c.37.05.71.09.71.21a.25.25,0,0,1,0,.11.65.65,0,0,0-.1.44c0,.12,0,.28,0,.49l0,1.25c0,.07,0,.09.06.09a.09.09,0,0,0,.08,0C121.31,54.52,121.41,54.41,121.5,54.41Z"/><path class="cls-10" d="M126.73,58.38a.61.61,0,0,1-.7.58.54.54,0,0,1-.53-.6.63.63,0,0,1,.7-.61A.56.56,0,0,1,126.73,58.38Zm-.64-1.28c-.21,0-.25-.06-.23-.27l.13-2.11c0-.5.07-1.62.08-1.78s.07-.17.25-.16l.58,0c.18,0,.23.06.22.2s-.17,1.27-.24,1.82l-.23,2c0,.21-.07.25-.28.23Z"/><path class="cls-3" d="M30.77,54.21c-.08,0-.13-.08-.17-.14a9,9,0,0,0-1-1.21s-.12-.11-.12-.17.34-.43.49-.44a.21.21,0,0,1,.17.1,5.94,5.94,0,0,1,.52.56,5,5,0,0,1,.64.87C31.3,53.93,30.88,54.2,30.77,54.21Zm-.4,5.12c0,.07,0,.17-.1.17a.13.13,0,0,1-.11-.05l-.35-.53a.46.46,0,0,1-.09-.2c0-.1.08-.16.22-.25a5.2,5.2,0,0,0,.52-.43.39.39,0,0,0,.14-.37l-.09-1.47c0-.16-.08-.23-.25-.22h0l-.39,0c-.18,0-.18-.11-.2-.38s0-.4.14-.41h.5l.53-.05c.28,0,.44.06.46.36s0,.46,0,.69l.07,1.05c0,.53.19,1,.75,1.11a3.22,3.22,0,0,0,1,.05l1.71-.09,1.59-.11.58-.06c.16,0,.22,0,.23.19,0,.59-.25.6-.41.61-.85.08-3.75.28-4.47.23a1.76,1.76,0,0,1-1.12-.5.17.17,0,0,0-.15-.07.19.19,0,0,0-.13.07l-.47.46A.28.28,0,0,0,30.37,59.33Zm2.33-6.15c.14,0,.2-.07.19-.21v0c0-.14-.07-.19-.21-.18h-.21l-.73.05c-.19,0-.18,0-.2-.29s0-.3.15-.31l.74,0,.31,0,.49,0c.21,0,.34,0,.35.24s0,.26,0,.42l0,.23c0,.15,0,.25,0,.32a.57.57,0,0,1,0,.15.1.1,0,0,0,.09.1c.22,0,.36.05.37.2a1.23,1.23,0,0,1-.25.76,1,1,0,0,1-.66.19l-.43,0c-.52,0-1,.05-1-.45,0-.1,0-.21,0-.31v-.18c0-.15,0-.24,0-.34,0-.25.1-.29.28-.31h.73Zm1,3.79s-.09,0-.09.07.06.09.1.12.29.23.3.3,0,.08-.09.08H33.8s-.08,0-.11.06a6.22,6.22,0,0,1-1.37.75c-.18,0-.44-.35-.45-.45s.09-.11.14-.13a5.6,5.6,0,0,0,1.2-.63.08.08,0,0,0,0-.07s-.05-.06-.09-.06l-.52,0-.85.07c-.17,0-.17-.09-.19-.31s0-.33.14-.34l.85,0h.18c.13,0,.19-.07.18-.2v0c0-.12-.06-.19-.2-.18l-.66.06c-.18,0-.17-.1-.19-.31s0-.33.15-.34l.64,0c.13,0,.19-.08.19-.22s0-.16,0-.19.06-.11.13-.12l.67,0c.08,0,.22,0,.23.09s-.05.08-.11.13a.15.15,0,0,0,0,.08c0,.1.11.13.2.13l.46,0c.13,0,.21-.06.21-.2a1.9,1.9,0,0,1,0-.21c0-.09.05-.11.12-.12h.68c.08,0,.21,0,.22.1s0,.07-.09.12a.12.12,0,0,0,0,.09c0,.11.13.13.22.13l.67-.06c.18,0,.18.09.2.32s0,.32-.15.33l-.66,0h-.09c-.13,0-.19.07-.19.21v.05c0,.13.07.19.21.18l.29,0,.84-.07c.17,0,.18.09.19.31s0,.31-.15.32l-.84,0-.55,0a.07.07,0,0,0-.07.06.07.07,0,0,0,0,.06,6.85,6.85,0,0,0,1.25.45c.17,0,.19.06.19.13s-.15.51-.33.52-1.79-.57-1.81-.8c0-.08.12-.22.18-.27s0,0,0-.06a.07.07,0,0,0-.08-.06Zm-1.06-3.23c-.13,0-.18.06-.18.21s0,.27.35.25H33c.22,0,.38,0,.41-.28v0c0-.12-.09-.16-.19-.16Zm1.31,2.17a.19.19,0,0,0-.19.21v0a.19.19,0,0,0,.21.18l.52,0a.18.18,0,0,0,.19-.21v0a.19.19,0,0,0-.21-.18ZM35.4,53c.13,0,.19-.07.18-.21v0c0-.14-.07-.2-.2-.19l-.31,0-.72.05c-.19,0-.19,0-.21-.29s0-.3.16-.31L35,52l.41,0,.49,0c.21,0,.33,0,.35.24s0,.26,0,.42v.23c0,.17,0,.26,0,.37s0,.17.13.17.35.06.36.19a1.5,1.5,0,0,1-.24.81,1.1,1.1,0,0,1-.67.2l-.57,0c-.52,0-1,.06-1-.45,0-.1,0-.21,0-.31v-.18c0-.15,0-.24,0-.33,0-.25.09-.3.28-.31h.51Zm-.18.57c-.14,0-.19.06-.19.2s0,.28.35.26l.31,0c.31,0,.37-.06.41-.28v0c0-.12-.09-.15-.19-.16Z"/><path class="cls-3" d="M42.31,54.68A8.71,8.71,0,0,0,44.88,57c.07,0,.17.08.16.18s-.42.77-.64.76a2.62,2.62,0,0,1-.65-.4,12.81,12.81,0,0,1-2.06-2.16c-.25-.32-.43-.54-.61-.54s-.62.38-.81.54c-.34.28-.79.64-1.09,1-.05,0-.13.14-.21.13s-.67-.71-.66-.86.2-.16.26-.19a7.62,7.62,0,0,0,1.37-1c.33-.26.72-.65,1.17-.63S42,54.31,42.31,54.68Zm1.81-.35c0,.11-.3.37-.41.37s-.12-.11-.26-.26-.28-.32-.46-.5a.12.12,0,0,1-.06-.1c0-.1.33-.35.4-.35A3.17,3.17,0,0,1,44.13,54.33Zm.94-.54a.68.68,0,0,1-.4.38s-.08-.05-.1-.09c-.17-.21-.42-.48-.61-.67,0,0-.07-.06-.07-.1s.32-.35.41-.35A3.16,3.16,0,0,1,45.07,53.79Z"/><path class="cls-3" d="M51.57,53.82c0,.06-.1.1-.19.16a8.29,8.29,0,0,0-1.29,1,.29.29,0,0,0-.1.14c0,.06.06.11.13.12h.11a1.92,1.92,0,0,1,.34,0,2.45,2.45,0,0,1,1,.32,1.73,1.73,0,0,1,.86,1.69,2.39,2.39,0,0,1-2.81,2c-.69-.05-1.65-.41-1.58-1.26a1,1,0,0,1,1.14-.93,1.35,1.35,0,0,1,1.06.68.82.82,0,0,1,.11.54c0,.06,0,.11.09.12a1.35,1.35,0,0,0,1.1-1.2c.06-.81-.6-1.19-1.32-1.25a2.54,2.54,0,0,0-1.92.67c-.35.29-.67.61-1,.93a.12.12,0,0,1-.09.05c-.18,0-.56-.51-.55-.64s.14-.19.22-.24a33.18,33.18,0,0,0,2.78-2.41c.07-.06.23-.2.24-.28s-.07-.1-.14-.11l-.2,0c-.2,0-1.39.19-1.53.18s-.16-.64-.15-.78,0-.21.27-.19l.2,0A7.68,7.68,0,0,0,50.5,53a1.18,1.18,0,0,1,.32-.07C51.15,53,51.58,53.67,51.57,53.82Zm-2.41,4a.34.34,0,0,0-.38.3c0,.3.36.47.61.49s.24-.13.25-.26A.51.51,0,0,0,49.16,57.78Z"/><path class="cls-3" d="M57.51,56.49s-.06,0-.07.05a6.62,6.62,0,0,1-3,3.29A1,1,0,0,1,54,60c-.21,0-.52-.48-.5-.68s.12-.13.23-.18a6.18,6.18,0,0,0,3.59-5.24c0-.24,0-.48.05-.73s.06-.25.22-.23.57.1.71.14.23,0,.22.14-.1.11-.16.13a.15.15,0,0,0-.1.13c0,.26-.06.52-.09.79,0,.06,0,.13,0,.18a7.26,7.26,0,0,0,.23,1.91,6.46,6.46,0,0,0,2.36,3.47c.08.06.19.13.18.22s-.41.6-.61.58a3.45,3.45,0,0,1-.86-.69,7,7,0,0,1-1.86-3.39S57.55,56.5,57.51,56.49Z"/><path class="cls-3" d="M65.63,59.13c0,.08,0,.12.08.17a8.8,8.8,0,0,1,.78.8c.05.06.13.14.12.22s-.26.55-.5.53-.17-.1-.23-.17c-.25-.3-.49-.59-.77-.86a.28.28,0,0,0-.15-.08.31.31,0,0,0-.17.06,8.2,8.2,0,0,1-1.76,1,.89.89,0,0,1-.36.12c-.17,0-.42-.49-.41-.64s.11-.12.22-.16l.07,0a7.31,7.31,0,0,0,1.59-.8.16.16,0,0,0,.07-.12.15.15,0,0,0-.07-.14,7.59,7.59,0,0,0-.82-.52c-.09,0-.26-.12-.25-.23s.36-.49.5-.47a5.79,5.79,0,0,1,1.17.72.32.32,0,0,0,.14.05.24.24,0,0,0,.19-.08,4,4,0,0,0,.53-.68c0-.07.1-.2.19-.19a2.14,2.14,0,0,1,.46.26l.09.06c.08.05.25.15.24.23s-.07.08-.12.08-.14,0-.25.16a5.07,5.07,0,0,1-.5.59A.27.27,0,0,0,65.63,59.13Zm-.94-4a.38.38,0,0,0-.37.13c-.18.18-1.07,1-1.3,1s-.51-.3-.49-.47.13-.14.21-.21a6.13,6.13,0,0,0,1.84-1.92s.06-.09.12-.08a4,4,0,0,1,.57.22c.17.07.31.11.3.2s-.1.08-.15.09a.25.25,0,0,0-.21.14l-.06.08a.18.18,0,0,0,0,.08c0,.08.07.11.12.12l3.34.34.95.08c.2,0,.19.09.16.37s0,.35-.23.33l-.94-.11Zm-.5,2.17-1-.08c-.19,0-.17-.11-.15-.39s0-.37.23-.35l1,.13,3.4.34.59,0c.31,0,.5.08.47.43s-.14.87-.19,1.37c0,.26-.14,1.86.15,1.89s.37-.82.4-1,.06-.2.22-.18.46.13.44.35a4.42,4.42,0,0,1-.28,1c-.17.39-.45.76-.93.71a.85.85,0,0,1-.73-.64,7.47,7.47,0,0,1-.09-2.56c0-.16,0-.33.06-.49s0-.23-.2-.25Zm.91-1.07-.82-.06c-.19,0-.17-.14-.15-.35s0-.33.21-.31l.82.1,2.51.26.82.06c.19,0,.17.13.15.36s0,.32-.22.3l-.82-.1Z"/><path class="cls-3" d="M74.46,57.61a.2.2,0,0,0-.08.13.17.17,0,0,0,.07.14,3.39,3.39,0,0,1,1.07,2.64c0,1.23-.52,1.46-1.67,1.42-.46,0-.62-.08-.6-.63,0-.12,0-.26.18-.25h.11l.46,0c.47,0,.68,0,.7-.71a1.07,1.07,0,0,0,0-.17.11.11,0,0,0-.1-.12.13.13,0,0,0-.09,0,9.92,9.92,0,0,1-2.64,1.3,1.25,1.25,0,0,1-.29.06c-.18,0-.39-.35-.38-.53s.14-.14.29-.18a9.49,9.49,0,0,0,2.9-1.36.23.23,0,0,0,.1-.17.34.34,0,0,0-.06-.19.16.16,0,0,0-.15-.1.23.23,0,0,0-.14,0,8.61,8.61,0,0,1-2.28,1.17,1.44,1.44,0,0,1-.29.07c-.17,0-.34-.37-.33-.52s.11-.13.23-.17a9.83,9.83,0,0,0,2.32-1,.2.2,0,0,0,.1-.15.21.21,0,0,0-.06-.14.17.17,0,0,0-.14-.09.14.14,0,0,0-.08,0,11.2,11.2,0,0,1-1.9.8,1.43,1.43,0,0,1-.26.06c-.17,0-.34-.39-.34-.55s.15-.14.27-.18a8.7,8.7,0,0,0,2-.81.06.06,0,0,0,0-.05s0-.06-.07-.07h-.17l-.95,0c-.2,0-.18-.12-.18-.28s-.08-.18-.19-.18h-.2c-.32,0-.46,0-.45-.21s0-.22,0-.34V56c0-.19,0-.34,0-.44,0-.29.25-.33.68-.31l.73,0,1.42.06c.17,0,.24-.06.24-.21a2.73,2.73,0,0,0,0-.49s0-.05,0-.08.09-.11.16-.11.63.08.8.1.16,0,.16.11-.05.07-.1.11-.11.17-.11.41.07.21.23.22l1.41.06.88,0c.23,0,.51.06.5.36,0,.09,0,.26,0,.44l0,.37c0,.11,0,.23,0,.34s-.14.18-.46.17h-.21c-.11,0-.18,0-.2.13s0,.25-.2.25l-.94-.05H76c-.09,0-.18,0-.18.14a.24.24,0,0,0,0,.07c.08.26.17.47.28.74,0,.06.08.12.17.12a.25.25,0,0,0,.13,0,6.6,6.6,0,0,0,.82-.61c.06,0,.1-.1.16-.1s.2.15.48.49c.06.07.15.17.15.23a.09.09,0,0,1-.09.09l-.07,0-.07,0a.21.21,0,0,0-.09,0,10.92,10.92,0,0,1-.92.6c-.06,0-.11.1-.12.17a.26.26,0,0,0,0,.13A7.33,7.33,0,0,0,78,60.92s.18.15.18.23-.43.46-.59.45-.87-.78-1-1a8.62,8.62,0,0,1-1.51-3,.26.26,0,0,0-.23-.21.42.42,0,0,0-.23.09Zm2.92-1.15c0-.16-.06-.24-.23-.25L72.38,56c-.17,0-.24.07-.24.23v.15c0,.13.08.15.19.16l.93.05,3,.12c.31,0,.62,0,.94,0,.1,0,.19,0,.2-.13Z"/><path class="cls-3" d="M83.54,55.42c0,.12.06.16.16.16l1.87-.06.71,0c.27,0,.42,0,.44.33l0,.74c0,.1,0,.2,0,.3s-.1.19-.4.19-.42,0-.42-.16,0-.21,0-.31v-.27c0-.15-.08-.22-.24-.21l-1.9.06c-.16,0-.23.07-.23.23l0,.56c0,.27,0,.54,0,.81s-.09.25-.44.26-.44,0-.45-.24,0-.55,0-.82l0-.56c0-.15-.07-.22-.24-.21l-1.88.06c-.16,0-.22.07-.22.23v.24c0,.11,0,.21,0,.32s-.14.17-.41.18-.42,0-.42-.16,0-.22,0-.31l0-.74c0-.29.14-.33.4-.34h.73l1.85-.05c.12,0,.16-.06.15-.17v0c0-.11,0-.15-.16-.15l-1.09,0-.93,0c-.18,0-.18-.06-.19-.3s0-.3.17-.31l.93,0,3.38-.11.92,0c.19,0,.19.05.2.29s0,.31-.18.32h-.93l-1.12,0c-.12,0-.16,0-.16.16Zm-.65,5.42c0-.16-.07-.23-.23-.22l-1.16,0c-.15,0-.25,0-.25.16s-.06.18-.41.19h-.13c-.17,0-.27,0-.27-.17s0-.4,0-.59l0-1.2c0-.16,0-.32,0-.48s.08-.31.39-.32h.8l3.31-.1.74,0c.35,0,.45,0,.46.28s0,.33,0,.49l0,.88c0,.16,0,.32,0,.47s-.07.31-.48.32h-.7l-1.06,0c-.14,0-.19.06-.19.2s.05.33.38.32L85.85,61c.32,0,.41-.06.51-.64,0-.15,0-.22.18-.23s.53.06.54.26a2.45,2.45,0,0,1-.28.88c-.16.32-.42.35-.75.36l-2.23.07c-.66,0-.91-.08-.93-.75ZM81.32,57l-.48,0c-.15,0-.14-.1-.15-.27s0-.26.13-.27h.94l.48,0c.15,0,.14.09.15.27s0,.26-.13.27h-.48Zm0,.84-.47,0c-.15,0-.15-.09-.16-.26s0-.26.13-.27h.48l.46,0,.47,0c.15,0,.15.09.16.26s0,.27-.14.28H81.8Zm1.49,1a.15.15,0,0,0-.16-.16l-1.32,0a.15.15,0,0,0-.15.16V59a.16.16,0,0,0,.16.15l1.32,0a.15.15,0,0,0,.15-.16Zm-1.45.78a.16.16,0,0,0-.15.16v.09a.15.15,0,0,0,.16.16l1.32,0a.14.14,0,0,0,.15-.16v-.08a.15.15,0,0,0-.17-.16Zm3.75-.62a.16.16,0,0,0,.15-.16v-.08a.15.15,0,0,0-.16-.15l-1.32,0a.15.15,0,0,0-.15.17V59a.15.15,0,0,0,.16.16Zm-1.46.79a.15.15,0,0,0,.16.16l1.32,0a.14.14,0,0,0,.15-.16v-.08a.16.16,0,0,0-.16-.15l-1.33,0a.16.16,0,0,0-.15.17ZM84.51,57l-.45,0c-.15,0-.14-.08-.15-.27s0-.26.14-.27h1l.45,0c.15,0,.14.09.15.27s0,.27-.13.27h-.45Zm0,.84-.46,0c-.15,0-.15-.09-.16-.26s0-.27.14-.27h1l.47,0c.15,0,.15.08.16.26s0,.27-.14.28h-.47Z"/><path class="cls-3" d="M92.66,55.25l.42,0c.16,0,.3.14.41.24s.3.26.31.37-.06.16-.1.49a5,5,0,0,1-2,3.7,7.81,7.81,0,0,1-1.55,1,1.07,1.07,0,0,1-.27.08c-.2,0-.52-.53-.53-.66s.07-.12.14-.15a6,6,0,0,0,2-1.21,3.93,3.93,0,0,0,1.21-2.5c0-.06,0-.16,0-.21s-.15-.16-.3-.15l-3,.17-1,.07c-.25,0-.25-.06-.28-.43s0-.48.21-.49l1.07,0ZM95,54.5a.83.83,0,0,1-.79.87.82.82,0,0,1-.1-1.65A.83.83,0,0,1,95,54.5Zm-1.27.07a.45.45,0,0,0,.89,0,.45.45,0,1,0-.89,0Z"/><path class="cls-3" d="M97.87,58.7c0,.21,0,.34.2.33a3.8,3.8,0,0,0,.65-.33,11.57,11.57,0,0,0,3-2.48c0-.06.11-.14.19-.15s.46.51.48.68a.23.23,0,0,1-.08.15,7.78,7.78,0,0,1-.53.57A14.93,14.93,0,0,1,98.32,60l-.28.16a.53.53,0,0,1-.2.1,3,3,0,0,1-.68-.25c-.11-.07-.12-.14-.13-.28s0-.59-.07-.89l-.31-3.38c0-.18,0-.37-.05-.51s0-.23-.05-.27,0-.1.08-.11h.18c.13,0,.56,0,.68.05s.18,0,.18.09,0,.08-.06.12a.32.32,0,0,0-.05.26c0,.13,0,.26,0,.39Z"/><path class="cls-3" d="M106.76,57.54c.12.86,0,1,.93.87.61-.09,1.44-.29,2-.42l.12,0c.16,0,.19.21.21.38s.06.41-.08.51a.85.85,0,0,1-.28.09l-1.39.25-.24,0a8.67,8.67,0,0,1-1.25.1.93.93,0,0,1-.54-.18c-.28-.22-.34-.78-.39-1.11,0-.12,0-.23,0-.34l-.13-1a.18.18,0,0,0-.25-.14l-.41.14c-.15.06-1,.37-1.11.38s-.13,0-.18-.17a3,3,0,0,1-.17-.52c0-.13.1-.18.51-.3l.69-.22.58-.2a.24.24,0,0,0,.17-.27l-.1-.74c0-.27-.07-.55-.12-.82,0-.12-.09-.39-.09-.42a.08.08,0,0,1,.07-.1H106c.08,0,.36,0,.37.07a.63.63,0,0,1,0,.18.33.33,0,0,0,0,.25c0,.23.05.47.09.7l.08.57a.18.18,0,0,0,.24.15l1.73-.59.92-.33a1.15,1.15,0,0,1,.69.5.35.35,0,0,1-.06.18c-.11.16-.21.32-.32.49-.31.51-.64,1-1,1.51-.06.1-.15.25-.28.27s-.68-.22-.7-.4.07-.14.12-.21a6.56,6.56,0,0,0,.79-1.11.06.06,0,0,0-.07,0l-.28.09-1.45.51a.26.26,0,0,0-.18.28Zm2.5-4c0,.13-.25.41-.36.42s-.09,0-.11-.06a7.52,7.52,0,0,0-.68-.61s-.08-.05-.08-.1.27-.37.36-.39A3.33,3.33,0,0,1,109.26,53.56Zm.78-.66c0,.12-.25.41-.36.42s-.08,0-.16-.11a8.17,8.17,0,0,0-.62-.56s-.08-.05-.09-.1.27-.38.37-.39A3.31,3.31,0,0,1,110,52.91Z"/><path class="cls-3" d="M113.85,53.39c.11.07.53.32.53.45s-.36.66-.52.67a1,1,0,0,1-.34-.21,10.06,10.06,0,0,0-1.14-.72c-.07,0-.14-.08-.14-.15s.3-.67.49-.69A6.75,6.75,0,0,1,113.85,53.39Zm4.36,1.17c0,.14-.31.48-.41.6a14.52,14.52,0,0,1-4.37,3.36c-.27.15-.27.16-.34.3a.09.09,0,0,1-.08.05c-.09,0-.28-.32-.35-.42a2.27,2.27,0,0,1-.27-.48c0-.09.14-.12.25-.16a11.41,11.41,0,0,0,4.93-3.87.2.2,0,0,1,.14-.1C117.88,53.83,118.21,54.43,118.21,54.55Z"/><path class="cls-3" d="M121.5,54.41a5.63,5.63,0,0,1,1.15.82c.11.1.58.46.57.61s-.4.56-.57.56a.29.29,0,0,1-.18-.11,12.18,12.18,0,0,0-1.19-1,.15.15,0,0,0-.08,0c-.08,0-.1.06-.1.13l0,2.28c0,.33,0,.65,0,1s0,.43-.53.43c-.33,0-.47,0-.47-.29s0-.75,0-1.12l.07-4.75c0-.22,0-.44,0-.65,0,0,0-.12,0-.15s0-.12.11-.12l.28,0c.37.05.71.09.71.21a.25.25,0,0,1,0,.11.65.65,0,0,0-.1.44c0,.12,0,.28,0,.49l0,1.25c0,.07,0,.09.06.09a.09.09,0,0,0,.08,0C121.31,54.52,121.41,54.41,121.5,54.41Z"/><path class="cls-3" d="M126.73,58.38a.61.61,0,0,1-.7.58.54.54,0,0,1-.53-.6.63.63,0,0,1,.7-.61A.56.56,0,0,1,126.73,58.38Zm-.64-1.28c-.21,0-.25-.06-.23-.27l.13-2.11c0-.5.07-1.62.08-1.78s.07-.17.25-.16l.58,0c.18,0,.23.06.22.2s-.17,1.27-.24,1.82l-.23,2c0,.21-.07.25-.28.23Z"/></g></g></svg>