<svg xmlns="http://www.w3.org/2000/svg" viewBox="0 0 126.39 13.05"><defs><style>.cls-1{fill:#fff;}</style></defs><title>product_feature</title><g id="Layer_2" data-name="Layer 2"><g id="レイヤー_1" data-name="レイヤー 1"><path class="cls-1" d="M0,.82H3.47c1.7,0,3.88.66,3.88,3.18,0,2.18-1.73,3.15-3.62,3.15H1.12v5.71H0Zm1.12,5.3H3.67c1.27,0,2.55-.54,2.55-2.12S4.9,1.84,3.6,1.84H1.12Z"/><path class="cls-1" d="M9.47,7.21c0-.58-.08-1.8-.08-2.21h1c0,.58,0,1.22.07,1.38A2.79,2.79,0,0,1,13,4.79a2.41,2.41,0,0,1,.6.08l-.12,1a1.26,1.26,0,0,0-.39-.07,2.46,2.46,0,0,0-2.57,2.75v4.28h-1Z"/><path class="cls-1" d="M18.82,4.79a4,4,0,0,1,4.13,4.13,4,4,0,0,1-4.13,4.13,4,4,0,0,1-4.13-4.13A4,4,0,0,1,18.82,4.79Zm0,7.34a3,3,0,0,0,3.11-3.21,3.11,3.11,0,1,0-6.22,0A3,3,0,0,0,18.82,12.14Z"/><path class="cls-1" d="M32.09,11.47h0a3.62,3.62,0,0,1-3.14,1.58,4,4,0,0,1-4.13-4.13,4,4,0,0,1,4.13-4.13,3.62,3.62,0,0,1,3.14,1.58h0V0h1V12.85h-1ZM28.92,5.71a3,3,0,0,0-3.11,3.21,3,3,0,0,0,3.11,3.21,3.21,3.21,0,1,0,0-6.43Z"/><path class="cls-1" d="M42.26,10.64c0,.58.09,1.8.09,2.21h-1c0-.58,0-1.22-.07-1.38h-.05a2.94,2.94,0,0,1-2.69,1.58c-2.45,0-3-1.67-3-3.38V5h1V9.62c0,1.27.36,2.52,2,2.52s2.72-1.05,2.72-3.21V5h1Z"/><path class="cls-1" d="M51.64,11.69a3.64,3.64,0,0,1-2.89,1.36,4,4,0,0,1-4.13-4.13,4,4,0,0,1,4.13-4.13,3.85,3.85,0,0,1,2.92,1.36l-.82.61a2.86,2.86,0,0,0-2.11-1.05,3,3,0,0,0-3.11,3.21,3,3,0,0,0,3.11,3.21A2.73,2.73,0,0,0,50.86,11Z"/><path class="cls-1" d="M57.08,5.92H54.84V11a1,1,0,0,0,1.09,1.1,3,3,0,0,0,1.16-.27l.09.92a4.47,4.47,0,0,1-1.33.27,1.83,1.83,0,0,1-2-2V5.92h-1.7V5h1.7V2.74h1V5h2.24Z"/><path class="cls-1" d="M63.61.82h7.21v1H64.73V6.12h5.66v1H64.73v5.71H63.61Z"/><path class="cls-1" d="M79.71,11.37a4.08,4.08,0,0,1-7.38-2.46,3.9,3.9,0,0,1,3.93-4.11,3.57,3.57,0,0,1,3.69,3.67v.71H73.35a2.93,2.93,0,0,0,3,3A3.16,3.16,0,0,0,79,10.74Zm-.78-3.11a2.64,2.64,0,0,0-2.72-2.55,2.91,2.91,0,0,0-2.86,2.55Z"/><path class="cls-1" d="M88.33,9.55a24,24,0,0,0,.15,3.3h-1a7.55,7.55,0,0,1-.1-1.27h0a2.86,2.86,0,0,1-2.75,1.48c-1.34,0-2.77-.66-2.77-2.33,0-2.4,2.8-2.63,4.35-2.63h1.19V7.62c0-1.36-1-1.9-2.21-1.9a3.55,3.55,0,0,0-2.4.88l-.6-.7a4.58,4.58,0,0,1,3-1.11c1.9,0,3.13.85,3.13,2.84Zm-2-.65c-1.7,0-3.4.42-3.4,1.77a1.62,1.62,0,0,0,1.78,1.46,2.45,2.45,0,0,0,2.74-2.7V8.91Z"/><path class="cls-1" d="M94.89,5.92H92.65V11a1,1,0,0,0,1.09,1.1,3,3,0,0,0,1.16-.27l.09.92a4.48,4.48,0,0,1-1.33.27,1.83,1.83,0,0,1-2-2V5.92h-1.7V5h1.7V2.74h1V5h2.24Z"/><path class="cls-1" d="M103.36,10.64c0,.58.08,1.8.08,2.21h-1c0-.58,0-1.22-.07-1.38h-.05a2.94,2.94,0,0,1-2.69,1.58c-2.45,0-3-1.67-3-3.38V5h1V9.62c0,1.27.36,2.52,2,2.52s2.72-1.05,2.72-3.21V5h1Z"/><path class="cls-1" d="M106.16,7.21c0-.58-.08-1.8-.08-2.21h1c0,.58,0,1.22.07,1.38a2.79,2.79,0,0,1,2.5-1.58,2.41,2.41,0,0,1,.59.08l-.12,1a1.26,1.26,0,0,0-.39-.07,2.46,2.46,0,0,0-2.57,2.75v4.28h-1Z"/><path class="cls-1" d="M118.76,11.37a4.08,4.08,0,0,1-7.38-2.46,3.9,3.9,0,0,1,3.93-4.11A3.57,3.57,0,0,1,119,8.46v.71h-6.6a2.93,2.93,0,0,0,3,3A3.15,3.15,0,0,0,118,10.74ZM118,8.26a2.64,2.64,0,0,0-2.72-2.55,2.91,2.91,0,0,0-2.86,2.55Z"/><path class="cls-1" d="M121.29,10.84a2.54,2.54,0,0,0,2.28,1.29,1.65,1.65,0,0,0,1.8-1.45c0-2.16-4.66-.65-4.66-3.64a2.43,2.43,0,0,1,2.69-2.26,2.87,2.87,0,0,1,2.77,1.48l-.92.54a1.92,1.92,0,0,0-1.85-1.11c-.73,0-1.67.44-1.67,1.26,0,2.13,4.66.48,4.66,3.66,0,1.61-1.34,2.43-2.84,2.43a3.46,3.46,0,0,1-3.16-1.6Z"/></g></g></svg>