<svg xmlns="http://www.w3.org/2000/svg" viewBox="0 0 178.44 18.43"><defs><style>.cls-1{fill:#fff;}</style></defs><title>product_feature</title><g id="Layer_2" data-name="Layer 2"><g id="レイヤー_1" data-name="レイヤー 1"><path class="cls-1" d="M0,1.15H4.9c2.4,0,5.47.94,5.47,4.49,0,3.07-2.45,4.44-5.11,4.44H1.58v8.06H0ZM1.58,8.64h3.6c1.8,0,3.6-.77,3.6-3s-1.87-3-3.7-3H1.58Z"/><path class="cls-1" d="M13.37,10.18c0-.82-.12-2.54-.12-3.12h1.44c0,.82,0,1.73.1,1.94a3.94,3.94,0,0,1,3.53-2.23,3.37,3.37,0,0,1,.84.12L19,8.3a1.77,1.77,0,0,0-.55-.1c-2.5,0-3.62,1.73-3.62,3.89v6H13.37Z"/><path class="cls-1" d="M26.57,6.77A5.62,5.62,0,0,1,32.4,12.6a5.62,5.62,0,0,1-5.83,5.83,5.62,5.62,0,0,1-5.83-5.83A5.62,5.62,0,0,1,26.57,6.77Zm0,10.37A4.3,4.3,0,0,0,31,12.6a4.39,4.39,0,1,0-8.78,0A4.3,4.3,0,0,0,26.57,17.14Z"/><path class="cls-1" d="M45.31,16.2h0a5.12,5.12,0,0,1-4.44,2.23A5.62,5.62,0,0,1,35,12.6a5.62,5.62,0,0,1,5.83-5.83A5.12,5.12,0,0,1,45.26,9h0V0h1.44V18.15H45.31ZM40.82,8.06a4.3,4.3,0,0,0-4.39,4.54,4.3,4.3,0,0,0,4.39,4.54,4.54,4.54,0,1,0,0-9.07Z"/><path class="cls-1" d="M59.66,15c0,.82.12,2.54.12,3.12H58.34c0-.82,0-1.73-.1-1.94h-.07a4.15,4.15,0,0,1-3.79,2.23c-3.46,0-4.22-2.35-4.22-4.78V7.06H51.6v6.53c0,1.8.5,3.55,2.78,3.55s3.84-1.49,3.84-4.54V7.06h1.44Z"/><path class="cls-1" d="M72.91,16.51a5.15,5.15,0,0,1-4.08,1.92A5.62,5.62,0,0,1,63,12.6a5.62,5.62,0,0,1,5.83-5.83A5.44,5.44,0,0,1,73,8.69l-1.15.86a4,4,0,0,0-3-1.49,4.3,4.3,0,0,0-4.39,4.54,4.3,4.3,0,0,0,4.39,4.54,3.86,3.86,0,0,0,3-1.54Z"/><path class="cls-1" d="M80.59,8.35H77.42v7.22A1.42,1.42,0,0,0,79,17.14a4.26,4.26,0,0,0,1.63-.38l.12,1.3a6.37,6.37,0,0,1-1.87.38A2.59,2.59,0,0,1,76,15.58V8.35h-2.4V7.06H76V3.86h1.44V7.06h3.17Z"/><path class="cls-1" d="M89.81,1.15H100V2.59H91.39v6h8v1.44h-8v8.06H89.81Z"/><path class="cls-1" d="M112.54,16.06a5.44,5.44,0,0,1-4.8,2.38c-3.38,0-5.62-2.42-5.62-5.86a5.51,5.51,0,0,1,5.54-5.81A5,5,0,0,1,112.87,12v1h-9.31a4.14,4.14,0,0,0,4.2,4.18,4.46,4.46,0,0,0,3.72-2Zm-1.1-4.39a3.73,3.73,0,0,0-3.84-3.6,4.11,4.11,0,0,0-4,3.6Z"/><path class="cls-1" d="M124.7,13.49a34,34,0,0,0,.22,4.66h-1.34a10.75,10.75,0,0,1-.14-1.8h0a4,4,0,0,1-3.89,2.09c-1.9,0-3.91-.94-3.91-3.29,0-3.38,4-3.72,6.14-3.72h1.68v-.67c0-1.92-1.34-2.69-3.12-2.69a5,5,0,0,0-3.38,1.25l-.84-1a6.47,6.47,0,0,1,4.22-1.56c2.69,0,4.42,1.2,4.42,4Zm-2.88-.91c-2.4,0-4.8.6-4.8,2.5a2.29,2.29,0,0,0,2.52,2.06c3.07,0,3.87-2,3.87-3.82v-.74Z"/><path class="cls-1" d="M134,8.35H130.8v7.22a1.42,1.42,0,0,0,1.54,1.56,4.26,4.26,0,0,0,1.63-.38l.12,1.3a6.37,6.37,0,0,1-1.87.38,2.59,2.59,0,0,1-2.86-2.86V8.35H127V7.06h2.4V3.86h1.44V7.06H134Z"/><path class="cls-1" d="M145.92,15c0,.82.12,2.54.12,3.12H144.6c0-.82,0-1.73-.1-1.94h-.07a4.15,4.15,0,0,1-3.79,2.23c-3.46,0-4.22-2.35-4.22-4.78V7.06h1.44v6.53c0,1.8.5,3.55,2.78,3.55s3.84-1.49,3.84-4.54V7.06h1.44Z"/><path class="cls-1" d="M149.88,10.18c0-.82-.12-2.54-.12-3.12h1.44c0,.82,0,1.73.1,1.94a3.94,3.94,0,0,1,3.53-2.23,3.37,3.37,0,0,1,.84.12L155.5,8.3a1.77,1.77,0,0,0-.55-.1c-2.5,0-3.62,1.73-3.62,3.89v6h-1.44Z"/><path class="cls-1" d="M167.66,16.06a5.44,5.44,0,0,1-4.8,2.38c-3.38,0-5.62-2.42-5.62-5.86a5.51,5.51,0,0,1,5.54-5.81A5,5,0,0,1,168,12v1h-9.31a4.14,4.14,0,0,0,4.2,4.18,4.46,4.46,0,0,0,3.72-2Zm-1.1-4.39a3.73,3.73,0,0,0-3.84-3.6,4.11,4.11,0,0,0-4,3.6Z"/><path class="cls-1" d="M171.24,15.31a3.59,3.59,0,0,0,3.22,1.82,2.33,2.33,0,0,0,2.54-2c0-3-6.58-.91-6.58-5.14,0-2.16,2-3.19,3.79-3.19a4.05,4.05,0,0,1,3.91,2.09l-1.3.77a2.71,2.71,0,0,0-2.62-1.56c-1,0-2.35.62-2.35,1.78,0,3,6.58.67,6.58,5.16,0,2.28-1.9,3.43-4,3.43A4.88,4.88,0,0,1,170,16.18Z"/></g></g></svg>