<svg xmlns="http://www.w3.org/2000/svg" viewBox="0 0 130.66 142.58"><defs><style>.cls-1{fill:#fff;}</style></defs><title>seitaro_all_small</title><g id="Layer_2" data-name="Layer 2"><g id="レイヤー_1" data-name="レイヤー 1"><path class="cls-1" d="M0,0H4.89c8.21,0,8.54,6.74,8.54,7.9s-.33,7.9-8.54,7.9H0ZM1.47,14.46h3c4.19,0,7.45-2,7.45-6.56S8.7,1.34,4.51,1.34h-3Z"/><path class="cls-1" d="M25.46,13.85A5.06,5.06,0,0,1,21,16.06c-3.15,0-5.22-2.25-5.22-5.44a5.12,5.12,0,0,1,5.15-5.4A4.69,4.69,0,0,1,25.77,10V11H17.11A3.85,3.85,0,0,0,21,14.86,4.14,4.14,0,0,0,24.47,13Zm-1-4.08a3.47,3.47,0,0,0-3.57-3.35,3.82,3.82,0,0,0-3.75,3.35Z"/><path class="cls-1" d="M28.78,13.16a3.34,3.34,0,0,0,3,1.7A2.17,2.17,0,0,0,34.13,13c0-2.83-6.11-.85-6.11-4.77,0-2,1.83-3,3.52-3a3.77,3.77,0,0,1,3.64,1.94L34,7.87a2.52,2.52,0,0,0-2.43-1.45c-1,0-2.19.58-2.19,1.65,0,2.79,6.11.63,6.11,4.8,0,2.12-1.76,3.19-3.72,3.19A4.54,4.54,0,0,1,27.6,14Z"/><path class="cls-1" d="M39.15.4a1,1,0,1,1-1,1A1,1,0,0,1,39.15.4Zm-.67,5.09h1.34V15.79H38.48Z"/><path class="cls-1" d="M54,15.13c0,5.13-3.39,6-5.49,6A6.5,6.5,0,0,1,43.37,19l1-1a4.85,4.85,0,0,0,4.06,1.94c4.08,0,4.15-3.57,4.15-4.73V13.79h0a4.45,4.45,0,0,1-3.9,2,5.42,5.42,0,0,1-5.51-5.29,5.42,5.42,0,0,1,5.51-5.29,4.45,4.45,0,0,1,3.9,2h0V5.49H54Zm-5.38-8.7a4.08,4.08,0,1,0,4.08,4.08A4.08,4.08,0,0,0,48.59,6.42Z"/><path class="cls-1" d="M57.25,8.39c0-.76-.11-2.37-.11-2.9h1.34c0,.76,0,1.61.09,1.81h.07a3.86,3.86,0,0,1,3.52-2.08c3.21,0,3.93,2.19,3.93,4.44v6.13H64.74V9.73c0-1.67-.47-3.3-2.59-3.3s-3.57,1.38-3.57,4.22v5.15H57.25Z"/><path class="cls-1" d="M78.75,13.85a5.06,5.06,0,0,1-4.46,2.21c-3.15,0-5.22-2.25-5.22-5.44a5.12,5.12,0,0,1,5.15-5.4A4.69,4.69,0,0,1,79.07,10V11H70.41a3.85,3.85,0,0,0,3.9,3.88A4.14,4.14,0,0,0,77.77,13Zm-1-4.08a3.47,3.47,0,0,0-3.57-3.35,3.82,3.82,0,0,0-3.75,3.35Z"/><path class="cls-1" d="M82.06,8.39c0-.76-.11-2.37-.11-2.9h1.34c0,.76,0,1.61.09,1.81a3.66,3.66,0,0,1,3.28-2.08,3.17,3.17,0,0,1,.78.11l-.16,1.32a1.66,1.66,0,0,0-.51-.09c-2.32,0-3.37,1.61-3.37,3.61v5.62H82.06Z"/><path class="cls-1" d="M7.8,56.59c.36,0,.5-.14.5-.5V46.17a16.27,16.27,0,0,0-.07-2.05.64.64,0,0,1,0-.18c0-.2.13-.23.29-.23s.36,0,.54,0c.41.05.77,0,.77.27s-.09.16-.27.27-.23.58-.23,1.89v9.92c0,.36.14.5.5.5H14c.36,0,.5-.14.5-.5V49.46c0-.68,0-1.37-.07-2.07,0-.05,0-.13,0-.18s.13-.23.29-.23.36,0,.54,0c.43.05.77,0,.77.27s-.09.16-.25.25-.25.52-.25,1.93v6.37c0,.77.05,1.55.05,2.3,0,.5,0,.81-.56.81s-.54-.29-.54-.74v-.31c0-.29-.13-.41-.43-.41H3.61c-.29,0-.43.13-.43.41v.27c0,.45,0,.7-.54.7s-.54-.29-.54-.72c0-.74,0-1.48,0-2.21V49.37a17.49,17.49,0,0,0-.07-2c0-.05,0-.11,0-.18s.11-.23.29-.23a5.31,5.31,0,0,1,.54,0c.41.05.77,0,.77.27s-.11.16-.25.25-.25.52-.25,1.85v6.72c0,.36.16.5.5.5Z"/><path class="cls-1" d="M25.39,54.59c.29,0,.43-.11.45-.4V49.5a12.54,12.54,0,0,0-.07-1.84.6.6,0,0,1,0-.18c0-.18.13-.22.27-.22a4.28,4.28,0,0,1,.5,0c.4,0,.74,0,.74.25s-.11.16-.23.25-.23.45-.23,1.69v4.41c0,.67,0,1.35,0,2,0,.4,0,.65-.5.65s-.52-.31-.52-.76c0-.25-.13-.34-.36-.34h-3c-.34,0-.49.13-.5.47s0,.67,0,1,0,.65-.5.65S21,57.37,21,57c0-.59,0-1.17,0-1.75V49.43A12.57,12.57,0,0,0,21,47.59a.62.62,0,0,1,0-.18c0-.18.11-.22.27-.22a4.51,4.51,0,0,1,.5,0c.4,0,.74,0,.74.23s-.11.16-.25.25-.22.47-.22,1.71v4.74c0,.31.13.41.43.43H23c.31,0,.41-.13.43-.43V46.29a13.41,13.41,0,0,0-.07-1.89.5.5,0,0,1,0-.16c0-.2.11-.23.27-.23a4.31,4.31,0,0,1,.5,0c.41.05.76,0,.76.25s-.11.16-.25.25-.23.47-.23,1.75v7.87c0,.31.13.41.43.43ZM31,50.72a.72.72,0,0,0,.74-.4A22.59,22.59,0,0,0,33.33,47c0-.09.07-.2.18-.2s1,.38,1,.59-.13.14-.22.16-.23.05-.31.2c-.41.86-.81,1.73-1.3,2.58a.44.44,0,0,0,0,.16c0,.18.13.23.29.25h.81c.7,0,1.39,0,2.09,0,.32,0,.36.14.36.49s0,.49-.36.49-.52,0-.79,0-.45.16-.47.49V57c0,.29,0,.76,0,1,0,1.35-1.35,1.37-2.38,1.37-.18,0-.52,0-.65-.13a1.12,1.12,0,0,1-.2-.59c0-.2.2-.25.36-.25s.5,0,.81,0c1.08,0,1.08-.34,1.08-1.31v-5a.45.45,0,0,0-.5-.5H29.53c-.7,0-1.4.05-2.11.05-.32,0-.34-.2-.34-.49s0-.49.34-.49c.7,0,1.4,0,2.11,0Zm1.17-5.22h1c.7,0,1.41,0,2.09,0,.34,0,.36.14.36.49s0,.49-.34.49c-.7,0-1.4,0-2.11,0H29.89c-.7,0-1.39,0-2.09,0-.34,0-.36-.2-.36-.49s0-.49.36-.49c.7,0,1.39,0,2.09,0h.4c.32,0,.45-.13.49-.47a4.89,4.89,0,0,0-.07-.88.54.54,0,0,1,0-.16c0-.2.13-.23.29-.23a5,5,0,0,1,.5,0c.4.05.74,0,.74.25s-.11.16-.25.25-.22.34-.23.76S31.9,45.48,32.21,45.5Zm-.09,10c0,.13,0,.25,0,.38,0,.49-.23.65-.68.65l-.54,0H29.54a.5.5,0,0,0-.52.47c0,.22-.07.27-.5.27s-.45-.05-.45-.41V53.28a.55.55,0,0,1,.63-.61l.59,0h1.62l.58,0c.47,0,.65.22.65.67,0,.13,0,.27,0,.4Zm-2.34-5.35c-.32,0-.38-.31-.58-.86a14.86,14.86,0,0,0-.72-1.66.7.7,0,0,1-.11-.31c0-.25.36-.41.58-.41a.27.27,0,0,1,.25.14,8.35,8.35,0,0,1,.59,1.13,8.21,8.21,0,0,1,.54,1.58C30.34,50,30,50.11,29.78,50.11Zm-.76,5a.49.49,0,0,0,.5.5h1.15a.49.49,0,0,0,.5-.49v-1a.49.49,0,0,0-.5-.5H29.53a.49.49,0,0,0-.5.5Z"/><path class="cls-1" d="M50.6,55.37H48.91c-.29,0-.43.11-.43.41v.54c0,.36-.11.45-.49.45s-.5-.16-.5-.52,0-1,0-1.49V47.43c0-.45,0-.9,0-1.35s.07-.86.67-.86l.5,0H50.8l.49,0c.59,0,.68.29.68.86s0,.9,0,1.35v6.66c0,.5,0,1,0,1.51s-.07.5-.5.5-.47-.16-.49-.4S50.85,55.37,50.6,55.37Zm-.11-5.65a.52.52,0,0,0,.5-.5V46.62a.48.48,0,0,0-.5-.49H49a.48.48,0,0,0-.5.49v2.59a.52.52,0,0,0,.5.5Zm-2,4.27c0,.34.14.49.5.49h1.53c.36,0,.5-.14.5-.49V51.1c0-.34-.14-.5-.5-.5H49c-.36,0-.5.16-.5.5Zm9.92-9h1.76c.56,0,1.13,0,1.69,0,.34,0,.34.18.34.45s0,.45-.32.45c-.58,0-1.13,0-1.71,0H58.38c-.31,0-.43.14-.43.43v.38c0,.29.13.43.43.43H59.5c.58,0,1.15,0,1.73,0,.31,0,.29.22.29.43s0,.41-.29.41c-.58,0-1.15,0-1.73,0H58.38c-.31,0-.43.13-.43.43v.4c0,.31.13.45.43.45h1.84c.7,0,1.39-.05,2.09-.05.31,0,.32.16.32.47s0,.45-.31.45c-.7,0-1.41,0-2.11,0H54.92c-.7,0-1.4,0-2.11,0-.31,0-.32-.18-.32-.45s0-.47.32-.47c.7,0,1.4.05,2.11.05h1.64c.31,0,.43-.14.43-.45v-.4c0-.31-.13-.43-.43-.43h-1c-.59,0-1.21,0-1.75,0-.29,0-.29-.2-.29-.43s0-.41.31-.41c.58,0,1.15,0,1.73,0h1c.31,0,.43-.14.43-.43v-.38c0-.29-.13-.43-.43-.43H55c-.58,0-1.15,0-1.73,0-.31,0-.32-.2-.32-.45s0-.45.32-.45c.58,0,1.15,0,1.73,0h1.57c.29,0,.41-.11.43-.41s0-.45-.07-.68a.63.63,0,0,1,0-.18c0-.2.14-.23.29-.23a4.92,4.92,0,0,1,.5.05c.4,0,.74,0,.74.25s-.11.16-.25.25-.22.31-.22.54S58.09,45,58.38,45Zm1.53,11.6a.44.44,0,0,0-.5-.5H55.52c-.36,0-.5.16-.5.5v.68c0,.52,0,1.06,0,1.58s-.09.52-.5.52c-.7,0-.49-.32-.49-2.11V51.82c0-.5.13-.65.7-.65l.88,0h3.62l.88,0c.5,0,.72.09.72.58v5.4c0,.27,0,.56,0,.83,0,1.13-.63,1.33-2.47,1.33-.41,0-.63,0-.63-.65,0-.16,0-.29.23-.29l.7,0c1.19,0,1.19-.27,1.19-.81Zm-.38-3.37a.37.37,0,0,0,.38-.38v-.38a.37.37,0,0,0-.38-.38H55.39a.37.37,0,0,0-.38.38v.38a.37.37,0,0,0,.38.38ZM55,54.81a.42.42,0,0,0,.43.43h4a.42.42,0,0,0,.43-.43v-.34a.42.42,0,0,0-.43-.43h-4a.42.42,0,0,0-.43.43Z"/><path class="cls-1" d="M74,50.07c0-.27-.2-.36-.43-.36H69.25c-.68,0-1.39,0-2.07,0-.32,0-.36-.2-.36-.49s0-.49.36-.49c.68,0,1.39,0,2.07,0h4.47c.34,0,.5-.11.54-.47s0-.7,0-1V45.66a10.62,10.62,0,0,0-.07-1.85.49.49,0,0,1,0-.16c0-.2.11-.23.27-.23a4.5,4.5,0,0,1,.5,0c.41.05.74,0,.74.25s-.09.16-.25.25-.22.49-.22,1.71V47.3c0,.34,0,.68,0,1s.14.49.47.49h4.5c.68,0,1.37,0,2.05,0,.36,0,.36.16.36.49s0,.49-.34.49c-.68,0-1.39,0-2.07,0H75.79c-.22,0-.4.07-.4.31a.43.43,0,0,0,0,.14,15.06,15.06,0,0,0,2.34,4.45,14.08,14.08,0,0,0,4.47,3.84c.13.07.29.16.29.31s-.25.59-.49.59c-.49,0-2.54-1.6-3-2A14.59,14.59,0,0,1,75,51.42c0-.05-.07-.11-.14-.11a.18.18,0,0,0-.14.13A11.13,11.13,0,0,1,72.91,55,17.16,17.16,0,0,1,68,59a2.26,2.26,0,0,1-.74.32c-.25,0-.5-.41-.5-.67s.14-.23.29-.31a21.1,21.1,0,0,0,2.05-1.21,10.44,10.44,0,0,0,5-7Zm1.76,8.12c-.2,0-.29-.13-.4-.29A15.28,15.28,0,0,0,74,56.05a.58.58,0,0,1-.18-.36c0-.23.31-.47.56-.47s.9.85,1.1,1.1a5.67,5.67,0,0,1,.92,1.4C76.37,58,76,58.19,75.79,58.19Z"/><path class="cls-1" d="M90.45,45.52c.36,0,.5-.14.5-.5a6.46,6.46,0,0,0-.07-1.17.69.69,0,0,1,0-.18c0-.18.13-.22.27-.22a4.51,4.51,0,0,1,.5,0c.41.05.76,0,.76.25s-.11.16-.25.25-.25.34-.23,1c0,.34.16.49.5.49h.22c.38,0,.76,0,1.15,0,.74,0,1,.16,1,.81,0,.49,0,1,0,1.44v3.73c0,.32,0,.56,0,.68,0,.31-.31.34-.52.34s-.45,0-.5-.22-.47-.22-.67-.22H89.62c-.36,0-.5.14-.5.49v4.11c0,.2.09.36.32.36a.3.3,0,0,0,.13,0c1-.31,2-.63,3-1a.35.35,0,0,0,.25-.34.51.51,0,0,0-.07-.23c-.36-.52-.68-.94-1-1.44a.5.5,0,0,1-.11-.27c0-.23.32-.45.52-.45s.31.16.41.31c.52.68,1,1.37,1.44,2.09a13.07,13.07,0,0,1,1.26,2.43c0,.23-.29.41-.5.41s-.38-.36-1.06-1.55a.48.48,0,0,0-.43-.29.55.55,0,0,0-.23.05c-1.73.67-3.49,1.24-5.26,1.85-.11,0-.11.11-.14.23s-.05.23-.22.23-.18-.13-.43-.5a1.44,1.44,0,0,1-.27-.49c0-.18.27-.18.83-.38a1.74,1.74,0,0,1,.29-.09.51.51,0,0,0,.4-.58V47.73c0-.47,0-.92,0-1.39,0-.65.16-.86,1-.86.38,0,.77,0,1.15,0Zm2.84,2.77a.48.48,0,0,0,.49-.49v-.9a.49.49,0,0,0-.49-.5H89.6a.49.49,0,0,0-.49.5v.9a.48.48,0,0,0,.49.49Zm-3.69.9a.48.48,0,0,0-.49.49v1a.49.49,0,0,0,.49.5h3.69a.48.48,0,0,0,.49-.49v-1a.48.48,0,0,0-.49-.49Zm8.66-4.05c-.36,0-.5.14-.5.5V56.18c0,.81,0,1.62,0,2.43,0,.45,0,.72-.5.72s-.52-.27-.52-.7c0-.83,0-1.64,0-2.45v-10c0-.4,0-.77,0-1.17,0-.61.14-.81.77-.81l1.21,0h1.73l1.08,0c.36,0,.83.38.83.67,0,.56-1.67,3.1-2.07,3.69a2,2,0,0,0-.32.58c0,.11.16.25.23.32a6.13,6.13,0,0,1,2.23,4.46,3.17,3.17,0,0,1-.76,2.25,2.86,2.86,0,0,1-2.05.56c-.77,0-1.15.09-1.15-.72a.24.24,0,0,1,.27-.27c.18,0,.56.05,1.06.05a1.46,1.46,0,0,0,1.21-.4,2.37,2.37,0,0,0,.49-1.55c0-1.69-1.19-3-2.38-4.11a.78.78,0,0,1-.32-.5c0-.2.32-.59.43-.76a24.25,24.25,0,0,0,1.85-3.17c0-.22-.36-.2-.56-.2Z"/><path class="cls-1" d="M5.34,69.7c0,.92-.74,1.45-1.75,1.45a3,3,0,0,1-1.51-.4C2,70.69,2,70.65,2,70.6a.36.36,0,0,1,0-.13l.06-.12c0-.09.07-.13.12-.13a.27.27,0,0,1,.13.06,2.36,2.36,0,0,0,1.35.42c.73,0,1.22-.38,1.22-1s-.54-.88-1.22-1.17S2.09,67.85,2.09,67s.69-1.34,1.74-1.34A2.9,2.9,0,0,1,5,65.9c.1,0,.14.08.14.14a.33.33,0,0,1,0,.13l-.06.14c0,.1-.06.14-.11.14a.23.23,0,0,1-.13-.06,2,2,0,0,0-1.07-.3c-.73,0-1.16.36-1.16.87s.41.78,1.25,1.15S5.34,68.84,5.34,69.7Z"/><path class="cls-1" d="M8.23,70.68h.71l.43,0c.11,0,.14,0,.14.18v.08c0,.15,0,.19-.16.19H6.78c-.14,0-.18,0-.18-.18s0-.93,0-1.41V67.26c0-.51,0-1.35,0-1.41s0-.18.18-.18H9.19c.14,0,.16,0,.16.19V66c0,.14,0,.18-.14.18l-.34,0H7.31c-.2,0-.24,0-.24.24v1.39c0,.2,0,.24.24.24h.6c.3,0,.63,0,1,0H9c.14,0,.16,0,.16.19v.09c0,.15,0,.19-.16.19H8.85c-.3,0-.62,0-.94,0h-.6c-.2,0-.24,0-.24.24v1.78c0,.2,0,.24.24.24Z"/><path class="cls-1" d="M10.88,71.1c-.15,0-.19,0-.19-.16s0-.29,0-.48,0-.65,0-1V67.28c0-.3,0-.61,0-.94,0-.18,0-.44,0-.5s0-.16.19-.16H11c.15,0,.19,0,.19.16s0,.3,0,.49c0,.34,0,.65,0,1V69.5c0,.31,0,.73,0,1s0,.42,0,.49,0,.16-.19.16Z"/><path class="cls-1" d="M14.59,69.5c0,.3,0,.71,0,1s0,.36,0,.42,0,.16-.19.16h-.13c-.15,0-.19,0-.19-.16s0-.25,0-.42,0-.72,0-1V66.36c0-.2,0-.24-.24-.24h-1l-.51,0c-.11,0-.14,0-.14-.18v-.1c0-.15,0-.19.16-.19h3.85c.14,0,.16,0,.16.19V66c0,.14,0,.18-.13.18l-.54,0h-1c-.2,0-.24,0-.24.24Z"/><path class="cls-1" d="M17.44,69.73c-.18.42-.31.76-.46,1.18-.06.17-.1.19-.26.19h-.16c-.1,0-.15,0-.15-.06a.36.36,0,0,1,0-.12c.21-.46.41-.93.61-1.39l1.12-2.66c.14-.32.27-.66.4-1,.06-.17.1-.19.26-.19H19c.17,0,.21,0,.26.19.12.33.26.66.4,1l1.12,2.66c.2.48.41.94.62,1.39a.34.34,0,0,1,0,.12s0,.06-.15.06H21c-.17,0-.21,0-.26-.19-.15-.42-.29-.75-.46-1.18l0-.1c0-.11-.14-.17-.31-.17H17.79c-.18,0-.26.06-.31.17Zm.38-.91a.49.49,0,0,0,0,.14c0,.07.06.09.18.09H19.8c.13,0,.18,0,.18-.09a.46.46,0,0,0,0-.14l-1-2.34c0-.08-.06-.11-.1-.11s-.06,0-.1.11Z"/><path class="cls-1" d="M22.92,69.5c0,.22,0,.5,0,.79s0,.6,0,.65,0,.16-.19.16h-.13c-.15,0-.19,0-.19-.16s0-.38,0-.66,0-.56,0-.78V67.28c0-.48,0-1.35,0-1.42s0-.18.18-.18h1.46c1,0,1.6.37,1.6,1.43a1.59,1.59,0,0,1-1.14,1.61c-.1,0-.15.06-.15.11a.26.26,0,0,0,.08.14l.29.34c.43.51.79,1,1.37,1.6a.28.28,0,0,1,.08.14s0,.06-.14.06h-.3a.29.29,0,0,1-.31-.16c-.35-.5-.7-.93-1.09-1.39L23.94,69a.4.4,0,0,0-.39-.18h-.39c-.2,0-.24,0-.24.24Zm0-1.32c0,.2,0,.24.24.24h.62c.7,0,1.43-.28,1.43-1.26s-.61-1-1.17-1h-.89c-.2,0-.24,0-.24.24Z"/><path class="cls-1" d="M32.18,68.29a2.68,2.68,0,0,1-2.71,2.85,2.52,2.52,0,0,1-2.57-2.7,2.64,2.64,0,0,1,2.69-2.82A2.51,2.51,0,0,1,32.18,68.29Zm-4.79.16a2.07,2.07,0,0,0,2.09,2.24,2.21,2.21,0,0,0,2.21-2.38,2.05,2.05,0,0,0-2.1-2.21A2.18,2.18,0,0,0,27.39,68.45Z"/><path class="cls-1" d="M37,69.5c0,.23,0,.51,0,.8s0,.58,0,.64,0,.16-.19.16h-.13c-.15,0-.19,0-.19-.16s0-.31,0-.65,0-.57,0-.79v-.42a.67.67,0,0,0-.14-.44l-.83-1.22c-.35-.51-.74-1.05-1.12-1.57a.24.24,0,0,1-.06-.11s0-.07.14-.07h.22a.28.28,0,0,1,.3.17c.3.5.63,1,1,1.46l.62.91c.06.08.1.12.14.12s.08,0,.14-.12l.63-.93c.32-.48.64-1,.94-1.45a.28.28,0,0,1,.3-.17H39c.1,0,.14,0,.14.07a.23.23,0,0,1-.06.11c-.37.51-.74,1-1.1,1.56l-.84,1.23a.67.67,0,0,0-.14.44Z"/><path class="cls-1" d="M40.07,69.73c-.18.42-.31.76-.46,1.18-.06.17-.1.19-.26.19h-.16c-.1,0-.15,0-.15-.06a.36.36,0,0,1,0-.12c.21-.46.41-.93.61-1.39l1.12-2.66c.14-.32.27-.66.4-1,.06-.17.1-.19.26-.19h.12c.17,0,.21,0,.26.19.12.33.26.66.4,1l1.12,2.66c.2.48.41.94.62,1.39A.34.34,0,0,1,44,71s0,.06-.15.06h-.19c-.17,0-.21,0-.26-.19-.15-.42-.29-.75-.46-1.18l0-.1c0-.11-.14-.17-.31-.17H40.42c-.18,0-.26.06-.31.17Zm.38-.91a.48.48,0,0,0,0,.14c0,.07.06.09.18.09h1.84c.13,0,.18,0,.18-.09a.46.46,0,0,0,0-.14l-1-2.34c0-.08-.06-.11-.1-.11s-.06,0-.1.11Z"/><path class="cls-1" d="M45.54,69.33c0,.57,0,1.31,0,1.57s0,.2-.2.2h-.12c-.14,0-.18,0-.18-.14s0-.41,0-.66,0-.65,0-1l0-2.22c0-.44,0-1.12,0-1.28s0-.16.19-.16h.06a.29.29,0,0,1,.31.17c.18.27.37.54.56.81l1.27,1.75c.06.08.1.12.14.12s.08,0,.14-.12L49,66.66c.19-.27.39-.55.56-.81a.28.28,0,0,1,.3-.17H50c.17,0,.2,0,.2.2,0,.41,0,.85,0,1.24l0,2.21c0,.3,0,.72,0,1s0,.57,0,.67,0,.14-.18.14H50c-.15,0-.19,0-.19-.16s0-.83,0-1.61l0-2.59c0-.08,0-.12-.06-.12s-.06,0-.09.07L47.8,69.16a.17.17,0,0,1-.15.09.19.19,0,0,1-.16-.08l-1.77-2.48s-.06-.07-.09-.07-.06,0-.06.12Z"/><path class="cls-1" d="M52.32,69.73c-.18.42-.31.76-.46,1.18-.06.17-.1.19-.26.19h-.16c-.1,0-.15,0-.15-.06a.36.36,0,0,1,0-.12c.21-.46.41-.93.61-1.39L53,66.87c.14-.32.27-.66.4-1,.06-.17.1-.19.26-.19h.12c.17,0,.21,0,.26.19.12.33.26.66.4,1l1.12,2.66c.2.48.41.94.62,1.39a.34.34,0,0,1,0,.12s0,.06-.15.06h-.19c-.17,0-.21,0-.26-.19-.15-.42-.29-.75-.46-1.18l0-.1c0-.11-.14-.17-.31-.17H52.67c-.18,0-.26.06-.31.17Zm.38-.91a.49.49,0,0,0,0,.14c0,.07.06.09.18.09h1.84c.13,0,.18,0,.18-.09a.46.46,0,0,0,0-.14l-1-2.34c0-.08-.06-.11-.1-.11s-.06,0-.1.11Z"/><path class="cls-1" d="M59.72,70.68h.67l.47,0c.11,0,.14,0,.14.18v.08c0,.15,0,.19-.16.19H57.25c-.13,0-.14,0-.14-.18v0a.42.42,0,0,1,.11-.3c.19-.26.37-.51.54-.77l2.43-3.5a.32.32,0,0,0,.06-.14s-.06-.06-.17-.06h-2.3l-.5,0c-.11,0-.14,0-.14-.18v-.1c0-.15,0-.19.16-.19h3.51c.13,0,.15,0,.15.18v0a.42.42,0,0,1-.11.3l-.53.74-2.47,3.54c0,.07-.06.1-.06.14s.06.06.17.06Z"/><path class="cls-1" d="M62.86,69.73c-.18.42-.31.76-.46,1.18-.06.17-.1.19-.26.19H62c-.1,0-.15,0-.15-.06a.36.36,0,0,1,0-.12c.21-.46.41-.93.61-1.39l1.12-2.66c.14-.32.27-.66.4-1,.06-.17.1-.19.26-.19h.12c.17,0,.21,0,.26.19.12.33.26.66.4,1l1.12,2.66c.2.48.41.94.62,1.39a.34.34,0,0,1,0,.12s0,.06-.15.06h-.19c-.17,0-.21,0-.26-.19-.15-.42-.29-.75-.46-1.18l0-.1c0-.11-.14-.17-.31-.17H63.21c-.18,0-.26.06-.31.17Zm.38-.91a.49.49,0,0,0,0,.14c0,.07.06.09.18.09h1.84c.13,0,.18,0,.18-.09a.46.46,0,0,0,0-.14l-1-2.34c0-.08-.06-.11-.1-.11s-.06,0-.1.11Z"/><path class="cls-1" d="M68.33,69.5c0,.3,0,.73,0,1s0,.37,0,.42,0,.16-.19.16H68c-.15,0-.19,0-.19-.16s0-.23,0-.41,0-.73,0-1V67.28c0-.3,0-.61,0-1,0-.18,0-.42,0-.48s0-.16.19-.16h.13c.15,0,.19,0,.19.16s0,.29,0,.47c0,.35,0,.66,0,1v1c0,.1,0,.15,0,.15s.06,0,.12-.08L69.8,67c.36-.37.72-.75,1.07-1.14a.34.34,0,0,1,.33-.15h.27c.09,0,.13,0,.13.07a.15.15,0,0,1-.06.1c-.49.45-.92.89-1.37,1.36l-.4.41c-.08.08-.11.14-.11.19a.32.32,0,0,0,.08.18l.88,1.29c.38.55.75,1.1,1.14,1.63a.22.22,0,0,1,.06.12s0,.06-.14.06h-.22a.27.27,0,0,1-.3-.18c-.3-.5-.64-1-1-1.5l-.74-1.1c-.06-.09-.1-.13-.15-.13s-.09,0-.15.1l-.62.65a.49.49,0,0,0-.16.38Z"/><path class="cls-1" d="M73.07,71.1c-.15,0-.19,0-.19-.16s0-.29,0-.48,0-.65,0-1V67.28c0-.3,0-.61,0-.94,0-.18,0-.44,0-.5s0-.16.19-.16h.13c.15,0,.19,0,.19.16s0,.3,0,.49c0,.34,0,.65,0,1V69.5c0,.31,0,.73,0,1s0,.42,0,.49,0,.16-.19.16Z"/><path class="cls-1" d="M3.7,95.89s0,0,0,.06v2.41c0,.37,0,.74,0,1.1,0,.18,0,.3-.23.3s-.23-.12-.23-.3c0-.37,0-.74,0-1.1V96a0,0,0,0,0,0,0,.05.05,0,0,0,0,0,11.83,11.83,0,0,1-.86,1.82c0,.06-.1.16-.18.16s-.24-.12-.24-.21,0-.1.07-.14A10.28,10.28,0,0,0,3.15,95a.14.14,0,0,0,0-.06c0-.11-.08-.14-.18-.14H2.19c-.14,0-.14-.11-.14-.22s0-.2.14-.2H3c.15,0,.22-.06.22-.22v-.3a6.39,6.39,0,0,0,0-1V92.8c0-.08,0-.1.12-.1l.22,0c.18,0,.33,0,.33.1s0,.07-.11.12-.1.24-.1.9v.3c0,.16.06.22.22.22h.57c.14,0,.14.1.14.22s0,.2-.14.2H3.87c-.14,0-.21.06-.22.22a.57.57,0,0,0,.06.26,8.4,8.4,0,0,0,.94,1.43.18.18,0,0,1,.06.12.28.28,0,0,1-.22.22c-.18,0-.65-.9-.74-1.08A.06.06,0,0,0,3.7,95.89Zm2.53,0c.16,0,.22-.07.22-.22v-.9c0-.16-.06-.22-.22-.22H5.59a.27.27,0,0,0-.3.19c-.07.18-.16.41-.25.58s-.08.14-.17.14-.25-.06-.25-.14a1.1,1.1,0,0,1,.08-.21,6.43,6.43,0,0,0,.63-2c0-.06,0-.1.1-.1s.45.06.45.15,0,.06-.07.08-.1.1-.14.26,0,.26-.12.5a.18.18,0,0,0,0,.06c0,.1.08.14.17.14h.51c.16,0,.22-.06.22-.22v-.14a5.76,5.76,0,0,0,0-.91.28.28,0,0,1,0-.08c0-.08.06-.1.12-.1l.22,0c.16,0,.3,0,.3.1s0,.07-.1.11-.1.22-.1.86V94c0,.16.06.22.22.22h.65l.9,0c.14,0,.16.06.16.22s0,.22-.15.22l-.9,0H7.07c-.15,0-.22.06-.22.22v.9c0,.15.06.21.22.22H8l.9,0c.15,0,.16.08.16.22s0,.22-.15.22l-.9,0H7.22c-.08,0-.15,0-.15.12a.11.11,0,0,0,0,.07A11.12,11.12,0,0,0,9,99s.12.11.12.18a.28.28,0,0,1-.22.23c-.1,0-.39-.31-.47-.4A8.72,8.72,0,0,1,7,96.89a.05.05,0,0,0,0,0s0,0,0,.06v1.52c0,.36,0,.72,0,1.08,0,.17,0,.26-.22.26s-.22-.1-.22-.28c0-.35,0-.7,0-1.06V96.9a.05.05,0,0,0,0-.06.06.06,0,0,0-.06,0A8.66,8.66,0,0,1,4.75,99c-.11.1-.4.39-.56.39A.31.31,0,0,1,4,99.16c0-.08.11-.17.18-.22a9.23,9.23,0,0,0,2.08-2.44.1.1,0,0,0,0-.06c0-.09-.06-.11-.14-.12H5.71l-.9,0c-.15,0-.16-.09-.16-.22s0-.22.16-.22l.9,0Z"/><path class="cls-1" d="M14.41,94.22H16l.92,0c.15,0,.16.08.16.22s0,.22-.16.22l-.92,0H14.45a.17.17,0,0,0-.19.18v0a11.6,11.6,0,0,0,1.17,3.8c.11.18.38.62.63.62.4,0,.5-.88.54-1.18,0-.1,0-.22.15-.22s.27,0,.27.2a3.09,3.09,0,0,1-.14.7c-.13.42-.3.91-.82.91a.66.66,0,0,1-.37-.11,3.62,3.62,0,0,1-.92-1.3,12.68,12.68,0,0,1-1-3.42.21.21,0,0,0-.25-.21H11.12l-.93,0c-.14,0-.15-.08-.15-.21s0-.22.15-.22l.93,0h2.42c.12,0,.2,0,.2-.18v0s-.1-1.21-.1-1.23a.09.09,0,0,1,.1-.1l.32,0c.14,0,.26,0,.26.1s0,.07-.12.1a.12.12,0,0,0-.08.13c0,.22,0,.71.06.94S14.25,94.22,14.41,94.22Zm-2.23,4.15c0,.1,0,.18.15.18h.06l1.22-.3.17,0c.11,0,.15.13.15.22s-.1.18-.26.22c-.87.24-2,.46-2.89.62-.22,0-.22,0-.26.15s0,.06-.08.06-.08,0-.15-.24a1.51,1.51,0,0,1-.08-.26s0-.07.11-.08a11.29,11.29,0,0,0,1.23-.2c.16,0,.19-.1.21-.26V96.65a.2.2,0,0,0-.22-.22H11.3l-.78,0c-.14,0-.15-.1-.15-.21s0-.22.15-.22l.78,0h1.24l.78,0c.15,0,.15.1.15.22s0,.21-.15.21l-.78,0H12.4a.2.2,0,0,0-.22.22ZM16,93.88c-.09,0-.14-.07-.19-.14-.23-.25-.48-.49-.74-.71,0,0-.11-.1-.11-.16a.28.28,0,0,1,.22-.22c.11,0,.46.35.55.44s.5.47.5.58A.27.27,0,0,1,16,93.88Z"/><path class="cls-1" d="M21.16,93.4a.15.15,0,0,0-.12.07A9.41,9.41,0,0,1,18.17,96a1.11,1.11,0,0,1-.33.15c-.09,0-.22-.17-.22-.26s.1-.14.21-.19a8.11,8.11,0,0,0,3.23-3.06s0-.08.09-.08.46.13.46.25-.1.06-.14.06h0a.06.06,0,0,0,0,0,.08.08,0,0,0,0,.06,9.28,9.28,0,0,0,3.17,2.69c.07,0,.18.08.18.17s-.1.27-.21.27a6,6,0,0,1-1.2-.69,9.8,9.8,0,0,1-2.08-2A.16.16,0,0,0,21.16,93.4Zm-1.09,5.48a.19.19,0,0,0,0,.06c0,.07.06.1.13.1l2.35-.24a.11.11,0,0,0,.1-.1.15.15,0,0,0,0-.08l-.46-.51a.21.21,0,0,1-.06-.12.25.25,0,0,1,.22-.21.23.23,0,0,1,.17.09c.24.26.47.52.7.78s.45.51.66.78a.26.26,0,0,1,.06.14.24.24,0,0,1-.22.2c-.1,0-.17-.1-.48-.49a.31.31,0,0,0-.26-.13h-.06c-1.34.16-2.7.3-4,.42,0,0,0,0-.09.08s0,.08-.1.08-.2-.45-.2-.48.12-.09.19-.09.51,0,.66,0a.31.31,0,0,0,.3-.2,16,16,0,0,0,.75-1.57.19.19,0,0,0,0-.06c0-.1-.07-.12-.15-.13h-.94l-.94,0c-.14,0-.15-.08-.15-.22s0-.22.15-.22l.94,0H23l.93,0c.15,0,.16.08.16.22s0,.22-.16.22l-.93,0h-2.3a0,0,0,0,0,0,.08c.09.06.21.1.21.18s-.07.06-.14.07a.13.13,0,0,0-.1.06C20.48,98,20.29,98.45,20.07,98.88Zm.33-3.05-.79,0c-.14,0-.15-.1-.15-.22s0-.22.15-.22l.79,0h1.54l.78,0c.15,0,.16.1.16.22s0,.22-.15.22l-.79,0Z"/><path class="cls-1" d="M27.13,96.68c-.06,0-.07,0-.07.1v2c0,.26,0,.51,0,.78s0,.3-.23.3-.22-.12-.22-.3,0-.52,0-.78V97s0-.1-.09-.1a.14.14,0,0,0-.07,0c-.2.19-.42.38-.63.57a.4.4,0,0,1-.26.13.24.24,0,0,1-.23-.22c0-.1.1-.15.19-.22a10.08,10.08,0,0,0,1.86-1.88,3.21,3.21,0,0,0,.38-.64c0-.07,0-.08-.44-.08h-.79l-.91,0c-.14,0-.16-.08-.16-.22s0-.22.16-.22l.79,0c.15,0,.22-.07.22-.22v-.37a6.44,6.44,0,0,0,0-.79s0,0,0-.07.07-.1.12-.1l.22,0c.23,0,.34,0,.34.11s0,.07-.11.11-.1.21-.1.73V94c0,.16.06.22.22.22h.62a.34.34,0,0,1,.35.35A4.88,4.88,0,0,1,27.36,96a.22.22,0,0,0-.06.15.21.21,0,0,0,.07.15c.34.32.7.61,1.06.9.06,0,.13.09.13.17s-.11.25-.23.25a.45.45,0,0,1-.25-.14c-.3-.26-.59-.53-.87-.81A.12.12,0,0,0,27.13,96.68Zm4-1.55.9,0c.15,0,.16.08.16.22s0,.22-.15.22l-.91,0h-.41c-.16,0-.22.06-.22.22V98.8c0,.15.06.22.22.22h.73l.92,0c.15,0,.15.1.15.22s0,.22-.15.22l-.92,0H28.86l-.92,0c-.14,0-.15-.08-.15-.22s0-.22.15-.22l.92,0h1c.16,0,.22-.07.22-.22V95.74c0-.15-.06-.22-.22-.22h-.29l-.91,0c-.15,0-.16-.09-.16-.22s0-.22.16-.22l.91,0h.29c.16,0,.22-.06.22-.22V93.78a6.31,6.31,0,0,0,0-.9s0-.06,0-.08.06-.1.12-.1l.23,0c.26,0,.33,0,.33.11s0,.07-.11.11-.1.24-.1.85V94.9c0,.16.06.22.22.22Z"/><path class="cls-1" d="M36,97.25c0,1-.1,1.15,1.06,1.15A18.86,18.86,0,0,0,39,98.28h.07c.1,0,.1.08.1.15,0,.26,0,.34-.18.35-.33,0-1.37,0-1.74,0a3.22,3.22,0,0,1-1.42-.18c-.25-.18-.26-.44-.26-.77s0-.42,0-.62V96a.16.16,0,0,0-.16-.16h0l-.69.14-1,.21c-.14,0-.16-.25-.16-.33s.16-.12,1.11-.3l.78-.15a.23.23,0,0,0,.18-.22v-.91c0-.24,0-.79,0-1a.57.57,0,0,1,0-.1c0-.06,0-.07.08-.07s.56,0,.56.16,0,.07-.06.11a.35.35,0,0,0-.07.22c0,.18,0,.5,0,.69v.81a.16.16,0,0,0,.2.16l2.07-.4.86-.18c.1,0,.37.21.37.31a.29.29,0,0,1-.09.18l-.74.86c-.22.26-.45.54-.68.79-.06.07-.13.17-.24.17s-.35-.12-.35-.24a.16.16,0,0,1,.06-.11,10.17,10.17,0,0,0,1.21-1.29.08.08,0,0,0,0-.06.06.06,0,0,0-.06-.06l-.37.06-2.05.4A.24.24,0,0,0,36,96Z"/><path class="cls-1" d="M44,98.37c0,.34,0,.66,0,1,0,.18-.07.21-.29.21s-.22,0-.22-.21c0-.34,0-.66,0-1V95.72c0-.06,0-.2-.11-.2a.34.34,0,0,0-.18.1,12.47,12.47,0,0,1-1.79,1.15,1.82,1.82,0,0,1-.38.18c-.1,0-.28-.2-.28-.29s.08-.12.15-.15A10.42,10.42,0,0,0,45,93.08s0-.08.1-.08.26.14.34.18.14.09.14.15-.06.08-.11.1-.12,0-.19.14a10.38,10.38,0,0,1-1.17,1.28c-.09.09-.14.13-.14.26Z"/><path class="cls-1" d="M51.1,94.22a4,4,0,0,0,.7,0l.1,0c.1,0,.3.34.3.42a.3.3,0,0,1-.06.14,1.51,1.51,0,0,0-.22.4,13,13,0,0,1-.8,1.51.26.26,0,0,0-.06.17.2.2,0,0,0,.1.18c.25.18.54.37.54.48s-.14.33-.25.33-.08,0-.12-.06l-.39-.3a.29.29,0,0,0-.18-.09c-.13,0-.18.09-.26.18A6.52,6.52,0,0,1,48.67,99a6,6,0,0,1-1,.44.49.49,0,0,1-.34-.34c0-.08.11-.1.27-.16a5.72,5.72,0,0,0,2.46-1.62.36.36,0,0,0,.11-.22.24.24,0,0,0-.14-.21,9.77,9.77,0,0,0-1-.56s-.14-.06-.14-.12.14-.32.26-.32a7.35,7.35,0,0,1,1.11.57.54.54,0,0,0,.24.1c.15,0,.2-.12.27-.24a7.58,7.58,0,0,0,.67-1.46c0-.19-.24-.17-.37-.17h-2c-.13,0-.18.1-.26.2a11.81,11.81,0,0,1-1.11,1.36.26.26,0,0,1-.17.07c-.11,0-.35-.13-.35-.24s.06-.1.09-.12a7.78,7.78,0,0,0,2-2.83s.06-.19.13-.19a2.3,2.3,0,0,1,.42.24c.06,0,.09,0,.09.1s-.11.11-.16.13-.09.11-.13.18-.17.3-.26.45a.16.16,0,0,0,0,.1.11.11,0,0,0,.13.11Z"/><path class="cls-1" d="M58.35,94.1h.58c.38,0,.46.09.46.39s0,.41,0,.62v2.71c0,.28,0,.55,0,.82s0,.22-.29.22-.22-.09-.22-.3-.12-.24-.34-.24H55.12c-.22,0-.34,0-.34.24s0,.3-.22.3-.29,0-.29-.22,0-.54,0-.82V95.1c0-.2,0-.4,0-.61s.06-.4.45-.4h3.61ZM55,94.54a.22.22,0,0,0-.22.22v2.88a.22.22,0,0,0,.22.22h3.71a.22.22,0,0,0,.22-.22V94.76a.22.22,0,0,0-.22-.22Z"/><path class="cls-1" d="M63.62,94.49a.21.21,0,0,0,.22-.22v-.38a4.68,4.68,0,0,0,0-.75.47.47,0,0,1,0-.1c0-.06,0-.08.1-.08s.58,0,.58.15-.06.1-.09.13-.08.23-.08.65v.39a.21.21,0,0,0,.22.22h1.25l.66,0c.14,0,.35.24.35.32a3.55,3.55,0,0,0-.11.46,6.3,6.3,0,0,1-.62,2,5.11,5.11,0,0,1-1.72,1.81,3.52,3.52,0,0,1-.86.5.35.35,0,0,1-.27-.28c0-.09.11-.13.19-.17a5,5,0,0,0,2.47-2.54,4.66,4.66,0,0,0,.34-1.42c0-.26-.19-.23-.42-.23H62.22a.22.22,0,0,0-.22.22v1c0,.21,0,.44,0,.54s-.06.18-.26.18-.22,0-.22-.19,0-.35,0-.53V94.74c0-.21,0-.26.35-.26Z"/><path class="cls-1" d="M73.57,95.66l1,0c.16,0,.18.06.18.22s0,.25-.19.25l-.94,0H72.3c-.21,0-.22.22-.23.34A4.32,4.32,0,0,1,71.54,98a3.09,3.09,0,0,1-1.18,1.07,3.85,3.85,0,0,1-.83.35c-.11,0-.32-.23-.32-.33s.11-.11.18-.14a4.09,4.09,0,0,0,1.07-.46,2.81,2.81,0,0,0,1.07-1.67,3,3,0,0,0,.08-.54.19.19,0,0,0-.19-.18H69.52l-1,0c-.16,0-.17-.1-.17-.23s0-.24.18-.24l1,0ZM72.33,93.5l1,0c.16,0,.18.06.18.24s0,.23-.18.23l-1,0H70.61l-1,0c-.15,0-.18-.07-.18-.23s0-.24.18-.24l1,0Zm2.21.24a2.24,2.24,0,0,1,.34.43c0,.1-.19.26-.29.26s-.08,0-.11-.09q-.25-.32-.53-.62s-.06-.07-.06-.1.18-.24.26-.24S74.49,93.67,74.55,93.74Zm.61-.66a2.81,2.81,0,0,1,.35.46c0,.09-.18.26-.29.26s-.08,0-.11-.09a8,8,0,0,0-.53-.62s-.06-.06-.06-.1.18-.24.27-.24S75.1,93,75.16,93.08Z"/><path class="cls-1" d="M77.43,95.07a.23.23,0,0,0,.25-.22v-.77c0-.24,0-.37,0-.61,0,0,0-.07,0-.1s0-.08.1-.08.55,0,.55.15-.06.1-.09.13-.06.39-.06.51v.77a.22.22,0,0,0,.22.22h1.88a.23.23,0,0,0,.23-.25v-.22a10.07,10.07,0,0,0,0-1.21.37.37,0,0,1,0-.1c0-.06,0-.08.09-.08l.36,0c.06,0,.17,0,.17.1s0,.06-.06.1a3,3,0,0,0-.06.87c0,.15,0,.3,0,.44v0c0,.18.1.27.22.27h.34l1,0c.16,0,.18.07.18.23s0,.24-.18.24l-1,0h-.34c-.26,0-.23.28-.23.34a4.9,4.9,0,0,1-.46,2.38,3.33,3.33,0,0,1-1.51,1.2.23.23,0,0,1-.1,0c-.09,0-.33-.19-.33-.28s.1-.11.2-.15c1.6-.7,1.74-1.65,1.74-3.25,0-.14-.07-.26-.22-.26H78.36a.22.22,0,0,0-.22.22v1.13c0,.1,0,.46,0,.51s-.08.22-.25.22-.23-.07-.23-.24,0-.33,0-.49V95.74a.22.22,0,0,0-.22-.22h-.34l-1,0c-.16,0-.18-.1-.18-.24s0-.23.18-.23l1,0Zm4.33-1.73c.07,0,.34.29.4.35s.35.36.35.42a.39.39,0,0,1-.29.26s-.08,0-.1-.08a6.74,6.74,0,0,0-.56-.61s-.06-.06-.06-.1A.39.39,0,0,1,81.76,93.34Zm.69-.59c.07,0,.33.28.4.34s.35.36.35.42a.39.39,0,0,1-.29.26s-.08,0-.1-.08a7.79,7.79,0,0,0-.56-.61s-.06-.06-.06-.1A.4.4,0,0,1,82.45,92.75Z"/><path class="cls-1" d="M87,98.37c0,.34,0,.66,0,1,0,.18-.07.21-.29.21s-.22,0-.22-.21c0-.34,0-.66,0-1V95.72c0-.06,0-.2-.11-.2a.34.34,0,0,0-.18.1,12.46,12.46,0,0,1-1.79,1.15,1.82,1.82,0,0,1-.38.18c-.1,0-.28-.2-.28-.29s.08-.12.15-.15A10.42,10.42,0,0,0,88,93.08s0-.08.1-.08.26.14.34.18.14.09.14.15-.06.08-.11.1-.12,0-.19.14a10.36,10.36,0,0,1-1.17,1.28c-.09.09-.14.13-.14.26Z"/><path class="cls-1" d="M96.29,95.3c0,.1-.39.48-.49.58a15.66,15.66,0,0,1-1.89,1.59,12.92,12.92,0,0,1-2.33,1.33c-.2.09-.2.1-.27.25a.11.11,0,0,1-.1.06c-.08,0-.12-.1-.18-.22a1.61,1.61,0,0,1-.15-.32c0-.06.12-.09.2-.11a10.48,10.48,0,0,0,3.14-1.77A13.78,13.78,0,0,0,96,95a.16.16,0,0,1,.12-.09C96.2,94.93,96.29,95.24,96.29,95.3Zm-4.95-1.69.78.55c.18.14.39.27.39.36s-.15.31-.28.31-.27-.17-.34-.22c-.28-.22-.56-.44-.86-.63,0,0-.1-.06-.1-.13s.14-.3.26-.3A.31.31,0,0,1,91.34,93.61Z"/><path class="cls-1" d="M98.38,95.7s0-.08-.06-.08a.07.07,0,0,0-.06,0c-.19.25-.4.5-.62.73-.06.06-.12.13-.21.13a.29.29,0,0,1-.25-.22c0-.08.09-.15.14-.2a9.4,9.4,0,0,0,2-3.29c0-.06,0-.14.12-.14s.48.14.48.25-.07.1-.11.11-.13.08-.19.23a11.3,11.3,0,0,1-.78,1.56s0,0,0,0,0,.06.06.06.14,0,.14.09,0,.07-.11.12-.1.2-.1.81v2.49c0,.34,0,.67,0,1,0,.18,0,.31-.22.31s-.23-.11-.23-.3,0-.67,0-1Zm3.31-.14a7.88,7.88,0,0,0,1,3.13c.13.19.42.58.67.58s.3-.18.36-.34a3.79,3.79,0,0,0,.18-.67c0-.08,0-.14.13-.14s.32,0,.32.19a3.83,3.83,0,0,1-.24.81c-.15.33-.34.62-.74.62s-.76-.44-1-.76a8.06,8.06,0,0,1-1.17-3.38.2.2,0,0,0-.24-.2l-.77.06-.81.08c-.11,0-.15-.06-.15-.27s0-.17.3-.18l.64,0L101,95a.18.18,0,0,0,.19-.19.36.36,0,0,1,0,0c-.06-.54-.08-1-.1-1.58,0-.12,0-.3,0-.35a.11.11,0,0,1,.11-.12l.33.06c.22,0,.26,0,.26.12s-.06.09-.13.11-.08.08-.08.21c0,.43,0,1.09.1,1.53a.19.19,0,0,0,.23.19l1.51-.12.82-.08c.1,0,.15,0,.15.27s0,.16-.3.17l-.63,0-1.5.12c-.1,0-.18.06-.18.18Zm1.5-1.19a.19.19,0,0,1-.16-.1,7.29,7.29,0,0,0-.78-.94.21.21,0,0,1-.1-.15c0-.1.14-.2.23-.2a.16.16,0,0,1,.14.06c.26.26.45.5.68.77.06.07.22.28.22.36A.25.25,0,0,1,103.19,94.37Z"/><path class="cls-1" d="M108,97.59v1c0,.1,0,.18.15.18h.06c.39-.09.9-.19,1.27-.32l.09,0c.12,0,.15.13.15.22s-.07.17-.21.21a28.16,28.16,0,0,1-2.81.62c-.23,0-.22,0-.26.15a.09.09,0,0,1-.09.06c-.06,0-.08-.06-.13-.18a2.91,2.91,0,0,1-.1-.31c0-.06,0-.08.1-.08.29,0,.86-.13,1.15-.2a.22.22,0,0,0,.2-.26V97.9c0-.06,0-.13-.1-.13l-.08,0a8.55,8.55,0,0,1-1.61.78,1.07,1.07,0,0,1-.26.07c-.1,0-.17-.15-.17-.24s.1-.14.18-.17a7.13,7.13,0,0,0,2.88-1.73.14.14,0,0,0,0-.08c0-.06-.06-.08-.1-.09h-1.85l-.93,0c-.14,0-.15-.09-.15-.22s0-.22.15-.22l.93,0h2c.15,0,.22-.06.22-.22v-.36c0-.15-.06-.22-.22-.22h-1.1l-.81,0c-.15,0-.16-.1-.16-.22s0-.22.16-.22l.81,0h1.1c.15,0,.22-.06.22-.22v-.29c0-.16-.06-.21-.22-.22H107l-.9,0c-.14,0-.15-.09-.15-.22s0-.22.16-.22l.89,0h1.53c.16,0,.22-.06.22-.22a3.74,3.74,0,0,0,0-.51s0,0,0-.07.06-.1.13-.1l.22,0c.18,0,.33,0,.33.11s0,.07-.11.11-.11.15-.1.46c0,.15.07.22.22.22h1.5l.88,0c.15,0,.17.06.17.22s0,.22-.16.22l-.89,0h-1.51c-.15,0-.22.06-.22.22v.29c0,.15.06.22.22.22h1.09l.81,0c.14,0,.16.08.16.22s0,.22-.15.22l-.82,0h-1.09c-.15,0-.22.06-.22.22v.36c0,.16.06.22.22.22h1.93l.92,0c.15,0,.16.08.16.22s0,.22-.16.22l-.92,0h-1.66c-.09,0-.17,0-.17.14a.17.17,0,0,0,0,.06,4.06,4.06,0,0,0,.5,1,.19.19,0,0,0,.17.1.24.24,0,0,0,.13,0,9.48,9.48,0,0,0,1.2-.9s.06-.06.09-.06.33.35.33.41a.07.07,0,0,1-.06.07l-.07,0-.08,0a.11.11,0,0,0-.07,0,9.42,9.42,0,0,1-1.08.77.18.18,0,0,0-.1.14.17.17,0,0,0,.06.12,4.82,4.82,0,0,0,1.66,1.1c.1,0,.22.07.22.18s-.09.26-.19.26a4.74,4.74,0,0,1-3.05-3.13.11.11,0,0,0-.1-.09.11.11,0,0,0-.1,0c-.19.21-.48.49-.7.68A.35.35,0,0,0,108,97.59Z"/><path class="cls-1" d="M115.48,99c0,.09-.2.35-.33.35s-.11-.06-.15-.1a4.16,4.16,0,0,0-1.2-1c-.06,0-.12-.07-.12-.14a.46.46,0,0,1,.3-.31A4.44,4.44,0,0,1,115.48,99Z"/><path class="cls-1" d="M7.47,108a6.81,6.81,0,0,0,.7,0h0c.21,0,.38.4.38.48s0,.1-.09.14c-.39.33-.9.86-1.27,1.23-.1.1-.46.46-.57.54a.17.17,0,0,1-.11,0,.37.37,0,0,1-.3-.27.15.15,0,0,1,.07-.1,15.53,15.53,0,0,0,1.54-1.5c0-.11-.16-.1-.24-.1H3.52l-1,0c-.16,0-.17-.09-.17-.24s0-.23.18-.23l1,0Zm-1.75.86c.06,0,.13,0,.13.11s0,.07-.07.1a.21.21,0,0,0-.1.18,7.64,7.64,0,0,1-.21,1.33,4.52,4.52,0,0,1-1.77,2.61.37.37,0,0,1-.19.1c-.1,0-.29-.16-.29-.27s.1-.14.15-.17A4.46,4.46,0,0,0,5.22,109v-.15c0-.06,0-.08.09-.08Z"/><path class="cls-1" d="M14.41,109.89l.94,0c.18,0,.2.06.2.26s0,.24-.17.24l-1,0H10.75l-1,0c-.17,0-.18-.09-.18-.24s0-.26.2-.26l.94,0Z"/><path class="cls-1" d="M18.84,112.08c0,.4,0,.79,0,1.19,0,.24,0,.34-.26.34s-.26-.1-.26-.34c0-.4,0-.79,0-1.19v-3.84a8.28,8.28,0,0,0,0-1,1,1,0,0,1,0-.15c0-.06,0-.09.08-.09s.57.08.57.18,0,.07-.06.1a3.68,3.68,0,0,0-.06,1ZM20.3,110c.12.09.63.49.63.61a.34.34,0,0,1-.26.29.24.24,0,0,1-.16-.08,9.55,9.55,0,0,0-1.26-1c-.06,0-.14-.08-.14-.17s.14-.29.24-.29A5.1,5.1,0,0,1,20.3,110Z"/><path class="cls-1" d="M28.11,109.66l1,0c.16,0,.18.06.18.22s0,.25-.19.25l-.94,0H26.84c-.21,0-.22.22-.23.34a4.32,4.32,0,0,1-.53,1.55,3.09,3.09,0,0,1-1.18,1.07,3.85,3.85,0,0,1-.83.35c-.11,0-.32-.23-.32-.33s.11-.11.18-.14a4.08,4.08,0,0,0,1.07-.46,2.81,2.81,0,0,0,1.07-1.67,3.05,3.05,0,0,0,.08-.54.19.19,0,0,0-.19-.18H24.06l-1,0c-.16,0-.17-.1-.17-.23s0-.24.18-.24l1,0Zm-1.23-2.16,1,0c.16,0,.18.06.18.24s0,.23-.18.23l-1,0H25.15l-1,0c-.15,0-.18-.07-.18-.23s0-.24.18-.24l1,0Zm2.21.24a2.24,2.24,0,0,1,.34.43c0,.1-.19.26-.29.26s-.08,0-.11-.09q-.25-.32-.53-.62s-.06-.07-.06-.1.18-.24.26-.24S29,107.67,29.09,107.74Zm.61-.66a2.77,2.77,0,0,1,.35.46c0,.09-.18.26-.29.26s-.08,0-.11-.09a7.73,7.73,0,0,0-.53-.62s-.06-.06-.06-.1.18-.24.27-.24S29.64,107,29.7,107.08Z"/><path class="cls-1" d="M33.31,112.63c0,.26,0,.53,0,.78s-.11.18-.26.18-.21,0-.21-.19,0-.51,0-.78v-2c0-.06,0-.13-.1-.13a.36.36,0,0,0-.21.11,9.66,9.66,0,0,1-1.56.93c-.1,0-.26-.18-.26-.26s.1-.13.2-.18a9.07,9.07,0,0,0,2.22-1.54,4.56,4.56,0,0,0,.83-1s.06-.12.12-.12.41.19.41.3-.06.09-.11.1a.17.17,0,0,0-.12.09,6.89,6.89,0,0,1-.89,1,.38.38,0,0,0-.12.32Z"/><path class="cls-1" d="M37.9,111.64c0,.24,0,.37,0,.46s0,.2.11.2a9.37,9.37,0,0,0,1.34-.58,12.11,12.11,0,0,0,2.81-2s.1-.1.15-.1.22.21.22.31a.17.17,0,0,1-.08.12c-.19.18-.39.34-.6.5a14.27,14.27,0,0,1-3.44,2l-.32.15a.4.4,0,0,1-.18.07,1.34,1.34,0,0,1-.44-.19.16.16,0,0,1-.08-.15s0-.58,0-1v-2.73a6.63,6.63,0,0,0,0-1.1s0,0,0-.06a.08.08,0,0,1,.09-.09c.08,0,.54.08.54.19s0,.06,0,.09a.19.19,0,0,0-.06.14c0,.22,0,.61,0,.82Z"/><path class="cls-1" d="M48.13,108.31a4.17,4.17,0,0,0,.71,0l.08,0a.72.72,0,0,1,.36.38c0,.08-.13.18-.32.58a8.11,8.11,0,0,1-3.62,4,1.63,1.63,0,0,1-.42.18c-.1,0-.42-.15-.42-.26s.11-.11.17-.14a7.63,7.63,0,0,0,1.27-.7,7,7,0,0,0,1.94-2.07,6.54,6.54,0,0,0,.68-1.36c0-.12-.2-.1-.38-.1H46.33a.34.34,0,0,0-.38.19c-.17.23-1.06,1.34-1.3,1.34-.07,0-.35-.13-.35-.24a.12.12,0,0,1,.06-.1,7.41,7.41,0,0,0,2.08-2.76c0-.07,0-.16.11-.16s.54.15.54.26,0,.08-.08.1a.39.39,0,0,0-.22.22,4.93,4.93,0,0,1-.27.48.23.23,0,0,0,0,.1.11.11,0,0,0,.12.12Z"/><path class="cls-1" d="M55,108.22a4,4,0,0,0,.7,0l.1,0c.1,0,.3.34.3.42a.3.3,0,0,1-.06.14,1.51,1.51,0,0,0-.22.4,13,13,0,0,1-.8,1.51.26.26,0,0,0-.06.17.2.2,0,0,0,.1.18c.25.18.54.37.54.48s-.14.33-.25.33-.08,0-.12-.06l-.39-.3a.29.29,0,0,0-.18-.09c-.13,0-.18.09-.26.18a6.52,6.52,0,0,1-1.8,1.44,6,6,0,0,1-1,.44.49.49,0,0,1-.34-.34c0-.08.11-.1.27-.16A5.72,5.72,0,0,0,54,111.27a.36.36,0,0,0,.11-.22.24.24,0,0,0-.14-.21,9.77,9.77,0,0,0-1-.56s-.14-.06-.14-.12.14-.32.26-.32a7.35,7.35,0,0,1,1.11.57.54.54,0,0,0,.24.1c.15,0,.2-.12.27-.24a7.58,7.58,0,0,0,.67-1.46c0-.19-.24-.17-.37-.17H53c-.13,0-.18.1-.26.2a11.82,11.82,0,0,1-1.11,1.36.26.26,0,0,1-.17.07c-.11,0-.35-.13-.35-.24s.06-.1.09-.12a7.77,7.77,0,0,0,2-2.83s.06-.19.13-.19a2.3,2.3,0,0,1,.42.24c.06,0,.09,0,.09.1s-.11.11-.16.13-.09.11-.13.18-.17.3-.26.45a.16.16,0,0,0,0,.1.11.11,0,0,0,.13.11Z"/><path class="cls-1" d="M62.49,109.89l.94,0c.18,0,.2.06.2.26s0,.24-.17.24l-1,0H58.83l-1,0c-.17,0-.18-.09-.18-.24s0-.26.2-.26l.94,0Z"/><path class="cls-1" d="M67.25,113c0,.09-.2.35-.33.35s-.11-.06-.15-.1a4.16,4.16,0,0,0-1.2-1c-.06,0-.12-.07-.12-.14a.46.46,0,0,1,.3-.31A4.44,4.44,0,0,1,67.25,113Z"/><path class="cls-1" d="M74.62,109.66l1,0c.16,0,.18.06.18.22s0,.25-.19.25l-.94,0H73.36c-.21,0-.22.22-.23.34A4.32,4.32,0,0,1,72.6,112a3.09,3.09,0,0,1-1.18,1.07,3.85,3.85,0,0,1-.83.35c-.11,0-.32-.23-.32-.33s.11-.11.18-.14a4.08,4.08,0,0,0,1.07-.46,2.81,2.81,0,0,0,1.07-1.67,3,3,0,0,0,.08-.54.19.19,0,0,0-.19-.18H70.57l-1,0c-.16,0-.17-.1-.17-.23s0-.24.18-.24l1,0Zm-1.23-2.16,1,0c.16,0,.18.06.18.24s0,.23-.18.23l-1,0H71.66l-1,0c-.15,0-.18-.07-.18-.23s0-.24.18-.24l1,0Zm2.21.24a2.24,2.24,0,0,1,.34.43c0,.1-.19.26-.29.26s-.08,0-.11-.09q-.25-.32-.53-.62s-.06-.07-.06-.1.18-.24.26-.24S75.54,107.67,75.6,107.74Zm.61-.66a2.77,2.77,0,0,1,.35.46c0,.09-.18.26-.29.26s-.08,0-.11-.09a7.73,7.73,0,0,0-.53-.62s-.06-.06-.06-.1.18-.24.27-.24S76.15,107,76.21,107.08Z"/><path class="cls-1" d="M78.48,109.07a.23.23,0,0,0,.25-.22v-.77c0-.24,0-.37,0-.61,0,0,0-.07,0-.1s0-.08.1-.08.55,0,.55.15-.06.1-.09.13-.06.39-.06.51v.77a.22.22,0,0,0,.22.22h1.88a.23.23,0,0,0,.23-.25v-.22a10.07,10.07,0,0,0,0-1.21.37.37,0,0,1,0-.1c0-.06,0-.08.09-.08l.36,0c.06,0,.17,0,.17.1s0,.06-.06.1a3,3,0,0,0-.06.87c0,.15,0,.3,0,.44v0c0,.18.1.27.22.27h.34l1,0c.16,0,.18.07.18.23s0,.24-.18.24l-1,0h-.34c-.26,0-.23.28-.23.34a4.9,4.9,0,0,1-.46,2.38,3.33,3.33,0,0,1-1.51,1.2.23.23,0,0,1-.1,0c-.09,0-.33-.19-.33-.28s.1-.11.2-.15c1.6-.7,1.74-1.65,1.74-3.25,0-.14-.07-.26-.22-.26H79.41a.22.22,0,0,0-.22.22v1.13c0,.1,0,.46,0,.51s-.08.22-.25.22-.23-.07-.23-.24,0-.33,0-.49v-1.13a.22.22,0,0,0-.22-.22h-.33l-1,0c-.16,0-.18-.1-.18-.24s0-.23.18-.23l1,0Zm4.33-1.73c.07,0,.33.29.4.35s.35.36.35.42a.39.39,0,0,1-.29.26s-.08,0-.1-.08a6.59,6.59,0,0,0-.56-.61s-.06-.06-.06-.1A.39.39,0,0,1,82.82,107.34Zm.69-.59c.07,0,.34.28.4.34s.35.36.35.42a.39.39,0,0,1-.29.26s-.08,0-.1-.08a7.77,7.77,0,0,0-.56-.61s-.06-.06-.06-.1A.4.4,0,0,1,83.5,106.75Z"/><path class="cls-1" d="M88,112.37c0,.34,0,.66,0,1,0,.18-.07.21-.29.21s-.22,0-.22-.21c0-.34,0-.66,0-1v-2.65c0-.06,0-.2-.11-.2a.34.34,0,0,0-.18.1,12.46,12.46,0,0,1-1.79,1.15,1.82,1.82,0,0,1-.38.18c-.1,0-.28-.2-.28-.29s.08-.12.15-.15A10.42,10.42,0,0,0,89,107.08s0-.08.1-.08.26.14.34.18.14.09.14.15-.06.08-.11.1-.12,0-.19.14a10.36,10.36,0,0,1-1.17,1.28c-.09.09-.14.13-.14.26Z"/><path class="cls-1" d="M93.84,109.21c.26,0,.23-.29.23-.64s0-1,0-1.25a.43.43,0,0,1,0-.1c0-.06,0-.08.1-.08a3.55,3.55,0,0,1,.42.06s.11,0,.11.1,0,.06-.06.1,0,.5,0,.61c0,.32,0,.65,0,1a.22.22,0,0,0,.22.25h1.33l1,0c.17,0,.18.07.18.24s0,.23-.18.23l-1,0H94.69c-.17,0-.22.13-.23.27a4.1,4.1,0,0,1-1.66,3,3.8,3.8,0,0,1-.7.41c-.1,0-.36-.22-.36-.3s.11-.11.2-.15A3.52,3.52,0,0,0,94,110a1.16,1.16,0,0,0,0-.16.21.21,0,0,0-.2-.21H92l-1,0c-.16,0-.18-.07-.18-.24s0-.23.18-.23l1,0Z"/><path class="cls-1" d="M103.42,109.89l.94,0c.18,0,.2.06.2.26s0,.24-.17.24l-1,0H99.76l-1,0c-.17,0-.18-.09-.18-.24s0-.26.2-.26l.94,0Z"/><path class="cls-1" d="M3.7,123.89s0,0,0,.06v2.41c0,.37,0,.74,0,1.1,0,.18,0,.3-.23.3s-.23-.12-.23-.3c0-.37,0-.74,0-1.1V124a0,0,0,0,0,0,0,.05.05,0,0,0,0,0,11.83,11.83,0,0,1-.86,1.82c0,.06-.1.16-.18.16s-.24-.12-.24-.21,0-.1.07-.14A10.28,10.28,0,0,0,3.15,123a.14.14,0,0,0,0-.06c0-.11-.08-.14-.18-.14H2.19c-.14,0-.14-.11-.14-.22s0-.2.14-.2H3c.15,0,.22-.06.22-.22v-.3a6.39,6.39,0,0,0,0-1v-.08c0-.08,0-.1.12-.1l.22,0c.18,0,.33,0,.33.1s0,.07-.11.12-.1.24-.1.9v.3c0,.16.06.22.22.22h.57c.14,0,.14.1.14.22s0,.2-.14.2H3.87c-.14,0-.21.06-.22.22a.57.57,0,0,0,.06.26,8.4,8.4,0,0,0,.94,1.43.18.18,0,0,1,.06.12.28.28,0,0,1-.22.22c-.18,0-.65-.9-.74-1.08A.06.06,0,0,0,3.7,123.89Zm2.53,0c.16,0,.22-.07.22-.22v-.9c0-.16-.06-.22-.22-.22H5.59a.27.27,0,0,0-.3.19c-.07.18-.16.41-.25.58s-.08.14-.17.14-.25-.06-.25-.14a1.1,1.1,0,0,1,.08-.21,6.43,6.43,0,0,0,.63-2c0-.06,0-.1.1-.1s.45.06.45.15,0,.06-.07.08-.1.1-.14.26,0,.26-.12.5a.18.18,0,0,0,0,.06c0,.1.08.14.17.14h.51c.16,0,.22-.06.22-.22v-.14a5.76,5.76,0,0,0,0-.91.28.28,0,0,1,0-.08c0-.08.06-.1.12-.1l.22,0c.16,0,.3,0,.3.1s0,.07-.1.11-.1.22-.1.86V122c0,.16.06.22.22.22h.65l.9,0c.14,0,.16.06.16.22s0,.22-.15.22l-.9,0H7.07c-.15,0-.22.06-.22.22v.9c0,.15.06.21.22.22H8l.9,0c.15,0,.16.08.16.22s0,.22-.15.22l-.9,0H7.22c-.08,0-.15,0-.15.12a.11.11,0,0,0,0,.07A11.12,11.12,0,0,0,9,127s.12.11.12.18a.28.28,0,0,1-.22.23c-.1,0-.39-.31-.47-.4A8.72,8.72,0,0,1,7,124.89a.05.05,0,0,0,0,0s0,0,0,.06v1.52c0,.36,0,.72,0,1.08,0,.17,0,.26-.22.26s-.22-.1-.22-.28c0-.35,0-.7,0-1.06V124.9a.05.05,0,0,0,0-.06.06.06,0,0,0-.06,0,8.66,8.66,0,0,1-1.6,2.1c-.11.1-.4.39-.56.39a.31.31,0,0,1-.22-.22c0-.08.11-.17.18-.22a9.23,9.23,0,0,0,2.08-2.44.1.1,0,0,0,0-.06c0-.09-.06-.11-.14-.12H5.71l-.9,0c-.15,0-.16-.09-.16-.22s0-.22.16-.22l.9,0Z"/><path class="cls-1" d="M14.41,122.22H16l.92,0c.15,0,.16.08.16.22s0,.22-.16.22l-.92,0H14.45a.17.17,0,0,0-.19.18v0a11.6,11.6,0,0,0,1.17,3.8c.11.18.38.62.63.62.4,0,.5-.88.54-1.18,0-.1,0-.22.15-.22s.27,0,.27.2a3.09,3.09,0,0,1-.14.7c-.13.42-.3.91-.82.91a.66.66,0,0,1-.37-.11,3.62,3.62,0,0,1-.92-1.3,12.68,12.68,0,0,1-1-3.42.21.21,0,0,0-.25-.21H11.12l-.93,0c-.14,0-.15-.08-.15-.21s0-.22.15-.22l.93,0h2.42c.12,0,.2,0,.2-.18v0s-.1-1.21-.1-1.23a.09.09,0,0,1,.1-.1l.32,0c.14,0,.26,0,.26.1s0,.07-.12.1a.12.12,0,0,0-.08.13c0,.22,0,.71.06.94S14.25,122.22,14.41,122.22Zm-2.23,4.15c0,.1,0,.18.15.18h.06l1.22-.3.17,0c.11,0,.15.13.15.22s-.1.18-.26.22c-.87.24-2,.46-2.89.62-.22,0-.22,0-.26.15s0,.06-.08.06-.08,0-.15-.24a1.51,1.51,0,0,1-.08-.26s0-.07.11-.08a11.29,11.29,0,0,0,1.23-.2c.16,0,.19-.1.21-.26v-1.82a.2.2,0,0,0-.22-.22H11.3l-.78,0c-.14,0-.15-.1-.15-.21s0-.22.15-.22l.78,0h1.24l.78,0c.15,0,.15.1.15.22s0,.21-.15.21l-.78,0H12.4a.2.2,0,0,0-.22.22ZM16,121.88c-.09,0-.14-.07-.19-.14-.23-.25-.48-.49-.74-.71,0,0-.11-.1-.11-.16a.28.28,0,0,1,.22-.22c.11,0,.46.35.55.44s.5.47.5.58A.27.27,0,0,1,16,121.88Z"/><path class="cls-1" d="M21.16,121.4a.15.15,0,0,0-.12.07A9.41,9.41,0,0,1,18.17,124a1.11,1.11,0,0,1-.33.15c-.09,0-.22-.17-.22-.26s.1-.14.21-.19a8.11,8.11,0,0,0,3.23-3.06s0-.08.09-.08.46.13.46.25-.1.06-.14.06h0a.06.06,0,0,0,0,0,.08.08,0,0,0,0,.06,9.28,9.28,0,0,0,3.17,2.69c.07,0,.18.08.18.17s-.1.27-.21.27a6,6,0,0,1-1.2-.69,9.8,9.8,0,0,1-2.08-2A.16.16,0,0,0,21.16,121.4Zm-1.09,5.48a.19.19,0,0,0,0,.06c0,.07.06.1.13.1l2.35-.24a.11.11,0,0,0,.1-.1.15.15,0,0,0,0-.08l-.46-.51a.21.21,0,0,1-.06-.12.25.25,0,0,1,.22-.21.23.23,0,0,1,.17.09c.24.26.47.52.7.78s.45.51.66.78a.26.26,0,0,1,.06.14.24.24,0,0,1-.22.2c-.1,0-.17-.1-.48-.49a.31.31,0,0,0-.26-.13h-.06c-1.34.16-2.7.3-4,.42,0,0,0,0-.09.08s0,.08-.1.08-.2-.45-.2-.48.12-.09.19-.09.51,0,.66,0a.31.31,0,0,0,.3-.2,16,16,0,0,0,.75-1.57.19.19,0,0,0,0-.06c0-.1-.07-.12-.15-.13h-.94l-.94,0c-.14,0-.15-.08-.15-.22s0-.22.15-.22l.94,0H23l.93,0c.15,0,.16.08.16.22s0,.22-.16.22l-.93,0h-2.3a0,0,0,0,0,0,.08c.09.06.21.1.21.18s-.07.06-.14.07a.13.13,0,0,0-.1.06C20.48,126,20.29,126.45,20.07,126.88Zm.33-3.05-.79,0c-.14,0-.15-.1-.15-.22s0-.22.15-.22l.79,0h1.54l.78,0c.15,0,.16.1.16.22s0,.22-.15.22l-.79,0Z"/><path class="cls-1" d="M27.13,124.68c-.06,0-.07,0-.07.1v2c0,.26,0,.51,0,.78s0,.3-.23.3-.22-.12-.22-.3,0-.52,0-.78V125s0-.1-.09-.1a.14.14,0,0,0-.07,0c-.2.19-.42.38-.63.57a.4.4,0,0,1-.26.13.24.24,0,0,1-.23-.22c0-.1.1-.15.19-.22a10.08,10.08,0,0,0,1.86-1.88,3.21,3.21,0,0,0,.38-.64c0-.07,0-.08-.44-.08h-.79l-.91,0c-.14,0-.16-.08-.16-.22s0-.22.16-.22l.79,0c.15,0,.22-.07.22-.22v-.37a6.44,6.44,0,0,0,0-.79s0,0,0-.07.07-.1.12-.1l.22,0c.23,0,.34,0,.34.11s0,.07-.11.11-.1.21-.1.73V122c0,.16.06.22.22.22h.62a.34.34,0,0,1,.35.35,4.88,4.88,0,0,1-.91,1.46.22.22,0,0,0-.06.15.21.21,0,0,0,.07.15c.34.32.7.61,1.06.9.06,0,.13.09.13.17s-.11.25-.23.25a.45.45,0,0,1-.25-.14c-.3-.26-.59-.53-.87-.81A.12.12,0,0,0,27.13,124.68Zm4-1.55.9,0c.15,0,.16.08.16.22s0,.22-.15.22l-.91,0h-.41c-.16,0-.22.06-.22.22v3.05c0,.15.06.22.22.22h.73l.92,0c.15,0,.15.1.15.22s0,.22-.15.22l-.92,0H28.86l-.92,0c-.14,0-.15-.08-.15-.22s0-.22.15-.22l.92,0h1c.16,0,.22-.07.22-.22v-3.05c0-.15-.06-.22-.22-.22h-.29l-.91,0c-.15,0-.16-.09-.16-.22s0-.22.16-.22l.91,0h.29c.16,0,.22-.06.22-.22v-1.12a6.31,6.31,0,0,0,0-.9s0-.06,0-.08.06-.1.12-.1l.23,0c.26,0,.33,0,.33.11s0,.07-.11.11-.1.24-.1.85v1.12c0,.16.06.22.22.22Z"/><path class="cls-1" d="M35.49,125.67c0,1-.53,1.46-1.62,1.46h-.22c-.17,0-.2,0-.2-.22v-.08c0-.14,0-.18.1-.18h.09a1.63,1.63,0,0,0,.34,0,.91.91,0,0,0,1-1v-2.38c0-.3,0-.58,0-.9s0-.46,0-.54,0-.16.19-.16h.13c.15,0,.19,0,.19.16s0,.32,0,.54,0,.61,0,.9Z"/><path class="cls-1" d="M37.52,125.33c0,.57,0,1.31,0,1.57s0,.2-.2.2H37.2c-.14,0-.18,0-.18-.14s0-.41,0-.66,0-.65,0-1l0-2.22c0-.44,0-1.12,0-1.28s0-.16.19-.16h.06a.29.29,0,0,1,.31.17c.18.27.37.54.56.81l1.27,1.75c.06.08.1.12.14.12s.08,0,.14-.12L41,122.66c.19-.27.39-.55.56-.81a.28.28,0,0,1,.3-.17H42c.17,0,.2,0,.2.2,0,.41,0,.85,0,1.24l0,2.21c0,.3,0,.72,0,1s0,.57,0,.67,0,.14-.18.14h-.12c-.15,0-.19,0-.19-.16s0-.83,0-1.61l0-2.59c0-.08,0-.12-.06-.12s-.06,0-.09.07l-1.77,2.46a.17.17,0,0,1-.15.09.19.19,0,0,1-.16-.08l-1.77-2.48s-.06-.07-.09-.07-.06,0-.06.12Z"/><path class="cls-1" d="M47.44,126.77c0,.06,0,.1-.14.14a3.25,3.25,0,0,1-1.24.23,2.45,2.45,0,0,1-2.55-2.66,2.7,2.7,0,0,1,2.89-2.86,2.9,2.9,0,0,1,1,.16c.1,0,.14.07.14.14a.41.41,0,0,1,0,.12l0,.13c0,.1-.06.14-.12.14l-.13,0a2.39,2.39,0,0,0-.9-.18A2.22,2.22,0,0,0,44,124.48a2,2,0,0,0,2.11,2.22,2.33,2.33,0,0,0,1-.22.32.32,0,0,1,.13,0c.06,0,.08,0,.12.14l0,.08A.4.4,0,0,1,47.44,126.77Z"/><path class="cls-1" d="M48.85,126.51a.13.13,0,0,0-.07.09s0,.11-.1.11-.28-.44-.28-.46,0-.08.18-.1l.52-.1a.23.23,0,0,0,.21-.26V121.6c0-.14-.06-.21-.21-.22l-.47,0c-.14,0-.15-.09-.15-.22s0-.22.15-.22l.9,0H51.3l.89,0c.15,0,.16.08.16.22s0,.22-.15.22l-.43,0c-.15,0-.21.07-.21.22v4.77c0,.36,0,.72,0,1.09,0,.18,0,.32-.22.32s-.23-.14-.23-.32c0-.37,0-.73,0-1.09v-.2c0-.1,0-.18-.14-.18h-.06C50.23,126.2,49.55,126.37,48.85,126.51Zm.89-4.21a.21.21,0,0,0,.22.22h1a.22.22,0,0,0,.22-.22v-.7a.22.22,0,0,0-.22-.22h-1a.21.21,0,0,0-.22.22Zm0,1.53a.21.21,0,0,0,.22.22h1a.22.22,0,0,0,.22-.22v-.69c0-.14-.08-.22-.22-.22h-1a.2.2,0,0,0-.22.22Zm0,1.87c0,.1,0,.18.15.18h.06c.34-.07.66-.14,1-.23a.23.23,0,0,0,.2-.27v-.7c0-.15-.06-.22-.22-.22h-1c-.15,0-.22.06-.22.22Zm4,.15a.17.17,0,0,0-.13.07,11.33,11.33,0,0,1-1.4,1.36.57.57,0,0,1-.33.18.23.23,0,0,1-.22-.21c0-.08.08-.13.19-.22a8.68,8.68,0,0,0,1.54-1.49.32.32,0,0,0,.06-.18.31.31,0,0,0,0-.17,8.29,8.29,0,0,1-.82-3c0-.1-.06-.14-.17-.14h-.1c-.14,0-.16-.09-.16-.22s0-.22.16-.22l.92,0H54.8a.36.36,0,0,1,.38.36,8,8,0,0,1-.24,1.33,7.45,7.45,0,0,1-.82,1.89.28.28,0,0,0,0,.34,6.06,6.06,0,0,0,1.13,1.26c.06.06.25.21.25.28a.28.28,0,0,1-.26.25c-.26,0-1.18-1.17-1.35-1.42A.16.16,0,0,0,53.76,125.85Zm0-1a.12.12,0,0,0,.1-.06,6.91,6.91,0,0,0,.82-2.53.64.64,0,0,0,0-.11c0-.11,0-.13-.42-.13h-1.1c-.14,0-.22.06-.2.21a7.28,7.28,0,0,0,.66,2.55S53.75,124.87,53.8,124.87Z"/><path class="cls-1" d="M57.48,125.33a.16.16,0,0,0-.12.16,12.08,12.08,0,0,1-.42,1.61c0,.09-.08.16-.18.16s-.26,0-.26-.14a.19.19,0,0,1,0-.1,7.44,7.44,0,0,0,.41-1.54c0-.28,0-.38.14-.38s.48.07.48.16S57.51,125.31,57.48,125.33Zm-.29-3.11a.16.16,0,0,0,.13-.09,14.61,14.61,0,0,0,.78-1.39s0-.08.1-.08.17.1.23.14.18.12.18.18,0,.07-.14.07a.12.12,0,0,0-.1.06,13,13,0,0,1-.76,1.27.17.17,0,0,0,0,.12.2.2,0,0,0,.08.14l.24.23a.18.18,0,0,0,.12,0,.15.15,0,0,0,.14-.09c.23-.36.43-.73.65-1.09,0,0,0-.09.1-.09s.15.08.23.14.2.12.2.18-.06.06-.1.06a.2.2,0,0,0-.15.06,22.07,22.07,0,0,1-1.2,1.88.1.1,0,0,0,0,.06c0,.07.06.09.11.09l.79-.07c.06,0,.12,0,.12-.12a.19.19,0,0,0,0-.07,2,2,0,0,1-.15-.37c0-.1.16-.17.25-.17s.17.12.46.81a2.45,2.45,0,0,1,.14.43c0,.12-.16.18-.25.18s-.14-.13-.18-.22a.17.17,0,0,0-.16-.12h0l-.48.06c-.16,0-.21.1-.21.25v1.77c0,.3,0,.6,0,.9s0,.32-.23.32-.23-.12-.23-.31,0-.6,0-.9v-1.73c0-.14-.06-.22-.22-.2l-.62,0a.14.14,0,0,0-.09.07s0,.1-.1.1-.1-.09-.13-.2a2.27,2.27,0,0,1-.07-.3c0-.08.07-.08.2-.08h.31a.34.34,0,0,0,.31-.18l.3-.46a.24.24,0,0,0,0-.15.22.22,0,0,0-.08-.17c-.3-.3-.64-.58-1-.85a.21.21,0,0,1-.1-.15.26.26,0,0,1,.22-.22c.08,0,.2.12.26.18A.17.17,0,0,0,57.19,122.22Zm2,4.44c-.12,0-.16-.08-.19-.18a6.57,6.57,0,0,0-.42-1,.42.42,0,0,1-.06-.17c0-.1.15-.19.24-.19s.24.27.37.56a5,5,0,0,1,.29.84C59.43,126.59,59.3,126.65,59.2,126.65Zm3.4-5.17.91,0c.15,0,.16.07.16.22s0,.22-.15.22l-.92,0h-2l-.91,0c-.15,0-.16-.09-.16-.22s0-.22.16-.22l.91,0h.54c.15,0,.22-.06.22-.21a2.1,2.1,0,0,0,0-.39.23.23,0,0,1,0-.07c0-.08.06-.1.12-.1l.22,0c.18,0,.34,0,.34.1s0,.08-.11.12-.11.15-.1.32.07.21.22.21Zm-.13.5a.89.89,0,0,1,.25.12c.06,0,.2.1.2.17s-.06.06-.16.08-.06,0-.07,0a6.28,6.28,0,0,1-.3.64.16.16,0,0,0,0,.08c0,.08.06.1.14.11h.62c.24,0,.38,0,.38.31V124c0,.08,0,.18,0,.25s0,.18-.22.18-.22,0-.22-.15,0-.14,0-.22v-.2c0-.16-.06-.22-.22-.22H60.22c-.16,0-.21.06-.22.22V124c0,.08,0,.15,0,.22s-.11.14-.22.14-.22,0-.22-.16,0-.18,0-.26v-.17c0-.09,0-.17,0-.26,0-.26.1-.33.36-.33h1.69A.31.31,0,0,0,62,123a5.88,5.88,0,0,0,.42-1S62.42,122,62.47,122Zm-.16,2.71.4,0c.24,0,.34,0,.34.24v1.37c0,.1,0,.21,0,.32,0,.33-.13.5-.76.5-.18,0-.26,0-.26-.28,0-.08,0-.14.1-.14h.18c.3,0,.3-.1.3-.29v-1.1c0-.16-.06-.22-.22-.22h-.47c-.16,0-.22.06-.22.22v1.16c0,.32,0,.64,0,1s0,.3-.22.3-.23-.12-.23-.3,0-.64,0-1V125.3c0-.16-.06-.22-.22-.22h-.48c-.16,0-.22.06-.22.22v1c0,.19,0,.38,0,.56s0,.2-.22.2-.22,0-.22-.19,0-.38,0-.57v-1.07c0-.11,0-.22,0-.33s.1-.25.35-.25h.78c.15,0,.21-.06.22-.22a4.21,4.21,0,0,0,0-.46s0,0,0-.07.06-.1.13-.1l.22,0c.18,0,.33,0,.33.11s0,.06-.11.11-.1.16-.1.38.06.21.22.22Zm-1.54-1.62c-.14,0-.16-.1-.24-.32a3.76,3.76,0,0,0-.2-.44.24.24,0,0,1,0-.13c0-.1.15-.17.24-.17s.16.1.32.46a1.8,1.8,0,0,1,.15.42C61,123,60.84,123.06,60.77,123.06Z"/><path class="cls-1" d="M66,123.79s0,.06.07.07.22,0,.22.1,0,.07-.11.11-.1.2-.1.77v1.66c0,.32,0,.64,0,1s0,.3-.22.3-.23-.12-.23-.3,0-.64,0-1v-2.15s0-.1-.1-.1,0,0-.08,0-.55.53-.7.53a.27.27,0,0,1-.22-.21c0-.08.07-.13.14-.18a10.62,10.62,0,0,0,2-2.1s.06-.09.1-.09.44.17.44.26-.06.07-.1.08-.12,0-.2.14a12.63,12.63,0,0,1-.86,1A.1.1,0,0,0,66,123.79Zm.74-2.74c-.07,0-.09,0-.14.07a9.29,9.29,0,0,1-1.5,1.37.66.66,0,0,1-.26.12.27.27,0,0,1-.23-.21c0-.09.08-.13.18-.2a7.89,7.89,0,0,0,1.54-1.42.13.13,0,0,1,.1-.07c.06,0,.4.19.4.26S66.77,121,66.71,121Zm.66,6.4a2,2,0,0,1-.5.15.24.24,0,0,1-.24-.24c0-.13.11-.14.39-.24a6.59,6.59,0,0,0,1.62-.82c.06,0,.1-.07.1-.14a.18.18,0,0,0-.06-.14,3.83,3.83,0,0,1-.75-1.25.25.25,0,0,0-.27-.19l-.45,0c-.14,0-.16-.07-.16-.22s0-.22.16-.22l.92,0h2.31a.39.39,0,0,1,.29.07.46.46,0,0,1,.13.27c0,.35-1,1.31-1.24,1.56a.18.18,0,0,0-.07.14.17.17,0,0,0,.08.13,4.85,4.85,0,0,0,1.74.86c.09,0,.19,0,.19.16s-.06.26-.18.26a.77.77,0,0,1-.22,0,5.51,5.51,0,0,1-1.86-1,.31.31,0,0,0-.17-.06.35.35,0,0,0-.16,0A8,8,0,0,1,67.37,127.45Zm.47-4.26c-.12.16-.56.63-.75.63s-.21-.15-.21-.26.06-.11.15-.18a1.57,1.57,0,0,0,.79-1.47c0-.68-.08-.94.35-.94h1.45c.29,0,.37.09.37.38,0,.14,0,.27,0,.41v1c0,.26,0,.41.3.41h.5c.21,0,.34,0,.5-.78,0-.09,0-.14.15-.14s.27,0,.27.16a2.78,2.78,0,0,1-.21.69c-.16.34-.28.46-.67.46h-.69c-.5,0-.58-.22-.58-.62v-1.29c0-.16-.06-.22-.22-.22H68.5c-.15,0-.22,0-.23.21A2.59,2.59,0,0,1,67.85,123.18Zm1.16,2.6a.24.24,0,0,0,.16.08.26.26,0,0,0,.14-.06c.18-.15,1-1,1-1.16s-.15-.06-.42-.06H68.49c-.08,0-.16,0-.16.13a.2.2,0,0,0,0,.07A4,4,0,0,0,69,125.78Z"/><path class="cls-1" d="M2.63,139.9c0,.42,0,1,0,1s0,.16-.19.16h-.1c-.15,0-.19,0-.19-.16s0-.62,0-1v-1.38c0-.29,0-1,0-1s0-.16.19-.16h0c.16,0,.19,0,.2.19s0,.16.06.16a.26.26,0,0,0,.13-.06,1.88,1.88,0,0,1,1.08-.34,1.12,1.12,0,0,1,.88.36c.07.08.11.12.16.12s.09,0,.16-.09a2.08,2.08,0,0,1,1.2-.39,1.16,1.16,0,0,1,1.19,1.29v1.34c0,.39,0,1,0,1s0,.16-.19.16h-.1c-.15,0-.19,0-.19-.16s0-.65,0-1v-1.17c0-.63-.28-1-.87-1a1.61,1.61,0,0,0-.88.29c-.17.11-.22.2-.22.32s0,.06,0,.1,0,.26,0,.3v1.17c0,.39,0,1,0,1s0,.16-.19.16h-.1c-.15,0-.19,0-.19-.16s0-.65,0-1v-1.17c0-.63-.28-1-.87-1a1.64,1.64,0,0,0-.92.31.34.34,0,0,0-.19.36Z"/><path class="cls-1" d="M11.55,140.6a.27.27,0,0,1,0,.14s0,.09-.13.14a2.56,2.56,0,0,1-1.14.28,1.7,1.7,0,0,1-1.75-1.88,1.83,1.83,0,0,1,1.81-2c.94,0,1.42.74,1.42,1.77,0,.18,0,.24-.22.24H9.26c-.16,0-.22,0-.22.15a1.29,1.29,0,0,0,1.38,1.29,1.59,1.59,0,0,0,.85-.25.28.28,0,0,1,.14-.06s.08,0,.13.13Zm-.22-1.88a1,1,0,0,0-.94-1,1.31,1.31,0,0,0-1.29,1.06c0,.08.06.1.2.1h1.82C11.27,138.86,11.33,138.83,11.33,138.72Z"/><path class="cls-1" d="M15.67,141.1c-.16,0-.19,0-.2-.19s0-.17-.06-.17a.24.24,0,0,0-.13.06,1.82,1.82,0,0,1-1,.34,1.54,1.54,0,0,1-1.54-1.71,2.06,2.06,0,0,1,2.1-2.17,2.17,2.17,0,0,1,.41,0l.12,0c.1,0,.11-.06.11-.21v-.45c0-.39,0-1,0-1s0-.16.19-.16h.1c.15,0,.19,0,.19.16s0,.65,0,1V140c0,.43,0,.9,0,1s0,.16-.19.16Zm-.94-3.38a1.6,1.6,0,0,0-1.57,1.69,1.18,1.18,0,0,0,1.15,1.32,1.67,1.67,0,0,0,.94-.32.36.36,0,0,0,.18-.36v-2c0-.18,0-.24-.22-.29A2.15,2.15,0,0,0,14.74,137.72Z"/><path class="cls-1" d="M17.89,136.29a.35.35,0,0,1-.36.38.32.32,0,0,1-.34-.33.36.36,0,0,1,.36-.37A.32.32,0,0,1,17.89,136.29Zm-.4,4.81c-.15,0-.19,0-.19-.16s0-.67,0-1v-1.38c0-.41,0-1,0-1s0-.16.19-.16h.1c.15,0,.19,0,.19.16s0,.63,0,1v1.38c0,.37,0,1,0,1s0,.16-.19.16Z"/><path class="cls-1" d="M21.67,140.81c0,.07,0,.11-.14.15a2.17,2.17,0,0,1-.9.18,1.65,1.65,0,0,1-1.71-1.79,1.9,1.9,0,0,1,2-2.07,2,2,0,0,1,.7.12c.1,0,.14.08.14.14a.4.4,0,0,1,0,.12l0,.09c0,.1-.06.14-.11.14a.32.32,0,0,1-.13,0,1.26,1.26,0,0,0-.54-.12,1.49,1.49,0,0,0-1.5,1.61,1.26,1.26,0,0,0,1.3,1.38,1.56,1.56,0,0,0,.69-.17.41.41,0,0,1,.14-.06s.06,0,.1.14l0,.06A.3.3,0,0,1,21.67,140.81Z"/><path class="cls-1" d="M25.19,141.1c-.16,0-.19,0-.2-.19s0-.18-.07-.18a.26.26,0,0,0-.13.06,2.27,2.27,0,0,1-1.16.36c-.62,0-1.08-.3-1.08-.94,0-1,1.34-1.36,2.21-1.46.18,0,.22-.07.22-.17a1.31,1.31,0,0,0-.15-.54.8.8,0,0,0-.7-.34,2,2,0,0,0-1,.32.26.26,0,0,1-.13.06s-.07,0-.12-.13l0-.08a.37.37,0,0,1,0-.13c0-.06,0-.1.13-.15a2.92,2.92,0,0,1,1.25-.32c.88,0,1.29.45,1.27,1.47l0,1.08c0,.27,0,.58,0,.88,0,.1,0,.22,0,.27s0,.13-.18.13Zm-.37-1.94a4,4,0,0,0-.91.19c-.51.18-.9.46-.9.85s.26.54.66.54a2.17,2.17,0,0,0,1.09-.35A.34.34,0,0,0,25,140v-.66C25,139.21,24.95,139.16,24.83,139.16Z"/><path class="cls-1" d="M28,141.11h-.15c-.8,0-1.11-.3-1.11-1.18v-3.26c0-.39,0-1,0-1s0-.16.19-.16H27c.15,0,.19,0,.19.16s0,.65,0,1v3.24c0,.52.1.78.65.78H28c.08,0,.09,0,.09.14V141C28.13,141.08,28.1,141.09,28,141.11Z"/><path class="cls-1" d="M30.81,140.88c0,.17,0,.21-.2.22l-.28,0c-.85,0-1.17-.39-1.17-1.17v-2c0-.17,0-.22-.21-.22h-.36c-.11,0-.14,0-.14-.19v0c0-.15,0-.19.14-.19H29c.15,0,.2,0,.2-.21V137c0-.24,0-.66,0-.7s0-.16.19-.16h.1c.15,0,.19,0,.19.16s0,.46,0,.7v.1c0,.16,0,.21.24.21h.81c.14,0,.16,0,.16.19v0c0,.15,0,.19-.16.19h-.81c-.2,0-.24,0-.24.24v1.94c0,.6.26.78.72.78l.3,0,.1,0c.08,0,.1,0,.1.18Z"/><path class="cls-1" d="M34.6,141.1c-.16,0-.2,0-.2-.2s0-.16-.06-.16a.32.32,0,0,0-.14.06,2,2,0,0,1-1.11.34,1.2,1.2,0,0,1-1.25-1.3v-1.33c0-.37,0-1,0-1s0-.16.19-.16h.1c.15,0,.19,0,.19.16s0,.67,0,1v1.19c0,.64.33,1,.93,1a1.67,1.67,0,0,0,1-.33.34.34,0,0,0,.19-.36v-1.52c0-.38,0-1,0-1s0-.16.19-.16h.1c.15,0,.19,0,.19.16s0,.66,0,1v1.38c0,.32,0,.92,0,1s0,.16-.19.16Z"/><path class="cls-1" d="M36.68,139.93c0,.35,0,.94,0,1s0,.16-.19.16h-.1c-.15,0-.19,0-.19-.16s0-.65,0-1v-1.41c0-.42,0-1,0-1s0-.16.19-.16h0c.16,0,.19,0,.2.19v.12c0,.09,0,.15.06.15a.25.25,0,0,0,.12-.07,1.83,1.83,0,0,1,1.07-.43c.11,0,.13.06.13.2v.2c0,.09,0,.14-.1.14h-.2a1.48,1.48,0,0,0-.88.35.39.39,0,0,0-.17.36Z"/><path class="cls-1" d="M41.61,140.6a.27.27,0,0,1,0,.14s0,.09-.13.14a2.56,2.56,0,0,1-1.14.28,1.7,1.7,0,0,1-1.75-1.88,1.83,1.83,0,0,1,1.81-2c.94,0,1.41.74,1.41,1.77,0,.18,0,.24-.22.24H39.31c-.16,0-.22,0-.22.15a1.29,1.29,0,0,0,1.38,1.29,1.59,1.59,0,0,0,.85-.25.28.28,0,0,1,.14-.06s.08,0,.13.13Zm-.22-1.88a1,1,0,0,0-.94-1,1.31,1.31,0,0,0-1.29,1.06c0,.08.06.1.2.1h1.82C41.33,138.86,41.38,138.83,41.38,138.72Z"/><path class="cls-1" d="M45,141.38c0,.39,0,1,0,1s0,.16-.19.16h-.1c-.15,0-.19,0-.19-.16s0-.65,0-1v-2.86c0-.38,0-1,0-1s0-.16.19-.16h0c.16,0,.2,0,.2.19s0,.18.06.18a.26.26,0,0,0,.13-.06,1.76,1.76,0,0,1,1-.35A1.54,1.54,0,0,1,47.76,139a2.06,2.06,0,0,1-2.1,2.17,2.32,2.32,0,0,1-.41,0l-.12,0c-.1,0-.11.06-.11.21ZM47.29,139a1.18,1.18,0,0,0-1.15-1.32,1.66,1.66,0,0,0-.94.32.36.36,0,0,0-.18.36v2c0,.18,0,.24.22.29a2.15,2.15,0,0,0,.48,0A1.6,1.6,0,0,0,47.29,139Z"/><path class="cls-1" d="M50.15,141.11H50c-.8,0-1.11-.3-1.11-1.18v-3.26c0-.39,0-1,0-1s0-.16.19-.16h.1c.15,0,.19,0,.19.16s0,.65,0,1v3.24c0,.52.1.78.65.78h.22c.08,0,.09,0,.09.14V141C50.28,141.08,50.26,141.09,50.15,141.11Z"/><path class="cls-1" d="M53.89,141.1c-.16,0-.2,0-.2-.2s0-.16-.06-.16a.32.32,0,0,0-.14.06,2,2,0,0,1-1.11.34,1.2,1.2,0,0,1-1.25-1.3v-1.33c0-.37,0-1,0-1s0-.16.19-.16h.1c.15,0,.19,0,.19.16s0,.67,0,1v1.19c0,.64.33,1,.93,1a1.67,1.67,0,0,0,1-.33.34.34,0,0,0,.19-.36v-1.52c0-.38,0-1,0-1s0-.16.19-.16h.1c.15,0,.19,0,.19.16s0,.66,0,1v1.38c0,.32,0,.92,0,1s0,.16-.19.16Z"/><path class="cls-1" d="M57.87,140.1c0,.73-.63,1-1.37,1a2.26,2.26,0,0,1-1.15-.3c-.09,0-.13-.09-.13-.15a.27.27,0,0,1,0-.13l0-.08c0-.09.07-.13.11-.13s.06,0,.13.07a1.78,1.78,0,0,0,1,.32c.48,0,.86-.21.86-.62s-.42-.56-.9-.74-1.19-.47-1.19-1.1.54-1,1.3-1a2.25,2.25,0,0,1,.94.19c.1,0,.14.08.14.15a.27.27,0,0,1,0,.11l0,.1c0,.1-.06.14-.11.14a.35.35,0,0,1-.14-.06,1.75,1.75,0,0,0-.83-.22c-.42,0-.78.21-.78.56s.44.54,1,.74S57.87,139.47,57.87,140.1Z"/><path class="cls-1" d="M65.91,137.66l1,0c.16,0,.18.06.18.22s0,.25-.19.25l-.94,0H64.65c-.21,0-.22.22-.23.34a4.32,4.32,0,0,1-.53,1.55,3.09,3.09,0,0,1-1.18,1.07,3.85,3.85,0,0,1-.83.35c-.11,0-.32-.23-.32-.33s.11-.11.18-.14a4.08,4.08,0,0,0,1.07-.46,2.81,2.81,0,0,0,1.07-1.67,3,3,0,0,0,.08-.54.19.19,0,0,0-.19-.18H61.86l-1,0c-.16,0-.17-.1-.17-.23s0-.24.18-.24l1,0Zm-1.23-2.16,1,0c.16,0,.18.06.18.24s0,.23-.18.23l-1,0H63l-1,0c-.15,0-.18-.07-.18-.23s0-.24.18-.24l1,0Zm2.21.24a2.24,2.24,0,0,1,.34.43c0,.1-.19.26-.29.26s-.08,0-.11-.09q-.25-.32-.53-.62s-.06-.07-.06-.1.18-.24.26-.24S66.83,135.67,66.89,135.74Zm.61-.66a2.76,2.76,0,0,1,.35.46c0,.09-.18.26-.29.26s-.08,0-.11-.09a7.76,7.76,0,0,0-.53-.62s-.06-.06-.06-.1.18-.24.27-.24S67.45,135,67.5,135.08Z"/><path class="cls-1" d="M69.77,137.07a.23.23,0,0,0,.25-.22v-.77c0-.24,0-.37,0-.61,0,0,0-.07,0-.1s0-.08.1-.08.55,0,.55.15-.06.1-.09.13-.06.39-.06.51v.77a.22.22,0,0,0,.22.22h1.88a.23.23,0,0,0,.23-.25v-.22a10.07,10.07,0,0,0,0-1.21.37.37,0,0,1,0-.1c0-.06,0-.08.09-.08l.36,0c.06,0,.17,0,.17.1s0,.06-.06.1a3,3,0,0,0-.06.87c0,.15,0,.3,0,.44v0c0,.18.1.27.22.27h.34l1,0c.16,0,.18.07.18.23s0,.24-.18.24l-1,0h-.34c-.26,0-.23.28-.23.34a4.9,4.9,0,0,1-.45,2.38,3.33,3.33,0,0,1-1.51,1.2.23.23,0,0,1-.1,0c-.09,0-.33-.19-.33-.28s.1-.11.2-.15c1.6-.7,1.74-1.65,1.74-3.25,0-.14-.07-.26-.22-.26H70.7a.22.22,0,0,0-.22.22v1.13c0,.1,0,.46,0,.51s-.08.22-.25.22-.23-.07-.23-.24,0-.33,0-.49v-1.13a.22.22,0,0,0-.22-.22h-.33l-1,0c-.16,0-.18-.1-.18-.24s0-.23.18-.23l1,0Zm4.33-1.73c.07,0,.33.29.4.35s.35.36.35.42a.39.39,0,0,1-.29.26s-.08,0-.1-.08a6.6,6.6,0,0,0-.56-.61s-.06-.06-.06-.1A.39.39,0,0,1,74.11,135.34Zm.69-.59c.07,0,.34.28.4.34s.35.36.35.42a.39.39,0,0,1-.29.26s-.08,0-.1-.08a7.79,7.79,0,0,0-.56-.61s-.06-.06-.06-.1A.4.4,0,0,1,74.79,134.75Z"/><path class="cls-1" d="M79.3,140.37c0,.34,0,.66,0,1,0,.18-.07.21-.29.21s-.22,0-.22-.21c0-.34,0-.66,0-1v-2.65c0-.06,0-.2-.11-.2a.34.34,0,0,0-.18.1,12.46,12.46,0,0,1-1.79,1.15,1.82,1.82,0,0,1-.38.18c-.1,0-.28-.2-.28-.29s.08-.12.15-.15a10.42,10.42,0,0,0,4.09-3.42s0-.08.1-.08.26.14.34.18.14.09.14.15-.06.08-.11.1-.12,0-.19.14a10.36,10.36,0,0,1-1.17,1.28c-.09.09-.14.13-.14.26Z"/><path class="cls-1" d="M88.64,137.3c0,.1-.39.48-.49.58a15.66,15.66,0,0,1-1.89,1.59,12.92,12.92,0,0,1-2.34,1.33c-.2.09-.2.1-.27.25a.11.11,0,0,1-.1.06c-.08,0-.12-.1-.18-.22a1.62,1.62,0,0,1-.15-.32c0-.06.12-.09.2-.11a10.49,10.49,0,0,0,3.14-1.77A13.78,13.78,0,0,0,88.31,137a.16.16,0,0,1,.12-.09C88.54,136.93,88.64,137.24,88.64,137.3Zm-4.95-1.69.78.55c.18.14.39.27.39.36s-.15.31-.28.31-.27-.17-.34-.22c-.28-.22-.56-.44-.86-.63,0,0-.1-.06-.1-.13s.14-.3.26-.3A.31.31,0,0,1,83.69,135.61Z"/><path class="cls-1" d="M95.14,137.66l1,0c.16,0,.18.06.18.22s0,.25-.19.25l-.94,0H93.88c-.21,0-.22.22-.23.34a4.32,4.32,0,0,1-.53,1.55,3.09,3.09,0,0,1-1.18,1.07,3.85,3.85,0,0,1-.83.35c-.11,0-.32-.23-.32-.33s.11-.11.18-.14a4.08,4.08,0,0,0,1.07-.46,2.81,2.81,0,0,0,1.07-1.67,3,3,0,0,0,.08-.54.19.19,0,0,0-.19-.18H91.09l-1,0c-.16,0-.17-.1-.17-.23s0-.24.18-.24l1,0Zm-1.23-2.16,1,0c.16,0,.18.06.18.24s0,.23-.18.23l-1,0H92.18l-1,0c-.15,0-.18-.07-.18-.23s0-.24.18-.24l1,0Zm2.21.24a2.24,2.24,0,0,1,.34.43c0,.1-.19.26-.29.26s-.08,0-.11-.09q-.25-.32-.53-.62s-.06-.07-.06-.1.18-.24.26-.24S96.06,135.67,96.12,135.74Zm.61-.66a2.77,2.77,0,0,1,.35.46c0,.09-.18.26-.29.26s-.08,0-.11-.09a7.73,7.73,0,0,0-.53-.62s-.06-.06-.06-.1.18-.24.27-.24S96.68,135,96.73,135.08Z"/><path class="cls-1" d="M100.34,140.63c0,.26,0,.53,0,.78s-.11.18-.26.18-.21,0-.21-.19,0-.51,0-.78v-2c0-.06,0-.13-.1-.13a.36.36,0,0,0-.21.11,9.66,9.66,0,0,1-1.56.93c-.1,0-.26-.18-.26-.26s.1-.13.2-.18a9.07,9.07,0,0,0,2.22-1.54,4.56,4.56,0,0,0,.83-1s.06-.12.12-.12.41.19.41.3-.06.09-.11.1a.17.17,0,0,0-.12.09,6.89,6.89,0,0,1-.89,1,.38.38,0,0,0-.12.32Z"/><path class="cls-1" d="M104.94,139.64c0,.24,0,.37,0,.46s0,.2.11.2a9.37,9.37,0,0,0,1.34-.58,12.11,12.11,0,0,0,2.81-2s.1-.1.15-.1.22.21.22.31a.17.17,0,0,1-.08.12c-.19.18-.39.34-.6.5a14.27,14.27,0,0,1-3.44,2l-.32.15a.4.4,0,0,1-.18.07,1.34,1.34,0,0,1-.44-.19.16.16,0,0,1-.08-.15s0-.58,0-1v-2.73a6.63,6.63,0,0,0,0-1.1s0,0,0-.06a.08.08,0,0,1,.09-.09c.08,0,.54.08.54.19s0,.06,0,.09a.19.19,0,0,0-.06.14c0,.22,0,.61,0,.82Z"/><path class="cls-1" d="M115.16,136.31a4.17,4.17,0,0,0,.71,0l.08,0a.72.72,0,0,1,.36.38c0,.08-.13.18-.32.58a8.11,8.11,0,0,1-3.62,4,1.63,1.63,0,0,1-.42.18c-.1,0-.42-.15-.42-.26s.11-.11.17-.14a7.68,7.68,0,0,0,1.27-.7,7.06,7.06,0,0,0,1.93-2.07,6.54,6.54,0,0,0,.68-1.36c0-.12-.2-.1-.38-.1h-1.83a.34.34,0,0,0-.38.19c-.17.23-1.06,1.34-1.3,1.34-.07,0-.35-.13-.35-.24a.12.12,0,0,1,.06-.1,7.43,7.43,0,0,0,2.08-2.76c0-.07,0-.16.11-.16s.54.15.54.26,0,.08-.08.1a.39.39,0,0,0-.22.22,4.91,4.91,0,0,1-.27.48.23.23,0,0,0,0,.1.11.11,0,0,0,.12.12Z"/><path class="cls-1" d="M122.05,136.22a4,4,0,0,0,.7,0l.1,0c.1,0,.3.34.3.42a.3.3,0,0,1-.06.14,1.52,1.52,0,0,0-.22.4,13,13,0,0,1-.8,1.51.26.26,0,0,0-.06.17.2.2,0,0,0,.1.18c.25.18.54.37.54.48s-.14.33-.25.33-.08,0-.12-.06l-.39-.3a.29.29,0,0,0-.18-.09c-.13,0-.18.09-.26.18a6.52,6.52,0,0,1-1.8,1.44,6,6,0,0,1-1,.44.49.49,0,0,1-.34-.34c0-.08.11-.1.27-.16a5.72,5.72,0,0,0,2.46-1.62.36.36,0,0,0,.11-.22.24.24,0,0,0-.14-.21,9.77,9.77,0,0,0-1-.56s-.14-.06-.14-.12.14-.32.26-.32a7.35,7.35,0,0,1,1.11.57.54.54,0,0,0,.24.1c.15,0,.2-.12.27-.24a7.58,7.58,0,0,0,.67-1.46c0-.19-.24-.17-.37-.17h-2c-.13,0-.18.1-.26.2a11.81,11.81,0,0,1-1.11,1.36.26.26,0,0,1-.17.07c-.11,0-.35-.13-.35-.24s.06-.1.09-.12a7.77,7.77,0,0,0,2-2.83s.06-.19.13-.19a2.3,2.3,0,0,1,.42.24c.06,0,.09,0,.09.1s-.11.11-.16.13-.09.11-.13.18-.17.3-.26.45a.16.16,0,0,0,0,.1.11.11,0,0,0,.13.11Z"/><path class="cls-1" d="M129.52,137.89l.94,0c.18,0,.2.06.2.26s0,.24-.17.24l-1,0h-3.66l-1,0c-.17,0-.18-.09-.18-.24s0-.26.2-.26l.94,0Z"/></g></g></svg>