<svg xmlns="http://www.w3.org/2000/svg" viewBox="0 0 82.34 59.72"><defs><style>.cls-1{fill:#fff;}</style></defs><title>seitaro_name</title><g id="Layer_2" data-name="Layer 2"><g id="レイヤー_1" data-name="レイヤー 1"><path class="cls-1" d="M3.62,8.05c.22,0,.31-.09.31-.31V1.68a10,10,0,0,0,0-1.25.38.38,0,0,1,0-.11C3.87.2,4,.18,4,.18l.33,0c.25,0,.47,0,.47.17s-.06.1-.17.17-.14.35-.14,1.16V7.75c0,.22.09.31.31.31H7.38c.22,0,.31-.09.31-.31v-4c0-.42,0-.84,0-1.27,0,0,0-.08,0-.11s.08-.14.18-.14l.33,0c.26,0,.47,0,.47.17s-.06.1-.15.15-.15.32-.15,1.18V7.59c0,.47,0,.95,0,1.41,0,.31,0,.5-.34.5S7.67,9.32,7.67,9V8.86c0-.18-.08-.25-.26-.25H1.06c-.18,0-.26.08-.26.25V9c0,.27,0,.43-.33.43S.13,9.27.13,9c0-.45,0-.9,0-1.35v-4a10.76,10.76,0,0,0,0-1.22s0-.07,0-.11.07-.14.18-.14l.33,0c.25,0,.47,0,.47.17s-.07.1-.15.15S.77,2.83.77,3.64v4.1c0,.22.1.31.31.31Z"/><path class="cls-1" d="M14.45,6.83c.18,0,.26-.07.27-.24V3.72a7.64,7.64,0,0,0,0-1.12.38.38,0,0,1,0-.11c0-.11.08-.13.17-.13l.31,0c.24,0,.45,0,.45.15s-.07.1-.14.15-.14.27-.14,1v2.7c0,.41,0,.83,0,1.24,0,.24,0,.4-.31.4s-.32-.19-.32-.46-.08-.21-.22-.21h-1.8c-.21,0-.3.08-.31.29s0,.41,0,.6,0,.4-.31.4-.32-.14-.32-.4,0-.71,0-1.07V3.67a7.63,7.63,0,0,0,0-1.12.39.39,0,0,1,0-.11c0-.11.07-.13.17-.13l.31,0c.24,0,.45,0,.45.14s-.07.1-.15.15-.13.29-.13,1V6.57c0,.19.08.25.26.26H13c.19,0,.25-.08.26-.26V1.76a8.15,8.15,0,0,0,0-1.16.3.3,0,0,1,0-.1c0-.12.07-.14.17-.14l.31,0c.25,0,.46,0,.46.15s-.07.1-.15.15-.14.29-.14,1.07V6.57c0,.19.08.25.26.26ZM17.9,4.47a.44.44,0,0,0,.45-.24,13.83,13.83,0,0,0,.95-2c0-.06,0-.12.11-.12s.64.23.64.36-.08.09-.13.1-.14,0-.19.12c-.25.53-.5,1.06-.79,1.57a.26.26,0,0,0,0,.1c0,.11.08.14.18.15h.5l1.28,0c.2,0,.22.09.22.3s0,.3-.22.3l-.48,0c-.2,0-.27.1-.29.3v3c0,.18,0,.46,0,.63,0,.83-.82.84-1.45.84-.11,0-.32,0-.4-.08a.68.68,0,0,1-.12-.36c0-.12.12-.15.22-.15l.5,0c.66,0,.66-.21.66-.8v-3A.28.28,0,0,0,19.21,5H17c-.43,0-.86,0-1.29,0-.2,0-.21-.12-.21-.3s0-.3.21-.3l1.29,0Zm.71-3.19h.63l1.28,0c.21,0,.22.09.22.3s0,.3-.21.3l-1.29,0h-2l-1.28,0c-.21,0-.22-.12-.22-.3s0-.3.22-.3l1.28,0h.24c.2,0,.28-.08.3-.29a3,3,0,0,0,0-.54.33.33,0,0,1,0-.1c0-.12.08-.14.18-.14l.31,0c.24,0,.45,0,.45.15s-.07.1-.15.15-.13.21-.14.46S18.43,1.27,18.62,1.28Zm-.05,6.08c0,.08,0,.15,0,.23,0,.3-.14.4-.42.4H17a.31.31,0,0,0-.32.29c0,.13,0,.16-.31.16s-.27,0-.27-.25V6a.34.34,0,0,1,.39-.37h1.71c.29,0,.4.13.4.41,0,.08,0,.17,0,.24ZM17.13,4.09c-.2,0-.23-.19-.35-.53a9.07,9.07,0,0,0-.44-1,.43.43,0,0,1-.07-.19c0-.15.22-.25.35-.25a.17.17,0,0,1,.15.09,5.21,5.21,0,0,1,.36.69,5,5,0,0,1,.33,1C17.48,4,17.25,4.09,17.13,4.09Zm-.46,3a.3.3,0,0,0,.31.31h.7a.3.3,0,0,0,.31-.3V6.51a.3.3,0,0,0-.31-.31H17a.3.3,0,0,0-.31.31Z"/><path class="cls-1" d="M29.86,7.3h-1c-.18,0-.26.07-.26.25v.33c0,.22-.07.28-.3.28S28,8.06,28,7.84s0-.6,0-.91V2.45c0-.27,0-.55,0-.83s0-.53.41-.53h1.91c.36,0,.42.18.42.53s0,.55,0,.83V6.52c0,.31,0,.62,0,.92s0,.31-.31.31-.29-.1-.3-.24S30,7.3,29.86,7.3Zm-.07-3.45a.31.31,0,0,0,.31-.31V2a.29.29,0,0,0-.31-.3h-.94a.29.29,0,0,0-.31.3V3.54a.31.31,0,0,0,.31.31ZM28.55,6.46c0,.21.09.3.31.3h.94c.22,0,.31-.09.31-.3V4.7c0-.21-.09-.31-.31-.31h-.94c-.22,0-.31.1-.31.31ZM34.61,1h1.08l1,0c.21,0,.21.11.21.27s0,.27-.2.27l-1,0H34.61c-.19,0-.26.09-.26.26V2c0,.18.08.26.26.26h.68l1.06,0c.19,0,.18.13.18.26s0,.25-.18.25l-1.06,0h-.68c-.19,0-.26.08-.26.26V3.2c0,.19.08.27.26.27h1.12c.43,0,.85,0,1.28,0,.19,0,.2.1.2.29S37.21,4,37,4L35.74,4H32.5L31.21,4C31,4,31,3.89,31,3.73s0-.29.2-.29c.43,0,.86,0,1.29,0h1c.19,0,.26-.09.26-.27V3c0-.19-.08-.26-.26-.26h-.58l-1.07,0c-.18,0-.18-.12-.18-.26s0-.25.19-.25l1.06,0h.58c.19,0,.26-.09.26-.26V1.73c0-.18-.08-.26-.26-.26h-1l-1.06,0c-.19,0-.2-.12-.2-.27s0-.27.2-.27l1.06,0h1c.18,0,.25-.07.26-.25s0-.28,0-.42a.38.38,0,0,1,0-.11c0-.12.09-.14.18-.14a2.88,2.88,0,0,1,.31,0c.24,0,.45,0,.45.15s-.07.1-.15.15-.13.19-.13.33S34.44,1,34.61,1ZM35.55,8a.27.27,0,0,0-.31-.31H32.86c-.22,0-.31.1-.31.31v.42c0,.32,0,.65,0,1s-.06.32-.31.32c-.43,0-.3-.2-.3-1.29V5.14c0-.31.08-.4.43-.4h3.29c.31,0,.44.05.44.35v3.3c0,.17,0,.34,0,.51,0,.69-.39.81-1.51.81-.25,0-.38,0-.38-.4,0-.1,0-.18.14-.18h.43c.73,0,.73-.16.73-.5ZM35.32,6a.23.23,0,0,0,.23-.23V5.52a.23.23,0,0,0-.23-.23H32.79a.23.23,0,0,0-.23.23v.23a.23.23,0,0,0,.23.23ZM32.56,7a.25.25,0,0,0,.26.26h2.46A.25.25,0,0,0,35.55,7V6.75a.25.25,0,0,0-.26-.26H32.82a.25.25,0,0,0-.26.26Z"/><path class="cls-1" d="M44.25,4.07c0-.16-.12-.22-.26-.22H41.33l-1.27,0c-.2,0-.22-.12-.22-.3s0-.3.22-.3l1.27,0h2.73c.21,0,.31-.07.33-.29s0-.43,0-.64v-1a6.52,6.52,0,0,0,0-1.13.31.31,0,0,1,0-.1c0-.12.07-.14.17-.14l.31,0c.25,0,.45,0,.45.15s-.05.1-.15.15-.13.3-.13,1v1c0,.21,0,.42,0,.63s.09.3.29.3H48l1.25,0c.22,0,.22.1.22.3s0,.3-.21.3L48,3.85H45.33c-.13,0-.24,0-.24.19a.25.25,0,0,0,0,.09,9.19,9.19,0,0,0,1.43,2.72,8.59,8.59,0,0,0,2.73,2.34c.08,0,.18.1.18.19s-.15.36-.3.36a7.84,7.84,0,0,1-1.83-1.21A8.91,8.91,0,0,1,44.83,4.9s0-.07-.09-.07a.11.11,0,0,0-.09.08,6.82,6.82,0,0,1-1.09,2.15,10.49,10.49,0,0,1-3,2.49,1.37,1.37,0,0,1-.45.2c-.15,0-.31-.25-.31-.41s.09-.14.18-.19a12.79,12.79,0,0,0,1.25-.74,6.89,6.89,0,0,0,2.3-2.31,6.9,6.9,0,0,0,.74-2Zm1.08,5c-.12,0-.18-.08-.24-.18a9.43,9.43,0,0,0-.87-1.13.35.35,0,0,1-.11-.22.36.36,0,0,1,.34-.29c.19,0,.55.52.67.67a3.47,3.47,0,0,1,.56.86C45.68,8.91,45.46,9,45.33,9Z"/><path class="cls-1" d="M54.36,1.29c.22,0,.31-.09.31-.31a3.87,3.87,0,0,0,0-.72.4.4,0,0,1,0-.11c0-.11.08-.13.17-.13l.31,0c.25,0,.46,0,.46.15s-.07.1-.15.15-.15.21-.14.64c0,.21.1.3.31.3h.13l.7,0c.45,0,.59.1.59.5s0,.58,0,.88V4.92c0,.2,0,.34,0,.42s-.19.21-.32.21-.27,0-.31-.13-.29-.13-.41-.13H53.85c-.22,0-.31.09-.31.3V8.09c0,.12.06.22.2.22h.08c.6-.19,1.2-.39,1.8-.6a.21.21,0,0,0,.15-.21.31.31,0,0,0,0-.14c-.22-.32-.42-.57-.63-.88A.31.31,0,0,1,55,6.29c0-.14.2-.27.32-.27s.19.1.25.19c.32.42.6.84.88,1.28A8,8,0,0,1,57.27,9c0,.14-.18.25-.31.25s-.23-.22-.65-.95A.29.29,0,0,0,56,8.1a.34.34,0,0,0-.14,0c-1.06.41-2.13.76-3.21,1.13-.07,0-.07.07-.09.14s0,.14-.13.14-.11-.08-.26-.31a.88.88,0,0,1-.17-.3c0-.11.17-.11.51-.23l.18-.05A.32.32,0,0,0,53,8.31V2.64c0-.29,0-.56,0-.85s.1-.53.59-.53l.7,0ZM56.1,3a.3.3,0,0,0,.3-.3V2.13a.3.3,0,0,0-.3-.31H53.84a.3.3,0,0,0-.3.31v.55a.3.3,0,0,0,.3.3Zm-2.26.55a.3.3,0,0,0-.3.3v.59a.3.3,0,0,0,.3.31H56.1a.3.3,0,0,0,.3-.3V3.83a.3.3,0,0,0-.3-.3Zm5.29-2.48c-.22,0-.31.09-.31.31V7.8c0,.5,0,1,0,1.49,0,.27,0,.44-.31.44s-.32-.16-.32-.43c0-.51,0-1,0-1.5V1.71c0-.24,0-.47,0-.72s.09-.5.47-.5h2.45c.22,0,.51.23.51.41A11.14,11.14,0,0,1,60.4,3.16a1.25,1.25,0,0,0-.2.35c0,.07.1.15.14.2a3.74,3.74,0,0,1,1.36,2.73,1.94,1.94,0,0,1-.46,1.38A1.75,1.75,0,0,1,60,8.15c-.47,0-.7.06-.7-.44a.15.15,0,0,1,.17-.17c.11,0,.34,0,.65,0a.89.89,0,0,0,.74-.24,1.45,1.45,0,0,0,.3-.95,3.56,3.56,0,0,0-1.45-2.51.48.48,0,0,1-.2-.31c0-.12.2-.36.26-.46a14.82,14.82,0,0,0,1.13-1.94c0-.13-.22-.12-.34-.12Z"/><path class="cls-1" d="M2.18,17.92c0,.58-.46.91-1.1.91a1.87,1.87,0,0,1-.95-.25c-.05,0-.08-.06-.08-.1a.23.23,0,0,1,0-.08l0-.07c0-.06,0-.08.08-.08l.08,0a1.48,1.48,0,0,0,.85.27c.46,0,.76-.24.76-.62s-.34-.55-.76-.74-1-.44-1-1,.43-.84,1.09-.84a1.82,1.82,0,0,1,.74.17c.06,0,.09.05.09.09a.2.2,0,0,1,0,.08l0,.09c0,.06,0,.08-.07.08l-.08,0a1.27,1.27,0,0,0-.67-.19c-.45,0-.73.23-.73.55s.26.49.78.72S2.18,17.38,2.18,17.92Z"/><path class="cls-1" d="M4,18.53h.72c.07,0,.08,0,.08.12v0c0,.1,0,.12-.1.12H3.14c-.08,0-.12,0-.12-.11s0-.58,0-.88V16.39c0-.32,0-.85,0-.88s0-.12.12-.12H4.65c.08,0,.1,0,.1.12v.06c0,.09,0,.12-.08.12H3.47c-.13,0-.15,0-.15.15v.87c0,.13,0,.15.15.15H4.55c.09,0,.1,0,.1.12V17c0,.09,0,.12-.1.12H3.47c-.13,0-.15,0-.15.15v1.12c0,.13,0,.15.15.15Z"/><path class="cls-1" d="M5.78,18.79c-.09,0-.12,0-.12-.1s0-.18,0-.3,0-.41,0-.6V16.4c0-.19,0-.38,0-.59s0-.28,0-.31,0-.1.12-.1h.08c.1,0,.12,0,.12.1s0,.19,0,.31,0,.41,0,.6v1.39c0,.2,0,.46,0,.6s0,.26,0,.31,0,.1-.12.1Z"/><path class="cls-1" d="M8.17,17.79c0,.19,0,.45,0,.64s0,.23,0,.26,0,.1-.12.1H8c-.1,0-.12,0-.12-.1s0-.16,0-.27,0-.45,0-.64v-2c0-.13,0-.15-.15-.15H6.81c-.07,0-.08,0-.08-.12v-.06c0-.1,0-.12.1-.12H9.24c.08,0,.1,0,.1.12v.06c0,.09,0,.12-.08.12H8.32c-.12,0-.15,0-.15.15Z"/><path class="cls-1" d="M10,17.94c-.11.27-.2.48-.29.74,0,.11-.06.12-.17.12h-.1c-.07,0-.1,0-.1,0a.22.22,0,0,1,0-.08l.38-.87.7-1.66c.08-.2.17-.42.25-.63s.06-.12.17-.12H11c.1,0,.13,0,.17.12s.16.42.25.63l.7,1.66c.13.3.26.59.39.87a.22.22,0,0,1,0,.08s0,0-.1,0H12.3c-.1,0-.13,0-.17-.12-.1-.26-.18-.47-.29-.74l0-.06c0-.07-.08-.11-.2-.11H10.26c-.11,0-.17,0-.19.11Zm.23-.57a.28.28,0,0,0,0,.08s0,.06.12.06h1.15c.08,0,.12,0,.12-.06a.3.3,0,0,0,0-.08L11,15.9s0-.07-.06-.07,0,0-.06.07Z"/><path class="cls-1" d="M13.53,17.79c0,.14,0,.31,0,.5s0,.38,0,.41,0,.1-.12.1h-.08c-.1,0-.12,0-.12-.1s0-.24,0-.41,0-.35,0-.49V16.4c0-.3,0-.85,0-.89s0-.12.12-.12h.92c.61,0,1,.23,1,.9a1,1,0,0,1-.72,1c-.06,0-.1,0-.1.07a.16.16,0,0,0,.05.09l.18.21c.27.32.5.6.86,1a.17.17,0,0,1,0,.08s0,0-.08,0h-.19a.19.19,0,0,1-.2-.1c-.22-.32-.44-.58-.68-.87l-.27-.33a.25.25,0,0,0-.25-.12h-.25c-.12,0-.15,0-.15.15Zm0-.83c0,.13,0,.15.15.15h.39c.44,0,.9-.18.9-.79s-.38-.66-.73-.66h-.56c-.12,0-.15,0-.15.15Z"/><path class="cls-1" d="M19.4,17a1.68,1.68,0,0,1-1.7,1.79,1.58,1.58,0,0,1-1.61-1.69,1.65,1.65,0,0,1,1.69-1.77A1.57,1.57,0,0,1,19.4,17Zm-3,.1a1.29,1.29,0,0,0,1.31,1.4A1.38,1.38,0,0,0,19.1,17a1.28,1.28,0,0,0-1.32-1.38A1.36,1.36,0,0,0,16.4,17.14Z"/><path class="cls-1" d="M22.47,17.79c0,.14,0,.32,0,.5s0,.37,0,.4,0,.1-.12.1h-.08c-.09,0-.12,0-.12-.1s0-.2,0-.41,0-.36,0-.5v-.26a.42.42,0,0,0-.08-.28l-.52-.76c-.22-.32-.47-.66-.7-1a.15.15,0,0,1,0-.07s0,0,.09,0h.14a.17.17,0,0,1,.19.1c.19.31.4.61.6.92l.39.57c0,.05.06.08.09.08s0,0,.08-.08l.4-.58c.2-.3.4-.6.59-.91a.17.17,0,0,1,.19-.1h.13c.06,0,.09,0,.09,0a.14.14,0,0,1,0,.07c-.23.32-.47.65-.69,1l-.53.77a.42.42,0,0,0-.08.28Z"/><path class="cls-1" d="M24.45,17.94c-.11.27-.19.48-.29.74,0,.11-.06.12-.17.12h-.1c-.07,0-.1,0-.1,0a.21.21,0,0,1,0-.08l.38-.87.7-1.66c.09-.2.17-.42.25-.63s.06-.12.16-.12h.08c.11,0,.13,0,.17.12s.16.42.25.63l.7,1.66c.13.3.25.59.39.87a.21.21,0,0,1,0,.08s0,0-.1,0h-.12c-.11,0-.13,0-.17-.12-.1-.26-.18-.47-.29-.74l0-.06c0-.07-.09-.11-.19-.11H24.67c-.11,0-.17,0-.2.11Zm.24-.57a.3.3,0,0,0,0,.08s0,.06.12.06h1.15c.08,0,.12,0,.12-.06a.28.28,0,0,0,0-.08l-.61-1.47s0-.07-.06-.07,0,0-.06.07Z"/><path class="cls-1" d="M27.94,17.69c0,.36,0,.82,0,1s0,.13-.13.13h-.07c-.09,0-.12,0-.12-.09s0-.26,0-.41,0-.41,0-.61l0-1.39c0-.27,0-.7,0-.8s0-.1.12-.1h0a.18.18,0,0,1,.2.1c.11.17.23.34.35.51l.8,1.1s.06.07.09.07,0,0,.09-.07l.79-1.1.35-.51a.17.17,0,0,1,.19-.1h0c.11,0,.13,0,.13.13s0,.53,0,.78l0,1.39c0,.19,0,.45,0,.6s0,.36,0,.42,0,.09-.12.09h-.07c-.1,0-.12,0-.12-.1s0-.52,0-1l0-1.62c0-.05,0-.08,0-.08s0,0-.05,0l-1.11,1.54a.11.11,0,0,1-.09.06.12.12,0,0,1-.1-.05L28.06,16s0,0-.06,0,0,0,0,.07Z"/><path class="cls-1" d="M32.25,17.94c-.11.27-.2.48-.29.74,0,.11-.06.12-.17.12h-.1c-.07,0-.1,0-.1,0a.22.22,0,0,1,0-.08l.38-.87.7-1.66c.09-.2.17-.42.25-.63s.06-.12.16-.12h.08c.1,0,.13,0,.17.12s.16.42.25.63l.7,1.66c.13.3.26.59.39.87a.22.22,0,0,1,0,.08s0,0-.1,0H34.5c-.1,0-.13,0-.17-.12-.1-.26-.18-.47-.29-.74l0-.06c0-.07-.09-.11-.2-.11H32.47c-.11,0-.16,0-.19.11Zm.23-.57a.28.28,0,0,0,0,.08s0,.06.12.06h1.15c.08,0,.12,0,.12-.06a.3.3,0,0,0,0-.08l-.61-1.47s0-.07-.06-.07,0,0-.06.07Z"/><path class="cls-1" d="M36.94,18.53h.72c.07,0,.08,0,.08.12v0c0,.1,0,.12-.1.12H35.4c-.08,0-.09,0-.09-.11v0a.26.26,0,0,1,.07-.18l.34-.48,1.52-2.19a.2.2,0,0,0,0-.09s0,0-.11,0H35.42c-.07,0-.09,0-.09-.12v-.06c0-.1,0-.12.1-.12h2.2c.08,0,.09,0,.09.11v0a.26.26,0,0,1-.07.19l-.33.47L35.78,18.4s0,.06,0,.08,0,0,.11,0Z"/><path class="cls-1" d="M39,17.94c-.11.27-.19.48-.29.74,0,.11-.06.12-.17.12h-.1c-.06,0-.1,0-.1,0a.21.21,0,0,1,0-.08l.38-.87.7-1.66c.09-.2.17-.42.25-.63s.06-.12.17-.12h.08c.11,0,.13,0,.16.12s.16.42.25.63l.7,1.66c.13.3.25.59.39.87a.21.21,0,0,1,0,.08s0,0-.1,0h-.12c-.1,0-.13,0-.16-.12-.1-.26-.18-.47-.29-.74l0-.06c0-.07-.09-.11-.19-.11H39.19c-.11,0-.17,0-.2.11Zm.24-.57a.3.3,0,0,0,0,.08s0,.06.12.06h1.15c.08,0,.12,0,.12-.06a.29.29,0,0,0,0-.08l-.61-1.47s0-.07-.06-.07,0,0-.06.07Z"/><path class="cls-1" d="M42.47,17.79c0,.19,0,.46,0,.64s0,.23,0,.27,0,.1-.12.1h-.08c-.1,0-.12,0-.12-.1s0-.15,0-.26,0-.46,0-.65V16.4c0-.19,0-.38,0-.6s0-.27,0-.3,0-.1.12-.1h.08c.1,0,.12,0,.12.1s0,.18,0,.3,0,.41,0,.61V17c0,.06,0,.09,0,.09s0,0,.07,0l.82-.84.67-.72a.21.21,0,0,1,.21-.09h.17c.06,0,.08,0,.08,0a.09.09,0,0,1,0,.06c-.31.28-.58.56-.86.85l-.25.26c-.05,0-.07.08-.07.12a.2.2,0,0,0,0,.12l.55.81c.23.35.47.69.71,1a.14.14,0,0,1,0,.08s0,0-.09,0h-.14a.17.17,0,0,1-.19-.11c-.19-.31-.4-.63-.62-.94l-.47-.69c0-.06-.06-.08-.1-.08S43,17,43,17l-.39.41a.31.31,0,0,0-.1.24Z"/><path class="cls-1" d="M45.5,18.79c-.1,0-.12,0-.12-.1s0-.18,0-.3,0-.41,0-.6V16.4c0-.19,0-.38,0-.59s0-.28,0-.31,0-.1.12-.1h.08c.1,0,.12,0,.12.1s0,.19,0,.31,0,.41,0,.6v1.39c0,.2,0,.46,0,.6s0,.26,0,.31,0,.1-.12.1Z"/><path class="cls-1" d="M1.15,32.79s0,0,0,0v1.51c0,.23,0,.46,0,.69s0,.19-.15.19S.84,35.14.84,35s0-.46,0-.69V32.85a0,0,0,0,0,0,0l0,0A7.4,7.4,0,0,1,.27,34s-.06.1-.12.1S0,34,0,33.95s0-.06,0-.09A6.46,6.46,0,0,0,.8,32.2a.09.09,0,0,0,0,0c0-.07-.05-.09-.11-.09H.21c-.08,0-.08-.07-.08-.14s0-.13.08-.13H.72c.1,0,.14,0,.14-.14V31.5a4,4,0,0,0,0-.6v0s0-.06.08-.06l.14,0c.12,0,.2,0,.2.07s0,0-.07.07-.06.15-.06.56v.19c0,.1,0,.14.13.14h.36c.09,0,.09.07.09.14s0,.13-.09.13H1.26c-.09,0-.13,0-.13.14a.36.36,0,0,0,0,.16,5.34,5.34,0,0,0,.59.9.11.11,0,0,1,0,.07.18.18,0,0,1-.14.14c-.12,0-.41-.56-.47-.68A0,0,0,0,0,1.15,32.79Zm1.59,0c.1,0,.14,0,.14-.14V32.1c0-.1,0-.14-.14-.14h-.4a.17.17,0,0,0-.19.12c0,.11-.1.25-.16.37s-.05.09-.1.09-.16,0-.16-.09a.7.7,0,0,1,0-.13A4,4,0,0,0,2.18,31s0-.06.06-.06.28,0,.28.09,0,0,0,.05-.06.06-.08.16,0,.16-.08.31a.11.11,0,0,0,0,0c0,.07,0,.09.1.09h.32c.1,0,.14,0,.14-.14v-.09a3.57,3.57,0,0,0,0-.57.19.19,0,0,1,0-.05s0-.06.08-.06h.13c.1,0,.19,0,.19.06s0,0-.07.07-.06.14-.06.54v.09c0,.1,0,.14.13.14h1c.09,0,.1,0,.1.14s0,.14-.1.14h-1c-.09,0-.13,0-.13.14v.56c0,.1,0,.13.13.14h.57l.56,0c.1,0,.1,0,.1.14s0,.13-.1.13h-1c-.05,0-.1,0-.1.08a.07.07,0,0,0,0,0,7,7,0,0,0,1.2,1.54s.08.07.08.11a.18.18,0,0,1-.14.14c-.06,0-.25-.19-.3-.25a5.49,5.49,0,0,1-.92-1.3,0,0,0,0,0,0,0s0,0,0,0v1c0,.23,0,.45,0,.68s0,.17-.14.17-.14-.06-.14-.17,0-.44,0-.67v-1a0,0,0,0,0,0,0l0,0a5.43,5.43,0,0,1-1,1.32c-.07.06-.25.25-.35.25a.19.19,0,0,1-.14-.14c0-.05.07-.11.11-.14a5.79,5.79,0,0,0,1.3-1.53.06.06,0,0,0,0,0c0-.06,0-.07-.09-.08h-.8c-.1,0-.1-.05-.1-.13s0-.14.1-.14l.56,0Z"/><path class="cls-1" d="M7.92,31.74H9.47c.09,0,.1,0,.1.13s0,.14-.1.14H7.94c-.07,0-.12,0-.12.11v0a7.26,7.26,0,0,0,.74,2.38c.07.12.24.39.4.39s.32-.55.34-.74,0-.13.1-.13.17,0,.17.13a2,2,0,0,1-.08.44c-.08.26-.19.57-.51.57a.42.42,0,0,1-.23-.07,2.28,2.28,0,0,1-.58-.82,8,8,0,0,1-.6-2.14A.13.13,0,0,0,7.4,32H5.28c-.09,0-.09,0-.09-.13s0-.14.09-.14H7.37c.08,0,.13,0,.13-.11v0s-.06-.76-.06-.77a.06.06,0,0,1,.06-.06l.2,0c.09,0,.16,0,.16.07s0,0-.08.06a.07.07,0,0,0,0,.08c0,.14,0,.45,0,.59S7.81,31.74,7.92,31.74Zm-1.4,2.6c0,.07,0,.12.1.12h0l.77-.19.1,0c.07,0,.1.08.1.14s-.07.12-.17.14c-.55.15-1.25.29-1.81.39-.14,0-.14,0-.17.1s0,0-.05,0,0,0-.09-.15a1,1,0,0,1-.05-.16s0,0,.07,0a7.1,7.1,0,0,0,.77-.13c.1,0,.12-.06.13-.16V33.26a.12.12,0,0,0-.14-.14H5.48c-.09,0-.1-.06-.1-.13s0-.14.1-.14H7.24c.1,0,.1.06.1.14s0,.13-.1.13H6.66a.12.12,0,0,0-.14.14Zm2.36-2.81c-.05,0-.08,0-.12-.08A6.38,6.38,0,0,0,8.3,31s-.07-.06-.07-.1a.18.18,0,0,1,.14-.14c.07,0,.29.22.35.28s.32.3.32.36A.17.17,0,0,1,8.88,31.52Z"/><path class="cls-1" d="M12.21,31.22a.09.09,0,0,0-.08,0,5.89,5.89,0,0,1-1.79,1.6.69.69,0,0,1-.21.1c-.05,0-.13-.11-.13-.16s.06-.09.13-.12a5.08,5.08,0,0,0,2-1.92s0-.05.06-.05.29.08.29.16-.06,0-.08,0h0a0,0,0,0,0,0,0,0,0,0,0,0,0,0,5.81,5.81,0,0,0,2,1.69s.12,0,.12.11-.06.17-.13.17a3.73,3.73,0,0,1-.75-.43,6.14,6.14,0,0,1-1.3-1.25A.1.1,0,0,0,12.21,31.22Zm-.68,3.43a.12.12,0,0,0,0,0s0,.07.08.07l1.47-.15a.07.07,0,0,0,.06-.06.09.09,0,0,0,0-.05l-.29-.32s0,0,0-.08a.16.16,0,0,1,.14-.13A.15.15,0,0,1,13,34l.44.49c.14.16.28.32.41.49a.16.16,0,0,1,0,.09.15.15,0,0,1-.14.13c-.06,0-.1-.06-.3-.31a.19.19,0,0,0-.17-.08h0c-.84.1-1.69.19-2.53.26,0,0,0,0-.05,0s0,.05-.06.05-.13-.28-.13-.3.08-.06.12-.06l.42,0a.19.19,0,0,0,.19-.12,9.91,9.91,0,0,0,.47-1,.11.11,0,0,0,0,0c0-.06,0-.07-.09-.08H10.44c-.09,0-.1-.05-.1-.14s0-.13.1-.13H14c.09,0,.1,0,.1.13s0,.14-.1.14H12a0,0,0,0,0,0,.05c.06,0,.13.06.13.11s0,0-.09,0a.08.08,0,0,0-.06,0C11.79,34.13,11.67,34.39,11.53,34.66Zm.21-1.91h-.5c-.09,0-.1-.06-.1-.14s0-.13.1-.13h2c.1,0,.1.06.1.13s0,.14-.1.14H11.74Z"/><path class="cls-1" d="M16,33.28s0,0,0,.06v1.22c0,.16,0,.32,0,.49s0,.18-.15.18-.14-.08-.14-.18,0-.33,0-.49V33.5s0-.06-.06-.06l0,0-.4.36a.25.25,0,0,1-.16.08.15.15,0,0,1-.15-.14c0-.07.06-.1.12-.14a6.34,6.34,0,0,0,1.17-1.18,2.05,2.05,0,0,0,.24-.4s0-.05-.28-.05h-.5l-.57,0C15,32,15,32,15,31.87s0-.14.1-.14h.5c.09,0,.13,0,.13-.14v-.23a4.05,4.05,0,0,0,0-.5s0,0,0,0,0-.06.08-.06h.14c.15,0,.21,0,.21.07s0,0-.07.07S16,31,16,31.37v.23c0,.1,0,.14.13.14h.39a.21.21,0,0,1,.22.22,3.05,3.05,0,0,1-.57.92.14.14,0,0,0,0,.1.13.13,0,0,0,0,.1c.21.2.44.38.66.56,0,0,.08.06.08.1s-.07.16-.15.16a.29.29,0,0,1-.16-.08c-.19-.16-.37-.33-.55-.51Zm2.49-1h.57c.09,0,.1.05.1.14s0,.14-.09.14h-.83c-.1,0-.14,0-.14.14V34.6c0,.09,0,.14.14.14h1c.09,0,.09.06.09.13s0,.14-.09.14H16.53c-.09,0-.09,0-.09-.14s0-.13.09-.13h1.18c.1,0,.14,0,.14-.14V32.69c0-.1,0-.14-.14-.14H17c-.1,0-.1-.06-.1-.14s0-.14.1-.14h.75c.1,0,.14,0,.14-.14v-.7a4,4,0,0,0,0-.57s0,0,0,0,0-.06.07-.06H18c.16,0,.21,0,.21.07s0,0-.07.07-.06.15-.06.53v.7c0,.1,0,.14.14.14Z"/><path class="cls-1" d="M21.67,33.63c0,.65-.06.72.67.72a11.91,11.91,0,0,0,1.2-.08h0c.06,0,.06.05.06.1s0,.21-.12.22-.86,0-1.09,0a2,2,0,0,1-.89-.11c-.16-.11-.16-.28-.16-.48s0-.26,0-.39v-.76a.1.1,0,0,0-.1-.1h0l-.43.09-.65.13c-.08,0-.1-.15-.1-.21s.1-.08.7-.19l.49-.1a.14.14,0,0,0,.12-.14v-.57c0-.15,0-.5,0-.63a.35.35,0,0,1,0-.06s0,0,0,0,.35,0,.35.1,0,0,0,.07a.22.22,0,0,0,0,.14c0,.11,0,.32,0,.43v.51a.1.1,0,0,0,.13.1l1.3-.25.54-.11c.07,0,.23.13.23.19a.18.18,0,0,1-.06.11l-.46.54-.43.5s-.08.11-.15.11-.22-.08-.22-.15a.1.1,0,0,1,0-.07,6.39,6.39,0,0,0,.76-.81,0,0,0,0,0,0,0,0,0,0,0,0,0,0l-.23,0-1.29.25a.15.15,0,0,0-.14.17Z"/><path class="cls-1" d="M26.73,34.34c0,.21,0,.42,0,.63s0,.13-.18.13-.14,0-.14-.13,0-.42,0-.63V32.68s0-.12-.07-.12a.21.21,0,0,0-.11.06,7.79,7.79,0,0,1-1.12.72,1.14,1.14,0,0,1-.24.11c-.07,0-.18-.13-.18-.18s0-.07.1-.09A6.52,6.52,0,0,0,27.38,31s0-.05.06-.05.17.09.21.12.09.06.09.1,0,0-.07.06-.08,0-.12.09a6.48,6.48,0,0,1-.73.8c-.06.06-.09.08-.09.16Z"/><path class="cls-1" d="M31.3,31.73a2.5,2.5,0,0,0,.44,0h.06c.06,0,.19.21.19.26a.19.19,0,0,1,0,.08.94.94,0,0,0-.14.25,8.12,8.12,0,0,1-.5.95.16.16,0,0,0,0,.1.13.13,0,0,0,.06.11c.15.11.33.23.33.3s-.09.21-.16.21a.12.12,0,0,1-.07,0l-.25-.19a.18.18,0,0,0-.11-.05c-.08,0-.12.05-.17.12a4.07,4.07,0,0,1-1.13.9,3.71,3.71,0,0,1-.61.28.3.3,0,0,1-.21-.21c0-.05.07-.07.17-.1a3.58,3.58,0,0,0,1.54-1,.22.22,0,0,0,.07-.14.15.15,0,0,0-.09-.13A6,6,0,0,0,30,33s-.08,0-.08-.08.09-.2.16-.2a4.58,4.58,0,0,1,.7.36.34.34,0,0,0,.15.06c.1,0,.13-.08.17-.15a4.73,4.73,0,0,0,.42-.91c0-.12-.15-.1-.23-.1H30c-.08,0-.12.06-.16.13a7.33,7.33,0,0,1-.7.85.17.17,0,0,1-.11,0c-.07,0-.22-.08-.22-.15s0-.06.05-.07A4.88,4.88,0,0,0,30.16,31s0-.12.08-.12a1.49,1.49,0,0,1,.27.15s.06,0,.06.07-.07.07-.1.08-.05.07-.08.12l-.16.28a.1.1,0,0,0,0,.06.07.07,0,0,0,.08.07Z"/><path class="cls-1" d="M35.92,31.66h.37c.24,0,.29.06.29.25s0,.26,0,.39V34c0,.18,0,.35,0,.52s0,.14-.18.14-.14-.06-.14-.19-.07-.15-.22-.15H33.91c-.14,0-.22,0-.22.15s0,.19-.14.19-.18,0-.18-.14,0-.34,0-.52v-1.7c0-.12,0-.25,0-.38s0-.25.28-.25h2.26Zm-2.11.28a.14.14,0,0,0-.14.14v1.8a.14.14,0,0,0,.14.14h2.32a.14.14,0,0,0,.14-.14v-1.8a.13.13,0,0,0-.14-.14Z"/><path class="cls-1" d="M39.31,31.91a.13.13,0,0,0,.14-.14v-.24a3,3,0,0,0,0-.47.3.3,0,0,1,0-.06s0-.05.06-.05.37,0,.37.1,0,.06-.06.08,0,.14,0,.41v.25a.13.13,0,0,0,.13.14h1.2c.09,0,.22.15.22.2a2.24,2.24,0,0,0-.07.29,4,4,0,0,1-.39,1.26,3.18,3.18,0,0,1-1.08,1.13,2.21,2.21,0,0,1-.54.31.22.22,0,0,1-.17-.18c0-.06.07-.08.12-.1a3.12,3.12,0,0,0,1.55-1.59,2.92,2.92,0,0,0,.21-.89c0-.16-.12-.15-.26-.15H38.43a.14.14,0,0,0-.14.14V33c0,.13,0,.28,0,.34s0,.11-.16.11-.14,0-.14-.12,0-.22,0-.33v-.9c0-.13,0-.16.22-.16Z"/><path class="cls-1" d="M45.61,32.64h.6c.1,0,.11,0,.11.14s0,.16-.12.16H44.82c-.13,0-.14.14-.15.22a2.69,2.69,0,0,1-.33,1,1.93,1.93,0,0,1-.74.67,2.42,2.42,0,0,1-.52.22c-.07,0-.2-.15-.2-.21s.07-.07.12-.09a2.55,2.55,0,0,0,.67-.29,1.76,1.76,0,0,0,.67-1,1.87,1.87,0,0,0,0-.34.12.12,0,0,0-.12-.12h-1.8c-.1,0-.1-.06-.1-.15s0-.15.11-.15h3.13Zm-.77-1.35.6,0c.1,0,.12,0,.12.15s0,.15-.11.15H43.16c-.1,0-.11,0-.11-.15s0-.15.12-.15l.6,0Zm1.39.15a1.4,1.4,0,0,1,.21.27c0,.06-.12.16-.18.16s-.05,0-.07-.06-.22-.27-.33-.39,0,0,0-.06.11-.15.17-.15S46.19,31.39,46.23,31.44Zm.38-.42a1.75,1.75,0,0,1,.22.29c0,.06-.12.16-.18.16s-.05,0-.07-.06a5,5,0,0,0-.33-.39s0,0,0-.06.12-.15.17-.15S46.57,31,46.61,31Z"/><path class="cls-1" d="M48.1,32.27a.14.14,0,0,0,.15-.14v-.48c0-.15,0-.23,0-.38s0,0,0-.07,0-.05.06-.05.35,0,.35.1,0,.06-.05.08,0,.25,0,.32v.48a.14.14,0,0,0,.14.14h1.18a.14.14,0,0,0,.14-.16V32a6.25,6.25,0,0,0,0-.76.23.23,0,0,1,0-.06s0-.05.06-.05l.23,0s.1,0,.1.07,0,0,0,.07a1.92,1.92,0,0,0,0,.55c0,.1,0,.19,0,.28h0c0,.12.07.17.14.17h.82c.1,0,.11,0,.11.15s0,.15-.11.15h-.82c-.16,0-.15.18-.15.21A3.07,3.07,0,0,1,50,34.24,2.09,2.09,0,0,1,49,35L49,35c-.06,0-.21-.12-.21-.18s.07-.07.13-.1c1-.44,1.09-1,1.09-2,0-.09,0-.17-.14-.17H48.68a.14.14,0,0,0-.14.14v.71c0,.06,0,.29,0,.32s0,.14-.16.14-.14,0-.14-.15,0-.21,0-.31v-.71a.14.14,0,0,0-.14-.14H47.3c-.1,0-.11-.06-.11-.15s0-.15.11-.15h.8Zm2.71-1.08s.21.18.25.22.22.23.22.27a.24.24,0,0,1-.18.17s-.05,0-.07-.05a4.17,4.17,0,0,0-.35-.38s0,0,0-.06A.24.24,0,0,1,50.81,31.19Zm.43-.37s.21.18.25.22.22.23.22.27a.24.24,0,0,1-.18.17s-.05,0-.07-.05a5.12,5.12,0,0,0-.35-.38s0,0,0-.06A.25.25,0,0,1,51.24,30.82Z"/><path class="cls-1" d="M54.15,34.34c0,.21,0,.42,0,.63s0,.13-.18.13-.14,0-.14-.13,0-.42,0-.63V32.68s0-.12-.07-.12a.22.22,0,0,0-.12.06,7.79,7.79,0,0,1-1.12.72,1.12,1.12,0,0,1-.24.11c-.06,0-.17-.13-.17-.18s0-.07.09-.09A6.52,6.52,0,0,0,54.79,31s0-.05.06-.05a.88.88,0,0,1,.21.12s.09.06.09.1,0,0-.07.06-.08,0-.12.09a6.44,6.44,0,0,1-.73.8c-.05.06-.08.08-.08.16Z"/><path class="cls-1" d="M60.09,32.42c0,.07-.25.3-.31.36a9.78,9.78,0,0,1-1.18,1,8.11,8.11,0,0,1-1.46.83c-.12.05-.12.06-.17.15a.07.07,0,0,1-.06,0c-.05,0-.08-.06-.11-.14a1,1,0,0,1-.09-.2s.07-.05.13-.07a6.55,6.55,0,0,0,2-1.11,8.49,8.49,0,0,0,1.09-1,.11.11,0,0,1,.08-.06C60,32.18,60.09,32.38,60.09,32.42ZM57,31.35l.49.35c.12.09.25.17.25.23s-.09.2-.17.2-.17-.11-.22-.14-.35-.27-.54-.39c0,0-.06,0-.06-.08s.08-.18.16-.18A.2.2,0,0,1,57,31.35Z"/><path class="cls-1" d="M61.47,32.66s0,0,0,0a0,0,0,0,0,0,0c-.12.16-.25.31-.39.46s-.08.08-.13.08a.18.18,0,0,1-.16-.14s.06-.1.08-.12a5.88,5.88,0,0,0,1.25-2.06s0-.09.07-.09.3.09.3.16,0,.06-.07.07-.08.05-.12.14a7.13,7.13,0,0,1-.49,1,0,0,0,0,0,0,0s0,0,0,0,.09,0,.09.06,0,0-.07.08-.06.13-.06.51v1.56c0,.21,0,.42,0,.63s0,.19-.14.19-.15-.07-.15-.19,0-.42,0-.64Zm2.07-.09a4.94,4.94,0,0,0,.65,2c.08.12.26.37.42.37s.19-.11.23-.21a2.37,2.37,0,0,0,.11-.42c0-.05,0-.09.08-.09s.2,0,.2.12a2.42,2.42,0,0,1-.15.51c-.1.21-.22.39-.46.39s-.48-.28-.62-.48a5.05,5.05,0,0,1-.73-2.12c0-.1-.06-.13-.15-.13l-.48,0-.51.05c-.07,0-.09,0-.09-.17s0-.1.18-.11l.4,0,.46,0a.11.11,0,0,0,.12-.12v0c0-.34-.05-.65-.06-1,0-.07,0-.18,0-.22a.07.07,0,0,1,.07-.08l.2,0c.14,0,.17,0,.17.07s0,.06-.08.07-.05,0-.05.13c0,.27,0,.68.06,1a.12.12,0,0,0,.14.12l.95-.08.51,0c.06,0,.1,0,.1.17s0,.1-.19.11l-.39,0-.94.07c-.07,0-.12,0-.12.11Zm.94-.75a.12.12,0,0,1-.1-.06,4.65,4.65,0,0,0-.49-.59.13.13,0,0,1-.06-.09c0-.07.09-.12.14-.12a.1.1,0,0,1,.09,0c.16.16.28.31.43.48s.14.18.14.23A.15.15,0,0,1,64.48,31.83Z"/><path class="cls-1" d="M67.58,33.85v.65c0,.07,0,.12.09.12h0c.25-.06.56-.12.8-.2h.05c.08,0,.1.08.1.14s0,.11-.13.13a17.77,17.77,0,0,1-1.76.39c-.14,0-.14,0-.17.1a.05.05,0,0,1-.06,0s0,0-.08-.11a1.87,1.87,0,0,1-.06-.2s0-.05.06-.05.54-.08.72-.12.13-.06.13-.16V34s0-.08-.06-.08H67.2a5.29,5.29,0,0,1-1,.49.67.67,0,0,1-.17,0c-.06,0-.1-.1-.1-.15s.06-.08.11-.1a4.47,4.47,0,0,0,1.8-1.09.09.09,0,0,0,0-.05s0,0-.06-.06H66.63l-.58,0c-.09,0-.1-.06-.1-.14s0-.13.1-.13h1.81c.09,0,.13,0,.13-.14v-.23c0-.1,0-.14-.13-.14h-1.2c-.1,0-.1-.06-.1-.14s0-.14.1-.14h1.2c.09,0,.13,0,.13-.14v-.18c0-.1,0-.13-.13-.14h-1l-.56,0c-.09,0-.1-.06-.1-.14s0-.14.1-.14h1.51c.1,0,.14,0,.14-.14a2.28,2.28,0,0,0,0-.32s0,0,0,0,0-.06.08-.06h.14c.11,0,.21,0,.21.07s0,0-.07.07-.07.1-.06.29,0,.14.14.14H69.9c.1,0,.1,0,.1.14s0,.14-.1.14l-.56,0H68.4c-.09,0-.13,0-.13.14v.18c0,.1,0,.14.13.14h1.19c.09,0,.1.05.1.14s0,.14-.1.14H68.4c-.09,0-.13,0-.13.14v.23c0,.1,0,.14.13.14h1.78c.09,0,.1,0,.1.13s0,.14-.1.14l-.58,0h-1c-.06,0-.1,0-.1.09a.11.11,0,0,0,0,0,2.53,2.53,0,0,0,.32.64.12.12,0,0,0,.11.06l.08,0a5.84,5.84,0,0,0,.75-.56s0,0,.06,0,.2.22.2.26a0,0,0,0,1,0,0H69.8a5.84,5.84,0,0,1-.68.48.12.12,0,0,0-.06.09.1.1,0,0,0,0,.07,3,3,0,0,0,1,.69c.06,0,.14,0,.14.11s-.06.17-.12.17a3,3,0,0,1-1.91-2,.07.07,0,0,0-.06-.06.07.07,0,0,0-.06,0c-.12.13-.3.31-.44.43A.22.22,0,0,0,67.58,33.85Z"/><path class="cls-1" d="M72.25,34.71c0,.06-.12.22-.21.22s-.07,0-.1-.07a2.61,2.61,0,0,0-.75-.66s-.07,0-.07-.09a.29.29,0,0,1,.19-.19A2.77,2.77,0,0,1,72.25,34.71Z"/><path class="cls-1" d="M3.51,39.61l.44,0H4c.13,0,.24.25.24.3s0,.06-.06.09c-.25.21-.56.54-.8.77-.07.06-.29.29-.36.34a.11.11,0,0,1-.07,0,.23.23,0,0,1-.19-.17.1.1,0,0,1,0-.06,9.72,9.72,0,0,0,1-.94c0-.07-.1-.06-.15-.06H.44c-.1,0-.1-.05-.1-.15s0-.15.11-.15H3.51Zm-1.1.54s.08,0,.08.07,0,0,0,.07a.13.13,0,0,0-.07.11,4.75,4.75,0,0,1-.13.83,2.83,2.83,0,0,1-1.11,1.63.23.23,0,0,1-.12.06c-.06,0-.18-.1-.18-.17s.06-.09.09-.11A2.79,2.79,0,0,0,2.1,40.25v-.1s0,0,.06,0Z"/><path class="cls-1" d="M7.94,40.78h.59c.12,0,.13,0,.13.16s0,.15-.1.15H5c-.1,0-.11-.06-.11-.15s0-.16.13-.16H7.94Z"/><path class="cls-1" d="M10.81,42.15c0,.25,0,.5,0,.75s0,.22-.17.22-.17-.06-.17-.22,0-.5,0-.75v-2.4a5.23,5.23,0,0,0,0-.63.64.64,0,0,1,0-.1s0-.06,0-.06.36,0,.36.12,0,0,0,.06a2.32,2.32,0,0,0,0,.6Zm.92-1.32c.08.06.4.31.4.38a.21.21,0,0,1-.17.18.15.15,0,0,1-.1-.05,6,6,0,0,0-.79-.64s-.09-.05-.09-.1.09-.18.15-.18A3.22,3.22,0,0,1,11.72,40.83Z"/><path class="cls-1" d="M16.7,40.64h.6c.1,0,.11,0,.11.14s0,.16-.12.16H15.91c-.13,0-.14.14-.15.22a2.69,2.69,0,0,1-.33,1,1.93,1.93,0,0,1-.74.67,2.42,2.42,0,0,1-.52.22c-.07,0-.2-.15-.2-.21s.07-.07.12-.09a2.55,2.55,0,0,0,.67-.29,1.76,1.76,0,0,0,.67-1,1.87,1.87,0,0,0,0-.34.12.12,0,0,0-.12-.12h-1.8c-.1,0-.1-.06-.1-.15s0-.15.11-.15H16.7Zm-.77-1.35.6,0c.1,0,.12,0,.12.15s0,.15-.11.15H14.25c-.1,0-.11,0-.11-.15s0-.15.12-.15l.6,0Zm1.39.15a1.4,1.4,0,0,1,.21.27c0,.06-.12.16-.18.16s-.05,0-.07-.06-.22-.27-.33-.39,0,0,0-.06.11-.15.17-.15S17.28,39.39,17.32,39.44ZM17.7,39a1.75,1.75,0,0,1,.22.29c0,.06-.12.16-.18.16s-.05,0-.07-.06a5,5,0,0,0-.33-.39s0,0,0-.06.12-.15.17-.15S17.66,39,17.7,39Z"/><path class="cls-1" d="M20,42.5c0,.16,0,.33,0,.49s-.07.11-.16.11-.13,0-.13-.12,0-.32,0-.49V41.27s0-.08-.06-.08a.22.22,0,0,0-.13.07,6,6,0,0,1-1,.58c-.06,0-.16-.11-.16-.16s.06-.08.13-.12a5.67,5.67,0,0,0,1.39-1,2.86,2.86,0,0,0,.52-.63s0-.08.07-.08.26.12.26.19,0,.06-.07.06a.11.11,0,0,0-.08.06,4.34,4.34,0,0,1-.56.62A.24.24,0,0,0,20,41Z"/><path class="cls-1" d="M23,41.88c0,.15,0,.23,0,.29s0,.13.07.13a5.88,5.88,0,0,0,.84-.37,7.6,7.6,0,0,0,1.76-1.22s.07-.06.1-.06.14.13.14.2a.11.11,0,0,1-.05.07l-.37.32a8.93,8.93,0,0,1-2.15,1.26l-.2.1a.25.25,0,0,1-.12,0,.84.84,0,0,1-.28-.12.1.1,0,0,1,0-.1s0-.36,0-.6V40.12a4.17,4.17,0,0,0,0-.69s0,0,0,0a0,0,0,0,1,.05-.06c.05,0,.34.05.34.12s0,0,0,.06a.12.12,0,0,0,0,.09c0,.13,0,.38,0,.52Z"/><path class="cls-1" d="M29.51,39.79a2.57,2.57,0,0,0,.45,0H30a.45.45,0,0,1,.23.24s-.08.11-.2.36a5.08,5.08,0,0,1-2.27,2.5,1,1,0,0,1-.27.12c-.06,0-.27-.1-.27-.17s.07-.07.1-.08a4.78,4.78,0,0,0,.8-.44A4.41,4.41,0,0,0,29.34,41a4.08,4.08,0,0,0,.43-.85c0-.08-.12-.06-.24-.06H28.38c-.13,0-.15,0-.23.12s-.66.84-.82.84-.22-.08-.22-.15a.07.07,0,0,1,0-.06,4.64,4.64,0,0,0,1.3-1.73s0-.1.07-.1.34.1.34.16,0,.05,0,.06a.24.24,0,0,0-.14.14,3,3,0,0,1-.17.3.14.14,0,0,0,0,.07.07.07,0,0,0,.07.07Z"/><path class="cls-1" d="M33.91,39.73a2.5,2.5,0,0,0,.44,0h.06c.06,0,.19.21.19.26a.19.19,0,0,1,0,.08.94.94,0,0,0-.14.25,8.14,8.14,0,0,1-.5.95.16.16,0,0,0,0,.1.13.13,0,0,0,.06.11c.15.11.34.23.34.3s-.09.21-.16.21,0,0-.07,0l-.25-.19a.18.18,0,0,0-.11-.05c-.08,0-.12.05-.17.12a4.07,4.07,0,0,1-1.13.9,3.72,3.72,0,0,1-.61.28.3.3,0,0,1-.21-.21c0-.05.07-.07.17-.1a3.58,3.58,0,0,0,1.54-1,.22.22,0,0,0,.07-.14.15.15,0,0,0-.09-.13,6,6,0,0,0-.64-.35s-.09,0-.09-.08.09-.2.16-.2a4.59,4.59,0,0,1,.7.36.34.34,0,0,0,.15.06c.1,0,.13-.08.17-.15a4.73,4.73,0,0,0,.42-.91c0-.12-.15-.1-.23-.1H32.64c-.08,0-.12.06-.16.13a7.35,7.35,0,0,1-.7.85.17.17,0,0,1-.11,0c-.07,0-.22-.08-.22-.15s0-.06.05-.07A4.88,4.88,0,0,0,32.78,39s0-.12.08-.12a1.49,1.49,0,0,1,.27.15s.06,0,.06.07-.07.07-.1.08-.05.07-.08.12l-.16.28a.1.1,0,0,0,0,.07.07.07,0,0,0,.08.07Z"/><path class="cls-1" d="M38.68,40.78h.59c.12,0,.13,0,.13.16s0,.15-.1.15h-3.5c-.1,0-.11-.06-.11-.15s0-.16.13-.16h2.88Z"/><path class="cls-1" d="M41.67,42.71c0,.06-.12.22-.21.22s-.07,0-.1-.07a2.61,2.61,0,0,0-.75-.66s-.07,0-.07-.09a.29.29,0,0,1,.19-.19A2.77,2.77,0,0,1,41.67,42.71Z"/><path class="cls-1" d="M46.3,40.64h.6c.1,0,.11,0,.11.14s0,.16-.12.16H45.51c-.13,0-.14.14-.15.22a2.69,2.69,0,0,1-.33,1,1.93,1.93,0,0,1-.74.67,2.42,2.42,0,0,1-.52.22c-.07,0-.2-.15-.2-.21s.07-.07.12-.09a2.55,2.55,0,0,0,.67-.29,1.76,1.76,0,0,0,.67-1,1.87,1.87,0,0,0,0-.34.12.12,0,0,0-.12-.12h-1.8c-.1,0-.1-.06-.1-.15s0-.15.11-.15H46.3Zm-.77-1.35.6,0c.1,0,.12,0,.12.15s0,.15-.11.15H43.85c-.1,0-.11,0-.11-.15s0-.15.12-.15l.6,0Zm1.39.15a1.4,1.4,0,0,1,.21.27c0,.06-.12.16-.18.16s-.05,0-.07-.06-.22-.27-.33-.39,0,0,0-.06.11-.15.17-.15S46.88,39.39,46.92,39.44ZM47.3,39a1.75,1.75,0,0,1,.22.29c0,.06-.12.16-.18.16s-.05,0-.07-.06a5,5,0,0,0-.33-.39s0,0,0-.06.12-.15.17-.15S47.26,39,47.3,39Z"/><path class="cls-1" d="M48.79,40.27a.14.14,0,0,0,.15-.14v-.48c0-.15,0-.23,0-.38s0,0,0-.06,0-.05.06-.05.35,0,.35.1,0,.06-.05.08,0,.25,0,.32v.48a.14.14,0,0,0,.14.14h1.18a.14.14,0,0,0,.14-.16V40a6.25,6.25,0,0,0,0-.76.23.23,0,0,1,0-.06s0-.05.06-.05l.23,0s.1,0,.1.07,0,0,0,.06a1.92,1.92,0,0,0,0,.55c0,.1,0,.19,0,.28h0c0,.12.07.17.14.17h.82c.1,0,.11,0,.11.15s0,.15-.11.15h-.82c-.16,0-.15.18-.15.21a3.07,3.07,0,0,1-.29,1.49,2.09,2.09,0,0,1-.95.75l-.06,0c-.06,0-.21-.12-.21-.18s.07-.07.13-.1c1-.44,1.09-1,1.09-2,0-.09,0-.17-.14-.17H49.37a.14.14,0,0,0-.14.14v.71c0,.06,0,.29,0,.32s0,.14-.16.14-.14,0-.14-.15,0-.21,0-.31v-.71a.14.14,0,0,0-.14-.14H48c-.1,0-.11-.06-.11-.15s0-.15.11-.15h.8Zm2.71-1.08s.21.18.25.22.22.23.22.27a.24.24,0,0,1-.18.17s-.05,0-.07-.05a4.17,4.17,0,0,0-.35-.38s0,0,0-.06A.24.24,0,0,1,51.5,39.19Zm.43-.37s.21.18.25.22.22.23.22.27a.24.24,0,0,1-.18.17s-.05,0-.07-.05a5.12,5.12,0,0,0-.35-.38s0,0,0-.06A.25.25,0,0,1,51.93,38.82Z"/><path class="cls-1" d="M54.84,42.34c0,.21,0,.42,0,.63s0,.13-.18.13-.14,0-.14-.13,0-.42,0-.63V40.68s0-.12-.07-.12a.22.22,0,0,0-.12.06,7.79,7.79,0,0,1-1.12.72,1.12,1.12,0,0,1-.24.11c-.06,0-.17-.13-.17-.18s0-.07.09-.09A6.52,6.52,0,0,0,55.48,39s0-.05.06-.05a.88.88,0,0,1,.21.12s.09.06.09.1,0,0-.07.06-.08,0-.12.09a6.44,6.44,0,0,1-.73.8c-.05.06-.08.08-.08.16Z"/><path class="cls-1" d="M58.59,40.36c.16,0,.14-.18.14-.4s0-.6,0-.79a.3.3,0,0,1,0-.06s0-.05.06-.05l.26,0s.07,0,.07.06,0,0,0,.06,0,.31,0,.38,0,.41,0,.61a.14.14,0,0,0,.14.15h1.43c.11,0,.12,0,.12.15s0,.15-.12.15l-.6,0h-.86c-.1,0-.13.08-.15.17a2.57,2.57,0,0,1-1,1.9,2.36,2.36,0,0,1-.44.26c-.06,0-.23-.14-.23-.19s.07-.07.13-.1a2.2,2.2,0,0,0,1.27-1.81.83.83,0,0,0,0-.1.13.13,0,0,0-.12-.13H57.44l-.6,0c-.1,0-.12,0-.12-.15s0-.15.12-.15h1.74Z"/><path class="cls-1" d="M64.66,40.78h.59c.11,0,.13,0,.13.16s0,.15-.11.15h-3.5c-.11,0-.11-.06-.11-.15s0-.16.13-.16h2.88Z"/><path class="cls-1" d="M1.15,48.79s0,0,0,0v1.51c0,.23,0,.46,0,.69s0,.19-.15.19S.84,51.14.84,51s0-.46,0-.69V48.85a0,0,0,0,0,0,0l0,0A7.4,7.4,0,0,1,.27,50s-.06.1-.12.1S0,50,0,49.95s0-.06,0-.09A6.46,6.46,0,0,0,.8,48.2a.09.09,0,0,0,0,0c0-.07-.05-.09-.11-.09H.21c-.08,0-.08-.07-.08-.14s0-.13.08-.13H.72c.1,0,.14,0,.14-.14V47.5a4,4,0,0,0,0-.6v0s0-.06.08-.06l.14,0c.12,0,.2,0,.2.06s0,0-.07.07-.06.15-.06.56v.19c0,.1,0,.14.13.14h.36c.09,0,.09.07.09.14s0,.13-.09.13H1.26c-.09,0-.13,0-.13.14a.36.36,0,0,0,0,.16,5.34,5.34,0,0,0,.59.9.11.11,0,0,1,0,.07.18.18,0,0,1-.14.14c-.12,0-.41-.56-.47-.68A0,0,0,0,0,1.15,48.79Zm1.59,0c.1,0,.14,0,.14-.14V48.1c0-.1,0-.14-.14-.14h-.4a.17.17,0,0,0-.19.12c0,.11-.1.25-.16.37s-.05.09-.1.09-.16,0-.16-.09a.7.7,0,0,1,0-.13A4,4,0,0,0,2.18,47s0-.06.06-.06.28,0,.28.09,0,0,0,.05-.06.06-.08.16,0,.16-.08.31a.11.11,0,0,0,0,0c0,.07,0,.09.1.09h.32c.1,0,.14,0,.14-.14v-.09a3.57,3.57,0,0,0,0-.57.19.19,0,0,1,0-.05s0-.06.08-.06h.13c.1,0,.19,0,.19.06s0,0-.07.07-.06.14-.06.54v.09c0,.1,0,.14.13.14h1c.09,0,.1,0,.1.14s0,.14-.1.14h-1c-.09,0-.13,0-.13.14v.56c0,.1,0,.13.13.14h.57l.56,0c.1,0,.1,0,.1.14s0,.13-.1.13h-1c-.05,0-.1,0-.1.08a.07.07,0,0,0,0,0,7,7,0,0,0,1.2,1.54s.08.07.08.11a.18.18,0,0,1-.14.14c-.06,0-.25-.19-.3-.25a5.49,5.49,0,0,1-.92-1.3,0,0,0,0,0,0,0s0,0,0,0v1c0,.23,0,.45,0,.68s0,.17-.14.17-.14-.06-.14-.17,0-.44,0-.67v-1a0,0,0,0,0,0,0l0,0a5.43,5.43,0,0,1-1,1.32c-.07.06-.25.25-.35.25a.19.19,0,0,1-.14-.14c0-.05.07-.11.11-.14a5.79,5.79,0,0,0,1.3-1.53.06.06,0,0,0,0,0c0-.06,0-.07-.09-.08h-.8c-.1,0-.1-.05-.1-.13s0-.14.1-.14l.56,0Z"/><path class="cls-1" d="M7.92,47.74H9.47c.09,0,.1,0,.1.13s0,.14-.1.14H7.94c-.07,0-.12,0-.12.11v0a7.26,7.26,0,0,0,.74,2.38c.07.12.24.39.4.39s.32-.55.34-.74,0-.13.1-.13.17,0,.17.13a2,2,0,0,1-.08.44c-.08.26-.19.57-.51.57a.42.42,0,0,1-.23-.07,2.28,2.28,0,0,1-.58-.82,8,8,0,0,1-.6-2.14A.13.13,0,0,0,7.4,48H5.28c-.09,0-.09,0-.09-.13s0-.14.09-.14H7.37c.08,0,.13,0,.13-.11v0s-.06-.76-.06-.77a.06.06,0,0,1,.06-.06l.2,0c.09,0,.16,0,.16.06s0,0-.08.06a.07.07,0,0,0,0,.08c0,.14,0,.45,0,.59S7.81,47.74,7.92,47.74Zm-1.4,2.6c0,.07,0,.12.1.12h0l.77-.19.1,0c.07,0,.1.08.1.14s-.07.12-.17.14c-.55.15-1.25.29-1.81.39-.14,0-.14,0-.17.1s0,0-.05,0,0,0-.09-.15a1,1,0,0,1-.05-.16s0,0,.07,0a7.1,7.1,0,0,0,.77-.13c.1,0,.12-.06.13-.16V49.26a.12.12,0,0,0-.14-.14H5.48c-.09,0-.1-.06-.1-.13s0-.14.1-.14H7.24c.1,0,.1.06.1.14s0,.13-.1.13H6.66a.12.12,0,0,0-.14.14Zm2.36-2.81c-.05,0-.08,0-.12-.08A6.38,6.38,0,0,0,8.3,47s-.07-.06-.07-.1a.18.18,0,0,1,.14-.14c.07,0,.29.22.35.28s.32.3.32.36A.17.17,0,0,1,8.88,47.52Z"/><path class="cls-1" d="M12.21,47.22a.09.09,0,0,0-.08,0,5.89,5.89,0,0,1-1.79,1.6.69.69,0,0,1-.21.1c-.05,0-.13-.11-.13-.16s.06-.09.13-.12a5.08,5.08,0,0,0,2-1.92s0-.05.06-.05.29.08.29.16-.06,0-.08,0h0a0,0,0,0,0,0,0,0,0,0,0,0,0,0,5.81,5.81,0,0,0,2,1.69s.12,0,.12.11-.06.17-.13.17a3.73,3.73,0,0,1-.75-.43,6.14,6.14,0,0,1-1.3-1.25A.1.1,0,0,0,12.21,47.22Zm-.68,3.43a.12.12,0,0,0,0,0s0,.07.08.07l1.47-.15a.07.07,0,0,0,.06-.06.09.09,0,0,0,0-.05l-.29-.32s0,0,0-.08a.16.16,0,0,1,.14-.13A.15.15,0,0,1,13,50l.44.49c.14.16.28.32.41.49a.16.16,0,0,1,0,.09.15.15,0,0,1-.14.13c-.06,0-.1-.06-.3-.31a.19.19,0,0,0-.17-.08h0c-.84.1-1.69.19-2.53.26,0,0,0,0-.05,0s0,.05-.06.05-.13-.28-.13-.3.08-.06.12-.06l.42,0a.19.19,0,0,0,.19-.12,9.91,9.91,0,0,0,.47-1,.11.11,0,0,0,0,0c0-.06,0-.07-.09-.08H10.44c-.09,0-.1-.05-.1-.14s0-.13.1-.13H14c.09,0,.1,0,.1.13s0,.14-.1.14H12a0,0,0,0,0,0,.05c.06,0,.13.06.13.11s0,0-.09,0a.08.08,0,0,0-.06,0C11.79,50.13,11.67,50.39,11.53,50.66Zm.21-1.91h-.5c-.09,0-.1-.06-.1-.14s0-.13.1-.13h2c.1,0,.1.06.1.13s0,.14-.1.14H11.74Z"/><path class="cls-1" d="M16,49.28s0,0,0,.06v1.22c0,.16,0,.32,0,.49s0,.18-.15.18-.14-.08-.14-.18,0-.33,0-.49V49.5s0-.06-.06-.06l0,0-.4.36a.25.25,0,0,1-.16.08.15.15,0,0,1-.15-.14c0-.07.06-.1.12-.14a6.34,6.34,0,0,0,1.17-1.18,2.05,2.05,0,0,0,.24-.4s0-.05-.28-.05h-.5l-.57,0C15,48,15,48,15,47.87s0-.14.1-.14h.5c.09,0,.13,0,.13-.14v-.23a4.05,4.05,0,0,0,0-.5s0,0,0,0,0-.06.08-.06h.14c.15,0,.21,0,.21.07s0,0-.07.07S16,47,16,47.37v.23c0,.1,0,.14.13.14h.39a.21.21,0,0,1,.22.22,3.05,3.05,0,0,1-.57.92.14.14,0,0,0,0,.1.13.13,0,0,0,0,.1c.21.2.44.38.66.56,0,0,.08.06.08.1s-.07.16-.15.16a.29.29,0,0,1-.16-.08c-.19-.16-.37-.33-.55-.51Zm2.49-1h.57c.09,0,.1.05.1.14s0,.14-.09.14h-.83c-.1,0-.14,0-.14.14V50.6c0,.09,0,.14.14.14h1c.09,0,.09.06.09.13s0,.14-.09.14H16.53c-.09,0-.09,0-.09-.14s0-.13.09-.13h1.18c.1,0,.14,0,.14-.14V48.69c0-.1,0-.14-.14-.14H17c-.1,0-.1-.06-.1-.14s0-.14.1-.14h.75c.1,0,.14,0,.14-.14v-.7a4,4,0,0,0,0-.57s0,0,0,0,0-.06.07-.06H18c.16,0,.21,0,.21.07s0,0-.07.07-.06.15-.06.53v.7c0,.1,0,.14.14.14Z"/><path class="cls-1" d="M21.32,49.9c0,.61-.33.91-1,.91h-.14c-.1,0-.12,0-.12-.14v-.05c0-.09,0-.11.06-.11h.06l.21,0a.57.57,0,0,0,.65-.64V48.4c0-.19,0-.37,0-.57s0-.29,0-.34,0-.1.12-.1h.08c.1,0,.12,0,.12.1s0,.2,0,.34,0,.38,0,.57Z"/><path class="cls-1" d="M22.66,49.69c0,.36,0,.82,0,1s0,.13-.12.13h-.08c-.09,0-.11,0-.11-.09s0-.26,0-.41,0-.41,0-.61l0-1.39c0-.27,0-.7,0-.8s0-.1.12-.1h0a.18.18,0,0,1,.2.1c.11.17.23.34.35.51l.8,1.1s.07.07.09.07,0,0,.08-.07l.79-1.1.35-.51a.17.17,0,0,1,.19-.1h0c.1,0,.13,0,.13.13s0,.53,0,.78l0,1.39c0,.19,0,.45,0,.6s0,.36,0,.42,0,.09-.12.09h-.08c-.09,0-.12,0-.12-.1s0-.52,0-1l0-1.62c0-.05,0-.08,0-.08s0,0-.06,0l-1.11,1.54a.11.11,0,0,1-.1.06.12.12,0,0,1-.1-.05L22.78,48s0,0-.05,0,0,0,0,.07Z"/><path class="cls-1" d="M28.93,50.59s0,.07-.09.09a2,2,0,0,1-.78.15,1.53,1.53,0,0,1-1.6-1.66,1.69,1.69,0,0,1,1.81-1.79,1.81,1.81,0,0,1,.62.1c.06,0,.09,0,.09.08a.25.25,0,0,1,0,.08l0,.08c0,.06,0,.09-.07.09l-.08,0a1.51,1.51,0,0,0-.57-.11,1.39,1.39,0,0,0-1.45,1.49,1.27,1.27,0,0,0,1.32,1.39,1.46,1.46,0,0,0,.64-.14l.08,0s.05,0,.08.09l0,.05A.25.25,0,0,1,28.93,50.59Z"/><path class="cls-1" d="M29.88,50.42a.09.09,0,0,0,0,.06s0,.07-.06.07-.18-.28-.18-.29,0,0,.12-.06l.33-.06a.14.14,0,0,0,.13-.17V47.35c0-.09,0-.13-.13-.14h-.3c-.09,0-.09-.06-.09-.14s0-.14.09-.14H32c.09,0,.1.05.1.14s0,.14-.1.14h-.27c-.09,0-.13,0-.13.14v3c0,.23,0,.45,0,.68s0,.2-.14.2-.15-.09-.15-.2,0-.46,0-.68v-.12c0-.06,0-.11-.09-.11h0C30.75,50.23,30.32,50.33,29.88,50.42Zm.56-2.63a.13.13,0,0,0,.14.14h.6a.14.14,0,0,0,.14-.14v-.44a.14.14,0,0,0-.14-.14h-.6a.13.13,0,0,0-.14.14Zm0,1a.13.13,0,0,0,.14.14h.6a.14.14,0,0,0,.14-.14v-.43c0-.09-.05-.14-.14-.14h-.6a.12.12,0,0,0-.14.14Zm0,1.17c0,.06,0,.12.1.12h0l.62-.15a.15.15,0,0,0,.13-.17v-.44c0-.1,0-.14-.14-.14h-.6c-.1,0-.14,0-.14.14ZM33,50a.11.11,0,0,0-.08,0,7,7,0,0,1-.88.85.36.36,0,0,1-.21.11.14.14,0,0,1-.14-.13s.05-.08.12-.14a5.46,5.46,0,0,0,1-.93.2.2,0,0,0,0-.11.19.19,0,0,0,0-.1,5.19,5.19,0,0,1-.52-1.88c0-.07,0-.09-.1-.09h-.07c-.09,0-.1-.06-.1-.14s0-.13.1-.13h1.54a.22.22,0,0,1,.24.23,5,5,0,0,1-.15.84,4.65,4.65,0,0,1-.51,1.18.18.18,0,0,0,0,.21,3.78,3.78,0,0,0,.71.79s.16.13.16.18a.18.18,0,0,1-.17.15c-.16,0-.74-.73-.85-.89A.1.1,0,0,0,33,50Zm0-.62a.07.07,0,0,0,.07,0,4.32,4.32,0,0,0,.52-1.58.36.36,0,0,0,0-.07c0-.07,0-.08-.26-.08h-.69c-.08,0-.13,0-.12.13a4.54,4.54,0,0,0,.42,1.6A.07.07,0,0,0,33,49.4Z"/><path class="cls-1" d="M35.35,49.68a.1.1,0,0,0-.08.1,7.61,7.61,0,0,1-.26,1c0,.06,0,.1-.11.1s-.17,0-.17-.08a.13.13,0,0,1,0-.06,4.63,4.63,0,0,0,.26-1c0-.17,0-.24.09-.24s.3,0,.3.1S35.37,49.67,35.35,49.68Zm-.18-1.95a.1.1,0,0,0,.08-.05,9.18,9.18,0,0,0,.49-.87s0,0,.06,0,.11.06.15.09.11.08.11.11,0,0-.09,0a.08.08,0,0,0-.06,0,8.15,8.15,0,0,1-.48.8.11.11,0,0,0,0,.08.13.13,0,0,0,.05.09l.15.14a.11.11,0,0,0,.08,0,.09.09,0,0,0,.09-.05c.15-.23.27-.46.41-.69,0,0,0-.06.06-.06s.09.05.15.09.13.07.13.11,0,0-.06,0a.13.13,0,0,0-.1,0,13.71,13.71,0,0,1-.75,1.18.06.06,0,0,0,0,0s0,.06.07.06l.5,0s.08,0,.08-.08a.11.11,0,0,0,0,0,1.28,1.28,0,0,1-.09-.23c0-.06.1-.1.16-.1s.1.08.29.51a1.57,1.57,0,0,1,.09.27c0,.08-.1.11-.16.11s-.09-.08-.11-.14a.11.11,0,0,0-.1-.07h0l-.3,0c-.1,0-.13.06-.13.15v1.11c0,.19,0,.38,0,.56s0,.2-.15.2-.14-.08-.14-.2,0-.37,0-.57V49.33c0-.09,0-.14-.14-.12l-.39,0a.09.09,0,0,0-.06,0s0,.06-.06.06-.06-.05-.08-.12a1.39,1.39,0,0,1,0-.18c0-.05,0-.05.13-.05h.2a.21.21,0,0,0,.19-.12l.19-.29a.15.15,0,0,0,0-.1.14.14,0,0,0,0-.1c-.19-.19-.4-.36-.61-.53a.13.13,0,0,1-.06-.1.16.16,0,0,1,.14-.14c.05,0,.13.07.17.11A.11.11,0,0,0,35.17,47.73Zm1.26,2.78c-.08,0-.1-.05-.12-.11a4.1,4.1,0,0,0-.27-.65.26.26,0,0,1,0-.11c0-.07.1-.12.15-.12s.15.17.23.35a3.13,3.13,0,0,1,.18.53C36.57,50.47,36.49,50.51,36.43,50.51Zm2.13-3.24h.57c.1,0,.1,0,.1.14s0,.13-.1.13H36.7c-.1,0-.1-.05-.1-.13s0-.14.1-.14h.91c.1,0,.14,0,.14-.13a1.35,1.35,0,0,0,0-.25.14.14,0,0,1,0,0s0-.06.07-.06l.14,0c.11,0,.21,0,.21.06s0,.05-.07.08-.07.1-.06.2,0,.13.14.13Zm-.08.31a.57.57,0,0,1,.16.07s.13.06.13.11,0,0-.1,0a.05.05,0,0,0,0,0,4,4,0,0,1-.19.4.1.1,0,0,0,0,0s0,.06.09.07h.39c.15,0,.24,0,.24.2v.28c0,.05,0,.11,0,.16s0,.11-.14.11-.14,0-.14-.09,0-.09,0-.14v-.12c0-.1,0-.14-.14-.14H37.07c-.1,0-.13,0-.14.14v.11c0,.05,0,.1,0,.14s-.07.09-.14.09-.13,0-.13-.1,0-.11,0-.16v-.1c0-.06,0-.11,0-.16s.06-.21.23-.21h1.06a.19.19,0,0,0,.21-.11,3.7,3.7,0,0,0,.27-.61S38.44,47.59,38.47,47.59Zm-.1,1.7h.25c.15,0,.21,0,.21.15v.86c0,.06,0,.13,0,.2s-.08.32-.48.32c-.11,0-.16,0-.16-.18s0-.09.07-.09h.12c.19,0,.19-.06.19-.18v-.69c0-.1,0-.14-.14-.14h-.3c-.1,0-.14,0-.14.14v.73c0,.2,0,.4,0,.6s0,.19-.14.19-.15-.07-.15-.19,0-.4,0-.6v-.73c0-.1,0-.14-.14-.14h-.3c-.1,0-.14,0-.14.14v.65c0,.12,0,.24,0,.35s0,.13-.14.13-.14,0-.14-.12,0-.24,0-.36v-.67c0-.07,0-.14,0-.21s.06-.16.22-.16h.49c.1,0,.13,0,.14-.14a2.8,2.8,0,0,0,0-.29s0,0,0,0,0-.06.08-.06h.14c.11,0,.21,0,.21.07s0,0-.07.07-.06.1-.06.24,0,.13.14.14Zm-1-1c-.09,0-.1-.07-.15-.2a2.25,2.25,0,0,0-.12-.28.15.15,0,0,1,0-.08c0-.06.09-.11.15-.11s.1.06.2.29a1.13,1.13,0,0,1,.1.27C37.55,48.24,37.45,48.27,37.41,48.27Z"/><path class="cls-1" d="M40.73,48.72s0,0,0,0,.14,0,.14.06,0,0-.07.07-.06.13-.06.48v1c0,.2,0,.4,0,.6s0,.19-.14.19-.15-.08-.15-.19,0-.4,0-.6V49.07s0-.06-.06-.06l-.05,0c-.08.07-.35.33-.44.33a.17.17,0,0,1-.14-.13c0-.05,0-.08.09-.11a6.65,6.65,0,0,0,1.23-1.32s0-.06.06-.06.28.1.28.16,0,0-.07,0-.07,0-.12.09a8.28,8.28,0,0,1-.54.64A.06.06,0,0,0,40.73,48.72ZM41.19,47s-.06,0-.09,0a5.83,5.83,0,0,1-.94.86A.42.42,0,0,1,40,48a.17.17,0,0,1-.15-.13c0-.06,0-.08.11-.12a5,5,0,0,0,1-.89.08.08,0,0,1,.06,0s.25.12.25.17S41.23,47,41.19,47Zm.42,4a1.27,1.27,0,0,1-.32.09.15.15,0,0,1-.15-.15c0-.08.07-.09.25-.15a4.11,4.11,0,0,0,1-.51s.06,0,.06-.09a.12.12,0,0,0,0-.09,2.39,2.39,0,0,1-.47-.78.16.16,0,0,0-.17-.12H41.5c-.09,0-.1,0-.1-.14s0-.14.1-.14l.58,0h1.45a.24.24,0,0,1,.18,0,.28.28,0,0,1,.08.17c0,.22-.6.82-.78,1a.11.11,0,0,0,0,.08.11.11,0,0,0,.05.08,3,3,0,0,0,1.09.54c.06,0,.12,0,.12.1s0,.17-.11.17l-.14,0a3.44,3.44,0,0,1-1.17-.62.19.19,0,0,0-.1,0,.21.21,0,0,0-.1,0A5,5,0,0,1,41.61,51Zm.3-2.67c-.08.1-.35.4-.47.4s-.13-.09-.13-.17,0-.07.09-.11a1,1,0,0,0,.5-.92c0-.43-.05-.59.22-.59H43c.18,0,.23.06.23.24s0,.17,0,.26V48c0,.16,0,.25.19.25h.31c.13,0,.21,0,.31-.49,0-.06,0-.09.1-.09s.17,0,.17.1a1.76,1.76,0,0,1-.13.43c-.1.22-.18.29-.42.29h-.43c-.31,0-.36-.14-.36-.39v-.81c0-.1,0-.14-.14-.14h-.53c-.1,0-.14,0-.15.13A1.61,1.61,0,0,1,41.91,48.34ZM42.63,50a.15.15,0,0,0,.1,0,.16.16,0,0,0,.09,0c.11-.09.64-.61.64-.73s-.1,0-.27,0h-.89c-.05,0-.1,0-.1.08a.12.12,0,0,0,0,0A2.5,2.5,0,0,0,42.63,50Z"/><path class="cls-1" d="M.48,58c0,.26,0,.61,0,.65s0,.1-.12.1H.31c-.1,0-.12,0-.12-.1s0-.39,0-.65v-.87c0-.18,0-.6,0-.65s0-.1.12-.1h0c.1,0,.12,0,.13.12s0,.1,0,.1l.08,0a1.18,1.18,0,0,1,.68-.22.71.71,0,0,1,.55.23c0,.05.07.08.1.08s.06,0,.1-.05a1.3,1.3,0,0,1,.75-.25.73.73,0,0,1,.75.81V58c0,.25,0,.62,0,.65s0,.1-.12.1H3.33c-.1,0-.12,0-.12-.1s0-.41,0-.65v-.74c0-.4-.17-.63-.55-.63a1,1,0,0,0-.55.18C2,56.93,2,57,2,57.06s0,0,0,.06,0,.16,0,.19V58c0,.25,0,.62,0,.65s0,.1-.12.1H1.83c-.1,0-.12,0-.12-.1s0-.41,0-.65v-.74c0-.4-.18-.63-.55-.63a1,1,0,0,0-.58.2.21.21,0,0,0-.12.23Z"/><path class="cls-1" d="M6.12,58.48a.18.18,0,0,1,0,.09s0,.05-.08.09a1.6,1.6,0,0,1-.71.17,1.06,1.06,0,0,1-1.1-1.18A1.15,1.15,0,0,1,5.4,56.4c.59,0,.89.47.89,1.11,0,.11,0,.15-.13.15H4.69c-.1,0-.13,0-.13.1a.81.81,0,0,0,.86.81,1,1,0,0,0,.53-.15l.09,0s0,0,.08.08ZM6,57.3a.61.61,0,0,0-.59-.64.82.82,0,0,0-.81.66s0,.06.13.06H5.85C5.95,57.39,6,57.37,6,57.3Z"/><path class="cls-1" d="M8.77,58.79c-.1,0-.12,0-.12-.12s0-.1,0-.1a.16.16,0,0,0-.08,0,1.13,1.13,0,0,1-.65.21,1,1,0,0,1-1-1.07A1.29,1.29,0,0,1,8.22,56.4l.26,0h.08c.06,0,.07,0,.07-.13V56c0-.25,0-.61,0-.65s0-.1.12-.1h.06c.09,0,.12,0,.12.1s0,.41,0,.65v2.06c0,.27,0,.56,0,.61s0,.1-.12.1Zm-.59-2.12a1,1,0,0,0-1,1.06.74.74,0,0,0,.72.83,1,1,0,0,0,.59-.2.23.23,0,0,0,.11-.23V56.89c0-.12,0-.15-.14-.18A1.32,1.32,0,0,0,8.18,56.68Z"/><path class="cls-1" d="M10.22,55.78A.22.22,0,0,1,10,56a.2.2,0,0,1-.21-.21.22.22,0,0,1,.23-.23A.2.2,0,0,1,10.22,55.78Zm-.25,3c-.1,0-.12,0-.12-.1s0-.42,0-.65v-.87c0-.25,0-.61,0-.65s0-.1.12-.1H10c.1,0,.12,0,.12.1s0,.4,0,.65V58c0,.23,0,.61,0,.65s0,.1-.12.1Z"/><path class="cls-1" d="M12.66,58.61s0,.07-.09.09a1.36,1.36,0,0,1-.57.12,1,1,0,0,1-1.07-1.12,1.19,1.19,0,0,1,1.23-1.3,1.26,1.26,0,0,1,.44.07c.06,0,.09.05.09.09a.24.24,0,0,1,0,.08l0,.05c0,.06,0,.09-.07.09l-.08,0a.79.79,0,0,0-.34-.07.93.93,0,0,0-.94,1,.79.79,0,0,0,.82.87,1,1,0,0,0,.43-.1l.09,0s0,0,.06.09l0,0A.21.21,0,0,1,12.66,58.61Z"/><path class="cls-1" d="M14.93,58.79c-.1,0-.12,0-.12-.12s0-.11,0-.11l-.08,0a1.42,1.42,0,0,1-.73.23c-.39,0-.68-.19-.68-.59,0-.62.84-.85,1.38-.92.11,0,.14,0,.14-.1a.82.82,0,0,0-.1-.34.5.5,0,0,0-.44-.21,1.23,1.23,0,0,0-.65.2.16.16,0,0,1-.08,0s0,0-.07-.08l0,0a.23.23,0,0,1,0-.08s0-.06.08-.1a1.83,1.83,0,0,1,.79-.2c.55,0,.81.28.8.92V58c0,.17,0,.36,0,.55s0,.14,0,.17,0,.08-.11.08Zm-.23-1.22a2.49,2.49,0,0,0-.57.12c-.32.11-.56.29-.56.53s.17.34.42.34a1.36,1.36,0,0,0,.68-.22.21.21,0,0,0,.12-.22v-.41C14.79,57.61,14.78,57.58,14.7,57.58Z"/><path class="cls-1" d="M16.75,58.8h-.1c-.5,0-.7-.19-.7-.74V56c0-.25,0-.6,0-.65s0-.1.12-.1h.06c.1,0,.12,0,.12.1s0,.41,0,.65v2c0,.33.06.49.41.49h.14s.06,0,.06.08v.1C16.83,58.78,16.82,58.79,16.75,58.8Z"/><path class="cls-1" d="M18.58,58.65c0,.1,0,.13-.12.14h-.18c-.53,0-.74-.25-.74-.73V56.82c0-.1,0-.13-.13-.13h-.23c-.07,0-.08,0-.08-.12v0c0-.09,0-.12.08-.12h.23c.1,0,.13,0,.13-.13v-.06c0-.15,0-.42,0-.44s0-.1.12-.1h.06c.1,0,.12,0,.12.1s0,.29,0,.44v.06c0,.1,0,.13.15.13h.51c.08,0,.1,0,.1.12v0c0,.1,0,.12-.1.12H18c-.12,0-.15,0-.15.15V58c0,.38.16.49.45.49h.25c.05,0,.06,0,.06.11Z"/><path class="cls-1" d="M21,58.79c-.1,0-.13,0-.13-.12s0-.1,0-.1l-.09,0a1.23,1.23,0,0,1-.7.21A.75.75,0,0,1,19.3,58v-.84c0-.23,0-.61,0-.65s0-.1.12-.1h.06c.1,0,.12,0,.12.1s0,.42,0,.65v.75c0,.4.21.64.58.64a1,1,0,0,0,.6-.2.21.21,0,0,0,.12-.23v-1c0-.24,0-.6,0-.65s0-.1.12-.1H21c.1,0,.12,0,.12.1s0,.41,0,.65V58c0,.2,0,.58,0,.65s0,.1-.12.1Z"/><path class="cls-1" d="M22.39,58.06c0,.22,0,.59,0,.64s0,.1-.12.1h-.06c-.1,0-.12,0-.12-.1s0-.41,0-.64v-.88c0-.27,0-.61,0-.65s0-.1.12-.1h0c.1,0,.12,0,.13.12v.07c0,.06,0,.1,0,.1l.08,0a1.14,1.14,0,0,1,.67-.27c.07,0,.08,0,.08.13v.13c0,.06,0,.09-.06.09H23a.93.93,0,0,0-.55.22.25.25,0,0,0-.1.23Z"/><path class="cls-1" d="M25.55,58.48a.17.17,0,0,1,0,.09s0,.05-.08.09a1.6,1.6,0,0,1-.71.17,1.06,1.06,0,0,1-1.1-1.18,1.15,1.15,0,0,1,1.13-1.25c.59,0,.89.47.89,1.11,0,.11,0,.15-.13.15H24.11c-.1,0-.13,0-.13.1a.81.81,0,0,0,.86.81,1,1,0,0,0,.53-.15l.09,0s0,0,.08.08Zm-.14-1.18a.61.61,0,0,0-.59-.64.82.82,0,0,0-.81.66s0,.06.13.06h1.14C25.37,57.39,25.41,57.37,25.41,57.3Z"/><path class="cls-1" d="M27.72,59c0,.25,0,.61,0,.65s0,.1-.12.1h-.06c-.1,0-.12,0-.12-.1s0-.41,0-.65V57.18c0-.24,0-.61,0-.65s0-.1.12-.1h0c.1,0,.13,0,.13.12s0,.11,0,.11l.08,0a1.11,1.11,0,0,1,.65-.22,1,1,0,0,1,1,1.07,1.29,1.29,0,0,1-1.32,1.36l-.26,0h-.07c-.06,0-.07,0-.07.13Zm1.42-1.47a.74.74,0,0,0-.72-.83,1,1,0,0,0-.59.2.23.23,0,0,0-.12.23v1.25c0,.11,0,.15.14.18a1.33,1.33,0,0,0,.3,0A1,1,0,0,0,29.14,57.5Z"/><path class="cls-1" d="M31,58.8H30.9c-.5,0-.7-.19-.7-.74V56c0-.25,0-.6,0-.65s0-.1.12-.1h.06c.1,0,.12,0,.12.1s0,.41,0,.65v2c0,.33.07.49.41.49H31s.05,0,.05.08v.1C31.08,58.78,31.06,58.79,31,58.8Z"/><path class="cls-1" d="M33.4,58.79c-.1,0-.13,0-.13-.12s0-.1,0-.1l-.09,0a1.23,1.23,0,0,1-.7.21.75.75,0,0,1-.78-.81v-.84c0-.23,0-.61,0-.65s0-.1.12-.1h.06c.1,0,.12,0,.12.1s0,.42,0,.65v.75c0,.4.21.64.58.64a1,1,0,0,0,.6-.2.21.21,0,0,0,.12-.23v-1c0-.24,0-.6,0-.65s0-.1.12-.1h.06c.1,0,.12,0,.12.1s0,.41,0,.65V58c0,.2,0,.58,0,.65s0,.1-.12.1Z"/><path class="cls-1" d="M36,58.17c0,.46-.4.66-.86.66a1.42,1.42,0,0,1-.72-.19c-.06,0-.08-.06-.08-.1a.17.17,0,0,1,0-.08l0,0c0-.06,0-.08.07-.08s0,0,.08,0a1.11,1.11,0,0,0,.63.2c.3,0,.54-.13.54-.39s-.27-.35-.56-.47-.75-.3-.75-.69.34-.64.82-.64a1.41,1.41,0,0,1,.59.12c.06,0,.08.05.08.1a.18.18,0,0,1,0,.07l0,.06c0,.06,0,.09-.07.09l-.09,0a1.1,1.1,0,0,0-.52-.14c-.27,0-.49.13-.49.35s.28.34.6.47S36,57.77,36,58.17Z"/><path class="cls-1" d="M41,56.64h.6c.1,0,.11,0,.11.14s0,.16-.12.16H40.24c-.13,0-.14.14-.14.22a2.7,2.7,0,0,1-.33,1,1.93,1.93,0,0,1-.74.67,2.43,2.43,0,0,1-.52.22c-.07,0-.2-.15-.2-.21s.07-.07.12-.09a2.56,2.56,0,0,0,.67-.29,1.76,1.76,0,0,0,.67-1,1.87,1.87,0,0,0,.05-.34.12.12,0,0,0-.12-.12h-1.8c-.1,0-.11-.06-.11-.15s0-.15.11-.15H41Zm-.77-1.35.6,0c.1,0,.11,0,.11.15s0,.15-.11.15H38.58c-.1,0-.11,0-.11-.15s0-.15.12-.15l.6,0Zm1.39.15a1.41,1.41,0,0,1,.21.27c0,.06-.12.16-.18.16s0,0-.07-.06-.22-.27-.33-.39,0,0,0-.06.12-.15.17-.15S41.61,55.39,41.65,55.44ZM42,55a1.74,1.74,0,0,1,.22.29c0,.06-.12.16-.18.16s0,0-.07-.06a4.86,4.86,0,0,0-.33-.39s0,0,0-.06.12-.15.17-.15S42,55,42,55Z"/><path class="cls-1" d="M43.52,56.27a.14.14,0,0,0,.16-.14v-.48c0-.15,0-.23,0-.38s0,0,0-.06,0-.05.06-.05.35,0,.35.1,0,.06-.06.08,0,.25,0,.32v.48a.14.14,0,0,0,.14.14h1.18a.14.14,0,0,0,.15-.16V56a6.25,6.25,0,0,0,0-.76.23.23,0,0,1,0-.06s0-.05.06-.05l.23,0s.11,0,.11.07,0,0,0,.06a1.92,1.92,0,0,0,0,.55c0,.1,0,.19,0,.28h0c0,.12.06.17.14.17h.82c.1,0,.11,0,.11.15s0,.15-.11.15h-.82c-.16,0-.15.18-.15.21a3.06,3.06,0,0,1-.29,1.49,2.08,2.08,0,0,1-.95.75l-.07,0c-.05,0-.21-.12-.21-.18s.07-.07.13-.1c1-.44,1.09-1,1.09-2,0-.09,0-.17-.14-.17H44.1a.14.14,0,0,0-.14.14v.71c0,.06,0,.29,0,.32s-.05.14-.16.14-.15,0-.15-.15,0-.21,0-.31v-.71a.14.14,0,0,0-.14-.14h-.81c-.1,0-.11-.06-.11-.15s0-.15.11-.15h.8Zm2.71-1.08s.21.18.25.22.22.23.22.27a.24.24,0,0,1-.18.17s0,0-.06-.05a4.17,4.17,0,0,0-.35-.38s0,0,0-.06A.24.24,0,0,1,46.23,55.19Zm.43-.37s.21.18.25.22.22.23.22.27a.24.24,0,0,1-.18.17s0,0-.06-.05a5,5,0,0,0-.35-.38s0,0,0-.06A.25.25,0,0,1,46.66,54.82Z"/><path class="cls-1" d="M49.57,58.34c0,.21,0,.42,0,.63s0,.13-.18.13-.14,0-.14-.13,0-.42,0-.63V56.68s0-.12-.07-.12a.22.22,0,0,0-.12.06,7.79,7.79,0,0,1-1.12.72,1.12,1.12,0,0,1-.24.11c-.06,0-.17-.13-.17-.18s0-.07.09-.09A6.52,6.52,0,0,0,50.21,55s0-.05.06-.05a.88.88,0,0,1,.21.12s.09.06.09.1,0,0-.07.06-.08,0-.12.09a6.45,6.45,0,0,1-.73.8c-.05.06-.09.08-.09.16Z"/><path class="cls-1" d="M55.51,56.42c0,.07-.25.3-.31.36a9.78,9.78,0,0,1-1.18,1,8.12,8.12,0,0,1-1.46.83c-.12.05-.12.06-.17.15a.07.07,0,0,1-.06,0c-.05,0-.08-.06-.11-.14a1,1,0,0,1-.1-.2s.08-.05.13-.07a6.56,6.56,0,0,0,2-1.11,8.5,8.5,0,0,0,1.09-1,.11.11,0,0,1,.08-.06C55.45,56.18,55.51,56.38,55.51,56.42Zm-3.1-1.06.49.35c.12.09.25.17.25.23s-.1.2-.18.2S52.8,56,52.76,56s-.35-.27-.54-.39c0,0-.06,0-.06-.08s.08-.19.16-.19A.2.2,0,0,1,52.41,55.35Z"/><path class="cls-1" d="M59.66,56.64h.6c.1,0,.11,0,.11.14s0,.16-.12.16H58.87c-.13,0-.14.14-.15.22a2.69,2.69,0,0,1-.33,1,1.93,1.93,0,0,1-.74.67,2.42,2.42,0,0,1-.52.22c-.07,0-.2-.15-.2-.21s.07-.07.12-.09a2.55,2.55,0,0,0,.67-.29,1.76,1.76,0,0,0,.67-1,1.87,1.87,0,0,0,0-.34.12.12,0,0,0-.12-.12h-1.8c-.1,0-.1-.06-.1-.15s0-.15.11-.15h3.13Zm-.77-1.35.6,0c.1,0,.12,0,.12.15s0,.15-.11.15H57.2c-.1,0-.11,0-.11-.15s0-.15.12-.15l.6,0Zm1.39.15a1.4,1.4,0,0,1,.21.27c0,.06-.12.16-.18.16s-.05,0-.07-.06-.22-.27-.33-.39,0,0,0-.06.11-.15.16-.15S60.23,55.39,60.27,55.44Zm.38-.42a1.74,1.74,0,0,1,.22.29c0,.06-.12.16-.18.16s-.05,0-.07-.06a5,5,0,0,0-.33-.39s0,0,0-.06.12-.15.17-.15S60.62,55,60.65,55Z"/><path class="cls-1" d="M63,58.5c0,.16,0,.33,0,.49s-.07.11-.16.11-.13,0-.13-.12,0-.32,0-.49V57.27s0-.08-.06-.08a.22.22,0,0,0-.13.07,6,6,0,0,1-1,.58c-.06,0-.16-.11-.16-.16s.06-.08.13-.12a5.67,5.67,0,0,0,1.39-1,2.86,2.86,0,0,0,.52-.63s0-.08.07-.08.26.12.26.19,0,.06-.07.06a.11.11,0,0,0-.08.06,4.35,4.35,0,0,1-.56.62A.24.24,0,0,0,63,57Z"/><path class="cls-1" d="M66,57.88c0,.15,0,.23,0,.29s0,.13.07.13a5.88,5.88,0,0,0,.84-.37,7.6,7.6,0,0,0,1.76-1.22s.06-.06.1-.06.14.13.14.2a.11.11,0,0,1-.05.07l-.37.32a8.93,8.93,0,0,1-2.15,1.26l-.2.1a.25.25,0,0,1-.12,0,.84.84,0,0,1-.28-.12.1.1,0,0,1,0-.1s0-.36,0-.6V56.12a4.17,4.17,0,0,0,0-.69s0,0,0,0a0,0,0,0,1,.05-.06c.05,0,.34.05.34.12s0,0,0,.06a.12.12,0,0,0,0,.09c0,.13,0,.38,0,.52Z"/><path class="cls-1" d="M72.46,55.79a2.57,2.57,0,0,0,.45,0H73a.45.45,0,0,1,.23.24s-.08.11-.2.36a5.08,5.08,0,0,1-2.27,2.5,1,1,0,0,1-.27.12c-.06,0-.27-.1-.27-.17s.07-.07.11-.08a4.78,4.78,0,0,0,.8-.44A4.41,4.41,0,0,0,72.29,57a4.08,4.08,0,0,0,.43-.85c0-.08-.12-.06-.24-.06H71.33c-.13,0-.15,0-.23.12s-.66.84-.82.84-.22-.08-.22-.15a.07.07,0,0,1,0-.06,4.64,4.64,0,0,0,1.3-1.73s0-.1.07-.1.34.1.34.16,0,.05,0,.06a.24.24,0,0,0-.14.14,3,3,0,0,1-.17.3.14.14,0,0,0,0,.07.07.07,0,0,0,.07.07Z"/><path class="cls-1" d="M76.87,55.73a2.5,2.5,0,0,0,.44,0h.06c.06,0,.19.21.19.26a.19.19,0,0,1,0,.08.94.94,0,0,0-.14.25,8.14,8.14,0,0,1-.5.95.16.16,0,0,0,0,.1.13.13,0,0,0,.06.11c.15.11.34.23.34.3s-.09.21-.16.21,0,0-.07,0l-.25-.19a.18.18,0,0,0-.11-.05c-.08,0-.12.05-.17.12a4.07,4.07,0,0,1-1.13.9,3.72,3.72,0,0,1-.61.28.3.3,0,0,1-.21-.21c0-.05.07-.07.17-.1a3.58,3.58,0,0,0,1.54-1,.22.22,0,0,0,.07-.14.15.15,0,0,0-.08-.13,6,6,0,0,0-.64-.35s-.09,0-.09-.08.09-.2.16-.2a4.59,4.59,0,0,1,.7.36.34.34,0,0,0,.15.06c.1,0,.13-.08.17-.15a4.73,4.73,0,0,0,.42-.91c0-.12-.15-.1-.23-.1H75.6c-.08,0-.12.06-.16.13a7.35,7.35,0,0,1-.7.85.17.17,0,0,1-.11,0c-.07,0-.22-.08-.22-.15s0-.06.05-.07A4.88,4.88,0,0,0,75.73,55s0-.12.08-.12a1.49,1.49,0,0,1,.27.15s.06,0,.06.07-.07.07-.1.08-.05.07-.08.12l-.16.28a.1.1,0,0,0,0,.07.07.07,0,0,0,.08.07Z"/><path class="cls-1" d="M81.63,56.78h.59c.12,0,.13,0,.13.16s0,.15-.11.15h-3.5c-.11,0-.11-.06-.11-.15s0-.16.13-.16h2.88Z"/></g></g></svg>