<svg xmlns="http://www.w3.org/2000/svg" viewBox="0 0 128.79 99.17"><defs><style>.cls-1{fill:#fff;}</style></defs><title>seitaro_name_small</title><g id="Layer_2" data-name="Layer 2"><g id="レイヤー_1" data-name="レイヤー 1"><path class="cls-1" d="M5.93,13.18c.36,0,.5-.14.5-.5V2.75A16.27,16.27,0,0,0,6.37.7a.64.64,0,0,1,0-.18c0-.2.13-.23.29-.23s.36,0,.54,0c.41.05.77,0,.77.27s-.09.16-.27.27-.23.58-.23,1.89v9.92c0,.36.14.5.5.5h4.14c.36,0,.5-.14.5-.5V6c0-.68,0-1.37-.07-2.07,0-.05,0-.13,0-.18s.13-.23.29-.23.36,0,.54,0c.43.05.77,0,.77.27s-.09.16-.25.25S13.6,4.65,13.6,6v6.37c0,.77.05,1.55.05,2.3,0,.5,0,.81-.56.81s-.54-.29-.54-.74V14.5c0-.29-.13-.41-.43-.41H1.74c-.29,0-.43.13-.43.41v.27c0,.45,0,.7-.54.7s-.54-.29-.54-.72c0-.74,0-1.48,0-2.21V6A17.49,17.49,0,0,0,.19,4c0-.05,0-.11,0-.18s.11-.23.29-.23a5.31,5.31,0,0,1,.54,0c.41.05.77,0,.77.27s-.11.16-.25.25S1.27,4.63,1.27,6v6.72c0,.36.16.5.5.5Z"/><path class="cls-1" d="M23.52,11.18c.29,0,.43-.11.45-.4V6.09a12.54,12.54,0,0,0-.07-1.84.6.6,0,0,1,0-.18c0-.18.13-.22.27-.22a4.28,4.28,0,0,1,.5,0c.4,0,.74,0,.74.25s-.11.16-.23.25-.23.45-.23,1.69V10.5c0,.67,0,1.35,0,2,0,.4,0,.65-.5.65s-.52-.31-.52-.76c0-.25-.13-.34-.36-.34h-3c-.34,0-.49.13-.5.47s0,.67,0,1,0,.65-.5.65-.52-.23-.52-.65c0-.59,0-1.17,0-1.75V6a12.57,12.57,0,0,0-.07-1.84.62.62,0,0,1,0-.18c0-.18.11-.22.27-.22a4.51,4.51,0,0,1,.5,0c.4,0,.74,0,.74.23s-.11.16-.25.25-.22.47-.22,1.71v4.74c0,.31.13.41.43.43h.58c.31,0,.41-.13.43-.43V2.88A13.41,13.41,0,0,0,21.48,1a.5.5,0,0,1,0-.16c0-.2.11-.23.27-.23a4.31,4.31,0,0,1,.5,0c.41.05.76,0,.76.25s-.11.16-.25.25-.23.47-.23,1.75v7.87c0,.31.13.41.43.43Zm5.65-3.87a.72.72,0,0,0,.74-.4,22.59,22.59,0,0,0,1.55-3.35c0-.09.07-.2.18-.2s1,.38,1,.59-.13.14-.22.16-.23.05-.31.2c-.41.86-.81,1.73-1.3,2.58a.44.44,0,0,0,0,.16c0,.18.13.23.29.25h.81c.7,0,1.39,0,2.09,0,.32,0,.36.14.36.49s0,.49-.36.49-.52,0-.79,0-.45.16-.47.49v4.84c0,.29,0,.76,0,1,0,1.35-1.35,1.37-2.38,1.37-.18,0-.52,0-.65-.13a1.12,1.12,0,0,1-.2-.59c0-.2.2-.25.36-.25s.5,0,.81,0c1.08,0,1.08-.34,1.08-1.31v-5a.45.45,0,0,0-.5-.5H27.66c-.7,0-1.4.05-2.11.05-.32,0-.34-.2-.34-.49s0-.49.34-.49c.7,0,1.4,0,2.11,0Zm1.17-5.22h1c.7,0,1.41,0,2.09,0,.34,0,.36.14.36.49s0,.49-.34.49c-.7,0-1.4,0-2.11,0H28c-.7,0-1.39,0-2.09,0-.34,0-.36-.2-.36-.49s0-.49.36-.49c.7,0,1.39,0,2.09,0h.4c.32,0,.45-.13.49-.47a4.89,4.89,0,0,0-.07-.88.54.54,0,0,1,0-.16c0-.2.13-.23.29-.23a5,5,0,0,1,.5,0c.4.05.74,0,.74.25s-.11.16-.25.25-.22.34-.23.76S30,2.07,30.34,2.09Zm-.09,10c0,.13,0,.25,0,.38,0,.49-.23.65-.68.65l-.54,0H27.68a.5.5,0,0,0-.52.47c0,.22-.07.27-.5.27s-.45-.05-.45-.41V9.87a.55.55,0,0,1,.63-.61l.59,0H29l.58,0c.47,0,.65.22.65.67,0,.13,0,.27,0,.4ZM27.91,6.7c-.32,0-.38-.31-.58-.86a14.86,14.86,0,0,0-.72-1.66.7.7,0,0,1-.11-.31c0-.25.36-.41.58-.41a.27.27,0,0,1,.25.14,8.35,8.35,0,0,1,.59,1.13,8.21,8.21,0,0,1,.54,1.58C28.47,6.55,28.11,6.7,27.91,6.7Zm-.76,5a.49.49,0,0,0,.5.5h1.15a.49.49,0,0,0,.5-.49v-1a.49.49,0,0,0-.5-.5H27.66a.49.49,0,0,0-.5.5Z"/><path class="cls-1" d="M48.74,12H47c-.29,0-.43.11-.43.41v.54c0,.36-.11.45-.49.45s-.5-.16-.5-.52,0-1,0-1.49V4c0-.45,0-.9,0-1.35s.07-.86.67-.86l.5,0h2.14l.49,0c.59,0,.68.29.68.86s0,.9,0,1.35v6.66c0,.5,0,1,0,1.51s-.07.5-.5.5-.47-.16-.49-.4S49,12,48.74,12ZM48.63,6.3a.52.52,0,0,0,.5-.5V3.21a.48.48,0,0,0-.5-.49H47.1a.48.48,0,0,0-.5.49V5.8a.52.52,0,0,0,.5.5Zm-2,4.27c0,.34.14.49.5.49h1.53c.36,0,.5-.14.5-.49V7.69c0-.34-.14-.5-.5-.5H47.1c-.36,0-.5.16-.5.5Zm9.92-9h1.76c.56,0,1.13,0,1.69,0,.34,0,.34.18.34.45s0,.45-.32.45c-.58,0-1.13,0-1.71,0H56.51c-.31,0-.43.14-.43.43v.38c0,.29.13.43.43.43h1.12c.58,0,1.15,0,1.73,0,.31,0,.29.22.29.43s0,.41-.29.41c-.58,0-1.15,0-1.73,0H56.51c-.31,0-.43.13-.43.43v.4c0,.31.13.45.43.45h1.84c.7,0,1.39-.05,2.09-.05.31,0,.32.16.32.47s0,.45-.31.45c-.7,0-1.41,0-2.11,0H53.06c-.7,0-1.4,0-2.11,0-.31,0-.32-.18-.32-.45s0-.47.32-.47c.7,0,1.4.05,2.11.05H54.7c.31,0,.43-.14.43-.45v-.4c0-.31-.13-.43-.43-.43h-1c-.59,0-1.21,0-1.75,0-.29,0-.29-.2-.29-.43s0-.41.31-.41c.58,0,1.15,0,1.73,0h1c.31,0,.43-.14.43-.43V2.83c0-.29-.13-.43-.43-.43H53.13c-.58,0-1.15,0-1.73,0-.31,0-.32-.2-.32-.45s0-.45.32-.45c.58,0,1.15,0,1.73,0H54.7c.29,0,.41-.11.43-.41s0-.45-.07-.68a.63.63,0,0,1,0-.18c0-.2.14-.23.29-.23a4.92,4.92,0,0,1,.5.05c.4,0,.74,0,.74.25s-.11.16-.25.25-.22.31-.22.54S56.23,1.57,56.51,1.57ZM58,13.16a.44.44,0,0,0-.5-.5H53.65c-.36,0-.5.16-.5.5v.68c0,.52,0,1.06,0,1.58s-.09.52-.5.52c-.7,0-.49-.32-.49-2.11V8.41c0-.5.13-.65.7-.65l.88,0H57.4l.88,0c.5,0,.72.09.72.58v5.4c0,.27,0,.56,0,.83,0,1.13-.63,1.33-2.47,1.33-.41,0-.63,0-.63-.65,0-.16,0-.29.23-.29l.7,0C58,15,58,14.71,58,14.17ZM57.67,9.8A.37.37,0,0,0,58,9.42V9a.37.37,0,0,0-.38-.38H53.52a.37.37,0,0,0-.38.38v.38a.37.37,0,0,0,.38.38Zm-4.52,1.6a.42.42,0,0,0,.43.43h4A.42.42,0,0,0,58,11.4v-.34a.42.42,0,0,0-.43-.43h-4a.42.42,0,0,0-.43.43Z"/><path class="cls-1" d="M72.16,6.66c0-.27-.2-.36-.43-.36H67.39c-.68,0-1.39,0-2.07,0-.32,0-.36-.2-.36-.49s0-.49.36-.49c.68,0,1.39,0,2.07,0h4.47c.34,0,.5-.11.54-.47s0-.7,0-1V2.25A10.62,10.62,0,0,0,72.36.4a.49.49,0,0,1,0-.16c0-.2.11-.23.27-.23a4.5,4.5,0,0,1,.5,0c.41.05.74,0,.74.25s-.09.16-.25.25-.22.49-.22,1.71V3.89c0,.34,0,.68,0,1s.14.49.47.49h4.5c.68,0,1.37,0,2.05,0,.36,0,.36.16.36.49s0,.49-.34.49c-.68,0-1.39,0-2.07,0H73.92c-.22,0-.4.07-.4.31a.43.43,0,0,0,0,.14A15.06,15.06,0,0,0,75.9,11.2,14.08,14.08,0,0,0,80.37,15c.13.07.29.16.29.31s-.25.59-.49.59c-.49,0-2.54-1.6-3-2A14.59,14.59,0,0,1,73.11,8C73.08,8,73,7.9,73,7.9a.18.18,0,0,0-.14.13A11.13,11.13,0,0,1,71,11.54a17.16,17.16,0,0,1-5,4.07,2.26,2.26,0,0,1-.74.32c-.25,0-.5-.41-.5-.67S65,15,65.14,15a21.1,21.1,0,0,0,2.05-1.21A11.29,11.29,0,0,0,71,10a11.3,11.3,0,0,0,1.21-3.21Zm1.76,8.12c-.2,0-.29-.13-.4-.29a15.28,15.28,0,0,0-1.42-1.85.58.58,0,0,1-.18-.36c0-.23.31-.47.56-.47s.9.85,1.1,1.1a5.67,5.67,0,0,1,.92,1.4C74.5,14.59,74.14,14.78,73.92,14.78Z"/><path class="cls-1" d="M88.58,2.11c.36,0,.5-.14.5-.5A6.46,6.46,0,0,0,89,.43a.69.69,0,0,1,0-.18c0-.18.13-.22.27-.22a4.51,4.51,0,0,1,.5,0c.41.05.76,0,.76.25s-.11.16-.25.25-.25.34-.23,1c0,.34.16.49.5.49h.22c.38,0,.76,0,1.15,0,.74,0,1,.16,1,.81,0,.49,0,1,0,1.44V8c0,.32,0,.56,0,.68,0,.31-.31.34-.52.34s-.45,0-.5-.22-.47-.22-.67-.22H87.75c-.36,0-.5.14-.5.49v4.11c0,.2.09.36.32.36a.3.3,0,0,0,.13,0c1-.31,2-.63,3-1a.35.35,0,0,0,.25-.34.51.51,0,0,0-.07-.23c-.36-.52-.68-.94-1-1.44a.5.5,0,0,1-.11-.27c0-.23.32-.45.52-.45s.31.16.41.31c.52.68,1,1.37,1.44,2.09a13.07,13.07,0,0,1,1.26,2.43c0,.23-.29.41-.5.41s-.38-.36-1.06-1.55a.48.48,0,0,0-.43-.29.55.55,0,0,0-.23.05c-1.73.67-3.49,1.24-5.26,1.85-.11,0-.11.11-.14.23s-.05.23-.22.23-.18-.13-.43-.5a1.44,1.44,0,0,1-.27-.49c0-.18.27-.18.83-.38a1.74,1.74,0,0,1,.29-.09.51.51,0,0,0,.4-.58V4.32c0-.47,0-.92,0-1.39,0-.65.16-.86,1-.86.38,0,.77,0,1.15,0Zm2.84,2.77a.48.48,0,0,0,.49-.49v-.9a.49.49,0,0,0-.49-.5H87.73a.49.49,0,0,0-.49.5v.9a.48.48,0,0,0,.49.49Zm-3.69.9a.48.48,0,0,0-.49.49v1a.49.49,0,0,0,.49.5h3.69a.48.48,0,0,0,.49-.49v-1a.48.48,0,0,0-.49-.49Zm8.66-4.05c-.36,0-.5.14-.5.5V12.77c0,.81,0,1.62,0,2.43,0,.45,0,.72-.5.72s-.52-.27-.52-.7c0-.83,0-1.64,0-2.45v-10c0-.4,0-.77,0-1.17,0-.61.14-.81.77-.81l1.21,0h1.73l1.08,0c.36,0,.83.38.83.67,0,.56-1.67,3.1-2.07,3.69a2,2,0,0,0-.32.58c0,.11.16.25.23.32a6.13,6.13,0,0,1,2.23,4.46,3.17,3.17,0,0,1-.76,2.25,2.86,2.86,0,0,1-2.05.56c-.77,0-1.15.09-1.15-.72a.24.24,0,0,1,.27-.27c.18,0,.56.05,1.06.05a1.46,1.46,0,0,0,1.21-.4,2.37,2.37,0,0,0,.49-1.55c0-1.69-1.19-3-2.38-4.11a.78.78,0,0,1-.32-.5c0-.2.32-.59.43-.76a24.25,24.25,0,0,0,1.85-3.17c0-.22-.36-.2-.56-.2Z"/><path class="cls-1" d="M3.48,26.29c0,.92-.74,1.45-1.75,1.45a3,3,0,0,1-1.51-.4c-.09-.06-.13-.1-.13-.15a.36.36,0,0,1,0-.13l.06-.12c0-.09.07-.13.12-.13a.27.27,0,0,1,.13.06,2.36,2.36,0,0,0,1.35.42c.73,0,1.22-.38,1.22-1s-.54-.88-1.22-1.17S.22,24.44.22,23.56.91,22.22,2,22.22a2.9,2.9,0,0,1,1.17.26c.1,0,.14.08.14.14a.33.33,0,0,1,0,.13l-.06.14c0,.1-.06.14-.11.14A.23.23,0,0,1,3,23a2,2,0,0,0-1.07-.3c-.73,0-1.16.36-1.16.87s.41.78,1.25,1.15S3.48,25.43,3.48,26.29Z"/><path class="cls-1" d="M6.36,27.27h.71l.43,0c.11,0,.14,0,.14.18v.08c0,.15,0,.19-.16.19H4.92c-.14,0-.18,0-.18-.18s0-.93,0-1.41V23.85c0-.51,0-1.35,0-1.41s0-.18.18-.18H7.32c.14,0,.16,0,.16.19v.1c0,.14,0,.18-.14.18l-.34,0H5.44c-.2,0-.24,0-.24.24v1.39c0,.2,0,.24.24.24H6c.3,0,.63,0,1,0h.17c.14,0,.16,0,.16.19v.09c0,.15,0,.19-.16.19H7c-.3,0-.62,0-.94,0h-.6c-.2,0-.24,0-.24.24V27c0,.2,0,.24.24.24Z"/><path class="cls-1" d="M9,27.69c-.15,0-.19,0-.19-.16s0-.29,0-.48,0-.65,0-1V23.87c0-.3,0-.61,0-.94,0-.18,0-.44,0-.5s0-.16.19-.16h.13c.15,0,.19,0,.19.16s0,.3,0,.49c0,.34,0,.65,0,1v2.22c0,.31,0,.73,0,1s0,.42,0,.49,0,.16-.19.16Z"/><path class="cls-1" d="M12.72,26.09c0,.3,0,.71,0,1s0,.36,0,.42,0,.16-.19.16h-.13c-.15,0-.19,0-.19-.16s0-.25,0-.42,0-.72,0-1V22.95c0-.2,0-.24-.24-.24h-1l-.51,0c-.11,0-.14,0-.14-.18v-.1c0-.15,0-.19.16-.19h3.85c.14,0,.16,0,.16.19v.1c0,.14,0,.18-.13.18l-.54,0H13c-.2,0-.24,0-.24.24Z"/><path class="cls-1" d="M15.58,26.32c-.18.42-.31.76-.46,1.18-.06.17-.1.19-.26.19h-.16c-.1,0-.15,0-.15-.06a.36.36,0,0,1,0-.12c.21-.46.41-.93.61-1.39l1.12-2.66c.14-.32.27-.66.4-1,.06-.17.1-.19.26-.19h.12c.17,0,.21,0,.26.19.12.33.26.66.4,1l1.12,2.66c.2.48.41.94.62,1.39a.34.34,0,0,1,0,.12s0,.06-.15.06h-.19c-.17,0-.21,0-.26-.19-.15-.42-.29-.75-.46-1.18l0-.1c0-.11-.14-.17-.31-.17H15.93c-.18,0-.26.06-.31.17Zm.38-.91a.49.49,0,0,0,0,.14c0,.07.06.09.18.09h1.84c.13,0,.18,0,.18-.09a.46.46,0,0,0,0-.14l-1-2.34C17.08,23,17,23,17,23s-.06,0-.1.11Z"/><path class="cls-1" d="M21,26.09c0,.22,0,.5,0,.79s0,.6,0,.65,0,.16-.19.16h-.13c-.15,0-.19,0-.19-.16s0-.38,0-.66,0-.56,0-.78V23.87c0-.48,0-1.35,0-1.42s0-.18.18-.18h1.46c1,0,1.6.37,1.6,1.43a1.59,1.59,0,0,1-1.14,1.61c-.1,0-.15.06-.15.11a.26.26,0,0,0,.08.14l.29.33c.43.51.79,1,1.37,1.6a.28.28,0,0,1,.08.14s0,.06-.14.06h-.3a.29.29,0,0,1-.31-.16c-.35-.5-.7-.93-1.09-1.39l-.43-.52a.4.4,0,0,0-.39-.18h-.39c-.2,0-.24,0-.24.24Zm0-1.32c0,.2,0,.24.24.24h.62c.7,0,1.43-.28,1.43-1.26s-.61-1-1.17-1h-.89c-.2,0-.24,0-.24.24Z"/><path class="cls-1" d="M30.31,24.88a2.68,2.68,0,0,1-2.71,2.85A2.52,2.52,0,0,1,25,25a2.64,2.64,0,0,1,2.69-2.82A2.51,2.51,0,0,1,30.31,24.88ZM25.53,25a2.07,2.07,0,0,0,2.09,2.24,2.21,2.21,0,0,0,2.21-2.38,2.05,2.05,0,0,0-2.1-2.21A2.18,2.18,0,0,0,25.53,25Z"/><path class="cls-1" d="M35.16,26.09c0,.23,0,.51,0,.8s0,.58,0,.64,0,.16-.19.16h-.13c-.15,0-.19,0-.19-.16s0-.31,0-.65,0-.57,0-.79v-.42a.67.67,0,0,0-.14-.44L33.73,24c-.35-.51-.74-1.05-1.12-1.57a.24.24,0,0,1-.06-.11s0-.07.14-.07h.22a.28.28,0,0,1,.3.17c.3.5.63,1,1,1.46l.62.91c.06.08.1.12.14.12s.08,0,.14-.12l.63-.93c.32-.48.64-1,.94-1.45a.28.28,0,0,1,.3-.17h.2c.1,0,.14,0,.14.07a.23.23,0,0,1-.06.11c-.37.51-.74,1-1.1,1.56l-.84,1.23a.67.67,0,0,0-.14.44Z"/><path class="cls-1" d="M38.2,26.32c-.18.42-.31.76-.46,1.18-.06.17-.1.19-.26.19h-.16c-.1,0-.15,0-.15-.06a.36.36,0,0,1,0-.12c.21-.46.41-.93.61-1.39l1.12-2.66c.14-.32.27-.66.4-1,.06-.17.1-.19.26-.19h.12c.17,0,.21,0,.26.19.12.33.26.66.4,1l1.12,2.66c.2.48.41.94.62,1.39a.34.34,0,0,1,0,.12s0,.06-.15.06h-.19c-.17,0-.21,0-.26-.19-.15-.42-.29-.75-.46-1.18l0-.1c0-.11-.14-.17-.31-.17H38.55c-.18,0-.26.06-.31.17Zm.38-.91a.48.48,0,0,0,0,.14c0,.07.06.09.18.09h1.84c.13,0,.18,0,.18-.09a.46.46,0,0,0,0-.14l-1-2.34c0-.08-.06-.11-.1-.11s-.06,0-.1.11Z"/><path class="cls-1" d="M43.67,25.92c0,.57,0,1.31,0,1.57s0,.2-.2.2h-.12c-.14,0-.18,0-.18-.14s0-.41,0-.66,0-.65,0-1l0-2.22c0-.44,0-1.12,0-1.28s0-.16.19-.16h.06a.29.29,0,0,1,.31.17c.18.27.37.54.56.81L45.65,25c.06.08.1.12.14.12s.08,0,.14-.12l1.25-1.75c.19-.27.39-.55.56-.81a.28.28,0,0,1,.3-.17h.06c.17,0,.2,0,.2.2,0,.41,0,.85,0,1.24l0,2.21c0,.3,0,.72,0,1s0,.57,0,.67,0,.14-.18.14h-.12c-.15,0-.19,0-.19-.16s0-.83,0-1.61l0-2.59c0-.08,0-.12-.06-.12s-.06,0-.09.07l-1.77,2.46a.17.17,0,0,1-.15.09.19.19,0,0,1-.16-.08l-1.77-2.48s-.06-.07-.09-.07-.06,0-.06.12Z"/><path class="cls-1" d="M50.45,26.32c-.18.42-.31.76-.46,1.18-.06.17-.1.19-.26.19h-.16c-.1,0-.15,0-.15-.06a.36.36,0,0,1,0-.12c.21-.46.41-.93.61-1.39l1.12-2.66c.14-.32.27-.66.4-1,.06-.17.1-.19.26-.19H52c.17,0,.21,0,.26.19.12.33.26.66.4,1l1.12,2.66c.2.48.41.94.62,1.39a.34.34,0,0,1,0,.12s0,.06-.15.06h-.19c-.17,0-.21,0-.26-.19-.15-.42-.29-.75-.46-1.18l0-.1c0-.11-.14-.17-.31-.17H50.8c-.18,0-.26.06-.31.17Zm.38-.91a.49.49,0,0,0,0,.14c0,.07.06.09.18.09h1.84c.13,0,.18,0,.18-.09a.46.46,0,0,0,0-.14l-1-2.34c0-.08-.06-.11-.1-.11s-.06,0-.1.11Z"/><path class="cls-1" d="M57.85,27.27h.67l.47,0c.11,0,.14,0,.14.18v.08c0,.15,0,.19-.16.19H55.39c-.13,0-.14,0-.14-.18v0a.42.42,0,0,1,.11-.3c.19-.26.37-.51.54-.77l2.43-3.5a.32.32,0,0,0,.06-.14s-.06-.06-.17-.06h-2.3l-.5,0c-.11,0-.14,0-.14-.18v-.1c0-.15,0-.19.16-.19H59c.13,0,.15,0,.15.18v0a.42.42,0,0,1-.11.3l-.53.74L56,27.07c0,.07-.06.1-.06.14s.06.06.17.06Z"/><path class="cls-1" d="M61,26.32c-.18.42-.31.76-.46,1.18-.06.17-.1.19-.26.19h-.16c-.1,0-.15,0-.15-.06a.36.36,0,0,1,0-.12c.21-.46.41-.93.61-1.39l1.12-2.66c.14-.32.27-.66.4-1,.06-.17.1-.19.26-.19h.12c.17,0,.21,0,.26.19.12.33.26.66.4,1l1.12,2.66c.2.48.41.94.62,1.39a.34.34,0,0,1,0,.12s0,.06-.15.06H64.6c-.17,0-.21,0-.26-.19-.15-.42-.29-.75-.46-1.18l0-.1c0-.11-.14-.17-.31-.17H61.35c-.18,0-.26.06-.31.17Zm.38-.91a.49.49,0,0,0,0,.14c0,.07.06.09.18.09h1.84c.13,0,.18,0,.18-.09a.46.46,0,0,0,0-.14l-1-2.34c0-.08-.06-.11-.1-.11s-.06,0-.1.11Z"/><path class="cls-1" d="M66.47,26.09c0,.3,0,.73,0,1s0,.37,0,.42,0,.16-.19.16h-.13c-.15,0-.19,0-.19-.16s0-.23,0-.41,0-.73,0-1V23.87c0-.3,0-.61,0-1,0-.18,0-.42,0-.48s0-.16.19-.16h.13c.15,0,.19,0,.19.16s0,.29,0,.47c0,.35,0,.66,0,1v1c0,.1,0,.15,0,.15s.06,0,.12-.08l1.3-1.34c.36-.37.72-.75,1.07-1.14a.34.34,0,0,1,.33-.15h.27c.09,0,.13,0,.13.07a.15.15,0,0,1-.06.1c-.49.45-.92.89-1.37,1.36l-.4.41c-.08.08-.11.14-.11.19a.32.32,0,0,0,.08.18l.88,1.29c.38.55.75,1.1,1.14,1.63a.22.22,0,0,1,.06.12s0,.06-.14.06h-.22a.27.27,0,0,1-.3-.18c-.3-.5-.64-1-1-1.5l-.74-1.1c-.06-.09-.1-.13-.15-.13s-.09,0-.15.1l-.62.65a.49.49,0,0,0-.16.38Z"/><path class="cls-1" d="M71.2,27.69c-.15,0-.19,0-.19-.16s0-.29,0-.48,0-.65,0-1V23.87c0-.3,0-.61,0-.94,0-.18,0-.44,0-.5s0-.16.19-.16h.13c.15,0,.19,0,.19.16s0,.3,0,.49c0,.34,0,.65,0,1v2.22c0,.31,0,.73,0,1s0,.42,0,.49,0,.16-.19.16Z"/><path class="cls-1" d="M1.83,52.48s0,0,0,.06V55c0,.37,0,.74,0,1.1,0,.18,0,.3-.23.3s-.23-.12-.23-.3c0-.37,0-.74,0-1.1V52.59a0,0,0,0,0,0,0,.05.05,0,0,0,0,0,11.83,11.83,0,0,1-.86,1.82c0,.06-.1.16-.18.16S0,54.43,0,54.34s0-.1.07-.14a10.28,10.28,0,0,0,1.21-2.65.14.14,0,0,0,0-.06c0-.11-.08-.14-.18-.14H.33c-.14,0-.14-.11-.14-.22s0-.2.14-.2h.82c.15,0,.22-.06.22-.22v-.3a6.39,6.39,0,0,0,0-1v-.08c0-.08,0-.1.12-.1l.22,0c.18,0,.33,0,.33.1s0,.07-.11.12-.1.24-.1.9v.3c0,.16.06.22.22.22h.57c.14,0,.14.1.14.22s0,.2-.14.2H2c-.14,0-.21.06-.22.22a.57.57,0,0,0,.06.26,8.4,8.4,0,0,0,.94,1.43.18.18,0,0,1,.06.12.28.28,0,0,1-.22.22c-.18,0-.65-.9-.74-1.08A.06.06,0,0,0,1.83,52.48Zm2.53,0c.16,0,.22-.07.22-.22v-.9c0-.16-.06-.22-.22-.22H3.73a.27.27,0,0,0-.3.19c-.07.18-.16.41-.25.58s-.08.14-.17.14-.25-.06-.25-.14a1.1,1.1,0,0,1,.08-.21,6.43,6.43,0,0,0,.63-2c0-.06,0-.1.1-.1s.45.06.45.15,0,.06-.07.08-.1.1-.14.26,0,.26-.12.5a.18.18,0,0,0,0,.06c0,.1.08.14.17.14h.51c.16,0,.22-.06.22-.22V50.4a5.76,5.76,0,0,0,0-.91.28.28,0,0,1,0-.08c0-.08.06-.1.12-.1l.22,0c.16,0,.3,0,.3.1s0,.07-.1.11-.1.22-.1.86v.14c0,.16.06.22.22.22h.65l.9,0c.14,0,.16.06.16.22s0,.22-.15.22l-.9,0H5.21c-.15,0-.22.06-.22.22v.9c0,.15.06.21.22.22h.9l.9,0c.15,0,.16.08.16.22s0,.22-.15.22l-.9,0H5.35c-.08,0-.15,0-.15.12a.11.11,0,0,0,0,.07,11.12,11.12,0,0,0,1.91,2.45s.12.11.12.18A.28.28,0,0,1,7,56c-.1,0-.39-.31-.47-.4a8.72,8.72,0,0,1-1.46-2.07.05.05,0,0,0,0,0s0,0,0,.06V55c0,.36,0,.72,0,1.08,0,.17,0,.26-.22.26s-.22-.1-.22-.28c0-.35,0-.7,0-1.06V53.49a.05.05,0,0,0,0-.06.06.06,0,0,0-.06,0,8.66,8.66,0,0,1-1.6,2.1c-.11.1-.4.39-.56.39a.31.31,0,0,1-.22-.22c0-.08.11-.17.18-.22a9.23,9.23,0,0,0,2.08-2.44.1.1,0,0,0,0-.06c0-.09-.06-.11-.14-.12H3.85l-.9,0c-.15,0-.16-.09-.16-.22s0-.22.16-.22l.9,0Z"/><path class="cls-1" d="M12.54,50.81H14.1l.92,0c.15,0,.16.08.16.22s0,.22-.16.22l-.92,0H12.58a.17.17,0,0,0-.19.18v0a11.6,11.6,0,0,0,1.17,3.8c.11.18.38.62.63.62.4,0,.5-.88.54-1.18,0-.1,0-.22.15-.22s.27,0,.27.2a3.09,3.09,0,0,1-.14.7c-.13.42-.3.91-.82.91a.66.66,0,0,1-.37-.11,3.62,3.62,0,0,1-.92-1.3,12.68,12.68,0,0,1-1-3.42.21.21,0,0,0-.25-.21H9.25l-.93,0c-.14,0-.15-.08-.15-.21s0-.22.15-.22l.93,0h2.42c.12,0,.2,0,.2-.18v0s-.1-1.21-.1-1.23a.09.09,0,0,1,.1-.1l.32,0c.14,0,.26,0,.26.1s0,.07-.12.1a.12.12,0,0,0-.08.13c0,.22,0,.71.06.94S12.38,50.81,12.54,50.81ZM10.31,55c0,.1,0,.18.15.18h.06l1.22-.3.17,0c.11,0,.15.13.15.22s-.1.18-.26.22c-.87.24-2,.46-2.89.62-.22,0-.22,0-.26.15s0,.06-.08.06-.08,0-.15-.24a1.51,1.51,0,0,1-.08-.26s0-.07.11-.08a11.29,11.29,0,0,0,1.23-.2c.16,0,.19-.1.21-.26V53.24A.2.2,0,0,0,9.67,53H9.44l-.78,0c-.14,0-.15-.1-.15-.21s0-.22.15-.22l.78,0h1.24l.78,0c.15,0,.15.1.15.22s0,.21-.15.21l-.78,0h-.14a.2.2,0,0,0-.22.22Zm3.77-4.49c-.09,0-.14-.07-.19-.14-.23-.25-.48-.49-.74-.71,0,0-.11-.1-.11-.16a.28.28,0,0,1,.22-.22c.11,0,.46.35.55.44s.5.47.5.58A.27.27,0,0,1,14.08,50.47Z"/><path class="cls-1" d="M19.29,50a.15.15,0,0,0-.12.07,9.41,9.41,0,0,1-2.86,2.56,1.11,1.11,0,0,1-.33.15c-.09,0-.22-.17-.22-.26s.1-.14.21-.19a8.11,8.11,0,0,0,3.23-3.06s0-.08.09-.08.46.13.46.25-.1.06-.14.06h0a.06.06,0,0,0,0,0,.08.08,0,0,0,0,.06,9.28,9.28,0,0,0,3.17,2.69c.07,0,.18.08.18.17s-.1.27-.21.27a6,6,0,0,1-1.2-.69,9.8,9.8,0,0,1-2.08-2A.16.16,0,0,0,19.29,50ZM18.2,55.47a.19.19,0,0,0,0,.06c0,.07.06.1.13.1l2.35-.24a.11.11,0,0,0,.1-.1.15.15,0,0,0,0-.08l-.46-.51a.21.21,0,0,1-.06-.12.25.25,0,0,1,.22-.21.23.23,0,0,1,.17.09c.24.26.47.52.7.78s.45.51.66.78a.26.26,0,0,1,.06.14.24.24,0,0,1-.22.2c-.1,0-.17-.1-.48-.49a.31.31,0,0,0-.26-.13H21c-1.34.16-2.7.3-4,.42,0,0,0,0-.09.08s0,.08-.1.08-.2-.45-.2-.48.12-.09.19-.09.51,0,.66,0a.31.31,0,0,0,.3-.2,16,16,0,0,0,.75-1.57.19.19,0,0,0,0-.06c0-.1-.07-.12-.15-.13h-.94l-.94,0c-.14,0-.15-.08-.15-.22s0-.22.15-.22l.94,0h3.79l.93,0c.15,0,.16.08.16.22s0,.22-.16.22l-.93,0h-2.3a0,0,0,0,0,0,.08c.09.06.21.1.21.18s-.07.06-.14.07a.13.13,0,0,0-.1.06C18.61,54.63,18.42,55,18.2,55.47Zm.33-3.05-.79,0c-.14,0-.15-.1-.15-.22s0-.22.15-.22l.79,0h1.54l.78,0c.15,0,.16.1.16.22s0,.22-.15.22l-.79,0Z"/><path class="cls-1" d="M25.26,53.27c-.06,0-.07,0-.07.1v2c0,.26,0,.51,0,.78s0,.3-.23.3-.22-.12-.22-.3,0-.52,0-.78V53.63s0-.1-.09-.1a.14.14,0,0,0-.07,0c-.2.19-.42.38-.63.57a.4.4,0,0,1-.26.13.24.24,0,0,1-.23-.22c0-.1.1-.15.19-.22a10.08,10.08,0,0,0,1.86-1.88,3.21,3.21,0,0,0,.38-.64c0-.07,0-.08-.44-.08H24.7l-.91,0c-.14,0-.16-.08-.16-.22s0-.22.16-.22l.79,0c.15,0,.22-.07.22-.22v-.37a6.44,6.44,0,0,0,0-.79s0,0,0-.07.07-.1.12-.1l.22,0c.23,0,.34,0,.34.11s0,.07-.11.11-.1.21-.1.73v.37c0,.16.06.22.22.22h.62a.34.34,0,0,1,.35.35,4.88,4.88,0,0,1-.91,1.46.22.22,0,0,0-.06.15.21.21,0,0,0,.07.15c.34.32.7.61,1.06.9.06,0,.13.09.13.17s-.11.25-.23.25a.45.45,0,0,1-.25-.14c-.3-.26-.59-.53-.87-.81A.12.12,0,0,0,25.26,53.27Zm4-1.55.9,0c.15,0,.16.08.16.22s0,.22-.15.22l-.91,0h-.41c-.16,0-.22.06-.22.22v3.05c0,.15.06.22.22.22h.73l.92,0c.15,0,.15.1.15.22s0,.22-.15.22l-.92,0H27l-.92,0c-.14,0-.15-.08-.15-.22s0-.22.15-.22l.92,0h1c.16,0,.22-.07.22-.22V52.33c0-.15-.06-.22-.22-.22h-.29l-.91,0c-.15,0-.16-.09-.16-.22s0-.22.16-.22l.91,0H28c.16,0,.22-.06.22-.22V50.37a6.31,6.31,0,0,0,0-.9s0-.06,0-.08.06-.1.12-.1l.23,0c.26,0,.33,0,.33.11s0,.07-.11.11-.1.24-.1.85v1.12c0,.16.06.22.22.22Z"/><path class="cls-1" d="M34.17,53.84c0,1-.1,1.15,1.06,1.15a18.86,18.86,0,0,0,1.91-.12h.07c.1,0,.1.08.1.15,0,.26,0,.34-.18.35-.33,0-1.37,0-1.74,0A3.22,3.22,0,0,1,34,55.24c-.25-.18-.26-.44-.26-.77s0-.42,0-.62V52.64a.16.16,0,0,0-.16-.16h0l-.69.14-1,.21c-.14,0-.16-.25-.16-.33s.16-.12,1.11-.3l.78-.15a.23.23,0,0,0,.18-.22V50.9c0-.24,0-.79,0-1a.57.57,0,0,1,0-.1c0-.06,0-.07.08-.07s.56,0,.56.16,0,.07-.06.11a.35.35,0,0,0-.07.22c0,.18,0,.5,0,.69v.81a.16.16,0,0,0,.2.16l2.07-.4.86-.18c.1,0,.37.21.37.31a.29.29,0,0,1-.09.18l-.74.86c-.22.26-.45.54-.68.79-.06.07-.13.17-.24.17s-.35-.12-.35-.24a.16.16,0,0,1,.06-.11A10.17,10.17,0,0,0,36.84,52a.08.08,0,0,0,0-.06.06.06,0,0,0-.06-.06l-.37.06-2.05.4a.24.24,0,0,0-.22.26Z"/><path class="cls-1" d="M42.1,55c0,.34,0,.66,0,1,0,.18-.07.21-.29.21s-.22,0-.22-.21c0-.34,0-.66,0-1V52.31c0-.06,0-.2-.11-.2a.34.34,0,0,0-.18.1,12.47,12.47,0,0,1-1.79,1.15,1.82,1.82,0,0,1-.38.18c-.1,0-.28-.2-.28-.29s.08-.12.15-.15a10.42,10.42,0,0,0,4.09-3.42s0-.08.1-.08.26.14.34.18.14.09.14.15-.06.08-.11.1-.12,0-.19.14a10.38,10.38,0,0,1-1.17,1.28c-.09.09-.14.13-.14.26Z"/><path class="cls-1" d="M49.23,50.8a4,4,0,0,0,.7,0l.1,0c.1,0,.3.34.3.42a.3.3,0,0,1-.06.14,1.51,1.51,0,0,0-.22.4,13,13,0,0,1-.8,1.51.26.26,0,0,0-.06.17.2.2,0,0,0,.1.18c.25.18.54.37.54.48s-.14.33-.25.33-.08,0-.12-.06L49,54a.29.29,0,0,0-.18-.09c-.13,0-.18.09-.26.18a6.52,6.52,0,0,1-1.8,1.44,6,6,0,0,1-1,.44.49.49,0,0,1-.34-.34c0-.08.11-.1.27-.16a5.72,5.72,0,0,0,2.46-1.62.36.36,0,0,0,.11-.22.24.24,0,0,0-.14-.21,9.77,9.77,0,0,0-1-.56s-.14-.06-.14-.12.14-.32.26-.32a7.35,7.35,0,0,1,1.11.57.54.54,0,0,0,.24.1c.15,0,.2-.12.27-.24a7.58,7.58,0,0,0,.67-1.46c0-.19-.24-.17-.37-.17h-2c-.13,0-.18.1-.26.2a11.81,11.81,0,0,1-1.11,1.36.26.26,0,0,1-.17.07c-.11,0-.35-.13-.35-.24s.06-.1.09-.12a7.78,7.78,0,0,0,2-2.83s.06-.19.13-.19a2.3,2.3,0,0,1,.42.24c.06,0,.09,0,.09.1s-.11.11-.16.13-.09.11-.13.18-.17.3-.26.45a.16.16,0,0,0,0,.1.11.11,0,0,0,.13.11Z"/><path class="cls-1" d="M56.48,50.68h.58c.38,0,.46.09.46.39s0,.41,0,.62v2.71c0,.28,0,.55,0,.82s0,.22-.29.22-.22-.09-.22-.3-.12-.24-.34-.24H53.26c-.22,0-.34,0-.34.24s0,.3-.22.3-.29,0-.29-.22,0-.54,0-.82V51.68c0-.2,0-.4,0-.61s.06-.4.45-.4h3.61Zm-3.37.44a.22.22,0,0,0-.22.22v2.88a.22.22,0,0,0,.22.22h3.71a.22.22,0,0,0,.22-.22V51.35a.22.22,0,0,0-.22-.22Z"/><path class="cls-1" d="M61.75,51.08a.21.21,0,0,0,.22-.22v-.38a4.68,4.68,0,0,0,0-.75.47.47,0,0,1,0-.1c0-.06,0-.08.1-.08s.58,0,.58.15-.06.1-.09.13-.08.23-.08.65v.39a.21.21,0,0,0,.22.22h1.25l.66,0c.14,0,.35.24.35.32a3.55,3.55,0,0,0-.11.46,6.3,6.3,0,0,1-.62,2,5.11,5.11,0,0,1-1.72,1.81,3.52,3.52,0,0,1-.86.5.35.35,0,0,1-.27-.28c0-.09.11-.13.19-.17A5,5,0,0,0,64,53.17a4.66,4.66,0,0,0,.34-1.42c0-.26-.19-.23-.42-.23H60.35a.22.22,0,0,0-.22.22v1c0,.21,0,.44,0,.54s-.06.18-.26.18-.22,0-.22-.19,0-.35,0-.53V51.33c0-.21,0-.26.35-.26Z"/><path class="cls-1" d="M71.7,52.25l1,0c.16,0,.18.06.18.22s0,.25-.19.25l-.94,0H70.44c-.21,0-.22.22-.23.34a4.32,4.32,0,0,1-.53,1.55,3.09,3.09,0,0,1-1.18,1.07,3.85,3.85,0,0,1-.83.35c-.11,0-.32-.23-.32-.33s.11-.11.18-.14a4.09,4.09,0,0,0,1.07-.46,2.81,2.81,0,0,0,1.07-1.67,3,3,0,0,0,.08-.54.19.19,0,0,0-.19-.18H67.65l-1,0c-.16,0-.17-.1-.17-.23s0-.24.18-.24l1,0Zm-1.23-2.16,1,0c.16,0,.18.06.18.24s0,.23-.18.23l-1,0H68.74l-1,0c-.15,0-.18-.07-.18-.23s0-.24.18-.24l1,0Zm2.21.24a2.24,2.24,0,0,1,.34.43c0,.1-.19.26-.29.26s-.08,0-.11-.09q-.25-.32-.53-.62s-.06-.07-.06-.1.18-.24.26-.24S72.62,50.26,72.68,50.33Zm.61-.66a2.81,2.81,0,0,1,.35.46c0,.09-.18.26-.29.26s-.08,0-.11-.09a8,8,0,0,0-.53-.62s-.06-.06-.06-.1.18-.24.27-.24S73.23,49.61,73.29,49.67Z"/><path class="cls-1" d="M75.56,51.66a.23.23,0,0,0,.25-.22v-.77c0-.24,0-.37,0-.61,0,0,0-.07,0-.1s0-.08.1-.08.55,0,.55.15-.06.1-.09.13-.06.39-.06.51v.77a.22.22,0,0,0,.22.22h1.88a.23.23,0,0,0,.23-.25V51.2a10.07,10.07,0,0,0,0-1.21.37.37,0,0,1,0-.1c0-.06,0-.08.09-.08l.36,0c.06,0,.17,0,.17.1s0,.06-.06.1a3,3,0,0,0-.06.87c0,.15,0,.3,0,.44v0c0,.18.1.27.22.27h.34l1,0c.16,0,.18.07.18.23s0,.24-.18.24l-1,0h-.34c-.26,0-.23.28-.23.34a4.9,4.9,0,0,1-.46,2.38A3.33,3.33,0,0,1,77.07,56a.23.23,0,0,1-.1,0c-.09,0-.33-.19-.33-.28s.1-.11.2-.15c1.6-.7,1.74-1.65,1.74-3.25,0-.14-.07-.26-.22-.26H76.49a.22.22,0,0,0-.22.22v1.13c0,.1,0,.46,0,.51s-.08.22-.25.22-.23-.07-.23-.24,0-.33,0-.49V52.32a.22.22,0,0,0-.22-.22h-.33l-1,0c-.16,0-.18-.1-.18-.24s0-.23.18-.23l1,0Zm4.33-1.73c.07,0,.34.29.4.35s.35.36.35.42a.39.39,0,0,1-.29.26s-.08,0-.1-.08a6.74,6.74,0,0,0-.56-.61s-.06-.06-.06-.1A.39.39,0,0,1,79.89,49.93Zm.69-.59c.07,0,.33.28.4.34s.35.36.35.42a.39.39,0,0,1-.29.26s-.08,0-.1-.08a7.79,7.79,0,0,0-.56-.61s-.06-.06-.06-.1A.4.4,0,0,1,80.58,49.34Z"/><path class="cls-1" d="M85.09,55c0,.34,0,.66,0,1,0,.18-.07.21-.29.21s-.22,0-.22-.21c0-.34,0-.66,0-1V52.31c0-.06,0-.2-.11-.2a.34.34,0,0,0-.18.1,12.46,12.46,0,0,1-1.79,1.15,1.82,1.82,0,0,1-.38.18c-.1,0-.28-.2-.28-.29s.08-.12.15-.15a10.42,10.42,0,0,0,4.09-3.42s0-.08.1-.08.26.14.34.18.14.09.14.15-.06.08-.11.1-.12,0-.19.14a10.36,10.36,0,0,1-1.17,1.28c-.09.09-.14.13-.14.26Z"/><path class="cls-1" d="M94.43,51.89c0,.1-.39.48-.49.58a15.66,15.66,0,0,1-1.89,1.59,12.92,12.92,0,0,1-2.33,1.33c-.2.09-.2.1-.27.25a.11.11,0,0,1-.1.06c-.08,0-.12-.1-.18-.22a1.61,1.61,0,0,1-.15-.32c0-.06.12-.09.2-.11a10.48,10.48,0,0,0,3.14-1.77A13.78,13.78,0,0,0,94.1,51.6a.16.16,0,0,1,.12-.09C94.33,51.52,94.43,51.83,94.43,51.89ZM89.48,50.2l.78.55c.18.14.39.27.39.36s-.15.31-.28.31-.27-.17-.34-.22c-.28-.22-.56-.44-.86-.63,0,0-.1-.06-.1-.13s.14-.3.26-.3A.31.31,0,0,1,89.48,50.2Z"/><path class="cls-1" d="M96.51,52.28s0-.08-.06-.08a.07.07,0,0,0-.06,0c-.19.25-.4.5-.62.73-.06.06-.12.13-.21.13a.29.29,0,0,1-.25-.22c0-.08.09-.15.14-.2a9.4,9.4,0,0,0,2-3.29c0-.06,0-.14.12-.14s.48.14.48.25-.07.1-.11.11-.13.08-.19.23A11.3,11.3,0,0,1,97,51.4s0,0,0,0,0,.06.06.06.14,0,.14.09,0,.07-.11.12-.1.2-.1.81V55c0,.34,0,.67,0,1,0,.18,0,.31-.22.31s-.23-.11-.23-.3,0-.67,0-1Zm3.31-.14a7.88,7.88,0,0,0,1,3.13c.13.19.42.58.67.58s.3-.18.36-.34a3.79,3.79,0,0,0,.18-.67c0-.08,0-.14.13-.14s.32,0,.32.19a3.83,3.83,0,0,1-.24.81c-.15.33-.34.62-.74.62s-.76-.44-1-.76a8.06,8.06,0,0,1-1.17-3.38.2.2,0,0,0-.24-.2l-.77.06-.81.08c-.11,0-.15-.06-.15-.27s0-.17.3-.18l.64,0,.74-.06a.18.18,0,0,0,.19-.19.36.36,0,0,1,0,0c-.06-.54-.08-1-.1-1.58,0-.12,0-.3,0-.35a.11.11,0,0,1,.11-.12l.33.06c.22,0,.26,0,.26.12s-.06.09-.13.11-.08.08-.08.21c0,.43,0,1.09.1,1.53a.19.19,0,0,0,.23.19l1.51-.12.82-.08c.1,0,.15,0,.15.27s0,.16-.3.17l-.63,0-1.5.12c-.1,0-.18.06-.18.18Zm1.5-1.19a.19.19,0,0,1-.16-.1,7.29,7.29,0,0,0-.78-.94.21.21,0,0,1-.1-.15c0-.1.14-.2.23-.2a.16.16,0,0,1,.14.06c.26.26.45.5.68.77.06.07.22.28.22.36A.25.25,0,0,1,101.32,51Z"/><path class="cls-1" d="M106.17,54.18v1c0,.1,0,.18.15.18h.06c.39-.09.9-.19,1.27-.32l.09,0c.12,0,.15.13.15.22s-.07.17-.21.21a28.16,28.16,0,0,1-2.81.62c-.23,0-.22,0-.26.15a.09.09,0,0,1-.09.06c-.06,0-.08-.06-.13-.18a2.91,2.91,0,0,1-.1-.31c0-.06,0-.08.1-.08.29,0,.86-.13,1.15-.2a.22.22,0,0,0,.2-.26v-.82c0-.06,0-.13-.1-.13l-.08,0a8.55,8.55,0,0,1-1.61.78,1.07,1.07,0,0,1-.26.07c-.1,0-.17-.15-.17-.24s.1-.14.18-.17a7.13,7.13,0,0,0,2.88-1.73.14.14,0,0,0,0-.08c0-.06-.06-.08-.1-.09h-1.85l-.93,0c-.14,0-.15-.09-.15-.22s0-.22.15-.22l.93,0h2c.15,0,.22-.06.22-.22v-.36c0-.15-.06-.22-.22-.22h-1.1l-.81,0c-.15,0-.16-.1-.16-.22s0-.22.16-.22l.81,0h1.1c.15,0,.22-.06.22-.22v-.29c0-.16-.06-.21-.22-.22h-1.54l-.9,0c-.14,0-.15-.09-.15-.22s0-.22.16-.22l.89,0h1.53c.16,0,.22-.06.22-.22a3.74,3.74,0,0,0,0-.51s0,0,0-.07.06-.1.13-.1l.22,0c.18,0,.33,0,.33.11s0,.07-.11.11-.11.15-.1.46c0,.15.07.22.22.22H109l.88,0c.15,0,.17.06.17.22s0,.22-.16.22l-.89,0h-1.51c-.15,0-.22.06-.22.22v.29c0,.15.06.22.22.22h1.09l.81,0c.14,0,.16.08.16.22s0,.22-.15.22l-.82,0h-1.09c-.15,0-.22.06-.22.22v.36c0,.16.06.22.22.22h1.93l.92,0c.15,0,.16.08.16.22s0,.22-.16.22l-.92,0h-1.66c-.09,0-.17,0-.17.14a.17.17,0,0,0,0,.06,4.06,4.06,0,0,0,.5,1,.19.19,0,0,0,.17.1.24.24,0,0,0,.13,0,9.48,9.48,0,0,0,1.2-.9s.06-.06.09-.06.33.35.33.41a.07.07,0,0,1-.06.07l-.07,0-.08,0a.11.11,0,0,0-.07,0,9.42,9.42,0,0,1-1.08.77.18.18,0,0,0-.1.14.17.17,0,0,0,.06.12,4.82,4.82,0,0,0,1.66,1.1c.1,0,.22.07.22.18s-.09.26-.19.26a4.74,4.74,0,0,1-3.05-3.13.11.11,0,0,0-.1-.09.11.11,0,0,0-.1,0c-.19.21-.48.49-.7.68A.35.35,0,0,0,106.17,54.18Z"/><path class="cls-1" d="M113.61,55.55c0,.09-.2.35-.33.35s-.11-.06-.15-.1a4.16,4.16,0,0,0-1.2-1c-.06,0-.12-.07-.12-.14a.46.46,0,0,1,.3-.31A4.44,4.44,0,0,1,113.61,55.55Z"/><path class="cls-1" d="M5.6,64.6a6.81,6.81,0,0,0,.7,0h0c.21,0,.38.4.38.48s0,.1-.09.14c-.39.33-.9.86-1.27,1.23-.1.1-.46.46-.57.54a.17.17,0,0,1-.11,0,.37.37,0,0,1-.3-.27.15.15,0,0,1,.07-.1A15.53,15.53,0,0,0,6,65.13c0-.11-.16-.1-.24-.1H1.65l-1,0c-.16,0-.17-.09-.17-.24s0-.23.18-.23l1,0Zm-1.75.86c.06,0,.13,0,.13.11s0,.07-.07.1a.21.21,0,0,0-.1.18,7.64,7.64,0,0,1-.21,1.33,4.52,4.52,0,0,1-1.77,2.61.37.37,0,0,1-.19.1c-.1,0-.29-.16-.29-.27s.1-.14.15-.17a4.46,4.46,0,0,0,1.85-3.82v-.15c0-.06,0-.08.09-.08Z"/><path class="cls-1" d="M12.54,66.48l.94,0c.18,0,.2.06.2.26s0,.24-.17.24l-1,0H8.88l-1,0c-.17,0-.18-.09-.18-.24s0-.26.2-.26l.94,0Z"/><path class="cls-1" d="M17,68.67c0,.4,0,.79,0,1.19,0,.24,0,.34-.26.34s-.26-.1-.26-.34c0-.4,0-.79,0-1.19V64.83a8.28,8.28,0,0,0,0-1,1,1,0,0,1,0-.15c0-.06,0-.09.08-.09s.57.08.57.18,0,.07-.06.1a3.68,3.68,0,0,0-.06,1Zm1.46-2.11c.12.09.63.49.63.61a.34.34,0,0,1-.26.29.24.24,0,0,1-.16-.08,9.55,9.55,0,0,0-1.26-1c-.06,0-.14-.08-.14-.17s.14-.29.24-.29A5.1,5.1,0,0,1,18.43,66.56Z"/><path class="cls-1" d="M26.24,66.25l1,0c.16,0,.18.06.18.22s0,.25-.19.25l-.94,0H25c-.21,0-.22.22-.23.34a4.32,4.32,0,0,1-.53,1.55A3.09,3.09,0,0,1,23,69.66a3.85,3.85,0,0,1-.83.35c-.11,0-.32-.23-.32-.33s.11-.11.18-.14a4.08,4.08,0,0,0,1.07-.46,2.81,2.81,0,0,0,1.07-1.67,3.05,3.05,0,0,0,.08-.54.19.19,0,0,0-.19-.18H22.19l-1,0c-.16,0-.17-.1-.17-.23s0-.24.18-.24l1,0ZM25,64.09l1,0c.16,0,.18.06.18.24s0,.23-.18.23l-1,0H23.28l-1,0c-.15,0-.18-.07-.18-.23s0-.24.18-.24l1,0Zm2.21.24a2.24,2.24,0,0,1,.34.43c0,.1-.19.26-.29.26s-.08,0-.11-.09q-.25-.32-.53-.62s-.06-.07-.06-.1.18-.24.26-.24S27.16,64.26,27.22,64.33Zm.61-.66a2.77,2.77,0,0,1,.35.46c0,.09-.18.26-.29.26s-.08,0-.11-.09a7.73,7.73,0,0,0-.53-.62s-.06-.06-.06-.1.18-.24.27-.24S27.78,63.61,27.83,63.67Z"/><path class="cls-1" d="M31.44,69.22c0,.26,0,.53,0,.78s-.11.18-.26.18S31,70.15,31,70s0-.51,0-.78v-2c0-.06,0-.13-.1-.13a.36.36,0,0,0-.21.11,9.66,9.66,0,0,1-1.56.93c-.1,0-.26-.18-.26-.26s.1-.13.2-.18a9.07,9.07,0,0,0,2.22-1.54,4.56,4.56,0,0,0,.83-1s.06-.12.12-.12.41.19.41.3-.06.09-.11.1a.17.17,0,0,0-.12.09,6.89,6.89,0,0,1-.89,1,.38.38,0,0,0-.12.32Z"/><path class="cls-1" d="M36,68.23c0,.24,0,.37,0,.46s0,.2.11.2a9.37,9.37,0,0,0,1.34-.58,12.11,12.11,0,0,0,2.81-2s.1-.1.15-.1.22.21.22.31a.17.17,0,0,1-.08.12c-.19.18-.39.34-.6.5a14.27,14.27,0,0,1-3.44,2l-.32.15a.4.4,0,0,1-.18.07,1.34,1.34,0,0,1-.44-.19.16.16,0,0,1-.08-.15s0-.58,0-1V65.41a6.63,6.63,0,0,0,0-1.1s0,0,0-.06a.08.08,0,0,1,.09-.09c.08,0,.54.08.54.19s0,.06,0,.09a.19.19,0,0,0-.06.14c0,.22,0,.61,0,.82Z"/><path class="cls-1" d="M46.26,64.9a4.17,4.17,0,0,0,.71,0l.08,0a.72.72,0,0,1,.36.38c0,.08-.13.18-.32.58a8.11,8.11,0,0,1-3.62,4A1.63,1.63,0,0,1,43,70c-.1,0-.42-.15-.42-.26s.11-.11.17-.14a7.63,7.63,0,0,0,1.27-.7A7,7,0,0,0,46,66.8a6.54,6.54,0,0,0,.68-1.36c0-.12-.2-.1-.38-.1H44.46a.34.34,0,0,0-.38.19c-.17.23-1.06,1.34-1.3,1.34-.07,0-.35-.13-.35-.24a.12.12,0,0,1,.06-.1,7.41,7.41,0,0,0,2.08-2.76c0-.07,0-.16.11-.16s.54.15.54.26,0,.08-.08.1a.39.39,0,0,0-.22.22,4.93,4.93,0,0,1-.27.48.23.23,0,0,0,0,.1.11.11,0,0,0,.12.12Z"/><path class="cls-1" d="M53.15,64.8a4,4,0,0,0,.7,0l.1,0c.1,0,.3.34.3.42a.3.3,0,0,1-.06.14,1.51,1.51,0,0,0-.22.4,13,13,0,0,1-.8,1.51.26.26,0,0,0-.06.17.2.2,0,0,0,.1.18c.25.18.54.37.54.48s-.14.33-.25.33-.08,0-.12-.06L53,68a.29.29,0,0,0-.18-.09c-.13,0-.18.09-.26.18a6.52,6.52,0,0,1-1.8,1.44,6,6,0,0,1-1,.44.49.49,0,0,1-.34-.34c0-.08.11-.1.27-.16a5.72,5.72,0,0,0,2.46-1.62.36.36,0,0,0,.11-.22.24.24,0,0,0-.14-.21,9.77,9.77,0,0,0-1-.56S51,66.8,51,66.75s.14-.32.26-.32a7.35,7.35,0,0,1,1.11.57.54.54,0,0,0,.24.1c.15,0,.2-.12.27-.24a7.58,7.58,0,0,0,.67-1.46c0-.19-.24-.17-.37-.17h-2c-.13,0-.18.1-.26.2a11.82,11.82,0,0,1-1.11,1.36.26.26,0,0,1-.17.07c-.11,0-.35-.13-.35-.24s.06-.1.09-.12a7.77,7.77,0,0,0,2-2.83s.06-.19.13-.19a2.3,2.3,0,0,1,.42.24c.06,0,.09,0,.09.1s-.11.11-.16.13-.09.11-.13.18-.17.3-.26.45a.16.16,0,0,0,0,.1.11.11,0,0,0,.13.11Z"/><path class="cls-1" d="M60.62,66.48l.94,0c.18,0,.2.06.2.26s0,.24-.17.24l-1,0H57l-1,0c-.17,0-.18-.09-.18-.24s0-.26.2-.26l.94,0Z"/><path class="cls-1" d="M65.39,69.55c0,.09-.2.35-.33.35s-.11-.06-.15-.1a4.16,4.16,0,0,0-1.2-1c-.06,0-.12-.07-.12-.14a.46.46,0,0,1,.3-.31A4.44,4.44,0,0,1,65.39,69.55Z"/><path class="cls-1" d="M72.75,66.25l1,0c.16,0,.18.06.18.22s0,.25-.19.25l-.94,0H71.49c-.21,0-.22.22-.23.34a4.32,4.32,0,0,1-.53,1.55,3.09,3.09,0,0,1-1.18,1.07,3.85,3.85,0,0,1-.83.35c-.11,0-.32-.23-.32-.33s.11-.11.18-.14a4.08,4.08,0,0,0,1.07-.46,2.81,2.81,0,0,0,1.07-1.67,3,3,0,0,0,.08-.54.19.19,0,0,0-.19-.18H68.71l-1,0c-.16,0-.17-.1-.17-.23s0-.24.18-.24l1,0Zm-1.23-2.16,1,0c.16,0,.18.06.18.24s0,.23-.18.23l-1,0H69.79l-1,0c-.15,0-.18-.07-.18-.23s0-.24.18-.24l1,0Zm2.21.24a2.24,2.24,0,0,1,.34.43c0,.1-.19.26-.29.26s-.08,0-.11-.09q-.25-.32-.53-.62s-.06-.07-.06-.1.18-.24.26-.24S73.67,64.26,73.74,64.33Zm.61-.66a2.77,2.77,0,0,1,.35.46c0,.09-.18.26-.29.26s-.08,0-.11-.09a7.73,7.73,0,0,0-.53-.62s-.06-.06-.06-.1.18-.24.27-.24S74.29,63.61,74.34,63.67Z"/><path class="cls-1" d="M76.61,65.66a.23.23,0,0,0,.25-.22v-.77c0-.24,0-.37,0-.61,0,0,0-.07,0-.1s0-.08.1-.08.55,0,.55.15-.06.1-.09.13-.06.39-.06.51v.77a.22.22,0,0,0,.22.22h1.88a.23.23,0,0,0,.23-.25V65.2a10.07,10.07,0,0,0,0-1.21.37.37,0,0,1,0-.1c0-.06,0-.08.09-.08l.36,0c.06,0,.17,0,.17.1s0,.06-.06.1a3,3,0,0,0-.06.87c0,.15,0,.3,0,.44v0c0,.18.1.27.22.27h.34l1,0c.16,0,.18.07.18.23s0,.24-.18.24l-1,0h-.34c-.26,0-.23.28-.23.34a4.9,4.9,0,0,1-.46,2.38A3.33,3.33,0,0,1,78.12,70a.23.23,0,0,1-.1,0c-.09,0-.33-.19-.33-.28s.1-.11.2-.15c1.6-.7,1.74-1.65,1.74-3.25,0-.14-.07-.26-.22-.26H77.54a.22.22,0,0,0-.22.22v1.13c0,.1,0,.46,0,.51s-.08.22-.25.22-.23-.07-.23-.24,0-.33,0-.49V66.32a.22.22,0,0,0-.22-.22H76.3l-1,0c-.16,0-.18-.1-.18-.24s0-.23.18-.23l1,0Zm4.33-1.73c.07,0,.33.29.4.35s.35.36.35.42a.39.39,0,0,1-.29.26s-.08,0-.1-.08a6.59,6.59,0,0,0-.56-.61s-.06-.06-.06-.1A.39.39,0,0,1,80.95,63.93Zm.69-.59c.07,0,.34.28.4.34s.35.36.35.42a.39.39,0,0,1-.29.26s-.08,0-.1-.08a7.77,7.77,0,0,0-.56-.61s-.06-.06-.06-.1A.4.4,0,0,1,81.64,63.34Z"/><path class="cls-1" d="M86.14,69c0,.34,0,.66,0,1,0,.18-.07.21-.29.21s-.22,0-.22-.21c0-.34,0-.66,0-1V66.31c0-.06,0-.2-.11-.2a.34.34,0,0,0-.18.1,12.46,12.46,0,0,1-1.79,1.15,1.82,1.82,0,0,1-.38.18c-.1,0-.28-.2-.28-.29s.08-.12.15-.15a10.42,10.42,0,0,0,4.09-3.42s0-.08.1-.08.26.14.34.18.14.09.14.15-.06.08-.11.1-.12,0-.19.14a10.36,10.36,0,0,1-1.17,1.28c-.09.09-.14.13-.14.26Z"/><path class="cls-1" d="M92,65.8c.26,0,.23-.29.23-.64s0-1,0-1.25a.43.43,0,0,1,0-.1c0-.06,0-.08.1-.08a3.55,3.55,0,0,1,.42.06s.11,0,.11.1,0,.06-.06.1,0,.5,0,.61c0,.32,0,.65,0,1a.22.22,0,0,0,.22.25H94.2l1,0c.17,0,.18.07.18.24s0,.23-.18.23l-1,0H92.83c-.17,0-.22.13-.23.27a4.1,4.1,0,0,1-1.66,3,3.8,3.8,0,0,1-.7.41c-.1,0-.36-.22-.36-.3s.11-.11.2-.15a3.52,3.52,0,0,0,2-2.89,1.16,1.16,0,0,0,0-.16.21.21,0,0,0-.2-.21h-1.8l-1,0c-.16,0-.18-.07-.18-.24s0-.23.18-.23l1,0Z"/><path class="cls-1" d="M101.56,66.48l.94,0c.18,0,.2.06.2.26s0,.24-.17.24l-1,0H97.89l-1,0c-.17,0-.18-.09-.18-.24s0-.26.2-.26l.94,0Z"/><path class="cls-1" d="M1.83,80.48s0,0,0,.06V83c0,.37,0,.74,0,1.1,0,.18,0,.3-.23.3s-.23-.12-.23-.3c0-.37,0-.74,0-1.1V80.59a0,0,0,0,0,0,0,.05.05,0,0,0,0,0,11.83,11.83,0,0,1-.86,1.82c0,.06-.1.16-.18.16S0,82.43,0,82.34s0-.1.07-.14a10.28,10.28,0,0,0,1.21-2.65.14.14,0,0,0,0-.06c0-.11-.08-.14-.18-.14H.33c-.14,0-.14-.11-.14-.22s0-.2.14-.2h.82c.15,0,.22-.06.22-.22v-.3a6.39,6.39,0,0,0,0-1v-.08c0-.08,0-.1.12-.1l.22,0c.18,0,.33,0,.33.1s0,.07-.11.12-.1.24-.1.9v.3c0,.16.06.22.22.22h.57c.14,0,.14.1.14.22s0,.2-.14.2H2c-.14,0-.21.06-.22.22a.57.57,0,0,0,.06.26,8.4,8.4,0,0,0,.94,1.43.18.18,0,0,1,.06.12.28.28,0,0,1-.22.22c-.18,0-.65-.9-.74-1.08A.06.06,0,0,0,1.83,80.48Zm2.53,0c.16,0,.22-.07.22-.22v-.9c0-.16-.06-.22-.22-.22H3.73a.27.27,0,0,0-.3.19c-.07.18-.16.41-.25.58s-.08.14-.17.14-.25-.06-.25-.14a1.1,1.1,0,0,1,.08-.21,6.43,6.43,0,0,0,.63-2c0-.06,0-.1.1-.1s.45.06.45.15,0,.06-.07.08-.1.1-.14.26,0,.26-.12.5a.18.18,0,0,0,0,.06c0,.1.08.14.17.14h.51c.16,0,.22-.06.22-.22V78.4a5.76,5.76,0,0,0,0-.91.28.28,0,0,1,0-.08c0-.08.06-.1.12-.1l.22,0c.16,0,.3,0,.3.1s0,.07-.1.11-.1.22-.1.86v.14c0,.16.06.22.22.22h.65l.9,0c.14,0,.16.06.16.22s0,.22-.15.22l-.9,0H5.21c-.15,0-.22.06-.22.22v.9c0,.15.06.21.22.22h.9l.9,0c.15,0,.16.08.16.22s0,.22-.15.22l-.9,0H5.35c-.08,0-.15,0-.15.12a.11.11,0,0,0,0,.07,11.12,11.12,0,0,0,1.91,2.45s.12.11.12.18A.28.28,0,0,1,7,84c-.1,0-.39-.31-.47-.4a8.72,8.72,0,0,1-1.46-2.07.05.05,0,0,0,0,0s0,0,0,.06V83c0,.36,0,.72,0,1.08,0,.17,0,.26-.22.26s-.22-.1-.22-.28c0-.35,0-.7,0-1.06V81.49a.05.05,0,0,0,0-.06.06.06,0,0,0-.06,0,8.66,8.66,0,0,1-1.6,2.1c-.11.1-.4.39-.56.39a.31.31,0,0,1-.22-.22c0-.08.11-.17.18-.22a9.23,9.23,0,0,0,2.08-2.44.1.1,0,0,0,0-.06c0-.09-.06-.11-.14-.12H3.85l-.9,0c-.15,0-.16-.09-.16-.22s0-.22.16-.22l.9,0Z"/><path class="cls-1" d="M12.54,78.81H14.1l.92,0c.15,0,.16.08.16.22s0,.22-.16.22l-.92,0H12.58a.17.17,0,0,0-.19.18v0a11.6,11.6,0,0,0,1.17,3.8c.11.18.38.62.63.62.4,0,.5-.88.54-1.18,0-.1,0-.22.15-.22s.27,0,.27.2a3.09,3.09,0,0,1-.14.7c-.13.42-.3.91-.82.91a.66.66,0,0,1-.37-.11,3.62,3.62,0,0,1-.92-1.3,12.68,12.68,0,0,1-1-3.42.21.21,0,0,0-.25-.21H9.25l-.93,0c-.14,0-.15-.08-.15-.21s0-.22.15-.22l.93,0h2.42c.12,0,.2,0,.2-.18v0s-.1-1.21-.1-1.23a.09.09,0,0,1,.1-.1l.32,0c.14,0,.26,0,.26.1s0,.07-.12.1a.12.12,0,0,0-.08.13c0,.22,0,.71.06.94S12.38,78.81,12.54,78.81ZM10.31,83c0,.1,0,.18.15.18h.06l1.22-.3.17,0c.11,0,.15.13.15.22s-.1.18-.26.22c-.87.24-2,.46-2.89.62-.22,0-.22,0-.26.15s0,.06-.08.06-.08,0-.15-.24a1.51,1.51,0,0,1-.08-.26s0-.07.11-.08a11.29,11.29,0,0,0,1.23-.2c.16,0,.19-.1.21-.26V81.24A.2.2,0,0,0,9.67,81H9.44l-.78,0c-.14,0-.15-.1-.15-.21s0-.22.15-.22l.78,0h1.24l.78,0c.15,0,.15.1.15.22s0,.21-.15.21l-.78,0h-.14a.2.2,0,0,0-.22.22Zm3.77-4.49c-.09,0-.14-.07-.19-.14-.23-.25-.48-.49-.74-.71,0,0-.11-.1-.11-.16a.28.28,0,0,1,.22-.22c.11,0,.46.35.55.44s.5.47.5.58A.27.27,0,0,1,14.08,78.47Z"/><path class="cls-1" d="M19.29,78a.15.15,0,0,0-.12.07,9.41,9.41,0,0,1-2.86,2.56,1.11,1.11,0,0,1-.33.15c-.09,0-.22-.17-.22-.26s.1-.14.21-.19a8.11,8.11,0,0,0,3.23-3.06s0-.08.09-.08.46.13.46.25-.1.06-.14.06h0a.06.06,0,0,0,0,0,.08.08,0,0,0,0,.06,9.28,9.28,0,0,0,3.17,2.69c.07,0,.18.08.18.17s-.1.27-.21.27a6,6,0,0,1-1.2-.69,9.8,9.8,0,0,1-2.08-2A.16.16,0,0,0,19.29,78ZM18.2,83.47a.19.19,0,0,0,0,.06c0,.07.06.1.13.1l2.35-.24a.11.11,0,0,0,.1-.1.15.15,0,0,0,0-.08l-.46-.51a.21.21,0,0,1-.06-.12.25.25,0,0,1,.22-.21.23.23,0,0,1,.17.09c.24.26.47.52.7.78s.45.51.66.78a.26.26,0,0,1,.06.14.24.24,0,0,1-.22.2c-.1,0-.17-.1-.48-.49a.31.31,0,0,0-.26-.13H21c-1.34.16-2.7.3-4,.42,0,0,0,0-.09.08s0,.08-.1.08-.2-.45-.2-.48.12-.09.19-.09.51,0,.66,0a.31.31,0,0,0,.3-.2,16,16,0,0,0,.75-1.57.19.19,0,0,0,0-.06c0-.1-.07-.12-.15-.13h-.94l-.94,0c-.14,0-.15-.08-.15-.22s0-.22.15-.22l.94,0h3.79l.93,0c.15,0,.16.08.16.22s0,.22-.16.22l-.93,0h-2.3a0,0,0,0,0,0,.08c.09.06.21.1.21.18s-.07.06-.14.07a.13.13,0,0,0-.1.06C18.61,82.63,18.42,83,18.2,83.47Zm.33-3.05-.79,0c-.14,0-.15-.1-.15-.22s0-.22.15-.22l.79,0h1.54l.78,0c.15,0,.16.1.16.22s0,.22-.15.22l-.79,0Z"/><path class="cls-1" d="M25.26,81.27c-.06,0-.07,0-.07.1v2c0,.26,0,.51,0,.78s0,.3-.23.3-.22-.12-.22-.3,0-.52,0-.78V81.63s0-.1-.09-.1a.14.14,0,0,0-.07,0c-.2.19-.42.38-.63.57a.4.4,0,0,1-.26.13.24.24,0,0,1-.23-.22c0-.1.1-.15.19-.22a10.08,10.08,0,0,0,1.86-1.88,3.21,3.21,0,0,0,.38-.64c0-.07,0-.08-.44-.08H24.7l-.91,0c-.14,0-.16-.08-.16-.22s0-.22.16-.22l.79,0c.15,0,.22-.07.22-.22v-.37a6.44,6.44,0,0,0,0-.79s0,0,0-.07.07-.1.12-.1l.22,0c.23,0,.34,0,.34.11s0,.07-.11.11-.1.21-.1.73v.37c0,.16.06.22.22.22h.62a.34.34,0,0,1,.35.35,4.88,4.88,0,0,1-.91,1.46.22.22,0,0,0-.06.15.21.21,0,0,0,.07.15c.34.32.7.61,1.06.9.06,0,.13.09.13.17s-.11.25-.23.25a.45.45,0,0,1-.25-.14c-.3-.26-.59-.53-.87-.81A.12.12,0,0,0,25.26,81.27Zm4-1.55.9,0c.15,0,.16.08.16.22s0,.22-.15.22l-.91,0h-.41c-.16,0-.22.06-.22.22v3.05c0,.15.06.22.22.22h.73l.92,0c.15,0,.15.1.15.22s0,.22-.15.22l-.92,0H27l-.92,0c-.14,0-.15-.08-.15-.22s0-.22.15-.22l.92,0h1c.16,0,.22-.07.22-.22V80.33c0-.15-.06-.22-.22-.22h-.29l-.91,0c-.15,0-.16-.09-.16-.22s0-.22.16-.22l.91,0H28c.16,0,.22-.06.22-.22V78.37a6.31,6.31,0,0,0,0-.9s0-.06,0-.08.06-.1.12-.1l.23,0c.26,0,.33,0,.33.11s0,.07-.11.11-.1.24-.1.85v1.12c0,.16.06.22.22.22Z"/><path class="cls-1" d="M33.62,82.26c0,1-.53,1.46-1.62,1.46h-.22c-.17,0-.2,0-.2-.22v-.08c0-.14,0-.18.1-.18h.09a1.63,1.63,0,0,0,.34,0,.91.91,0,0,0,1-1V79.87c0-.3,0-.58,0-.9s0-.46,0-.54,0-.16.19-.16h.13c.15,0,.19,0,.19.16s0,.32,0,.54,0,.61,0,.9Z"/><path class="cls-1" d="M35.65,81.92c0,.57,0,1.31,0,1.57s0,.2-.2.2h-.12c-.14,0-.18,0-.18-.14s0-.41,0-.66,0-.65,0-1l0-2.22c0-.44,0-1.12,0-1.28s0-.16.19-.16h.06a.29.29,0,0,1,.31.17c.18.27.37.54.56.81L37.63,81c.06.08.1.12.14.12s.08,0,.14-.12l1.25-1.75c.19-.27.39-.55.56-.81a.28.28,0,0,1,.3-.17h.06c.17,0,.2,0,.2.2,0,.41,0,.85,0,1.24l0,2.21c0,.3,0,.72,0,1s0,.57,0,.67,0,.14-.18.14h-.12c-.15,0-.19,0-.19-.16s0-.83,0-1.61l0-2.59c0-.08,0-.12-.06-.12s-.06,0-.09.07l-1.77,2.46a.17.17,0,0,1-.15.09.19.19,0,0,1-.16-.08l-1.77-2.48s-.06-.07-.09-.07-.06,0-.06.12Z"/><path class="cls-1" d="M45.57,83.36c0,.06,0,.1-.14.14a3.25,3.25,0,0,1-1.24.23,2.45,2.45,0,0,1-2.55-2.66,2.7,2.7,0,0,1,2.89-2.86,2.9,2.9,0,0,1,1,.16c.1,0,.14.07.14.14a.41.41,0,0,1,0,.12l0,.13c0,.1-.06.14-.12.14l-.13,0a2.39,2.39,0,0,0-.9-.18,2.22,2.22,0,0,0-2.31,2.38,2,2,0,0,0,2.11,2.22,2.33,2.33,0,0,0,1-.22.32.32,0,0,1,.13,0c.06,0,.08,0,.12.14l0,.08A.4.4,0,0,1,45.57,83.36Z"/><path class="cls-1" d="M47,83.1a.13.13,0,0,0-.07.09s0,.11-.1.11-.28-.44-.28-.46,0-.08.18-.1l.52-.1a.23.23,0,0,0,.21-.26V78.19c0-.14-.06-.21-.21-.22l-.47,0c-.14,0-.15-.09-.15-.22s0-.22.15-.22l.9,0h1.78l.89,0c.15,0,.16.08.16.22s0,.22-.15.22l-.43,0c-.15,0-.21.07-.21.22V83c0,.36,0,.72,0,1.09,0,.18,0,.32-.22.32s-.23-.14-.23-.32c0-.37,0-.73,0-1.09v-.2c0-.1,0-.18-.14-.18h-.06C48.36,82.79,47.68,83,47,83.1Zm.89-4.21a.21.21,0,0,0,.22.22h1a.22.22,0,0,0,.22-.22v-.7A.22.22,0,0,0,49,78h-1a.21.21,0,0,0-.22.22Zm0,1.53a.21.21,0,0,0,.22.22h1a.22.22,0,0,0,.22-.22v-.69c0-.14-.08-.22-.22-.22h-1a.2.2,0,0,0-.22.22Zm0,1.87c0,.1,0,.18.15.18h.06c.34-.07.66-.14,1-.23a.23.23,0,0,0,.2-.27v-.7c0-.15-.06-.22-.22-.22h-1c-.15,0-.22.06-.22.22Zm4,.15a.17.17,0,0,0-.13.07,11.33,11.33,0,0,1-1.4,1.36.57.57,0,0,1-.33.18.23.23,0,0,1-.22-.21c0-.08.08-.13.19-.22a8.68,8.68,0,0,0,1.54-1.49.32.32,0,0,0,.06-.18.31.31,0,0,0,0-.17,8.29,8.29,0,0,1-.82-3c0-.1-.06-.14-.17-.14h-.1c-.14,0-.16-.09-.16-.22s0-.22.16-.22l.92,0h1.54a.36.36,0,0,1,.38.36,8,8,0,0,1-.24,1.33,7.45,7.45,0,0,1-.82,1.89.28.28,0,0,0,0,.34,6.06,6.06,0,0,0,1.13,1.26c.06.06.25.21.25.28a.28.28,0,0,1-.26.25c-.26,0-1.18-1.17-1.35-1.41A.16.16,0,0,0,51.9,82.44Zm0-1a.12.12,0,0,0,.1-.06,6.91,6.91,0,0,0,.82-2.53.64.64,0,0,0,0-.11c0-.11,0-.13-.42-.13h-1.1c-.14,0-.22.06-.2.21a7.28,7.28,0,0,0,.66,2.55S51.88,81.46,51.94,81.46Z"/><path class="cls-1" d="M55.62,81.92a.16.16,0,0,0-.12.16,12.08,12.08,0,0,1-.42,1.61c0,.09-.08.16-.18.16s-.26,0-.26-.14a.19.19,0,0,1,0-.1,7.44,7.44,0,0,0,.41-1.54c0-.28,0-.38.14-.38s.48.07.48.16S55.65,81.9,55.62,81.92Zm-.29-3.11a.16.16,0,0,0,.13-.09,14.61,14.61,0,0,0,.78-1.39s0-.08.1-.08.17.1.23.14.18.12.18.18,0,.07-.14.07a.12.12,0,0,0-.1.06A13,13,0,0,1,55.74,79a.17.17,0,0,0,0,.12.2.2,0,0,0,.08.14l.24.23a.18.18,0,0,0,.12,0,.15.15,0,0,0,.14-.09c.23-.36.43-.73.65-1.09,0,0,0-.09.1-.09s.15.08.23.14.2.12.2.18-.06.06-.1.06a.2.2,0,0,0-.15.06A22.07,22.07,0,0,1,56,80.56a.1.1,0,0,0,0,.06c0,.07.06.09.11.09l.79-.07c.06,0,.12,0,.12-.12a.19.19,0,0,0,0-.07,2,2,0,0,1-.15-.37c0-.1.16-.17.25-.17s.17.12.46.81a2.45,2.45,0,0,1,.14.43c0,.12-.16.18-.25.18s-.14-.13-.18-.22a.17.17,0,0,0-.16-.12h0l-.48.06c-.16,0-.21.1-.21.25v1.77c0,.3,0,.6,0,.9s0,.32-.23.32-.23-.12-.23-.31,0-.6,0-.9V81.36c0-.14-.06-.22-.22-.2l-.62,0a.14.14,0,0,0-.09.07s0,.1-.1.1-.1-.09-.13-.2a2.27,2.27,0,0,1-.07-.3c0-.08.07-.08.2-.08h.31a.34.34,0,0,0,.31-.18l.3-.46a.24.24,0,0,0,0-.15.22.22,0,0,0-.08-.17c-.3-.3-.64-.58-1-.85a.21.21,0,0,1-.1-.15.26.26,0,0,1,.22-.22c.08,0,.2.12.26.18A.17.17,0,0,0,55.33,78.8Zm2,4.44c-.12,0-.16-.08-.19-.18a6.57,6.57,0,0,0-.42-1,.42.42,0,0,1-.06-.17c0-.1.15-.19.24-.19s.24.27.37.56a5,5,0,0,1,.29.84C57.56,83.18,57.43,83.24,57.33,83.24Zm3.4-5.17.91,0c.15,0,.16.07.16.22s0,.22-.15.22l-.92,0h-2l-.91,0c-.15,0-.16-.09-.16-.22s0-.22.16-.22l.91,0h.54c.15,0,.22-.06.22-.21a2.1,2.1,0,0,0,0-.39.23.23,0,0,1,0-.07c0-.08.06-.1.12-.1l.22,0c.18,0,.34,0,.34.1s0,.08-.11.12-.11.15-.1.32.07.21.22.21Zm-.13.5a.89.89,0,0,1,.25.12c.06,0,.2.1.2.17s-.06.06-.16.08-.06,0-.07,0a6.28,6.28,0,0,1-.3.64.16.16,0,0,0,0,.08c0,.08.06.1.14.11h.62c.24,0,.38,0,.38.31v.45c0,.08,0,.18,0,.25s0,.18-.22.18-.22,0-.22-.15,0-.14,0-.22v-.2c0-.16-.06-.22-.22-.22H58.36c-.16,0-.21.06-.22.22v.18c0,.08,0,.15,0,.22S58,81,57.93,81s-.22,0-.22-.16,0-.18,0-.26v-.17c0-.09,0-.17,0-.26,0-.26.1-.33.36-.33h1.69a.31.31,0,0,0,.33-.18,5.88,5.88,0,0,0,.42-1S60.55,78.56,60.6,78.56Zm-.16,2.71.4,0c.24,0,.34,0,.34.24v1.37c0,.1,0,.21,0,.32,0,.33-.13.5-.76.5-.18,0-.26,0-.26-.28,0-.08,0-.14.1-.14h.18c.3,0,.3-.1.3-.29v-1.1c0-.16-.06-.22-.22-.22h-.47c-.16,0-.22.06-.22.22v1.16c0,.32,0,.64,0,1s0,.3-.22.3-.23-.12-.23-.3,0-.64,0-1V81.89c0-.16-.06-.22-.22-.22h-.48c-.16,0-.22.06-.22.22v1c0,.19,0,.38,0,.56s0,.2-.22.2-.22,0-.22-.19,0-.38,0-.57V81.85c0-.11,0-.22,0-.33s.1-.25.35-.25h.78c.15,0,.21-.06.22-.22a4.21,4.21,0,0,0,0-.46s0,0,0-.07.06-.1.13-.1l.22,0c.18,0,.33,0,.33.11s0,.06-.11.11-.1.16-.1.38.06.21.22.22ZM58.9,79.65c-.14,0-.16-.1-.24-.32a3.76,3.76,0,0,0-.2-.44.24.24,0,0,1,0-.13c0-.1.15-.17.24-.17s.16.1.32.46a1.8,1.8,0,0,1,.15.42C59.13,79.61,59,79.65,58.9,79.65Z"/><path class="cls-1" d="M64.1,80.38s0,.06.07.07.22,0,.22.1,0,.07-.11.11-.1.2-.1.77v1.66c0,.32,0,.64,0,1s0,.3-.22.3-.23-.12-.23-.3,0-.64,0-1V80.93s0-.1-.1-.1,0,0-.08,0-.55.53-.7.53a.27.27,0,0,1-.22-.21c0-.08.07-.13.14-.18a10.62,10.62,0,0,0,2-2.1s.06-.09.1-.09.44.17.44.26-.06.07-.1.08-.12,0-.2.14a12.63,12.63,0,0,1-.86,1A.1.1,0,0,0,64.1,80.38Zm.74-2.74c-.07,0-.09,0-.14.07a9.29,9.29,0,0,1-1.5,1.37.66.66,0,0,1-.26.12.27.27,0,0,1-.23-.21c0-.09.08-.13.18-.2a7.89,7.89,0,0,0,1.54-1.42.13.13,0,0,1,.1-.07c.06,0,.4.19.4.26S64.9,77.64,64.84,77.64Zm.66,6.4a2,2,0,0,1-.5.15.24.24,0,0,1-.24-.24c0-.13.11-.14.39-.24a6.59,6.59,0,0,0,1.62-.82c.06,0,.1-.07.1-.14a.18.18,0,0,0-.06-.14,3.83,3.83,0,0,1-.75-1.25.25.25,0,0,0-.27-.19l-.45,0c-.14,0-.16-.07-.16-.22s0-.22.16-.22l.92,0h2.31a.39.39,0,0,1,.29.07.46.46,0,0,1,.13.27c0,.35-1,1.31-1.24,1.56a.18.18,0,0,0-.07.14.17.17,0,0,0,.08.13,4.85,4.85,0,0,0,1.74.86c.09,0,.19,0,.19.16s-.06.26-.18.26a.77.77,0,0,1-.22,0,5.51,5.51,0,0,1-1.86-1,.31.31,0,0,0-.17-.06.35.35,0,0,0-.16,0A8,8,0,0,1,65.51,84ZM66,79.77c-.12.16-.56.63-.75.63s-.21-.15-.21-.26.06-.11.15-.18A1.57,1.57,0,0,0,66,78.49c0-.68-.08-.94.35-.94h1.45c.29,0,.37.09.37.38,0,.14,0,.27,0,.41v1c0,.26,0,.41.3.41h.5c.21,0,.34,0,.5-.78,0-.09,0-.14.15-.14s.27,0,.27.16a2.78,2.78,0,0,1-.21.69c-.16.34-.28.46-.67.46h-.69c-.5,0-.58-.22-.58-.62V78.18c0-.16-.06-.22-.22-.22h-.85c-.15,0-.22,0-.23.21A2.59,2.59,0,0,1,66,79.77Zm1.16,2.6a.24.24,0,0,0,.16.08.26.26,0,0,0,.14-.06c.18-.15,1-1,1-1.16s-.15-.06-.42-.06H66.62c-.08,0-.16,0-.16.13a.2.2,0,0,0,0,.07A4,4,0,0,0,67.14,82.37Z"/><path class="cls-1" d="M.76,96.49c0,.42,0,1,0,1s0,.16-.19.16H.49c-.15,0-.19,0-.19-.16s0-.62,0-1V95.11c0-.29,0-1,0-1s0-.16.19-.16h0c.16,0,.19,0,.2.19s0,.16.06.16a.26.26,0,0,0,.13-.06A1.88,1.88,0,0,1,2,93.86a1.12,1.12,0,0,1,.88.36c.07.08.11.12.16.12s.09,0,.16-.09a2.08,2.08,0,0,1,1.2-.39,1.16,1.16,0,0,1,1.19,1.29v1.34c0,.39,0,1,0,1s0,.16-.19.16h-.1c-.15,0-.19,0-.19-.16s0-.65,0-1V95.32c0-.63-.28-1-.87-1a1.61,1.61,0,0,0-.88.29c-.17.11-.22.2-.22.32s0,.06,0,.1,0,.26,0,.3v1.17c0,.39,0,1,0,1s0,.16-.19.16h-.1c-.15,0-.19,0-.19-.16s0-.65,0-1V95.32c0-.63-.28-1-.87-1a1.64,1.64,0,0,0-.92.31A.34.34,0,0,0,.76,95Z"/><path class="cls-1" d="M9.68,97.19a.27.27,0,0,1,0,.14s0,.09-.13.14a2.56,2.56,0,0,1-1.14.28,1.7,1.7,0,0,1-1.75-1.88,1.83,1.83,0,0,1,1.81-2c.94,0,1.42.74,1.42,1.77,0,.18,0,.24-.22.24H7.39c-.16,0-.22,0-.22.15a1.29,1.29,0,0,0,1.37,1.29,1.59,1.59,0,0,0,.85-.25A.28.28,0,0,1,9.53,97s.08,0,.13.13Zm-.22-1.88a1,1,0,0,0-.94-1,1.31,1.31,0,0,0-1.29,1.06c0,.08.06.1.2.1H9.25C9.4,95.45,9.46,95.42,9.46,95.31Z"/><path class="cls-1" d="M13.8,97.69c-.16,0-.19,0-.2-.19s0-.17-.06-.17a.24.24,0,0,0-.13.06,1.82,1.82,0,0,1-1,.34A1.54,1.54,0,0,1,10.83,96a2.06,2.06,0,0,1,2.1-2.17,2.17,2.17,0,0,1,.41,0l.12,0c.1,0,.11-.06.11-.21v-.45c0-.39,0-1,0-1s0-.16.19-.16h.1c.15,0,.19,0,.19.16s0,.65,0,1v3.29c0,.43,0,.9,0,1s0,.16-.19.16Zm-.94-3.38A1.6,1.6,0,0,0,11.3,96a1.18,1.18,0,0,0,1.15,1.32,1.67,1.67,0,0,0,.94-.32.36.36,0,0,0,.18-.36v-2c0-.18,0-.24-.22-.29A2.15,2.15,0,0,0,12.87,94.31Z"/><path class="cls-1" d="M16,92.88a.35.35,0,0,1-.36.38.32.32,0,0,1-.34-.33.36.36,0,0,1,.36-.37A.32.32,0,0,1,16,92.88Zm-.4,4.81c-.15,0-.19,0-.19-.16s0-.67,0-1V95.11c0-.41,0-1,0-1s0-.16.19-.16h.1c.15,0,.19,0,.19.16s0,.63,0,1v1.38c0,.37,0,1,0,1s0,.16-.19.16Z"/><path class="cls-1" d="M19.8,97.39c0,.07,0,.11-.14.15a2.17,2.17,0,0,1-.9.18A1.65,1.65,0,0,1,17,95.94a1.9,1.9,0,0,1,2-2.07,2,2,0,0,1,.7.12c.1,0,.14.08.14.14a.4.4,0,0,1,0,.12l0,.09c0,.1-.06.14-.11.14a.32.32,0,0,1-.13,0,1.26,1.26,0,0,0-.54-.12,1.49,1.49,0,0,0-1.5,1.61,1.26,1.26,0,0,0,1.3,1.38,1.56,1.56,0,0,0,.69-.17.41.41,0,0,1,.14-.06s.06,0,.1.14l0,.06A.3.3,0,0,1,19.8,97.39Z"/><path class="cls-1" d="M23.33,97.69c-.16,0-.19,0-.2-.19s0-.18-.07-.18a.26.26,0,0,0-.13.06,2.27,2.27,0,0,1-1.16.36c-.62,0-1.08-.3-1.08-.94,0-1,1.34-1.36,2.21-1.46.18,0,.22-.07.22-.17a1.31,1.31,0,0,0-.15-.54.8.8,0,0,0-.7-.34,2,2,0,0,0-1,.32.26.26,0,0,1-.13.06s-.07,0-.12-.13l0-.08a.37.37,0,0,1,0-.13c0-.06,0-.1.13-.15a2.92,2.92,0,0,1,1.25-.32c.88,0,1.29.45,1.27,1.47l0,1.08c0,.27,0,.58,0,.88,0,.1,0,.22,0,.27s0,.13-.18.13ZM23,95.75a4,4,0,0,0-.91.19c-.51.18-.9.46-.9.85s.26.54.66.54A2.17,2.17,0,0,0,22.9,97a.34.34,0,0,0,.19-.35V96C23.1,95.8,23.08,95.75,23,95.75Z"/><path class="cls-1" d="M26.12,97.7H26c-.8,0-1.11-.3-1.11-1.18V93.26c0-.39,0-1,0-1s0-.16.19-.16h.1c.15,0,.19,0,.19.16s0,.65,0,1V96.5c0,.52.1.78.65.78h.22c.08,0,.09,0,.09.14v.15C26.26,97.67,26.24,97.68,26.12,97.7Z"/><path class="cls-1" d="M28.94,97.47c0,.17,0,.21-.2.22l-.28,0c-.85,0-1.17-.39-1.17-1.17v-2c0-.17,0-.22-.21-.22h-.36c-.11,0-.14,0-.14-.19v0c0-.15,0-.19.14-.19h.37c.15,0,.2,0,.2-.21v-.1c0-.24,0-.66,0-.7s0-.16.19-.16h.1c.15,0,.19,0,.19.16s0,.46,0,.7v.1c0,.16,0,.21.24.21h.81c.14,0,.16,0,.16.19v0c0,.15,0,.19-.16.19H28c-.2,0-.24,0-.24.24V96.5c0,.6.26.78.72.78l.3,0,.1,0c.08,0,.1,0,.1.18Z"/><path class="cls-1" d="M32.73,97.69c-.16,0-.2,0-.2-.2s0-.16-.06-.16a.32.32,0,0,0-.14.06,2,2,0,0,1-1.11.34A1.2,1.2,0,0,1,30,96.44V95.11c0-.37,0-1,0-1s0-.16.19-.16h.1c.15,0,.19,0,.19.16s0,.67,0,1V96.3c0,.64.33,1,.93,1a1.67,1.67,0,0,0,1-.33.34.34,0,0,0,.19-.36V95.11c0-.38,0-1,0-1s0-.16.19-.16h.1c.15,0,.19,0,.19.16s0,.66,0,1v1.38c0,.32,0,.92,0,1s0,.16-.19.16Z"/><path class="cls-1" d="M34.81,96.51c0,.35,0,.94,0,1s0,.16-.19.16h-.1c-.15,0-.19,0-.19-.16s0-.65,0-1V95.11c0-.42,0-1,0-1s0-.16.19-.16h0c.16,0,.19,0,.2.19v.12c0,.09,0,.15.06.15A.25.25,0,0,0,35,94.3,1.83,1.83,0,0,1,36,93.87c.11,0,.13.06.13.2v.2c0,.09,0,.14-.1.14h-.2a1.48,1.48,0,0,0-.88.35.39.39,0,0,0-.17.36Z"/><path class="cls-1" d="M39.74,97.19a.27.27,0,0,1,0,.14s0,.09-.13.14a2.56,2.56,0,0,1-1.14.28,1.7,1.7,0,0,1-1.75-1.88,1.83,1.83,0,0,1,1.81-2c.94,0,1.41.74,1.41,1.77,0,.18,0,.24-.22.24H37.45c-.16,0-.22,0-.22.15a1.29,1.29,0,0,0,1.38,1.29,1.59,1.59,0,0,0,.85-.25.28.28,0,0,1,.14-.06s.08,0,.13.13Zm-.22-1.88a1,1,0,0,0-.94-1,1.31,1.31,0,0,0-1.29,1.06c0,.08.06.1.2.1h1.82C39.46,95.45,39.52,95.42,39.52,95.31Z"/><path class="cls-1" d="M43.15,98c0,.39,0,1,0,1s0,.16-.19.16h-.1c-.15,0-.19,0-.19-.16s0-.65,0-1V95.11c0-.38,0-1,0-1s0-.16.19-.16h0c.16,0,.2,0,.2.19s0,.18.06.18a.26.26,0,0,0,.13-.06,1.76,1.76,0,0,1,1-.35,1.54,1.54,0,0,1,1.54,1.71,2.06,2.06,0,0,1-2.1,2.17,2.32,2.32,0,0,1-.41,0l-.12,0c-.1,0-.11.06-.11.21Zm2.27-2.34a1.18,1.18,0,0,0-1.15-1.32,1.66,1.66,0,0,0-.94.32.36.36,0,0,0-.18.36v2c0,.18,0,.24.22.29a2.15,2.15,0,0,0,.48,0A1.6,1.6,0,0,0,45.42,95.63Z"/><path class="cls-1" d="M48.28,97.7h-.15c-.8,0-1.11-.3-1.11-1.18V93.26c0-.39,0-1,0-1s0-.16.19-.16h.1c.15,0,.19,0,.19.16s0,.65,0,1V96.5c0,.52.1.78.65.78h.22c.08,0,.09,0,.09.14v.15C48.42,97.67,48.39,97.68,48.28,97.7Z"/><path class="cls-1" d="M52,97.69c-.16,0-.2,0-.2-.2s0-.16-.06-.16a.32.32,0,0,0-.14.06,2,2,0,0,1-1.11.34,1.2,1.2,0,0,1-1.25-1.3V95.11c0-.37,0-1,0-1s0-.16.19-.16h.1c.15,0,.19,0,.19.16s0,.67,0,1V96.3c0,.64.33,1,.93,1a1.67,1.67,0,0,0,1-.33.34.34,0,0,0,.19-.36V95.11c0-.38,0-1,0-1s0-.16.19-.16h.1c.15,0,.19,0,.19.16s0,.66,0,1v1.38c0,.32,0,.92,0,1s0,.16-.19.16Z"/><path class="cls-1" d="M56,96.69c0,.73-.63,1-1.37,1a2.26,2.26,0,0,1-1.15-.3c-.09,0-.13-.09-.13-.15a.27.27,0,0,1,0-.13l0-.08c0-.09.07-.13.11-.13s.06,0,.13.07a1.78,1.78,0,0,0,1,.32c.48,0,.86-.21.86-.62s-.42-.56-.9-.74-1.19-.47-1.19-1.1.54-1,1.3-1a2.25,2.25,0,0,1,.94.19c.1,0,.14.08.14.15a.27.27,0,0,1,0,.11l0,.1c0,.1-.06.14-.11.14a.35.35,0,0,1-.14-.06,1.75,1.75,0,0,0-.83-.22c-.42,0-.78.21-.78.56s.44.54,1,.74S56,96.06,56,96.69Z"/><path class="cls-1" d="M64,94.25l1,0c.16,0,.18.06.18.22s0,.25-.19.25l-.94,0H62.78c-.21,0-.22.22-.23.34A4.32,4.32,0,0,1,62,96.59a3.09,3.09,0,0,1-1.18,1.07A3.85,3.85,0,0,1,60,98c-.11,0-.32-.23-.32-.33s.11-.11.18-.14a4.08,4.08,0,0,0,1.07-.46A2.81,2.81,0,0,0,62,95.41a3,3,0,0,0,.08-.54.19.19,0,0,0-.19-.18H60l-1,0c-.16,0-.17-.1-.17-.23s0-.24.18-.24l1,0Zm-1.23-2.16,1,0c.16,0,.18.06.18.24s0,.23-.18.23l-1,0H61.08l-1,0c-.15,0-.18-.07-.18-.23s0-.24.18-.24l1,0Zm2.21.24a2.24,2.24,0,0,1,.34.43c0,.1-.19.26-.29.26S65,93,65,92.93q-.25-.32-.53-.62s-.06-.07-.06-.1.18-.24.26-.24S65,92.26,65,92.33Zm.61-.66a2.76,2.76,0,0,1,.35.46c0,.09-.18.26-.29.26s-.08,0-.11-.09a7.76,7.76,0,0,0-.53-.62s-.06-.06-.06-.1.18-.24.27-.24S65.58,91.61,65.63,91.67Z"/><path class="cls-1" d="M67.91,93.66a.23.23,0,0,0,.25-.22v-.77c0-.24,0-.37,0-.61,0,0,0-.07,0-.1s0-.08.1-.08.55,0,.55.15-.06.1-.09.13-.06.39-.06.51v.77a.22.22,0,0,0,.22.22h1.88a.23.23,0,0,0,.23-.25V93.2a10.07,10.07,0,0,0,0-1.21.37.37,0,0,1,0-.1c0-.06,0-.08.09-.08l.36,0c.06,0,.17,0,.17.1s0,.06-.06.1a3,3,0,0,0-.06.87c0,.15,0,.3,0,.44v0c0,.18.1.27.22.27H72l1,0c.16,0,.18.07.18.23s0,.24-.18.24l-1,0h-.34c-.26,0-.23.28-.23.34a4.9,4.9,0,0,1-.45,2.38A3.33,3.33,0,0,1,69.42,98a.23.23,0,0,1-.1,0c-.09,0-.33-.19-.33-.28s.1-.11.2-.15c1.6-.7,1.74-1.65,1.74-3.25,0-.14-.07-.26-.22-.26H68.83a.22.22,0,0,0-.22.22v1.13c0,.1,0,.46,0,.51s-.08.22-.25.22-.23-.07-.23-.24,0-.33,0-.49V94.32a.22.22,0,0,0-.22-.22h-.33l-1,0c-.16,0-.18-.1-.18-.24s0-.23.18-.23l1,0Zm4.33-1.73c.07,0,.33.29.4.35s.35.36.35.42a.39.39,0,0,1-.29.26s-.08,0-.1-.08a6.6,6.6,0,0,0-.56-.61s-.06-.06-.06-.1A.39.39,0,0,1,72.24,91.93Zm.69-.59c.07,0,.34.28.4.34s.35.36.35.42a.39.39,0,0,1-.29.26s-.08,0-.1-.08a7.79,7.79,0,0,0-.56-.61s-.06-.06-.06-.1A.4.4,0,0,1,72.93,91.34Z"/><path class="cls-1" d="M77.43,97c0,.34,0,.66,0,1,0,.18-.07.21-.29.21s-.22,0-.22-.21c0-.34,0-.66,0-1V94.31c0-.06,0-.2-.11-.2a.34.34,0,0,0-.18.1,12.46,12.46,0,0,1-1.79,1.15,1.82,1.82,0,0,1-.38.18c-.1,0-.28-.2-.28-.29s.08-.12.15-.15a10.42,10.42,0,0,0,4.09-3.42s0-.08.1-.08.26.14.34.18.14.09.14.15-.06.08-.11.1-.12,0-.19.14a10.36,10.36,0,0,1-1.17,1.28c-.09.09-.14.13-.14.26Z"/><path class="cls-1" d="M86.77,93.89c0,.1-.39.48-.49.58a15.66,15.66,0,0,1-1.89,1.59,12.92,12.92,0,0,1-2.33,1.33c-.2.09-.2.1-.27.25a.11.11,0,0,1-.1.06c-.08,0-.12-.1-.18-.22a1.62,1.62,0,0,1-.15-.32c0-.06.12-.09.2-.11a10.49,10.49,0,0,0,3.14-1.77,13.78,13.78,0,0,0,1.74-1.66.16.16,0,0,1,.12-.09C86.67,93.52,86.77,93.83,86.77,93.89ZM81.82,92.2l.78.55c.18.14.39.27.39.36s-.15.31-.28.31-.27-.17-.34-.22c-.28-.22-.56-.44-.86-.63,0,0-.1-.06-.1-.13s.14-.3.26-.3A.31.31,0,0,1,81.82,92.2Z"/><path class="cls-1" d="M93.27,94.25l1,0c.16,0,.18.06.18.22s0,.25-.19.25l-.94,0H92c-.21,0-.22.22-.23.34a4.32,4.32,0,0,1-.53,1.55,3.09,3.09,0,0,1-1.18,1.07,3.85,3.85,0,0,1-.83.35c-.11,0-.32-.23-.32-.33s.11-.11.18-.14a4.08,4.08,0,0,0,1.07-.46,2.81,2.81,0,0,0,1.07-1.67,3,3,0,0,0,.08-.54.19.19,0,0,0-.19-.18H89.23l-1,0c-.16,0-.17-.1-.17-.23s0-.24.18-.24l1,0ZM92,92.09l1,0c.16,0,.18.06.18.24s0,.23-.18.23l-1,0H90.32l-1,0c-.15,0-.18-.07-.18-.23s0-.24.18-.24l1,0Zm2.21.24a2.24,2.24,0,0,1,.34.43c0,.1-.19.26-.29.26s-.08,0-.11-.09q-.25-.32-.53-.62s-.06-.07-.06-.1.18-.24.26-.24S94.19,92.26,94.26,92.33Zm.61-.66a2.77,2.77,0,0,1,.35.46c0,.09-.18.26-.29.26s-.08,0-.11-.09a7.73,7.73,0,0,0-.53-.62s-.06-.06-.06-.1.18-.24.27-.24S94.81,91.61,94.86,91.67Z"/><path class="cls-1" d="M98.47,97.22c0,.26,0,.53,0,.78s-.11.18-.26.18S98,98.15,98,98s0-.51,0-.78v-2c0-.06,0-.13-.1-.13a.36.36,0,0,0-.21.11,9.66,9.66,0,0,1-1.56.93c-.1,0-.26-.18-.26-.26s.1-.13.2-.18a9.07,9.07,0,0,0,2.22-1.54,4.56,4.56,0,0,0,.83-1s.06-.12.12-.12.41.19.41.3-.06.09-.11.1a.17.17,0,0,0-.12.09,6.89,6.89,0,0,1-.89,1,.38.38,0,0,0-.12.32Z"/><path class="cls-1" d="M103.07,96.23c0,.24,0,.37,0,.46s0,.2.11.2a9.37,9.37,0,0,0,1.34-.58,12.11,12.11,0,0,0,2.81-2s.1-.1.15-.1.22.21.22.31a.17.17,0,0,1-.08.12c-.19.18-.39.34-.6.5a14.27,14.27,0,0,1-3.44,2l-.32.15a.4.4,0,0,1-.18.07,1.34,1.34,0,0,1-.44-.19.16.16,0,0,1-.08-.15s0-.58,0-1V93.41a6.63,6.63,0,0,0,0-1.1s0,0,0-.06a.08.08,0,0,1,.09-.09c.08,0,.54.08.54.19s0,.06,0,.09a.19.19,0,0,0-.06.14c0,.22,0,.61,0,.82Z"/><path class="cls-1" d="M113.29,92.9a4.17,4.17,0,0,0,.71,0l.08,0a.72.72,0,0,1,.36.38c0,.08-.13.18-.32.58a8.11,8.11,0,0,1-3.62,4,1.63,1.63,0,0,1-.42.18c-.1,0-.42-.15-.42-.26s.11-.11.17-.14a7.68,7.68,0,0,0,1.27-.7A7.06,7.06,0,0,0,113,94.8a6.54,6.54,0,0,0,.68-1.36c0-.12-.2-.1-.38-.1h-1.83a.34.34,0,0,0-.38.19c-.17.23-1.06,1.34-1.3,1.34-.07,0-.35-.13-.35-.24a.12.12,0,0,1,.06-.1,7.43,7.43,0,0,0,2.08-2.76c0-.07,0-.16.11-.16s.54.15.54.26,0,.08-.08.1a.39.39,0,0,0-.22.22,4.91,4.91,0,0,1-.27.48.23.23,0,0,0,0,.1.11.11,0,0,0,.12.12Z"/><path class="cls-1" d="M120.18,92.8a4,4,0,0,0,.7,0l.1,0c.1,0,.3.34.3.42a.3.3,0,0,1-.06.14,1.52,1.52,0,0,0-.22.4,13,13,0,0,1-.8,1.51.26.26,0,0,0-.06.17.2.2,0,0,0,.1.18c.25.18.54.37.54.48s-.14.33-.25.33-.08,0-.12-.06L120,96a.29.29,0,0,0-.18-.09c-.13,0-.18.09-.26.18a6.52,6.52,0,0,1-1.8,1.44,6,6,0,0,1-1,.44.49.49,0,0,1-.34-.34c0-.08.11-.1.27-.16a5.72,5.72,0,0,0,2.46-1.62.36.36,0,0,0,.11-.22.24.24,0,0,0-.14-.21,9.77,9.77,0,0,0-1-.56s-.14-.06-.14-.12.14-.32.26-.32a7.35,7.35,0,0,1,1.11.57.54.54,0,0,0,.24.1c.15,0,.2-.12.27-.24a7.58,7.58,0,0,0,.67-1.46c0-.19-.24-.17-.37-.17h-2c-.13,0-.18.1-.26.2a11.81,11.81,0,0,1-1.11,1.36.26.26,0,0,1-.17.07c-.11,0-.35-.13-.35-.24s.06-.1.09-.12a7.77,7.77,0,0,0,2-2.83s.06-.19.13-.19a2.3,2.3,0,0,1,.42.24c.06,0,.09,0,.09.1s-.11.11-.16.13-.09.11-.13.18-.17.3-.26.45a.16.16,0,0,0,0,.1.11.11,0,0,0,.13.11Z"/><path class="cls-1" d="M127.66,94.48l.94,0c.18,0,.2.06.2.26s0,.24-.17.24l-1,0H124l-1,0c-.17,0-.18-.09-.18-.24s0-.26.2-.26l.94,0Z"/></g></g></svg>