<svg xmlns="http://www.w3.org/2000/svg" xmlns:xlink="http://www.w3.org/1999/xlink" viewBox="0 0 359.39 239.62"><defs><style>.cls-1{fill:none;}.cls-2{fill:#393839;}.cls-3{fill:#fff;}.cls-4{clip-path:url(#clip-path);}</style><clipPath id="clip-path"><rect class="cls-1" x="59.09" y="36.12" width="124.52" height="109.78"/></clipPath></defs><title>Asset 1</title><g id="Layer_2" data-name="Layer 2"><g id="レイヤー_1" data-name="レイヤー 1"><rect class="cls-2" x="59.09" y="36.12" width="249.04" height="109.78"/><path class="cls-3" d="M202.89,60.28c.17,0,.24-.07.24-.24v-.23c0-.16-.07-.24-.24-.24h-1.4l-1.15,0c-.18,0-.19-.11-.19-.27s0-.28.19-.28c.38,0,.77,0,1.15,0h1.4c.17,0,.24-.08.24-.24v-.22c0-.17-.07-.24-.24-.24h-2.2l-1.13,0c-.18,0-.2-.1-.2-.27s0-.27.2-.27l1.13,0h3.21a.42.42,0,0,0,.43-.21,8.88,8.88,0,0,0,.57-1s0-.1.09-.1.53.25.53.35-.09.08-.15.08a.2.2,0,0,0-.14.08s-.21.39-.33.58a.31.31,0,0,0,0,.09c0,.1.08.13.16.13h1.12l1.13,0c.19,0,.2.1.2.27s0,.27-.19.27l-1.14,0H203.9c-.16,0-.24.07-.24.24v.22c0,.16.07.24.24.24h1.43c.39,0,.77,0,1.15,0,.19,0,.2.12.2.28s0,.27-.2.27c-.38,0-.76,0-1.15,0H203.9a.21.21,0,0,0-.24.24V60c0,.17.07.24.24.24h2.54l1.16,0c.18,0,.19.1.19.27s0,.27-.19.27l-1.16,0h-3.83a.29.29,0,0,0-.3.15,2.29,2.29,0,0,1-.13.21.14.14,0,0,0,0,.09c0,.1.08.13.16.13h3.5c.36,0,.5.05.5.44,0,.18,0,.36,0,.55v2.34c0,.21,0,.41,0,.62s-.09.23-.28.23-.27,0-.28-.24-.07-.19-.2-.19h-3.49c-.14,0-.19,0-.2.19s0,.24-.28.24-.28,0-.28-.24,0-.4,0-.61V62.52c0-.06,0-.12-.1-.12a.15.15,0,0,0-.09,0c-.26.28-1.59,1.54-1.91,1.54-.14,0-.26-.24-.26-.33s.09-.15.16-.19A8.43,8.43,0,0,0,201.68,61a.14.14,0,0,0,0-.09c0-.1-.09-.13-.16-.13h-1.17l-1.15,0c-.19,0-.2-.1-.2-.27s0-.27.2-.27l1.15,0Zm-.62-3.12c.07.09.22.24.22.36s-.18.24-.3.24-.17-.09-.31-.25a4.4,4.4,0,0,0-.45-.5.31.31,0,0,1-.09-.18.33.33,0,0,1,.29-.26C201.8,56.57,202.11,57,202.27,57.16Zm3.3,5.3a.2.2,0,0,0,.2-.21v-.19a.19.19,0,0,0-.2-.2h-3.51a.2.2,0,0,0-.21.2v.19a.2.2,0,0,0,.21.21Zm-3.51.46a.2.2,0,0,0-.21.2v.21a.2.2,0,0,0,.21.2h3.51a.19.19,0,0,0,.2-.2v-.21a.19.19,0,0,0-.2-.2Zm0,1.08a.2.2,0,0,0-.21.2v.21a.2.2,0,0,0,.21.2h3.51a.19.19,0,0,0,.2-.2v-.21a.19.19,0,0,0-.2-.2Z"/><path class="cls-3" d="M211.24,62.2c0-.2-.08-.28-.28-.28H210c-.19,0-.28.08-.29.27a9.74,9.74,0,0,1-.45,2.52c-.14.41-.23.67-.39.67s-.4-.11-.4-.27a1,1,0,0,1,.12-.26,10.29,10.29,0,0,0,.63-4.08V58.15c0-.25,0-.5,0-.74s0-.41.36-.41h1.81c.31,0,.36.11.36.4s0,.5,0,.75v5.53c0,.24,0,.48,0,.72a1,1,0,0,1-.3.85,1.82,1.82,0,0,1-1.13.24c-.29,0-.41,0-.41-.42,0-.13,0-.18.18-.18l.47,0c.68,0,.64-.23.64-.89Zm-.28-3a.29.29,0,0,0,.28-.28V57.78a.27.27,0,0,0-.28-.27h-.89a.26.26,0,0,0-.28.27V59a.29.29,0,0,0,.28.28Zm-1.17,1.92c0,.19.09.26.27.26h.9c.2,0,.28-.08.28-.28V60c0-.2-.08-.28-.28-.28h-.89c-.2,0-.28.08-.28.28Zm4.71,1s-.06.1-.1.12-.13.1-.16.25a4.69,4.69,0,0,1-1.65,2.76.66.66,0,0,1-.31.16.36.36,0,0,1-.3-.28c0-.08.11-.16.24-.26a4.1,4.1,0,0,0,1.33-1.82,8.29,8.29,0,0,0,.21-1c0-.08,0-.16.14-.16S214.5,62,214.5,62.16Zm-1.14-.36c-.1,0-.12,0-.15.14s0,.1-.26.1-.28,0-.28-.22,0-.35,0-.53V59.87c0-.15,0-.3,0-.45,0-.33.09-.44.43-.44h1.71a.41.41,0,0,0,.43-.2,9.57,9.57,0,0,0,1.14-2s.05-.1.12-.1.53.28.53.39-.1.07-.16.08-.11,0-.14.07a10.27,10.27,0,0,1-1,1.54.16.16,0,0,0,0,.09c0,.09.07.12.14.12h.65c.31,0,.45.08.45.41,0,.16,0,.32,0,.48v1.42c0,.18,0,.35,0,.53s-.07.22-.28.22-.21,0-.25-.1-.08-.13-.18-.14h-.49c-.19,0-.27.08-.27.27V64.4c0,.39.14.41.49.41h.35c.46,0,.47-.11.61-.87,0-.18,0-.25.19-.25s.34,0,.34.2a3,3,0,0,1-.33,1.14c-.2.28-.47.28-.79.28h-.55c-.48,0-.84-.11-.84-.67V62.08c0-.2-.08-.28-.28-.28Zm.51-3.14c-.14,0-.18-.09-.23-.21a7.39,7.39,0,0,0-.66-1.24.32.32,0,0,1-.06-.17c0-.12.19-.23.3-.23s.24.15.59.82a3.3,3.3,0,0,1,.36.8C214.17,58.58,214,58.66,213.87,58.66Zm2.3,2.64a.27.27,0,0,0,.28-.27V59.76a.29.29,0,0,0-.28-.28h-2.68a.29.29,0,0,0-.28.28V61a.26.26,0,0,0,.28.27Z"/><path class="cls-3" d="M223.91,58.63h1.95l1.15,0c.19,0,.2.1.2.27s0,.27-.2.27l-1.15,0H224c-.13,0-.24.06-.24.22v0a14.49,14.49,0,0,0,1.47,4.75c.14.23.48.77.79.77.5,0,.63-1.1.68-1.47,0-.12,0-.27.19-.27s.34.06.34.25a4,4,0,0,1-.17.88c-.16.52-.38,1.14-1,1.14a.83.83,0,0,1-.46-.14,4.55,4.55,0,0,1-1.15-1.63,15.85,15.85,0,0,1-1.2-4.28.27.27,0,0,0-.31-.26H219.8l-1.16,0c-.18,0-.19-.1-.19-.26s0-.28.19-.28l1.16,0h3c.15,0,.25-.06.25-.23v0s-.13-1.51-.13-1.54a.11.11,0,0,1,.12-.12,3.19,3.19,0,0,1,.4,0c.18,0,.32,0,.32.13s-.06.09-.15.13a.15.15,0,0,0-.1.16c0,.27,0,.89.07,1.18S223.71,58.63,223.91,58.63Zm-2.79,5.19c0,.13.05.23.19.23h.08l1.53-.38.21-.05c.14,0,.19.16.19.28s-.13.23-.33.28c-1.09.3-2.49.58-3.61.78-.27,0-.27,0-.33.19s0,.08-.1.08-.1,0-.19-.3a2,2,0,0,1-.1-.32c0-.06,0-.09.14-.1a14.21,14.21,0,0,0,1.54-.25c.2,0,.24-.13.26-.32V61.67a.24.24,0,0,0-.28-.28H220l-1,0c-.18,0-.19-.12-.19-.26s0-.27.19-.27l1,0h1.55l1,0c.19,0,.19.12.19.27s0,.26-.19.26l-1,0h-.18a.24.24,0,0,0-.28.28Zm4.72-5.62c-.11,0-.17-.09-.24-.17-.29-.31-.6-.61-.92-.89,0,0-.14-.12-.14-.2a.35.35,0,0,1,.28-.28c.14,0,.57.44.69.55s.63.59.63.72A.34.34,0,0,1,225.84,58.2Z"/><path class="cls-3" d="M230.79,61.45c.07,0,.16.07.16.16s-.07.09-.12.1-.21,0-.34.2-1.31,1.59-1.6,1.59c-.12,0-.36-.2-.36-.33s.12-.15.2-.21a5.76,5.76,0,0,0,1.43-1.61s.07-.13.14-.13A2.12,2.12,0,0,1,230.79,61.45Zm1.18-2a.27.27,0,0,0,.28-.28V59a9.18,9.18,0,0,0,0-1.29.39.39,0,0,1,0-.11c0-.09.07-.13.15-.13a3.88,3.88,0,0,1,.58.1.12.12,0,0,1,.1.11c0,.06,0,.09-.1.14s-.1.17-.1.39v1a.29.29,0,0,0,.28.28H235l1.19,0c.21,0,.23.09.23.29s0,.3-.22.3L235,60h-1.88a.27.27,0,0,0-.28.28v2.67c0,.2,0,.4,0,.6,0,.5,0,.86-.5,1.11a2.2,2.2,0,0,1-.79.22c-.21,0-.36-.33-.36-.45s.11-.15.21-.15c.7,0,.85-.19.85-.93V60.27A.28.28,0,0,0,232,60h-1.79L229,60c-.2,0-.22-.11-.22-.29s0-.3.22-.3l1.2,0Zm3.95,2.89c.12.12.63.63.63.77s-.24.33-.36.33-.2-.13-.26-.21a8.47,8.47,0,0,0-1.47-1.47c-.06-.05-.17-.13-.17-.22a.44.44,0,0,1,.33-.33A6.67,6.67,0,0,1,235.92,62.33Zm-.11-4.6c.08.08.44.45.44.53a.49.49,0,0,1-.35.33c-.06,0-.1-.06-.14-.1a10,10,0,0,0-.69-.76s-.08-.08-.08-.13a.5.5,0,0,1,.32-.31C235.4,57.29,235.73,57.65,235.81,57.73Zm.94-.59c.08.08.45.45.45.53a.5.5,0,0,1-.36.33c-.06,0-.1-.05-.14-.1a9.68,9.68,0,0,0-.69-.76s-.08-.08-.08-.13a.5.5,0,0,1,.32-.3C236.35,56.71,236.67,57.06,236.75,57.14Z"/><path class="cls-3" d="M240.59,63.44c0,.5,0,1,0,1.49,0,.3,0,.43-.33.43s-.33-.13-.33-.43c0-.5,0-1,0-1.49v-4.8a10.45,10.45,0,0,0,0-1.26,1.25,1.25,0,0,1,0-.19c0-.07,0-.11.1-.11s.71.1.71.23,0,.09-.07.13a4.59,4.59,0,0,0-.07,1.2Zm1.83-2.64c.15.11.79.61.79.76a.43.43,0,0,1-.33.36.29.29,0,0,1-.2-.1,12,12,0,0,0-1.58-1.27c-.08-.05-.18-.1-.18-.21s.17-.36.3-.36A6.44,6.44,0,0,1,242.42,60.81Z"/><path class="cls-3" d="M247.29,58.25c.08,0,.17,0,.17.12s0,.08-.08.13a.39.39,0,0,0-.06.26,18,18,0,0,1-.07,1.95,5.35,5.35,0,0,1-1.78,3.59.17.17,0,0,1-.12.06c-.11,0-.5-.16-.5-.3s.12-.15.2-.21c1.45-1.14,1.7-2.77,1.7-4.49a6,6,0,0,0,0-1s0-.09,0-.12a.1.1,0,0,1,.11-.11A3.92,3.92,0,0,1,247.29,58.25Zm2.3,5c0,.07,0,.19.1.19s.21-.1.28-.15A27.3,27.3,0,0,0,252.74,61s.11-.12.17-.12.3.26.3.38-.15.21-.21.26A36.72,36.72,0,0,1,250,64l-.12.09c-.07.06-.13.13-.23.13a1.52,1.52,0,0,1-.44-.18c-.13-.08-.21-.11-.21-.25s0-.61,0-1.2v-3a9.57,9.57,0,0,0,0-1.31.79.79,0,0,1,0-.15.09.09,0,0,1,.1-.1,3.72,3.72,0,0,1,.56.12c.06,0,.12,0,.12.12s0,.08-.07.12-.07.28-.07.63Z"/><path class="cls-3" d="M257.2,59.18c.29,0,.29-.34.29-.35,0-.27.1-1.33.1-1.6,0-.07,0-.12.09-.12s.58.14.65.16a.13.13,0,0,1,.06.12.14.14,0,0,1-.08.13c-.06,0-.09.05-.11.11a1,1,0,0,0,0,.28c0,.33-.06.66-.1,1V59a.2.2,0,0,0,.19.21l1.5,0h.75l.17,0a.48.48,0,0,1,.37.37c0,.09-.06.65-.07.79a23.42,23.42,0,0,1-.33,2.38,2.79,2.79,0,0,1-.66,1.54,2.42,2.42,0,0,1-1.35.33c-.13,0-.17,0-.27-.16a.62.62,0,0,1-.14-.32c0-.09.06-.13.15-.13l.48,0c.84,0,1.08-.39,1.29-1.67.08-.47.26-1.91.26-2.35,0-.23-.09-.22-.65-.22h-1.56c-.17,0-.25.12-.28.28a8.12,8.12,0,0,1-1.51,3.55c-.18.24-1.15,1.37-1.41,1.37s-.37-.23-.37-.34a.17.17,0,0,1,.1-.14A7.16,7.16,0,0,0,257.07,61a6.44,6.44,0,0,0,.26-1.1.19.19,0,0,0-.19-.19l-1.78,0-.94,0c-.16,0-.2-.09-.2-.31s0-.28.2-.28h2.78Z"/><path class="cls-3" d="M265.84,59.41c.06,0,.21.13.21.21s-.08.11-.13.13-.13,0-.19.17A14.71,14.71,0,0,1,264,62.5c-.19.22-.53.6-.73.79a.31.31,0,0,1-.2.09c-.13,0-.43-.16-.43-.31s0-.08.07-.12a10.56,10.56,0,0,0,2.59-3.53c0-.09.07-.24.16-.24A2.49,2.49,0,0,1,265.84,59.41Zm2.95.1a11.61,11.61,0,0,1,1,1.38,13.07,13.07,0,0,1,1.11,1.92c0,.17-.3.35-.46.35s-.16-.11-.22-.23a12.23,12.23,0,0,0-2-3.09s-.1-.11-.1-.18.25-.31.36-.31S268.72,59.43,268.79,59.51Zm1.26-.65c.07.08.44.45.44.53a.48.48,0,0,1-.36.33c-.06,0-.1-.06-.13-.1a8.19,8.19,0,0,0-.7-.76s-.08-.08-.08-.13.23-.31.33-.31S270,58.78,270,58.86Zm.91-.62c.08.08.45.45.45.53a.5.5,0,0,1-.36.33c-.06,0-.1-.06-.14-.1a8.35,8.35,0,0,0-.69-.76s-.08-.08-.08-.13.22-.3.32-.3S270.88,58.16,271,58.24Z"/><path class="cls-3" d="M278.28,60.71l1.17,0c.23,0,.25.07.25.32s0,.3-.21.3l-1.21,0H273.7l-1.2,0c-.21,0-.22-.11-.22-.3s0-.32.25-.32l1.17,0Z"/><path class="cls-3" d="M199.81,82.41l.6.37a.12.12,0,0,1,.06.08c0,.09-.1.26-.2.26a.24.24,0,0,1-.14-.06c-.3-.21-.62-.4-.94-.58,0,0-.08,0-.08-.09s.09-.24.19-.24A2.87,2.87,0,0,1,199.81,82.41Zm3.69-.55a1.28,1.28,0,0,1-.09.28,5,5,0,0,1-3.3,3.06.31.31,0,0,0-.2.15s0,.08-.1.08-.1-.07-.15-.17a1.69,1.69,0,0,1-.1-.26c0-.05.07-.06.11-.08a6.84,6.84,0,0,0,.78-.26,4.36,4.36,0,0,0,1.64-1.07,4.91,4.91,0,0,0,1.06-1.86c0-.06,0-.13.1-.13S203.5,81.78,203.5,81.86Zm-3-.88c.09.07.57.4.61.45a.09.09,0,0,1,0,.08c0,.07-.1.24-.21.24a.26.26,0,0,1-.14-.08,8.78,8.78,0,0,0-.83-.61s-.09-.05-.09-.1.12-.23.21-.23A1.62,1.62,0,0,1,200.54,81Z"/><path class="cls-3" d="M209.89,82.28c0,.08-.31.38-.39.46A12.59,12.59,0,0,1,208,84a10.35,10.35,0,0,1-1.87,1.07c-.16.07-.16.08-.22.2a.09.09,0,0,1-.08,0c-.06,0-.1-.08-.14-.17a1.36,1.36,0,0,1-.12-.26c0-.05.1-.07.16-.09a8.4,8.4,0,0,0,2.52-1.43A10.93,10.93,0,0,0,209.63,82a.14.14,0,0,1,.1-.07C209.81,82,209.89,82.23,209.89,82.28Zm-4-1.36.63.44c.15.11.31.22.31.29s-.12.25-.22.25-.22-.13-.28-.18c-.22-.17-.45-.35-.69-.51,0,0-.08-.05-.08-.1s.11-.24.21-.24A.25.25,0,0,1,205.91,80.92Z"/><path class="cls-3" d="M215,81.24h.53c.13,0,.29.21.29.24s-.05.08-.1.38A3.82,3.82,0,0,1,214,84.67a6.23,6.23,0,0,1-1.14.6.53.53,0,0,1-.2.06c-.12,0-.21-.17-.21-.24s.05-.09.11-.1a4.29,4.29,0,0,0,2.26-1.61,3.48,3.48,0,0,0,.53-1.54.68.68,0,0,0,0-.11c0-.16-.15-.14-.34-.14h-2.45l-.77,0c-.13,0-.14-.08-.14-.19s0-.19.14-.19H215Zm1.82-.58a.6.6,0,1,1-.6-.6A.6.6,0,0,1,216.84,80.66Zm-1,0a.36.36,0,0,0,.35.35.35.35,0,0,0,.35-.35.34.34,0,0,0-.35-.35A.35.35,0,0,0,215.88,80.66Z"/><path class="cls-3" d="M219.24,81.17c.05,0,.11,0,.11.08s0,.05-.05.08a.25.25,0,0,0,0,.17,11.6,11.6,0,0,1,0,1.25,3.44,3.44,0,0,1-1.14,2.31.11.11,0,0,1-.08,0c-.07,0-.32-.1-.32-.19s.08-.1.13-.13a3.35,3.35,0,0,0,1.09-2.88,3.82,3.82,0,0,0,0-.61s0-.06,0-.08a.06.06,0,0,1,.07-.07A2.49,2.49,0,0,1,219.24,81.17Zm1.48,3.21s0,.12.06.12.13-.06.18-.1a17.56,17.56,0,0,0,1.78-1.46s.07-.08.11-.08.19.17.19.24-.1.13-.14.17A23.34,23.34,0,0,1,221,84.84l-.08.06s-.08.08-.15.08a1,1,0,0,1-.28-.12c-.08-.05-.14-.07-.14-.16s0-.39,0-.77V82a6,6,0,0,0,0-.84.54.54,0,0,1,0-.1.06.06,0,0,1,.06-.06,2.37,2.37,0,0,1,.36.08s.08,0,.08.08,0,.05,0,.08,0,.18,0,.4Z"/><path class="cls-3" d="M224.52,81.42c.71,0,3.62-.34,4.28-.46h.1c.1,0,.1.2.1.3s-.06.13-.22.13a4.47,4.47,0,0,0-1.12.12,2,2,0,0,0-1.19,1,2.78,2.78,0,0,0-.4,1.37,1,1,0,0,0,.56,1,1.92,1.92,0,0,0,.83.13h.16c.05,0,.14,0,.14.07a.84.84,0,0,1-.08.28c0,.06-.05.06-.12.06a3.07,3.07,0,0,1-.87-.13,1.31,1.31,0,0,1-1-1.36,3.09,3.09,0,0,1,1-2.25s0,0,0-.05,0,0-.08,0c-.29,0-1.91.24-2.24.32h-.1c-.12,0-.15-.34-.15-.36S224.27,81.43,224.52,81.42Zm4,.83a1.79,1.79,0,0,1,.27.35c0,.07-.15.21-.23.21s-.06,0-.09-.07a6.51,6.51,0,0,0-.42-.51s-.05-.05-.05-.08.15-.19.22-.19S228.45,82.19,228.51,82.25Zm.71-.32a1.83,1.83,0,0,1,.27.35c0,.07-.15.21-.24.21s-.06,0-.08-.07-.28-.35-.42-.51-.05-.05-.05-.08.15-.19.21-.19S229.16,81.87,229.21,81.93Z"/><path class="cls-3" d="M231.72,82.1c.08.06.35.23.35.33a.22.22,0,0,1-.18.19c-.06,0-.1,0-.17-.1-.23-.18-.47-.34-.71-.5-.06,0-.12-.07-.12-.13a.23.23,0,0,1,.17-.19A3.46,3.46,0,0,1,231.72,82.1Zm.6,1.55a14.53,14.53,0,0,1-1,1.68.33.33,0,0,0-.07.15s0,.08,0,.12,0,.07-.06.07-.34-.2-.34-.26a.33.33,0,0,1,.07-.13,14.3,14.3,0,0,0,1.09-1.88s0-.08.08-.08.23.09.23.19A.43.43,0,0,1,232.32,83.65Zm-.12-2.47c-.06,0-.09,0-.17-.1-.24-.18-.48-.35-.73-.51-.07,0-.12-.07-.12-.13s.1-.19.16-.19a2.14,2.14,0,0,1,.51.3c.1.07.37.26.46.33a.15.15,0,0,1,.06.11A.21.21,0,0,1,232.19,81.17Zm1.71,2.34a2.52,2.52,0,0,1-.87,1.89,2,2,0,0,1-.76.35c-.11,0-.21-.16-.21-.23s.08-.08.18-.12a1.9,1.9,0,0,0,1.32-1.8c0-.11,0-.19,0-.25s0-.14.09-.14.4,0,.4.11-.06.07-.09.09A.11.11,0,0,0,233.9,83.52Zm1.16-.33c-.12,0-.18.05-.18.18v1.75c0,.26.08.28.32.28h.51c.31,0,.35-.08.44-.75,0-.15.05-.17.12-.17s.22,0,.22.13a3,3,0,0,1-.23.91c-.13.2-.3.2-.52.2h-.64c-.31,0-.56-.08-.56-.44,0-.11,0-.22,0-.33V83.36c0-.13-.06-.18-.18-.18h-1.84c-.12,0-.12-.07-.12-.17s0-.17.12-.17h1.59c.12,0,.18-.05.18-.17v-.8c0-.13-.06-.18-.18-.18h-.83a.23.23,0,0,0-.24.15c-.07.14-.15.3-.23.43s-.09.14-.17.14-.21-.06-.21-.13a2.14,2.14,0,0,1,.18-.33,5.77,5.77,0,0,0,.58-1.43c0-.09,0-.19.1-.19s.39.09.39.17,0,.06-.08.07-.1.07-.14.2-.07.23-.16.46a.14.14,0,0,0,0,.05c0,.08.06.1.12.1h.69c.12,0,.18-.05.18-.18V81c0-.24,0-.49,0-.71,0,0,0,0,0-.06s0-.08.1-.08h.18c.14,0,.26,0,.26.09s0,.06-.09.09-.08.18-.08.67v.19c0,.13.06.18.18.18h1.31c.12,0,.13.05.13.17s0,.17-.13.17h-1.31c-.12,0-.18.05-.18.18v.8c0,.12.06.17.18.17h1.58c.12,0,.12.08.12.17s0,.17-.12.17h-1.34Z"/><path class="cls-3" d="M238.72,83.9c-.06,0-.08,0-.09.1a11,11,0,0,1-.37,1.36c0,.07-.06.12-.14.12s-.22,0-.22-.12a.26.26,0,0,1,0-.06,6.88,6.88,0,0,0,.39-1.51c0-.05,0-.1.08-.1s.38.07.38.14S238.75,83.88,238.72,83.9Zm.57-.48v1.45c0,.24,0,.48,0,.72s0,.26-.19.26-.19-.1-.19-.25,0-.48,0-.73v-1.4c0-.12-.05-.17-.17-.17l-.55.05a.1.1,0,0,0-.07.05s0,.08-.08.08-.08-.07-.1-.16a1.83,1.83,0,0,1-.06-.24s0-.06.13-.06h.32a.26.26,0,0,0,.24-.15l.21-.34a.3.3,0,0,0,0-.12.21.21,0,0,0-.06-.14,8.83,8.83,0,0,0-.75-.72.18.18,0,0,1-.07-.12.2.2,0,0,1,.18-.17c.06,0,.17.1.22.15a.12.12,0,0,0,.09,0,.13.13,0,0,0,.1-.06,10.14,10.14,0,0,0,.62-1.06s0-.06.08-.06.15.08.19.11.15.1.15.15-.05.05-.11.06a.1.1,0,0,0-.09,0,6.54,6.54,0,0,1-.63,1,.15.15,0,0,0,0,.09.16.16,0,0,0,0,.1l.19.19a.12.12,0,0,0,.1,0,.13.13,0,0,0,.11-.07c.17-.29.34-.6.51-.91,0,0,0-.07.08-.07a.52.52,0,0,1,.19.1s.16.09.16.14,0,.05-.08.05a.16.16,0,0,0-.12.06,17.37,17.37,0,0,1-.94,1.52.09.09,0,0,0,0,.05c0,.06,0,.08.1.08l.57-.07c.05,0,.1,0,.1-.1a.15.15,0,0,0,0-.05,1.07,1.07,0,0,1-.12-.25c0-.09.12-.16.19-.16s.18.17.35.55a1.76,1.76,0,0,1,.15.41c0,.08-.1.14-.18.14s-.13-.07-.16-.15a.14.14,0,0,0-.16-.1l-.34.05C239.34,83.24,239.3,83.29,239.29,83.42Zm.75,1.5c-.09,0-.13-.06-.15-.14a5.8,5.8,0,0,0-.3-.82.24.24,0,0,1,0-.11c0-.07.12-.14.2-.14s.15.13.3.53a3.82,3.82,0,0,1,.16.53C240.23,84.87,240.13,84.91,240,84.91Zm1.33-1.2c0-.06-.05-.08-.1-.08h-.42c-.06,0-.07,0-.1.08s0,.07-.15.07-.17,0-.17-.14,0-.23,0-.34v-1c0-.1,0-.19,0-.29s.06-.29.28-.29h.81c.11,0,.16,0,.16-.15v-.21c0-.11-.05-.15-.16-.15h-1.24c-.12,0-.12-.07-.12-.17s0-.17.12-.17h1.22c.12,0,.17-.05.18-.17a2.24,2.24,0,0,0,0-.41s0,0,0-.06,0-.08.1-.08l.27,0c.05,0,.15,0,.15.08s0,.06-.09.1-.08.14-.08.37.06.17.18.17h1.34c.12,0,.12.07.12.17s0,.17-.12.17h-1.37c-.1,0-.15,0-.15.15v.21c0,.11,0,.15.15.15H243c.2,0,.28.06.28.27v1.32c0,.11,0,.22,0,.34s0,.14-.17.14-.13,0-.15-.06-.05-.09-.12-.09h-.51c-.05,0-.1,0-.1.08a.19.19,0,0,0,0,.06,8.69,8.69,0,0,0,1.28,1.42c.07.06.11.09.11.14a.24.24,0,0,1-.19.19c-.1,0-.43-.34-.51-.42a6.94,6.94,0,0,1-.87-1.15.06.06,0,0,0,0,0s0,0,0,.06v.73c0,.29,0,.58,0,.88,0,.13,0,.25-.17.25s-.18-.1-.18-.24c0-.3,0-.59,0-.89v-.78s0-.06-.05-.06,0,0,0,0a7.09,7.09,0,0,1-1.25,1.48c-.06.05-.2.18-.27.18a.23.23,0,0,1-.19-.19c0-.06.1-.14.15-.18a7.07,7.07,0,0,0,1.33-1.41A.12.12,0,0,0,241.37,83.71Zm.31-1.52a.15.15,0,0,0-.16-.15h-.6a.14.14,0,0,0-.15.15v.17a.14.14,0,0,0,.15.15h.6a.15.15,0,0,0,.16-.15Zm-.76.63a.14.14,0,0,0-.15.15v.2a.14.14,0,0,0,.15.15h.6a.15.15,0,0,0,.16-.15V83a.15.15,0,0,0-.16-.15Zm1.91-.3a.15.15,0,0,0,.15-.15V82.2a.14.14,0,0,0-.15-.15h-.67a.15.15,0,0,0-.15.15v.17a.15.15,0,0,0,.15.15Zm-.83.66a.15.15,0,0,0,.15.15h.67a.14.14,0,0,0,.15-.15V83a.14.14,0,0,0-.15-.15h-.67A.15.15,0,0,0,242,83Z"/><path class="cls-3" d="M247.08,80.56l.44.85a.17.17,0,0,0,.15.1,2.89,2.89,0,0,0,.84-.4.47.47,0,0,1,.17-.09c.08,0,.21.19.21.26s-.83.47-1,.52-.1,0-.1.11a.86.86,0,0,0,.11.23,8.77,8.77,0,0,0,1,1.57.22.22,0,0,1,.09.17.33.33,0,0,1-.26.26c-.08,0-.21-.1-.27-.15a3.13,3.13,0,0,0-1.57-.53.79.79,0,0,0-.87.75c0,.8,1,1,1.66,1h.33c.06,0,.09,0,.09.08,0,.34-.21.3-.25.3-.83,0-2.18-.25-2.18-1.32a1.13,1.13,0,0,1,1.24-1.1,2.72,2.72,0,0,1,1.24.35.23.23,0,0,0,.09,0,0,0,0,0,0,0,0,.26.26,0,0,0-.06-.11c-.24-.35-.55-.89-.76-1.27a.18.18,0,0,0-.17-.12l-.08,0a8.85,8.85,0,0,1-1.62.26c-.17,0-.22-.29-.22-.31s0-.07.31-.07a6.62,6.62,0,0,0,1.34-.18c.06,0,.12,0,.12-.11a3.12,3.12,0,0,0-.28-.53,3.2,3.2,0,0,0-.26-.4.17.17,0,0,1-.06-.1c0-.08.3-.11.34-.11S247.05,80.5,247.08,80.56Z"/><path class="cls-3" d="M252.9,80.51c0,.05-.05.1-.08.13a4.12,4.12,0,0,0-.15.89.07.07,0,0,0,.06.07h.1c.08,0,.21.21.21.26s-.07.1-.11.17-.27.46-.32.55a.39.39,0,0,0,0,.21s0,.1.06.1,0,0,.06,0,.3-.3.39-.39c.37-.35.93-.94,1.46-.94a.54.54,0,0,1,.44.23,1.11,1.11,0,0,1,.08.51c0,.66-.08,1.32-.08,2,0,.26,0,.54.19.54a1.36,1.36,0,0,0,.73-.45.12.12,0,0,1,.08-.06c.09,0,.15.25.15.33s-.18.19-.24.24a1.48,1.48,0,0,1-.79.33c-.43,0-.48-.41-.48-.74,0-.66.07-1.32.07-2,0-.19,0-.53-.26-.53s-.65.32-.86.51a9,9,0,0,0-.9.88c-.1.1-.13.12-.13.26q0,.57,0,1.14c0,.23,0,.47,0,.7,0,.07,0,.12-.22.12s-.18,0-.18-.13c0-.49,0-1,0-1.49,0,0,0-.06,0-.06s-.18.22-.21.26c-.14.22-.42.69-.55.92,0,0,0,0-.06,0s-.26-.16-.26-.25a.24.24,0,0,1,.06-.12,11.23,11.23,0,0,0,1.05-1.8.3.3,0,0,0,0-.15c0-.16,0-.39,0-.54a.07.07,0,0,0-.08-.07h0a8.46,8.46,0,0,1-1,.34c-.13,0-.19-.3-.19-.34s.09-.08.15-.08a5.65,5.65,0,0,0,1-.24c.22-.06.19-.13.21-.33s0-.64,0-.85a1.08,1.08,0,0,0,0-.15v-.06s0-.08.06-.08S252.9,80.41,252.9,80.51Z"/><path class="cls-3" d="M260.17,80.53s-.05.07-.1.1a.2.2,0,0,0-.09.13c-.08.24-.13.48-.2.71a.38.38,0,0,0,0,.11.07.07,0,0,0,.07.06,6.7,6.7,0,0,0,1-.31.25.25,0,0,1,.1,0c.08,0,.07.09.07.15,0,.22,0,.24-.12.27a10.7,10.7,0,0,1-1.12.26c-.15,0-.17.08-.21.22a22,22,0,0,1-1.21,2.93c-.07.13-.12.24-.21.24s-.28-.11-.28-.21.06-.12.09-.15a15.18,15.18,0,0,0,1.26-2.82.15.15,0,0,0,0-.05.07.07,0,0,0-.07-.07c-.06,0-.48,0-.75,0s-.32,0-.32-.29a.08.08,0,0,1,.08-.09s.29,0,.55,0l.48,0a.22.22,0,0,0,.16-.06,5.12,5.12,0,0,0,.3-1.23c0-.06,0-.15.08-.15S260.17,80.43,260.17,80.53ZM260,84.7a1.58,1.58,0,0,0,1.19.35,2.52,2.52,0,0,0,.85-.12h.05c.1,0,.1.17.1.24s0,.15-.08.18a4.52,4.52,0,0,1-.85.07,2.75,2.75,0,0,1-1.29-.24c-.09-.05-.31-.2-.31-.31s.15-.26.22-.26S260,84.67,260,84.7Zm.9-2.22a3.6,3.6,0,0,1,1.08.16c.06,0,.08,0,.08.11s0,.26-.14.26l-.11,0a2.76,2.76,0,0,0-.92-.14h-.26c-.11,0-.13,0-.13-.15S260.56,82.48,260.92,82.48Z"/><path class="cls-3" d="M268.28,82.57H269c.13,0,.14.05.14.18s0,.2-.15.2h-1.77c-.17,0-.17.17-.19.28a3.44,3.44,0,0,1-.42,1.25,2.49,2.49,0,0,1-.94.86,3.08,3.08,0,0,1-.67.28c-.09,0-.26-.19-.26-.26s.09-.09.15-.11a3.28,3.28,0,0,0,.86-.37,2.26,2.26,0,0,0,.86-1.34,2.43,2.43,0,0,0,.06-.43.16.16,0,0,0-.15-.15h-2.31c-.13,0-.13-.08-.13-.19s0-.19.14-.19h4Zm-1-1.74.76,0c.13,0,.15.05.15.19s0,.19-.14.19h-2.93c-.12,0-.14-.06-.14-.19s0-.19.15-.19l.76,0Zm1.78.19a1.79,1.79,0,0,1,.27.35c0,.08-.15.21-.23.21s-.06,0-.09-.07-.28-.34-.42-.5-.05-.06-.05-.08.15-.19.21-.19S269,81,269.07,81Zm.49-.53a2.24,2.24,0,0,1,.28.37c0,.07-.15.21-.23.21s-.06,0-.09-.07a6.05,6.05,0,0,0-.42-.5s-.05-.05-.05-.08.15-.19.22-.19S269.52,80.44,269.56,80.49Z"/><path class="cls-3" d="M272,82.09a.18.18,0,0,0,.2-.18V81.3c0-.19,0-.3,0-.49,0,0,0-.06,0-.08s0-.06.08-.06.44,0,.44.12,0,.08-.07.1-.05.31-.05.41v.62a.18.18,0,0,0,.18.18h1.51a.18.18,0,0,0,.19-.2v-.17a8.21,8.21,0,0,0,0-1,.26.26,0,0,1,0-.08s0-.06.07-.06l.29,0c.05,0,.14,0,.14.08s0,0-.05.08a2.43,2.43,0,0,0-.05.7c0,.12,0,.24,0,.35v0c0,.15.08.22.18.22h1c.13,0,.14.06.14.19s0,.19-.14.19h-1c-.2,0-.19.22-.19.27a3.93,3.93,0,0,1-.37,1.91,2.67,2.67,0,0,1-1.21,1l-.08,0c-.07,0-.26-.15-.26-.23s.08-.09.16-.12c1.29-.57,1.4-1.32,1.4-2.61,0-.12-.06-.21-.18-.21h-1.5a.18.18,0,0,0-.18.18v.91c0,.08,0,.37,0,.41s-.06.17-.2.17-.19-.06-.19-.19,0-.26,0-.39v-.91a.18.18,0,0,0-.18-.18h-1c-.13,0-.14-.08-.14-.19s0-.19.14-.19h1Zm3.48-1.39c.06,0,.27.23.32.28s.28.29.28.34a.31.31,0,0,1-.23.21s-.06,0-.08-.06a5.62,5.62,0,0,0-.45-.49s-.05-.05-.05-.08A.31.31,0,0,1,275.47,80.7Zm.55-.48c.06,0,.27.22.32.28s.28.29.28.34a.31.31,0,0,1-.23.21s-.06,0-.08-.06a6.39,6.39,0,0,0-.45-.49s-.05-.05-.05-.08A.32.32,0,0,1,276,80.23Z"/><path class="cls-3" d="M280.26,84.75c0,.27,0,.53,0,.8s-.06.17-.23.17-.18,0-.18-.17,0-.53,0-.8V82.61c0-.05,0-.16-.09-.16a.28.28,0,0,0-.15.08,10,10,0,0,1-1.44.92,1.46,1.46,0,0,1-.31.14c-.08,0-.22-.16-.22-.23s.06-.1.12-.12a8.37,8.37,0,0,0,3.29-2.75s0-.06.08-.06a1.12,1.12,0,0,1,.27.15s.12.07.12.12-.05.06-.09.08-.1,0-.15.12a8.3,8.3,0,0,1-.94,1c-.07.07-.11.1-.11.21Z"/><path class="cls-3" d="M288.39,82.28c0,.08-.31.38-.39.46A12.6,12.6,0,0,1,286.48,84a10.36,10.36,0,0,1-1.87,1.07c-.16.07-.16.08-.22.2a.09.09,0,0,1-.08,0c-.06,0-.1-.08-.14-.17a1.36,1.36,0,0,1-.12-.26c0-.05.1-.07.16-.09a8.4,8.4,0,0,0,2.52-1.43A10.93,10.93,0,0,0,288.12,82a.14.14,0,0,1,.1-.07C288.31,82,288.39,82.23,288.39,82.28Zm-4-1.36.63.44c.15.11.31.22.31.29s-.12.25-.22.25-.22-.13-.28-.18c-.22-.17-.45-.35-.69-.51,0,0-.08-.05-.08-.1s.11-.24.21-.24A.25.25,0,0,1,284.41,80.92Z"/><path class="cls-3" d="M292.45,80.58s-.05.06-.08.08-.15.13-.25.31a.81.81,0,0,0-.09.19.07.07,0,0,0,.07.06,6.84,6.84,0,0,0,1.08-.25h.06c.12,0,.13.27.13.28s-.17.12-.26.14c-.41.09-.82.15-1.24.21-.19,0-.17.06-.39.4a2.41,2.41,0,0,0-.24.42.06.06,0,0,0,.06.06.34.34,0,0,0,.13,0,2,2,0,0,1,.93-.28.68.68,0,0,1,.55.24.89.89,0,0,1,.13.46c0,.06,0,.15.09.15a7.28,7.28,0,0,0,.85-.41.56.56,0,0,1,.17-.06c.09,0,.16.21.16.29s-.1.1-.29.17-.55.22-.82.33c-.1,0-.15.08-.15.21s0,.54,0,.81,0,.2-.19.2-.17,0-.17-.14,0-.43,0-.64,0-.14-.1-.14a1.92,1.92,0,0,0-.41.21c-.28.16-.62.39-.62.75,0,.55.7.63,1.11.63a4.6,4.6,0,0,0,1.18-.14l.1,0c.1,0,.1.12.1.19s0,.2-.08.22a9.19,9.19,0,0,1-1.22.09,2.42,2.42,0,0,1-.91-.13.88.88,0,0,1-.62-.82c0-.55.48-.83.9-1.07l.45-.24a.19.19,0,0,0,.13-.16c0-.31,0-.66-.43-.66a2.46,2.46,0,0,0-1.24.48,3.92,3.92,0,0,0-.69.83s-.06.1-.12.1-.26-.13-.26-.22,0-.06.05-.08a14.34,14.34,0,0,0,1.21-1.73.2.2,0,0,0,0-.1c0-.05-.05-.05-.09-.05l-.76,0c-.06,0-.1,0-.1-.19s0-.18.11-.18h.48c.68,0,.63,0,.73-.22a4,4,0,0,0,.3-.69c0-.07,0-.12.08-.12A1.15,1.15,0,0,1,292.45,80.58Z"/><path class="cls-3" d="M200.57,93.77a.16.16,0,0,0,.13-.16.22.22,0,0,0,0-.06l0-.13a5.45,5.45,0,0,0-.17-.75.28.28,0,0,1,0-.07c0-.08.09-.08.41-.08,0,0,.14,0,.14.07s-.08.1-.08.21.06.44.08.55l0,.18a.19.19,0,0,0,.21.15l.67-.1.8-.13c.12,0,.13.17.13.26s-.05.12-.29.15l-.6.07-.66.09a.16.16,0,0,0-.13.19l.2,1.07a.19.19,0,0,0,.21.14l1.23-.18.8-.13c.12,0,.13.17.13.26s-.05.11-.4.15l-.48.06-1.23.18a.16.16,0,0,0-.13.19l.12.62c0,.16.2.91.2,1s-.16.16-.26.16-.14-.13-.17-.3-.09-.56-.13-.78l-.12-.63a.19.19,0,0,0-.21-.14l-1.29.19-.8.13c-.12,0-.14-.16-.14-.26s.06-.11.33-.14l.55-.07,1.28-.19a.15.15,0,0,0,.14-.19l-.21-1.07a.18.18,0,0,0-.21-.15l-.72.1-.81.13c-.12,0-.13-.17-.13-.26s.1-.12.41-.15l.48-.06Z"/><path class="cls-3" d="M209.26,94.8H210c.15,0,.16,0,.16.21s0,.19-.14.19h-4.49c-.13,0-.14-.07-.14-.19s0-.21.16-.21h3.69Z"/><path class="cls-3" d="M215,93.29h.53c.13,0,.29.21.29.24s-.05.08-.1.38a3.82,3.82,0,0,1-1.73,2.82,6.3,6.3,0,0,1-1.14.6.55.55,0,0,1-.2.06c-.12,0-.21-.17-.21-.24s.05-.09.11-.1a4.29,4.29,0,0,0,2.26-1.61,3.48,3.48,0,0,0,.53-1.54.68.68,0,0,0,0-.11c0-.16-.15-.14-.34-.14h-2.45l-.77,0c-.13,0-.14-.08-.14-.19s0-.19.14-.19H215Zm1.82-.58a.6.6,0,1,1-.6-.6A.6.6,0,0,1,216.78,92.71Zm-1,0a.36.36,0,0,0,.35.35.35.35,0,0,0,.35-.35.34.34,0,0,0-.35-.35A.35.35,0,0,0,215.82,92.71Z"/><path class="cls-3" d="M220.28,92.42c.14,0,.38,0,.38.09s-.12.05-.12.36v.53a.16.16,0,0,0,.15.17l.29,0c.31,0,1.25-.06,1.51-.06.11,0,.12.06.12.19s-.06.2-.16.2h-.61c-.19,0-1,0-1.15,0s-.15.1-.15.21c0,.61,0,.62.08.75a2,2,0,0,1,.18.86,2.72,2.72,0,0,1-.87,2.07s-.33-.07-.33-.13.1-.12.12-.14a2.53,2.53,0,0,0,.6-1,0,0,0,0,0,0,0,.2.2,0,0,0-.1,0,.58.58,0,0,1-.27.07c-.5,0-.68-.54-.68-1s.22-1.11.82-1.11h.06a.08.08,0,0,0,.08-.08c0-.35,0-.51-.17-.51l-.48,0c-.49,0-1,.06-1.48.13H218c-.08,0-.16,0-.16-.28s.06-.13.24-.13c.62,0,1.24-.07,1.86-.1.13,0,.24,0,.24-.19a6.16,6.16,0,0,0-.08-.91v0a.06.06,0,0,1,.06-.06Zm-.73,3.2c0,.28.08.64.43.64s.46-.34.46-.63-.1-.71-.44-.71S219.55,95.35,219.55,95.62Z"/><path class="cls-3" d="M227.43,93.23s-.06.08-.1.1a8.69,8.69,0,0,0-1.16,1.13s-.11.11-.11.15a0,0,0,0,0,0,0l.13,0a2.44,2.44,0,0,1,.53-.06,1.38,1.38,0,0,1,1.55,1.3,1.74,1.74,0,0,1-1.9,1.61,1.44,1.44,0,0,1-.86-.24.63.63,0,0,1,.37-1.16c.4,0,.89.31.89.74a.87.87,0,0,1-.07.27.06.06,0,0,0,.06.05,1.38,1.38,0,0,0,1.13-1.26c0-.71-.62-1-1.25-1a2,2,0,0,0-1.33.47,10.61,10.61,0,0,0-.82.87s-.06.08-.1.08-.25-.18-.25-.25.13-.17.25-.28c.83-.73,1.53-1.59,2.29-2.38a.14.14,0,0,0,.06-.11.06.06,0,0,0-.07-.06l-.16,0c-.48.1-.94.18-1.42.29l-.15,0c-.13,0-.13-.2-.13-.3s.05-.17.18-.17h.17a6,6,0,0,0,1.55-.23.68.68,0,0,1,.2,0A.63.63,0,0,1,227.43,93.23ZM226,96.36a.35.35,0,0,0-.36.35c0,.29.42.44.66.44s.19-.19.19-.31A.48.48,0,0,0,226,96.36Z"/><path class="cls-3" d="M232.49,92.58s-.05.07-.1.1a.2.2,0,0,0-.09.13c-.08.24-.13.48-.2.71a.38.38,0,0,0,0,.11.07.07,0,0,0,.07.06,6.7,6.7,0,0,0,1-.31.25.25,0,0,1,.1,0c.08,0,.07.09.07.15,0,.22,0,.24-.12.27a10.73,10.73,0,0,1-1.12.26c-.15,0-.17.08-.21.22a21.94,21.94,0,0,1-1.21,2.93c-.07.13-.12.24-.21.24s-.28-.11-.28-.21.06-.12.09-.15a15.18,15.18,0,0,0,1.26-2.82.15.15,0,0,0,0-.05.07.07,0,0,0-.07-.07c-.06,0-.48,0-.75,0s-.32,0-.32-.29a.08.08,0,0,1,.08-.09s.3,0,.55,0l.48,0a.22.22,0,0,0,.16-.06,5.12,5.12,0,0,0,.3-1.23c0-.06,0-.15.08-.15S232.49,92.48,232.49,92.58Zm-.15,4.17a1.58,1.58,0,0,0,1.19.35,2.52,2.52,0,0,0,.85-.12h.05c.1,0,.1.17.1.24s0,.15-.08.18a4.52,4.52,0,0,1-.85.07,2.75,2.75,0,0,1-1.29-.24c-.09-.05-.31-.2-.31-.31s.15-.26.22-.26S232.31,96.72,232.33,96.75Zm.9-2.22a3.6,3.6,0,0,1,1.09.16c.06,0,.08,0,.08.11s0,.26-.14.26l-.11,0a2.76,2.76,0,0,0-.92-.14H233c-.11,0-.13,0-.13-.15S232.88,94.54,233.23,94.54Z"/><path class="cls-3" d="M239.28,92.7c.05,0,.13,0,.13.11s0,.06-.05.1a1.11,1.11,0,0,0-.11.51s0,0,0,0,.1.13.16.14a2.16,2.16,0,0,1,.68.24,1.58,1.58,0,0,1,.91,1.47,2.24,2.24,0,0,1-1.37,2,2.87,2.87,0,0,1-.53.23c-.08,0-.28-.22-.28-.28s.06-.07.15-.1a2.07,2.07,0,0,0,1.64-1.83A1.41,1.41,0,0,0,239.4,94l-.13,0c-.12,0-.13.12-.14.2a4.81,4.81,0,0,1-.82,2A1.85,1.85,0,0,1,237,97c-.5,0-.66-.56-.66-1a2.4,2.4,0,0,1,.66-1.64.19.19,0,0,0,.07-.14.47.47,0,0,0,0-.13c-.1-.3-.17-.59-.26-.89a.14.14,0,0,1,0-.06c0-.12.28-.15.31-.15s.1.07.1.12.13.62.17.72,0,.12.11.12a.27.27,0,0,0,.12-.05,2.83,2.83,0,0,1,1.13-.38c.21,0,.24,0,.24-.55,0-.12,0-.22,0-.34s0-.09.06-.09A1.8,1.8,0,0,1,239.28,92.7Zm-2.62,3.36c0,.22,0,.62.34.62s.82-.34.82-.53a.22.22,0,0,0,0-.1c-.15-.27-.45-.94-.56-1.23,0,0,0-.06-.07-.06A1.75,1.75,0,0,0,236.65,96.06Zm.83-1.59a8.79,8.79,0,0,0,.4,1c.08.18.14.33.2.33s.32-.5.36-.59a4.7,4.7,0,0,0,.34-1.16s0,0,0-.06a.1.1,0,0,0-.1-.1C238.35,93.9,237.48,94.25,237.48,94.47Z"/><path class="cls-3" d="M244.32,97.27c0,.07-.16.28-.26.28s-.09,0-.12-.08a3.36,3.36,0,0,0-1-.84s-.1-.06-.1-.12a.37.37,0,0,1,.24-.25A3.56,3.56,0,0,1,244.32,97.27Z"/><path class="cls-3" d="M248.6,93.68a.17.17,0,0,0,.18-.18v-.31a3.77,3.77,0,0,0,0-.6.4.4,0,0,1,0-.08s0-.06.08-.06.47,0,.47.12,0,.08-.07.1-.06.19-.06.52v.31a.17.17,0,0,0,.17.18h1.54c.12,0,.28.19.28.26a2.76,2.76,0,0,0-.09.37,5.09,5.09,0,0,1-.5,1.61,4.09,4.09,0,0,1-1.38,1.45,2.84,2.84,0,0,1-.69.4.28.28,0,0,1-.22-.23c0-.07.09-.1.15-.13a4,4,0,0,0,2-2,3.76,3.76,0,0,0,.27-1.14c0-.21-.15-.19-.33-.19h-2.87a.18.18,0,0,0-.18.18V95c0,.17,0,.35,0,.43s-.05.14-.21.14-.18,0-.18-.15,0-.28,0-.42V93.88c0-.17,0-.21.28-.21Z"/><path class="cls-3" d="M254,94.84l1.2,0a.18.18,0,0,0,.18-.18v-.21a5.16,5.16,0,0,0,0-.63.25.25,0,0,1,0-.07.08.08,0,0,1,.08-.08,1.13,1.13,0,0,1,.24,0c.06,0,.13,0,.13.11s0,.06-.06.09,0,.08,0,.18,0,.24,0,.35v.21a.18.18,0,0,0,.18.18h.32l.6,0c.12,0,.13.08.13.18s0,.17-.15.17h-.89a.18.18,0,0,0-.18.19l0,1.25v.2c0,.53-.12.77-.85.77-.16,0-.18-.2-.18-.24s.09-.1.15-.1c.55,0,.55-.06.53-.58l0-1.11s0-.08-.06-.08-.08,0-.11.09A6.77,6.77,0,0,1,253.6,97a.38.38,0,0,1-.16.08c-.08,0-.19-.14-.19-.21s.06-.1.1-.12a5.66,5.66,0,0,0,1.6-1.43.13.13,0,0,0,0-.08.07.07,0,0,0-.08-.06H254l-.6,0c-.12,0-.13-.08-.13-.18s0-.17.17-.17Z"/><path class="cls-3" d="M262.82,94.8h.75c.15,0,.16,0,.16.21s0,.19-.14.19h-4.49c-.13,0-.14-.07-.14-.19s0-.21.16-.21h3.69Z"/><path class="cls-3" d="M268.84,93.46a3.29,3.29,0,0,0,.56,0h.08c.08,0,.24.27.24.33a.24.24,0,0,1-.05.11,1.21,1.21,0,0,0-.18.32,10.34,10.34,0,0,1-.64,1.21.21.21,0,0,0-.05.14.16.16,0,0,0,.08.14c.2.14.43.3.43.39s-.12.26-.2.26-.06,0-.1-.05l-.31-.24c-.05,0-.08-.07-.15-.07s-.15.07-.21.15a5.27,5.27,0,0,1-1.45,1.16,4.8,4.8,0,0,1-.78.35.39.39,0,0,1-.27-.28c0-.06.09-.08.22-.13a4.58,4.58,0,0,0,2-1.3.29.29,0,0,0,.09-.18.19.19,0,0,0-.11-.17,7.67,7.67,0,0,0-.82-.45s-.11-.05-.11-.1.12-.26.21-.26a5.91,5.91,0,0,1,.89.46.44.44,0,0,0,.19.08c.12,0,.16-.1.22-.19a6,6,0,0,0,.54-1.17c0-.15-.19-.13-.3-.13h-1.64c-.1,0-.15.08-.21.16a9.42,9.42,0,0,1-.89,1.09.21.21,0,0,1-.13.06c-.09,0-.28-.1-.28-.19s0-.08.07-.1a6.25,6.25,0,0,0,1.62-2.27s0-.15.1-.15a1.84,1.84,0,0,1,.34.19s.07,0,.07.08-.09.09-.13.1-.07.09-.1.15l-.21.36a.13.13,0,0,0,0,.08.09.09,0,0,0,.1.09Z"/><path class="cls-3" d="M275.29,94.8H276c.15,0,.16,0,.16.21s0,.19-.14.19h-4.49c-.13,0-.14-.07-.14-.19s0-.21.16-.21h3.69Z"/><path class="cls-3" d="M279,95.28s.1,0,.1.1,0,.06-.08.06-.14,0-.22.13-.84,1-1,1-.23-.13-.23-.21.08-.1.13-.13a3.71,3.71,0,0,0,.92-1s0-.08.09-.08A1.43,1.43,0,0,1,279,95.28ZM279.8,94a.18.18,0,0,0,.18-.18v-.13a5.88,5.88,0,0,0,0-.83.27.27,0,0,1,0-.07.08.08,0,0,1,.1-.08,2.49,2.49,0,0,1,.37.06.08.08,0,0,1,.06.07s0,.06-.06.09-.06.11-.06.25v.64a.18.18,0,0,0,.18.18h2c.13,0,.15.06.15.19s0,.19-.14.19h-2a.18.18,0,0,0-.18.18v1.72c0,.13,0,.26,0,.38,0,.32,0,.55-.32.71a1.45,1.45,0,0,1-.51.14c-.13,0-.23-.21-.23-.29s.07-.1.14-.1c.45,0,.55-.12.55-.6v-2a.18.18,0,0,0-.18-.18h-1.92c-.13,0-.14-.07-.14-.19s0-.19.14-.19h1.92Zm2.54,1.86c.08.08.4.41.4.5s-.15.21-.23.21-.13-.08-.17-.13a5.43,5.43,0,0,0-.94-.94s-.11-.08-.11-.14a.29.29,0,0,1,.21-.21C281.62,95.12,282.23,95.73,282.34,95.84Zm-.07-3c.05.05.28.29.28.34a.31.31,0,0,1-.22.21s-.06,0-.09-.06-.29-.33-.44-.49-.05-.05-.05-.08a.32.32,0,0,1,.21-.2C282,92.6,282.22,92.84,282.27,92.89Zm.6-.38c.05.05.29.29.29.34a.32.32,0,0,1-.23.21s-.06,0-.09-.06a6.33,6.33,0,0,0-.44-.49s-.05-.05-.05-.08a.33.33,0,0,1,.21-.19C282.61,92.23,282.82,92.46,282.87,92.51Z"/><path class="cls-3" d="M285.94,96.56c0,.32,0,.64,0,1s0,.28-.21.28-.21-.08-.21-.28,0-.64,0-1V93.48a6.67,6.67,0,0,0,0-.81.87.87,0,0,1,0-.12s0-.07.06-.07.46.06.46.15,0,.06,0,.08a3,3,0,0,0,0,.77Zm1.18-1.7c.1.07.51.39.51.49a.27.27,0,0,1-.21.23.19.19,0,0,1-.13-.06,7.76,7.76,0,0,0-1-.82c-.05,0-.12-.06-.12-.13s.11-.23.19-.23A4.06,4.06,0,0,1,287.12,94.87Z"/><path class="cls-3" d="M290.88,93.22c.05,0,.11,0,.11.08s0,.05-.05.08a.25.25,0,0,0,0,.17,11.62,11.62,0,0,1,0,1.25,3.44,3.44,0,0,1-1.14,2.31.11.11,0,0,1-.08,0c-.07,0-.32-.1-.32-.19s.08-.1.13-.13a3.35,3.35,0,0,0,1.09-2.88,3.84,3.84,0,0,0,0-.61s0-.06,0-.08a.06.06,0,0,1,.07-.07A2.33,2.33,0,0,1,290.88,93.22Zm1.48,3.21s0,.12.06.12.13-.06.18-.1A17.59,17.59,0,0,0,294.38,95s.07-.08.11-.08.19.17.19.24-.1.13-.14.17a23.35,23.35,0,0,1-1.95,1.56l-.08.06s-.08.08-.15.08a1,1,0,0,1-.28-.12c-.08-.05-.14-.07-.14-.16s0-.39,0-.77V94a6,6,0,0,0,0-.84.53.53,0,0,1,0-.1A.06.06,0,0,1,292,93a2.35,2.35,0,0,1,.36.08s.08,0,.08.08,0,.05,0,.08,0,.18,0,.4Z"/><path class="cls-3" d="M201.46,104.69s-.05.06-.08.08-.15.13-.25.31a.81.81,0,0,0-.09.19.07.07,0,0,0,.07.06,6.84,6.84,0,0,0,1.08-.25h.06c.12,0,.13.27.13.28s-.17.12-.26.14c-.41.09-.82.15-1.24.21-.19,0-.17.06-.39.4a2.4,2.4,0,0,0-.24.42.06.06,0,0,0,.06.06.34.34,0,0,0,.13,0,2,2,0,0,1,.93-.28.68.68,0,0,1,.55.24.89.89,0,0,1,.13.46c0,.06,0,.15.09.15a7.29,7.29,0,0,0,.85-.41.57.57,0,0,1,.17-.06c.09,0,.16.21.16.29s-.1.1-.29.17-.55.22-.82.33c-.1,0-.15.08-.15.21s0,.54,0,.81,0,.2-.19.2-.17,0-.17-.14,0-.43,0-.64,0-.14-.1-.14a1.92,1.92,0,0,0-.41.21c-.28.16-.62.39-.62.75,0,.55.7.63,1.11.63a4.59,4.59,0,0,0,1.18-.14l.1,0c.1,0,.1.12.1.19s0,.2-.08.22a9.19,9.19,0,0,1-1.22.09,2.42,2.42,0,0,1-.91-.13.88.88,0,0,1-.62-.82c0-.55.48-.83.9-1.07l.45-.24a.19.19,0,0,0,.13-.16c0-.31,0-.66-.43-.66a2.45,2.45,0,0,0-1.24.48,3.92,3.92,0,0,0-.69.83s-.06.1-.12.1-.26-.13-.26-.22,0-.06.05-.08a14.34,14.34,0,0,0,1.21-1.73.2.2,0,0,0,0-.1c0-.05-.05-.05-.09-.05l-.76,0c-.06,0-.1,0-.1-.19s0-.18.11-.18h.48c.68,0,.63,0,.73-.22a4,4,0,0,0,.3-.69c0-.07,0-.12.08-.12A1.15,1.15,0,0,1,201.46,104.69Z"/><path class="cls-3" d="M205.34,104.79c-.13,0-.18.05-.18.18v3.8c0,.29,0,.58,0,.87s0,.26-.19.26-.19-.1-.19-.25,0-.59,0-.88v-3.66c0-.13,0-.25,0-.38s.05-.28.27-.28h1.21c.13,0,.29.12.29.22a4.79,4.79,0,0,1-.66,1.18.59.59,0,0,0-.1.19s0,.09.06.12a2.13,2.13,0,0,1,.57,1.38,1.17,1.17,0,0,1-.33.92.88.88,0,0,1-.51.13c-.21,0-.32,0-.32-.25,0-.07,0-.11.1-.11h.26c.38,0,.46-.39.46-.7a2,2,0,0,0-.62-1.29.28.28,0,0,1-.09-.17.54.54,0,0,1,.12-.22,9,9,0,0,0,.6-1c0-.07-.06-.07-.17-.07Zm1.58,3.69s.11,0,.11.07,0,0-.06.05-.08,0-.1.09a8.92,8.92,0,0,1-.35.91c0,.06-.07.13-.15.13s-.22-.06-.22-.14a.21.21,0,0,1,0-.08,3.69,3.69,0,0,0,.38-1s0-.08.07-.08A2.39,2.39,0,0,1,206.92,108.47Zm2.45-.82c.11,0,.15-.05.15-.15v-.16c0-.11,0-.16-.15-.16h-2.27c-.12,0-.13-.05-.13-.17s0-.17.13-.17h2.27c.11,0,.15,0,.15-.15v-.15c0-.1,0-.15-.15-.15h-2.42c-.11,0-.13,0-.13-.17s0-.17.13-.17h2.61c.24,0,.32.06.32.28s0,.22,0,.34v.85c0,.15,0,.29,0,.44s0,.14-.18.14a.21.21,0,0,1-.16,0s-.06-.1-.12-.1h-1.74l-.75,0c-.12,0-.13-.06-.13-.17s0-.18.13-.18l.75,0Zm.45-3-.06,0a.31.31,0,0,0-.11,0h-.1A17.82,17.82,0,0,1,207,105c-.1,0-.2,0-.2-.22s.11-.14.24-.14a12.45,12.45,0,0,0,2.45-.29l.08,0c.06,0,.07,0,.21.22a.2.2,0,0,1,.05.12A.06.06,0,0,1,209.82,104.69Zm-2.5,1.3c-.1,0-.12-.09-.17-.24s-.15-.31-.21-.44a.2.2,0,0,1,0-.1c0-.08.12-.14.19-.14s.12.05.21.26a2.81,2.81,0,0,1,.21.51C207.52,105.94,207.4,106,207.32,106Zm1.21,3.55c.26,0,.31,0,.42-.53,0-.11,0-.15.12-.15s.22,0,.22.13a2.23,2.23,0,0,1-.23.71c-.14.17-.33.15-.53.15h-.78c-.26,0-.56,0-.56-.36,0-.07,0-.14,0-.21v-.53a2.06,2.06,0,0,0,0-.34v-.06c0-.05,0-.06.08-.06l.38,0s.07,0,.07.06,0,.05-.06.06-.1.12-.1.31v.57c0,.21.13.21.33.21Zm-.17-.5c-.06,0-.1,0-.12-.1a4.25,4.25,0,0,0-.35-.56.21.21,0,0,1,0-.1c0-.09.12-.15.2-.15s.11.06.21.2a2.25,2.25,0,0,1,.31.57C208.57,109,208.44,109,208.37,109Zm0-3.08c-.09,0-.12,0-.13-.13s-.08-.35-.13-.52a.93.93,0,0,1-.06-.21c0-.09.12-.13.19-.13s.13.07.23.43a3.9,3.9,0,0,1,.1.42C208.58,105.92,208.48,106,208.39,106Zm1-.66a3.06,3.06,0,0,0,.2-.35s0-.08.08-.08a1.07,1.07,0,0,1,.28.19s.08.06.08.1-.07.06-.12.06-.16.12-.26.27l0,.07c-.13.2-.23.39-.32.39s-.2-.09-.2-.17a1.38,1.38,0,0,1,.21-.35Zm.59,4.39c-.09,0-.12-.06-.15-.13a6.47,6.47,0,0,0-.43-.93.38.38,0,0,1,0-.11c0-.08.12-.16.19-.16s.1,0,.13.1a5,5,0,0,1,.24.46,4.19,4.19,0,0,1,.24.64C210.16,109.62,210.06,109.68,210,109.68Z"/><path class="cls-3" d="M213.67,104.48c.14,0,.38,0,.38.09s-.12.05-.12.36v.53a.16.16,0,0,0,.15.17l.29,0c.31,0,1.25-.06,1.51-.06.11,0,.12.06.12.19s-.06.2-.16.2h-.61c-.19,0-1,0-1.15,0s-.15.1-.15.21c0,.61,0,.62.08.75a2,2,0,0,1,.18.86,2.72,2.72,0,0,1-.87,2.07s-.33-.07-.33-.13.1-.12.12-.14a2.53,2.53,0,0,0,.6-1,0,0,0,0,0,0,0,.19.19,0,0,0-.1,0,.59.59,0,0,1-.27.07c-.5,0-.68-.54-.68-1s.22-1.11.82-1.11h.06a.08.08,0,0,0,.08-.08c0-.35,0-.51-.17-.51l-.48,0c-.49,0-1,.06-1.48.13h-.08c-.08,0-.16,0-.16-.28s.06-.13.24-.13c.62,0,1.24-.07,1.86-.1.13,0,.24,0,.24-.19a6.17,6.17,0,0,0-.08-.91v0a.06.06,0,0,1,.06-.06Zm-.73,3.2c0,.28.08.64.43.64s.46-.33.46-.63-.1-.71-.44-.71S212.95,107.41,212.95,107.68Z"/><path class="cls-3" d="M217.85,108c.17.66.81.8,1.4.8a9.11,9.11,0,0,0,1.91-.21l.12,0c.1,0,.09.11.09.18s0,.2-.08.24a11.36,11.36,0,0,1-1.92.19,2,2,0,0,1-1.73-.66,1.22,1.22,0,0,1-.21-.53c0-.12.25-.15.27-.15S217.83,107.87,217.85,108Zm.44-2.65a3.83,3.83,0,0,0,1.15.15,5,5,0,0,0,1.16-.13h.06c.11,0,.12.15.12.24s0,.17-.15.19a10.43,10.43,0,0,1-1.18.07,4.78,4.78,0,0,1-1.33-.16.11.11,0,0,1-.08-.12c0-.07,0-.26.12-.26Z"/><path class="cls-3" d="M224.5,104.71c.15,0,.14.06.15.19a9.53,9.53,0,0,0,.28,1.41c0,.06,0,.15.14.15a2.07,2.07,0,0,0,.38-.19c.28-.15.85-.46,1.09-.63a.34.34,0,0,1,.17-.08c.09,0,.25.32.25.37s-.07.07-.12.08a15.11,15.11,0,0,0-1.94,1c-.46.27-1.24.72-1.24,1.33a.62.62,0,0,0,.32.48,2.08,2.08,0,0,0,1.13.25,12.42,12.42,0,0,0,1.7-.15h.06c.07,0,.06.1.06.2s0,.21-.08.23-1.52.1-1.78.1a2.29,2.29,0,0,1-1.23-.26,1,1,0,0,1-.52-.87c0-.69.69-1.14,1.21-1.48.07,0,.12-.08.12-.17a.27.27,0,0,0,0-.1,8.76,8.76,0,0,1-.32-1.13,2.89,2.89,0,0,0-.15-.53.37.37,0,0,1,0-.07C224.16,104.71,224.43,104.71,224.5,104.71Z"/><path class="cls-3" d="M230.85,104.8c.06,0,.17,0,.17.1s0,.07-.06.1-.09.16-.12.31-.06.35-.09.52a.26.26,0,0,0,0,.07.1.1,0,0,0,.1.1h0s.26,0,.44,0c.6,0,.82.37.82.94a4.62,4.62,0,0,1-.36,1.93,1.18,1.18,0,0,1-1.09.66c-.25,0-.31-.28-.31-.36s0-.06,0-.06a2.6,2.6,0,0,0,.33,0,.76.76,0,0,0,.73-.52,3.9,3.9,0,0,0,.3-1.51c0-.42,0-.79-.55-.79s-.6.12-.62.23a7.29,7.29,0,0,1-1.08,2.38,6.63,6.63,0,0,1-.42.56.14.14,0,0,1-.1.05c-.07,0-.25-.13-.25-.21a.22.22,0,0,1,.08-.13,5.88,5.88,0,0,0,1.26-2.12,4.79,4.79,0,0,0,.15-.53.07.07,0,0,0-.07-.06l-.12,0a7.79,7.79,0,0,0-.9.27l-.07,0c-.08,0-.21-.28-.21-.36s.08,0,.43-.12.58-.13.88-.19.18-.1.21-.28a5.63,5.63,0,0,0,.07-.8.83.83,0,0,0,0-.22v0a.06.06,0,0,1,.06-.06A2.48,2.48,0,0,1,230.85,104.8Zm2.69,2.18c0,.07-.19.2-.28.2s-.1-.06-.13-.12a4.06,4.06,0,0,0-.82-1.3.14.14,0,0,1-.05-.1c0-.1.21-.18.26-.18S233.54,106.82,233.54,107Zm-.66-2.21c.06,0,.27.22.32.28s.28.28.28.34a.31.31,0,0,1-.23.21s-.06,0-.08-.06a6.59,6.59,0,0,0-.45-.49s-.05-.05-.05-.08A.31.31,0,0,1,232.88,104.77Zm.9-.13c.05.05.28.28.28.34a.31.31,0,0,1-.23.21s-.06,0-.08-.06-.29-.33-.44-.49-.06,0-.06-.08.15-.2.21-.2S233.73,104.58,233.78,104.64Z"/><path class="cls-3" d="M235.3,105.53c.71,0,3.62-.34,4.28-.46h.1c.1,0,.1.2.1.3s-.06.13-.22.13a4.47,4.47,0,0,0-1.12.12,2,2,0,0,0-1.19,1,2.78,2.78,0,0,0-.4,1.37,1,1,0,0,0,.56,1,1.92,1.92,0,0,0,.83.13h.16c.05,0,.14,0,.14.07a.84.84,0,0,1-.08.28c0,.06-.05.06-.12.06a3.07,3.07,0,0,1-.87-.13,1.31,1.31,0,0,1-1-1.36,3.09,3.09,0,0,1,1-2.25s0,0,0-.05,0,0-.08,0c-.29,0-1.91.24-2.24.32h-.1c-.12,0-.15-.34-.15-.36S235.05,105.54,235.3,105.53Zm4,.83a1.79,1.79,0,0,1,.27.35c0,.07-.15.21-.23.21s-.06,0-.09-.07a6.51,6.51,0,0,0-.42-.51s-.05-.05-.05-.08.15-.19.22-.19S239.24,106.3,239.29,106.35ZM240,106a1.82,1.82,0,0,1,.27.35c0,.07-.15.2-.24.2s-.06,0-.08-.07-.28-.35-.42-.51-.05-.05-.05-.08.15-.19.21-.19S239.94,106,240,106Z"/><path class="cls-3" d="M243.26,104.86c.1.26.13.38.25.38a2.41,2.41,0,0,0,.6-.26.41.41,0,0,1,.14-.06c.07,0,.17.22.17.28s0,.05-.14.11a5.21,5.21,0,0,1-.55.24.14.14,0,0,0-.12.14,4.38,4.38,0,0,0,.2.47c0,.08.08.15.18.15a4.21,4.21,0,0,0,.89-.44.22.22,0,0,1,.1-.05c.05,0,.18.19.18.27s-.05.1-.28.22-.42.2-.65.3c0,0-.12,0-.12.12a1.72,1.72,0,0,0,.16.35,8,8,0,0,0,.64,1,.22.22,0,0,1,.06.12c0,.12-.23.27-.33.27a.12.12,0,0,1-.09,0,1.94,1.94,0,0,0-1.27-.46c-.37,0-.79.17-.79.6s.71.74,1.16.74a3.49,3.49,0,0,0,.46,0h.08c.12,0,.12.12.12.2s0,.19-.43.19a2.86,2.86,0,0,1-.93-.12,1,1,0,0,1-.78-.94.94.94,0,0,1,.35-.73,1.27,1.27,0,0,1,.76-.22,2.45,2.45,0,0,1,1,.21l.08,0a0,0,0,0,0,0,0s-.46-.84-.5-.94a.19.19,0,0,0-.17-.12l-.12,0a11.88,11.88,0,0,1-1.75.37c-.1,0-.11-.06-.12-.11a.82.82,0,0,1,0-.18c0-.1.06-.08.22-.1a7.08,7.08,0,0,0,1.52-.29c.08,0,.17,0,.17-.15a.36.36,0,0,0-.06-.14c-.2-.44-.22-.51-.34-.51l-.1,0a5.37,5.37,0,0,1-.89.15c-.11,0-.15-.19-.15-.28s.11-.07.2-.08a3.53,3.53,0,0,0,.63-.1c.08,0,.21,0,.21-.15a.75.75,0,0,0-.07-.19,2.49,2.49,0,0,0-.21-.41.13.13,0,0,1,0-.07c0-.09.21-.12.28-.12S243.16,104.59,243.26,104.86Z"/><path class="cls-3" d="M250.27,105.28s-.06.08-.1.1a8.63,8.63,0,0,0-1.16,1.13s-.11.11-.11.15a0,0,0,0,0,0,0l.13,0a2.43,2.43,0,0,1,.53-.06,1.38,1.38,0,0,1,1.55,1.3,1.74,1.74,0,0,1-1.9,1.61,1.45,1.45,0,0,1-.86-.24.63.63,0,0,1,.37-1.16c.4,0,.89.31.89.74a.87.87,0,0,1-.07.27.06.06,0,0,0,.06.05,1.38,1.38,0,0,0,1.13-1.26c0-.71-.62-1-1.25-1a2,2,0,0,0-1.33.48,10.62,10.62,0,0,0-.82.87s-.06.08-.1.08-.25-.18-.25-.25.13-.17.25-.28c.83-.73,1.53-1.59,2.29-2.38a.14.14,0,0,0,.06-.11.06.06,0,0,0-.07-.06l-.16,0c-.48.1-.94.18-1.42.29l-.15,0c-.13,0-.13-.2-.13-.3s.05-.17.18-.17H248a6,6,0,0,0,1.55-.23.68.68,0,0,1,.2,0A.63.63,0,0,1,250.27,105.28Zm-1.47,3.13a.35.35,0,0,0-.36.35c0,.29.42.44.66.44s.19-.19.19-.31A.48.48,0,0,0,248.79,108.42Z"/><path class="cls-3" d="M255,106.58c.11,0,.15,0,.15-.15v-.15c0-.1,0-.15-.15-.15h-.9l-.74,0c-.12,0-.12-.07-.12-.17s0-.18.12-.18l.74,0h.9c.11,0,.15-.05.15-.15v-.14c0-.11,0-.15-.15-.15h-2.14c-.12,0-.13-.06-.13-.17s0-.17.13-.17h2.79a.27.27,0,0,0,.28-.13,5.76,5.76,0,0,0,.37-.64s0-.06.06-.06.34.16.34.23-.06.05-.1.05a.13.13,0,0,0-.09.05s-.13.25-.21.37a.19.19,0,0,0,0,.06c0,.06.05.08.1.08h1.45c.12,0,.13.06.13.17s0,.17-.12.17h-2.18c-.1,0-.15,0-.15.15v.14c0,.1,0,.15.15.15h.92l.74,0c.12,0,.13.08.13.18s0,.17-.13.17l-.74,0h-.92a.14.14,0,0,0-.15.15v.15c0,.11,0,.15.15.15h2.38c.12,0,.12.06.12.17s0,.17-.12.17h-3.21a.19.19,0,0,0-.19.1l-.08.14a.08.08,0,0,0,0,.06c0,.06.05.08.1.08h2.25c.23,0,.32,0,.32.28s0,.23,0,.35v1.5c0,.13,0,.26,0,.4s-.06.15-.18.15-.17,0-.18-.15,0-.12-.13-.12h-2.24c-.09,0-.12,0-.13.12s0,.15-.18.15-.18,0-.18-.15,0-.26,0-.39V108s0-.08-.06-.08a.1.1,0,0,0-.06,0c-.17.18-1,1-1.23,1s-.17-.15-.17-.21.06-.1.1-.12a5.42,5.42,0,0,0,1.64-1.58.09.09,0,0,0,0-.06c0-.06-.06-.08-.1-.08h-1.49c-.12,0-.13-.06-.13-.17s0-.17.13-.17H255Zm-.4-2c0,.06.14.15.14.23s-.12.15-.19.15-.11-.06-.2-.16a2.7,2.7,0,0,0-.29-.32.2.2,0,0,1-.06-.12.21.21,0,0,1,.19-.17C254.34,104.2,254.54,104.47,254.65,104.57Zm2.12,3.41a.13.13,0,0,0,.13-.13v-.12a.12.12,0,0,0-.13-.13h-2.25a.13.13,0,0,0-.14.13v.12a.13.13,0,0,0,.14.13Zm-2.25.3a.13.13,0,0,0-.14.13v.13a.13.13,0,0,0,.14.13h2.25a.12.12,0,0,0,.13-.13v-.13a.12.12,0,0,0-.13-.13Zm0,.69a.13.13,0,0,0-.14.13v.14a.13.13,0,0,0,.14.13h2.25a.12.12,0,0,0,.13-.13v-.14a.12.12,0,0,0-.13-.13Z"/><path class="cls-3" d="M260.68,107.81c0-.13-.05-.18-.18-.18h-.59c-.12,0-.18.05-.19.17a6.29,6.29,0,0,1-.29,1.62c-.09.26-.15.43-.25.43s-.26-.07-.26-.17a.65.65,0,0,1,.08-.17,6.61,6.61,0,0,0,.4-2.62v-1.68c0-.16,0-.32,0-.48s0-.26.23-.26h1.16c.2,0,.23.07.23.26s0,.32,0,.48v3.55c0,.15,0,.31,0,.46a.61.61,0,0,1-.19.55,1.17,1.17,0,0,1-.73.15c-.19,0-.26,0-.26-.27,0-.08,0-.12.12-.12h.3c.44,0,.41-.15.41-.57Zm-.18-1.9a.18.18,0,0,0,.18-.18V105a.17.17,0,0,0-.18-.17h-.57a.17.17,0,0,0-.18.17v.76a.18.18,0,0,0,.18.18Zm-.75,1.23c0,.12.06.17.17.17h.58c.13,0,.18-.05.18-.18v-.73c0-.13-.05-.18-.18-.18h-.57c-.13,0-.18.05-.18.18Zm3,.64s0,.06-.06.08-.08.06-.1.16a3,3,0,0,1-1.06,1.77.43.43,0,0,1-.2.1.23.23,0,0,1-.19-.18c0-.05.07-.1.15-.17a2.63,2.63,0,0,0,.85-1.17,5.08,5.08,0,0,0,.13-.63c0-.05,0-.1.09-.1S262.77,107.7,262.77,107.79Zm-.73-.23c-.06,0-.08,0-.1.09s0,.06-.17.06-.18,0-.18-.14,0-.22,0-.34v-.91c0-.1,0-.19,0-.29s.06-.28.28-.28H263a.26.26,0,0,0,.28-.13,6.15,6.15,0,0,0,.73-1.28s0-.06.08-.06.34.18.34.25-.06,0-.1.05-.07,0-.09,0a6.63,6.63,0,0,1-.62,1,.1.1,0,0,0,0,.06c0,.06,0,.08.09.08h.42c.2,0,.29.05.29.26s0,.21,0,.31v.91c0,.12,0,.22,0,.34s0,.14-.18.14-.13,0-.16-.06-.05-.08-.12-.09h-.31c-.12,0-.17.05-.17.17v1.5c0,.25.09.26.31.26H264c.29,0,.3-.07.39-.56,0-.12,0-.16.12-.16s.22,0,.22.13a1.94,1.94,0,0,1-.21.73c-.13.18-.3.18-.51.18h-.35c-.31,0-.54-.07-.54-.43v-1.65c0-.13-.05-.18-.18-.18Zm.33-2c-.09,0-.12-.06-.15-.13a4.69,4.69,0,0,0-.42-.8.21.21,0,0,1,0-.11c0-.08.12-.15.19-.15s.15.1.38.53a2.08,2.08,0,0,1,.23.51C262.56,105.49,262.44,105.54,262.37,105.54Zm1.48,1.7a.17.17,0,0,0,.18-.17v-.82a.18.18,0,0,0-.18-.18h-1.72a.18.18,0,0,0-.18.18v.82a.17.17,0,0,0,.18.17Z"/><path class="cls-3" d="M269.08,105.52h1.25l.74,0c.12,0,.13.06.13.17s0,.17-.13.17h-2c-.08,0-.15,0-.15.14v0a9.32,9.32,0,0,0,.94,3.05c.09.15.31.5.51.5s.4-.71.44-.94c0-.08,0-.17.12-.17s.22,0,.22.16a2.51,2.51,0,0,1-.11.57c-.1.33-.24.73-.66.73a.54.54,0,0,1-.3-.09,2.93,2.93,0,0,1-.74-1,10.22,10.22,0,0,1-.77-2.75.17.17,0,0,0-.2-.17h-2.72c-.12,0-.12-.06-.12-.17s0-.18.12-.18l.75,0h1.94c.1,0,.16,0,.16-.15v0s-.08-1-.08-1a.07.07,0,0,1,.08-.08l.26,0c.12,0,.21,0,.21.08s0,.06-.1.08a.1.1,0,0,0-.06.1c0,.17,0,.57,0,.76S268.95,105.52,269.08,105.52Zm-1.79,3.34c0,.08,0,.15.12.15h.05l1-.24.13,0c.09,0,.12.1.12.18s-.08.15-.21.18c-.7.19-1.6.37-2.32.5-.17,0-.17,0-.21.12s0,.05-.06.05-.06,0-.12-.19a1.28,1.28,0,0,1-.06-.21s0-.06.09-.06a9.08,9.08,0,0,0,1-.16c.13,0,.15-.08.17-.21v-1.46a.16.16,0,0,0-.18-.18H266c-.12,0-.12-.08-.12-.17s0-.17.12-.17h2.25c.12,0,.12.08.12.17s0,.17-.12.17h-.75a.16.16,0,0,0-.18.18Zm3-3.61c-.07,0-.11-.06-.15-.11s-.39-.39-.59-.57c0,0-.09-.08-.09-.13a.23.23,0,0,1,.18-.18c.09,0,.37.28.44.35s.4.38.4.46A.22.22,0,0,1,270.32,105.24Z"/><path class="cls-3" d="M276.51,105.67a2.06,2.06,0,0,1,.62,1.51,2.2,2.2,0,0,1-1.22,2,2.15,2.15,0,0,1-.62.22c-.1,0-.27-.19-.27-.27s.05-.06.09-.07a1.89,1.89,0,0,0,1.64-1.86,1.77,1.77,0,0,0-1.34-1.76,1.35,1.35,0,0,0-.28,0c-.18,0-.18.16-.19.27a5.39,5.39,0,0,1-.91,3,1,1,0,0,1-.75.44.92.92,0,0,1-.76-.55,1.89,1.89,0,0,1-.18-.86,2.56,2.56,0,0,1,2.58-2.62A2.17,2.17,0,0,1,276.51,105.67Zm-2.27-.17a2.23,2.23,0,0,0-1.53,2.15c0,.35.12,1.06.57,1.06s.78-.71.91-1a6.77,6.77,0,0,0,.41-2s0-.05,0-.07a.13.13,0,0,0-.12-.13A1,1,0,0,0,274.24,105.51Z"/><path class="cls-3" d="M279.8,107.33s.1,0,.1.1,0,.06-.08.06-.14,0-.22.13-.84,1-1,1-.23-.13-.23-.21.08-.1.13-.13a3.71,3.71,0,0,0,.92-1s0-.08.09-.08A1.39,1.39,0,0,1,279.8,107.33Zm.76-1.29a.18.18,0,0,0,.18-.18v-.13a5.88,5.88,0,0,0,0-.83.27.27,0,0,1,0-.07.08.08,0,0,1,.1-.08,2.48,2.48,0,0,1,.37.06.08.08,0,0,1,.06.07s0,.06-.06.09-.06.11-.06.25v.64a.18.18,0,0,0,.18.18h2c.13,0,.15.06.15.19s0,.19-.14.19h-2a.18.18,0,0,0-.18.18v1.72c0,.13,0,.26,0,.38,0,.32,0,.55-.32.71a1.43,1.43,0,0,1-.51.14c-.13,0-.23-.21-.23-.29s.07-.1.14-.1c.45,0,.55-.12.55-.6v-2a.18.18,0,0,0-.18-.18h-1.92c-.13,0-.14-.07-.14-.19s0-.19.14-.19h1.92Zm2.54,1.86c.08.08.4.41.4.5s-.15.21-.23.21-.13-.08-.17-.13a5.43,5.43,0,0,0-.94-.94s-.11-.08-.11-.14a.29.29,0,0,1,.21-.21C282.39,107.17,283,107.78,283.1,107.9Zm-.07-3c.05.05.28.29.28.34a.31.31,0,0,1-.22.21s-.06,0-.09-.06-.29-.33-.44-.49-.05-.05-.05-.08a.32.32,0,0,1,.21-.2C282.77,104.66,283,104.89,283,104.94Zm.6-.38c.05.05.29.29.29.34a.32.32,0,0,1-.23.21s-.06,0-.09-.06a6.32,6.32,0,0,0-.44-.49s-.05-.05-.05-.08a.32.32,0,0,1,.21-.19C283.38,104.29,283.58,104.51,283.63,104.56Z"/><path class="cls-3" d="M286.41,108.62c0,.32,0,.64,0,1s0,.28-.21.28-.21-.08-.21-.28,0-.64,0-1v-3.08a6.65,6.65,0,0,0,0-.81.89.89,0,0,1,0-.12s0-.07.06-.07.46.06.46.15,0,.06,0,.08a3,3,0,0,0,0,.77Zm1.18-1.7c.1.07.51.39.51.49a.27.27,0,0,1-.21.23.19.19,0,0,1-.13-.06,7.76,7.76,0,0,0-1-.82c-.05,0-.12-.06-.12-.13s.11-.23.19-.23A4.11,4.11,0,0,1,287.59,106.92Z"/><path class="cls-3" d="M291.05,105.27c.05,0,.11,0,.11.08s0,.05-.05.08a.25.25,0,0,0,0,.17,11.62,11.62,0,0,1,0,1.25,3.44,3.44,0,0,1-1.14,2.31.11.11,0,0,1-.08,0c-.07,0-.32-.1-.32-.19s.08-.1.13-.13A3.35,3.35,0,0,0,290.7,106a3.84,3.84,0,0,0,0-.61s0-.06,0-.08a.06.06,0,0,1,.07-.07A2.49,2.49,0,0,1,291.05,105.27Zm1.48,3.21s0,.12.06.12.13-.06.18-.1a17.59,17.59,0,0,0,1.78-1.46s.07-.08.11-.08.19.17.19.24-.1.13-.14.17a23.34,23.34,0,0,1-1.95,1.56l-.08.06s-.08.08-.15.08a1,1,0,0,1-.28-.12c-.08-.05-.14-.07-.14-.16s0-.39,0-.77v-2a6,6,0,0,0,0-.84.53.53,0,0,1,0-.1.06.06,0,0,1,.06-.06,2.35,2.35,0,0,1,.36.08s.08,0,.08.08,0,.05,0,.08,0,.18,0,.4Z"/><path class="cls-3" d="M200.81,117.93c.19,0,.19-.22.19-.22,0-.17.06-.85.06-1s0-.08.06-.08l.42.1a.08.08,0,0,1,0,.08.09.09,0,0,1-.05.08s-.06,0-.07.07a.65.65,0,0,0,0,.18c0,.21,0,.42-.06.63v0a.13.13,0,0,0,.12.13H203a.31.31,0,0,1,.24.24c0,.06,0,.42,0,.51a15,15,0,0,1-.21,1.53,1.79,1.79,0,0,1-.42,1,1.55,1.55,0,0,1-.87.21c-.08,0-.11,0-.17-.1a.4.4,0,0,1-.09-.21c0-.06,0-.08.1-.08h.31c.54,0,.69-.25.83-1.07.05-.3.17-1.23.17-1.51s-.06-.14-.42-.14h-1c-.11,0-.16.08-.18.18a5.21,5.21,0,0,1-1,2.28c-.12.15-.74.88-.91.88s-.24-.15-.24-.22a.11.11,0,0,1,.06-.09,4.6,4.6,0,0,0,1.51-2.2,4.15,4.15,0,0,0,.17-.71.12.12,0,0,0-.12-.12h-1.14l-.6,0c-.1,0-.13-.06-.13-.2s0-.18.13-.18h1.79Z"/><path class="cls-3" d="M206.54,118.08s.13.08.13.13-.05.07-.08.08-.08,0-.12.11a9.45,9.45,0,0,1-1.14,1.66c-.12.14-.34.38-.47.51a.2.2,0,0,1-.13.06c-.08,0-.28-.1-.28-.2s0-.05,0-.08a6.79,6.79,0,0,0,1.66-2.27c0-.06,0-.15.1-.15A1.59,1.59,0,0,1,206.54,118.08Zm1.89.06a7.48,7.48,0,0,1,.67.89,8.43,8.43,0,0,1,.71,1.23c0,.11-.19.22-.29.22s-.1-.07-.14-.15a7.88,7.88,0,0,0-1.27-2,.21.21,0,0,1-.06-.12c0-.08.16-.2.23-.2S208.39,118.09,208.43,118.14Zm.81-.42c0,.05.28.29.28.34a.31.31,0,0,1-.23.21s-.06,0-.08-.06a5.32,5.32,0,0,0-.45-.49s-.05-.05-.05-.08.15-.2.21-.2S209.19,117.67,209.24,117.72Zm.58-.4c.05.05.29.29.29.34a.32.32,0,0,1-.23.21s-.06,0-.09-.06a5.26,5.26,0,0,0-.44-.49s-.05-.05-.05-.08.14-.19.21-.19S209.78,117.27,209.83,117.32Z"/><path class="cls-3" d="M214.71,118.91h.75c.15,0,.16,0,.16.21s0,.19-.14.19H211c-.13,0-.14-.07-.14-.19s0-.21.16-.21h3.69Z"/><path class="cls-3" d="M219.4,116.75s-.05.06-.08.08-.15.13-.25.31a.81.81,0,0,0-.09.19.07.07,0,0,0,.07.06,6.85,6.85,0,0,0,1.08-.25h.06c.12,0,.13.27.13.28s-.17.12-.26.14c-.41.09-.82.15-1.24.21-.19,0-.17.06-.39.4a2.41,2.41,0,0,0-.24.42.06.06,0,0,0,.06.06.34.34,0,0,0,.13,0,2,2,0,0,1,.93-.28.68.68,0,0,1,.55.24.89.89,0,0,1,.13.46c0,.06,0,.15.09.15a7.29,7.29,0,0,0,.85-.41.56.56,0,0,1,.17-.06c.09,0,.16.21.16.29s-.1.1-.29.17-.55.22-.82.33c-.1,0-.15.08-.15.21s0,.54,0,.81,0,.2-.19.2-.17,0-.17-.14,0-.43,0-.64,0-.14-.1-.14a1.92,1.92,0,0,0-.41.21c-.28.16-.62.39-.62.75,0,.55.7.63,1.11.63a4.59,4.59,0,0,0,1.18-.14l.1,0c.1,0,.1.12.1.19s0,.2-.08.22a9.19,9.19,0,0,1-1.22.09,2.42,2.42,0,0,1-.91-.13.88.88,0,0,1-.62-.82c0-.55.48-.83.9-1.07l.45-.24a.19.19,0,0,0,.13-.16c0-.31,0-.66-.43-.66a2.46,2.46,0,0,0-1.24.48,3.93,3.93,0,0,0-.69.83s-.06.1-.12.1-.26-.13-.26-.22,0-.06.05-.08a14.35,14.35,0,0,0,1.21-1.73.2.2,0,0,0,0-.1c0-.05-.05-.05-.09-.05l-.76,0c-.06,0-.1,0-.1-.19s0-.18.11-.18h.48c.68,0,.63,0,.73-.22a4,4,0,0,0,.3-.69c0-.07,0-.12.08-.12A1.15,1.15,0,0,1,219.4,116.75Z"/><path class="cls-3" d="M223,120c.17.66.81.8,1.4.8a9.11,9.11,0,0,0,1.91-.21l.12,0c.1,0,.09.11.09.18s0,.2-.08.24a11.36,11.36,0,0,1-1.92.19,2,2,0,0,1-1.73-.66,1.23,1.23,0,0,1-.21-.53c0-.12.25-.15.27-.15S223,119.92,223,120Zm.4-2.67a4.12,4.12,0,0,0,1.29.18,5.43,5.43,0,0,0,1-.1h.07c.1,0,.11.14.11.22s0,.19-.12.21c-.29,0-.68,0-1,0a5,5,0,0,1-1.56-.19.11.11,0,0,1-.08-.12c0-.07,0-.26.12-.26Zm3.21,0c0,.05.28.29.28.34a.31.31,0,0,1-.23.21s-.06,0-.08-.06a6.63,6.63,0,0,0-.45-.49s-.05-.05-.05-.08a.32.32,0,0,1,.21-.19C226.38,117,226.58,117.25,226.64,117.3Zm.55-.42c.05.05.28.28.28.34a.31.31,0,0,1-.22.21s-.07,0-.09-.06-.29-.33-.44-.5-.06-.05-.06-.08.15-.2.21-.2S227.14,116.82,227.19,116.88Z"/><path class="cls-3" d="M229.2,119.84c-.12,0-.18,0-.19.17a3.81,3.81,0,0,1-.67,1.85.19.19,0,0,1-.15.1.27.27,0,0,1-.22-.21s.05-.09.09-.14a3.89,3.89,0,0,0,.64-2.53V117.4c0-.17,0-.35,0-.52s.08-.31.37-.31h3.8c.25,0,.37,0,.37.3s0,.35,0,.53v3.4c0,.15,0,.31,0,.46a.64.64,0,0,1-.18.55,1.41,1.41,0,0,1-.86.16c-.18,0-.27,0-.27-.28,0-.1,0-.12.13-.12h.36c.42,0,.44-.08.44-.56v-1c0-.13-.05-.18-.18-.18h-1.5c-.12,0-.17.05-.17.18v.74c0,.29,0,.57,0,.86s0,.26-.19.26-.19-.1-.19-.25,0-.58,0-.87V120c0-.13-.05-.18-.18-.18Zm1.47-2.75a.18.18,0,0,0-.18-.18h-1.26a.18.18,0,0,0-.18.18v.78a.17.17,0,0,0,.18.17h1.26a.17.17,0,0,0,.18-.17Zm-1.44,1.27c-.12,0-.18.05-.18.18v.81c0,.12.06.17.17.17h1.27c.13,0,.18-.05.18-.18v-.8c0-.13-.05-.18-.18-.18Zm3.45-.32c.12,0,.17-.06.18-.17v-.78a.18.18,0,0,0-.18-.18h-1.5a.17.17,0,0,0-.17.18v.78a.16.16,0,0,0,.17.17Zm-1.67,1.3a.16.16,0,0,0,.17.18h1.5a.18.18,0,0,0,.18-.18v-.8a.18.18,0,0,0-.18-.18h-1.5a.17.17,0,0,0-.17.18Z"/><path class="cls-3" d="M236.81,116.91c.12,0,.17,0,.18-.17s0-.17,0-.26a.17.17,0,0,1,0-.06c0-.06,0-.08.1-.08h.18c.15,0,.27,0,.27.09s0,.06-.09.09-.08.1-.08.22.06.16.17.16h1.81c.12,0,.13.06.13.17s0,.17-.13.17h-.85s0,0,0,0,0,0,0,0,.17.08.17.13,0,.05-.08.06a.11.11,0,0,0-.11.05l-.18.33a.16.16,0,0,0,0,.05c0,.06,0,.08.1.09h1.5c.12,0,.13.05.13.17s0,.17-.12.17l-.75,0h-3.86l-.75,0c-.12,0-.13-.07-.13-.17s0-.17.13-.17h3.13a.25.25,0,0,0,.26-.13,4,4,0,0,0,.26-.49.18.18,0,0,0,0-.06c0-.08-.06-.1-.12-.1h-3c-.12,0-.13-.06-.13-.17s0-.17.13-.17h1.8Zm-1.31,3.83s-.07,0-.09.08a5.13,5.13,0,0,1-.69.93.19.19,0,0,1-.15.09c-.06,0-.21-.08-.21-.15s0-.08.11-.15a4,4,0,0,0,.66-.93s0-.08.08-.08a2.28,2.28,0,0,1,.3.09s.09,0,.09.08S235.53,120.73,235.5,120.74Zm3.42-.86c0,.05,0,.11,0,.16s-.08.23-.29.23h-3c-.19,0-.27-.05-.27-.23v-1.16c0-.2.1-.22.39-.22h2.91c.21,0,.26.08.26.22s0,.11,0,.16Zm-.45-.58a.13.13,0,0,0,.13-.13v-.07a.12.12,0,0,0-.13-.13h-2.65a.12.12,0,0,0-.13.13v.07a.13.13,0,0,0,.13.13Zm-2.65.28a.12.12,0,0,0-.13.13v.12a.13.13,0,0,0,.13.14h2.65a.13.13,0,0,0,.13-.14v-.12a.12.12,0,0,0-.13-.13Zm2,2c.3,0,.37,0,.49-.5,0-.1,0-.15.13-.15s.21,0,.21.13a1.84,1.84,0,0,1-.23.64c-.12.18-.31.19-.5.19h-1.49c-.26,0-.59,0-.59-.35,0-.07,0-.14,0-.2v-.42c0-.09,0-.23,0-.32s0-.05,0-.07,0-.07.09-.07l.37,0s.07,0,.07.06,0,.05-.06.07-.1.1-.1.3v.45c0,.21.13.21.35.21Zm-1.56-3.6c-.08,0-.1,0-.14-.13a3.22,3.22,0,0,0-.13-.31.18.18,0,0,1,0-.1c0-.08.12-.15.2-.15s.12.07.21.26a1,1,0,0,1,.1.27C236.45,117.93,236.31,118,236.25,118Zm.75,2.46.27.28c.05.06.22.25.22.33s-.11.16-.19.16-.1-.05-.14-.1a3.07,3.07,0,0,0-.41-.46s-.06-.06-.06-.12a.21.21,0,0,1,.19-.17C236.93,120.35,237,120.39,237,120.43Zm2.63,1.35c-.08,0-.12-.06-.15-.13a6,6,0,0,0-.64-1,.19.19,0,0,1-.05-.12c0-.08.12-.15.19-.15a.15.15,0,0,1,.11.06c.11.13.29.38.39.52a2.57,2.57,0,0,1,.35.63C239.82,121.72,239.7,121.78,239.63,121.78Z"/><path class="cls-3" d="M242.17,117c.05,0,.11,0,.11.1s0,.07-.06.1-.11.22-.13.37a17.83,17.83,0,0,0-.12,2.19c0,.62,0,1.46.87,1.46a1.85,1.85,0,0,0,1.77-1.67c0-.06,0-.18.09-.18a.39.39,0,0,1,.3.32,2.2,2.2,0,0,1-.24.7,2.22,2.22,0,0,1-1.88,1.2,1.22,1.22,0,0,1-1-.48,2.31,2.31,0,0,1-.28-1.32c0-.47,0-1.08.06-1.55,0-.25.08-.92.08-1.12V117c0-.06,0-.12.08-.12A1.68,1.68,0,0,1,242.17,117Z"/><path class="cls-3" d="M248.65,116.7c.08,0,.15,0,.15.1s0,.06-.05.11a1,1,0,0,0,0,.4v.15a.13.13,0,0,0,.13.14h.09a6.79,6.79,0,0,0,1.18-.24l.11,0c.11,0,.11.19.11.28s0,.1-.2.14c-.35.07-.83.15-1.19.18-.12,0-.22.05-.22.19,0,.67,0,.76.14.76a5.72,5.72,0,0,0,1-.18l.08,0c.07,0,.06.1.06.15,0,.27-.06.25-.23.28s-.53.08-.76.1-.23.06-.23.22,0,.65,0,.73.09.17.24.21,1.12.44,1.12.6a.35.35,0,0,1-.25.29c-.05,0-.13-.07-.17-.1a3,3,0,0,0-.71-.42l-.11,0c-.1,0-.1.1-.1.13a1,1,0,0,1-.1.39,1.14,1.14,0,0,1-1,.42c-.44,0-.94-.19-.94-.71s.72-.72,1.18-.72h.37c.09,0,.11-.06.11-.13s0-.67,0-.7-.05-.12-.14-.12h-.7a3.22,3.22,0,0,1-.57,0,.52.52,0,0,1-.08-.28.08.08,0,0,1,.08-.09c.06,0,.53,0,.76,0,.5,0,.64,0,.64-.14s0-.49,0-.64,0-.18-.14-.18-.91,0-1.35,0h-.33c-.12,0-.13-.16-.13-.26s0-.14.1-.14.58,0,1,0c.11,0,.68,0,.75,0a.15.15,0,0,0,.12-.15,6,6,0,0,0-.06-.7.48.48,0,0,1,0-.09s0-.06.07-.06A3.26,3.26,0,0,1,248.65,116.7Zm-1.52,4.25c0,.3.34.37.58.37s.69-.1.73-.47a1.25,1.25,0,0,0,0-.15c0-.11-.07-.15-.4-.15S247.13,120.56,247.13,120.95Z"/><path class="cls-3" d="M253,117c.05,0,.11,0,.11.1s0,.07-.06.1-.11.22-.13.37a17.83,17.83,0,0,0-.12,2.19c0,.62,0,1.46.87,1.46a1.85,1.85,0,0,0,1.77-1.67c0-.06,0-.18.09-.18a.39.39,0,0,1,.3.32,2.2,2.2,0,0,1-.24.7,2.22,2.22,0,0,1-1.88,1.2,1.22,1.22,0,0,1-1-.48,2.31,2.31,0,0,1-.28-1.32c0-.47,0-1.08.06-1.55,0-.25.08-.92.08-1.12V117c0-.06,0-.12.08-.12A1.68,1.68,0,0,1,253,117Z"/><path class="cls-3" d="M259.47,116.69s-.05.07-.1.1a.2.2,0,0,0-.09.13c-.08.24-.13.48-.2.71a.38.38,0,0,0,0,.11.07.07,0,0,0,.07.06,6.7,6.7,0,0,0,1-.31.25.25,0,0,1,.1,0c.08,0,.07.09.07.15,0,.22,0,.24-.12.27a10.73,10.73,0,0,1-1.12.26c-.15,0-.17.08-.21.22a22,22,0,0,1-1.21,2.93c-.07.13-.12.24-.21.24s-.28-.11-.28-.21.06-.12.09-.15a15.18,15.18,0,0,0,1.26-2.82.15.15,0,0,0,0-.05.07.07,0,0,0-.07-.07c-.06,0-.48,0-.75,0s-.32,0-.32-.29a.08.08,0,0,1,.08-.09s.29,0,.55,0l.48,0a.22.22,0,0,0,.16-.06,5.11,5.11,0,0,0,.3-1.23c0-.06,0-.15.08-.15S259.47,116.59,259.47,116.69Zm-.15,4.17a1.58,1.58,0,0,0,1.19.35,2.53,2.53,0,0,0,.85-.12h.05c.1,0,.1.17.1.24s0,.15-.08.18a4.52,4.52,0,0,1-.85.07,2.75,2.75,0,0,1-1.29-.24c-.09-.05-.31-.2-.31-.31s.15-.26.22-.26S259.29,120.83,259.31,120.86Zm.9-2.22a3.61,3.61,0,0,1,1.09.16c.06,0,.08,0,.08.11s0,.26-.14.26l-.11,0a2.76,2.76,0,0,0-.92-.14h-.26c-.11,0-.13,0-.13-.15S259.86,118.65,260.21,118.65Z"/><path class="cls-3" d="M264.78,121a.86.86,0,1,1-.86-.86A.86.86,0,0,1,264.78,121Zm-1.47,0a.61.61,0,1,0,.61-.61A.61.61,0,0,0,263.3,121Z"/><g class="cls-4"><image width="4252" height="2835" transform="scale(0.08)" xlink:href="web007.jpg"/></g></g></g></svg>