<svg xmlns="http://www.w3.org/2000/svg" xmlns:xlink="http://www.w3.org/1999/xlink" viewBox="0 0 304.14 61.72"><defs><style>.cls-1{fill:none;}.cls-2{clip-path:url(#clip-path);}.cls-3{fill:url(#linear-gradient);}.cls-4{clip-path:url(#clip-path-2);}.cls-5{fill:url(#linear-gradient-2);}.cls-6{clip-path:url(#clip-path-3);}.cls-7{fill:url(#linear-gradient-3);}.cls-8{clip-path:url(#clip-path-4);}.cls-9{fill:url(#linear-gradient-4);}.cls-10{clip-path:url(#clip-path-5);}.cls-11{fill:url(#linear-gradient-5);}.cls-12{clip-path:url(#clip-path-6);}.cls-13{fill:url(#linear-gradient-6);}.cls-14{clip-path:url(#clip-path-7);}.cls-15{fill:url(#radial-gradient);}.cls-16{clip-path:url(#clip-path-8);}.cls-17{fill:url(#radial-gradient-2);}.cls-18,.cls-24{fill:#fff;}.cls-19{clip-path:url(#clip-path-9);}.cls-20{fill:url(#radial-gradient-3);}.cls-21{clip-path:url(#clip-path-10);}.cls-22{fill:url(#radial-gradient-4);}.cls-23{fill:#3299d5;}.cls-24{fill-rule:evenodd;}.cls-25{fill:#305896;}.cls-26{fill:#3eb54a;}</style><clipPath id="clip-path"><path class="cls-1" d="M47.47,15.84c0-4.12,2-6.75,5-6.75,2.46,0,3.79,1.51,3.79,4V20.7a4.91,4.91,0,0,1-3.68,1.91c-3.17,0-5.13-2.35-5.13-6.77M44.54,17.2c0,4.76,3,7.72,6.08,7.72a7,7,0,0,0,5.66-2.85v3.83c-7.19.74-11.55,5.64-11.55,12.63s4.93,12,12.88,12c6,0,9.27-4.08,13.14-8.84v5.5c0,1.53-.43,2-1.69,2.32v.63h6.35v-.63c-1.27-.35-1.7-.78-1.7-2.32v-9C78.81,32.46,85.9,27,100.38,27c4,0,10.86,1.12,13.91,2.58.61.29.72-.1.29-.43-3.1-2.36-9.61-4.18-14.2-4.18-14.22,0-21.43,5.75-26.66,11.63V25.61h-.64c-.7.31-3.31,1.44-4.2,1.75v.74c1.38-.26,1.87.09,1.87,2.21v9.78c-3.92,4.84-7.14,9-12.72,9-5.13,0-9.2-4.09-9.2-11.28,0-6,2.89-10,7.44-10.82v1.88c0,1.53-.44,2-1.69,2.32v.62h6.35v-.62c-1.27-.35-1.7-.79-1.7-2.32v-2c4.33.39,6.15,3.2,7.39,6.74h.67V25.89h-.75A2.27,2.27,0,0,1,63.47,27a11.65,11.65,0,0,0-4.24-1.16V8.35h-.64a5.27,5.27,0,0,1-1.79,1A7.17,7.17,0,0,0,52.55,8c-4.51,0-8,3.89-8,9.17"/></clipPath><linearGradient id="linear-gradient" x1="-42.24" y1="-239.39" x2="-41.71" y2="-239.39" gradientTransform="matrix(0, -78.15, -78.15, 0, -18629.3, -3251.45)" gradientUnits="userSpaceOnUse"><stop offset="0" stop-color="#2387c7"/><stop offset="1" stop-color="#1d4790"/></linearGradient><clipPath id="clip-path-2"><path class="cls-1" d="M81.13,20.4c0-2.16,1.61-3.88,6.26-5.62v6.39a5.6,5.6,0,0,1-4,1.69,2.25,2.25,0,0,1-2.3-2.46m-2.3-8.52c0,.89.38,1.63,1.52,1.63a1.33,1.33,0,0,0,1.49-1.6c-.22-1.88.57-3,2.52-3,2.5,0,3,1,3,3.88v1c-7.06,2.25-9.28,4.36-9.28,7.47a3.68,3.68,0,0,0,.06.61,3.31,3.31,0,0,1-1.77,1c-.64,0-1-.3-1-1.59V8.35H70.73V9c1.26.35,1.69.79,1.69,2.31v9.37a5,5,0,0,1-3.75,2c-2,0-2.85-.75-2.85-3V8.35H61.15V9c1.26.35,1.69.79,1.69,2.31v8.65c0,3.53,1.85,5,4.1,5A7.11,7.11,0,0,0,72.42,22c0,2.14,1.09,3,2.45,3s2.59-1.09,3.56-2.26A3.92,3.92,0,0,0,82,24.92a8,8,0,0,0,5.42-2.65c.1,1.93,1.14,2.68,2.44,2.68s2.9-1.35,3.88-2.66v-1a4.32,4.32,0,0,1-2.33,1.51c-.65,0-1-.3-1-1.59v-8.6C90.36,9.37,88.81,8,84.67,8c-3.7,0-5.84,1.88-5.84,3.92"/></clipPath><linearGradient id="linear-gradient-2" x1="-42.25" y1="-239.42" x2="-41.72" y2="-239.42" gradientTransform="matrix(0, -78.15, -78.15, 0, -18634, -3251.85)" xlink:href="#linear-gradient"/><clipPath id="clip-path-3"><path class="cls-1" d="M79.94,46c0-2.15,1.61-3.88,6.26-5.61v6.39a5.61,5.61,0,0,1-4,1.69A2.25,2.25,0,0,1,79.94,46m-2.31-8.52c0,.89.39,1.63,1.53,1.63a1.33,1.33,0,0,0,1.48-1.6c-.23-1.87.58-3,2.52-3,2.51,0,3,1,3,3.88v1c-7.07,2.25-9.28,4.36-9.28,7.47a3.79,3.79,0,0,0,3.85,3.66,8,8,0,0,0,5.44-2.65c.09,1.94,1.14,2.68,2.44,2.68s2.9-1.35,3.88-2.66v-1a4.29,4.29,0,0,1-2.34,1.51c-.64,0-1-.3-1-1.59v-8.6c0-3.28-1.55-4.69-5.69-4.69-3.69,0-5.84,1.87-5.84,3.92"/></clipPath><linearGradient id="linear-gradient-3" x1="-42.25" y1="-239.34" x2="-41.72" y2="-239.34" gradientTransform="matrix(0, -78.15, -78.15, 0, -18620.25, -3251.75)" xlink:href="#linear-gradient"/><clipPath id="clip-path-4"><path class="cls-1" d="M32.63,5.6l4.07,9.46c-3.4.09-7,.84-9.33,2.48ZM34.16,0h-.67L24.1,21.34c-.66,1.49-1.18,2.19-2.65,2.54v.62h5.14v-.62c-1.16-.35-1.6-1-.93-2.49,1.26-2.87,5.39-5,11.6-5l2.15,5c.66,1.53.28,2.14-.88,2.49v.62H46v-.62c-1.47-.35-2.05-1-2.7-2.54L34.18,0Z"/></clipPath><linearGradient id="linear-gradient-4" x1="-42.25" y1="-239.91" x2="-41.72" y2="-239.91" gradientTransform="matrix(0, -78.15, -78.15, 0, -18716.39, -3251.65)" xlink:href="#linear-gradient"/><clipPath id="clip-path-5"><path class="cls-1" d="M106.62,46c0-2.15,1.61-3.88,6.26-5.61v6.39a5.61,5.61,0,0,1-4,1.69A2.25,2.25,0,0,1,106.62,46m-2.31-8.52c0,.89.38,1.63,1.52,1.63a1.34,1.34,0,0,0,1.49-1.6c-.22-1.87.58-3,2.52-3,2.5,0,3,1,3,3.88v1c-7.07,2.25-9.28,4.36-9.28,7.47a3.79,3.79,0,0,0,3.86,3.66,8.05,8.05,0,0,0,5.43-2.65c.09,1.94,1.14,2.68,2.44,2.68s2.91-1.35,3.88-2.66v-1a4.28,4.28,0,0,1-2.34,1.51c-.64,0-1-.3-1-1.59v-8.6c0-3.28-1.55-4.69-5.69-4.69-3.69,0-5.84,1.87-5.84,3.92"/></clipPath><linearGradient id="linear-gradient-5" x1="-42.25" y1="-239.03" x2="-41.72" y2="-239.03" gradientTransform="matrix(0, -78.15, -78.15, 0, -18570, -3251.75)" xlink:href="#linear-gradient"/><clipPath id="clip-path-6"><path class="cls-1" d="M97.21,36.46V33.58h-.64c-.7.31-3.31,1.44-4.2,1.75v.74c1.37-.27,1.87.09,1.87,2.2v8.9c0,1.53-.43,2-1.69,2.32v.63H98.9v-.63c-1.26-.35-1.69-.78-1.69-2.32V38a9.07,9.07,0,0,1,1.48-1.78,1.83,1.83,0,0,1,2.63.46,1.57,1.57,0,0,0,2.73-1c0-1.4-.95-2.14-2.38-2.14s-3.28,1.39-4.46,2.9"/></clipPath><linearGradient id="linear-gradient-6" x1="-42.25" y1="-239.19" x2="-41.72" y2="-239.19" gradientTransform="matrix(0, -78.15, -78.15, 0, -18595, -3251.98)" xlink:href="#linear-gradient"/><clipPath id="clip-path-7"><path class="cls-1" d="M0,24.54C4.85,44.31,28.79,49.32,32.76,38.68a13.46,13.46,0,0,0,7.72-2.19l.32-.83a14.87,14.87,0,0,1-8,2.34c-1.5-9.42-11-15-22.38-15A37.53,37.53,0,0,0,0,24.54"/></clipPath><radialGradient id="radial-gradient" cx="-46.74" cy="-331.95" r="0.53" gradientTransform="matrix(39.85, 0, 0, -39.85, 1889.19, -13198.88)" gradientUnits="userSpaceOnUse"><stop offset="0" stop-color="#bacd50"/><stop offset="0.19" stop-color="#9fc250"/><stop offset="0.74" stop-color="#55a34e"/><stop offset="1" stop-color="#38974e"/></radialGradient><clipPath id="clip-path-8"><path class="cls-1" d="M40.48,36.49a7.34,7.34,0,0,1-.16,5.12c-6.65-1.84-15.25,5.5-15.51,18,15.56-.51,20.39-13.41,16-17.8.81-1.73,1-4.58,0-6.19Z"/></clipPath><radialGradient id="radial-gradient-2" cx="-72.37" cy="-375.92" r="0.53" gradientTransform="matrix(24.55, 0, 0, -24.55, 1811.28, -9185.46)" xlink:href="#radial-gradient"/><clipPath id="clip-path-9"><path class="cls-1" d="M10.16,37.38c3,3.76,10.56,6.29,14,5.73,3.14-.5,3.12-2.73,1.69-3.89-1.23-1-4-1.26-6.24-.68-2.11.54-6.15.06-8.31-2a1.33,1.33,0,0,0-.86-.42c-.54,0-.79.59-.29,1.21"/></clipPath><radialGradient id="radial-gradient-3" cx="-128.97" cy="-476.03" r="0.53" gradientTransform="matrix(13.15, 0, 0, -13.15, 1718.5, -6220.44)" gradientUnits="userSpaceOnUse"><stop offset="0" stop-color="#d5ecf5"/><stop offset="0.48" stop-color="#78c1e5"/><stop offset="0.83" stop-color="#39a4da"/><stop offset="1" stop-color="#2199d6"/></radialGradient><clipPath id="clip-path-10"><path class="cls-1" d="M31.4,59.59c2.68,2.13,6.59-2.6,6.44-7.18h-.36c-3.67,0-8.82,5-6.08,7.19"/></clipPath><radialGradient id="radial-gradient-4" cx="-146.71" cy="-504.11" r="0.53" gradientTransform="matrix(11.57, 0, 0, -11.57, 1731.27, -5772.77)" xlink:href="#radial-gradient-3"/></defs><title>sns</title><g id="Layer_2" data-name="Layer 2"><g id="レイヤー_1" data-name="レイヤー 1"><g class="cls-2"><rect class="cls-3" x="44.54" y="8.02" width="70.47" height="42.49"/></g><g class="cls-4"><rect class="cls-5" x="61.15" y="7.96" width="32.56" height="17"/></g><g class="cls-6"><rect class="cls-7" x="76.93" y="33.57" width="15.6" height="17"/></g><g class="cls-8"><rect class="cls-9" x="21.45" width="24.55" height="24.5"/></g><g class="cls-10"><rect class="cls-11" x="103.6" y="33.57" width="15.6" height="17"/></g><g class="cls-12"><rect class="cls-13" x="92.38" y="33.56" width="11.67" height="16.55"/></g><g class="cls-14"><rect class="cls-15" y="23.02" width="40.8" height="26.3"/></g><g class="cls-16"><rect class="cls-17" x="24.81" y="35.66" width="20.39" height="23.99"/></g><path class="cls-18" d="M5.17,28.72a.18.18,0,0,0,0,.26c6,4.93,18,9,24.23,9.26a.19.19,0,1,0,0-.37c-6.08-.22-18.14-4.36-24-9.17a.18.18,0,0,0-.26,0"/><g class="cls-19"><rect class="cls-20" x="9.66" y="36.17" width="17.65" height="7.5"/></g><path class="cls-18" d="M10.7,37.17a.16.16,0,0,0,0,.22A16.29,16.29,0,0,0,16.4,41a.16.16,0,0,0,.2-.11.16.16,0,0,0-.1-.2,16.07,16.07,0,0,1-5.58-3.51.16.16,0,0,0-.23,0"/><path class="cls-18" d="M20.7,39c2.41-.36,4.59.47,5.08,1.29s-.21,1.74-.84.81c-.78-1.16-2-1.4-4-1.51-.64,0-.64-.52-.19-.59"/><path class="cls-18" d="M39.76,43.19C38,47,32.67,53.57,28.39,56.45a.18.18,0,0,0-.06.26.2.2,0,0,0,.26,0c4.33-2.92,9.74-9.61,11.51-13.42a.19.19,0,0,0-.09-.25.2.2,0,0,0-.25.09"/><g class="cls-21"><rect class="cls-22" x="28.66" y="52.4" width="9.34" height="9.32"/></g><path class="cls-18" d="M32.42,59.68c1.24.53,3.29-1.26,4.12-2.88.21-.41-.12-.43-.32-.13-.68,1-1.88,2.13-2.71,2-1.33-.2-1.68.74-1.09,1"/><path class="cls-18" d="M36.46,53.15a7.89,7.89,0,0,0-3.28,1.76.16.16,0,0,0,0,.22.15.15,0,0,0,.22,0,7.78,7.78,0,0,1,3.08-1.66.16.16,0,0,0,.14-.17.17.17,0,0,0-.18-.14"/><path class="cls-23" d="M171.38,8.06a22.49,22.49,0,1,0,22.5,22.49A22.51,22.51,0,0,0,171.38,8.06Z"/><path class="cls-24" d="M171.95,26.43a19.94,19.94,0,0,1-13.6-6.93,7,7,0,0,0,2.18,8.85,13.67,13.67,0,0,1-3.18-.77c.2,5.16,5.48,6.43,5.48,6.43a9.84,9.84,0,0,1-3,.15,6.93,6.93,0,0,0,6.13,4.4c-3.6,3.57-9.8,2.8-9.8,2.8a19.73,19.73,0,0,0,19.41.61,18.8,18.8,0,0,0,9.3-17.19,10.44,10.44,0,0,0,3.21-3.26,19,19,0,0,1-3.64.93,6.47,6.47,0,0,0,2.8-3.6,17.56,17.56,0,0,1-4.1,1.57A6.43,6.43,0,0,0,176,18.69C170.8,20.8,171.95,26.43,171.95,26.43Z"/><path class="cls-25" d="M227.5,8.3A22.5,22.5,0,1,0,250,30.79,22.52,22.52,0,0,0,227.5,8.3Z"/><path class="cls-24" d="M231.71,20.59l3.89,0V15.26a26.26,26.26,0,0,0-7.37.05c-5,1.22-4.91,6.48-4.91,6.48v5.33h-5V33h5l0,14.87h6.12V33h5.23l.56-5.88h-5.79V22.81A2.18,2.18,0,0,1,231.71,20.59Z"/><path class="cls-26" d="M281.65,8.1a22.49,22.49,0,1,0,22.5,22.49A22.52,22.52,0,0,0,281.65,8.1Z"/><path class="cls-18" d="M281.59,16.44c-8.81,0-16,5.78-16,12.91,0,6.41,5.76,11.81,13.34,12.73,2.35.29,1.77,1.92,1.41,3.22-.17.63-.36.91,0,1.19s.62,0,1.09-.16c2.88-1,9.43-5.66,12.11-8.44,2.34-2.42,4-5.26,4-8.54C297.56,22.22,290.41,16.44,281.59,16.44Zm-6,16.52h-3.23a.79.79,0,0,1-.79-.79V26.5a.79.79,0,1,1,1.59,0v4.87h2.44a.79.79,0,1,1,0,1.59Zm2.95-.79a.79.79,0,1,1-1.59,0V26.5a.79.79,0,1,1,1.59,0Zm7.3.07a.79.79,0,0,1-.54.75.72.72,0,0,1-.26,0,.79.79,0,0,1-.63-.3l-3-3.9v3.34a.79.79,0,1,1-1.58,0V26.5A.79.79,0,0,1,281.2,26l3,3.91V26.38a.79.79,0,0,1,1.59,0Zm5.11-3.93a.79.79,0,0,1,0,1.59h-2.31v1.48h2.79a.79.79,0,1,1,0,1.59h-3.58a.79.79,0,0,1-.8-.79V26.5a.79.79,0,0,1,.8-.8h3.66a.79.79,0,0,1,0,1.59h-2.87v1Z"/></g></g></svg>