<svg xmlns="http://www.w3.org/2000/svg" viewBox="0 0 310.71 187.97"><defs><style>.cls-1,.cls-3{fill:#fff;}.cls-1,.cls-2{stroke:#006cb7;stroke-width:0.68px;}.cls-1,.cls-2,.cls-6{stroke-miterlimit:10;}.cls-2,.cls-5{fill:#006cb7;}.cls-4{fill:#231f20;}.cls-6{fill:none;stroke:#fff;stroke-width:1.33px;}</style></defs><title>telephone</title><g id="Layer_2" data-name="Layer 2"><g id="レイヤー_1" data-name="レイヤー 1"><rect class="cls-1" x="0.34" y="0.34" width="310.02" height="187.29"/><line class="cls-1" x1="310.36" y1="106.42" x2="0.34" y2="106.42"/><rect class="cls-2" x="0.34" y="0.34" width="310.02" height="26.01"/><path class="cls-3" d="M47.79,13.49c.16,0,.21.08.25.22a1.88,1.88,0,0,0,.44.95,3.06,3.06,0,0,0,2.26.7,16.89,16.89,0,0,0,4-.46l.14,0c.23,0,.25.42.25.75s0,.42-.26.49a23.08,23.08,0,0,1-3.89.38c-1.33,0-2.77-.2-3.59-1.35A2.85,2.85,0,0,1,46.88,14C46.88,13.68,47.78,13.49,47.79,13.49Zm.95-5a8.18,8.18,0,0,0,2.51.34,11.27,11.27,0,0,0,2.11-.2h.16c.29,0,.27.51.27.75s0,.42-.27.46a16.64,16.64,0,0,1-2,.1,11.59,11.59,0,0,1-3.3-.39.25.25,0,0,1-.18-.26,3.52,3.52,0,0,1,.12-.62c0-.13.08-.25.23-.25A1.52,1.52,0,0,1,48.74,8.5Zm7.14.57c0,.17-.38.52-.55.52s-.16-.1-.29-.26A.74.74,0,0,0,55,9.21c-.23-.26-.47-.51-.71-.75-.05-.05-.12-.12-.12-.18s.39-.48.53-.48A5.18,5.18,0,0,1,55.88,9.07ZM57,8.12c0,.17-.39.52-.56.52s-.13-.08-.18-.13a11.14,11.14,0,0,0-.91-1c-.05-.05-.12-.12-.12-.18s.4-.47.53-.47A5.18,5.18,0,0,1,57,8.12Z"/><path class="cls-3" d="M65.1,10.29a.12.12,0,0,0,.13.13c.19,0,.51,0,.51.18s-.08.12-.18.18-.16.33-.16.77v4.56c0,.49,0,1,0,1.47s-.13.47-.6.47-.6,0-.6-.47,0-1,0-1.47V11.68c0-.08,0-.16-.12-.16a.14.14,0,0,0-.1.05A16.7,16.7,0,0,1,60,14.92a1.29,1.29,0,0,1-.46.2c-.25,0-.57-.52-.57-.73s.14-.21.25-.27a15.16,15.16,0,0,0,5.72-5.67.38.38,0,0,0,0-.12c0-.18-.2-.19-.23-.19H61.06l-1.59,0c-.3,0-.31-.13-.31-.53s0-.55.31-.55l1.59,0h7.62l1.59,0c.3,0,.3.14.3.55s0,.53-.3.53l-1.59,0H66s0,0,0,0a.51.51,0,0,0,.14.06c.18.05.29.12.29.2s-.09.14-.17.17-.19.1-.29.27a13.55,13.55,0,0,1-.81,1.31A.16.16,0,0,0,65.1,10.29Zm4.78,4.59c-.14,0-.21-.1-.29-.21a26,26,0,0,0-3.13-3.3c-.08-.08-.18-.16-.18-.27s.43-.58.64-.58a.45.45,0,0,1,.3.16,20.61,20.61,0,0,1,1.64,1.59,22.89,22.89,0,0,1,1.57,1.81.35.35,0,0,1,.1.22C70.54,14.49,70.1,14.88,69.89,14.88Z"/><path class="cls-3" d="M74.52,14.18c-.25,0-.34.1-.35.35s0,.39,0,.6-.12.31-.55.31-.53,0-.53-.31,0-.85,0-1.26V9c0-.33,0-.65,0-1s.06-.65.51-.65h2.25l.64,0c.42,0,.62.09.62.61,0,.34,0,.68,0,1v4.46c0,.42,0,.83,0,1.25S77,15,76.6,15s-.53,0-.53-.32v-.23c0-.21-.1-.3-.31-.3ZM76.08,8.7a.34.34,0,0,0-.35-.36H74.52a.37.37,0,0,0-.36.36V9.91a.37.37,0,0,0,.36.37h1.21a.34.34,0,0,0,.35-.37Zm-.35,4.5a.35.35,0,0,0,.35-.37V11.55c0-.22-.13-.32-.35-.35H74.52a.34.34,0,0,0-.36.35v1.29a.37.37,0,0,0,.36.37Zm4.08.35c-.26,0-.36.09-.4.34a7.35,7.35,0,0,1-1.82,3.89c-.1.1-.22.25-.38.25s-.7-.43-.7-.66.12-.21.23-.33c1.51-1.52,1.74-3.05,1.74-5.11V8.85c0-.38,0-.75,0-1.13s.17-.6.62-.6h3.54c.44,0,.62.12.62.59s0,.77,0,1.14v6.75c0,.33,0,.65,0,1,0,1.37-.88,1.48-2,1.48-.22,0-.65,0-.65-.84,0-.17.06-.27.25-.27s.38,0,.6,0c.77,0,.77-.22.77-1V13.92c0-.26-.1-.37-.36-.37Zm2-3.69a.37.37,0,0,0,.36-.37v-1a.34.34,0,0,0-.36-.35h-2a.35.35,0,0,0-.36.35v1a.37.37,0,0,0,.36.37Zm-2,.92c-.26,0-.36.11-.36.35v1.12c0,.25.1.36.35.36h2c.26,0,.36-.1.36-.36V11.13c0-.25-.1-.35-.36-.35Z"/><path class="cls-3" d="M90.76,7.12c.06,0,.16.07.16.16s-.08.13-.18.23a5.63,5.63,0,0,0-.38,1.17c0,.06-.05.21-.05.25a.15.15,0,0,0,.16.15,9.09,9.09,0,0,0,.9-.23.57.57,0,0,1,.14,0c.2,0,.22.69.22.84s-.16.3-1.43.53c-.43.08-.42.14-.56.55a31,31,0,0,1-1.55,3.59c-.2.38-.39.75-.61,1.13-.05.09-.1.16-.22.16s-.91-.3-.91-.53a1.7,1.7,0,0,1,.21-.44,21.54,21.54,0,0,0,1.61-3.12,6.4,6.4,0,0,0,.32-.88.15.15,0,0,0-.16-.16l-.26,0c-.21,0-1.17.12-1.34.12s-.26-.12-.3-.34a4.5,4.5,0,0,1-.06-.59c0-.16.08-.2.22-.2H87a6.18,6.18,0,0,0,2-.22,2.74,2.74,0,0,0,.27-.82A7.13,7.13,0,0,0,89.49,7c0-.09,0-.21.12-.21A10.24,10.24,0,0,1,90.76,7.12Zm1.94,3.77c.12,0,.22.09.22.22s0,.44,0,.7c0,.69.05,2,.13,2.65,0,.23.12.3.33.38a8,8,0,0,1,1.31.61c.16.09.75.42.75.59s-.38.75-.65.75a.66.66,0,0,1-.33-.17,4.25,4.25,0,0,0-1.22-.69c-.14,0-.16.21-.17.33-.09,1-.78,1.37-1.7,1.37s-2.18-.53-2.18-1.65,1.12-1.49,2.07-1.49h.48c.13,0,.25,0,.25-.18,0-.38-.18-2.7-.25-3.13V11c0-.17.1-.23.26-.23A3.35,3.35,0,0,1,92.7,10.89Zm-2.5,5.06c0,.47.66.71,1.05.71.56,0,.81-.29.81-.83,0-.32,0-.44-.79-.44C90.9,15.39,90.2,15.45,90.2,15.94Zm5.72-5c0,.26-.58.69-.78.69s-.17-.09-.23-.18a7,7,0,0,0-1.59-1.64c-.08-.05-.17-.13-.17-.22s.48-.69.69-.69A6.26,6.26,0,0,1,95.92,11Z"/><path class="cls-3" d="M100.38,15.62c-.16,0-.21.06-.35.42a10.24,10.24,0,0,1-1.12,1.85.36.36,0,0,1-.3.18c-.21,0-.71-.25-.71-.48s.1-.22.17-.3a7.92,7.92,0,0,0,1.22-2.07c0-.08.06-.18.17-.18a6.42,6.42,0,0,1,.88.25c.09,0,.23.06.23.19S100.46,15.61,100.38,15.62Zm4-7.74h2.76l1.34,0c.26,0,.27.1.27.51s0,.49-.27.49l-1.34,0h-2.76c-.26,0-.36.1-.36.36V9.7c0,.25.1.35.36.35h2.76c.38,0,.75.05.75.51,0,.25,0,.49,0,.74v2.12c0,.13,0,.71,0,.78,0,.27-.13.29-.56.29s-.47,0-.52-.16-.08-.17-.21-.17h-5.85c-.13,0-.16.07-.21.18s-.17.14-.52.14-.55,0-.55-.29,0-.53,0-.78V11.29c0-.23,0-.47,0-.71,0-.48.35-.53.74-.53h2.35c.26,0,.36-.11.36-.37v-2a5.62,5.62,0,0,0-.05-.94.52.52,0,0,1,0-.14c0-.14.09-.17.22-.17s.62.05.83.06.43,0,.43.18-.09.12-.19.18-.18.25-.17.65C104,7.79,104.13,7.88,104.36,7.88Zm2.09,5.34a.36.36,0,0,0,.36-.37V11.33a.35.35,0,0,0-.36-.35h-5.56a.35.35,0,0,0-.36.35v1.53c0,.23.14.37.36.37Zm-4.65,3.82a11.79,11.79,0,0,0-.17-1.48s0-.16,0-.2c0-.23.4-.38.64-.38.42,0,.4.31.51,1.11a13.1,13.1,0,0,1,.12,1.4c0,.39-.32.51-.65.51S101.8,17.76,101.8,17.05Zm3.42,1c-.32,0-.36-.17-.44-.66a9.59,9.59,0,0,0-.48-1.85.53.53,0,0,1,0-.2c0-.26.46-.37.66-.37s.38.25.55.9a17.62,17.62,0,0,1,.39,1.78C105.86,17.95,105.44,18.05,105.22,18.05Zm3.39.08c-.2,0-.3-.17-.36-.32a11.94,11.94,0,0,0-1.14-2,.51.51,0,0,1-.13-.29c0-.2.49-.43.7-.43s.19.09.27.18c.19.27.48.7.65,1a7.84,7.84,0,0,1,.69,1.42C109.29,17.92,108.81,18.13,108.61,18.13Z"/><path class="cls-3" d="M114,8c.08,0,.22.11.22.21s0,.1-.1.13c-.27.13-.34.21-.51.65a13.22,13.22,0,0,0-.68,4c0,.26.05,1.86.34,1.86.1,0,.19-.2.35-.59.06-.16.21-.64.36-.64s.42.17.42.31a1.34,1.34,0,0,1-.06.25,11.05,11.05,0,0,0-.53,2c0,.18,0,.37,0,.53s-.17.38-.4.48a1.43,1.43,0,0,1-.4.12c-.18,0-.3-.26-.36-.4a9.3,9.3,0,0,1-.77-3.94,15.57,15.57,0,0,1,.61-4.17c.1-.37.22-.73.31-1.09,0-.09.05-.21.16-.21A8.23,8.23,0,0,1,114,8Zm5.19-.38c.06,0,.12.05.12.13s-.07.14-.12.21A2,2,0,0,0,119,9v.3c0,.29,0,.48.27.48a10.09,10.09,0,0,0,1.38-.34.49.49,0,0,1,.19-.05c.25,0,.33.77.33.88,0,.27-.38.32-1.69.52-.23,0-.43.08-.43.39s.09,2.46.12,2.87.17.36.42.48,1.77.92,1.77,1.34-.38.75-.61.75-.26-.13-.34-.21a4.19,4.19,0,0,0-1.12-.8c-.13,0-.16.1-.17.21-.16.91-1,1.21-1.81,1.21s-2.09-.44-2.09-1.57,1-1.52,1.94-1.52a5.16,5.16,0,0,1,.62,0h.13c.18,0,.25-.09.25-.26,0-.44-.06-1.79-.09-2.27,0-.14,0-.47-.3-.47-.06,0-.95.05-1.44.05a10.29,10.29,0,0,1-1.31-.07c-.17-.05-.17-.62-.17-.79s0-.3.18-.3l.26,0c.56.05,1.16.09,1.72.09s.95,0,.95-.3-.12-1.6-.17-1.95V7.6a.14.14,0,0,1,.16-.16A10.49,10.49,0,0,1,119.14,7.65ZM118,14.94a3,3,0,0,0-.77-.12c-.35,0-1.07.13-1.07.6s.7.65,1.08.65c.57,0,.92-.23.92-.85A.29.29,0,0,0,118,14.94Z"/><path class="cls-3" d="M127.11,14.36A17.3,17.3,0,0,0,125,15.89c-.05,0-.12.11-.18.11-.23,0-.64-.74-.64-1s.12-.17.26-.25c.73-.43,1.42-.91,2.13-1.34.53-.33.6-.35.6-.7s0-1,0-1.46c0-.17-.08-.31-.27-.31l-1.16.2a1.65,1.65,0,0,1-.35,0c-.14,0-.33,0-.33-.77,0-.34.05-.34.3-.35.47,0,1-.08,1.43-.13.21,0,.36-.09.42-.3s.05-1.22.05-1.35,0-.32,0-.47,0-.09,0-.13a.15.15,0,0,1,.16-.17c.17,0,.87.16,1.08.2s.23.05.23.15-.09.17-.16.22a1.41,1.41,0,0,0-.22.83,3.17,3.17,0,0,1,0,.34v.14a.18.18,0,0,0,.2.2,8.71,8.71,0,0,0,1-.26.93.93,0,0,1,.21-.05c.23,0,.27.65.27.83s-.16.32-1.25.51c-.57.09-.52.19-.52,1.29,0,.26,0,.51.17.51a.85.85,0,0,0,.29-.1,6.4,6.4,0,0,1,2.35-.53,2.53,2.53,0,0,1,2.77,2.37,2.15,2.15,0,0,1-1,1.87,5.44,5.44,0,0,1-2.69.53c-.19,0-.45,0-.52-.1a2.52,2.52,0,0,1-.2-.82c0-.13.05-.25.2-.25a8.53,8.53,0,0,0,1.09.13c.86,0,2-.29,2-1.35s-.94-1.37-1.73-1.37a5.33,5.33,0,0,0-2.51.71.42.42,0,0,0-.16.34c0,.21,0,.7.05.94s.12,1.52.12,1.61c0,.6-.66.83-1,.83s-.36-.26-.46-.47a2.66,2.66,0,0,0-.77-1c-.07-.05-.16-.13-.16-.22a.24.24,0,0,1,.25-.22c.13,0,.52.35.69.43a.41.41,0,0,0,.22.12c.07,0,.08-.05.08-.09s-.05-.54-.05-.73C127.25,14.55,127.27,14.36,127.11,14.36Zm5.37-5c.3.22.95.78,1.29,1a3.33,3.33,0,0,1,.68.66c0,.21-.44.73-.66.73s-.19-.09-.27-.16a19.27,19.27,0,0,0-1.68-1.43c-.09-.08-.22-.16-.22-.29s.46-.68.64-.68A.4.4,0,0,1,132.47,9.37Z"/><path class="cls-3" d="M139.74,8.66a.6.6,0,0,0-.56.25c-.25.31-1.57,1.78-1.9,1.78-.16,0-.62-.33-.62-.51s.13-.22.29-.35a11.05,11.05,0,0,0,2.65-3.32c0-.08.08-.14.16-.14a5.19,5.19,0,0,1,.7.2c.22.06.43.12.43.23s-.12.14-.19.16-.21.08-.34.3l-.16.25a.31.31,0,0,0,0,.1c0,.12.09.14.18.16h5.45l1.5,0c.27,0,.29.1.29.47s0,.48-.29.48l-1.5,0Zm2.08,6.14a.33.33,0,0,0,.16.26c.27.22,1.6,1.28,1.6,1.59s-.27.66-.57.66-.29-.14-.39-.25a17.87,17.87,0,0,0-1.34-1.27.4.4,0,0,0-.25-.09.47.47,0,0,0-.27.12,13.21,13.21,0,0,1-2.92,2,.81.81,0,0,1-.35.13c-.22,0-.56-.52-.56-.7s.22-.25.43-.35a11.89,11.89,0,0,0,2.55-1.69.23.23,0,0,0,.1-.2.28.28,0,0,0-.13-.22,12,12,0,0,0-1.52-.81c-.14-.06-.38-.14-.38-.33s.34-.62.55-.62a10.61,10.61,0,0,1,2,1.05.5.5,0,0,0,.23.08.42.42,0,0,0,.29-.16,7,7,0,0,0,.81-1.23c.05-.09.14-.31.26-.31a4.42,4.42,0,0,1,.78.35c.1.05.3.13.3.26s-.18.13-.27.14-.2.17-.26.26a10.82,10.82,0,0,1-.78,1.12A.33.33,0,0,0,141.82,14.8ZM139.46,12c-.52,0-1,0-1.56,0-.26,0-.29-.12-.29-.49s0-.49.29-.49c.52,0,1,0,1.56,0h5.25l.81,0c.43,0,.87,0,.87.54,0,.33-.09,1.24-.09,2,0,.46.12,3.26.66,3.26.38,0,.52-1.42.56-1.7s0-.32.3-.32.61.1.61.4a6.79,6.79,0,0,1-.22,1.35c-.17.66-.49,1.4-1.3,1.4a1.18,1.18,0,0,1-1.12-.83,11,11,0,0,1-.56-3.87c0-.34,0-.66,0-1s-.1-.34-.34-.34Zm1.2-1.75-1.36,0c-.27,0-.27-.16-.27-.44s0-.46.27-.46c.46,0,.91,0,1.36,0h3.82c.46,0,.91,0,1.37,0,.27,0,.26.17.26.46s0,.44-.26.44l-1.37,0Z"/><path class="cls-3" d="M152.27,14.18h-.69c-.34,0-.55-.09-.55-.48,0-.17,0-.35,0-.52v-2.3c0-.18,0-.35,0-.53,0-.37.19-.47.53-.47h.95c.22,0,.31-.1.31-.33V9.15c0-.22-.09-.31-.31-.31h-.23l-1.22,0c-.26,0-.26-.13-.26-.46s0-.44.26-.44l1.22,0h.18c.26,0,.36-.1.36-.35a4.44,4.44,0,0,0,0-.83.37.37,0,0,1,0-.12c0-.13.09-.16.21-.16l.47,0h.18c.27,0,.47,0,.47.18s-.09.13-.17.18-.16.21-.16.71c0,.25.13.34.36.34h.27l1.22,0c.26,0,.26.13.26.46s0,.44-.26.44l-1.22,0h-.32c-.22,0-.31.09-.31.31v.43c0,.22.09.33.31.33h1c.34,0,.53.09.53.47v3.37c0,.36-.19.47-.53.47h-1c-.22,0-.31.09-.31.31v.39c0,.22.09.31.31.31h.43l1.26,0c.26,0,.26.13.26.46s0,.44-.26.44l-1.26,0h-.38c-.23,0-.35.09-.35.34,0,.44,0,.87,0,1.31s-.1.4-.51.4-.51,0-.51-.4,0-.87,0-1.31c0-.25-.12-.34-.36-.34h-.38l-1.26,0c-.26,0-.26-.12-.26-.44s0-.46.26-.46l1.26,0h.43c.22,0,.31-.09.31-.31v-.39c0-.22-.09-.31-.31-.31Zm-.05-3.47a.3.3,0,0,0-.31.31v.31a.3.3,0,0,0,.31.31h.35a.3.3,0,0,0,.31-.31V11a.3.3,0,0,0-.31-.31Zm-.31,2.35a.3.3,0,0,0,.31.31h.35a.3.3,0,0,0,.31-.31v-.36a.29.29,0,0,0-.31-.31h-.35a.29.29,0,0,0-.31.31Zm2.86-2a.3.3,0,0,0-.32-.31H154a.3.3,0,0,0-.33.31v.31a.3.3,0,0,0,.33.31h.39a.3.3,0,0,0,.32-.31Zm-.32,2.35a.3.3,0,0,0,.32-.31v-.36a.3.3,0,0,0-.32-.31H154a.3.3,0,0,0-.33.31v.36a.3.3,0,0,0,.33.31Zm3.38,1.44-1.23,0c-.29,0-.29-.17-.29-.49s0-.49.29-.49l1.23,0H158c.26,0,.36-.11.36-.37v-.3a6.67,6.67,0,0,0,0-.88.44.44,0,0,1,0-.13c0-.13.09-.17.21-.17s.77.07.94.08.26,0,.26.16-.08.13-.18.2-.17.27-.17.68v.38c0,.26.1.37.36.37h.39l1.24,0c.29,0,.27.17.27.49s0,.49-.27.49l-1.24,0h-.39c-.26,0-.36.1-.36.36v1.21c0,.25.1.35.36.35h.51l1.48,0c.31,0,.31.16.31.52s0,.51-.31.51l-1.48,0h-2.73l-1.47,0c-.31,0-.31-.14-.31-.51s0-.52.31-.52l1.47,0H158c.26,0,.36-.1.36-.35V15.18c0-.26-.1-.36-.36-.36Zm1-3.81a.41.41,0,0,0-.26.1,10.67,10.67,0,0,1-2.24,1.33c-.29,0-.53-.44-.53-.65s.25-.27.39-.34a14.67,14.67,0,0,0,1.73-1.07.33.33,0,0,0,.14-.25A.39.39,0,0,0,158,9.9a7.92,7.92,0,0,1-.9-1.7.35.35,0,0,0-.38-.26h-.29c-.29,0-.3-.11-.3-.48s0-.48.29-.48c.51,0,1,0,1.51,0h2.6a.79.79,0,0,1,.84.72c0,.53-1.16,1.87-1.55,2.27a.39.39,0,0,0-.1.23.29.29,0,0,0,.13.23,8.36,8.36,0,0,0,1.91,1.13c.13.05.32.13.32.3s-.34.66-.56.66a1.18,1.18,0,0,1-.39-.14,9.23,9.23,0,0,1-2-1.29A.4.4,0,0,0,158.82,11Zm.09-1.61a.35.35,0,0,0,.22-.1A5.39,5.39,0,0,0,160,8c0-.09-.14-.11-.36-.11H158.3c-.13,0-.25.05-.25.21a.24.24,0,0,0,0,.1,6.42,6.42,0,0,0,.61,1A.28.28,0,0,0,158.91,9.39Z"/><path class="cls-3" d="M167.09,8.12c.08,0,.18.09.18.2s-.06.1-.18.17-.26.23-.39.56A10,10,0,0,0,166,12.8c0,.3.09,2.18.43,2.18.1,0,.18-.15.3-.43,0-.07.06-.13.09-.2.12-.25.19-.36.3-.36s.36.18.36.3a12.37,12.37,0,0,0-.49,1.9c0,.11,0,.34,0,.44a.8.8,0,0,1,0,.17c0,.25-.62.53-.83.53s-.4-.42-.51-.64a8.79,8.79,0,0,1-.78-3.91,15,15,0,0,1,.69-4.28,4.78,4.78,0,0,0,.17-.61c0-.1.05-.25.17-.25a10.23,10.23,0,0,1,1,.39Zm1.66,6.34a2.34,2.34,0,0,0,2.07.92,9.82,9.82,0,0,0,2.85-.42,1,1,0,0,1,.26-.05c.17,0,.19.2.19.69,0,.14,0,.44-.13.52a14.82,14.82,0,0,1-3,.38c-2.12,0-3-1.12-3-1.27s.35-.9.57-.9S168.72,14.41,168.76,14.46Zm.51-5.73a7.7,7.7,0,0,0,1.72.2,8.49,8.49,0,0,0,2-.25,1.4,1.4,0,0,1,.23,0c.26,0,.25.57.25.75s0,.34-.12.39a12.57,12.57,0,0,1-2.26.22,9.14,9.14,0,0,1-2.2-.26c-.14-.08-.13-.3-.13-.44,0-.38,0-.64.23-.64A1.08,1.08,0,0,1,169.27,8.73Z"/><path class="cls-3" d="M178.36,13.49c.16,0,.21.08.25.22a1.88,1.88,0,0,0,.44.95,3.06,3.06,0,0,0,2.26.7,16.89,16.89,0,0,0,4-.46l.14,0c.23,0,.25.42.25.75s0,.42-.26.49a23.08,23.08,0,0,1-3.89.38c-1.33,0-2.77-.2-3.59-1.35a2.85,2.85,0,0,1-.47-1.17C177.45,13.68,178.35,13.49,178.36,13.49Zm.95-5a8.19,8.19,0,0,0,2.51.34,11.26,11.26,0,0,0,2.11-.2h.16c.29,0,.27.51.27.75s0,.42-.27.46a16.64,16.64,0,0,1-2,.1,11.6,11.6,0,0,1-3.3-.39.25.25,0,0,1-.18-.26,3.51,3.51,0,0,1,.12-.62c0-.13.08-.25.23-.25A1.51,1.51,0,0,1,179.31,8.5Zm7.14.57c0,.17-.38.52-.55.52s-.16-.1-.29-.26a.73.73,0,0,0-.09-.12c-.23-.26-.47-.51-.71-.75-.05-.05-.12-.12-.12-.18s.39-.48.53-.48A5.18,5.18,0,0,1,186.45,9.07Zm1.16-.95c0,.17-.39.52-.56.52s-.13-.08-.18-.13a11.07,11.07,0,0,0-.91-1c-.05-.05-.12-.12-.12-.18s.4-.47.53-.47A5.18,5.18,0,0,1,187.6,8.12Z"/><path class="cls-3" d="M192.49,12.24c-.06,0-.09.05-.09.12v3.5c0,.6,0,1.21,0,1.82,0,.39-.1.43-.53.43s-.55,0-.55-.43c0-.6,0-1.21,0-1.82v-3.5s0-.06-.05-.06,0,0-.05,0A11.88,11.88,0,0,1,190,15.09c-.16.22-.22.35-.39.35s-.62-.34-.62-.56.16-.3.22-.39a13.29,13.29,0,0,0,1.9-4,.24.24,0,0,0,0-.1c0-.17-.14-.22-.29-.23h-.26l-1,0c-.27,0-.26-.17-.26-.51s0-.52.26-.52.6,0,1,0H191c.25,0,.35-.1.35-.37V7.68a6.41,6.41,0,0,0,0-.88.36.36,0,0,1,0-.12c0-.14.09-.17.21-.17s.75.05.95.08.23,0,.23.16-.06.12-.17.18-.14.27-.14.66v1.2c0,.26.1.37.35.37h.34c.36,0,.74,0,1,0s.26.18.26.52,0,.51-.26.51l-1,0h-.34c-.23,0-.35.1-.35.35a.64.64,0,0,0,.12.4,16,16,0,0,0,1.66,2c.06.06.18.17.18.27a.82.82,0,0,1-.56.58c-.27,0-1.05-1.16-1.22-1.4A.1.1,0,0,0,192.49,12.24Zm6.38,4.85h-2.64c-.17,0-.26.08-.26.25v.21c0,.34-.12.36-.53.36s-.53,0-.53-.35c0-.48,0-1,0-1.44v-7c0-.38,0-.75,0-1.13s.08-.68.57-.68h4.12c.49,0,.59.18.59.65s0,.77,0,1.16v7c0,.48,0,1,0,1.43s-.12.36-.52.36-.55,0-.55-.36c0-.07,0-.13,0-.21A.23.23,0,0,0,198.88,17.09Zm-.08-7a.35.35,0,0,0,.35-.37V8.61a.35.35,0,0,0-.35-.37h-2.48a.37.37,0,0,0-.36.37V9.77a.37.37,0,0,0,.36.37ZM196,12.68a.35.35,0,0,0,.36.35h2.48a.32.32,0,0,0,.35-.35V11.41a.34.34,0,0,0-.35-.36h-2.48a.37.37,0,0,0-.36.36Zm0,3.09a.37.37,0,0,0,.36.37h2.48a.34.34,0,0,0,.35-.37V14.32a.34.34,0,0,0-.35-.36h-2.48a.37.37,0,0,0-.36.36Z"/><path class="cls-3" d="M207.45,9.48a.24.24,0,0,0-.1,0,.37.37,0,0,1-.2.05l-1,0h-2l-1,0c-.27,0-.29-.14-.29-.46s0-.46.29-.46h4c.22,0,.25.09.27.25s0,.09.08.09a.09.09,0,0,0,.08-.05,7.26,7.26,0,0,0,.56-1.54c0-.09.05-.17.18-.17a6.26,6.26,0,0,1,.79.18c.09,0,.23.06.23.17s-.14.13-.21.16-.14.13-.22.38c0,.05,0,.12-.06.19a11.49,11.49,0,0,1-.52,1.22.27.27,0,0,1-.26.17,1.48,1.48,0,0,1-.55-.21Zm-1.66,7.88h-1.1c-.42,0-.4.08-.4.42s-.06.27-.47.27-.42,0-.42-.25,0-.55,0-.82V14.93c0-.17,0-.33,0-.49,0-.37.13-.52.51-.52h2.44c.39,0,.53.13.53.52,0,.17,0,.32,0,.49v1.64c0,.29,0,.57,0,.86s-.06.29-.44.29-.42-.06-.44-.16S205.91,17.37,205.78,17.36ZM204.5,13c-.34,0-.66,0-.82,0s-.26-.16-.26-.44,0-.43.26-.43h2.93c.27,0,.26.16.26.43s0,.44-.26.44-.46,0-.82,0Zm0-1.76c-.32,0-.69,0-.83,0s-.26-.17-.26-.44,0-.44.26-.44h2.94c.26,0,.26.16.26.44s0,.44-.26.44-.49,0-.83,0Zm.08-3.48-.9,0c-.26,0-.26-.16-.26-.44s0-.46.26-.46l.9,0h1.16l.9,0c.27,0,.26.15.26.46s0,.44-.26.44l-.9,0Zm1.4,7.32c0-.23-.13-.34-.35-.36h-1c-.22,0-.35.13-.35.36v1.07c0,.23.13.34.35.36h1c.22,0,.35-.13.35-.36Zm4.63-.2a.16.16,0,0,0-.13.1,5.54,5.54,0,0,1-2.86,3,1,1,0,0,1-.68-.7c0-.13.09-.17.31-.29a5.9,5.9,0,0,0,2.26-2.14,5.05,5.05,0,0,0,.6-2.78V12c0-.17,0-.27.21-.27a7,7,0,0,1,.75.08c.14,0,.34,0,.34.16s-.12.14-.18.18a.23.23,0,0,0-.12.23v.09c0,.21,0,.42,0,.63a3.55,3.55,0,0,0,.66,1.9,7.81,7.81,0,0,0,2.47,2.2c.06,0,.14.09.14.18s-.4.69-.65.69a1.81,1.81,0,0,1-.69-.38l-.1-.08a7,7,0,0,1-2.2-2.55A.14.14,0,0,0,210.62,14.92Zm-2.94-2.59c-.22,0-.64-.51-.64-.72s.14-.17.3-.23a5.64,5.64,0,0,0,2.26-1.82,4.39,4.39,0,0,0,.59-2.65V6.83c0-.17,0-.29.21-.29s.62.05.77.08.33,0,.33.16-.12.14-.18.18-.1.1-.12.21,0,.46,0,.66V8a1.63,1.63,0,0,0,0,.25c.34,1.65,1.68,2.56,3,3.39.09.07.17.12.17.21s-.33.69-.57.69a3.34,3.34,0,0,1-.9-.52,6.06,6.06,0,0,1-2.09-2.27.15.15,0,0,0-.14-.11.15.15,0,0,0-.13.11A5.56,5.56,0,0,1,207.68,12.33Zm1.29.83c-.09,0-.13.12-.22.35a1.45,1.45,0,0,1-.06.17,12.06,12.06,0,0,1-.49,1.12c-.06.1-.13.18-.26.18s-.7-.14-.7-.38a.38.38,0,0,1,.06-.17,6.77,6.77,0,0,0,.65-1.51c0-.11.05-.26.2-.26l.62.15c.27.08.42.11.42.22S209,13.15,209,13.16Zm5.17-5.27a.29.29,0,0,0-.27.17,10.64,10.64,0,0,1-1.09,1.33.49.49,0,0,1-.34.22c-.17,0-.68-.23-.68-.44s.17-.26.23-.32a8.5,8.5,0,0,0,1.09-1.38c0-.08.08-.16.18-.16a2.74,2.74,0,0,1,.51.18l.29.11c.08,0,.22.09.22.2S214.21,7.88,214.14,7.9ZM214,13.28c-.16,0-.18,0-.27.17a10.47,10.47,0,0,1-1,1.2c-.1.11-.2.22-.35.22s-.66-.26-.66-.47.33-.42.49-.61a5.62,5.62,0,0,0,.73-1c0-.08.08-.13.16-.13a2.65,2.65,0,0,1,.55.2L214,13c.08,0,.21.06.21.17S214.13,13.27,214,13.28Z"/><path class="cls-3" d="M223.41,8.34c0,.14-.19.13-.29.13-.25,0-.31.17-.49.26-.39.3-.75.6-1.12.9-.71.59-1.4,1.2-2.08,1.82a.83.83,0,0,0-.34.58c0,.43.66,1.12,1,1.42.86.88,1.79,1.7,2.72,2.52.16.13.51.4.51.6s-.61.83-.9.83c-.13,0-.27-.19-.36-.3-.49-.58-1-1.13-1.57-1.66-.69-.69-1.38-1.38-2-2.12a2,2,0,0,1-.6-1.31,1.47,1.47,0,0,1,.27-.87,14.6,14.6,0,0,1,1.63-1.46,19.75,19.75,0,0,0,2.41-2.25c0-.05.1-.13.18-.13s.34.21.49.36S223.41,8.21,223.41,8.34Z"/><path class="cls-3" d="M232.86,7.19c0,.07-.05.11-.09.14-.25.15-.27.26-.45.92l-.2.71a.48.48,0,0,0,0,.14.16.16,0,0,0,.17.16,3.47,3.47,0,0,0,.48-.12,7.21,7.21,0,0,0,1.14-.38,1.1,1.1,0,0,1,.35-.1c.22,0,.21.52.21.68s0,.42-.17.48a17.38,17.38,0,0,1-2.13.52c-.44.09-.48.1-.61.51a40.69,40.69,0,0,1-2.44,5.81c-.16.3-.25.51-.44.51s-.87-.34-.87-.58a1,1,0,0,1,.21-.38,28.29,28.29,0,0,0,2.46-5.32.49.49,0,0,0,0-.12.18.18,0,0,0-.2-.18c-.14,0-.84.07-1.33.07-.3,0-.44,0-.52-.13a2.58,2.58,0,0,1-.12-.78c0-.14,0-.22.2-.22s.61.07,1.16.07c.3,0,.58,0,.87,0a.4.4,0,0,0,.31-.12A10.17,10.17,0,0,0,231.4,7c0-.14,0-.31.14-.31S232.86,7,232.86,7.19Zm-.49,8.27a3.17,3.17,0,0,0,2.38.73,5.59,5.59,0,0,0,1.79-.25h.1c.22,0,.22.34.22.68s0,.46-.14.52a9.74,9.74,0,0,1-1.9.16,5.53,5.53,0,0,1-2.72-.53c-.18-.12-.62-.44-.62-.69s.47-.78.65-.78S232.31,15.4,232.36,15.46ZM234,11.13a8,8,0,0,1,2.48.35.22.22,0,0,1,.16.23,3,3,0,0,1-.16.68c-.05.12-.1.18-.23.18a.93.93,0,0,1-.25-.08,5.65,5.65,0,0,0-2-.3h-.51c-.26,0-.3-.09-.3-.3C233.22,11.08,233.38,11.13,234,11.13ZM236.52,9c0,.18-.4.51-.57.51s-.13-.08-.18-.14a13.26,13.26,0,0,0-.88-1,.28.28,0,0,1-.1-.18c0-.13.42-.45.55-.45A5.41,5.41,0,0,1,236.52,9Zm1.3-.77c0,.17-.4.51-.56.51s-.14-.08-.2-.14a11.22,11.22,0,0,0-.88-1s-.1-.1-.1-.17.42-.47.55-.47A5.2,5.2,0,0,1,237.82,8.2Z"/><path class="cls-3" d="M244,7.12c.13.21.68,1.29.85,1.6s.17.33.39.33a6.2,6.2,0,0,0,1.55-.74.7.7,0,0,1,.34-.17c.22,0,.66.62.66.8s-1.51.86-1.77,1-.33.1-.33.3a3,3,0,0,0,.33.64,15.2,15.2,0,0,0,1.87,2.85.55.55,0,0,1,.21.34c0,.27-.52.73-.75.73s-.39-.21-.56-.31a6.42,6.42,0,0,0-3.07-1.05,1.41,1.41,0,0,0-1.56,1.31c0,1.46,2,1.76,3.15,1.76.3,0,.56,0,.7,0s.25.13.25.31c0,.92-.4.83-.55.83a9.19,9.19,0,0,1-2.14-.27c-1.29-.32-2.5-1.07-2.5-2.55a2.43,2.43,0,0,1,2.67-2.37,4.66,4.66,0,0,1,2,.52.7.7,0,0,0,.16.05.11.11,0,0,0,.12-.1.65.65,0,0,0-.16-.3c-.39-.61-.74-1.21-1.09-1.83-.09-.16-.18-.26-.36-.26l-.17,0a17.73,17.73,0,0,1-3.16.51c-.23,0-.29-.08-.36-.27a1.93,1.93,0,0,1-.18-.65c0-.18.12-.18.47-.19h.25a12.67,12.67,0,0,0,2.42-.31c.12,0,.25-.09.25-.23a10.28,10.28,0,0,0-1-1.73.34.34,0,0,1-.12-.21c0-.21.9-.39,1-.39A.27.27,0,0,1,244,7.12Z"/><path class="cls-3" d="M253.16,9.17c.09,0,.25.06.25.18s-.05.13-.13.18-.17.31-.21.55a8.25,8.25,0,0,0-.09,1.26,8,8,0,0,0,.46,2.94c.18.43.68,1.26,1.2,1.26s.81-.61,1-.91c.06-.12.17-.33.32-.33s.73.43.73.63-.73,1.05-.92,1.26a1.45,1.45,0,0,1-1.09.57,2.36,2.36,0,0,1-1.82-1.25,8.31,8.31,0,0,1-1-4.48c0-.42,0-1.5.06-1.92,0-.12.05-.18.17-.18A8.76,8.76,0,0,1,253.16,9.17ZM258.67,9a4.07,4.07,0,0,1,1.68,1.53,6.88,6.88,0,0,1,.94,2.6,2.12,2.12,0,0,1,0,.4.26.26,0,0,1-.2.3,2,2,0,0,1-.62.12c-.38,0-.36-.17-.39-.42a5,5,0,0,0-1.94-3.7.23.23,0,0,1-.1-.2A.9.9,0,0,1,258.67,9Z"/><path class="cls-3" d="M268.15,15.89a1.78,1.78,0,1,1-1.78-1.78A1.78,1.78,0,0,1,268.15,15.89Zm-3,0a1.2,1.2,0,1,0,1.2-1.2A1.19,1.19,0,0,0,265.17,15.89Z"/><path class="cls-4" d="M90.53,87.12c.37,0,.73,0,.73.5,0,.19,0,.36,0,.54v.73c0,.12,0,.31,0,.44s-.14.26-.5.26-.52,0-.52-.25,0-.29,0-.46v-.55c0-.25-.1-.34-.34-.34H82.57c-.23,0-.34.1-.34.34v.52c0,.12,0,.32,0,.46s-.17.23-.5.23-.49,0-.49-.26,0-.3,0-.44v-.68c0-.21,0-.37,0-.53,0-.47.32-.52.7-.52h5.68a.52.52,0,0,0,.53-.23,10.15,10.15,0,0,0,1.16-1.75c0-.06.07-.15.16-.15s1,.37,1,.55-.1.11-.2.11a.23.23,0,0,0-.21.1c-.28.41-.23.41-.76,1.11a.19.19,0,0,0,0,.11c0,.11.09.15.17.15Zm-4.3,5.12c0,.13.11.18.22.18h3.24c.37,0,.7,0,.7.5,0,.22,0,.44,0,.68V95c0,.16,0,.62,0,.73s-.12.26-.53.26-.53,0-.53-.25c0,0,0,0,0,0,0-.17-.07-.25-.25-.25h-5.8c-.16,0-.22.07-.25.23s-.11.26-.53.26-.52,0-.52-.27c0-.07,0-.59,0-.71V93.6c0-.22,0-.44,0-.66,0-.46.31-.52.7-.52h2a.37.37,0,0,0,.42-.25c.07-.15.15-.28.21-.43a.48.48,0,0,0,0-.11c0-.16-.12-.2-.25-.21h-1c-.11,0-.15.07-.2.17s-.12.13-.48.13-.52,0-.52-.27,0-.47,0-.7v-.86c0-.2,0-.39,0-.59,0-.46.28-.53.68-.53h5.11c.39,0,.67.07.67.53,0,.2,0,.39,0,.59v.86c0,.14,0,.63,0,.7,0,.26-.15.27-.52.27s-.43,0-.49-.13-.06-.16-.19-.17H86.86c-.23,0-.3.06-.39.26s-.14.3-.21.44A.37.37,0,0,0,86.23,92.25ZM83.14,87c-.12,0-.19-.09-.25-.19-.22-.37-.48-.74-.74-1.1,0-.06-.11-.13-.11-.22s.46-.43.64-.43.38.32.6.64a3.52,3.52,0,0,1,.52.86C83.81,86.84,83.28,87,83.14,87Zm5.9,7.6a.33.33,0,0,0,.33-.33V93.6c0-.22-.12-.32-.33-.34H83.39a.35.35,0,0,0-.34.33v.7a.34.34,0,0,0,.34.33Zm-5-4.27a.28.28,0,0,0,.3.29h3.85a.28.28,0,0,0,.3-.29v-.44a.27.27,0,0,0-.3-.29H84.29a.28.28,0,0,0-.3.29ZM86.12,87c-.17,0-.26-.22-.42-.52a9.36,9.36,0,0,0-.57-.87A.58.58,0,0,1,85,85.4c0-.21.47-.44.64-.44s.37.33.64.75a3.92,3.92,0,0,1,.48.89C86.79,86.83,86.27,87,86.12,87Z"/><path class="cls-4" d="M102,85.25s.9.37.9.53-.11.11-.16.11-.18,0-.23.1c-.19.31-.37.68-.57,1a.2.2,0,0,0,0,.11c0,.12.1.16.2.17h.09c.49,0,1,0,1.49,0,.26,0,.26.14.26.44s0,.43-.26.43c-.49,0-1,0-1.49,0h-.79s0,0,0,0,0,0,0,0a.11.11,0,0,1,0,.07c0,.07-.1.1-.16.11s-.16,0-.22.15-.16.36-.25.53a.35.35,0,0,0,0,.11c0,.14.1.17.21.19h.67l1.45,0c.25,0,.25.16.25.42s0,.41-.25.41l-1.45,0H99.39c-.18,0-.26.09-.26.26v.13c0,.17.07.25.26.25h1.54l1.4,0c.26,0,.27.11.27.42s0,.41-.26.41l-1.42,0H99.39c-.18,0-.26.07-.26.25v.14c0,.18.07.26.26.26h2.94c.5,0,1,0,1.51,0,.25,0,.26.13.26.43s0,.43-.26.43l-1.51,0h-2c-.06,0-.14,0-.14.1a.13.13,0,0,0,0,.1,11.19,11.19,0,0,0,3.44,1.7c.14,0,.42.11.42.29s-.31.65-.53.65a8.19,8.19,0,0,1-1.51-.57,12.35,12.35,0,0,1-2.64-1.72.17.17,0,0,0-.11,0c-.11,0-.14.07-.15.17V94c0,.52,0,1,0,1.55s-.1.44-.54.44-.54,0-.54-.41c0-.53,0-1.06,0-1.59v-.35c0-.09,0-.17-.14-.17a.23.23,0,0,0-.12,0,14.61,14.61,0,0,1-3.71,2.14,1.72,1.72,0,0,1-.43.12c-.2,0-.5-.44-.5-.65s.21-.21.42-.28A14,14,0,0,0,97,93.12s.06,0,.06-.09-.07-.1-.14-.1H95L93.5,93c-.26,0-.26-.13-.26-.43s0-.43.26-.43c.5,0,1,0,1.51,0h2.84c.17,0,.25-.09.25-.26v-.14c0-.17-.07-.25-.25-.25H96.38l-1.4,0c-.26,0-.27-.11-.27-.41s0-.42.27-.42l1.4,0h1.48c.17,0,.25-.07.25-.25v-.13c0-.19-.07-.26-.25-.26H95.72l-1.45,0c-.25,0-.25-.16-.25-.41s0-.42.25-.42l1.45,0h.59c.12,0,.23,0,.23-.2a.22.22,0,0,0,0-.1c-.11-.23-.22-.47-.34-.7s-.2-.25-.46-.25h-.57c-.49,0-1,0-1.49,0-.25,0-.26-.13-.26-.43s0-.44.26-.44c.5,0,1,0,1.49,0h1.66c.25,0,.34-.11.34-.34V86a4.71,4.71,0,0,0,0-.81v-.11c0-.13.07-.16.18-.16A7,7,0,0,1,98,85c.17,0,.38,0,.38.16s-.06.11-.16.18-.15.26-.15.63v.92c0,.25.1.32.33.34h.5c.25,0,.32-.1.34-.34V86.1a4.91,4.91,0,0,0,0-.85.35.35,0,0,1,0-.11c0-.13.09-.16.2-.16s.7.06.87.09.22,0,.22.15-.06.11-.16.17-.14.25-.14.63v.9c0,.23.1.32.33.34a.38.38,0,0,0,.36-.18,15.52,15.52,0,0,0,1-1.7C101.89,85.33,101.92,85.25,102,85.25Zm-6.26,1.88c-.14,0-.19-.09-.28-.25-.25-.36-.5-.71-.79-1a.43.43,0,0,1-.11-.21c0-.17.46-.39.64-.39s.34.26.46.39a5.68,5.68,0,0,1,.75,1.11C96.41,87,95.88,87.14,95.74,87.14Zm3.53,2.17a.43.43,0,0,0,.47-.27c.11-.22.22-.44.32-.66a.3.3,0,0,0,0-.11c0-.13-.11-.19-.23-.2H97.48c-.11,0-.22,0-.22.19a.24.24,0,0,0,0,.12c.11.22.22.44.32.68a.33.33,0,0,0,.38.26Z"/><path class="cls-4" d="M107.58,93.26a.29.29,0,0,0-.33.31c0,.2,0,.39,0,.6s-.11.31-.49.31-.49,0-.49-.31,0-.82,0-1.23V87.7c0-.32,0-.64,0-.95s0-.63.48-.63h2.3c.39,0,.48.19.48.58s0,.66,0,1v4.72c0,.41,0,.81,0,1.22s-.1.31-.47.31-.47,0-.47-.28V93.5c0-.19-.07-.25-.25-.25Zm.71-4a.32.32,0,0,0,.34-.35V87.4a.32.32,0,0,0-.34-.35h-.7a.31.31,0,0,0-.34.35v1.48a.32.32,0,0,0,.34.35Zm-.7.87a.31.31,0,0,0-.34.35V92a.31.31,0,0,0,.34.33h.7a.31.31,0,0,0,.34-.33V90.44a.32.32,0,0,0-.34-.35Zm6-3.85c0,.25.1.35.34.35h.52l1.32,0c.26,0,.26.13.26.46s0,.46-.26.46c-.44,0-.87,0-1.32,0h-.52c-.25,0-.34.11-.34.34v.76c0,.23.1.35.34.35h.95c.48,0,1,0,1.44,0,.28,0,.3.11.3.47s0,.47-.3.47l-1.44,0h-3.29l-1.44,0c-.3,0-.28-.14-.28-.47s0-.47.28-.47c.48,0,1,0,1.44,0h.68a.3.3,0,0,0,.34-.35v-.76a.3.3,0,0,0-.34-.34H112c-.44,0-.87,0-1.32,0-.25,0-.26-.14-.26-.46s0-.46.26-.46l1.32,0h.25c.23,0,.34-.1.34-.35a4.54,4.54,0,0,0,0-1s0-.07,0-.11.1-.15.2-.15.46,0,.68,0,.47,0,.47.17-.06.11-.16.17-.15.25-.15.6Zm1.6,5c.35,0,.69,0,1,0s.27.15.27.47,0,.48-.26.48-.7,0-1,0-.34.11-.34.35v1.64c0,.26,0,.52,0,.78,0,1.07-1.08,1.1-1.9,1.1-.36,0-.68.05-.68-.75,0-.15,0-.27.21-.27s.31,0,.55,0c.82,0,.82-.17.82-.92V92.44c0-.23-.1-.35-.33-.35h-1.93c-.41,0-.81,0-1.22,0s-.27-.13-.27-.48,0-.47.27-.47l1.22,0h1.93c.23,0,.32-.1.33-.33a5.94,5.94,0,0,0,0-.67s0-.06,0-.1.1-.15.2-.15.68,0,.87.06.27,0,.27.15-.07.1-.17.16-.17.16-.16.55C114.84,91.11,115,91.21,115.19,91.21Zm-3.35,3.3c-.14,0-.22-.16-.28-.25-.23-.35-.58-.86-.83-1.18a.32.32,0,0,1-.09-.18c0-.17.42-.47.59-.47s.63.63.75.8a3.43,3.43,0,0,1,.46.81C112.44,94.28,112,94.51,111.84,94.51Z"/><path class="cls-4" d="M119.72,93.68c0,.59,0,1.18,0,1.77,0,.39-.1.43-.52.43s-.52-.05-.52-.44c0-.59,0-1.17,0-1.76V87c0-.36,0-.71,0-1.07s.2-.59.65-.59h3c.44,0,.65.1.65.59,0,.33,0,.66,0,1v.82c0,.32,0,.63,0,.94,0,.49-.16.63-.65.63l-.81,0h-1.54c-.25,0-.34.1-.34.35Zm.3-7.54a.28.28,0,0,0-.3.29v.22a.28.28,0,0,0,.3.3h1.77a.28.28,0,0,0,.3-.3v-.22a.28.28,0,0,0-.3-.29Zm-.3,2.05a.28.28,0,0,0,.3.3h1.77a.28.28,0,0,0,.3-.3V88a.29.29,0,0,0-.3-.31H120a.29.29,0,0,0-.3.31Zm3.09,6.11c-.16,0-.25.06-.25.23v.15c0,.25-.16.26-.49.26s-.48,0-.48-.27,0-.57,0-.84V91c0-.41.17-.53.57-.53h3c.38,0,.57.12.57.53,0,.22,0,.43,0,.65v2.22c0,.27,0,.55,0,.84s-.12.27-.48.27-.49,0-.49-.27a.48.48,0,0,1,0-.14c0-.17-.09-.23-.25-.23ZM124.54,92a.25.25,0,0,0,.26-.26v-.23a.24.24,0,0,0-.26-.25H122.8a.23.23,0,0,0-.25.25v.23a.24.24,0,0,0,.25.26Zm-2,1.22a.23.23,0,0,0,.25.25h1.74a.24.24,0,0,0,.26-.25V93a.24.24,0,0,0-.26-.25H122.8a.23.23,0,0,0-.25.25Zm3.3-3.92h-.8c-.46,0-.67-.1-.67-.58s0-.65,0-1v-.85c0-.32,0-.65,0-1,0-.5.17-.63.65-.63l.81,0h1.35l.8,0c.47,0,.66.11.66.6s0,.71,0,1.07v6.53c0,.35,0,.69,0,1,0,1.14-.63,1.32-1.64,1.32-.43,0-.68,0-.68-.75,0-.16,0-.27.23-.27h.14l.48,0c.52,0,.48-.33.48-.73V89.65c0-.23-.1-.33-.34-.33Zm-.18-3.16a.28.28,0,0,0-.3.3v.25a.28.28,0,0,0,.3.3h1.72a.28.28,0,0,0,.3-.3v-.25a.28.28,0,0,0-.3-.3Zm-.3,2.08a.28.28,0,0,0,.3.3h1.72a.28.28,0,0,0,.3-.3V88a.28.28,0,0,0-.3-.3h-1.72a.28.28,0,0,0-.3.3Z"/><path class="cls-4" d="M134.28,88.1a.81.81,0,0,1-.84.85.73.73,0,0,1-.78-.74.82.82,0,0,1,.86-.86A.73.73,0,0,1,134.28,88.1Zm0,4.72a.81.81,0,0,1-.84.85.73.73,0,0,1-.78-.74.82.82,0,0,1,.86-.86A.72.72,0,0,1,134.28,92.81Z"/><path class="cls-4" d="M143.72,90c0,.23.1.33.34.33h2.77l1.47,0c.28,0,.3.13.3.52s0,.5-.3.5l-1.47,0h-2.77c-.25,0-.34.1-.34.35v2c0,.58,0,1.17,0,1.75,0,.38-.11.43-.55.43s-.55-.05-.55-.44c0-.58,0-1.16,0-1.74v-2c0-.25-.11-.35-.34-.35h-2.77l-1.47,0c-.28,0-.3-.13-.3-.5s0-.52.3-.52l1.47,0h2.77c.23,0,.34-.1.34-.33V86.71c0-.25-.11-.35-.34-.35h-2.18c-.49,0-1,0-1.48,0-.28,0-.28-.15-.28-.52s0-.5.3-.5l1.47,0h6.18l1.47,0c.28,0,.28.12.28.5s0,.52-.28.52c-.49,0-1,0-1.47,0h-2.28c-.25,0-.34.1-.34.35Zm-3-.12c-.16,0-.22-.15-.3-.27a18.81,18.81,0,0,0-1.35-2.15.45.45,0,0,1-.11-.25c0-.19.49-.43.65-.43a.3.3,0,0,1,.23.15,9.38,9.38,0,0,1,.69,1,11,11,0,0,1,.82,1.49C141.4,89.68,140.91,89.92,140.76,89.92Zm6.83-2.51c-.15,0-.16,0-.26.2-.19.34-1.33,2.3-1.65,2.3-.15,0-.64-.26-.64-.44s.09-.17.14-.23A14.09,14.09,0,0,0,146.57,87c.06-.14.07-.19.16-.19a2.54,2.54,0,0,1,.47.15l.21.1c.22.1.33.15.33.25S147.66,87.4,147.6,87.41Z"/><path class="cls-4" d="M157.25,95.13c0-.17-.09-.23-.25-.23h-4.22c-.17,0-.25.06-.25.23v.2c0,.31-.1.34-.54.34s-.55,0-.55-.34,0-.92,0-1.38V87.62c0-.37,0-.74,0-1.11s.16-.62.62-.62l1,0h3.71l.95,0c.54,0,.64.2.64.7,0,.26,0,.59,0,1v6.29c0,.47,0,.94,0,1.39s-.12.33-.55.33-.54,0-.54-.33Zm-.31-5.31a.33.33,0,0,0,.33-.35V87.2a.34.34,0,0,0-.33-.35h-4.09a.35.35,0,0,0-.34.35v2.28a.35.35,0,0,0,.34.35Zm-4.43,3.77a.34.34,0,0,0,.34.34h4.09a.33.33,0,0,0,.33-.34v-2.5a.34.34,0,0,0-.33-.34h-4.09a.34.34,0,0,0-.34.34Z"/><path class="cls-4" d="M164.47,86.36a3,3,0,0,1,3.13,3.3A4.89,4.89,0,0,1,162.87,95c-.21,0-.26-.07-.26-.35v-.26c0-.33,0-.38.38-.42a4,4,0,0,0,2.75-1.47,3.17,3.17,0,0,0,.59-1.22s0-.06,0-.06a.36.36,0,0,0-.18.09A3.87,3.87,0,0,1,164,92a2.49,2.49,0,0,1-2.7-2.63A3,3,0,0,1,164.47,86.36Zm0,1a2,2,0,0,0-2.12,2,1.66,1.66,0,0,0,1.85,1.69,3.38,3.38,0,0,0,2-.71.75.75,0,0,0,.33-.71A2.06,2.06,0,0,0,164.45,87.37Z"/><path class="cls-4" d="M171.05,89.51a.76.76,0,0,1-.79.81.7.7,0,0,1-.71-.7.77.77,0,0,1,.8-.8A.67.67,0,0,1,171.05,89.51Zm0,4.74a.76.76,0,0,1-.79.8.69.69,0,0,1-.71-.69.77.77,0,0,1,.8-.8A.67.67,0,0,1,171.05,94.25Z"/><path class="cls-4" d="M179.92,90.51c0,2.87-1.61,4.54-3.55,4.54S173,93.59,173,90.84c0-2.46,1.26-4.47,3.52-4.47C178.37,86.37,179.92,87.76,179.92,90.51Zm-5.77.36c0,2.07.94,3.18,2.23,3.18s2.45-1.34,2.45-3.5-1-3.13-2.27-3.13C174.94,87.42,174.15,89,174.15,90.87Z"/><path class="cls-4" d="M188.77,90.51c0,2.87-1.61,4.54-3.55,4.54s-3.34-1.46-3.34-4.21c0-2.46,1.26-4.47,3.52-4.47C187.22,86.37,188.77,87.76,188.77,90.51Zm-5.77.36c0,2.07.94,3.18,2.23,3.18s2.45-1.34,2.45-3.5-1-3.13-2.27-3.13C183.78,87.42,183,89,183,90.87Z"/><path class="cls-4" d="M199.5,90.37a.5.5,0,0,1-.14.27,2.44,2.44,0,0,1-1.93,1,3.66,3.66,0,0,1-1.86-.6,4,4,0,0,0-1.88-.72,1.51,1.51,0,0,0-1.18.63c-.11.13-.18.21-.26.21s-.14,0-.26-.15l-.14-.11c-.14-.11-.2-.19-.2-.27s0-.15.15-.27a2.37,2.37,0,0,1,1.95-1,3.71,3.71,0,0,1,1.86.6,3.92,3.92,0,0,0,1.86.74,1.51,1.51,0,0,0,1.19-.64c.11-.13.19-.21.26-.21s.15.06.26.16l.14.12C199.43,90.21,199.5,90.29,199.5,90.37Z"/><path class="cls-4" d="M204.43,92.52c0,.36,0,.85,0,1.27s0,.81,0,.89c0,.26-.07.31-.37.31h-.39c-.3,0-.37,0-.37-.31,0-.09,0-.44,0-.87s0-.92,0-1.28V88c0-.21,0-.29-.14-.29a.55.55,0,0,0-.21,0c-.39.15-.78.31-1.08.46a.63.63,0,0,1-.25.07c-.11,0-.16-.09-.23-.27l-.11-.3a.73.73,0,0,1-.06-.23c0-.11.09-.17.28-.23.52-.19,1.21-.44,1.7-.67a1.45,1.45,0,0,1,.71-.16h.1c.32,0,.37.06.37.38s0,1.54,0,2.08Z"/><path class="cls-4" d="M210.54,92.35c-.28.74-.54,1.44-.83,2.28-.11.31-.17.36-.5.36h-.48c-.21,0-.3,0-.3-.13a.7.7,0,0,1,.06-.21c.34-.85.62-1.55.9-2.28l1.71-4.54a.55.55,0,0,0,0-.21c0-.11-.09-.13-.28-.13h-2.13l-1.84,0c-.22,0-.27-.07-.27-.36v-.32c0-.29,0-.37.31-.37l1.8,0h1.65l1.79,0c.26,0,.31.07.31.37v.11a1.48,1.48,0,0,1-.15.69c-.22.53-.42,1.08-.62,1.6Z"/><path class="cls-4" d="M215.47,89.51a.76.76,0,0,1-.79.81.7.7,0,0,1-.71-.7.77.77,0,0,1,.8-.8A.67.67,0,0,1,215.47,89.51Zm0,4.74a.76.76,0,0,1-.79.8.69.69,0,0,1-.71-.69.77.77,0,0,1,.8-.8A.67.67,0,0,1,215.47,94.25Z"/><path class="cls-4" d="M221.52,90.36s.06.07.17.11a1.93,1.93,0,0,1,1.47,1.95c0,1.32-1,2.65-3.51,2.65a5.06,5.06,0,0,1-2.08-.41c-.19-.09-.27-.15-.27-.27a.72.72,0,0,1,.06-.23l.11-.31c.06-.18.11-.27.2-.27a.64.64,0,0,1,.26.1,3.73,3.73,0,0,0,1.79.43c1.61,0,2.33-.87,2.33-1.69S221.3,91,219.65,91h-.87c-.25,0-.28-.09-.28-.37v-.25c0-.28,0-.37.28-.37h.75c1.58,0,2.13-.68,2.13-1.4S221,87.37,220,87.37a3.15,3.15,0,0,0-1.66.47.54.54,0,0,1-.26.11c-.09,0-.14-.09-.22-.26l-.15-.29a.67.67,0,0,1-.07-.25c0-.11.07-.17.25-.26a4.77,4.77,0,0,1,2.22-.53c1.86,0,2.64,1,2.64,2.06a2,2,0,0,1-1.07,1.82C221.56,90.3,221.52,90.34,221.52,90.36Z"/><path class="cls-4" d="M232,90.51c0,2.87-1.61,4.54-3.55,4.54s-3.34-1.46-3.34-4.21c0-2.46,1.26-4.47,3.52-4.47C230.4,86.37,232,87.76,232,90.51Zm-5.77.36c0,2.07.94,3.18,2.23,3.18s2.45-1.34,2.45-3.5-1-3.13-2.27-3.13C227,87.42,226.18,89,226.18,90.87Z"/><path class="cls-4" d="M95.18,117.44c.35.12.8.26.8.45s-.08.13-.14.18-.2.15-.32.48A21.58,21.58,0,0,1,94,122a.47.47,0,0,0-.08.26.47.47,0,0,0,.21.35c.21.17,1.23,1,1.23,1.19s-.53.95-.78.95-.27-.15-.36-.24-.81-.87-1.1-.87-.3.15-.42.3a12.73,12.73,0,0,1-3.43,3,10,10,0,0,1-1.72.84c-.3,0-.83-.68-.83-.87s.29-.27.51-.36a11.46,11.46,0,0,0,4.35-3.21c.09-.12.24-.29.24-.44a.36.36,0,0,0-.18-.32,13.06,13.06,0,0,0-2-.78c-.14,0-.3-.09-.3-.27s.27-.93.62-.93a1.17,1.17,0,0,1,.33.09,12.46,12.46,0,0,1,2,.83.45.45,0,0,0,.21.06c.27,0,.36-.23.47-.42a13,13,0,0,0,1.34-3.54c0-.09,0-.3.15-.3A5,5,0,0,1,95.18,117.44Z"/><path class="cls-4" d="M108.09,121.44c.63,0,1.57,0,1.81,0s.41.11.41.74c0,.35,0,.65-.36.65-.62,0-1.23,0-1.85,0h-6.91c-.62,0-1.24,0-1.85,0-.38,0-.38-.3-.38-.65,0-.63,0-.74.41-.74s1.17,0,1.82,0Z"/><path class="cls-4" d="M115.45,117.86c.35.06.48.06.48.2s-.09.15-.14.21-.09.41-.09.56c0,2.74,0,5.07-1.82,7.33-.17.21-1,1.13-1.2,1.13s-1.07-.42-1.07-.66.09-.18.17-.24c2.27-1.82,2.64-4,2.64-6.78a10.52,10.52,0,0,0-.08-1.54v-.17c0-.12.08-.15.18-.15S115.26,117.83,115.45,117.86Zm3.67,6.76c0,.42,0,.6.21.6a1,1,0,0,0,.44-.23,32.74,32.74,0,0,0,3.78-3.13c.08-.07.18-.2.29-.2s.63.72.63.92-.57.66-.75.81c-.72.65-1.48,1.27-2.23,1.85-.45.36-1.73,1.31-2,1.57a.68.68,0,0,1-.41.23,3.6,3.6,0,0,1-.87-.36c-.2-.11-.41-.23-.41-.47,0-.09.06-.95.06-1.81V118.9a8.66,8.66,0,0,0,0-1.08,1.47,1.47,0,0,1,0-.24.14.14,0,0,1,.15-.15c.17,0,1,.15,1.17.18s.29.08.29.2a.26.26,0,0,1-.11.2.56.56,0,0,0-.12.38c0,.39,0,1.05,0,1.46Z"/><path class="cls-4" d="M126.31,118.37c2.2-.12,4.38-.36,6.57-.62,1.07-.13,2.41-.27,3.45-.45l.2,0c.2,0,.23.16.26.31a5,5,0,0,1,.09.81c0,.33-.21.33-.59.33a8.59,8.59,0,0,0-2.56.3,4.63,4.63,0,0,0-2.67,2.27,6,6,0,0,0-.83,2.91,2.18,2.18,0,0,0,1.19,2.09,4.51,4.51,0,0,0,1.73.26l.59,0c.18,0,.35,0,.35.21a3.09,3.09,0,0,1-.21,1c-.09.2-.18.22-.41.22-2.42,0-4.58-.86-4.58-3.64a6.89,6.89,0,0,1,1.9-4.65c.21-.21.29-.27.29-.35s-.12-.13-.2-.13c-.23,0-2,.26-2.38.3-.78.12-1.57.24-2.33.44a1.32,1.32,0,0,1-.23,0c-.33,0-.44-1.18-.44-1.27C125.5,118.37,125.7,118.4,126.31,118.37Zm9.4,2.46c.11.12.59.65.59.81s-.48.57-.68.57-.15-.09-.2-.17c-.3-.42-.65-.83-1-1.23,0,0-.12-.14-.12-.2s.5-.51.65-.51S135.42,120.5,135.71,120.83Zm2.33,0c0,.2-.48.57-.68.57s-.15-.11-.21-.18a12.82,12.82,0,0,0-1-1.22c0-.06-.12-.14-.12-.21s.5-.51.66-.51A6.26,6.26,0,0,1,138,120.86Z"/><path class="cls-4" d="M150,118.79a5,5,0,0,1,1.48,3.64,5.28,5.28,0,0,1-2.91,4.79,5.64,5.64,0,0,1-1.55.56c-.32,0-.84-.71-.84-1s.24-.18.38-.21a4.19,4.19,0,0,0,3.58-4.1,3.85,3.85,0,0,0-2.68-3.82,3.06,3.06,0,0,0-.63-.14c-.39,0-.39.33-.41.62-.14,2.23-.68,5-2.14,6.78a2.59,2.59,0,0,1-1.88,1.1,2.29,2.29,0,0,1-1.93-1.36,4.81,4.81,0,0,1-.45-2.09,6.12,6.12,0,0,1,6.16-6.25A5.31,5.31,0,0,1,150,118.79Zm-5.63.09a4.87,4.87,0,0,0-3.09,4.64c0,.66.24,2.18,1.11,2.18s1.6-1.58,1.85-2.24a12.85,12.85,0,0,0,.9-4.44c0-.17-.08-.3-.24-.3A2.19,2.19,0,0,0,144.39,118.89Z"/><path class="cls-4" d="M157.14,124.67a20.08,20.08,0,0,0-2.41,1.78c-.06,0-.14.12-.21.12-.27,0-.74-.86-.74-1.14s.14-.2.3-.29c.84-.5,1.64-1.05,2.47-1.55.62-.37.69-.41.69-.81,0-.56,0-1.12,0-1.69,0-.2-.09-.36-.32-.36l-1.34.23a1.92,1.92,0,0,1-.41,0c-.17,0-.38,0-.38-.89,0-.39.06-.39.35-.41.54,0,1.11-.09,1.66-.15.24,0,.42-.11.48-.35,0-.08.06-1.42.06-1.57s0-.38,0-.54,0-.11,0-.15a.18.18,0,0,1,.18-.2c.2,0,1,.18,1.25.22.09,0,.27.06.27.18s-.11.2-.18.26a1.64,1.64,0,0,0-.26,1,3.86,3.86,0,0,1,0,.39v.17a.21.21,0,0,0,.23.22,9.73,9.73,0,0,0,1.13-.3,1.09,1.09,0,0,1,.24-.06c.27,0,.32.75.32,1,0,.36-.18.38-1.45.59-.66.11-.6.22-.6,1.49,0,.3,0,.59.2.59a1,1,0,0,0,.33-.12,7.42,7.42,0,0,1,2.73-.62c1.63,0,3.21,1,3.21,2.74a2.49,2.49,0,0,1-1.2,2.17,6.32,6.32,0,0,1-3.12.62c-.23,0-.53,0-.6-.12a2.91,2.91,0,0,1-.23-.95c0-.15.06-.29.23-.29a9.83,9.83,0,0,0,1.27.15c1,0,2.35-.33,2.35-1.57,0-1.07-1.08-1.58-2-1.58a6.19,6.19,0,0,0-2.91.83.49.49,0,0,0-.18.39c0,.24,0,.81.06,1.08s.14,1.76.14,1.87c0,.69-.77,1-1.13,1s-.42-.3-.53-.54a3.09,3.09,0,0,0-.89-1.21c-.08-.06-.18-.15-.18-.26a.28.28,0,0,1,.29-.26c.15,0,.6.41.8.5a.49.49,0,0,0,.26.13c.08,0,.09-.06.09-.11s-.06-.63-.06-.84C157.3,124.89,157.33,124.67,157.14,124.67Zm6.22-5.78c.35.26,1.1.9,1.49,1.2a3.79,3.79,0,0,1,.78.77c0,.24-.51.84-.77.84s-.23-.11-.32-.18a22.34,22.34,0,0,0-1.94-1.66c-.11-.09-.26-.18-.26-.33s.53-.78.74-.78A.47.47,0,0,1,163.36,118.89Z"/><path class="cls-4" d="M169.2,126.33c0,.71,0,1.43,0,2.15,0,.48-.12.53-.63.53s-.63,0-.63-.54c0-.71,0-1.43,0-2.14v-8.25c0-.45,0-.89,0-1.32,0-.59.24-.72.8-.72.35,0,.68,0,1,0h1.66c.33,0,.66,0,1,0,.54,0,.8.12.8.71s0,.89,0,1.34v.84c0,.42,0,.84,0,1.27,0,.62-.2.77-.8.77l-1,0h-1.82c-.3,0-.42.13-.42.42Zm.36-9.31a.34.34,0,0,0-.36.36v.27a.34.34,0,0,0,.36.36h2.12a.35.35,0,0,0,.36-.36v-.27a.35.35,0,0,0-.36-.36Zm-.36,2.58a.34.34,0,0,0,.36.36h2.12a.35.35,0,0,0,.36-.36v-.32a.34.34,0,0,0-.36-.36h-2.12a.33.33,0,0,0-.36.36Zm3.75,7.06a.27.27,0,0,0-.3.29c0,.06,0,.11,0,.17,0,.3-.21.3-.6.3s-.59,0-.59-.33,0-.65,0-1V124c0-.26,0-.53,0-.78,0-.47.26-.62.69-.62l.81,0h2l.8,0c.47,0,.69.15.69.65,0,.26,0,.5,0,.75v2.17c0,.31,0,.65,0,1s-.14.32-.57.32-.59,0-.59-.3v-.18c0-.2-.11-.29-.3-.29Zm2-1c.26,0,.42-.17.42-.42V124a.38.38,0,0,0-.42-.41h-1.88a.39.39,0,0,0-.42.41v1.17a.42.42,0,0,0,.42.42Zm1.7-4.71-1,0c-.54,0-.8-.12-.8-.71s0-.89,0-1.33v-.84c0-.44,0-.86,0-1.28,0-.62.2-.77.8-.77.33,0,.66,0,1,0h1.63c.33,0,.66,0,1,0,.56,0,.81.12.81.72,0,.44,0,.87,0,1.32v7.86c0,.45,0,.92,0,1.37a1.32,1.32,0,0,1-.45,1.23,3.35,3.35,0,0,1-1.84.39c-.51,0-.8,0-.8-.89,0-.23.06-.35.3-.35s.59,0,.87,0c.72,0,.71-.29.71-.86v-5.54a.37.37,0,0,0-.42-.42Zm-.24-3.9a.35.35,0,0,0-.36.36v.27a.35.35,0,0,0,.36.36h2.09a.35.35,0,0,0,.38-.36v-.27a.35.35,0,0,0-.38-.36Zm-.36,2.58a.35.35,0,0,0,.36.36h2.09a.35.35,0,0,0,.38-.36v-.32a.35.35,0,0,0-.38-.36H176.4a.35.35,0,0,0-.36.36Z"/><path class="cls-4" d="M188.77,117.32a.32.32,0,0,0-.24.12,21.89,21.89,0,0,1-4.41,4.34,4.06,4.06,0,0,1-1.25.72c-.27,0-.72-.54-.72-.8s.27-.32.41-.39a16.51,16.51,0,0,0,4.44-3.79,12.93,12.93,0,0,0,1.25-1.81c.06-.11.12-.21.24-.21a6.23,6.23,0,0,1,1,.26c.14,0,.39.09.39.27a.2.2,0,0,1-.12.17c-.08,0-.12.09-.12.17a.13.13,0,0,0,0,.11,17.45,17.45,0,0,0,5.5,4.77c.27.17.42.26.42.41s-.32.87-.6.87a15.19,15.19,0,0,1-2.45-1.58,17.36,17.36,0,0,1-3.49-3.48A.3.3,0,0,0,188.77,117.32Zm-2.55,10.78c-.2,0-.3.07-.3.29v.26c0,.36-.18.36-.63.36s-.63,0-.63-.36,0-.65,0-1v-2.8c0-.26,0-.51,0-.77,0-.65.3-.81.9-.81l1,0h4.34l1,0c.6,0,.9.17.9.8,0,.27,0,.53,0,.78v2.83c0,.32,0,.63,0,1s-.15.36-.65.36-.63,0-.63-.35a2,2,0,0,1,0-.3c0-.21-.09-.29-.3-.29Zm1.14-6.37-1.46,0c-.32,0-.29-.33-.29-.63s0-.54.29-.54l1.46,0h2.8l1.45,0c.33,0,.3.33.3.65s0,.53-.3.53l-1.45,0Zm3.84,5.29a.43.43,0,0,0,.42-.42v-1.75a.43.43,0,0,0-.42-.42h-4.89a.41.41,0,0,0-.41.42v1.75a.41.41,0,0,0,.41.42Z"/><path class="cls-4" d="M201.7,116.28c.08,0,.17.09.17.18a.3.3,0,0,1-.09.2c-.23.23-.21.32-.32,1.18,0,.17-.06.63-.06.77s0,.17.17.17h0c.08,0,.12,0,.26.17l.08.11a1.53,1.53,0,0,1,.32.56c0,.12-.14.23-.21.3a3.31,3.31,0,0,0-.78,1.31c0,.17,0,.3.09.3s.17-.11.21-.15a6.36,6.36,0,0,1,4-1.91A3.47,3.47,0,0,1,209,123c0,3.43-4.23,4.79-4.76,4.79-.35,0-.71-.75-.71-1s.15-.26.32-.29c1.73-.37,3.81-1.38,3.81-3.42a2.27,2.27,0,0,0-2.17-2.43c-1.4,0-3,1.19-4,2.15a.82.82,0,0,0-.26.68v.38c0,1.19,0,2.38.11,3.57,0,.17,0,.65,0,.77s0,.26-.89.26c-.32,0-.54,0-.54-.32,0-.11,0-.3,0-.44,0-.71,0-1.43,0-2.15,0-.35,0-.6,0-.78s0-.39-.12-.39-.24.17-.33.27c-.27.33-1.16,1.43-1.37,1.75,0,.09-.11.2-.23.2a1.69,1.69,0,0,1-.89-.9.54.54,0,0,1,.17-.32,16,16,0,0,0,2.73-3.55,1.82,1.82,0,0,0,.11-.72v-.33c0-.15,0-.35-.24-.35a1.74,1.74,0,0,0-.39.08c-.24.06-1.37.35-1.55.35-.39,0-.51-1.19-.51-1.2,0-.21.14-.23.32-.23a10,10,0,0,0,1.9-.18c.21,0,.41-.08.5-.27a16.34,16.34,0,0,0,.11-2.17c0-.24,0-.41,0-.51s.06-.2.2-.2A12.65,12.65,0,0,1,201.7,116.28Z"/><path class="cls-4" d="M215.64,117.86c.09,0,.24.06.24.18a.37.37,0,0,1-.12.24.72.72,0,0,0-.18.47c0,.17,0,.39,0,.62V120c0,.23,0,.62.29.62.09,0,2.46-.38,2.77-.42s.59-.11.59-.57a10.48,10.48,0,0,0-.26-2.49.73.73,0,0,1,0-.18.18.18,0,0,1,.2-.17c.2,0,1,.15,1.23.2s.29.06.29.18a.58.58,0,0,1-.12.26.78.78,0,0,0-.11.48c0,.42,0,.86,0,1.28v.21c0,.09,0,.48.3.48.11,0,1.08-.15,1.27-.18s1-.17,1.25-.17.26.21.26.77-.09.57-.53.6c-.62,0-1.25.11-1.87.18a1.17,1.17,0,0,0-.57.12c-.17.12-.2.48-.23.92-.09,1.08-.23,2.7-2.52,2.7a.36.36,0,0,1-.39-.21,2.19,2.19,0,0,1-.17-.77c0-.15.08-.3.24-.3h.32c.59,0,1-.15,1.16-.74a6.34,6.34,0,0,0,.18-1.17.27.27,0,0,0-.26-.27l-.2,0c-.45.06-2.38.36-2.74.45a.48.48,0,0,0-.41.54,20.24,20.24,0,0,0,.2,3.07,1.28,1.28,0,0,0,1.14,1,7.3,7.3,0,0,0,1.29.11,12.86,12.86,0,0,0,2.83-.31l.15,0c.21,0,.21.27.21.42s0,.78-.18.9a15,15,0,0,1-2.85.23c-1.25,0-2.82,0-3.52-1.27-.5-.86-.45-2.74-.48-3.76,0-.23,0-.53-.32-.53s-1.93.39-2.21.47l-.26,0c-.23,0-.24-.29-.27-.45a5.74,5.74,0,0,1-.11-.71c0-.3.23-.3.47-.32s1.91-.24,2.27-.31a.4.4,0,0,0,.36-.47,21,21,0,0,0-.12-2.41c0-.06,0-.14,0-.2s.06-.2.2-.2A10.7,10.7,0,0,1,215.64,117.86Z"/><path class="cls-4" d="M83.25,174.1H85c.26,0,.31.07.31.37v.27c0,.3,0,.37-.31.37H80c-.26,0-.31-.07-.31-.37v-.09c0-.31,0-.37.3-.58s.42-.35.6-.52c2.14-1.92,3.55-3.25,3.55-4.56,0-.86-.62-1.46-1.69-1.46a2.6,2.6,0,0,0-1.82.78c-.11.11-.18.17-.26.17s-.15-.06-.27-.18l-.26-.28c-.1-.11-.16-.19-.16-.26s.06-.16.19-.27a4,4,0,0,1,2.68-1,2.41,2.41,0,0,1,2.71,2.35c0,1.76-1.48,3.21-3.57,5-.1.09-.14.13-.14.17s.07.07.22.07Z"/><path class="cls-4" d="M92.11,173.43c0,.55,0,1.18,0,1.34s-.07.31-.37.31h-.36c-.3,0-.37,0-.37-.31s0-.79,0-1.34c0-.28,0-.33-.33-.33h-2l-1.71,0c-.26,0-.31-.07-.31-.37v-.07a1,1,0,0,1,.2-.68c.26-.44.5-.91.74-1.37l1.18-2.19c.27-.49.54-1,.8-1.55.14-.3.22-.35.54-.35h.53c.2,0,.28,0,.28.11a.5.5,0,0,1-.09.22c-.37.63-.68,1.21-1,1.79l-1.72,3.18a.53.53,0,0,0-.07.21c0,.09.09.11.27.11h2.31c.28,0,.33,0,.33-.33,0-.9,0-2,0-2.12s.07-.31.37-.31h.36c.3,0,.37,0,.37.31s0,1.22,0,2.12c0,.28,0,.33.33.33H93.5c.26,0,.31.07.31.37v.23c0,.29,0,.37-.31.37l-1.06,0C92.16,173.1,92.11,173.15,92.11,173.43Z"/><path class="cls-4" d="M97,173.36a.29.29,0,0,0-.33.31c0,.2,0,.39,0,.6s-.11.31-.49.31-.49,0-.49-.31,0-.82,0-1.23v-5.23c0-.32,0-.64,0-.95s0-.63.48-.63h2.3c.39,0,.48.19.48.58s0,.66,0,1v4.72c0,.41,0,.81,0,1.22s-.1.31-.47.31-.47,0-.47-.28v-.16c0-.19-.07-.25-.25-.25Zm.71-4a.32.32,0,0,0,.34-.35V167.5a.32.32,0,0,0-.34-.35H97a.31.31,0,0,0-.34.35V169a.32.32,0,0,0,.34.35Zm-.7.87a.31.31,0,0,0-.34.35v1.58a.31.31,0,0,0,.34.33h.7a.31.31,0,0,0,.34-.33v-1.58a.32.32,0,0,0-.34-.35Zm6-3.85c0,.25.1.35.34.35h.52l1.32,0c.26,0,.26.13.26.46s0,.46-.26.46c-.44,0-.87,0-1.32,0h-.52c-.25,0-.34.11-.34.34v.76c0,.23.1.35.34.35h.95c.48,0,1,0,1.44,0,.28,0,.3.11.3.47s0,.47-.3.47l-1.44,0H101l-1.44,0c-.3,0-.28-.14-.28-.47s0-.47.28-.47c.48,0,1,0,1.44,0h.68a.3.3,0,0,0,.34-.35v-.76a.3.3,0,0,0-.34-.34h-.25c-.44,0-.87,0-1.32,0-.25,0-.26-.14-.26-.46s0-.46.26-.46l1.32,0h.25c.23,0,.34-.1.34-.35a4.54,4.54,0,0,0,0-1s0-.07,0-.11.1-.15.2-.15.46,0,.68,0,.47,0,.47.17-.06.11-.16.17-.15.25-.15.6Zm1.6,5c.35,0,.69,0,1,0s.27.15.27.47,0,.48-.26.48-.7,0-1,0-.34.11-.34.35v1.64c0,.26,0,.52,0,.78,0,1.07-1.08,1.1-1.9,1.1-.36,0-.68.05-.68-.75,0-.15,0-.27.21-.27s.31,0,.55,0c.82,0,.82-.17.82-.92v-1.59c0-.23-.1-.35-.33-.35H101c-.41,0-.81,0-1.22,0s-.27-.13-.27-.48,0-.47.27-.47l1.22,0H103c.23,0,.32-.1.33-.33a5.94,5.94,0,0,0,0-.67s0-.06,0-.1.1-.15.2-.15.68,0,.87.06.27,0,.27.15-.07.1-.17.16-.17.16-.16.55C104.27,171.22,104.38,171.32,104.61,171.32Zm-3.35,3.3c-.14,0-.22-.16-.28-.25-.23-.35-.58-.86-.83-1.18a.32.32,0,0,1-.09-.18c0-.17.42-.47.59-.47s.63.63.75.8a3.43,3.43,0,0,1,.46.81C101.87,174.38,101.43,174.62,101.26,174.62Z"/><path class="cls-4" d="M109.14,173.78c0,.59,0,1.18,0,1.77,0,.39-.1.43-.52.43s-.52-.05-.52-.44c0-.59,0-1.17,0-1.76v-6.7c0-.36,0-.71,0-1.07s.2-.59.65-.59h3c.44,0,.65.1.65.59,0,.33,0,.66,0,1v.82c0,.32,0,.63,0,.94,0,.49-.16.63-.65.63l-.81,0h-1.54c-.25,0-.34.1-.34.35Zm.3-7.54a.28.28,0,0,0-.3.29v.22a.28.28,0,0,0,.3.3h1.77a.28.28,0,0,0,.3-.3v-.22a.28.28,0,0,0-.3-.29Zm-.3,2.05a.28.28,0,0,0,.3.3h1.77a.28.28,0,0,0,.3-.3v-.22a.29.29,0,0,0-.3-.31h-1.77a.29.29,0,0,0-.3.31Zm3.09,6.11c-.16,0-.25.06-.25.23v.15c0,.25-.16.26-.49.26s-.48,0-.48-.27,0-.57,0-.84v-2.87c0-.41.17-.53.57-.53h3c.38,0,.57.12.57.53,0,.22,0,.43,0,.65v2.22c0,.27,0,.55,0,.84s-.12.27-.48.27-.49,0-.49-.27a.48.48,0,0,1,0-.14c0-.17-.09-.23-.25-.23Zm1.72-2.29a.25.25,0,0,0,.26-.26v-.23a.24.24,0,0,0-.26-.25h-1.74a.23.23,0,0,0-.25.25v.23a.24.24,0,0,0,.25.26Zm-2,1.22a.23.23,0,0,0,.25.25H114a.24.24,0,0,0,.26-.25v-.25a.24.24,0,0,0-.26-.25h-1.74a.23.23,0,0,0-.25.25Zm3.3-3.92h-.8c-.46,0-.67-.1-.67-.58s0-.65,0-1V167c0-.32,0-.65,0-1,0-.5.17-.63.65-.63l.81,0h1.35l.8,0c.47,0,.66.11.66.6s0,.71,0,1.07v6.53c0,.35,0,.69,0,1,0,1.14-.63,1.32-1.64,1.32-.43,0-.68,0-.68-.75,0-.16,0-.27.23-.27h.14l.48,0c.52,0,.48-.33.48-.73v-4.52c0-.23-.1-.33-.34-.33Zm-.18-3.16a.28.28,0,0,0-.3.29v.25a.28.28,0,0,0,.3.3h1.72a.28.28,0,0,0,.3-.3v-.25a.28.28,0,0,0-.3-.29Zm-.3,2.08a.28.28,0,0,0,.3.3h1.72a.28.28,0,0,0,.3-.3v-.23a.28.28,0,0,0-.3-.3h-1.72a.28.28,0,0,0-.3.3Z"/><path class="cls-4" d="M121.41,175.87a4,4,0,0,1-.65.1c-.37,0-.5-.49-.5-.7s.15-.21.43-.26a12.48,12.48,0,0,0,3.92-1.11c.07,0,.15-.1.15-.2a.23.23,0,0,0-.09-.17,8.19,8.19,0,0,1-1.15-1.48.45.45,0,0,0-.47-.27h-.52c-.31,0-.33-.06-.33-.46s0-.46.27-.46l1.44,0h3l.9,0a.73.73,0,0,1,.74.65c0,.53-1.29,1.72-1.71,2.06a.23.23,0,0,0-.09.17.18.18,0,0,0,.12.17,12.63,12.63,0,0,0,3.72,1.08c.2,0,.31,0,.31.26s-.14.7-.47.7a9.3,9.3,0,0,1-1.38-.26,13.06,13.06,0,0,1-3.09-1.21.59.59,0,0,0-.28-.09.53.53,0,0,0-.27.07A14.44,14.44,0,0,1,121.41,175.87Zm6.93-7.18c0,.12.1.16.21.17h.12l1.18,0c.42,0,.75,0,.75.55,0,.21,0,.42,0,.63v.46c0,.15,0,.31,0,.46s-.11.32-.53.32-.53,0-.53-.28,0-.33,0-.49v-.37c0-.25-.1-.34-.34-.34h-7.31c-.25,0-.34.1-.34.34v.33c0,.16,0,.32,0,.48s-.2.3-.54.3-.52,0-.52-.31,0-.32,0-.47V170c0-.22,0-.42,0-.6,0-.5.3-.58.73-.58l1.21,0h.16c.06,0,.14,0,.14-.11a.28.28,0,0,0,0-.1c-.27-.58-.42-.85-.65-1.26a.39.39,0,0,1-.07-.2c0-.22.48-.42.65-.42s.38.38.59.78a4.44,4.44,0,0,1,.38.89.27.27,0,0,1-.17.23s0,.06,0,.1,0,.07.1.09H127c.12,0,.2-.07.42-.46a9.32,9.32,0,0,0,.81-1.75c.06-.17.07-.27.2-.27a4.63,4.63,0,0,1,.53.14c.43.12.55.16.55.27s-.09.11-.14.12-.23.12-.42.53c-.11.25-.28.6-.57,1.13A.17.17,0,0,0,128.34,168.69Zm1.55-2.84a.13.13,0,0,1-.12.12.31.31,0,0,1-.11,0,.63.63,0,0,0-.21,0l-.25,0a21.15,21.15,0,0,1-3.51.63,32.75,32.75,0,0,1-3.3.16h-.66c-.2,0-.33,0-.43-.18a1.13,1.13,0,0,1-.12-.49c0-.26.15-.27.37-.27l1.4,0a22.34,22.34,0,0,0,5.89-.74,1.3,1.3,0,0,1,.3-.09c.1,0,.27.21.52.5S129.9,165.79,129.9,165.85Zm-2.81,6c0-.07-.16-.09-.43-.09h-1.95c-.1,0-.2,0-.2.16a.18.18,0,0,0,0,.11,5.55,5.55,0,0,0,.94,1,.4.4,0,0,0,.26.11.43.43,0,0,0,.25-.1C126.24,172.89,127.09,172.14,127.09,171.86Zm-1.58-3.07c-.16,0-.22-.07-.38-.59a9.19,9.19,0,0,0-.38-1,.37.37,0,0,1-.06-.18c0-.22.48-.39.65-.39s.31.25.54.82a6.66,6.66,0,0,1,.31.91C126.19,168.63,125.68,168.79,125.51,168.79Z"/><path class="cls-4" d="M135,166.59c.17,0,.37.09.37.22s-.06.11-.11.15-.26.15-.37.43a11.13,11.13,0,0,0-.64,3.53,6.45,6.45,0,0,0,.3,2s0,.09.11.09.26-.55.32-.68c.15-.41.22-.68.37-.68s.38.15.38.27a10.57,10.57,0,0,0-.46,2.28v.34c0,.28-.17.37-.41.47a1,1,0,0,1-.38.1c-.17,0-.25-.12-.36-.32a8.19,8.19,0,0,1-.86-3.82,15,15,0,0,1,.64-4,1.49,1.49,0,0,0,.07-.32c0-.1,0-.25.17-.25S134.85,166.55,135,166.59Zm4.21-.52c.15,0,.32,0,.47.05.36,0,.76,0,.76.18s-.17.15-.17.59c0,.2,0,1,.07,1.23s.07.36.3.36c.06,0,.87-.17,1-.2l.16,0c.22,0,.25.57.25.74s-.17.3-1.16.42c-.26,0-.48.09-.48.41s0,.78,0,1.17a6,6,0,0,1-1.65,4.3c-.11.12-.32.36-.49.36s-.71-.46-.71-.65,0-.11.1-.16a5,5,0,0,0,1.07-1.26,4.9,4.9,0,0,0,.68-2.78c0-.79,0-1.12-.32-1.12-.11,0-1.69.26-1.92.29a2.09,2.09,0,0,1-.39,0c-.28,0-.31-.42-.31-.64,0-.41.07-.38.64-.42s1.48-.15,1.87-.21a.33.33,0,0,0,.31-.33c0-.07-.1-.92-.11-1.07a9,9,0,0,0-.17-1s0-.1,0-.13S139.11,166.07,139.2,166.07Z"/><path class="cls-4" d="M144.26,171.46a1,1,0,0,1-.58-.58c0-.13.17-.29.26-.38a15.94,15.94,0,0,0,3-5.22c0-.09.07-.23.21-.23a6,6,0,0,1,.86.31c.07,0,.17.09.17.17s-.1.13-.17.17-.23.21-.31.39c-.33.78-.68,1.53-1.07,2.27,0,0,0,0,0,.06s0,.1.11.11.27,0,.27.16-.06.12-.16.19-.15.21-.15.58v4.59c0,.53,0,1.07,0,1.6,0,.36-.14.42-.52.42s-.53-.07-.53-.43c0-.53,0-1.06,0-1.59v-3.79c0-.06,0-.12-.09-.12a.13.13,0,0,0-.1,0C145.28,170.43,144.54,171.46,144.26,171.46Zm8.47-3.79c0,.25.11.34.34.34h.15l1.26,0c.28,0,.28.13.28.5s0,.51-.28.51l-1.26,0h-.15c-.23,0-.34.1-.34.35v4.37c0,.33,0,.66,0,1a1.19,1.19,0,0,1-.6,1.12,4.41,4.41,0,0,1-1.66.27c-.33,0-.53,0-.62-.2a2.08,2.08,0,0,1-.11-.63c0-.19.06-.27.26-.27s.42,0,.68,0c1,0,1-.36,1-1.34v-4.37c0-.25-.1-.35-.34-.35h-2.18l-1.26,0c-.28,0-.28-.15-.28-.51s0-.5.28-.5l1.26,0h2.18c.25,0,.34-.1.34-.34v-1.32c0-.32,0-.63,0-.92,0,0,0-.09,0-.13s.1-.17.22-.17l1,.07c.09,0,.2,0,.2.16s-.1.15-.18.2-.16.29-.16.76ZM149.55,173c-.18,0-.23-.13-.3-.28a14.85,14.85,0,0,0-.89-1.9.66.66,0,0,1-.1-.26c0-.19.49-.41.65-.41s.3.17.76,1.13a8.94,8.94,0,0,1,.53,1.29C150.22,172.76,149.74,173,149.55,173Z"/><path class="cls-4" d="M158.83,166.59c.17,0,.37.09.37.22s-.06.11-.11.15-.26.15-.37.43a11.13,11.13,0,0,0-.64,3.53,6.45,6.45,0,0,0,.3,2s0,.09.11.09.26-.55.32-.68c.15-.41.22-.68.37-.68s.38.15.38.27a10.57,10.57,0,0,0-.46,2.28v.34c0,.28-.17.37-.41.47a1,1,0,0,1-.38.1c-.17,0-.25-.12-.36-.32a8.18,8.18,0,0,1-.86-3.82,14.93,14.93,0,0,1,.64-4,1.52,1.52,0,0,0,.07-.32c0-.1,0-.25.17-.25S158.7,166.55,158.83,166.59Zm4.21-.52c.15,0,.32,0,.47.05.36,0,.76,0,.76.18s-.17.15-.17.59c0,.2,0,1,.07,1.23s.07.36.3.36c.06,0,.87-.17,1-.2l.16,0c.22,0,.25.57.25.74s-.17.3-1.16.42c-.26,0-.48.09-.48.41s0,.78,0,1.17a6,6,0,0,1-1.65,4.3c-.11.12-.32.36-.49.36s-.71-.46-.71-.65,0-.11.1-.16a5,5,0,0,0,1.07-1.26,4.9,4.9,0,0,0,.68-2.78c0-.79,0-1.12-.32-1.12-.11,0-1.69.26-1.92.29a2.09,2.09,0,0,1-.39,0c-.28,0-.31-.42-.31-.64,0-.41.07-.38.64-.42s1.48-.15,1.87-.21a.33.33,0,0,0,.31-.33c0-.07-.1-.92-.11-1.07a8.87,8.87,0,0,0-.17-1s0-.1,0-.13S163,166.07,163,166.07Z"/><path class="cls-4" d="M169.2,167.35c1.76-.11,3.51-.29,5.26-.5.87-.1,2-.22,2.81-.37l.17,0c.15,0,.19.13.21.26a6.05,6.05,0,0,1,.07.67c0,.27-.18.27-.49.27a7.14,7.14,0,0,0-2.09.25,3.83,3.83,0,0,0-2.18,1.86,4.91,4.91,0,0,0-.67,2.38,1.77,1.77,0,0,0,1,1.71,3.63,3.63,0,0,0,1.4.21h.48c.15,0,.28,0,.28.17a2.53,2.53,0,0,1-.17.8c-.06.16-.15.18-.33.18-2,0-3.74-.7-3.74-3a5.7,5.7,0,0,1,1.55-3.8c.2-.18.23-.23.23-.28s-.09-.11-.16-.11-1.66.2-1.93.25c-.64.1-1.29.2-1.92.36a.48.48,0,0,1-.19,0c-.26,0-.34-.95-.34-1s.1-.25.5-.26Z"/><path class="cls-4" d="M182.32,172.5a16.33,16.33,0,0,0-2,1.45s-.11.1-.17.1c-.22,0-.6-.7-.6-.94s.11-.16.25-.23c.69-.41,1.34-.86,2-1.27.5-.31.57-.33.57-.66s0-.91,0-1.38c0-.16-.07-.29-.26-.29l-1.1.18a1.48,1.48,0,0,1-.33,0c-.14,0-.31,0-.31-.73,0-.32,0-.32.28-.33.44,0,.91-.07,1.35-.12.2,0,.34-.09.39-.28s0-1.16,0-1.28,0-.31,0-.44,0-.09,0-.12a.15.15,0,0,1,.15-.16c.16,0,.83.15,1,.19s.22,0,.22.15-.09.16-.15.21a1.34,1.34,0,0,0-.21.79,3.07,3.07,0,0,1,0,.32v.13a.18.18,0,0,0,.19.19,8.09,8.09,0,0,0,.92-.25.85.85,0,0,1,.2,0c.22,0,.26.62.26.79s-.15.31-1.18.48c-.54.09-.49.19-.49,1.22,0,.25,0,.48.16.48a.84.84,0,0,0,.27-.1,6.06,6.06,0,0,1,2.23-.51,2.39,2.39,0,0,1,2.62,2.24,2,2,0,0,1-1,1.77,5.14,5.14,0,0,1-2.55.51c-.18,0-.43,0-.49-.1a2.36,2.36,0,0,1-.19-.78c0-.12,0-.23.19-.23a7.89,7.89,0,0,0,1,.13c.81,0,1.92-.27,1.92-1.28s-.89-1.29-1.64-1.29a5,5,0,0,0-2.38.68.4.4,0,0,0-.15.32c0,.2,0,.66,0,.88s.11,1.44.11,1.53c0,.57-.63.79-.92.79s-.34-.25-.43-.44a2.52,2.52,0,0,0-.73-1c-.06,0-.15-.12-.15-.21a.23.23,0,0,1,.23-.21c.12,0,.49.33.65.41a.39.39,0,0,0,.21.11c.06,0,.07,0,.07-.09s0-.52,0-.69C182.46,172.68,182.48,172.5,182.32,172.5Zm5.09-4.73c.28.21.9.74,1.22,1a3.12,3.12,0,0,1,.64.63c0,.2-.42.69-.63.69s-.18-.09-.26-.15a18.63,18.63,0,0,0-1.59-1.36c-.09-.07-.21-.15-.21-.27s.43-.64.6-.64A.38.38,0,0,1,187.41,167.77Z"/><path class="cls-4" d="M193.92,166.45c.11.06.38.16.38.28s-.16.18-.23.23-.41.94-.46,1.19a7,7,0,0,0-.15,1.44c0,.11,0,.85.12.85s.16-.19.25-.36.36-.84.5-.84.38.16.38.28a.51.51,0,0,1-.06.17,7.68,7.68,0,0,0-.76,2.36,2.29,2.29,0,0,0,0,.28.61.61,0,0,1,0,.15c0,.27-.5.41-.71.41s-.31-.2-.37-.38a10.5,10.5,0,0,1-.39-2.84,11.47,11.47,0,0,1,.38-2.83c0-.16.07-.32.1-.48s0-.27.15-.27A6.35,6.35,0,0,1,193.92,166.45Zm4.68-.41a16.27,16.27,0,0,1,.37,3.46,7.14,7.14,0,0,1-1.92,5.52c-.18.18-.69.63-.94.63s-.74-.47-.74-.69.1-.16.17-.2a4.74,4.74,0,0,0,1.74-2,7.67,7.67,0,0,0,.58-3.24,11.1,11.1,0,0,0-.43-3.32.65.65,0,0,1,0-.15c0-.23.75-.33.9-.33S198.57,165.91,198.6,166Z"/><path class="cls-4" d="M207.07,165.74c.2,0,.41,0,.41.17a.25.25,0,0,1-.07.17c-.06.09-.14.25-.14,1,0,.17.09.29.26.29l.28,0a15.9,15.9,0,0,0,2-.42,1.11,1.11,0,0,1,.21,0c.25,0,.27.62.27.79s-.09.25-.43.32c-.64.13-1.37.22-2,.31-.25,0-.57,0-.57.37,0,1,.11,1.13.27,1.13a10.5,10.5,0,0,0,1.7-.33,1.16,1.16,0,0,1,.2,0c.18,0,.17.39.17.53,0,.42,0,.5-.25.55a13.33,13.33,0,0,1-1.55.25c-.32,0-.47.05-.47.39,0,1.44.06,1.39.43,1.5a6.94,6.94,0,0,1,1.6.71c.17.1.59.32.59.53s-.36.76-.6.76-.26-.12-.36-.2a4.82,4.82,0,0,0-1.4-.81c-.2,0-.21.21-.23.36-.17,1-1.24,1.37-2.17,1.37s-1.95-.43-1.95-1.5,1.37-1.53,2.33-1.53l.59,0c.23,0,.21-.25.21-.36,0-.89,0-1.11-.3-1.11-.5,0-1.15,0-1.71,0-.33,0-.58,0-.66-.13a1.78,1.78,0,0,1-.16-.71c0-.13,0-.22.19-.22s.87.07,1.45.07c.87,0,1.12,0,1.12-.32,0-.9-.07-1.16-.32-1.16-.41,0-1.61.07-2.78.07-.5,0-.59-.07-.59-.76,0-.19,0-.32.21-.32s1.17.07,1.93.07c1.12,0,1.44,0,1.44-.32s-.07-1.07-.11-1.27a1,1,0,0,1,0-.18c0-.11.07-.14.17-.14S206.9,165.71,207.07,165.74Zm-2.82,8.15c0,.49.6.59,1,.59.69,0,1.22-.21,1.22-1,0-.26-.32-.26-.67-.26S204.25,173.26,204.25,173.89Z"/><path class="cls-4" d="M218,165.39c.2,0,1,0,1,.21a.19.19,0,0,1-.07.13.58.58,0,0,0-.17.46c0,.26,0,.62,0,.89v.09a.32.32,0,0,0,.34.33l1.76-.09c.36,0,1.19-.06,1.51-.06s.26.13.26.53c0,.59-.16.57-.28.57s-.94,0-1.5,0a17.81,17.81,0,0,0-1.87.09c-.16,0-.21.23-.21.39,0,.94,0,1,.12,1.22a3.79,3.79,0,0,1,.37,1.69c0,2-1.31,4.1-1.77,4.1-.11,0-.92-.23-.92-.42s.2-.25.26-.31a4.21,4.21,0,0,0,1-1.61.09.09,0,0,0-.09-.09.27.27,0,0,0-.14,0,.9.9,0,0,1-.39.09c-1,0-1.39-1.11-1.39-2,0-1,.47-2.19,1.65-2.23,0,0,.22,0,.22-.15,0-.58,0-.73-.28-.73s-3.23.32-3.67.39h-.17c-.21,0-.22-.13-.26-.29a2.67,2.67,0,0,1-.09-.63c0-.21.1-.22.44-.23,1.17,0,2.33-.12,3.5-.19.26,0,.47-.07.47-.39a11.69,11.69,0,0,0-.14-1.61.26.26,0,0,1,0-.1.13.13,0,0,1,.15-.13Zm-1.22,6.18c0,.44.12,1.13.69,1.13s.74-.64.74-1.1-.15-1.22-.71-1.22S216.83,171.14,216.83,171.58Z"/><path class="cls-4" d="M228.78,164.75l7.93,5.85-7.93,5.88Z"/><path class="cls-5" d="M109.58,65.41c0,5.21-3,8.25-6.66,8.25-3.5,0-6.28-2.65-6.28-7.64,0-4.49,2.3-8.13,6.61-8.13C106.69,57.9,109.58,60.42,109.58,65.41Zm-10.38.68c0,3.42,1.51,5.23,3.72,5.23S107,69.07,107,65.5s-1.6-5.15-3.77-5.15C100.47,60.35,99.2,63,99.2,66.09Z"/><path class="cls-5" d="M118.42,69.15c0,1.27.07,3.57.07,3.83,0,.46-.13.55-.64.55H116.5c-.5,0-.63-.09-.63-.55,0-.26.07-2.56.07-3.83V61.49c0-.37-.07-.53-.26-.53a.88.88,0,0,0-.35.09c-.66.24-1.4.55-2,.81a1,1,0,0,1-.42.13c-.2,0-.28-.15-.39-.48l-.42-1.09A1.18,1.18,0,0,1,112,60c0-.2.13-.31.5-.42a33.72,33.72,0,0,0,3.42-1.29,2.9,2.9,0,0,1,1.29-.26h.59c.5,0,.64.09.64.55s0,2.56,0,3.83Z"/><path class="cls-5" d="M129.22,71.28c1.12,0,3.17,0,3.33,0,.46,0,.55.13.55.63v1c0,.5-.09.63-.55.63-.15,0-2.21,0-3.33,0h-2.85c-1.12,0-3.17,0-3.33,0-.46,0-.55-.13-.55-.63V72.5a1,1,0,0,1,.53-1.07c.39-.29.74-.59,1.12-.92,3.94-3.46,6.22-5.65,6.22-7.79,0-1.42-1-2.41-2.78-2.41a4.39,4.39,0,0,0-3.2,1.45c-.2.22-.33.31-.46.31s-.24-.11-.44-.31l-.88-.94c-.17-.2-.26-.33-.26-.46s.11-.29.31-.48a7.48,7.48,0,0,1,5.15-2c3.33,0,5.19,2,5.19,4.49,0,3.09-2.47,5.56-5.82,8.47-.18.15-.24.24-.24.31s.13.13.39.13Z"/><path class="cls-5" d="M149.39,65.41c0,5.21-3,8.25-6.66,8.25-3.5,0-6.28-2.65-6.28-7.64,0-4.49,2.3-8.13,6.61-8.13C146.5,57.9,149.39,60.42,149.39,65.41ZM139,66.09c0,3.42,1.51,5.23,3.72,5.23s4.09-2.26,4.09-5.82-1.6-5.15-3.77-5.15C140.28,60.35,139,63,139,66.09Z"/><path class="cls-5" d="M155.71,68.8l-2,0c-.46,0-.53-.13-.53-.63v-1c0-.5.07-.63.53-.63l2,0h1.86l1.88,0c.46,0,.53.13.53.63v1c0,.5-.07.63-.53.63l-1.88,0Z"/><path class="cls-5" d="M170.82,65.17c0,.07.11.13.33.2a3.43,3.43,0,0,1,2.52,3.46c0,2.43-1.8,4.86-6.57,4.86A10.25,10.25,0,0,1,163,72.9c-.33-.15-.46-.29-.46-.5a1,1,0,0,1,.09-.39l.37-1.07c.11-.31.2-.46.37-.46a1.1,1.1,0,0,1,.42.17,6.66,6.66,0,0,0,3.39.85c2.58,0,3.88-1.33,3.88-2.71S169.8,66.5,167,66.5l-1.47,0c-.57,0-.66-.09-.66-.64v-1c0-.57.09-.66.66-.66l1.25,0c2.65,0,3.63-.94,3.63-2.15s-1.07-1.93-2.76-1.93a5.74,5.74,0,0,0-3.07.85.9.9,0,0,1-.44.2c-.15,0-.26-.13-.39-.44l-.48-1a1.16,1.16,0,0,1-.13-.44c0-.2.13-.31.44-.46a9.46,9.46,0,0,1,4.34-1c3.59,0,5.06,1.82,5.06,3.79a3.55,3.55,0,0,1-1.84,3.26C170.93,65,170.82,65.1,170.82,65.17Z"/><path class="cls-5" d="M184.61,65.17c0,.07.11.13.33.2a3.43,3.43,0,0,1,2.52,3.46c0,2.43-1.8,4.86-6.57,4.86a10.25,10.25,0,0,1-4.09-.79c-.33-.15-.46-.29-.46-.5a1,1,0,0,1,.09-.39l.37-1.07c.11-.31.2-.46.37-.46a1.1,1.1,0,0,1,.42.17,6.66,6.66,0,0,0,3.39.85c2.58,0,3.88-1.33,3.88-2.71s-1.27-2.28-4.09-2.28l-1.47,0c-.57,0-.66-.09-.66-.64v-1c0-.57.09-.66.66-.66l1.25,0c2.65,0,3.63-.94,3.63-2.15s-1.07-1.93-2.76-1.93a5.74,5.74,0,0,0-3.07.85.9.9,0,0,1-.44.2c-.15,0-.26-.13-.39-.44l-.48-1a1.16,1.16,0,0,1-.13-.44c0-.2.13-.31.44-.46a9.46,9.46,0,0,1,4.34-1c3.59,0,5.06,1.82,5.06,3.79a3.55,3.55,0,0,1-1.84,3.26C184.72,65,184.61,65.1,184.61,65.17Z"/><path class="cls-5" d="M196.42,69.15c0,1.27.07,3.57.07,3.83,0,.46-.13.55-.64.55h-1.36c-.5,0-.63-.09-.63-.55,0-.26.07-2.56.07-3.83V61.49c0-.37-.07-.53-.26-.53a.88.88,0,0,0-.35.09c-.66.24-1.4.55-2,.81a1,1,0,0,1-.42.13c-.2,0-.28-.15-.39-.48l-.42-1.09A1.18,1.18,0,0,1,190,60c0-.2.13-.31.5-.42a33.72,33.72,0,0,0,3.42-1.29,2.9,2.9,0,0,1,1.29-.26h.59c.5,0,.64.09.64.55s0,2.56,0,3.83Z"/><path class="cls-5" d="M203.76,68.8l-2,0c-.46,0-.53-.13-.53-.63v-1c0-.5.07-.63.53-.63l2,0h1.86l1.88,0c.46,0,.53.13.53.63v1c0,.5-.07.63-.53.63l-1.88,0Z"/><path class="cls-5" d="M215.44,64.36a7.16,7.16,0,0,1,3.53-.94c2.58,0,4.93,1.49,4.93,4.69,0,3.44-2.65,5.58-6,5.58-3.74,0-5.89-2.5-5.89-6.11a10.1,10.1,0,0,1,2.76-7.27,9.47,9.47,0,0,1,6.15-2.43c.44,0,.53.11.53.61v1.14c0,.57-.09.66-.66.72a7.28,7.28,0,0,0-4.6,2,5,5,0,0,0-1.27,2.12.08.08,0,0,0,.09.09A1.18,1.18,0,0,0,215.44,64.36ZM215,66.68a1.21,1.21,0,0,0-.59,1.18A3.37,3.37,0,0,0,218,71.5a3.2,3.2,0,0,0,3.44-3.2,2.73,2.73,0,0,0-3-2.72A5.71,5.71,0,0,0,215,66.68Z"/><path class="cls-5" d="M233,71.28c1.12,0,3.18,0,3.33,0,.46,0,.55.13.55.63v1c0,.5-.09.63-.55.63-.15,0-2.21,0-3.33,0h-2.85c-1.12,0-3.17,0-3.33,0-.46,0-.55-.13-.55-.63V72.5a1,1,0,0,1,.53-1.07c.39-.29.74-.59,1.12-.92,3.94-3.46,6.22-5.65,6.22-7.79,0-1.42-1-2.41-2.78-2.41a4.39,4.39,0,0,0-3.2,1.45c-.2.22-.33.31-.46.31s-.24-.11-.44-.31l-.88-.94c-.17-.2-.26-.33-.26-.46s.11-.29.31-.48a7.48,7.48,0,0,1,5.15-2c3.33,0,5.19,2,5.19,4.49,0,3.09-2.47,5.56-5.82,8.47-.18.15-.24.24-.24.31s.13.13.39.13Z"/><path class="cls-5" d="M243.51,64.36a7.16,7.16,0,0,1,3.53-.94c2.58,0,4.93,1.49,4.93,4.69,0,3.44-2.65,5.58-6,5.58-3.74,0-5.89-2.5-5.89-6.11a10.1,10.1,0,0,1,2.76-7.27,9.47,9.47,0,0,1,6.15-2.43c.44,0,.53.11.53.61v1.14c0,.57-.09.66-.66.72a7.28,7.28,0,0,0-4.6,2,5,5,0,0,0-1.27,2.12.08.08,0,0,0,.09.09A1.18,1.18,0,0,0,243.51,64.36Zm-.42,2.32a1.21,1.21,0,0,0-.59,1.18A3.37,3.37,0,0,0,246,71.5a3.2,3.2,0,0,0,3.44-3.2,2.73,2.73,0,0,0-3-2.72A5.71,5.71,0,0,0,243.09,66.68Z"/><path class="cls-5" d="M74.25,60.07l.16,0a18.38,18.38,0,0,1,7.77,1.61,23.93,23.93,0,0,1,7.69-1.6V57H58.93v3.09a24,24,0,0,1,7.87,1.59A18.14,18.14,0,0,1,74.25,60.07Z"/><path class="cls-5" d="M79,65.92v0c-.07.11-1.73,2.86.45,4.62a4.17,4.17,0,0,0,3.27,1,3.55,3.55,0,0,0,2.41-1.47l0,0,0,0A3.49,3.49,0,0,0,85,65.66a9.41,9.41,0,0,0-2.88-2.37A6.82,6.82,0,0,0,79,65.92Z"/><path class="cls-5" d="M63.93,65.67A3.5,3.5,0,0,0,63.74,70l0,0,0,0a3.57,3.57,0,0,0,2.4,1.47,4.18,4.18,0,0,0,3.27-1c2.18-1.76.52-4.5.45-4.62h0v0a6.8,6.8,0,0,0-3.08-2.65A9.26,9.26,0,0,0,63.93,65.67Z"/><path class="cls-5" d="M83.83,62.61a10.29,10.29,0,0,1,2.32,2.15A5.09,5.09,0,0,1,83,73a5.65,5.65,0,0,1-4.42-1.27c-2.56-2.06-1.63-5.17-.78-6.54a7.53,7.53,0,0,1,2.68-2.66,17.69,17.69,0,0,0-5.8-1h0a17.78,17.78,0,0,0-6.13,1,7.58,7.58,0,0,1,2.69,2.65c.85,1.37,1.78,4.48-.79,6.54A5.63,5.63,0,0,1,66,73a5.1,5.1,0,0,1-3.19-8.25,10.63,10.63,0,0,1,2.32-2.15,24.83,24.83,0,0,0-6.21-1.08v14H89.87v-14A23.62,23.62,0,0,0,83.83,62.61Z"/><path class="cls-4" d="M97.34,36.38c0,.22.09.32.32.32H101c.45,0,.9,0,1.36,0s.8.06.8.63c0,.2,0,.41,0,.6v.6c0,.15,0,.32,0,.48s-.18.3-.6.3-.6,0-.6-.29,0-.36,0-.5V38c0-.3-.12-.42-.41-.42H97.76c-.29,0-.42.12-.42.42v1c0,.48,0,1,0,1.45s-.15.48-.65.48-.63,0-.63-.48,0-1,0-1.45V38c0-.3-.12-.42-.42-.42H91.95c-.3,0-.41.12-.41.42v.42c0,.15,0,.33,0,.5s-.21.29-.6.29-.6,0-.6-.3,0-.36,0-.48V37.9c0-.2,0-.39,0-.6,0-.56.29-.63.78-.63s.9,0,1.36,0h3.31c.23,0,.32-.11.32-.32v-.14c0-.21-.09-.3-.32-.3H93.71L92,36c-.32,0-.32-.12-.32-.48s0-.5.32-.5c.56,0,1.13,0,1.69,0h6.11c.57,0,1.13,0,1.69,0,.32,0,.33.12.33.48s0,.5-.32.5l-1.7,0H97.65c-.23,0-.32.09-.32.3ZM96.15,46c0-.29-.14-.41-.41-.41H93.33c-.27,0-.48,0-.5.35s-.12.29-.6.29c-.32,0-.57,0-.57-.3s0-.62,0-.93V42.48c0-.23,0-.47,0-.69,0-.41.18-.54.69-.54l1.42,0H99.7l1.27,0c.62,0,.83.08.83.56v3.25c0,.33-.06.56-.69.56H97.68c-.26,0-.36.11-.36.36v.15c0,.57.17.63.75.63h3.36c.6,0,.81-.06,1.05-1.18.06-.3.09-.42.32-.42s.8.12.8.42a5.2,5.2,0,0,1-.56,1.55c-.33.59-.78.6-1.4.6h-4c-1,0-1.54-.13-1.54-1.27ZM93.3,39c-.33,0-.71,0-.87,0s-.26-.2-.26-.44,0-.44.26-.44.56,0,.87,0h1c.33,0,.66,0,.89,0s.26.18.26.44,0,.44-.26.44-.54,0-.89,0Zm0,1.51-.86,0c-.26,0-.24-.2-.24-.42s0-.44.24-.44l.86,0h1l.86,0c.24,0,.26.17.26.44s0,.42-.26.42l-.86,0Zm2.88,1.93a.3.3,0,0,0-.32-.3h-2.7a.28.28,0,0,0-.3.3v.24a.29.29,0,0,0,.3.3h2.7a.3.3,0,0,0,.32-.3Zm-3,1.37a.28.28,0,0,0-.3.3v.26a.28.28,0,0,0,.3.3h2.7a.3.3,0,0,0,.32-.3v-.26a.3.3,0,0,0-.32-.3Zm7.17-.83a.29.29,0,0,0,.3-.3v-.24a.28.28,0,0,0-.3-.3h-2.7a.28.28,0,0,0-.3.3v.24a.29.29,0,0,0,.3.3Zm-3,1.38a.28.28,0,0,0,.3.3h2.7a.28.28,0,0,0,.3-.3v-.26a.28.28,0,0,0-.3-.3h-2.7a.28.28,0,0,0-.3.3ZM99,39.06c-.3,0-.65,0-.78,0s-.26-.2-.26-.44,0-.44.26-.44.48,0,.78,0h1.25c.3,0,.65,0,.78,0s.26.2.26.44,0,.44-.26.44-.47,0-.78,0Zm.06,1.51c-.33,0-.69,0-.84,0s-.26-.2-.26-.44,0-.44.26-.44.51,0,.84,0h1.13c.32,0,.69,0,.83,0s.26.15.26.44,0,.44-.26.44-.5,0-.83,0Z"/><path class="cls-4" d="M106.48,38.17l-1.1,0c-.3,0-.3-.18-.3-.53s0-.53.3-.53.72,0,1.1,0h2.82c.38,0,.83,0,1.1,0s.3.18.3.53,0,.53-.3.53l-1.1,0Zm2,8.95h-1.11c-.21,0-.3.07-.3.29v.21c0,.35-.11.38-.6.38s-.6,0-.6-.35,0-.66,0-1V44.55c0-.27,0-.54,0-.83,0-.44.21-.62.65-.62l.68,0h1.45l.65,0c.42,0,.65.17.65.62,0,.27,0,.56,0,.83v2.09c0,.33,0,.66,0,1s-.12.35-.57.35-.59,0-.59-.38c0-.08,0-.13,0-.21S108.67,47.11,108.47,47.11Zm-1.31-6.94c-.35,0-.68,0-.93,0s-.3-.18-.3-.53,0-.51.3-.51l.93,0h1.46l.93,0c.3,0,.3.21.3.51s0,.53-.3.53-.59,0-.93,0Zm0,2h-.93c-.3,0-.3-.2-.3-.53s0-.53.3-.53.57,0,.93,0h1.46c.36,0,.72,0,.93,0s.3.21.3.53,0,.53-.3.53h-2.39Zm0-6.05h-.93c-.3,0-.3-.16-.3-.54s0-.54.3-.54.59,0,.93,0h1.43c.36,0,.72,0,.93,0s.3.2.3.54,0,.54-.3.54h-2.36Zm1.16,10a.42.42,0,0,0,.42-.42V44.52a.43.43,0,0,0-.42-.42h-.9a.42.42,0,0,0-.42.42v1.19c0,.27.15.42.42.42Zm6.52-7.7c0,.3.12.42.42.42h1c.56,0,1.11,0,1.69,0,.35,0,.35.18.35.6s0,.59-.35.59c-.56,0-1.13,0-1.69,0h-1c-.3,0-.42.13-.42.42V42c0,.29.12.42.42.42h1.4c.45,0,.74.11.74.62,0,.29,0,.57,0,.86V46.6c0,.35,0,.69,0,1s-.17.35-.62.35-.62,0-.62-.35a.89.89,0,0,1,0-.2c0-.21-.11-.3-.3-.3h-3.16c-.21,0-.3.09-.3.3v.2c0,.32-.18.32-.63.32s-.6,0-.6-.33,0-.69,0-1V43.85c0-.29,0-.56,0-.83,0-.51.26-.65.72-.65h1.34c.3,0,.42-.13.42-.42V40.38c0-.29-.12-.42-.42-.42h-.69c-.57,0-1.13,0-1.69,0-.35,0-.35-.18-.35-.59s0-.6.35-.6c.56,0,1.11,0,1.69,0h.69c.3,0,.42-.12.42-.42V37.07c0-.2-.09-.36-.32-.36h-.09c-.38,0-1.39.18-1.73.18a.41.41,0,0,1-.39-.18A1.6,1.6,0,0,1,111,36c0-.27.26-.27.6-.29a17.33,17.33,0,0,0,4.49-.74c.3-.11.59-.23.87-.35l.11,0c.11,0,.2.13.33.29a.55.55,0,0,1,.08.09,3.26,3.26,0,0,1,.48.71.13.13,0,0,1-.14.13l-.18,0a.48.48,0,0,0-.2,0,.7.7,0,0,0-.3.09,14.68,14.68,0,0,1-1.87.53.45.45,0,0,0-.38.51Zm.93,7.62a.4.4,0,0,0,.42-.41V43.85a.43.43,0,0,0-.42-.42h-3a.42.42,0,0,0-.42.42v1.81a.39.39,0,0,0,.42.41Z"/><path class="cls-4" d="M121.15,37.35c2.2-.12,4.38-.36,6.57-.62,1.07-.14,2.41-.27,3.45-.45l.2,0c.2,0,.23.17.26.32a5,5,0,0,1,.09.81c0,.33-.21.33-.59.33a8.59,8.59,0,0,0-2.56.3,4.63,4.63,0,0,0-2.67,2.28,6,6,0,0,0-.83,2.91,2.18,2.18,0,0,0,1.19,2.09,4.55,4.55,0,0,0,1.73.26l.59,0c.18,0,.35,0,.35.21a3.08,3.08,0,0,1-.21,1c-.09.2-.18.23-.41.23-2.42,0-4.58-.86-4.58-3.64a6.9,6.9,0,0,1,1.9-4.65c.21-.21.29-.27.29-.35s-.12-.14-.2-.14c-.23,0-2,.26-2.38.3-.78.12-1.57.24-2.33.44a1.15,1.15,0,0,1-.23,0c-.33,0-.44-1.17-.44-1.26C120.34,37.35,120.53,37.38,121.15,37.35Zm9.4,2.45c.11.12.59.65.59.81s-.48.57-.68.57-.15-.09-.2-.17c-.3-.42-.65-.83-1-1.23,0,0-.12-.13-.12-.2s.5-.51.65-.51S130.26,39.48,130.55,39.81Zm2.33,0c0,.2-.48.57-.68.57s-.15-.11-.21-.18A12.85,12.85,0,0,0,131,39c0-.06-.12-.13-.12-.21s.5-.51.66-.51A6.25,6.25,0,0,1,132.88,39.84Z"/><path class="cls-4" d="M144.86,37.78a5,5,0,0,1,1.48,3.64,5.29,5.29,0,0,1-2.91,4.79,5.64,5.64,0,0,1-1.55.56c-.32,0-.84-.71-.84-1s.24-.18.38-.21a4.19,4.19,0,0,0,3.58-4.1,3.85,3.85,0,0,0-2.68-3.83,3.19,3.19,0,0,0-.63-.13c-.39,0-.39.33-.41.62-.14,2.23-.68,5-2.14,6.78a2.6,2.6,0,0,1-1.88,1.1,2.29,2.29,0,0,1-1.93-1.36,4.81,4.81,0,0,1-.45-2.09A6.12,6.12,0,0,1,141,36.32,5.3,5.3,0,0,1,144.86,37.78Zm-5.63.09a4.87,4.87,0,0,0-3.09,4.64c0,.66.24,2.18,1.11,2.18s1.6-1.58,1.85-2.24A12.84,12.84,0,0,0,140,38c0-.16-.08-.3-.24-.3A2.28,2.28,0,0,0,139.23,37.87Z"/><path class="cls-4" d="M152,43.65a20.11,20.11,0,0,0-2.41,1.78c-.06,0-.14.12-.21.12-.27,0-.74-.86-.74-1.14s.14-.2.3-.29c.84-.5,1.64-1.05,2.47-1.55.62-.38.69-.41.69-.81s0-1.11,0-1.69c0-.2-.09-.36-.32-.36l-1.34.22a1.8,1.8,0,0,1-.41,0c-.17,0-.38,0-.38-.89,0-.39.06-.39.35-.41.54,0,1.11-.09,1.66-.15.24,0,.42-.11.48-.35,0-.08.06-1.42.06-1.57s0-.38,0-.54,0-.11,0-.15a.18.18,0,0,1,.18-.2c.2,0,1,.18,1.25.23.09,0,.27.06.27.18s-.11.2-.18.26a1.65,1.65,0,0,0-.26,1,3.78,3.78,0,0,1,0,.39v.17a.21.21,0,0,0,.23.23,10.14,10.14,0,0,0,1.13-.3,1.09,1.09,0,0,1,.24-.06c.27,0,.32.75.32,1,0,.36-.18.38-1.45.59-.66.11-.6.23-.6,1.49,0,.3,0,.59.2.59a1,1,0,0,0,.33-.12,7.42,7.42,0,0,1,2.73-.62c1.63,0,3.21,1,3.21,2.74a2.49,2.49,0,0,1-1.2,2.17,6.3,6.3,0,0,1-3.12.62c-.23,0-.53,0-.6-.12a2.92,2.92,0,0,1-.23-.95c0-.15.06-.29.23-.29a9.83,9.83,0,0,0,1.27.15c1,0,2.35-.33,2.35-1.57,0-1.07-1.08-1.58-2-1.58a6.17,6.17,0,0,0-2.91.83.48.48,0,0,0-.18.39c0,.24,0,.81.06,1.09s.14,1.76.14,1.87c0,.69-.77,1-1.13,1s-.42-.3-.53-.54a3.06,3.06,0,0,0-.89-1.21c-.08-.06-.18-.15-.18-.26a.28.28,0,0,1,.29-.26c.15,0,.6.41.8.5a.47.47,0,0,0,.26.13c.08,0,.09-.06.09-.11s-.06-.63-.06-.84C152.14,43.88,152.17,43.65,152,43.65Zm6.22-5.78c.35.26,1.1.9,1.49,1.21a3.83,3.83,0,0,1,.78.77c0,.24-.51.84-.77.84s-.23-.11-.32-.18a22.69,22.69,0,0,0-1.94-1.66c-.11-.09-.26-.18-.26-.33s.53-.78.74-.78A.46.46,0,0,1,158.2,37.87Z"/><path class="cls-4" d="M164,45.31c0,.71,0,1.43,0,2.15,0,.48-.12.53-.63.53s-.63,0-.63-.54c0-.71,0-1.43,0-2.14V37.05c0-.45,0-.89,0-1.33,0-.59.24-.72.8-.72.35,0,.68,0,1,0h1.66l1,0c.54,0,.8.12.8.71s0,.89,0,1.34v.84c0,.42,0,.84,0,1.27,0,.62-.2.77-.8.77l-1,0h-1.82c-.3,0-.42.13-.42.42ZM164.4,36a.34.34,0,0,0-.36.36v.27a.34.34,0,0,0,.36.36h2.12a.35.35,0,0,0,.36-.36v-.27a.35.35,0,0,0-.36-.36ZM164,38.57a.34.34,0,0,0,.36.36h2.12a.35.35,0,0,0,.36-.36v-.31a.34.34,0,0,0-.36-.36H164.4a.33.33,0,0,0-.36.36Zm3.75,7.06a.26.26,0,0,0-.3.29c0,.06,0,.11,0,.17,0,.3-.21.3-.6.3s-.59,0-.59-.33,0-.65,0-1V42.94c0-.26,0-.53,0-.78,0-.47.26-.62.69-.62h3.63c.47,0,.69.15.69.65,0,.26,0,.5,0,.75v2.17c0,.32,0,.65,0,1s-.14.32-.57.32-.59,0-.59-.3v-.18c0-.2-.11-.29-.3-.29Zm2-1c.26,0,.42-.17.42-.42V43a.38.38,0,0,0-.42-.41H167.9a.39.39,0,0,0-.42.41v1.18a.42.42,0,0,0,.42.42Zm1.7-4.71-1,0c-.54,0-.8-.12-.8-.71s0-.89,0-1.33v-.84c0-.44,0-.86,0-1.28,0-.62.2-.77.8-.77l1,0h1.63l1,0c.56,0,.81.12.81.72,0,.44,0,.87,0,1.33v7.86c0,.45,0,.92,0,1.37a1.32,1.32,0,0,1-.45,1.24,3.36,3.36,0,0,1-1.84.39c-.51,0-.8,0-.8-.89,0-.22.06-.35.3-.35s.59,0,.87,0c.72,0,.71-.29.71-.86V40.32a.37.37,0,0,0-.42-.42Zm-.24-3.9a.35.35,0,0,0-.36.36v.27a.35.35,0,0,0,.36.36h2.09a.35.35,0,0,0,.38-.36v-.27a.35.35,0,0,0-.38-.36Zm-.36,2.57a.35.35,0,0,0,.36.36h2.09a.35.35,0,0,0,.38-.36v-.31a.35.35,0,0,0-.38-.36h-2.09a.35.35,0,0,0-.36.36Z"/><path class="cls-4" d="M183.61,36.3a.31.31,0,0,0-.24.12A21.94,21.94,0,0,1,179,40.76a4.11,4.11,0,0,1-1.25.72c-.27,0-.72-.54-.72-.8s.27-.32.41-.39a16.52,16.52,0,0,0,4.44-3.8,12.81,12.81,0,0,0,1.25-1.81c.06-.11.12-.21.24-.21a6.23,6.23,0,0,1,1,.26c.14,0,.39.09.39.27a.2.2,0,0,1-.12.17c-.08,0-.12.09-.12.17a.13.13,0,0,0,0,.11,17.48,17.48,0,0,0,5.5,4.77c.27.17.42.26.42.41s-.32.87-.6.87a15.31,15.31,0,0,1-2.45-1.58,17.41,17.41,0,0,1-3.49-3.48A.31.31,0,0,0,183.61,36.3Zm-2.55,10.78c-.2,0-.3.08-.3.29v.26c0,.36-.18.36-.63.36s-.63,0-.63-.36,0-.65,0-1v-2.8c0-.26,0-.51,0-.77,0-.65.3-.81.9-.81l1,0h4.34l1,0c.6,0,.9.17.9.8,0,.27,0,.53,0,.78v2.83c0,.32,0,.63,0,1s-.15.36-.65.36-.63,0-.63-.35a2,2,0,0,1,0-.3c0-.21-.09-.29-.3-.29Zm1.14-6.37c-.5,0-1,0-1.46,0-.32,0-.29-.33-.29-.63s0-.54.29-.54c.45,0,1,0,1.46,0H185c.48,0,1,0,1.45,0,.33,0,.3.33.3.65s0,.53-.3.53-1,0-1.45,0ZM186,46a.43.43,0,0,0,.42-.42V43.83a.43.43,0,0,0-.42-.42h-4.89a.41.41,0,0,0-.41.42v1.75a.41.41,0,0,0,.41.42Z"/><path class="cls-4" d="M196.53,35.26c.08,0,.17.09.17.18a.3.3,0,0,1-.09.2c-.23.23-.21.32-.32,1.17,0,.17-.06.63-.06.77s0,.16.17.16h0c.08,0,.12,0,.26.17a1.26,1.26,0,0,0,.08.11,1.53,1.53,0,0,1,.32.56c0,.12-.14.23-.21.3a3.31,3.31,0,0,0-.78,1.31c0,.16,0,.3.09.3s.17-.11.21-.15a6.37,6.37,0,0,1,4-1.91A3.47,3.47,0,0,1,203.82,42c0,3.43-4.23,4.79-4.76,4.79-.35,0-.71-.75-.71-1s.15-.26.32-.29c1.73-.38,3.81-1.39,3.81-3.42a2.27,2.27,0,0,0-2.17-2.42c-1.4,0-3,1.19-4,2.15a.82.82,0,0,0-.26.68v.38c0,1.19,0,2.38.11,3.57,0,.17,0,.65,0,.77s0,.26-.89.26c-.32,0-.54,0-.54-.32,0-.11,0-.3,0-.44,0-.71,0-1.43,0-2.15,0-.35,0-.6,0-.78s0-.39-.12-.39-.24.16-.33.27c-.27.33-1.16,1.43-1.37,1.75,0,.09-.11.2-.23.2a1.68,1.68,0,0,1-.89-.9.55.55,0,0,1,.17-.32,15.9,15.9,0,0,0,2.73-3.55,1.82,1.82,0,0,0,.11-.72v-.33c0-.15,0-.35-.24-.35a1.84,1.84,0,0,0-.39.07c-.24.06-1.37.35-1.55.35-.39,0-.51-1.19-.51-1.2,0-.21.14-.23.32-.23a10,10,0,0,0,1.9-.18c.21,0,.41-.07.5-.27a16.38,16.38,0,0,0,.11-2.17c0-.24,0-.41,0-.51s.06-.2.2-.2A13.19,13.19,0,0,1,196.53,35.26Z"/><path class="cls-4" d="M210.48,36.84c.09,0,.24.06.24.18a.38.38,0,0,1-.12.24.72.72,0,0,0-.18.47c0,.16,0,.39,0,.62V39c0,.23,0,.62.29.62.09,0,2.46-.38,2.77-.42s.59-.11.59-.57a10.47,10.47,0,0,0-.26-2.48.76.76,0,0,1,0-.18.18.18,0,0,1,.2-.16c.2,0,1,.15,1.23.2s.29.06.29.18a.56.56,0,0,1-.12.26.79.79,0,0,0-.11.48c0,.42,0,.86,0,1.28v.21c0,.09,0,.48.3.48.11,0,1.08-.15,1.27-.18s1-.17,1.25-.17.26.21.26.77-.09.57-.53.6c-.62,0-1.25.11-1.87.18a1.19,1.19,0,0,0-.57.12c-.17.12-.2.48-.23.92-.09,1.08-.23,2.7-2.52,2.7a.36.36,0,0,1-.39-.21,2.2,2.2,0,0,1-.17-.77c0-.15.08-.3.24-.3l.32,0c.59,0,1-.15,1.16-.74a6.34,6.34,0,0,0,.18-1.18.27.27,0,0,0-.26-.27l-.2,0c-.45.06-2.38.36-2.74.45a.48.48,0,0,0-.41.54,20.25,20.25,0,0,0,.2,3.07,1.28,1.28,0,0,0,1.14,1,7.3,7.3,0,0,0,1.29.11,12.75,12.75,0,0,0,2.83-.32l.15,0c.21,0,.21.27.21.42s0,.78-.18.9a15,15,0,0,1-2.85.23c-1.25,0-2.82,0-3.52-1.27-.5-.86-.45-2.74-.48-3.77,0-.23,0-.53-.32-.53s-1.93.39-2.21.47l-.26,0c-.23,0-.24-.29-.27-.45a5.71,5.71,0,0,1-.11-.71c0-.3.23-.3.47-.32s1.91-.24,2.27-.32a.4.4,0,0,0,.36-.47A21,21,0,0,0,209,37c0-.06,0-.13,0-.2s.06-.2.2-.2A10.7,10.7,0,0,1,210.48,36.84Z"/><path class="cls-5" d="M98.37,148.26a25.07,25.07,0,0,0-2.94,2.21.63.63,0,0,1-.3.16c-.4,0-1.19-1.49-1.19-1.89,0-.22.22-.28.46-.42,1.11-.63,2.16-1.35,3.26-2,.75-.46.83-.48.83-1.09v-.67c0-.3,0-.6,0-.89v-.2a.43.43,0,0,0-.44-.46L98,143c-.38.08-1.73.32-2,.32s-.58,0-.58-1.47c0-.54,0-.62.42-.63.62,0,1.31-.06,1.93-.14a1.05,1.05,0,0,0,.73-.24.8.8,0,0,0,.16-.6c0-.55,0-1.11,0-1.67,0-.4,0-.85,0-.93s.06-.3.26-.3,1.63.28,2,.36c.12,0,.4.08.4.26s-.12.24-.2.32c-.3.24-.32.48-.38,1.09,0,.12,0,.28-.06.46s0,.2,0,.28a.35.35,0,0,0,.34.34c.14,0,1.05-.28,1.25-.34a1.11,1.11,0,0,1,.34-.1c.46,0,.52,1.29.52,1.63,0,.52-.34.52-1.85.77-.73.14-.77.28-.77,1.19v.28c0,.34,0,.78.3.78a1.86,1.86,0,0,0,.5-.18,9.29,9.29,0,0,1,3.3-.65c2.2,0,4.33,1.37,4.33,3.75a3.49,3.49,0,0,1-1.59,3,7.9,7.9,0,0,1-4,.89H103c-.32,0-.73,0-.83-.22a3.85,3.85,0,0,1-.32-1.43c0-.26.06-.52.36-.52a15.73,15.73,0,0,0,1.63.18c1.15,0,2.84-.38,2.84-1.83,0-1.25-1.27-1.87-2.38-1.87a7.75,7.75,0,0,0-3.49,1,.67.67,0,0,0-.32.62c0,.24,0,1,.06,1.31s.18,2.21.18,2.4c0,1-1.21,1.45-1.75,1.45s-.58-.42-.73-.75a4,4,0,0,0-1.21-1.55c-.1-.1-.24-.22-.24-.38a.45.45,0,0,1,.44-.4,4.78,4.78,0,0,1,1,.62.4.4,0,0,0,.24.12c.12,0,.14-.08.14-.16s0-.83,0-.87,0-.2,0-.28C98.57,148.46,98.57,148.26,98.37,148.26Zm10-6.93c.54.42,1.53,1.25,1.53,1.47,0,.38-.85,1.35-1.25,1.35a.8.8,0,0,1-.44-.24,28.39,28.39,0,0,0-2.64-2.22c-.14-.1-.36-.26-.36-.48s.87-1.29,1.19-1.29a5.94,5.94,0,0,1,1.49,1Z"/><path class="cls-5" d="M114.55,150.15c0,1,.06,1.95.06,2.92,0,.63-.22.66-1,.66s-1.05,0-1.05-.64c0-1,.06-2,.06-2.94V139.33c0-.62,0-1.23,0-1.85,0-.79.32-1,1.07-1,.5,0,1,0,1.51,0h2.06c.5,0,1,0,1.49,0,.75,0,1.09.2,1.09,1,0,.62,0,1.25,0,1.87v.89c0,.62,0,1.23,0,1.87s-.32,1-1.05,1c-.52,0-1,0-1.53,0h-2.08c-.4,0-.56.16-.56.56ZM115,138a.45.45,0,0,0-.48.48v.1a.45.45,0,0,0,.48.47h2.3a.45.45,0,0,0,.48-.47v-.1a.45.45,0,0,0-.48-.48Zm-.48,3a.46.46,0,0,0,.48.48h2.3a.46.46,0,0,0,.48-.48v-.18a.46.46,0,0,0-.48-.48H115a.46.46,0,0,0-.48.48Zm5.06,9.59c-.34,0-.46.14-.46.46v.12c0,.44-.26.42-1,.42s-1,0-1-.42,0-1,0-1.49V147c0-.4,0-.78,0-1.17,0-.65.46-.77,1-.77l1.27,0h2.18l1.29,0c.62,0,1,.14,1,.83,0,.36,0,.74,0,1.11v2.8c0,.5,0,1,0,1.47s-.22.44-1,.44-.93,0-.93-.42v-.16c0-.32-.14-.44-.46-.44Zm2-1.67a.55.55,0,0,0,.56-.55v-1.17a.57.57,0,0,0-.56-.56h-1.95a.57.57,0,0,0-.56.56v1.17c0,.36.22.55.56.55Zm2.54-5.94c-.52,0-1,0-1.51,0-.73,0-1.09-.2-1.09-1,0-.63,0-1.25,0-1.87v-.89c0-.62,0-1.25,0-1.87,0-.77.34-1,1.07-1,.52,0,1,0,1.53,0h2c.52,0,1,0,1.51,0,.77,0,1.07.2,1.07,1,0,.62,0,1.23,0,1.85v10.1c0,.63,0,1.25,0,1.89a1.92,1.92,0,0,1-.69,1.77,4.51,4.51,0,0,1-2.5.56c-.69,0-1.17,0-1.17-1.49,0-.32.08-.5.44-.5s.73,0,1.11,0c.81,0,.79-.36.79-1V143.6c0-.4-.16-.56-.54-.56Zm-.16-5a.45.45,0,0,0-.48.48v.12a.46.46,0,0,0,.48.48h2.3a.44.44,0,0,0,.46-.48v-.12a.43.43,0,0,0-.46-.48Zm-.48,3a.46.46,0,0,0,.48.48h2.3a.44.44,0,0,0,.46-.48v-.16a.44.44,0,0,0-.46-.48H124a.46.46,0,0,0-.48.48Z"/><path class="cls-5" d="M135.74,143.14c0-.12-.06-.24-.2-.24a.19.19,0,0,0-.16.06c-.48.4-2.56,2-3,2s-1.25-1-1.25-1.39c0-.24.36-.4.54-.5a20.22,20.22,0,0,0,5.74-4.79A15.23,15.23,0,0,0,139,136c.06-.14.14-.28.32-.28s1.59.34,1.93.42c.16,0,.4.1.4.3a.32.32,0,0,1-.24.28c-.06,0-.1.08-.1.14s0,.06,0,.1a20.37,20.37,0,0,0,7,6c.4.22.56.3.56.5,0,.36-.6,1.57-1,1.57a18.9,18.9,0,0,1-3.45-2.2.36.36,0,0,0-.24-.1c-.18,0-.2.18-.2.32v.38c0,.46,0,.79-.4.79-.64,0-1.29,0-1.93,0h-3.67c-.65,0-1.29,0-1.93,0-.42,0-.4-.44-.4-.87Zm1.07,9.39c-.32,0-.46.12-.46.44v.2c0,.54-.3.52-1.07.52s-1,0-1-.5c0-.08,0-1.21,0-1.45v-3.55c0-.4,0-.79,0-1.17,0-.93.56-1.11,1.39-1.11.48,0,1,0,1.47,0h5.58c.5,0,1,0,1.49,0,.81,0,1.37.18,1.37,1.09,0,.4,0,.79,0,1.19v3.59c0,.48,0,1.11,0,1.43,0,.52-.28.52-1.05.52s-1.07,0-1.07-.5V153c0-.28-.1-.44-.46-.44Zm6.11-1.77a.57.57,0,0,0,.56-.55v-1.87a.55.55,0,0,0-.56-.55h-6.05a.55.55,0,0,0-.56.55v1.87a.57.57,0,0,0,.56.55Zm-3-12.31a.44.44,0,0,0-.32.18,34.77,34.77,0,0,1-3.08,3.31.22.22,0,0,0-.08.18c0,.14.12.2.24.2.46,0,.91,0,1.39,0h3.67c1.29,0,1.61,0,1.61-.28s-.22-.36-.5-.62l-.22-.18a20.54,20.54,0,0,1-2.4-2.66A.43.43,0,0,0,139.91,138.45Z"/><path class="cls-5" d="M157.28,136.79c.12,0,.24.12.24.24a.38.38,0,0,1-.14.26c-.24.24-.28.22-.36,1.05,0,.28-.14,1.19-.14,1.43s.08.26.3.3a2.62,2.62,0,0,1,.77,1.07c0,.16-.18.3-.28.42a4.53,4.53,0,0,0-1,1.53c0,.2,0,.32.12.32s.2-.12.26-.18c1.47-1.27,3-2.36,5-2.36a4.71,4.71,0,0,1,4.63,4.88c0,3-2.24,4.9-4.82,6a5.91,5.91,0,0,1-1.63.48c-.56,0-1.09-1.23-1.09-1.65s.24-.4.52-.46c2.16-.5,4.82-1.65,4.82-4.25a2.74,2.74,0,0,0-2.6-2.92c-1.69,0-4,1.53-5,2.82a1.15,1.15,0,0,0-.24.79c0,1.17,0,2.34.08,3.49,0,.55.14,2.44.14,2.66s-.18.34-1.49.34c-.58,0-.83,0-.83-.42,0-.16,0-.54,0-.63,0-.62.06-1.47.06-1.57,0-.63,0-1.29,0-1.93,0-.14,0-.32-.2-.32s-.3.22-.4.32c-.38.46-1.19,1.49-1.49,1.95-.06.12-.16.28-.3.28a3,3,0,0,1-1.49-1.53c0-.22.34-.52.5-.68a19,19,0,0,0,3.36-4.43,1.64,1.64,0,0,0,.12-.78V143c0-.2-.08-.42-.32-.42a1.72,1.72,0,0,0-.34.06,20.63,20.63,0,0,1-2.1.48c-.28,0-.38-.26-.46-.48a8.18,8.18,0,0,1-.32-1.51c0-.3.2-.34.46-.34H152a11.48,11.48,0,0,0,2.18-.2.76.76,0,0,0,.62-.34,1.85,1.85,0,0,0,.1-.81c0-.68,0-1.35,0-2,0-.28,0-.5,0-.63s.1-.28.3-.28S157,136.73,157.28,136.79Z"/><path class="cls-5" d="M175.58,138.85c.12,0,.26.1.26.24s-.12.24-.2.32a3,3,0,0,0-.28,1.61v.54c0,.3,0,.75.4.75.18,0,2.12-.34,2.48-.38,1.09-.16,1.43-.12,1.43-.81a15.79,15.79,0,0,0-.34-3.21,1.17,1.17,0,0,1,0-.26.24.24,0,0,1,.28-.26c.26,0,1.73.26,2,.34.14,0,.4.06.4.24s-.12.24-.18.32a2.08,2.08,0,0,0-.14,1c0,.52,0,1,0,1.53,0,.26.06.55.4.55.16,0,1.33-.18,1.59-.22s1.33-.2,1.59-.2.38.3.38,1.35-.08.89-1,.93l-1.49.12c-1.11.1-1.49,0-1.55.79-.2,2.48-.68,4.13-3.55,4.13a.68.68,0,0,1-.52-.16,3.49,3.49,0,0,1-.34-1.51c0-.2.1-.4.32-.4l.5,0a1.2,1.2,0,0,0,1.35-.85,6.85,6.85,0,0,0,.22-1.21.33.33,0,0,0-.34-.34c-.24,0-2.8.46-3.2.54s-.73.26-.73.81a23.52,23.52,0,0,0,.24,3.61c.36,1.27,1.61,1.33,3,1.33a20.73,20.73,0,0,0,3.83-.4.56.56,0,0,1,.18,0c.28,0,.32.36.32.58s0,1.39-.24,1.59a20.23,20.23,0,0,1-3.77.32c-2,0-4.57-.14-5.22-2.48a19.45,19.45,0,0,1-.34-4c0-.3-.06-.66-.44-.66-.22,0-2.46.52-2.82.62a1.26,1.26,0,0,1-.3,0c-.3,0-.36-.32-.4-.79,0-.1,0-.22,0-.34s-.08-.65-.08-.87c0-.44.28-.44.62-.44.54,0,1.93-.26,2.52-.34s.83-.1.83-.7,0-2.34-.14-3.06a1.38,1.38,0,0,1,0-.28c0-.22.12-.3.32-.3A21.59,21.59,0,0,1,175.58,138.85Z"/><path class="cls-5" d="M192.34,138.2c.16.06.52.2.52.4s-.08.16-.18.2c-.46.22-.58.4-.81,1a18.31,18.31,0,0,0-1.09,6c0,.32.06,2.21.44,2.21.14,0,.24-.26.44-.71.1-.22.3-.87.54-.87s.85.4.85.63a20,20,0,0,0-1,3.61c0,.32,0,.63,0,1,0,.77-1.41,1-1.51,1-.34,0-.5-.38-.64-.66a14.29,14.29,0,0,1-1.17-6.11,22.8,22.8,0,0,1,.69-5.56c.22-.87.5-1.73.71-2.6,0-.14.08-.34.26-.34a7.48,7.48,0,0,1,1.27.52C192,138,192.22,138.16,192.34,138.2Zm7.9-.57c.1,0,.2.06.2.18s-.12.22-.22.4a2.77,2.77,0,0,0-.22,1.41v.56c0,.28.12.52.42.52a12.61,12.61,0,0,0,2-.5,1.61,1.61,0,0,1,.3-.06c.4,0,.54,1.37.54,1.67s-.14.52-2.48.83c-.44.06-.68.14-.68.63s.14,3.43.16,4,.24.55.68.77a11,11,0,0,1,2.14,1.39c.24.2.52.42.52.75s-.69,1.37-1.15,1.37a.91.91,0,0,1-.56-.3,5.63,5.63,0,0,0-1.47-1.09c-.2,0-.26.16-.3.32-.36,1.27-1.69,1.67-2.88,1.67-1.59,0-3.32-.75-3.32-2.58s1.57-2.5,3.12-2.5a4.92,4.92,0,0,1,.77.06h.14c.28,0,.4-.16.4-.42,0-.5-.1-2.38-.12-3,0-.2,0-.76-.48-.76-.16,0-1.57.08-2.36.08h-.26a4.42,4.42,0,0,1-1.51-.16c-.18-.12-.2-1.25-.2-1.51s0-.5.32-.5,2,.2,3,.2h.32c.48,0,.93,0,.93-.48s-.16-2.34-.24-2.84c0-.06,0-.14,0-.2a.24.24,0,0,1,.28-.28A18.71,18.71,0,0,1,200.24,137.62Zm-3.08,11.14c-.46,0-1.43.16-1.43.77s1,.85,1.45.85c.75,0,1.25-.28,1.25-1.09C198.43,148.78,197.54,148.76,197.16,148.76Z"/><path class="cls-5" d="M208.51,146.38c.26,0,.32.18.36.38.42,2.1,2.1,2.4,4,2.4a24.72,24.72,0,0,0,5.92-.7,1.61,1.61,0,0,1,.3-.06c.3,0,.44.34.44,1.63a.64.64,0,0,1-.48.73,36.2,36.2,0,0,1-6,.56c-2.06,0-4.29-.26-5.58-2.06a4.65,4.65,0,0,1-.77-1.93C206.7,146.83,208.49,146.38,208.51,146.38Zm.34-6.93c.06-.34.1-.7.48-.7a3,3,0,0,1,.58.12,12.82,12.82,0,0,0,3.38.42,16.91,16.91,0,0,0,3.59-.4,1,1,0,0,1,.26,0c.5,0,.52.89.52,1.71,0,.48-.1.52-.56.6a27.19,27.19,0,0,1-3.59.24,17.05,17.05,0,0,1-4.53-.5.41.41,0,0,1-.28-.42A6.85,6.85,0,0,1,208.85,139.45Z"/><path class="cls-5" d="M230.13,137.62a.37.37,0,0,1-.18.3,1.3,1.3,0,0,0-.42.81c0,.12-.06.24-.12.4a2.23,2.23,0,0,0-.12.5.31.31,0,0,0,.34.3,21.26,21.26,0,0,0,3.83-.87,1.67,1.67,0,0,1,.54-.14c.26,0,.3.28.38.56a6.35,6.35,0,0,1,.18,1.23c0,.32-.22.38-.71.48-1.07.2-3.41.55-4.53.67-.65.08-.67.22-.91,1.15-.06.28-.16.63-.28,1.07a1.13,1.13,0,0,0-.06.36c0,.12.06.18.2.18a.42.42,0,0,0,.22-.08,6.39,6.39,0,0,1,3.47-1.07,3.85,3.85,0,0,1,4,4.11c0,2.5-1.71,4-4,4.64a18.12,18.12,0,0,1-4.15.56c-.66,0-.75-.1-.87-.52a6.11,6.11,0,0,1-.26-1.31.4.4,0,0,1,.42-.42c.26,0,.85.14,1.61.14,2.06,0,5.22-.6,5.22-3.21a1.93,1.93,0,0,0-2-2.06,6.53,6.53,0,0,0-4.8,2.48c-.14.18-.32.44-.56.44-.46,0-1.59-.56-1.59-1.11a2.79,2.79,0,0,1,.28-.87A20,20,0,0,0,226.4,143a2.21,2.21,0,0,0,.1-.5.29.29,0,0,0-.32-.3l-.42,0c-.46,0-2,.2-2.4.2a.47.47,0,0,1-.52-.4,6,6,0,0,1-.22-1.31c0-.52.32-.5.42-.5.28,0,1.45.08,2.24.08,1.41,0,1.63-.06,1.81-.48a19.17,19.17,0,0,0,.42-2.52c0-.28,0-.71.34-.71S230.13,137.18,230.13,137.62Z"/><path class="cls-5" d="M244.24,140.7c.14.06.36.12.36.28a.26.26,0,0,1-.18.22c-.32.2-.34.38-.42.77-.16.91-.28,1.85-.48,2.76a3.06,3.06,0,0,0-.06.42c0,.12.06.24.2.24a.45.45,0,0,0,.26-.12c1.47-1,2.66-1.83,4.55-1.83a4.07,4.07,0,0,1,4.33,4.13c0,2.82-2.1,4-4.51,4.72a13.34,13.34,0,0,1-2.58.54c-.44,0-.56-.18-.73-.55a4.15,4.15,0,0,1-.34-1.29c0-.32.24-.34.5-.36a13.19,13.19,0,0,0,2.64-.4c1.41-.36,2.88-1,2.88-2.66a2.15,2.15,0,0,0-2.38-2.11c-2.08,0-4.19,1.75-5.44,3.32-.16.2-.32.42-.6.42s-1.51-.2-1.51-.77a3,3,0,0,1,.2-.7c.18-.63.34-1.29.46-1.95a31.69,31.69,0,0,0,.48-4.33c0-.16,0-.3,0-.44,0-.58,0-.87.34-.87A14.1,14.1,0,0,1,244.24,140.7Zm.36-4.29a13.69,13.69,0,0,1,2.26,1.25c.3.18,1.45.81,1.45,1.15s-.81,1.57-1.23,1.57c-.22,0-.48-.28-.64-.4a16.29,16.29,0,0,0-2.5-1.69c-.2-.12-.46-.22-.46-.44S244.12,136.41,244.6,136.41Z"/><rect class="cls-5" x="60.16" y="135.8" width="27.79" height="17.66"/><polyline class="cls-6" points="60.16 135.8 74.05 147.11 87.94 135.8"/><line class="cls-6" x1="71.46" y1="145.07" x2="60.16" y2="153.46"/><line class="cls-6" x1="77.01" y1="144.89" x2="87.94" y2="153.46"/></g></g></svg>