<svg xmlns="http://www.w3.org/2000/svg" viewBox="0 0 44.98 44.99"><defs><style>.cls-1{fill:#3299d5;}.cls-2{fill:#fff;fill-rule:evenodd;}</style></defs><title>twitter_logo_1</title><g id="Layer_2" data-name="Layer 2"><g id="レイヤー_1" data-name="レイヤー 1"><path class="cls-1" d="M22.49,0A22.49,22.49,0,1,0,45,22.49,22.51,22.51,0,0,0,22.49,0Z"/><path class="cls-2" d="M23,18.37a19.94,19.94,0,0,1-13.6-6.93,7,7,0,0,0,2.18,8.85,13.67,13.67,0,0,1-3.18-.77c.2,5.16,5.48,6.43,5.48,6.43a9.84,9.84,0,0,1-3,.15A6.93,6.93,0,0,0,17,30.5c-3.6,3.57-9.8,2.8-9.8,2.8a19.73,19.73,0,0,0,19.41.61,18.8,18.8,0,0,0,9.3-17.19,10.44,10.44,0,0,0,3.21-3.26,19,19,0,0,1-3.64.93,6.47,6.47,0,0,0,2.8-3.6,17.56,17.56,0,0,1-4.1,1.57,6.43,6.43,0,0,0-7.12-1.73C21.9,12.74,23,18.37,23,18.37Z"/></g></g></svg>