<svg xmlns="http://www.w3.org/2000/svg" viewBox="0 0 30.41 7.08"><defs><style>.cls-1{fill:#393839;}</style></defs><title>white_text</title><g id="Layer_2" data-name="Layer 2"><g id="レイヤー_1" data-name="レイヤー 1"><path class="cls-1" d="M0,0H.68L2.44,6.27h0L4.25,0h.84L6.88,6.27h0L8.66,0h.68L7.28,7.08H6.47L4.68.78h0L2.87,7.08H2.06Z"/><path class="cls-1" d="M10.36,0H11V3.12h4V0h.66V7.08H15V3.72H11V7.08h-.66Z"/><path class="cls-1" d="M17.58,0h.66V7.08h-.66Z"/><path class="cls-1" d="M21.75.6H19.33V0h5.5V.6H22.41V7.08h-.66Z"/><path class="cls-1" d="M25.92,0h4.33V.6H26.58V3.12H30v.6H26.58V6.48h3.83v.6H25.92Z"/></g></g></svg>